G04 #@! TF.GenerationSoftware,KiCad,Pcbnew,7.0.2*
G04 #@! TF.CreationDate,2023-05-27T23:51:10-07:00*
G04 #@! TF.ProjectId,meeseeks-sao,6d656573-6565-46b7-932d-73616f2e6b69,rev?*
G04 #@! TF.SameCoordinates,Original*
G04 #@! TF.FileFunction,Paste,Top*
G04 #@! TF.FilePolarity,Positive*
%FSLAX46Y46*%
G04 Gerber Fmt 4.6, Leading zero omitted, Abs format (unit mm)*
G04 Created by KiCad (PCBNEW 7.0.2) date 2023-05-27 23:51:10*
%MOMM*%
%LPD*%
G01*
G04 APERTURE LIST*
G04 Aperture macros list*
%AMRoundRect*
0 Rectangle with rounded corners*
0 $1 Rounding radius*
0 $2 $3 $4 $5 $6 $7 $8 $9 X,Y pos of 4 corners*
0 Add a 4 corners polygon primitive as box body*
4,1,4,$2,$3,$4,$5,$6,$7,$8,$9,$2,$3,0*
0 Add four circle primitives for the rounded corners*
1,1,$1+$1,$2,$3*
1,1,$1+$1,$4,$5*
1,1,$1+$1,$6,$7*
1,1,$1+$1,$8,$9*
0 Add four rect primitives between the rounded corners*
20,1,$1+$1,$2,$3,$4,$5,0*
20,1,$1+$1,$4,$5,$6,$7,0*
20,1,$1+$1,$6,$7,$8,$9,0*
20,1,$1+$1,$8,$9,$2,$3,0*%
%AMFreePoly0*
4,1,14,0.334644,0.085355,0.385355,0.034644,0.400000,-0.000711,0.400000,-0.050000,0.385355,-0.085355,0.350000,-0.100000,-0.350000,-0.100000,-0.385355,-0.085355,-0.400000,-0.050000,-0.400000,0.050000,-0.385355,0.085355,-0.350000,0.100000,0.299289,0.100000,0.334644,0.085355,0.334644,0.085355,$1*%
%AMFreePoly1*
4,1,14,0.385355,0.085355,0.400000,0.050000,0.400000,0.000711,0.385355,-0.034644,0.334644,-0.085355,0.299289,-0.100000,-0.350000,-0.100000,-0.385355,-0.085355,-0.400000,-0.050000,-0.400000,0.050000,-0.385355,0.085355,-0.350000,0.100000,0.350000,0.100000,0.385355,0.085355,0.385355,0.085355,$1*%
%AMFreePoly2*
4,1,14,0.085355,0.385355,0.100000,0.350000,0.100000,-0.350000,0.085355,-0.385355,0.050000,-0.400000,-0.050000,-0.400000,-0.085355,-0.385355,-0.100000,-0.350000,-0.100000,0.299289,-0.085355,0.334644,-0.034644,0.385355,0.000711,0.400000,0.050000,0.400000,0.085355,0.385355,0.085355,0.385355,$1*%
%AMFreePoly3*
4,1,14,0.034644,0.385355,0.085355,0.334644,0.100000,0.299289,0.100000,-0.350000,0.085355,-0.385355,0.050000,-0.400000,-0.050000,-0.400000,-0.085355,-0.385355,-0.100000,-0.350000,-0.100000,0.350000,-0.085355,0.385355,-0.050000,0.400000,-0.000711,0.400000,0.034644,0.385355,0.034644,0.385355,$1*%
%AMFreePoly4*
4,1,14,0.385355,0.085355,0.400000,0.050000,0.400000,-0.050000,0.385355,-0.085355,0.350000,-0.100000,-0.299289,-0.100000,-0.334644,-0.085355,-0.385355,-0.034644,-0.400000,0.000711,-0.400000,0.050000,-0.385355,0.085355,-0.350000,0.100000,0.350000,0.100000,0.385355,0.085355,0.385355,0.085355,$1*%
%AMFreePoly5*
4,1,14,0.385355,0.085355,0.400000,0.050000,0.400000,-0.050000,0.385355,-0.085355,0.350000,-0.100000,-0.350000,-0.100000,-0.385355,-0.085355,-0.400000,-0.050000,-0.400000,-0.000711,-0.385355,0.034644,-0.334644,0.085355,-0.299289,0.100000,0.350000,0.100000,0.385355,0.085355,0.385355,0.085355,$1*%
%AMFreePoly6*
4,1,14,0.085355,0.385355,0.100000,0.350000,0.100000,-0.299289,0.085355,-0.334644,0.034644,-0.385355,-0.000711,-0.400000,-0.050000,-0.400000,-0.085355,-0.385355,-0.100000,-0.350000,-0.100000,0.350000,-0.085355,0.385355,-0.050000,0.400000,0.050000,0.400000,0.085355,0.385355,0.085355,0.385355,$1*%
%AMFreePoly7*
4,1,14,0.085355,0.385355,0.100000,0.350000,0.100000,-0.350000,0.085355,-0.385355,0.050000,-0.400000,0.000711,-0.400000,-0.034644,-0.385355,-0.085355,-0.334644,-0.100000,-0.299289,-0.100000,0.350000,-0.085355,0.385355,-0.050000,0.400000,0.050000,0.400000,0.085355,0.385355,0.085355,0.385355,$1*%
G04 Aperture macros list end*
%ADD10RoundRect,0.250000X0.300000X0.300000X-0.300000X0.300000X-0.300000X-0.300000X0.300000X-0.300000X0*%
%ADD11C,0.700000*%
%ADD12RoundRect,0.150000X-0.150000X0.512500X-0.150000X-0.512500X0.150000X-0.512500X0.150000X0.512500X0*%
%ADD13RoundRect,0.150000X-0.825000X-0.150000X0.825000X-0.150000X0.825000X0.150000X-0.825000X0.150000X0*%
%ADD14RoundRect,0.172500X-0.172500X-0.172500X0.172500X-0.172500X0.172500X0.172500X-0.172500X0.172500X0*%
%ADD15FreePoly0,0.000000*%
%ADD16RoundRect,0.050000X-0.350000X-0.050000X0.350000X-0.050000X0.350000X0.050000X-0.350000X0.050000X0*%
%ADD17FreePoly1,0.000000*%
%ADD18FreePoly2,0.000000*%
%ADD19RoundRect,0.050000X-0.050000X-0.350000X0.050000X-0.350000X0.050000X0.350000X-0.050000X0.350000X0*%
%ADD20FreePoly3,0.000000*%
%ADD21FreePoly4,0.000000*%
%ADD22FreePoly5,0.000000*%
%ADD23FreePoly6,0.000000*%
%ADD24FreePoly7,0.000000*%
%ADD25R,1.900000X1.400000*%
%ADD26RoundRect,0.200000X-0.200000X-0.275000X0.200000X-0.275000X0.200000X0.275000X-0.200000X0.275000X0*%
%ADD27RoundRect,0.200000X0.275000X-0.200000X0.275000X0.200000X-0.275000X0.200000X-0.275000X-0.200000X0*%
%ADD28RoundRect,0.200000X-0.275000X0.200000X-0.275000X-0.200000X0.275000X-0.200000X0.275000X0.200000X0*%
%ADD29RoundRect,0.218750X0.218750X0.256250X-0.218750X0.256250X-0.218750X-0.256250X0.218750X-0.256250X0*%
%ADD30RoundRect,0.225000X-0.250000X0.225000X-0.250000X-0.225000X0.250000X-0.225000X0.250000X0.225000X0*%
%ADD31RoundRect,0.250000X-0.412500X-0.925000X0.412500X-0.925000X0.412500X0.925000X-0.412500X0.925000X0*%
%ADD32RoundRect,0.225000X0.250000X-0.225000X0.250000X0.225000X-0.250000X0.225000X-0.250000X-0.225000X0*%
G04 APERTURE END LIST*
D10*
X152800000Y-83200000D03*
X150000000Y-83200000D03*
D11*
X143250499Y-78699501D03*
X143250499Y-81399501D03*
X144350499Y-81399501D03*
X144350499Y-78699501D03*
D12*
X149250499Y-74812001D03*
X148300499Y-74812001D03*
X147350499Y-74812001D03*
X147350499Y-77087001D03*
X149250499Y-77087001D03*
D13*
X149675499Y-59444501D03*
X149675499Y-60714501D03*
X149675499Y-61984501D03*
X149675499Y-63254501D03*
X144725499Y-63254501D03*
X144725499Y-61984501D03*
X144725499Y-60714501D03*
X144725499Y-59444501D03*
D14*
X149225499Y-67474501D03*
X148375499Y-66624501D03*
X148375499Y-67474501D03*
X149225499Y-66624501D03*
D15*
X147350499Y-66249501D03*
D16*
X147350499Y-66649501D03*
X147350499Y-67049501D03*
X147350499Y-67449501D03*
D17*
X147350499Y-67849501D03*
D18*
X148000499Y-68499501D03*
D19*
X148400499Y-68499501D03*
X148800499Y-68499501D03*
X149200499Y-68499501D03*
D20*
X149600499Y-68499501D03*
D21*
X150250499Y-67849501D03*
D16*
X150250499Y-67449501D03*
X150250499Y-67049501D03*
X150250499Y-66649501D03*
D22*
X150250499Y-66249501D03*
D23*
X149600499Y-65599501D03*
D19*
X149200499Y-65599501D03*
X148800499Y-65599501D03*
X148400499Y-65599501D03*
D24*
X148000499Y-65599501D03*
D25*
X151950499Y-71999501D03*
X159450499Y-71999501D03*
D26*
X157400499Y-59399501D03*
X159050499Y-59399501D03*
X157400499Y-60949501D03*
X159050499Y-60949501D03*
X157400499Y-62499501D03*
X159050499Y-62499501D03*
X157400499Y-64099501D03*
X159050499Y-64099501D03*
D27*
X145800499Y-75699501D03*
X145800499Y-77349501D03*
X147350499Y-78749501D03*
X147350499Y-80399501D03*
X144250499Y-74299501D03*
X144250499Y-72649501D03*
D28*
X145800499Y-72649501D03*
X145800499Y-74299501D03*
D29*
X155962999Y-59399501D03*
X154387999Y-59399501D03*
X155962999Y-60949501D03*
X154387999Y-60949501D03*
X155962999Y-62499501D03*
X154387999Y-62499501D03*
X155962999Y-64099501D03*
X154387999Y-64099501D03*
D30*
X145800499Y-67449501D03*
X145800499Y-68999501D03*
X151700499Y-59349501D03*
X151700499Y-60899501D03*
D31*
X149112999Y-79749501D03*
X152187999Y-79749501D03*
D32*
X150900499Y-77299501D03*
X150900499Y-75749501D03*
X144250499Y-77299501D03*
X144250499Y-75749501D03*
D30*
X145800499Y-80349501D03*
X145800499Y-78799501D03*
D32*
X142700499Y-74249501D03*
X142700499Y-72699501D03*
M02*
