G04 #@! TF.GenerationSoftware,KiCad,Pcbnew,7.0.2*
G04 #@! TF.CreationDate,2023-05-27T23:51:10-07:00*
G04 #@! TF.ProjectId,meeseeks-sao,6d656573-6565-46b7-932d-73616f2e6b69,rev?*
G04 #@! TF.SameCoordinates,Original*
G04 #@! TF.FileFunction,Profile,NP*
%FSLAX46Y46*%
G04 Gerber Fmt 4.6, Leading zero omitted, Abs format (unit mm)*
G04 Created by KiCad (PCBNEW 7.0.2) date 2023-05-27 23:51:10*
%MOMM*%
%LPD*%
G01*
G04 APERTURE LIST*
G04 #@! TA.AperFunction,Profile*
%ADD10C,0.500000*%
G04 #@! TD*
G04 APERTURE END LIST*
D10*
X148338251Y-139310821D02*
X148856511Y-139626103D01*
X129410193Y-87008308D02*
X129623146Y-87444156D01*
X135384754Y-37614499D02*
X134783136Y-39021166D01*
X145958186Y-28698723D02*
X145958215Y-28698736D01*
X147228340Y-28648320D02*
X145958186Y-28698723D01*
X149587211Y-28618078D02*
X147228340Y-28648320D01*
X152259694Y-28638239D02*
X149587211Y-28618078D01*
X153014620Y-28681082D02*
X152259694Y-28638239D01*
X153574655Y-28752486D02*
X153014620Y-28681082D01*
X154397905Y-28866734D02*
X153574655Y-28752486D01*
X155187555Y-28940658D02*
X154397905Y-28866734D01*
X155864078Y-29016823D02*
X155187555Y-28940658D01*
X156049450Y-29096908D02*
X155864078Y-29016823D01*
X156218020Y-29227396D02*
X156049450Y-29096908D01*
X156672768Y-29506293D02*
X156218020Y-29227396D01*
X157382892Y-29818792D02*
X156672768Y-29506293D01*
X158761145Y-30392129D02*
X157382892Y-29818792D01*
X160048669Y-31018388D02*
X158761145Y-30392129D01*
X161188342Y-31669849D02*
X160048669Y-31018388D01*
X162123040Y-32318790D02*
X161188342Y-31669849D01*
X162543068Y-32608888D02*
X162123040Y-32318790D01*
X162795084Y-32730976D02*
X162543068Y-32608888D01*
X163234990Y-33080298D02*
X162795084Y-32730976D01*
X164063002Y-33858886D02*
X163234990Y-33080298D01*
X164864132Y-34662677D02*
X164063002Y-33858886D01*
X165223395Y-35087603D02*
X164864132Y-34662677D01*
X165422767Y-35359780D02*
X165223395Y-35087603D01*
X165904397Y-35894053D02*
X165422767Y-35359780D01*
X166668425Y-36808449D02*
X165904397Y-35894053D01*
X167298885Y-37758971D02*
X166668425Y-36808449D01*
X167803336Y-38758217D02*
X167298885Y-37758971D01*
X168189340Y-39818785D02*
X167803336Y-38758217D01*
X168305267Y-40269619D02*
X168189340Y-39818785D01*
X168370791Y-40905260D02*
X168305267Y-40269619D01*
X168431275Y-44075063D02*
X168370791Y-40905260D01*
X168438836Y-46434491D02*
X168431275Y-44075063D01*
X168384232Y-48031148D02*
X168438836Y-46434491D01*
X168232183Y-49372429D02*
X168384232Y-48031148D01*
X167947405Y-50965727D02*
X168232183Y-49372429D01*
X167694969Y-52131299D02*
X167947405Y-50965727D01*
X167419852Y-53159943D02*
X167694969Y-52131299D01*
X167119533Y-54059219D02*
X167419852Y-53159943D01*
X166791492Y-54836687D02*
X167119533Y-54059219D01*
X166505874Y-55466167D02*
X166791492Y-54836687D01*
X166388267Y-55813388D02*
X166505874Y-55466167D01*
X166119450Y-56204293D02*
X166388267Y-55813388D01*
X165474288Y-56924499D02*
X166119450Y-56204293D01*
X163538808Y-58967507D02*
X165474288Y-56924499D01*
X162728997Y-59883725D02*
X163538808Y-58967507D01*
X162610129Y-60086458D02*
X162728997Y-59883725D01*
X162624830Y-60195104D02*
X162610129Y-60086458D01*
X162905966Y-60400076D02*
X162624830Y-60195104D01*
X163422319Y-60705855D02*
X162905966Y-60400076D01*
X164981457Y-61601911D02*
X163422319Y-60705855D01*
X165647900Y-61969294D02*
X164981457Y-61601911D01*
X166011923Y-62121623D02*
X165647900Y-61969294D01*
X166195614Y-62197788D02*
X166011923Y-62121623D01*
X166433070Y-62381480D02*
X166195614Y-62197788D01*
X166960771Y-62769584D02*
X166433070Y-62381480D01*
X167865650Y-63362660D02*
X166960771Y-62769584D01*
X168815891Y-63949017D02*
X167865650Y-63362660D01*
X169479673Y-64316960D02*
X168815891Y-63949017D01*
X169842982Y-64554797D02*
X169479673Y-64316960D01*
X170393516Y-64999918D02*
X169842982Y-64554797D01*
X171803827Y-66272597D02*
X170393516Y-64999918D01*
X173205735Y-67656166D02*
X171803827Y-66272597D01*
X173745766Y-68239898D02*
X173205735Y-67656166D01*
X174094370Y-68671790D02*
X173745766Y-68239898D01*
X174373268Y-69150060D02*
X174094370Y-68671790D01*
X174551359Y-69594727D02*
X174373268Y-69150060D01*
X174644325Y-69901628D02*
X174551359Y-69594727D01*
X174730571Y-70060678D02*
X174644325Y-69901628D01*
X174787694Y-70771922D02*
X174730571Y-70060678D01*
X174811216Y-72417305D02*
X174787694Y-70771922D01*
X174811216Y-74729129D02*
X174811216Y-72417305D01*
X174354227Y-75302605D02*
X174811216Y-74729129D01*
X173208405Y-76626530D02*
X174354227Y-75302605D01*
X171780319Y-78158788D02*
X173208405Y-76626530D01*
X170523599Y-79425588D02*
X171780319Y-78158788D01*
X170101262Y-79811383D02*
X170523599Y-79425588D01*
X169891878Y-79953142D02*
X170101262Y-79811383D01*
X169512176Y-80204316D02*
X169891878Y-79953142D01*
X168749412Y-80840232D02*
X169512176Y-80204316D01*
X167805196Y-81684482D02*
X168749412Y-80840232D01*
X166881140Y-82560655D02*
X167805196Y-81684482D01*
X166339027Y-83059087D02*
X166881140Y-82560655D01*
X166038848Y-83268540D02*
X166339027Y-83059087D01*
X165829394Y-83373827D02*
X166038848Y-83268540D01*
X165492253Y-83626962D02*
X165829394Y-83373827D01*
X165071106Y-83985384D02*
X165492253Y-83626962D01*
X165017342Y-84988966D02*
X165071106Y-83985384D01*
X164947758Y-85783932D02*
X165017342Y-84988966D01*
X164803408Y-86469693D02*
X164947758Y-85783932D01*
X164559933Y-87138654D02*
X164803408Y-86469693D01*
X164192970Y-87883220D02*
X164559933Y-87138654D01*
X163928493Y-88319907D02*
X164192970Y-87883220D01*
X163562370Y-88782635D02*
X163928493Y-88319907D01*
X162969433Y-89411694D02*
X163562370Y-88782635D01*
X162024514Y-90347373D02*
X162969433Y-89411694D01*
X160484417Y-91815786D02*
X162024514Y-90347373D01*
X160102893Y-92100144D02*
X160484417Y-91815786D01*
X159811254Y-92229092D02*
X160102893Y-92100144D01*
X159557278Y-92318277D02*
X159811254Y-92229092D01*
X159385627Y-92438545D02*
X159557278Y-92318277D01*
X159234138Y-92651219D02*
X159385627Y-92438545D01*
X159040646Y-93017622D02*
X159234138Y-92651219D01*
X158565737Y-93824072D02*
X159040646Y-93017622D01*
X158455970Y-93966321D02*
X158565737Y-93824072D01*
X158413408Y-94074967D02*
X158455970Y-93966321D01*
X158320442Y-94228416D02*
X158413408Y-94074967D01*
X158099789Y-94469231D02*
X158320442Y-94228416D01*
X157879136Y-94714526D02*
X158099789Y-94469231D01*
X157786170Y-94872456D02*
X157879136Y-94714526D01*
X157565515Y-95158075D02*
X157786170Y-94872456D01*
X157042443Y-95705790D02*
X157565515Y-95158075D01*
X156464487Y-96330789D02*
X157042443Y-95705790D01*
X156344359Y-96517281D02*
X156464487Y-96330789D01*
X156316638Y-96646649D02*
X156344359Y-96517281D01*
X156486888Y-97874246D02*
X156316638Y-96646649D01*
X157562156Y-105714744D02*
X156486888Y-97874246D01*
X159644360Y-120695691D02*
X157562156Y-105714744D01*
X160103728Y-123760344D02*
X159644360Y-120695691D01*
X160295120Y-124702183D02*
X160103728Y-123760344D01*
X160360084Y-124861234D02*
X160295120Y-124702183D01*
X160384726Y-125114369D02*
X160360084Y-124861234D01*
X160407827Y-125303661D02*
X160384726Y-125114369D01*
X160502334Y-125492953D02*
X160407827Y-125303661D01*
X161056769Y-126100032D02*
X160502334Y-125492953D01*
X161607845Y-126679108D02*
X161056769Y-126100032D01*
X161970748Y-127130497D02*
X161607845Y-126679108D01*
X162508382Y-127811499D02*
X161970748Y-127130497D01*
X162813042Y-128134079D02*
X162508382Y-127811499D01*
X162786161Y-131350913D02*
X162813042Y-128134079D01*
X162759279Y-134567747D02*
X162786161Y-131350913D01*
X162472541Y-135159142D02*
X162759279Y-134567747D01*
X162262948Y-135515324D02*
X162472541Y-135159142D01*
X161938267Y-135925270D02*
X162262948Y-135515324D01*
X160590823Y-137309677D02*
X161938267Y-135925270D01*
X159152653Y-138663841D02*
X160590823Y-137309677D01*
X158708265Y-138999442D02*
X159152653Y-138663841D01*
X158278998Y-139245157D02*
X158708265Y-138999442D01*
X157361660Y-139680024D02*
X158278998Y-139245157D01*
X156959065Y-139818177D02*
X157361660Y-139680024D01*
X156524970Y-139914959D02*
X156959065Y-139818177D01*
X155355619Y-140018845D02*
X156524970Y-139914959D01*
X153440298Y-140060568D02*
X155355619Y-140018845D01*
X150960050Y-140045867D02*
X153440298Y-140060568D01*
X150105351Y-139976300D02*
X150960050Y-140045867D01*
X149424858Y-139842154D02*
X150105351Y-139976300D01*
X148856511Y-139626103D02*
X149424858Y-139842154D01*
X147808021Y-138878981D02*
X148338251Y-139310821D01*
X147203760Y-138313258D02*
X147808021Y-138878981D01*
X146164336Y-137309677D02*
X147203760Y-138313258D01*
X145635663Y-137390322D02*
X146164336Y-137309677D01*
X143355211Y-137642338D02*
X145635663Y-137390322D01*
X140402704Y-137847311D02*
X143355211Y-137642338D01*
X138015692Y-137908915D02*
X140402704Y-137847311D01*
X135251495Y-137910034D02*
X138015692Y-137908915D01*
X132878763Y-137857391D02*
X135251495Y-137910034D01*
X132079400Y-137813009D02*
X132878763Y-137857391D01*
X131666146Y-137757705D02*
X132079400Y-137813009D01*
X131427570Y-137634077D02*
X131666146Y-137757705D01*
X131088189Y-137373521D02*
X131427570Y-137634077D01*
X129945717Y-136297134D02*
X131088189Y-137373521D01*
X128956696Y-135271149D02*
X129945717Y-136297134D01*
X128485146Y-134702154D02*
X128956696Y-135271149D01*
X128439924Y-134432503D02*
X128485146Y-134702154D01*
X128412342Y-133875549D02*
X128439924Y-134432503D01*
X128413462Y-131798934D02*
X128412342Y-133875549D01*
X128440344Y-129146615D02*
X128413462Y-131798934D01*
X129605215Y-127981743D02*
X128440344Y-129146615D01*
X130449747Y-127160732D02*
X129605215Y-127981743D01*
X130850732Y-126816871D02*
X130449747Y-127160732D01*
X131486931Y-126297159D02*
X130850732Y-126816871D01*
X131995730Y-125885953D02*
X131486931Y-126297159D01*
X132654055Y-125473907D02*
X131995730Y-125885953D01*
X133490469Y-125043380D02*
X132654055Y-125473907D01*
X134533534Y-124576731D02*
X133490469Y-125043380D01*
X135293502Y-124244211D02*
X134533534Y-124576731D01*
X135720808Y-124006616D02*
X135293502Y-124244211D01*
X135939782Y-123774061D02*
X135720808Y-124006616D01*
X136074750Y-123456662D02*
X135939782Y-123774061D01*
X136154835Y-123028651D02*
X136074750Y-123456662D01*
X136197958Y-122042006D02*
X136154835Y-123028651D01*
X136200198Y-116467420D02*
X136197958Y-122042006D01*
X136221479Y-110685757D02*
X136200198Y-116467420D01*
X136336846Y-105825633D02*
X136221479Y-110685757D01*
X136563100Y-101440978D02*
X136336846Y-105825633D01*
X136917042Y-97085721D02*
X136563100Y-101440978D01*
X137024569Y-95983572D02*
X136917042Y-97085721D01*
X136334606Y-95284648D02*
X137024569Y-95983572D01*
X135852977Y-94750374D02*
X136334606Y-95284648D01*
X135653604Y-94451315D02*
X135852977Y-94750374D01*
X135542717Y-94255302D02*
X135653604Y-94451315D01*
X135277260Y-93958484D02*
X135542717Y-94255302D01*
X134890836Y-93663905D02*
X135277260Y-93958484D01*
X134703924Y-93584239D02*
X134890836Y-93663905D01*
X134497691Y-93537336D02*
X134703924Y-93584239D01*
X134067584Y-93429390D02*
X134497691Y-93537336D01*
X133630757Y-93177794D02*
X134067584Y-93429390D01*
X133035999Y-92669142D02*
X133630757Y-93177794D01*
X132132102Y-91790027D02*
X133035999Y-92669142D01*
X131224566Y-90875211D02*
X132132102Y-91790027D01*
X130698413Y-90237612D02*
X131224566Y-90875211D01*
X130530577Y-89951889D02*
X130698413Y-90237612D01*
X130400754Y-89650415D02*
X130530577Y-89951889D01*
X130178700Y-88886807D02*
X130400754Y-89650415D01*
X129941246Y-88168841D02*
X130178700Y-88886807D01*
X129623146Y-87444156D02*
X129941246Y-88168841D01*
X129297206Y-86665706D02*
X129410193Y-87008308D01*
X129246383Y-86250860D02*
X129297206Y-86665706D01*
X129219921Y-85598279D02*
X129246383Y-86250860D01*
X129184079Y-84487169D02*
X129219921Y-85598279D01*
X127580137Y-82865308D02*
X129184079Y-84487169D01*
X125976196Y-81180721D02*
X127580137Y-82865308D01*
X125641434Y-80694896D02*
X125976196Y-81180721D01*
X124863963Y-79726874D02*
X125641434Y-80694896D01*
X123984006Y-78688286D02*
X124863963Y-79726874D01*
X123341784Y-77990761D02*
X123984006Y-78688286D01*
X123113290Y-77734265D02*
X123341784Y-77990761D01*
X123019204Y-77551694D02*
X123113290Y-77734265D01*
X122966561Y-77392644D02*
X123019204Y-77551694D01*
X122839993Y-77193272D02*
X122966561Y-77392644D01*
X121631437Y-75553491D02*
X122839993Y-77193272D01*
X120913472Y-74451342D02*
X121631437Y-75553491D01*
X120555050Y-73815143D02*
X120913472Y-74451342D01*
X120555050Y-71126985D02*
X120555050Y-73815143D01*
X120581931Y-68734524D02*
X120555050Y-71126985D01*
X120645775Y-68314499D02*
X120581931Y-68734524D01*
X120770103Y-68035602D02*
X120645775Y-68314499D01*
X120993888Y-67733219D02*
X120770103Y-68035602D01*
X121419602Y-67252954D02*
X120993888Y-67733219D01*
X122652938Y-65981393D02*
X121419602Y-67252954D01*
X124022362Y-64666149D02*
X122652938Y-65981393D01*
X125080127Y-63752450D02*
X124022362Y-64666149D01*
X127929576Y-61718403D02*
X125080127Y-63752450D01*
X128503052Y-61243494D02*
X127929576Y-61718403D01*
X128849152Y-60978037D02*
X128503052Y-61243494D01*
X129094448Y-60867150D02*
X128849152Y-60978037D01*
X129366625Y-60773065D02*
X129094448Y-60867150D01*
X129793372Y-60544570D02*
X129366625Y-60773065D01*
X131902461Y-59325934D02*
X129793372Y-60544570D01*
X134219881Y-58053534D02*
X131902461Y-59325934D01*
X135590846Y-57291887D02*
X134219881Y-58053534D01*
X135576285Y-57101475D02*
X135590846Y-57291887D01*
X135447477Y-56736333D02*
X135576285Y-57101475D01*
X135107115Y-55861142D02*
X135447477Y-56736333D01*
X134747433Y-54754932D02*
X135107115Y-55861142D01*
X134433113Y-53640320D02*
X134747433Y-54754932D01*
X134228840Y-52739922D02*
X134433113Y-53640320D01*
X134023868Y-51830425D02*
X134228840Y-52739922D01*
X133718090Y-51055336D02*
X134023868Y-51830425D01*
X133368629Y-50338492D02*
X133718090Y-51055336D01*
X133368629Y-47677207D02*
X133368629Y-50338492D01*
X133396631Y-45342973D02*
X133368629Y-47677207D01*
X133455574Y-44957948D02*
X133396631Y-45342973D01*
X133565761Y-44756055D02*
X133455574Y-44957948D01*
X133662927Y-44589444D02*
X133565761Y-44756055D01*
X133731532Y-44370751D02*
X133662927Y-44589444D01*
X133816657Y-43609102D02*
X133731532Y-44370751D01*
X133999928Y-42015948D02*
X133816657Y-43609102D01*
X134321807Y-40487476D02*
X133999928Y-42015948D01*
X134783136Y-39021166D02*
X134321807Y-40487476D01*
X136066739Y-36375143D02*
X135384754Y-37614499D01*
X136875572Y-35199630D02*
X136066739Y-36375143D01*
X137870897Y-34010675D02*
X136875572Y-35199630D01*
X139112356Y-32730994D02*
X137870897Y-34010675D01*
X140108934Y-31795873D02*
X139112356Y-32730994D01*
X141009748Y-31029604D02*
X140108934Y-31795873D01*
X141846719Y-30406144D02*
X141009748Y-31029604D01*
X142651770Y-29899452D02*
X141846719Y-30406144D01*
X143419157Y-29515268D02*
X142651770Y-29899452D01*
X144328514Y-29151245D02*
X143419157Y-29515268D01*
X145226110Y-28861146D02*
X144328514Y-29151245D01*
X145958215Y-28698736D02*
X145226110Y-28861146D01*
M02*
