G04 #@! TF.GenerationSoftware,KiCad,Pcbnew,7.0.2*
G04 #@! TF.CreationDate,2023-05-27T23:51:10-07:00*
G04 #@! TF.ProjectId,meeseeks-sao,6d656573-6565-46b7-932d-73616f2e6b69,rev?*
G04 #@! TF.SameCoordinates,Original*
G04 #@! TF.FileFunction,Copper,L1,Top*
G04 #@! TF.FilePolarity,Positive*
%FSLAX46Y46*%
G04 Gerber Fmt 4.6, Leading zero omitted, Abs format (unit mm)*
G04 Created by KiCad (PCBNEW 7.0.2) date 2023-05-27 23:51:10*
%MOMM*%
%LPD*%
G01*
G04 APERTURE LIST*
G04 Aperture macros list*
%AMRoundRect*
0 Rectangle with rounded corners*
0 $1 Rounding radius*
0 $2 $3 $4 $5 $6 $7 $8 $9 X,Y pos of 4 corners*
0 Add a 4 corners polygon primitive as box body*
4,1,4,$2,$3,$4,$5,$6,$7,$8,$9,$2,$3,0*
0 Add four circle primitives for the rounded corners*
1,1,$1+$1,$2,$3*
1,1,$1+$1,$4,$5*
1,1,$1+$1,$6,$7*
1,1,$1+$1,$8,$9*
0 Add four rect primitives between the rounded corners*
20,1,$1+$1,$2,$3,$4,$5,0*
20,1,$1+$1,$4,$5,$6,$7,0*
20,1,$1+$1,$6,$7,$8,$9,0*
20,1,$1+$1,$8,$9,$2,$3,0*%
%AMFreePoly0*
4,1,14,0.334644,0.085355,0.385355,0.034644,0.400000,-0.000711,0.400000,-0.050000,0.385355,-0.085355,0.350000,-0.100000,-0.350000,-0.100000,-0.385355,-0.085355,-0.400000,-0.050000,-0.400000,0.050000,-0.385355,0.085355,-0.350000,0.100000,0.299289,0.100000,0.334644,0.085355,0.334644,0.085355,$1*%
%AMFreePoly1*
4,1,14,0.385355,0.085355,0.400000,0.050000,0.400000,0.000711,0.385355,-0.034644,0.334644,-0.085355,0.299289,-0.100000,-0.350000,-0.100000,-0.385355,-0.085355,-0.400000,-0.050000,-0.400000,0.050000,-0.385355,0.085355,-0.350000,0.100000,0.350000,0.100000,0.385355,0.085355,0.385355,0.085355,$1*%
%AMFreePoly2*
4,1,14,0.085355,0.385355,0.100000,0.350000,0.100000,-0.350000,0.085355,-0.385355,0.050000,-0.400000,-0.050000,-0.400000,-0.085355,-0.385355,-0.100000,-0.350000,-0.100000,0.299289,-0.085355,0.334644,-0.034644,0.385355,0.000711,0.400000,0.050000,0.400000,0.085355,0.385355,0.085355,0.385355,$1*%
%AMFreePoly3*
4,1,14,0.034644,0.385355,0.085355,0.334644,0.100000,0.299289,0.100000,-0.350000,0.085355,-0.385355,0.050000,-0.400000,-0.050000,-0.400000,-0.085355,-0.385355,-0.100000,-0.350000,-0.100000,0.350000,-0.085355,0.385355,-0.050000,0.400000,-0.000711,0.400000,0.034644,0.385355,0.034644,0.385355,$1*%
%AMFreePoly4*
4,1,14,0.385355,0.085355,0.400000,0.050000,0.400000,-0.050000,0.385355,-0.085355,0.350000,-0.100000,-0.299289,-0.100000,-0.334644,-0.085355,-0.385355,-0.034644,-0.400000,0.000711,-0.400000,0.050000,-0.385355,0.085355,-0.350000,0.100000,0.350000,0.100000,0.385355,0.085355,0.385355,0.085355,$1*%
%AMFreePoly5*
4,1,14,0.385355,0.085355,0.400000,0.050000,0.400000,-0.050000,0.385355,-0.085355,0.350000,-0.100000,-0.350000,-0.100000,-0.385355,-0.085355,-0.400000,-0.050000,-0.400000,-0.000711,-0.385355,0.034644,-0.334644,0.085355,-0.299289,0.100000,0.350000,0.100000,0.385355,0.085355,0.385355,0.085355,$1*%
%AMFreePoly6*
4,1,14,0.085355,0.385355,0.100000,0.350000,0.100000,-0.299289,0.085355,-0.334644,0.034644,-0.385355,-0.000711,-0.400000,-0.050000,-0.400000,-0.085355,-0.385355,-0.100000,-0.350000,-0.100000,0.350000,-0.085355,0.385355,-0.050000,0.400000,0.050000,0.400000,0.085355,0.385355,0.085355,0.385355,$1*%
%AMFreePoly7*
4,1,14,0.085355,0.385355,0.100000,0.350000,0.100000,-0.350000,0.085355,-0.385355,0.050000,-0.400000,0.000711,-0.400000,-0.034644,-0.385355,-0.085355,-0.334644,-0.100000,-0.299289,-0.100000,0.350000,-0.085355,0.385355,-0.050000,0.400000,0.050000,0.400000,0.085355,0.385355,0.085355,0.385355,$1*%
G04 Aperture macros list end*
G04 #@! TA.AperFunction,SMDPad,CuDef*
%ADD10RoundRect,0.250000X0.300000X0.300000X-0.300000X0.300000X-0.300000X-0.300000X0.300000X-0.300000X0*%
G04 #@! TD*
G04 #@! TA.AperFunction,ComponentPad*
%ADD11R,1.700000X1.700000*%
G04 #@! TD*
G04 #@! TA.AperFunction,ComponentPad*
%ADD12O,1.700000X1.700000*%
G04 #@! TD*
G04 #@! TA.AperFunction,SMDPad,CuDef*
%ADD13C,0.700000*%
G04 #@! TD*
G04 #@! TA.AperFunction,SMDPad,CuDef*
%ADD14RoundRect,0.150000X-0.150000X0.512500X-0.150000X-0.512500X0.150000X-0.512500X0.150000X0.512500X0*%
G04 #@! TD*
G04 #@! TA.AperFunction,SMDPad,CuDef*
%ADD15RoundRect,0.150000X-0.825000X-0.150000X0.825000X-0.150000X0.825000X0.150000X-0.825000X0.150000X0*%
G04 #@! TD*
G04 #@! TA.AperFunction,SMDPad,CuDef*
%ADD16FreePoly0,0.000000*%
G04 #@! TD*
G04 #@! TA.AperFunction,SMDPad,CuDef*
%ADD17RoundRect,0.050000X-0.350000X-0.050000X0.350000X-0.050000X0.350000X0.050000X-0.350000X0.050000X0*%
G04 #@! TD*
G04 #@! TA.AperFunction,SMDPad,CuDef*
%ADD18FreePoly1,0.000000*%
G04 #@! TD*
G04 #@! TA.AperFunction,SMDPad,CuDef*
%ADD19FreePoly2,0.000000*%
G04 #@! TD*
G04 #@! TA.AperFunction,SMDPad,CuDef*
%ADD20RoundRect,0.050000X-0.050000X-0.350000X0.050000X-0.350000X0.050000X0.350000X-0.050000X0.350000X0*%
G04 #@! TD*
G04 #@! TA.AperFunction,SMDPad,CuDef*
%ADD21FreePoly3,0.000000*%
G04 #@! TD*
G04 #@! TA.AperFunction,SMDPad,CuDef*
%ADD22FreePoly4,0.000000*%
G04 #@! TD*
G04 #@! TA.AperFunction,SMDPad,CuDef*
%ADD23FreePoly5,0.000000*%
G04 #@! TD*
G04 #@! TA.AperFunction,SMDPad,CuDef*
%ADD24FreePoly6,0.000000*%
G04 #@! TD*
G04 #@! TA.AperFunction,SMDPad,CuDef*
%ADD25FreePoly7,0.000000*%
G04 #@! TD*
G04 #@! TA.AperFunction,SMDPad,CuDef*
%ADD26R,1.700000X1.700000*%
G04 #@! TD*
G04 #@! TA.AperFunction,SMDPad,CuDef*
%ADD27R,1.900000X1.400000*%
G04 #@! TD*
G04 #@! TA.AperFunction,SMDPad,CuDef*
%ADD28RoundRect,0.200000X-0.200000X-0.275000X0.200000X-0.275000X0.200000X0.275000X-0.200000X0.275000X0*%
G04 #@! TD*
G04 #@! TA.AperFunction,SMDPad,CuDef*
%ADD29RoundRect,0.200000X0.275000X-0.200000X0.275000X0.200000X-0.275000X0.200000X-0.275000X-0.200000X0*%
G04 #@! TD*
G04 #@! TA.AperFunction,SMDPad,CuDef*
%ADD30RoundRect,0.200000X-0.275000X0.200000X-0.275000X-0.200000X0.275000X-0.200000X0.275000X0.200000X0*%
G04 #@! TD*
G04 #@! TA.AperFunction,SMDPad,CuDef*
%ADD31RoundRect,0.218750X0.218750X0.256250X-0.218750X0.256250X-0.218750X-0.256250X0.218750X-0.256250X0*%
G04 #@! TD*
G04 #@! TA.AperFunction,SMDPad,CuDef*
%ADD32RoundRect,0.225000X-0.250000X0.225000X-0.250000X-0.225000X0.250000X-0.225000X0.250000X0.225000X0*%
G04 #@! TD*
G04 #@! TA.AperFunction,SMDPad,CuDef*
%ADD33RoundRect,0.250000X-0.412500X-0.925000X0.412500X-0.925000X0.412500X0.925000X-0.412500X0.925000X0*%
G04 #@! TD*
G04 #@! TA.AperFunction,SMDPad,CuDef*
%ADD34RoundRect,0.225000X0.250000X-0.225000X0.250000X0.225000X-0.250000X0.225000X-0.250000X-0.225000X0*%
G04 #@! TD*
G04 #@! TA.AperFunction,ViaPad*
%ADD35C,0.800000*%
G04 #@! TD*
G04 #@! TA.AperFunction,Conductor*
%ADD36C,0.200000*%
G04 #@! TD*
G04 #@! TA.AperFunction,Conductor*
%ADD37C,0.500000*%
G04 #@! TD*
G04 #@! TA.AperFunction,Conductor*
%ADD38C,0.250000*%
G04 #@! TD*
G04 APERTURE END LIST*
D10*
X152800000Y-83200000D03*
X150000000Y-83200000D03*
D11*
X147550000Y-32250000D03*
D12*
X150090000Y-32250000D03*
X152630000Y-32250000D03*
D13*
X143250499Y-78699501D03*
X143250499Y-81399501D03*
X144350499Y-81399501D03*
X144350499Y-78699501D03*
D14*
X149250499Y-74812001D03*
X148300499Y-74812001D03*
X147350499Y-74812001D03*
X147350499Y-77087001D03*
X149250499Y-77087001D03*
D15*
X149675499Y-59444501D03*
X149675499Y-60714501D03*
X149675499Y-61984501D03*
X149675499Y-63254501D03*
X144725499Y-63254501D03*
X144725499Y-61984501D03*
X144725499Y-60714501D03*
X144725499Y-59444501D03*
D16*
X147350499Y-66249501D03*
D17*
X147350499Y-66649501D03*
X147350499Y-67049501D03*
X147350499Y-67449501D03*
D18*
X147350499Y-67849501D03*
D19*
X148000499Y-68499501D03*
D20*
X148400499Y-68499501D03*
X148800499Y-68499501D03*
X149200499Y-68499501D03*
D21*
X149600499Y-68499501D03*
D22*
X150250499Y-67849501D03*
D17*
X150250499Y-67449501D03*
X150250499Y-67049501D03*
X150250499Y-66649501D03*
D23*
X150250499Y-66249501D03*
D24*
X149600499Y-65599501D03*
D20*
X149200499Y-65599501D03*
X148800499Y-65599501D03*
X148400499Y-65599501D03*
D25*
X148000499Y-65599501D03*
D26*
X148800499Y-67049501D03*
D27*
X151950499Y-71999501D03*
X159450499Y-71999501D03*
D28*
X157400499Y-59399501D03*
X159050499Y-59399501D03*
X157400499Y-60949501D03*
X159050499Y-60949501D03*
X157400499Y-62499501D03*
X159050499Y-62499501D03*
X157400499Y-64099501D03*
X159050499Y-64099501D03*
D29*
X145800499Y-75699501D03*
X145800499Y-77349501D03*
X147350499Y-78749501D03*
X147350499Y-80399501D03*
X144250499Y-74299501D03*
X144250499Y-72649501D03*
D30*
X145800499Y-72649501D03*
X145800499Y-74299501D03*
D11*
X148800000Y-132650000D03*
D12*
X148800000Y-135190000D03*
X146260000Y-132650000D03*
X146260000Y-135190000D03*
X143720000Y-132650000D03*
X143720000Y-135190000D03*
D31*
X155962999Y-59399501D03*
X154387999Y-59399501D03*
X155962999Y-60949501D03*
X154387999Y-60949501D03*
X155962999Y-62499501D03*
X154387999Y-62499501D03*
X155962999Y-64099501D03*
X154387999Y-64099501D03*
D32*
X145800499Y-67449501D03*
X145800499Y-68999501D03*
X151700499Y-59349501D03*
X151700499Y-60899501D03*
D33*
X149112999Y-79749501D03*
X152187999Y-79749501D03*
D34*
X150900499Y-77299501D03*
X150900499Y-75749501D03*
X144250499Y-77299501D03*
X144250499Y-75749501D03*
D32*
X145800499Y-80349501D03*
X145800499Y-78799501D03*
D34*
X142700499Y-74249501D03*
X142700499Y-72699501D03*
D35*
X153400000Y-58350000D03*
X159900499Y-64099501D03*
X159900499Y-62499501D03*
X159900499Y-60949501D03*
X159900499Y-59399501D03*
X148800499Y-67049501D03*
X152755877Y-77254879D03*
X146200499Y-71749501D03*
X144600499Y-67399501D03*
X152800499Y-84350000D03*
X147965999Y-59449501D03*
X158000499Y-71999501D03*
X146200499Y-63249501D03*
X151700499Y-61849501D03*
X145800499Y-69949501D03*
X150950499Y-79749501D03*
X143300499Y-80549501D03*
X144350499Y-80549501D03*
X150900499Y-74799501D03*
X148300499Y-73649501D03*
X144250499Y-71774501D03*
X142700499Y-71749501D03*
D36*
X148400499Y-68994476D02*
X148400499Y-68499501D01*
X146745474Y-70649501D02*
X148400499Y-68994476D01*
X141400499Y-71799501D02*
X142550499Y-70649501D01*
X141400499Y-81699501D02*
X141400499Y-71799501D01*
X143800499Y-132569501D02*
X143800499Y-84099501D01*
X143720000Y-132650000D02*
X143800499Y-132569501D01*
X147490499Y-133959501D02*
X146260000Y-135190000D01*
X147490499Y-83359501D02*
X147490499Y-133959501D01*
X152900499Y-81749501D02*
X149100499Y-81749501D01*
X154000000Y-80650000D02*
X152900499Y-81749501D01*
X154000000Y-69739048D02*
X154000000Y-80650000D01*
X150910453Y-66649501D02*
X154000000Y-69739048D01*
X150250499Y-66649501D02*
X150910453Y-66649501D01*
X153600499Y-69904527D02*
X150745473Y-67049501D01*
X153600499Y-80484521D02*
X153600499Y-69904527D01*
X152785020Y-81300000D02*
X153600499Y-80484521D01*
X148985020Y-81300000D02*
X152785020Y-81300000D01*
X146340499Y-83944521D02*
X148985020Y-81300000D01*
X149100499Y-81749501D02*
X147490499Y-83359501D01*
X146340499Y-132569501D02*
X146340499Y-83944521D01*
X146260000Y-132650000D02*
X146340499Y-132569501D01*
D37*
X148850000Y-84350000D02*
X150000000Y-83200000D01*
X148800000Y-132650000D02*
X148850000Y-132600000D01*
D36*
X143800499Y-84099501D02*
X141400499Y-81699501D01*
X142550499Y-70649501D02*
X146745474Y-70649501D01*
D37*
X148850000Y-132600000D02*
X148850000Y-84350000D01*
D36*
X150745473Y-67049501D02*
X150250499Y-67049501D01*
X152630000Y-57580000D02*
X153400000Y-58350000D01*
X152630000Y-32250000D02*
X152630000Y-57580000D01*
X150100000Y-32260000D02*
X150090000Y-32250000D01*
X150100000Y-56099002D02*
X150100000Y-32260000D01*
X152750998Y-58750000D02*
X150100000Y-56099002D01*
X152750998Y-61949002D02*
X152750998Y-58750000D01*
X149075065Y-64100000D02*
X150600000Y-64100000D01*
X150600000Y-64100000D02*
X152750998Y-61949002D01*
X148400499Y-64774566D02*
X149075065Y-64100000D01*
X148400499Y-65599501D02*
X148400499Y-64774566D01*
D37*
X152800499Y-83200499D02*
X152800000Y-83200000D01*
X152800499Y-84350000D02*
X152800499Y-83200499D01*
D36*
X150930459Y-64899501D02*
X153550000Y-62279960D01*
X149405524Y-64899501D02*
X150930459Y-64899501D01*
X149200499Y-65104526D02*
X149405524Y-64899501D01*
X153550000Y-61787500D02*
X154387999Y-60949501D01*
X149200499Y-65599501D02*
X149200499Y-65104526D01*
X153550000Y-62279960D02*
X153550000Y-61787500D01*
X152860419Y-64099501D02*
X154387999Y-64099501D01*
X150710419Y-66249501D02*
X152860419Y-64099501D01*
X150250499Y-66249501D02*
X150710419Y-66249501D01*
X150795439Y-65599501D02*
X153895439Y-62499501D01*
X153150499Y-62114481D02*
X153150499Y-60637001D01*
X150765479Y-64499501D02*
X153150499Y-62114481D01*
X149960953Y-64500000D02*
X149961452Y-64499501D01*
X148800499Y-65599501D02*
X148800499Y-64939546D01*
X149961452Y-64499501D02*
X150765479Y-64499501D01*
X149600499Y-65599501D02*
X150795439Y-65599501D01*
X153895439Y-62499501D02*
X154387999Y-62499501D01*
X148800499Y-64939546D02*
X149240045Y-64500000D01*
X149240045Y-64500000D02*
X149960953Y-64500000D01*
X153150499Y-60637001D02*
X154387999Y-59399501D01*
X148000499Y-63649501D02*
X148000499Y-65599501D01*
X148395499Y-63254501D02*
X148000499Y-63649501D01*
X149675499Y-63254501D02*
X148395499Y-63254501D01*
X159050499Y-64099501D02*
X159900499Y-64099501D01*
X159050499Y-62499501D02*
X159900499Y-62499501D01*
X159050499Y-60949501D02*
X159900499Y-60949501D01*
X159050499Y-59399501D02*
X159900499Y-59399501D01*
D37*
X152711255Y-77299501D02*
X152755877Y-77254879D01*
X150900499Y-77299501D02*
X152711255Y-77299501D01*
X149250499Y-79612001D02*
X149112999Y-79749501D01*
X149250499Y-77087001D02*
X149250499Y-79612001D01*
D36*
X145066895Y-60714501D02*
X144725499Y-60714501D01*
X147300998Y-62948604D02*
X145066895Y-60714501D01*
X147300998Y-66200000D02*
X147300998Y-62948604D01*
X147350499Y-66249501D02*
X147300998Y-66200000D01*
X147970999Y-59444501D02*
X147965999Y-59449501D01*
D38*
X149675499Y-59444501D02*
X147970999Y-59444501D01*
X145800499Y-72149501D02*
X146200499Y-71749501D01*
X145800499Y-72649501D02*
X145800499Y-72149501D01*
D36*
X144100499Y-68199501D02*
X142950998Y-67050000D01*
X147000499Y-68199501D02*
X144100499Y-68199501D01*
X142950998Y-67050000D02*
X142950998Y-59749002D01*
X142950998Y-59749002D02*
X143255499Y-59444501D01*
X147350499Y-67849501D02*
X147000499Y-68199501D01*
X143255499Y-59444501D02*
X144725499Y-59444501D01*
X143350499Y-60478105D02*
X143714103Y-60114501D01*
X143350499Y-64799501D02*
X143350499Y-60478105D01*
X149334103Y-61984501D02*
X149675499Y-61984501D01*
X145200499Y-66649501D02*
X143350499Y-64799501D01*
X147464103Y-60114501D02*
X149334103Y-61984501D01*
X147350499Y-66649501D02*
X145200499Y-66649501D01*
X143714103Y-60114501D02*
X147464103Y-60114501D01*
X144650499Y-67449501D02*
X144600499Y-67399501D01*
D38*
X145800499Y-67449501D02*
X144650499Y-67449501D01*
D36*
X159450499Y-71999501D02*
X158000499Y-71999501D01*
X150250499Y-67849501D02*
X151950499Y-69549501D01*
X151950499Y-69549501D02*
X151950499Y-71999501D01*
X142700499Y-72699501D02*
X142700499Y-71749501D01*
X150900499Y-75749501D02*
X150900499Y-74799501D01*
X157400499Y-59399501D02*
X155962999Y-59399501D01*
X157400499Y-60949501D02*
X155962999Y-60949501D01*
X157400499Y-62499501D02*
X155962999Y-62499501D01*
X157400499Y-64099501D02*
X155962999Y-64099501D01*
X146195499Y-63254501D02*
X146200499Y-63249501D01*
X144725499Y-63254501D02*
X146195499Y-63254501D01*
X151700499Y-60899501D02*
X151700499Y-61849501D01*
X149600499Y-74462001D02*
X149250499Y-74812001D01*
X149600499Y-68499501D02*
X149600499Y-74462001D01*
X145800499Y-68999501D02*
X145800499Y-69949501D01*
X152187999Y-79749501D02*
X150950499Y-79749501D01*
X142450499Y-81699501D02*
X142900499Y-82149501D01*
X146782606Y-82149501D02*
X149112999Y-79819108D01*
X149112999Y-79819108D02*
X149112999Y-79749501D01*
X142450499Y-78999501D02*
X142450499Y-81699501D01*
X142900499Y-82149501D02*
X146782606Y-82149501D01*
X142750499Y-78699501D02*
X142450499Y-78999501D01*
X143250499Y-78699501D02*
X142750499Y-78699501D01*
X143250499Y-80599501D02*
X143300499Y-80549501D01*
X143250499Y-81399501D02*
X143250499Y-80599501D01*
X143250499Y-81399501D02*
X144350499Y-81399501D01*
X144350499Y-81399501D02*
X144350499Y-80549501D01*
X144350499Y-78699501D02*
X145700499Y-78699501D01*
X145700499Y-78699501D02*
X145800499Y-78799501D01*
X149462999Y-77299501D02*
X149250499Y-77087001D01*
D37*
X150900499Y-77299501D02*
X149462999Y-77299501D01*
D36*
X148300499Y-74812001D02*
X148300499Y-73649501D01*
X146837999Y-74299501D02*
X147350499Y-74812001D01*
X145800499Y-74299501D02*
X146837999Y-74299501D01*
X149250499Y-75449501D02*
X149250499Y-74812001D01*
X146100499Y-75999501D02*
X148700499Y-75999501D01*
X148700499Y-75999501D02*
X149250499Y-75449501D01*
X145800499Y-75699501D02*
X146100499Y-75999501D01*
X147087999Y-77349501D02*
X147350499Y-77087001D01*
X145800499Y-77349501D02*
X147087999Y-77349501D01*
X144300499Y-77349501D02*
X144250499Y-77299501D01*
X145800499Y-77349501D02*
X144300499Y-77349501D01*
X144300499Y-75699501D02*
X144250499Y-75749501D01*
X145800499Y-75699501D02*
X144300499Y-75699501D01*
X145850499Y-80399501D02*
X145800499Y-80349501D01*
X147350499Y-80399501D02*
X145850499Y-80399501D01*
X147350499Y-77087001D02*
X147350499Y-78749501D01*
X144250499Y-72649501D02*
X144250499Y-71774501D01*
X144250499Y-72649501D02*
X142750499Y-72649501D01*
X142750499Y-72649501D02*
X142700499Y-72699501D01*
X142750499Y-74299501D02*
X142700499Y-74249501D01*
X144250499Y-74299501D02*
X142750499Y-74299501D01*
X145800499Y-74299501D02*
X144250499Y-74299501D01*
X151605499Y-59444501D02*
X151700499Y-59349501D01*
D38*
X149675499Y-59444501D02*
X151605499Y-59444501D01*
D36*
X147350499Y-67049501D02*
X148800499Y-67049501D01*
X147350499Y-67449501D02*
X145800499Y-67449501D01*
M02*
