G04 #@! TF.GenerationSoftware,KiCad,Pcbnew,7.0.2*
G04 #@! TF.CreationDate,2023-05-27T23:51:10-07:00*
G04 #@! TF.ProjectId,meeseeks-sao,6d656573-6565-46b7-932d-73616f2e6b69,rev?*
G04 #@! TF.SameCoordinates,Original*
G04 #@! TF.FileFunction,Copper,L2,Bot*
G04 #@! TF.FilePolarity,Positive*
%FSLAX46Y46*%
G04 Gerber Fmt 4.6, Leading zero omitted, Abs format (unit mm)*
G04 Created by KiCad (PCBNEW 7.0.2) date 2023-05-27 23:51:10*
%MOMM*%
%LPD*%
G01*
G04 APERTURE LIST*
G04 #@! TA.AperFunction,ComponentPad*
%ADD10R,1.700000X1.700000*%
G04 #@! TD*
G04 #@! TA.AperFunction,ComponentPad*
%ADD11O,1.700000X1.700000*%
G04 #@! TD*
G04 #@! TA.AperFunction,ViaPad*
%ADD12C,0.800000*%
G04 #@! TD*
G04 #@! TA.AperFunction,Conductor*
%ADD13C,0.200000*%
G04 #@! TD*
G04 #@! TA.AperFunction,Conductor*
%ADD14C,0.500000*%
G04 #@! TD*
G04 APERTURE END LIST*
D10*
X147550000Y-32250000D03*
D11*
X150090000Y-32250000D03*
X152630000Y-32250000D03*
D10*
X148800000Y-132650000D03*
D11*
X148800000Y-135190000D03*
X146260000Y-132650000D03*
X146260000Y-135190000D03*
X143720000Y-132650000D03*
X143720000Y-135190000D03*
D12*
X153400000Y-58350000D03*
X159900499Y-64099501D03*
X159900499Y-62499501D03*
X159900499Y-60949501D03*
X159900499Y-59399501D03*
X148800499Y-67049501D03*
X152755877Y-77254879D03*
X146200499Y-71749501D03*
X144600499Y-67399501D03*
X152800499Y-84350000D03*
X147965999Y-59449501D03*
X158000499Y-71999501D03*
X146200499Y-63249501D03*
X151700499Y-61849501D03*
X145800499Y-69949501D03*
X150950499Y-79749501D03*
X143300499Y-80549501D03*
X144350499Y-80549501D03*
X150900499Y-74799501D03*
X148300499Y-73649501D03*
X144250499Y-71774501D03*
X142700499Y-71749501D03*
D13*
X147965999Y-59449501D02*
X152300499Y-59449501D01*
X152300499Y-59449501D02*
X153400000Y-58350000D01*
D14*
X152755877Y-77254879D02*
X152800499Y-77299501D01*
X152800499Y-77299501D02*
X152800499Y-84350000D01*
X152755877Y-73304879D02*
X152755877Y-77254879D01*
X151200499Y-71749501D02*
X152755877Y-73304879D01*
X146200499Y-71749501D02*
X151200499Y-71749501D01*
X144600499Y-61399501D02*
X146550499Y-59449501D01*
X144600499Y-67399501D02*
X144600499Y-61399501D01*
X146550499Y-59449501D02*
X147965999Y-59449501D01*
X144600499Y-67399501D02*
X144600499Y-70149501D01*
X144600499Y-70149501D02*
X146200499Y-71749501D01*
G04 #@! TA.AperFunction,Conductor*
G36*
X152256649Y-28638716D02*
G01*
X152262667Y-28638908D01*
X153010270Y-28681335D01*
X153018880Y-28682127D01*
X153574598Y-28752983D01*
X154377569Y-28864416D01*
X154382400Y-28865915D01*
X154394001Y-28866902D01*
X154401672Y-28867796D01*
X154416679Y-28870020D01*
X154421993Y-28869491D01*
X155187491Y-28941154D01*
X155845601Y-29015245D01*
X155880900Y-29024635D01*
X156034836Y-29091139D01*
X156061560Y-29106915D01*
X156203047Y-29216437D01*
X156208551Y-29222179D01*
X156212050Y-29224324D01*
X156223027Y-29231892D01*
X156225962Y-29234157D01*
X156233100Y-29237231D01*
X156658909Y-29498379D01*
X156665901Y-29504006D01*
X156679170Y-29510935D01*
X156687701Y-29513410D01*
X157361315Y-29809843D01*
X157363722Y-29811490D01*
X157380842Y-29818493D01*
X157384503Y-29820060D01*
X157402766Y-29828225D01*
X157405650Y-29828800D01*
X157584293Y-29903114D01*
X158757595Y-30391194D01*
X158764207Y-30394174D01*
X158795642Y-30409464D01*
X160044731Y-31017027D01*
X160052009Y-31020873D01*
X161183372Y-31667584D01*
X161192527Y-31673363D01*
X162023081Y-32249999D01*
X162113556Y-32312814D01*
X162113795Y-32313013D01*
X162530856Y-32601061D01*
X162537669Y-32607040D01*
X162547734Y-32612894D01*
X162556252Y-32615831D01*
X162782494Y-32725432D01*
X162805543Y-32739919D01*
X163027969Y-32916545D01*
X163230599Y-33077450D01*
X163238430Y-33084219D01*
X163303101Y-33145030D01*
X164061205Y-33857883D01*
X164064087Y-33860683D01*
X164860172Y-34659411D01*
X164867038Y-34666888D01*
X165220214Y-35084616D01*
X165225555Y-35091399D01*
X165411283Y-35344948D01*
X165414735Y-35351535D01*
X165418621Y-35355887D01*
X165425735Y-35364624D01*
X165428722Y-35368654D01*
X165434264Y-35373281D01*
X165902457Y-35892648D01*
X165905511Y-35896166D01*
X166663627Y-36803486D01*
X166671808Y-36814454D01*
X167294400Y-37753114D01*
X167301758Y-37765772D01*
X167799560Y-38751848D01*
X167805388Y-38765321D01*
X168186795Y-39813257D01*
X168190366Y-39824786D01*
X168302467Y-40260745D01*
X168305720Y-40278910D01*
X168369758Y-40900123D01*
X168370389Y-40910472D01*
X168430775Y-44075087D01*
X168438327Y-46432160D01*
X168438256Y-46436794D01*
X168383899Y-48026230D01*
X168383182Y-48035959D01*
X168232135Y-49368404D01*
X168230990Y-49376254D01*
X167947307Y-50963427D01*
X167946431Y-50967857D01*
X167695115Y-52128255D01*
X167693715Y-52134046D01*
X167420346Y-53156154D01*
X167418171Y-53163394D01*
X167120576Y-54054514D01*
X167117208Y-54063441D01*
X166791686Y-54834939D01*
X166790359Y-54837970D01*
X166512142Y-55451140D01*
X166508533Y-55456949D01*
X166507097Y-55461099D01*
X166503311Y-55470719D01*
X166501031Y-55475870D01*
X166499747Y-55482693D01*
X166393337Y-55796858D01*
X166378064Y-55827340D01*
X166123557Y-56197437D01*
X166113745Y-56209912D01*
X165475082Y-56922863D01*
X165472739Y-56925406D01*
X163551102Y-58953801D01*
X163549074Y-58955394D01*
X163538501Y-58967100D01*
X163538499Y-58967102D01*
X163538443Y-58967164D01*
X163538377Y-58967235D01*
X163538375Y-58967237D01*
X163529109Y-58977205D01*
X163527629Y-58979398D01*
X162736009Y-59875034D01*
X162727810Y-59882790D01*
X162727339Y-59883440D01*
X162722565Y-59893704D01*
X162613591Y-60079563D01*
X162609568Y-60085580D01*
X162609270Y-60087054D01*
X162610667Y-60094174D01*
X162621201Y-60172012D01*
X162621069Y-60174590D01*
X162624300Y-60195221D01*
X162624474Y-60195514D01*
X162641506Y-60208440D01*
X162643686Y-60209471D01*
X162836436Y-60350001D01*
X162891339Y-60390030D01*
X162896715Y-60395258D01*
X162899831Y-60397076D01*
X162911162Y-60404546D01*
X162914772Y-60407220D01*
X162921944Y-60410119D01*
X163408537Y-60698275D01*
X163409688Y-60699168D01*
X163421982Y-60706237D01*
X163421984Y-60706239D01*
X163422024Y-60706262D01*
X163422149Y-60706336D01*
X163422150Y-60706336D01*
X163434537Y-60713669D01*
X163435905Y-60714239D01*
X164959014Y-61589589D01*
X164960926Y-61591281D01*
X164979793Y-61601572D01*
X164982592Y-61603146D01*
X164992339Y-61608795D01*
X164994459Y-61609649D01*
X165620448Y-61954732D01*
X165632206Y-61961214D01*
X165638604Y-61966024D01*
X165640749Y-61966903D01*
X165654215Y-61973395D01*
X165656819Y-61974850D01*
X165664663Y-61976850D01*
X166011822Y-62122123D01*
X166011823Y-62122123D01*
X166011933Y-62122168D01*
X166034230Y-62131499D01*
X166034628Y-62131579D01*
X166111324Y-62163379D01*
X166180072Y-62191884D01*
X166208447Y-62208347D01*
X166414237Y-62367543D01*
X166415920Y-62369437D01*
X166431743Y-62381122D01*
X166433800Y-62382674D01*
X166441983Y-62388984D01*
X166444042Y-62390170D01*
X166944467Y-62758213D01*
X166948208Y-62762006D01*
X166957312Y-62767929D01*
X166963543Y-62772260D01*
X166965662Y-62773831D01*
X166969484Y-62775892D01*
X167845868Y-63350292D01*
X167848255Y-63352585D01*
X167863599Y-63361990D01*
X167867195Y-63364281D01*
X167881274Y-63373591D01*
X167884417Y-63374829D01*
X168796521Y-63937652D01*
X168800410Y-63941141D01*
X168812460Y-63947714D01*
X168818693Y-63951353D01*
X168830315Y-63958599D01*
X168835096Y-63960234D01*
X169475431Y-64315180D01*
X169483231Y-64319887D01*
X169837496Y-64551804D01*
X169847518Y-64559108D01*
X170390577Y-64998185D01*
X170395688Y-65002551D01*
X171480071Y-65981110D01*
X171801419Y-66271097D01*
X171805440Y-66274891D01*
X173135708Y-67587757D01*
X173203372Y-67654536D01*
X173207289Y-67658582D01*
X173275990Y-67732842D01*
X173742550Y-68237159D01*
X173748016Y-68243482D01*
X174088065Y-68664775D01*
X174098683Y-68680179D01*
X174130396Y-68734561D01*
X174368217Y-69142391D01*
X174376210Y-69158752D01*
X174548881Y-69589885D01*
X174552445Y-69600040D01*
X174640641Y-69891198D01*
X174643036Y-69902682D01*
X174649627Y-69912455D01*
X174717582Y-70037773D01*
X174732179Y-70086955D01*
X174786867Y-70767878D01*
X174787252Y-70776032D01*
X174810716Y-72417340D01*
X174810716Y-74685591D01*
X174791031Y-74752630D01*
X174783691Y-74762867D01*
X174355408Y-75300318D01*
X174352194Y-75304188D01*
X173209524Y-76624471D01*
X173206474Y-76627867D01*
X171781276Y-78157026D01*
X171778596Y-78159813D01*
X170525391Y-79423070D01*
X170520991Y-79427292D01*
X170107611Y-79804905D01*
X170093498Y-79816033D01*
X169891571Y-79952744D01*
X169525618Y-80194823D01*
X169519049Y-80198021D01*
X169516457Y-80200151D01*
X169506948Y-80207228D01*
X169503935Y-80209253D01*
X169498959Y-80214683D01*
X168763069Y-80828193D01*
X168760505Y-80829765D01*
X168750184Y-80838881D01*
X168747981Y-80840781D01*
X168737852Y-80849311D01*
X168735860Y-80851677D01*
X167817293Y-81672993D01*
X167815332Y-81674325D01*
X167804925Y-81684050D01*
X167804924Y-81684051D01*
X167804863Y-81684108D01*
X167804789Y-81684175D01*
X167804788Y-81684176D01*
X167793066Y-81694787D01*
X167791514Y-81696764D01*
X166880799Y-82560289D01*
X166344846Y-83053056D01*
X166331884Y-83063459D01*
X166045898Y-83263011D01*
X166030633Y-83272109D01*
X165840310Y-83367780D01*
X165831364Y-83371208D01*
X165825968Y-83374550D01*
X165818913Y-83381070D01*
X165507246Y-83615078D01*
X165502836Y-83617439D01*
X165493950Y-83624885D01*
X165489838Y-83628185D01*
X165480763Y-83635153D01*
X165477643Y-83638738D01*
X165087966Y-83970376D01*
X165084962Y-83972119D01*
X165070703Y-83985017D01*
X165070570Y-83985286D01*
X165068963Y-84005040D01*
X165069379Y-84008253D01*
X165016954Y-84986837D01*
X165016660Y-84991017D01*
X164947912Y-85776430D01*
X164945725Y-85791159D01*
X164804735Y-86460953D01*
X164799916Y-86477820D01*
X164561782Y-87132106D01*
X164556485Y-87144515D01*
X164194907Y-87878158D01*
X164189746Y-87887577D01*
X163932093Y-88312996D01*
X163923271Y-88325700D01*
X163565317Y-88778101D01*
X163558309Y-88786212D01*
X162970523Y-89409806D01*
X162967538Y-89412865D01*
X162024144Y-90347034D01*
X160489531Y-91810218D01*
X160478066Y-91819895D01*
X160113829Y-92091368D01*
X160089871Y-92105354D01*
X159815531Y-92226653D01*
X159806471Y-92230240D01*
X159563635Y-92315513D01*
X159556993Y-92317439D01*
X159551699Y-92321573D01*
X159387274Y-92436777D01*
X159385172Y-92438190D01*
X159383443Y-92440748D01*
X159242794Y-92638204D01*
X159237381Y-92644088D01*
X159237286Y-92644266D01*
X159229340Y-92657166D01*
X159229259Y-92657280D01*
X159226447Y-92664711D01*
X159041552Y-93014833D01*
X159038751Y-93019850D01*
X158569265Y-93817093D01*
X158560587Y-93829924D01*
X158459384Y-93961076D01*
X158455259Y-93965901D01*
X158453250Y-93971889D01*
X158416841Y-94064829D01*
X158407439Y-94083851D01*
X158326389Y-94217632D01*
X158311759Y-94237151D01*
X158286864Y-94264321D01*
X158099484Y-94468822D01*
X158099483Y-94468823D01*
X158099427Y-94468884D01*
X158099353Y-94468966D01*
X158099352Y-94468968D01*
X158099182Y-94469156D01*
X158099180Y-94469158D01*
X158098106Y-94470352D01*
X158088248Y-94481270D01*
X158088135Y-94481437D01*
X157886732Y-94705333D01*
X157877962Y-94713385D01*
X157877906Y-94713462D01*
X157872846Y-94724224D01*
X157789714Y-94865447D01*
X157780982Y-94878351D01*
X157569106Y-95152607D01*
X157560653Y-95162440D01*
X157051622Y-95695452D01*
X157050578Y-95696329D01*
X157042088Y-95705437D01*
X157030895Y-95717227D01*
X157030031Y-95718474D01*
X156785206Y-95983228D01*
X156472354Y-96321544D01*
X156465182Y-96327928D01*
X156461164Y-96333128D01*
X156456843Y-96341731D01*
X156343938Y-96517009D01*
X156343891Y-96517079D01*
X156343890Y-96517080D01*
X156343855Y-96517134D01*
X156343529Y-96518761D01*
X156316587Y-96644489D01*
X156316085Y-96646650D01*
X156316471Y-96649090D01*
X156486473Y-97874906D01*
X157558938Y-105694966D01*
X157558939Y-105694975D01*
X157561647Y-105714714D01*
X157561647Y-105714715D01*
X157562235Y-105718950D01*
X157562236Y-105718955D01*
X159647514Y-120722019D01*
X159647982Y-120723232D01*
X160100529Y-123742382D01*
X160100543Y-123746662D01*
X160102810Y-123758258D01*
X160103582Y-123762624D01*
X160105910Y-123777308D01*
X160107491Y-123781380D01*
X160292136Y-124690009D01*
X160293266Y-124701249D01*
X160293993Y-124703645D01*
X160299252Y-124713623D01*
X160352728Y-124844548D01*
X160361351Y-124879420D01*
X160382635Y-125098053D01*
X160382577Y-125099748D01*
X160384227Y-125114416D01*
X160386269Y-125133907D01*
X160386836Y-125135790D01*
X160406991Y-125300941D01*
X160407280Y-125303855D01*
X160408713Y-125306558D01*
X160498937Y-125487270D01*
X160501623Y-125493450D01*
X160506438Y-125498189D01*
X160860946Y-125886358D01*
X161044703Y-126087562D01*
X161045667Y-126088966D01*
X161056388Y-126100357D01*
X161073447Y-126118909D01*
X161075123Y-126120044D01*
X161603898Y-126675686D01*
X161610712Y-126683473D01*
X161717601Y-126816424D01*
X161970349Y-127130799D01*
X161996398Y-127163795D01*
X162497516Y-127798543D01*
X162500876Y-127804234D01*
X162504486Y-127808079D01*
X162511186Y-127815834D01*
X162516006Y-127821903D01*
X162521576Y-127826196D01*
X162668819Y-127982101D01*
X162778277Y-128097997D01*
X162809997Y-128160251D01*
X162812123Y-128184174D01*
X162785661Y-131350810D01*
X162785662Y-131350810D01*
X162785508Y-131369204D01*
X162759012Y-134539700D01*
X162746593Y-134592762D01*
X162474277Y-135154414D01*
X162469570Y-135163203D01*
X162266879Y-135507657D01*
X162257214Y-135521758D01*
X161941821Y-135919975D01*
X161933475Y-135929474D01*
X160592355Y-137307384D01*
X160588501Y-137311175D01*
X159157231Y-138658841D01*
X159146955Y-138667515D01*
X158714286Y-138994268D01*
X158701158Y-139002933D01*
X158282915Y-139242338D01*
X158274430Y-139246769D01*
X157367759Y-139676578D01*
X157354891Y-139681817D01*
X156965450Y-139815456D01*
X156952186Y-139819197D01*
X156532828Y-139912694D01*
X156516817Y-139915180D01*
X155359721Y-140017978D01*
X155351449Y-140018435D01*
X153441978Y-140060030D01*
X153438542Y-140060057D01*
X150964724Y-140045393D01*
X150955400Y-140044986D01*
X150112442Y-139976375D01*
X150098518Y-139974443D01*
X149435274Y-139843696D01*
X149415196Y-139837945D01*
X149001068Y-139680519D01*
X148867377Y-139629697D01*
X148846998Y-139619729D01*
X148345809Y-139314833D01*
X148331949Y-139305043D01*
X147957160Y-138999801D01*
X147811663Y-138881302D01*
X147805226Y-138875679D01*
X147582881Y-138667515D01*
X147204125Y-138312915D01*
X146176450Y-137320679D01*
X146171186Y-137314065D01*
X146164509Y-137309132D01*
X146156515Y-137309260D01*
X146148343Y-137311610D01*
X145638150Y-137389436D01*
X145633071Y-137390104D01*
X143357676Y-137641561D01*
X143352644Y-137642013D01*
X140405373Y-137846624D01*
X140399984Y-137846881D01*
X138017257Y-137908374D01*
X138014108Y-137908415D01*
X135252889Y-137909532D01*
X135250089Y-137909501D01*
X132880860Y-137856936D01*
X132876736Y-137856776D01*
X132084241Y-137812775D01*
X132074667Y-137811870D01*
X131687714Y-137760086D01*
X131647111Y-137747278D01*
X131437590Y-137638706D01*
X131419129Y-137626966D01*
X131111526Y-137390808D01*
X131093473Y-137376947D01*
X131083964Y-137368854D01*
X129948230Y-136298814D01*
X129943997Y-136294629D01*
X129719174Y-136061404D01*
X128960301Y-135274169D01*
X128954104Y-135267238D01*
X128890092Y-135189999D01*
X142364340Y-135189999D01*
X142384936Y-135425407D01*
X142429709Y-135592501D01*
X142446097Y-135653663D01*
X142545965Y-135867830D01*
X142681505Y-136061401D01*
X142848599Y-136228495D01*
X143042170Y-136364035D01*
X143256337Y-136463903D01*
X143484592Y-136525063D01*
X143720000Y-136545659D01*
X143955408Y-136525063D01*
X144183663Y-136463903D01*
X144397830Y-136364035D01*
X144591401Y-136228495D01*
X144758495Y-136061401D01*
X144888426Y-135875839D01*
X144943002Y-135832216D01*
X145012500Y-135825022D01*
X145074855Y-135856545D01*
X145091571Y-135875837D01*
X145221505Y-136061401D01*
X145388599Y-136228495D01*
X145582170Y-136364035D01*
X145796337Y-136463903D01*
X146008059Y-136520633D01*
X146024592Y-136525063D01*
X146259999Y-136545659D01*
X146259999Y-136545658D01*
X146260000Y-136545659D01*
X146495408Y-136525063D01*
X146723663Y-136463903D01*
X146937830Y-136364035D01*
X147131401Y-136228495D01*
X147298495Y-136061401D01*
X147428732Y-135875403D01*
X147483307Y-135831780D01*
X147552805Y-135824586D01*
X147615160Y-135856109D01*
X147631880Y-135875404D01*
X147761893Y-136061081D01*
X147928918Y-136228106D01*
X148122423Y-136363600D01*
X148336509Y-136463430D01*
X148550000Y-136520634D01*
X148550000Y-135625501D01*
X148657685Y-135674680D01*
X148764237Y-135690000D01*
X148835763Y-135690000D01*
X148942315Y-135674680D01*
X149050000Y-135625501D01*
X149050000Y-136520633D01*
X149263490Y-136463430D01*
X149477576Y-136363600D01*
X149671081Y-136228106D01*
X149838106Y-136061081D01*
X149973600Y-135867576D01*
X150073430Y-135653492D01*
X150130636Y-135440000D01*
X149233686Y-135440000D01*
X149259493Y-135399844D01*
X149300000Y-135261889D01*
X149300000Y-135118111D01*
X149259493Y-134980156D01*
X149233686Y-134940000D01*
X150130636Y-134940000D01*
X150130635Y-134939999D01*
X150073430Y-134726507D01*
X149973599Y-134512421D01*
X149838109Y-134318921D01*
X149716053Y-134196865D01*
X149682568Y-134135542D01*
X149687552Y-134065850D01*
X149729424Y-134009917D01*
X149760397Y-133993004D01*
X149892331Y-133943796D01*
X150007546Y-133857546D01*
X150093796Y-133742331D01*
X150144091Y-133607483D01*
X150150500Y-133547873D01*
X150150499Y-131752128D01*
X150144091Y-131692517D01*
X150093796Y-131557669D01*
X150007546Y-131442454D01*
X149892331Y-131356204D01*
X149757483Y-131305909D01*
X149697873Y-131299500D01*
X149694550Y-131299500D01*
X147905439Y-131299500D01*
X147905420Y-131299500D01*
X147902128Y-131299501D01*
X147898848Y-131299853D01*
X147898840Y-131299854D01*
X147842515Y-131305909D01*
X147707669Y-131356204D01*
X147592454Y-131442454D01*
X147506204Y-131557669D01*
X147457189Y-131689083D01*
X147415317Y-131745016D01*
X147349852Y-131769433D01*
X147281580Y-131754581D01*
X147253326Y-131733430D01*
X147131404Y-131611508D01*
X147131401Y-131611505D01*
X146937830Y-131475965D01*
X146723663Y-131376097D01*
X146662502Y-131359709D01*
X146495407Y-131314936D01*
X146259999Y-131294340D01*
X146024592Y-131314936D01*
X145796336Y-131376097D01*
X145582170Y-131475965D01*
X145388598Y-131611505D01*
X145221505Y-131778598D01*
X145091575Y-131964159D01*
X145036998Y-132007784D01*
X144967500Y-132014978D01*
X144905145Y-131983455D01*
X144888425Y-131964159D01*
X144772741Y-131798945D01*
X144758495Y-131778599D01*
X144591401Y-131611505D01*
X144397830Y-131475965D01*
X144183663Y-131376097D01*
X144122502Y-131359709D01*
X143955407Y-131314936D01*
X143720000Y-131294340D01*
X143484592Y-131314936D01*
X143256336Y-131376097D01*
X143042170Y-131475965D01*
X142848598Y-131611505D01*
X142681505Y-131778598D01*
X142545965Y-131972170D01*
X142446097Y-132186336D01*
X142384936Y-132414592D01*
X142364340Y-132650000D01*
X142384936Y-132885407D01*
X142429709Y-133052502D01*
X142446097Y-133113663D01*
X142545965Y-133327830D01*
X142681505Y-133521401D01*
X142848599Y-133688495D01*
X143034160Y-133818426D01*
X143077783Y-133873002D01*
X143084976Y-133942501D01*
X143053454Y-134004855D01*
X143034159Y-134021575D01*
X142848595Y-134151508D01*
X142681505Y-134318598D01*
X142545965Y-134512170D01*
X142446097Y-134726336D01*
X142384936Y-134954592D01*
X142364340Y-135189999D01*
X128890092Y-135189999D01*
X128864785Y-135159462D01*
X128506912Y-134727635D01*
X128480096Y-134669021D01*
X128467307Y-134592762D01*
X128441616Y-134439575D01*
X128440063Y-134425220D01*
X128412994Y-133878623D01*
X128412843Y-133872476D01*
X128413961Y-131798945D01*
X128440327Y-129197445D01*
X128460690Y-129130613D01*
X128476635Y-129111030D01*
X129605564Y-127982101D01*
X130447338Y-127163768D01*
X130452996Y-127158602D01*
X130849930Y-126818215D01*
X130852129Y-126816374D01*
X131487324Y-126297484D01*
X131845560Y-126007960D01*
X131990211Y-125891054D01*
X132002357Y-125882393D01*
X132649903Y-125477095D01*
X132658907Y-125471971D01*
X133487682Y-125045375D01*
X133493739Y-125042464D01*
X134533676Y-124577214D01*
X135274758Y-124252956D01*
X135282728Y-124250940D01*
X135287377Y-124248284D01*
X135300445Y-124241803D01*
X135305620Y-124239605D01*
X135312047Y-124234470D01*
X135715925Y-124009901D01*
X135721218Y-124007277D01*
X135724953Y-124002942D01*
X135938269Y-123776395D01*
X135940244Y-123774389D01*
X135941239Y-123771910D01*
X135953795Y-123742382D01*
X136070673Y-123467525D01*
X136076274Y-123457149D01*
X136077364Y-123445405D01*
X136152118Y-123045887D01*
X136155240Y-123036600D01*
X136156824Y-123022760D01*
X136156020Y-123012972D01*
X136197941Y-122053809D01*
X136198458Y-122050090D01*
X136198458Y-122044778D01*
X136198580Y-122039275D01*
X136199239Y-122024437D01*
X136198466Y-122020050D01*
X136200698Y-116467517D01*
X136221973Y-110687013D01*
X136222007Y-110684567D01*
X136337304Y-105827368D01*
X136337434Y-105823921D01*
X136563503Y-101442835D01*
X136563744Y-101439211D01*
X136917539Y-97085771D01*
X136960380Y-96646650D01*
X137023161Y-96003138D01*
X137025002Y-95996034D01*
X137025113Y-95983382D01*
X137017827Y-95974438D01*
X137011797Y-95969922D01*
X136336938Y-95286298D01*
X136333082Y-95282210D01*
X135859431Y-94756787D01*
X135848358Y-94742544D01*
X135823551Y-94705333D01*
X135656542Y-94454820D01*
X135651805Y-94447119D01*
X135548391Y-94264318D01*
X135543862Y-94254428D01*
X135535929Y-94246962D01*
X135286285Y-93967825D01*
X135279569Y-93958532D01*
X135277565Y-93956677D01*
X135267813Y-93950654D01*
X134898356Y-93669009D01*
X134891470Y-93662919D01*
X134882813Y-93659942D01*
X134716165Y-93588912D01*
X134706192Y-93583363D01*
X134703074Y-93582351D01*
X134691733Y-93580953D01*
X134501997Y-93537802D01*
X134499159Y-93537156D01*
X134496475Y-93536515D01*
X134084518Y-93433124D01*
X134052815Y-93420306D01*
X133641007Y-93183119D01*
X133622301Y-93169904D01*
X133039347Y-92671347D01*
X133033487Y-92666001D01*
X132132469Y-91789687D01*
X131228934Y-90878905D01*
X131221326Y-90870499D01*
X130705106Y-90244936D01*
X130693827Y-90228817D01*
X130534936Y-89958320D01*
X130527966Y-89944560D01*
X130479293Y-89831534D01*
X130404258Y-89657288D01*
X130399084Y-89642883D01*
X130185910Y-88909814D01*
X130185560Y-88906000D01*
X130179851Y-88888698D01*
X130178565Y-88884561D01*
X130174889Y-88871960D01*
X130173245Y-88868721D01*
X130145957Y-88786212D01*
X129948013Y-88187711D01*
X129946848Y-88180471D01*
X129943899Y-88173688D01*
X129939980Y-88163458D01*
X129937716Y-88156668D01*
X129933725Y-88150465D01*
X129628300Y-87454656D01*
X129627173Y-87451259D01*
X129624723Y-87446244D01*
X129622567Y-87441589D01*
X129616900Y-87428662D01*
X129614467Y-87425253D01*
X129474575Y-87138939D01*
X129414360Y-87015698D01*
X129408013Y-87000100D01*
X129301524Y-86677205D01*
X129296208Y-86653457D01*
X129247494Y-86255822D01*
X129246677Y-86245775D01*
X129220417Y-85598160D01*
X129200764Y-84988911D01*
X129184691Y-84490658D01*
X129184649Y-84487064D01*
X129184558Y-84486852D01*
X129182039Y-84484396D01*
X127580507Y-82864971D01*
X125983338Y-81187496D01*
X125971036Y-81172350D01*
X125838873Y-80980549D01*
X125653690Y-80711802D01*
X125650862Y-80705748D01*
X125645039Y-80698555D01*
X125638965Y-80690388D01*
X125635081Y-80684692D01*
X125630362Y-80680311D01*
X125256391Y-80214683D01*
X124878334Y-79743968D01*
X124876950Y-79741429D01*
X124865406Y-79727803D01*
X124863322Y-79725277D01*
X124855085Y-79715016D01*
X124852992Y-79713151D01*
X123998788Y-78704960D01*
X123996722Y-78701400D01*
X123985955Y-78689668D01*
X123982831Y-78686132D01*
X123973934Y-78675664D01*
X123970778Y-78673180D01*
X123342137Y-77990405D01*
X123229796Y-77864297D01*
X123124145Y-77745700D01*
X123106515Y-77720028D01*
X123102333Y-77711912D01*
X123024108Y-77560118D01*
X123016620Y-77542295D01*
X122969891Y-77401114D01*
X122967630Y-77392131D01*
X122962094Y-77384676D01*
X122852105Y-77211418D01*
X122849712Y-77205631D01*
X122842932Y-77196421D01*
X122838108Y-77189370D01*
X122832997Y-77181320D01*
X122828647Y-77177034D01*
X122423209Y-76626932D01*
X121633970Y-75556085D01*
X121629891Y-75550202D01*
X121468854Y-75302994D01*
X120916068Y-74454412D01*
X120911949Y-74447622D01*
X120727275Y-74119824D01*
X120571515Y-73843348D01*
X120555550Y-73782484D01*
X120555550Y-71127000D01*
X120560497Y-70686652D01*
X120582332Y-68743223D01*
X120583731Y-68726000D01*
X120643742Y-68331191D01*
X120653076Y-68299345D01*
X120765020Y-68048230D01*
X120778596Y-68024964D01*
X120991038Y-67737908D01*
X120997885Y-67729461D01*
X121290367Y-67399501D01*
X143695039Y-67399501D01*
X143714825Y-67587758D01*
X143773319Y-67767785D01*
X143833386Y-67871822D01*
X143849999Y-67933822D01*
X143849999Y-70085795D01*
X143848690Y-70103765D01*
X143845210Y-70127524D01*
X143849527Y-70176869D01*
X143849999Y-70187676D01*
X143849999Y-70193210D01*
X143850415Y-70196773D01*
X143850416Y-70196783D01*
X143853597Y-70223997D01*
X143853963Y-70227583D01*
X143860608Y-70303542D01*
X143864828Y-70322572D01*
X143865257Y-70323752D01*
X143865258Y-70323756D01*
X143890912Y-70394243D01*
X143892081Y-70397608D01*
X143916079Y-70470025D01*
X143924574Y-70487573D01*
X143966478Y-70551285D01*
X143968388Y-70554283D01*
X144007787Y-70618157D01*
X144008451Y-70619233D01*
X144020752Y-70634331D01*
X144021667Y-70635194D01*
X144021669Y-70635197D01*
X144076208Y-70686652D01*
X144078795Y-70689165D01*
X145287727Y-71898096D01*
X145317977Y-71947459D01*
X145373319Y-72117785D01*
X145467965Y-72281717D01*
X145594628Y-72422390D01*
X145747768Y-72533652D01*
X145920696Y-72610645D01*
X146105851Y-72650001D01*
X146105853Y-72650001D01*
X146295147Y-72650001D01*
X146418583Y-72623763D01*
X146480302Y-72610645D01*
X146653229Y-72533652D01*
X146666948Y-72523684D01*
X146732755Y-72500203D01*
X146739836Y-72500001D01*
X150838269Y-72500001D01*
X150905308Y-72519686D01*
X150925950Y-72536320D01*
X151969058Y-73579427D01*
X152002543Y-73640750D01*
X152005377Y-73667108D01*
X152005377Y-76720556D01*
X151988764Y-76782556D01*
X151928697Y-76886594D01*
X151870203Y-77066621D01*
X151850417Y-77254878D01*
X151870203Y-77443136D01*
X151928697Y-77623163D01*
X152029860Y-77798382D01*
X152027097Y-77799976D01*
X152048376Y-77844301D01*
X152049999Y-77864297D01*
X152049999Y-83815677D01*
X152033386Y-83877677D01*
X151973319Y-83981715D01*
X151914825Y-84161742D01*
X151895039Y-84349999D01*
X151914825Y-84538257D01*
X151973319Y-84718284D01*
X152067965Y-84882216D01*
X152194628Y-85022889D01*
X152347768Y-85134151D01*
X152520696Y-85211144D01*
X152705851Y-85250500D01*
X152705853Y-85250500D01*
X152895147Y-85250500D01*
X153018582Y-85224262D01*
X153080302Y-85211144D01*
X153253229Y-85134151D01*
X153406370Y-85022888D01*
X153533032Y-84882216D01*
X153627678Y-84718284D01*
X153686173Y-84538256D01*
X153705959Y-84350000D01*
X153686173Y-84161744D01*
X153655831Y-84068363D01*
X153627678Y-83981715D01*
X153567612Y-83877677D01*
X153550999Y-83815677D01*
X153550999Y-77711912D01*
X153567612Y-77649911D01*
X153583056Y-77623163D01*
X153641551Y-77443135D01*
X153661337Y-77254879D01*
X153641551Y-77066623D01*
X153583056Y-76886595D01*
X153583056Y-76886594D01*
X153522990Y-76782556D01*
X153506377Y-76720556D01*
X153506377Y-73368584D01*
X153507686Y-73350614D01*
X153507838Y-73349570D01*
X153511166Y-73326856D01*
X153506849Y-73277508D01*
X153506377Y-73266702D01*
X153506377Y-73264780D01*
X153506377Y-73261170D01*
X153502780Y-73230399D01*
X153502413Y-73226808D01*
X153495766Y-73150828D01*
X153491549Y-73131809D01*
X153465469Y-73060153D01*
X153464285Y-73056747D01*
X153440691Y-72985545D01*
X153440689Y-72985542D01*
X153440292Y-72984343D01*
X153431806Y-72966815D01*
X153431114Y-72965763D01*
X153431114Y-72965762D01*
X153389878Y-72903067D01*
X153387963Y-72900060D01*
X153347925Y-72835148D01*
X153335625Y-72820049D01*
X153280150Y-72767711D01*
X153277563Y-72765198D01*
X151776227Y-71263861D01*
X151764445Y-71250228D01*
X151750108Y-71230970D01*
X151712165Y-71199132D01*
X151704190Y-71191824D01*
X151702828Y-71190462D01*
X151700276Y-71187910D01*
X151675943Y-71168670D01*
X151673146Y-71166391D01*
X151614750Y-71117391D01*
X151598320Y-71106923D01*
X151529190Y-71074687D01*
X151525946Y-71073116D01*
X151457805Y-71038895D01*
X151439402Y-71032498D01*
X151364710Y-71017075D01*
X151361191Y-71016295D01*
X151286989Y-70998709D01*
X151267620Y-70996730D01*
X151191368Y-70998949D01*
X151187762Y-70999001D01*
X146739836Y-70999001D01*
X146672797Y-70979316D01*
X146666949Y-70975318D01*
X146653227Y-70965348D01*
X146480302Y-70888356D01*
X146415168Y-70874512D01*
X146353686Y-70841320D01*
X146353268Y-70840903D01*
X145387318Y-69874952D01*
X145353833Y-69813629D01*
X145350999Y-69787271D01*
X145350999Y-67933822D01*
X145367612Y-67871822D01*
X145427678Y-67767785D01*
X145463159Y-67658585D01*
X145486173Y-67587757D01*
X145505959Y-67399501D01*
X145486173Y-67211245D01*
X145427678Y-67031217D01*
X145427678Y-67031216D01*
X145367612Y-66927178D01*
X145350999Y-66865178D01*
X145350999Y-61761730D01*
X145370684Y-61694691D01*
X145387318Y-61674049D01*
X146825047Y-60236320D01*
X146886370Y-60202835D01*
X146912728Y-60200001D01*
X147426662Y-60200001D01*
X147493701Y-60219686D01*
X147499549Y-60223684D01*
X147513270Y-60233653D01*
X147686196Y-60310645D01*
X147871351Y-60350001D01*
X147871353Y-60350001D01*
X148060647Y-60350001D01*
X148184082Y-60323763D01*
X148245802Y-60310645D01*
X148418729Y-60233652D01*
X148571870Y-60122389D01*
X148571869Y-60122389D01*
X148600109Y-60091028D01*
X148659596Y-60054380D01*
X148692258Y-60050001D01*
X152253012Y-60050001D01*
X152269196Y-60051061D01*
X152300499Y-60055183D01*
X152457261Y-60034545D01*
X152603340Y-59974037D01*
X152611167Y-59968031D01*
X152728781Y-59877783D01*
X152748008Y-59852724D01*
X152758689Y-59840544D01*
X153312415Y-59286819D01*
X153373739Y-59253334D01*
X153400097Y-59250500D01*
X153494648Y-59250500D01*
X153618084Y-59224262D01*
X153679803Y-59211144D01*
X153852730Y-59134151D01*
X154005871Y-59022888D01*
X154132533Y-58882216D01*
X154227179Y-58718284D01*
X154285674Y-58538256D01*
X154305460Y-58350000D01*
X154285674Y-58161744D01*
X154227179Y-57981716D01*
X154227179Y-57981715D01*
X154132533Y-57817783D01*
X154005870Y-57677110D01*
X153852730Y-57565848D01*
X153679802Y-57488855D01*
X153494648Y-57449500D01*
X153494646Y-57449500D01*
X153305354Y-57449500D01*
X153305352Y-57449500D01*
X153120197Y-57488855D01*
X152947269Y-57565848D01*
X152794129Y-57677110D01*
X152667466Y-57817783D01*
X152572820Y-57981715D01*
X152514326Y-58161742D01*
X152493178Y-58362961D01*
X152489944Y-58362621D01*
X152481132Y-58410792D01*
X152458065Y-58442698D01*
X152088083Y-58812682D01*
X152026760Y-58846167D01*
X152000402Y-58849001D01*
X148692258Y-58849001D01*
X148625219Y-58829316D01*
X148600109Y-58807974D01*
X148571870Y-58776612D01*
X148418729Y-58665349D01*
X148245801Y-58588356D01*
X148060647Y-58549001D01*
X148060645Y-58549001D01*
X147871353Y-58549001D01*
X147871351Y-58549001D01*
X147686196Y-58588356D01*
X147513270Y-58665348D01*
X147499549Y-58675318D01*
X147433743Y-58698799D01*
X147426662Y-58699001D01*
X146614205Y-58699001D01*
X146596235Y-58697692D01*
X146582352Y-58695658D01*
X146572476Y-58694212D01*
X146572475Y-58694212D01*
X146523133Y-58698529D01*
X146512326Y-58699001D01*
X146506790Y-58699001D01*
X146503229Y-58699417D01*
X146503214Y-58699418D01*
X146475983Y-58702601D01*
X146472399Y-58702967D01*
X146396449Y-58709612D01*
X146377421Y-58713830D01*
X146305769Y-58739908D01*
X146302368Y-58741090D01*
X146229979Y-58765079D01*
X146212426Y-58773577D01*
X146148735Y-58815466D01*
X146145697Y-58817402D01*
X146080776Y-58857448D01*
X146065662Y-58869759D01*
X146013330Y-58925227D01*
X146010818Y-58927813D01*
X144114857Y-60823773D01*
X144101226Y-60835554D01*
X144081967Y-60849892D01*
X144050134Y-60887829D01*
X144042837Y-60895793D01*
X144041471Y-60897158D01*
X144041449Y-60897182D01*
X144038908Y-60899724D01*
X144036672Y-60902551D01*
X144036670Y-60902554D01*
X144019675Y-60924047D01*
X144017401Y-60926838D01*
X143968393Y-60985245D01*
X143957917Y-61001688D01*
X143925691Y-61070795D01*
X143924121Y-61074037D01*
X143889892Y-61142193D01*
X143883495Y-61160599D01*
X143868072Y-61235289D01*
X143867292Y-61238806D01*
X143849707Y-61313007D01*
X143847728Y-61332380D01*
X143849947Y-61408630D01*
X143849999Y-61412236D01*
X143849999Y-66865178D01*
X143833386Y-66927178D01*
X143773319Y-67031216D01*
X143714825Y-67211243D01*
X143695039Y-67399501D01*
X121290367Y-67399501D01*
X121418151Y-67255343D01*
X121421904Y-67251297D01*
X122651802Y-65983280D01*
X122654830Y-65980267D01*
X124020350Y-64668772D01*
X124025154Y-64664396D01*
X125076106Y-63756582D01*
X125085089Y-63749520D01*
X127911301Y-61732060D01*
X127917892Y-61728969D01*
X127925280Y-61722701D01*
X127934842Y-61715356D01*
X127941597Y-61710671D01*
X127946283Y-61705215D01*
X128501605Y-61245339D01*
X128505196Y-61242479D01*
X128623406Y-61151812D01*
X128838062Y-60987171D01*
X128862440Y-60972577D01*
X129089444Y-60869960D01*
X129100003Y-60865759D01*
X129352471Y-60778486D01*
X129363836Y-60776043D01*
X129370358Y-60773202D01*
X129379934Y-60766506D01*
X129781311Y-60551593D01*
X129785147Y-60550059D01*
X129790536Y-60546842D01*
X129796757Y-60543365D01*
X129812272Y-60535270D01*
X129815649Y-60532274D01*
X131901596Y-59327009D01*
X131903783Y-59325777D01*
X134220208Y-58053925D01*
X134220207Y-58053925D01*
X134235968Y-58045272D01*
X134236451Y-58044899D01*
X135588618Y-57293696D01*
X135591151Y-57292363D01*
X135591334Y-57292151D01*
X135591408Y-57291893D01*
X135591135Y-57289124D01*
X135577442Y-57110058D01*
X135577382Y-57101547D01*
X135574172Y-57093983D01*
X135452653Y-56749505D01*
X135451987Y-56746609D01*
X135448595Y-56737838D01*
X135447361Y-56734507D01*
X135440314Y-56714609D01*
X135438459Y-56711767D01*
X135108861Y-55864252D01*
X135106506Y-55857651D01*
X134982370Y-55475870D01*
X134748657Y-54757083D01*
X134747241Y-54752412D01*
X134551784Y-54059302D01*
X134434475Y-53643310D01*
X134432893Y-53637090D01*
X134229306Y-52739715D01*
X134092807Y-52134046D01*
X134027747Y-51845366D01*
X134026830Y-51836061D01*
X134023154Y-51824094D01*
X134018652Y-51815842D01*
X133726002Y-51074029D01*
X133724535Y-51067286D01*
X133720912Y-51059932D01*
X133716601Y-51050137D01*
X133714113Y-51043752D01*
X133710304Y-51038224D01*
X133675055Y-50965919D01*
X133381668Y-50364097D01*
X133369129Y-50309760D01*
X133369129Y-47677228D01*
X133384035Y-46434596D01*
X133397025Y-45351688D01*
X133398442Y-45334436D01*
X133452759Y-44979627D01*
X133466484Y-44938997D01*
X133565373Y-44757806D01*
X133567044Y-44754844D01*
X133657817Y-44599196D01*
X133664283Y-44590068D01*
X133666684Y-44579134D01*
X133728137Y-44383241D01*
X133733388Y-44371082D01*
X133733477Y-44357836D01*
X133817165Y-43609059D01*
X133817164Y-43609058D01*
X133999762Y-42021755D01*
X134001610Y-42010381D01*
X134234327Y-40905307D01*
X134321052Y-40493483D01*
X134324102Y-40481842D01*
X134781762Y-39027197D01*
X134786023Y-39015685D01*
X135382797Y-37620345D01*
X135388158Y-37609348D01*
X136064186Y-36380817D01*
X136070668Y-36370314D01*
X136396914Y-35896166D01*
X136872662Y-35204739D01*
X136879716Y-35195457D01*
X137868358Y-34014484D01*
X137874424Y-34007755D01*
X138711879Y-33144518D01*
X146200000Y-33144518D01*
X146200354Y-33151132D01*
X146206400Y-33207371D01*
X146256647Y-33342089D01*
X146342811Y-33457188D01*
X146457910Y-33543352D01*
X146592628Y-33593599D01*
X146648867Y-33599645D01*
X146655482Y-33600000D01*
X147300000Y-33600000D01*
X147300000Y-32685501D01*
X147407685Y-32734680D01*
X147514237Y-32750000D01*
X147585763Y-32750000D01*
X147692315Y-32734680D01*
X147800000Y-32685501D01*
X147800000Y-33600000D01*
X148444518Y-33600000D01*
X148451132Y-33599645D01*
X148507371Y-33593599D01*
X148642089Y-33543352D01*
X148757188Y-33457188D01*
X148843352Y-33342089D01*
X148892422Y-33210528D01*
X148934294Y-33154595D01*
X148999758Y-33130178D01*
X149068031Y-33145030D01*
X149096285Y-33166181D01*
X149218599Y-33288495D01*
X149412170Y-33424035D01*
X149626337Y-33523903D01*
X149854592Y-33585063D01*
X150090000Y-33605659D01*
X150325408Y-33585063D01*
X150553663Y-33523903D01*
X150767830Y-33424035D01*
X150961401Y-33288495D01*
X151128495Y-33121401D01*
X151258426Y-32935839D01*
X151313002Y-32892216D01*
X151382500Y-32885022D01*
X151444855Y-32916545D01*
X151461571Y-32935837D01*
X151591505Y-33121401D01*
X151758599Y-33288495D01*
X151952170Y-33424035D01*
X152166337Y-33523903D01*
X152394592Y-33585063D01*
X152630000Y-33605659D01*
X152865408Y-33585063D01*
X153093663Y-33523903D01*
X153307830Y-33424035D01*
X153501401Y-33288495D01*
X153668495Y-33121401D01*
X153804035Y-32927830D01*
X153903903Y-32713663D01*
X153965063Y-32485408D01*
X153985659Y-32250000D01*
X153965063Y-32014592D01*
X153903903Y-31786337D01*
X153804035Y-31572171D01*
X153668495Y-31378599D01*
X153501401Y-31211505D01*
X153307830Y-31075965D01*
X153093663Y-30976097D01*
X153021074Y-30956647D01*
X152865407Y-30914936D01*
X152629999Y-30894340D01*
X152394592Y-30914936D01*
X152166336Y-30976097D01*
X151952170Y-31075965D01*
X151758598Y-31211505D01*
X151591505Y-31378598D01*
X151461575Y-31564159D01*
X151406998Y-31607784D01*
X151337500Y-31614978D01*
X151275145Y-31583455D01*
X151258425Y-31564159D01*
X151128494Y-31378598D01*
X150961404Y-31211508D01*
X150961401Y-31211505D01*
X150767830Y-31075965D01*
X150553663Y-30976097D01*
X150481074Y-30956647D01*
X150325407Y-30914936D01*
X150090000Y-30894340D01*
X149854592Y-30914936D01*
X149626336Y-30976097D01*
X149412170Y-31075965D01*
X149218601Y-31211503D01*
X149096285Y-31333819D01*
X149034962Y-31367303D01*
X148965270Y-31362319D01*
X148909337Y-31320447D01*
X148892422Y-31289471D01*
X148843352Y-31157911D01*
X148757188Y-31042811D01*
X148642089Y-30956647D01*
X148507371Y-30906400D01*
X148451132Y-30900354D01*
X148444518Y-30900000D01*
X147800000Y-30900000D01*
X147800000Y-31814498D01*
X147692315Y-31765320D01*
X147585763Y-31750000D01*
X147514237Y-31750000D01*
X147407685Y-31765320D01*
X147300000Y-31814498D01*
X147300000Y-30900000D01*
X146655482Y-30900000D01*
X146648867Y-30900354D01*
X146592628Y-30906400D01*
X146457910Y-30956647D01*
X146342811Y-31042811D01*
X146256647Y-31157910D01*
X146206400Y-31292628D01*
X146200354Y-31348867D01*
X146200000Y-31355481D01*
X146200000Y-32000000D01*
X147116314Y-32000000D01*
X147090507Y-32040156D01*
X147050000Y-32178111D01*
X147050000Y-32321889D01*
X147090507Y-32459844D01*
X147116314Y-32500000D01*
X146200000Y-32500000D01*
X146200000Y-33144518D01*
X138711879Y-33144518D01*
X139110711Y-32733407D01*
X139114793Y-32729391D01*
X140107074Y-31798302D01*
X140111550Y-31794303D01*
X141007026Y-31032573D01*
X141013268Y-31027603D01*
X141843118Y-30409448D01*
X141851097Y-30403978D01*
X142646904Y-29903104D01*
X142657410Y-29897186D01*
X143414756Y-29518029D01*
X143424147Y-29513808D01*
X144324772Y-29153280D01*
X144332681Y-29150423D01*
X145220674Y-28863427D01*
X145231944Y-28860363D01*
X145942884Y-28702648D01*
X145971906Y-28699974D01*
X145979485Y-28698377D01*
X147226762Y-28648882D01*
X147229938Y-28648798D01*
X149586082Y-28618591D01*
X149588456Y-28618586D01*
X152256649Y-28638716D01*
G37*
G04 #@! TD.AperFunction*
M02*
