M48
; DRILL file {KiCad 7.0.2} date Sat May 27 23:51:13 2023
; FORMAT={-:-/ absolute / metric / decimal}
; #@! TF.CreationDate,2023-05-27T23:51:13-07:00
; #@! TF.GenerationSoftware,Kicad,Pcbnew,7.0.2
; #@! TF.FileFunction,Plated,1,2,PTH
FMAT,2
METRIC
; #@! TA.AperFunction,Plated,PTH,ViaDrill
T1C0.400
; #@! TA.AperFunction,Plated,PTH,ComponentDrill
T2C1.000
%
G90
G05
T1
X142.7Y-71.75
X143.3Y-80.55
X144.25Y-71.775
X144.35Y-80.55
X144.6Y-67.4
X145.8Y-69.95
X146.2Y-63.25
X146.2Y-71.75
X147.966Y-59.45
X148.3Y-73.65
X148.8Y-67.05
X150.9Y-74.8
X150.95Y-79.75
X151.7Y-61.85
X152.756Y-77.255
X152.8Y-84.35
X153.4Y-58.35
X158.0Y-72.0
X159.9Y-59.4
X159.9Y-60.95
X159.9Y-62.5
X159.9Y-64.1
T2
X143.72Y-132.65
X143.72Y-135.19
X146.26Y-132.65
X146.26Y-135.19
X147.55Y-32.25
X148.8Y-132.65
X148.8Y-135.19
X150.09Y-32.25
X152.63Y-32.25
T0
M30
