%TF.GenerationSoftware,KiCad,Pcbnew,7.0.2*%
%TF.CreationDate,2023-04-23T11:42:29-07:00*%
%TF.ProjectId,floob-dome-switches,666c6f6f-622d-4646-9f6d-652d73776974,rev?*%
%TF.SameCoordinates,Original*%
%TF.FileFunction,Profile,NP*%
%FSLAX46Y46*%
G04 Gerber Fmt 4.6, Leading zero omitted, Abs format (unit mm)*
G04 Created by KiCad (PCBNEW 7.0.2) date 2023-04-23 11:42:29*
%MOMM*%
%LPD*%
G01*
G04 APERTURE LIST*
%TA.AperFunction,Profile*%
%ADD10C,0.330729*%
%TD*%
%TA.AperFunction,Profile*%
%ADD11C,0.325000*%
%TD*%
%TA.AperFunction,Profile*%
%ADD12C,0.100000*%
%TD*%
G04 APERTURE END LIST*
D10*
X188389330Y-90146178D02*
X188895395Y-89610814D01*
X179697436Y-36891874D02*
X179025964Y-36373869D01*
X87607249Y-56093260D02*
X87165865Y-57255859D01*
X118415645Y-33899756D02*
X118092575Y-34815769D01*
X156165492Y-31990274D02*
X155746907Y-31215759D01*
X145919608Y-22594938D02*
X145072415Y-22262508D01*
X93746433Y-47107684D02*
X92890285Y-47955411D01*
X146747380Y-22962030D02*
X145919608Y-22594938D01*
X128807669Y-22907548D02*
X127921832Y-23342941D01*
X153149476Y-122381398D02*
X153546312Y-122520110D01*
X160318937Y-123367029D02*
X160318937Y-123367029D01*
X87165865Y-57255859D02*
X86778308Y-58445399D01*
X162575028Y-34755456D02*
X161872170Y-35107203D01*
X157904739Y-37017459D02*
X157711711Y-36139033D01*
X181243690Y-100036590D02*
X181133208Y-99480631D01*
X164599348Y-122961828D02*
X165626811Y-122739128D01*
X101845875Y-42010136D02*
X100726345Y-42468563D01*
X133573828Y-21363920D02*
X132579973Y-21584070D01*
X190276210Y-87866691D02*
X190688041Y-87242159D01*
X193410398Y-78420520D02*
X193428201Y-77600733D01*
X92355945Y-99007278D02*
X92088771Y-100093960D01*
X91212674Y-82232490D02*
X92293188Y-83518439D01*
X161186302Y-35492798D02*
X160518709Y-35911709D01*
X138680788Y-20984756D02*
X137713589Y-20963363D01*
X191884694Y-70211821D02*
X191354141Y-69115043D01*
X164772719Y-33908601D02*
X164026586Y-34155625D01*
X154808255Y-29729464D02*
X154290152Y-29019560D01*
X150560543Y-25284592D02*
X149844611Y-24758257D01*
X114302094Y-126089358D02*
X114860917Y-126069347D01*
D11*
X102266862Y-122979395D02*
X103193967Y-123497657D01*
D10*
X92053531Y-108911467D02*
X92300945Y-109952534D01*
D11*
X93344523Y-112950772D02*
X92947838Y-111973541D01*
D10*
X118725751Y-125546461D02*
X119268163Y-125417672D01*
X186039298Y-47134021D02*
X185808394Y-46252828D01*
X175334440Y-117525941D02*
X176037377Y-116833397D01*
X180123881Y-96234702D02*
X179898784Y-95712256D01*
X186230640Y-48032381D02*
X186039298Y-47134021D01*
X85797323Y-63440783D02*
X85702130Y-64740890D01*
X161411960Y-123341077D02*
X162490591Y-123264057D01*
X154490662Y-122769040D02*
X155023506Y-122878669D01*
X112061956Y-40516590D02*
X111193259Y-40470755D01*
X117168693Y-40678130D02*
X117168693Y-40678130D01*
X151915482Y-26423435D02*
X151251161Y-25839964D01*
X149844611Y-24758257D02*
X149104346Y-24261896D01*
X190754260Y-68066222D02*
X190088337Y-67068909D01*
D11*
X96004485Y-117450070D02*
X95386943Y-116606303D01*
D10*
X97966575Y-89472743D02*
X97179734Y-90284817D01*
X117195433Y-39663660D02*
X117168693Y-40678130D01*
X181573552Y-94234490D02*
X182273233Y-94014927D01*
X86446127Y-59660270D02*
X86170870Y-60898864D01*
X186490319Y-49875921D02*
X186381340Y-48946737D01*
X186157286Y-92034765D02*
X186744876Y-91602259D01*
X117815662Y-35751289D02*
X117586199Y-36705077D01*
X161872170Y-35107203D02*
X161186302Y-35492798D01*
X193428201Y-77600733D02*
X193428201Y-77600733D01*
X121403530Y-124769282D02*
X121927550Y-124574124D01*
D11*
X98860506Y-120504070D02*
X99663992Y-121180536D01*
D10*
X116346209Y-41215759D02*
X115500102Y-41013671D01*
X184510730Y-42923129D02*
X184098199Y-42145322D01*
X160318937Y-123367029D02*
X161411960Y-123341077D01*
X153995818Y-122649422D02*
X154490662Y-122769040D01*
X94687476Y-85853605D02*
X95992976Y-86894220D01*
X180883539Y-108409802D02*
X181120538Y-107445219D01*
X110373080Y-125847527D02*
X111480393Y-125984414D01*
X155746907Y-31215759D02*
X155294167Y-30461843D01*
D11*
X96662009Y-118263083D02*
X96004485Y-117450070D01*
D10*
X92300945Y-109952534D02*
X92599513Y-110973677D01*
X114860917Y-126069347D02*
X115418565Y-126035565D01*
X171203651Y-33296296D02*
X170334402Y-33224526D01*
X169526149Y-121400354D02*
X170441697Y-120959938D01*
X184889840Y-62365577D02*
X183853587Y-61828256D01*
X95992976Y-86894220D02*
X97365197Y-87844452D01*
X153161304Y-27670924D02*
X152552524Y-27034067D01*
X159774144Y-123360606D02*
X160318937Y-123367029D01*
X191354141Y-69115043D02*
X190754260Y-68066222D01*
X186487221Y-53754099D02*
X186539936Y-53096442D01*
X157206493Y-34428043D02*
X156896267Y-33597354D01*
X142424134Y-21482560D02*
X141509080Y-21298149D01*
X93058424Y-96889317D02*
X92679489Y-97938344D01*
X158056735Y-37909922D02*
X158056735Y-37909922D01*
X189379093Y-89051875D02*
X189839629Y-88470215D01*
X98800000Y-88700000D02*
X97966575Y-89472743D01*
D11*
X122447142Y-124365841D02*
X122668723Y-124031797D01*
D10*
X186539936Y-53096442D02*
X186570511Y-52436259D01*
X162490591Y-123264057D02*
X163553498Y-123137222D01*
X147554748Y-23362844D02*
X146747380Y-22962030D01*
X85702130Y-64740890D02*
X85670054Y-66058284D01*
X119648878Y-31281149D02*
X119195089Y-32131207D01*
X92074028Y-48844561D02*
X91299211Y-49773523D01*
X185551299Y-92439417D02*
X186157286Y-92034765D01*
X120875330Y-124951266D02*
X121403530Y-124769282D01*
X193428201Y-77600733D02*
X193382589Y-76290784D01*
X117586199Y-36705077D02*
X117405479Y-37675894D01*
X151251161Y-25839964D02*
X150560543Y-25284592D01*
X93491772Y-95862355D02*
X93058424Y-96889317D01*
X181006074Y-98928311D02*
X180862383Y-98380014D01*
X180136477Y-94571232D02*
X180861035Y-94420210D01*
X185539005Y-45389973D02*
X185232213Y-44546625D01*
X186412510Y-54408690D02*
X186487221Y-53754099D01*
X185714147Y-57616781D02*
X185896640Y-56985611D01*
X189359656Y-66126656D02*
X188571501Y-65243014D01*
X172903318Y-33577916D02*
X172060316Y-33414483D01*
X183652580Y-41391701D02*
X183174953Y-40663438D01*
X86170870Y-60898864D02*
X85954086Y-62159571D01*
X99634317Y-42981285D02*
X98571341Y-43546691D01*
X91632175Y-105682245D02*
X91717749Y-106774968D01*
X191767090Y-85251065D02*
X192071979Y-84551053D01*
X148340731Y-23796446D02*
X147554748Y-23362844D01*
X176117112Y-34660718D02*
X175339554Y-34327997D01*
X156776702Y-123144661D02*
X157388205Y-123211376D01*
D11*
X94277391Y-114831923D02*
X93788173Y-113904017D01*
D10*
X93978554Y-94859617D02*
X93491772Y-95862355D01*
X88100911Y-54959210D02*
X87607249Y-56093260D01*
X184927712Y-92815359D02*
X185551299Y-92439417D01*
X186570511Y-52436259D02*
X186578798Y-51774090D01*
X155023506Y-122878669D02*
X155587018Y-122978012D01*
X181337428Y-100595808D02*
X181243690Y-100036590D01*
X121251006Y-28882710D02*
X120678129Y-29655662D01*
X155294167Y-30461843D02*
X154808255Y-29729464D01*
D11*
X103193967Y-123497657D02*
X104148486Y-123972984D01*
D10*
X179883772Y-111187775D02*
X180263825Y-110282334D01*
X185510537Y-58241648D02*
X185714147Y-57616781D01*
X166299279Y-33522987D02*
X165530711Y-33697545D01*
X106568061Y-40751550D02*
X105354002Y-40976710D01*
X108212767Y-125417878D02*
X109283406Y-125658230D01*
X186578798Y-51774090D02*
X186556498Y-50818762D01*
X104161253Y-41262600D02*
X102991361Y-41607612D01*
X183853587Y-61828256D02*
X184180834Y-61252543D01*
X182127988Y-39287662D02*
X181560809Y-38642490D01*
X92679489Y-97938344D02*
X92355945Y-99007278D01*
X184098199Y-42145322D02*
X183652580Y-41391701D01*
X88487303Y-77952810D02*
X89305595Y-79445374D01*
X184487840Y-60667288D02*
X184774460Y-60073031D01*
X179898784Y-95712256D02*
X179657684Y-95196128D01*
X180525694Y-97297018D02*
X180332881Y-96763084D01*
X89880088Y-51744450D02*
X89238879Y-52783196D01*
X118783581Y-33004489D02*
X118415645Y-33899756D01*
X181517259Y-102289179D02*
X181474305Y-101722484D01*
D11*
X95386943Y-116606303D02*
X94810779Y-115733136D01*
D10*
X185896640Y-56985611D02*
X186057869Y-56348677D01*
X163293595Y-34438087D02*
X162575028Y-34755456D01*
X91717749Y-106774968D02*
X91858667Y-107851827D01*
X178331117Y-35890581D02*
X177613972Y-35443180D01*
X135613424Y-21065154D02*
X134585409Y-21190535D01*
X163553498Y-123137222D02*
X164599348Y-122961828D01*
X119807397Y-125275511D02*
X120343203Y-125120025D01*
X179400672Y-94686700D02*
X179400672Y-94686700D01*
X91299211Y-49773523D02*
X90567381Y-50740689D01*
X91878945Y-101196233D02*
X91727446Y-102311937D01*
D11*
X99663992Y-121180536D02*
X100500478Y-121819481D01*
D10*
X145072415Y-22262508D02*
X144206784Y-21965677D01*
X180597525Y-109355925D02*
X180883539Y-108409802D01*
X186057869Y-56348677D02*
X186197688Y-55706519D01*
X153740841Y-28333067D02*
X153161304Y-27670924D01*
X85913825Y-69672017D02*
X86212332Y-71422899D01*
D11*
X98091416Y-119791437D02*
X97358118Y-119043990D01*
D10*
X177926664Y-114574771D02*
X178478812Y-113765746D01*
X98800000Y-88700000D02*
X98800000Y-88700000D01*
X115500102Y-41013671D02*
X114647770Y-40842587D01*
X180861035Y-94420210D02*
X181573552Y-94234490D01*
X91727446Y-102311937D02*
X91635251Y-103438916D01*
X106134178Y-124789421D02*
X107162559Y-125127824D01*
X193149715Y-80817144D02*
X193270361Y-80029582D01*
D11*
X152669027Y-122156355D02*
X152302064Y-121620785D01*
D10*
X136656582Y-20989017D02*
X135613424Y-21065154D01*
X98571341Y-43546691D02*
X97538965Y-44163173D01*
X179400672Y-94686700D02*
X180136477Y-94571232D01*
X180344454Y-37443425D02*
X179697436Y-36891874D01*
X97538965Y-44163173D02*
X96538738Y-44829123D01*
X192348146Y-83834310D02*
X192594797Y-83101693D01*
X177613972Y-35443180D02*
X176875611Y-35032835D01*
X152302064Y-145644947D02*
X152302064Y-121620785D01*
X111193259Y-40470755D02*
X110322608Y-40456541D01*
X116529333Y-125926885D02*
X117081953Y-125852088D01*
X137713589Y-20963363D02*
X136656582Y-20989017D01*
X122506802Y-27422587D02*
X121860994Y-28137939D01*
X174597134Y-118186229D02*
X175334440Y-117525941D01*
X173826793Y-118813007D02*
X174597134Y-118186229D01*
X159201340Y-123341534D02*
X159774144Y-123360606D01*
X109053912Y-40489856D02*
X107801880Y-40588729D01*
X117081953Y-125852088D02*
X117632396Y-125763718D01*
X94517792Y-93883261D02*
X93978554Y-94859617D01*
X187727158Y-64421534D02*
X186829910Y-63665767D01*
X121860994Y-28137939D02*
X121251006Y-28882710D01*
X172192327Y-119961018D02*
X173024747Y-119405022D01*
X115974787Y-125988061D02*
X116529333Y-125926885D01*
X185883042Y-62979265D02*
X184889840Y-62365577D01*
X117168693Y-40678130D02*
X117168951Y-40871089D01*
X186578798Y-51774090D02*
X186578798Y-51774090D01*
X181133208Y-99480631D02*
X181006074Y-98928311D01*
X85954086Y-62159571D02*
X85797323Y-63440783D01*
X189839629Y-88470215D02*
X190276210Y-87866691D01*
X89305595Y-79445374D02*
X90215431Y-80873368D01*
X178478812Y-113765746D02*
X178989934Y-112930735D01*
X184287317Y-93161737D02*
X184927712Y-92815359D01*
X181474305Y-101722484D02*
X181414331Y-101157900D01*
X141509080Y-21298149D02*
X140579516Y-21153086D01*
X180263825Y-110282334D02*
X180597525Y-109355925D01*
X166634554Y-122470376D02*
X167621245Y-122156828D01*
X122668723Y-124031797D02*
X122668723Y-145836769D01*
X117185234Y-41448727D02*
X117185234Y-41448727D01*
X97365197Y-87844452D02*
X98800000Y-88700000D01*
X130650614Y-22159712D02*
X129717693Y-22512726D01*
X157478635Y-35275582D02*
X157206493Y-34428043D01*
X188571501Y-65243014D02*
X187727158Y-64421534D01*
X137713589Y-20963363D02*
X137713589Y-20963363D01*
X127061476Y-23817666D02*
X126227893Y-24330483D01*
X183853587Y-61828256D02*
X183853587Y-61828256D01*
X185285954Y-58859672D02*
X185510537Y-58241648D01*
X165530711Y-33697545D02*
X164772719Y-33908601D01*
X85731687Y-67882378D02*
X85913825Y-69672017D01*
X184889095Y-43723953D02*
X184510730Y-42923129D01*
X144206784Y-21965677D02*
X143323696Y-21705382D01*
D11*
X94810779Y-115733136D02*
X94277391Y-114831923D01*
D10*
X182959283Y-93762377D02*
X183630909Y-93477695D01*
X95749722Y-92018326D02*
X95108508Y-92935444D01*
X91635251Y-103438916D02*
X91603340Y-104575010D01*
X95108508Y-92935444D02*
X94517792Y-93883261D01*
X167621245Y-122156828D02*
X168585554Y-121799735D01*
X192724680Y-72535045D02*
X192342635Y-71353006D01*
X120143656Y-30455554D02*
X119648878Y-31281149D01*
X117170760Y-41063429D02*
X117175671Y-41255769D01*
X178989934Y-112930735D02*
X179458698Y-112070993D01*
X123900704Y-26085098D02*
X123187136Y-26737894D01*
X184180834Y-61252543D02*
X184487840Y-60667288D01*
X102991361Y-41607612D02*
X101845875Y-42010136D01*
X164026586Y-34155625D02*
X163293595Y-34438087D01*
X153546312Y-122520110D02*
X153995818Y-122649422D01*
X87141904Y-74791182D02*
X87764694Y-76399979D01*
X113790065Y-40702629D02*
X112927842Y-40593923D01*
X117179774Y-41352132D02*
X117185234Y-41448727D01*
X185232213Y-44546625D02*
X184889095Y-43723953D01*
X179458698Y-112070993D02*
X179883772Y-111187775D01*
X186829910Y-63665767D02*
X185883042Y-62979265D01*
X105354002Y-40976710D02*
X104161253Y-41262600D01*
D11*
X104148486Y-123972984D02*
X105129022Y-124404024D01*
D10*
X186197688Y-55706519D02*
X186315950Y-55059677D01*
X91603340Y-104575010D02*
X91603340Y-104575010D01*
X185808394Y-46252828D02*
X185539005Y-45389973D01*
X174544016Y-34035843D02*
X173731578Y-33785426D01*
X89238879Y-52783196D02*
X88645304Y-53855320D01*
X120343203Y-125120025D02*
X120875330Y-124951266D01*
X179025964Y-36373869D02*
X178331117Y-35890581D01*
X156548939Y-32784452D02*
X156165492Y-31990274D01*
X186381340Y-48946737D02*
X186230640Y-48032381D01*
X168585554Y-121799735D02*
X169526149Y-121400354D01*
X86778308Y-58445399D02*
X86446127Y-59660270D01*
X181414331Y-101157900D02*
X181337428Y-100595808D01*
X159243476Y-36847363D02*
X158638403Y-37363044D01*
X168655608Y-33223605D02*
X167863010Y-33285487D01*
X110322608Y-40456541D02*
X110322608Y-40456541D01*
X95572208Y-45542931D02*
X94640924Y-46302987D01*
X86623071Y-73130721D02*
X87141904Y-74791182D01*
X173024747Y-119405022D02*
X173826793Y-118813007D01*
X176875611Y-35032835D02*
X176117112Y-34660718D01*
X92088771Y-100093960D02*
X91878945Y-101196233D01*
X117632396Y-125763718D02*
X118180412Y-125661826D01*
X157711711Y-36139033D02*
X157478635Y-35275582D01*
X184774460Y-60073031D02*
X185040547Y-59470313D01*
X125422375Y-24880153D02*
X124646215Y-25465438D01*
X90215431Y-80873368D02*
X91212674Y-82232490D01*
X157388205Y-123211376D02*
X158001036Y-123266623D01*
X117185234Y-41448727D02*
X116346209Y-41215759D01*
X114647770Y-40842587D02*
X113790065Y-40702629D01*
D11*
X101368567Y-122419552D02*
X102266862Y-122979395D01*
D10*
X97179734Y-90284817D02*
X96440457Y-91134064D01*
X192342635Y-71353006D02*
X191884694Y-70211821D01*
X192071979Y-84551053D02*
X192348146Y-83834310D01*
X179657684Y-95196128D02*
X179400672Y-94686700D01*
X181551732Y-103427368D02*
X181551732Y-103427368D01*
X158638403Y-37363044D02*
X158056735Y-37909922D01*
X192811138Y-82354055D02*
X192996376Y-81592254D01*
X152552524Y-27034067D02*
X151915482Y-26423435D01*
X181543098Y-102857601D02*
X181517259Y-102289179D01*
X100726345Y-42468563D02*
X99634317Y-42981285D01*
X115418565Y-126035565D02*
X115974787Y-125988061D01*
X182666395Y-39961701D02*
X182127988Y-39287662D01*
X190088337Y-67068909D02*
X189359656Y-66126656D01*
X112927842Y-40593923D02*
X112061956Y-40516590D01*
X193270361Y-80029582D02*
X193357520Y-79230422D01*
X180965938Y-38027354D02*
X180344454Y-37443425D01*
X175339554Y-34327997D02*
X174544016Y-34035843D01*
X187861693Y-90657110D02*
X188389330Y-90146178D01*
D11*
X113742346Y-126095549D02*
X114302094Y-126089358D01*
D10*
X193357520Y-79230422D02*
X193410398Y-78420520D01*
X131605138Y-21849748D02*
X130650614Y-22159712D01*
X117274793Y-38662502D02*
X117195433Y-39663660D01*
X183174953Y-40663438D02*
X182666395Y-39961701D01*
X91603340Y-104575010D02*
X91632175Y-105682245D01*
X110322608Y-40456541D02*
X109053912Y-40489856D01*
X158056735Y-37909922D02*
X157904739Y-37017459D01*
X126227893Y-24330483D02*
X125422375Y-24880153D01*
X107801880Y-40588729D02*
X106568061Y-40751550D01*
D11*
X93788173Y-113904017D02*
X93344523Y-112950772D01*
D10*
X85670054Y-66058284D02*
X85670054Y-66058284D01*
X158001036Y-123266623D02*
X158607859Y-123310107D01*
X134585409Y-21190535D02*
X133573828Y-21363920D01*
D11*
X98091416Y-119791437D02*
X98860506Y-120504070D01*
D10*
X140579516Y-21153086D02*
X139636425Y-21048309D01*
X129717693Y-22512726D02*
X128807669Y-22907548D01*
X193027543Y-73754389D02*
X192724680Y-72535045D01*
X167077140Y-33385458D02*
X166299279Y-33522987D01*
X190688041Y-87242159D02*
X191074327Y-86597473D01*
X186744876Y-91602259D02*
X187313277Y-91142756D01*
X127921832Y-23342941D02*
X127061476Y-23817666D01*
X192996376Y-81592254D02*
X193149715Y-80817144D01*
X193247941Y-75007486D02*
X193027543Y-73754389D01*
X111480393Y-125984414D02*
X112603947Y-126067539D01*
X105129022Y-124404024D02*
X106134178Y-124789421D01*
X181307188Y-106463429D02*
X181442158Y-105465688D01*
X91858667Y-107851827D02*
X92053531Y-108911467D01*
X154290152Y-29019560D02*
X153740841Y-28333067D01*
X180862383Y-98380014D02*
X180702225Y-97836122D01*
X165626811Y-122739128D02*
X166634554Y-122470376D01*
X85670054Y-66058284D02*
X85731687Y-67882378D01*
X185040547Y-59470313D02*
X185285954Y-58859672D01*
X96440457Y-91134064D02*
X95749722Y-92018326D01*
X180332881Y-96763084D02*
X180123881Y-96234702D01*
X93452835Y-84726911D02*
X94687476Y-85853605D01*
X124646215Y-25465438D02*
X123900704Y-26085098D01*
X173731578Y-33785426D02*
X172903318Y-33577916D01*
X191434275Y-85933490D02*
X191767090Y-85251065D01*
X121927550Y-124574124D02*
X122447142Y-124365841D01*
X176704615Y-116109851D02*
X177334821Y-115356558D01*
X192594797Y-83101693D02*
X192811138Y-82354055D01*
X181524117Y-104453250D02*
X181551732Y-103427368D01*
X176037377Y-116833397D02*
X176704615Y-116109851D01*
X152669027Y-122156355D02*
X152812647Y-122233584D01*
X171330867Y-120479741D02*
X172192327Y-119961018D01*
X90567381Y-50740689D02*
X89880088Y-51744450D01*
X182273233Y-94014927D02*
X182959283Y-93762377D01*
X132579973Y-21584070D02*
X131605138Y-21849748D01*
X120678129Y-29655662D02*
X120143656Y-30455554D01*
D11*
X100500478Y-121819481D02*
X101368567Y-122419552D01*
D10*
X183630909Y-93477695D02*
X184287317Y-93161737D01*
X117405479Y-37675894D02*
X117274793Y-38662502D01*
X193382589Y-76290784D02*
X193247941Y-75007486D01*
X118180412Y-125661826D02*
X118725751Y-125546461D01*
X181442158Y-105465688D02*
X181524117Y-104453250D01*
X123187136Y-26737894D02*
X122506802Y-27422587D01*
X143323696Y-21705382D02*
X142424134Y-21482560D01*
X172060316Y-33414483D02*
X171203651Y-33296296D01*
X155587018Y-122978012D02*
X156173861Y-123066775D01*
X139636425Y-21048309D02*
X138680788Y-20984756D01*
X167863010Y-33285487D02*
X167077140Y-33385458D01*
D11*
X112603947Y-126067539D02*
X113742346Y-126095549D01*
D10*
X119268163Y-125417672D02*
X119807397Y-125275511D01*
X117175671Y-41255769D02*
X117179774Y-41352132D01*
X158607859Y-123310107D02*
X159201340Y-123341534D01*
X88645304Y-53855320D02*
X88100911Y-54959210D01*
X117168951Y-40871089D02*
X117170760Y-41063429D01*
X191074327Y-86597473D02*
X191434275Y-85933490D01*
X92293188Y-83518439D02*
X93452835Y-84726911D01*
X87764694Y-76399979D02*
X88487303Y-77952810D01*
X96538738Y-44829123D02*
X95572208Y-45542931D01*
X181551732Y-103427368D02*
X181543098Y-102857601D01*
D11*
X92947838Y-111973541D02*
X92599513Y-110973677D01*
D10*
X177334821Y-115356558D02*
X177926664Y-114574771D01*
X152812647Y-122233584D02*
X153149476Y-122381398D01*
X156896267Y-33597354D02*
X156548939Y-32784452D01*
X160518709Y-35911709D02*
X159870672Y-36363408D01*
X170334402Y-33224526D02*
X169453649Y-33200342D01*
X86212332Y-71422899D02*
X86623071Y-73130721D01*
X92890285Y-47955411D02*
X92074028Y-48844561D01*
X156173861Y-123066775D02*
X156776702Y-123144661D01*
X149104346Y-24261896D02*
X148340731Y-23796446D01*
X187313277Y-91142756D02*
X187861693Y-90657110D01*
X181560809Y-38642490D02*
X180965938Y-38027354D01*
X188895395Y-89610814D02*
X189379093Y-89051875D01*
X169453649Y-33200342D02*
X169453649Y-33200342D01*
X180702225Y-97836122D02*
X180525694Y-97297018D01*
D11*
X97358118Y-119043990D02*
X96662009Y-118263083D01*
D10*
X159870672Y-36363408D02*
X159243476Y-36847363D01*
X186315950Y-55059677D02*
X186412510Y-54408690D01*
X186556498Y-50818762D02*
X186490319Y-49875921D01*
X170441697Y-120959938D02*
X171330867Y-120479741D01*
X118092575Y-34815769D02*
X117815662Y-35751289D01*
X94640924Y-46302987D02*
X93746433Y-47107684D01*
X119195089Y-32131207D02*
X118783581Y-33004489D01*
X109283406Y-125658230D02*
X110373080Y-125847527D01*
X181120538Y-107445219D02*
X181307188Y-106463429D01*
X107162559Y-125127824D02*
X108212767Y-125417878D01*
D12*
X152302064Y-145644947D02*
X122668723Y-145836769D01*
D10*
X169453649Y-33200342D02*
X168655608Y-33223605D01*
M02*
