<?xml version="1.0" standalone="no"?>
<!DOCTYPE svg PUBLIC "-//W3C//DTD SVG 20010904//EN"
 "http://www.w3.org/TR/2001/REC-SVG-20010904/DTD/svg10.dtd">
<svg version="1.0" xmlns="http://www.w3.org/2000/svg"
 width="1000.000000pt" height="1500.000000pt" viewBox="0 0 1000.000000 1500.000000"
 preserveAspectRatio="xMidYMid meet">
<metadata>
Created by potrace 1.15, written by Peter Selinger 2001-2017
</metadata>
<g transform="translate(0.000000,1500.000000) scale(0.100000,-0.100000)"
fill="#000000" stroke="none">
<path d="M4800 13660 c-89 -12 -273 -78 -369 -134 -119 -68 -238 -163 -395
-316 -206 -201 -321 -352 -416 -545 -100 -205 -158 -427 -175 -669 -5 -79 -11
-105 -28 -128 -21 -29 -22 -37 -22 -326 l0 -297 39 -80 c28 -59 44 -109 57
-188 19 -107 90 -344 136 -446 13 -30 20 -58 16 -62 -5 -4 -73 -42 -153 -85
-144 -76 -381 -210 -494 -278 -33 -20 -68 -36 -78 -36 -11 0 -40 -19 -66 -42
-26 -24 -55 -47 -64 -53 -29 -18 -230 -161 -318 -227 -112 -84 -450 -420 -481
-478 -24 -45 -24 -48 -24 -345 l0 -300 40 -71 c33 -59 109 -167 215 -306 11
-14 20 -32 20 -40 0 -8 16 -30 36 -49 61 -58 294 -340 294 -356 0 -3 81 -88
179 -188 l179 -181 4 -124 c4 -123 4 -126 45 -206 23 -45 51 -117 62 -161 35
-138 47 -156 218 -324 165 -164 193 -184 264 -195 33 -5 55 -17 87 -47 23 -23
42 -47 42 -55 0 -8 34 -50 76 -93 l77 -78 -12 -123 c-63 -668 -83 -1212 -80
-2163 3 -665 1 -734 -14 -780 -20 -58 -28 -64 -172 -125 -172 -73 -274 -130
-340 -192 -35 -32 -67 -58 -71 -58 -5 0 -68 -59 -139 -130 l-130 -130 -3 -296
c-3 -206 0 -304 8 -324 6 -15 80 -95 163 -178 114 -113 162 -153 192 -163 56
-18 686 -24 975 -10 219 11 465 33 584 51 l59 9 116 -112 c197 -190 232 -200
696 -195 361 5 377 8 540 91 69 35 105 66 258 216 148 146 183 186 210 240
l32 66 3 359 3 359 -34 36 c-18 20 -45 54 -60 76 -14 22 -60 74 -102 115 -65
65 -75 79 -75 110 0 20 -4 40 -10 46 -13 13 -79 473 -305 2119 -58 418 -112
812 -120 875 -9 63 -17 125 -19 137 -2 16 19 43 81 105 45 45 83 87 83 93 0 6
16 26 35 45 19 19 35 38 35 44 0 5 7 18 17 28 9 10 33 51 53 90 35 69 39 74
86 88 43 13 75 40 247 210 173 169 204 205 242 275 65 121 86 192 92 323 l6
112 47 40 c26 22 54 40 61 40 8 0 50 36 94 79 126 124 318 291 336 291 25 0
371 361 498 519 l51 64 0 258 c0 142 -4 260 -9 263 -5 3 -14 27 -20 52 -7 26
-29 72 -51 103 -69 100 -441 452 -515 486 -61 28 -306 184 -340 216 -17 16
-38 29 -47 29 -9 0 -61 26 -115 58 -54 32 -132 77 -174 100 -42 23 -82 49 -89
57 -10 12 7 35 102 137 62 67 159 170 216 228 56 59 102 114 102 124 0 9 20
58 45 109 51 107 93 248 129 432 54 281 58 336 54 769 -4 380 -5 405 -27 475
-49 163 -131 304 -255 438 -42 44 -76 85 -76 90 0 15 -255 263 -271 263 -8 0
-42 21 -75 46 -121 95 -320 199 -529 279 -55 21 -113 50 -130 66 -27 24 -40
28 -115 32 -47 3 -128 12 -180 21 -76 13 -167 16 -445 15 -192 -1 -375 -5
-405 -9z m820 -66 c52 -9 133 -18 180 -21 75 -4 88 -8 115 -32 17 -16 75 -45
130 -66 209 -80 408 -184 529 -279 33 -25 67 -46 75 -46 16 0 241 -218 241
-233 0 -5 34 -46 76 -90 124 -135 206 -275 255 -438 21 -70 23 -96 27 -445 4
-400 -1 -460 -54 -739 -36 -184 -78 -325 -129 -432 -25 -51 -45 -100 -45 -109
0 -10 -46 -65 -102 -124 -57 -58 -154 -160 -215 -227 -98 -105 -113 -126 -113
-155 0 -45 38 -80 155 -145 50 -28 125 -71 168 -97 43 -25 86 -46 95 -46 9 0
30 -13 47 -29 34 -32 279 -188 340 -216 48 -23 144 -106 318 -275 142 -137
200 -213 218 -284 6 -25 15 -49 20 -52 5 -3 9 -108 9 -233 l0 -228 -51 -64
c-121 -151 -443 -489 -466 -489 -17 0 -190 -148 -324 -277 -53 -51 -102 -93
-110 -93 -8 0 -41 -25 -75 -55 l-61 -54 -6 -113 c-6 -131 -26 -202 -92 -323
-38 -70 -69 -105 -227 -260 -157 -154 -190 -182 -230 -193 -55 -16 -82 -42
-115 -114 -13 -29 -35 -67 -49 -85 -13 -17 -24 -36 -24 -40 0 -5 -16 -24 -35
-43 -19 -19 -35 -39 -35 -45 0 -6 -39 -49 -86 -95 l-85 -85 6 -60 c3 -33 13
-107 21 -165 8 -58 61 -447 119 -865 225 -1642 292 -2106 305 -2119 6 -6 10
-26 10 -46 0 -31 10 -45 75 -110 42 -41 88 -93 102 -115 15 -22 42 -56 60 -76
l34 -36 -3 -329 -3 -329 -32 -66 c-27 -54 -61 -93 -195 -225 -138 -135 -175
-166 -243 -201 -159 -82 -183 -86 -510 -91 -430 -5 -471 7 -668 197 l-118 115
-97 -12 c-387 -48 -716 -65 -1152 -60 -225 3 -337 8 -365 17 -30 10 -75 48
-177 148 -75 75 -142 148 -148 164 -8 19 -11 109 -8 293 l3 266 115 115 c63
63 119 115 124 115 4 0 36 26 70 58 68 63 157 113 342 192 150 65 177 85 200
152 17 50 18 101 15 783 -3 879 10 1285 60 1910 11 138 23 292 26 343 l6 93
-77 78 c-42 43 -76 85 -76 93 0 7 -26 39 -57 70 -47 45 -66 57 -102 62 -70 11
-98 31 -249 180 -155 152 -168 173 -203 309 -11 44 -39 116 -62 161 -41 80
-41 83 -45 206 l-4 124 -179 181 c-98 100 -179 185 -179 189 0 14 -240 304
-294 355 -20 19 -36 41 -36 49 0 8 -9 26 -21 40 -86 112 -180 247 -214 306
l-40 71 0 270 c0 266 0 271 24 315 31 58 339 364 451 448 88 66 289 210 318
227 9 6 38 29 64 53 26 23 55 42 66 42 10 0 45 16 78 36 113 68 350 202 494
278 80 43 155 87 168 99 29 27 29 70 -2 138 -44 101 -116 339 -135 446 -14 77
-30 131 -57 188 l-39 80 0 267 c0 258 1 267 22 296 17 23 23 49 28 128 33 477
209 843 576 1199 143 139 265 236 380 301 96 56 280 122 369 134 30 4 199 8
375 9 251 1 341 -3 415 -15z"/>
</g>
</svg>
