<?xml version="1.0" standalone="no"?>
<!DOCTYPE svg PUBLIC "-//W3C//DTD SVG 20010904//EN"
 "http://www.w3.org/TR/2001/REC-SVG-20010904/DTD/svg10.dtd">
<svg version="1.0" xmlns="http://www.w3.org/2000/svg"
 width="560.000000pt" height="1161.000000pt" viewBox="0 0 560.000000 1161.000000"
 preserveAspectRatio="xMidYMid meet">
<metadata>
Created by potrace 1.15, written by Peter Selinger 2001-2017
</metadata>
<g transform="translate(0.000000,1161.000000) scale(0.100000,-0.100000)"
fill="#000000" stroke="none">
<path d="M2877 11459 c-455 -66 -853 -420 -1026 -912 -61 -174 -101 -379 -101
-517 0 -59 -4 -77 -25 -108 -37 -55 -34 -110 13 -208 26 -52 43 -106 51 -159
37 -244 186 -626 359 -927 34 -60 62 -110 62 -112 0 -2 -12 -7 -27 -11 -35 -8
-173 -77 -483 -240 -527 -276 -869 -485 -1158 -708 -213 -164 -272 -237 -272
-335 0 -63 25 -110 143 -272 259 -353 516 -659 780 -926 113 -115 118 -123 98
-133 -30 -16 -51 -63 -51 -114 0 -32 11 -64 40 -119 22 -41 51 -119 64 -172
29 -111 42 -139 87 -184 57 -58 104 -77 190 -77 55 0 83 5 103 18 34 22 41 18
55 -36 27 -107 116 -266 205 -365 27 -28 78 -75 116 -103 68 -50 68 -50 59
-87 -4 -20 -19 -143 -33 -272 -82 -766 -110 -1312 -106 -2085 6 -1181 8 -1071
-19 -1153 -13 -41 -41 -99 -61 -130 -69 -107 -143 -158 -380 -261 -224 -98
-319 -158 -380 -243 -65 -90 -26 -184 91 -219 43 -13 396 -12 604 1 171 11
442 41 592 65 50 8 98 12 106 9 32 -12 34 20 11 231 -68 623 -94 1090 -101
1790 -7 731 17 1374 71 1890 8 77 16 170 17 208 l2 67 109 0 c67 0 108 -4 108
-10 0 -6 20 -119 44 -253 185 -1013 275 -2069 264 -3079 l-4 -377 -48 -51
c-222 -237 -117 -624 196 -721 261 -81 655 92 718 315 8 28 11 77 8 126 -7
119 -52 203 -175 328 l-95 97 -29 205 c-51 356 -119 836 -155 1095 -88 637
-206 1492 -234 1705 -38 291 -88 646 -99 703 l-8 43 48 17 c103 37 239 168
316 305 48 85 81 184 95 281 11 80 11 81 37 74 46 -13 144 -7 198 11 144 48
287 224 339 417 19 73 23 220 6 261 -11 26 -8 29 106 120 347 276 696 581 856
749 140 148 151 163 131 182 -8 9 -15 29 -15 45 0 41 -65 137 -136 201 -99 89
-486 336 -834 533 -174 99 -626 326 -770 388 -41 18 -78 35 -83 39 -4 4 16 23
45 42 156 100 401 327 646 599 274 302 329 420 413 896 28 157 32 201 32 359
0 154 -3 191 -21 260 -74 269 -267 506 -562 688 -107 65 -303 157 -454 212
-270 97 -499 132 -689 104z m406 -68 c265 -61 604 -207 797 -344 114 -81 263
-228 323 -319 97 -147 144 -295 154 -478 7 -139 -6 -265 -53 -496 -78 -391
-128 -497 -359 -756 -156 -174 -405 -422 -505 -501 -47 -37 -123 -93 -168
-123 l-84 -56 -26 24 c-46 41 -60 50 -96 58 -51 11 -51 1 0 -35 57 -41 89 -84
103 -141 9 -34 16 -45 29 -42 13 3 17 13 16 41 -1 21 2 36 6 35 187 -78 650
-312 934 -472 171 -97 658 -400 726 -452 79 -60 157 -145 164 -181 5 -21 2
-42 -9 -63 -9 -17 -14 -37 -12 -43 17 -48 -734 -715 -1094 -972 l-133 -95 -31
58 c-28 50 -82 102 -106 102 -16 0 -10 -17 35 -96 57 -98 70 -155 63 -256 -5
-66 -4 -80 9 -85 9 -3 23 2 32 11 14 14 17 37 17 128 0 100 2 112 20 122 11 6
43 25 72 43 l52 32 7 -32 c11 -52 6 -144 -11 -205 -44 -151 -166 -317 -269
-366 -154 -73 -304 -21 -373 130 -58 126 -90 401 -59 507 31 106 85 150 578
468 57 37 209 135 338 219 129 84 309 200 400 258 180 114 269 180 270 200 0
17 -6 16 -75 -20 l-63 -31 -78 65 c-175 144 -392 297 -585 413 -192 115 -598
306 -841 396 -89 32 -236 65 -246 54 -4 -4 -2 -9 3 -12 34 -12 35 -18 24 -109
-16 -124 -4 -564 21 -779 32 -285 88 -549 186 -885 45 -154 45 -155 28 -190
-23 -47 -29 -174 -15 -308 20 -193 60 -300 144 -383 42 -43 47 -53 47 -92 0
-119 -79 -313 -175 -429 -58 -71 -233 -208 -265 -208 -16 0 -20 -6 -20 -33 0
-43 28 -270 95 -762 30 -220 88 -663 130 -985 90 -691 180 -1356 236 -1745
l41 -280 61 -55 c129 -115 187 -195 214 -297 18 -69 12 -118 -23 -190 -80
-165 -370 -291 -579 -252 -124 23 -240 113 -293 227 -23 49 -27 70 -27 152 0
85 3 102 31 160 17 36 57 94 89 128 l58 62 -6 623 c-6 650 -11 762 -53 1262
-44 525 -121 1086 -220 1605 -25 129 -47 245 -50 257 -6 20 -12 22 -138 25
-73 2 -161 1 -195 0 -52 -3 -61 -7 -61 -23 0 -15 8 -19 33 -20 55 -2 62 -4 60
-14 -15 -105 -54 -544 -73 -825 -5 -85 -12 -189 -15 -230 -14 -218 -26 -897
-21 -1190 12 -619 33 -985 92 -1593 15 -147 25 -270 22 -272 -7 -8 -192 -35
-374 -55 -407 -44 -836 -52 -902 -17 -73 40 -62 95 36 173 54 43 99 67 415
218 118 57 147 76 207 135 82 81 132 174 156 296 14 70 15 131 7 470 -19 887
-5 1471 52 2205 17 218 50 551 65 650 5 36 10 104 10 151 l0 86 -31 7 c-48 9
-213 182 -268 279 -110 196 -148 422 -130 772 39 743 151 1451 366 2307 26
103 44 190 41 194 -13 12 -26 -7 -44 -65 l-19 -59 -185 -89 c-430 -206 -981
-555 -1250 -793 l-65 -57 -27 20 c-15 11 -31 17 -35 13 -16 -16 39 -85 203
-254 295 -305 576 -543 886 -750 97 -65 106 -74 103 -99 -4 -30 -20 -271 -30
-438 -3 -55 -1 -163 6 -240 6 -77 11 -151 12 -163 2 -20 -7 -27 -48 -44 -94
-38 -195 -8 -251 74 -19 28 -40 80 -53 132 -12 48 -42 127 -67 176 -54 105
-57 150 -12 183 l28 21 84 -80 c70 -67 86 -87 101 -134 29 -94 88 -190 117
-190 16 0 7 25 -32 89 -58 97 -74 171 -66 309 3 61 4 112 1 112 -13 0 -37 -68
-42 -125 l-6 -64 -35 27 c-85 65 -529 551 -727 797 -123 153 -339 443 -381
512 -64 107 -41 175 107 299 327 276 752 534 1502 913 180 91 329 171 330 176
1 6 -7 11 -19 13 -37 5 -203 312 -293 542 -48 123 -135 400 -127 407 2 2 13
-12 24 -32 21 -35 36 -43 46 -26 3 5 -37 94 -89 198 -67 133 -95 199 -95 224
0 73 77 115 168 90 24 -6 83 -39 132 -73 55 -38 94 -59 104 -55 22 9 12 26
-42 70 -75 61 -181 108 -246 108 -30 1 -60 -2 -66 -6 -11 -7 -11 0 20 200 39
249 112 460 221 641 195 323 498 539 834 595 83 13 320 2 418 -20z m-1204
-3378 c-137 -496 -245 -1075 -299 -1593 -6 -58 -13 -117 -16 -133 l-6 -27 -96
67 c-205 142 -371 270 -527 406 -106 92 -413 395 -458 451 l-31 39 33 26 c253
197 621 449 841 576 144 83 557 294 577 295 7 0 2 -36 -18 -107z m1317 -27
c400 -151 720 -316 1074 -552 174 -116 386 -276 384 -289 -2 -15 -505 -346
-1188 -782 -62 -40 -134 -91 -159 -113 l-45 -40 -36 107 c-119 364 -182 712
-216 1183 -10 148 -3 550 10 550 4 0 84 -29 176 -64z"/>
<path d="M2592 10655 c-29 -13 -51 -40 -41 -49 2 -2 35 3 74 11 54 11 80 12
113 3 24 -6 47 -8 53 -5 15 10 10 34 -10 45 -28 15 -150 12 -189 -5z"/>
<path d="M2973 10543 c-27 -10 -11 -23 55 -42 37 -11 83 -32 102 -46 41 -30
60 -32 60 -6 0 48 -160 118 -217 94z"/>
<path d="M2685 10340 c-34 -13 -93 -87 -100 -123 -14 -74 39 -165 98 -168 100
-5 157 48 157 146 0 63 -26 113 -71 137 -37 20 -53 21 -84 8z m75 -80 c11 -11
20 -31 20 -45 0 -30 -32 -65 -60 -65 -32 0 -52 40 -40 80 15 53 46 64 80 30z"/>
<path d="M2998 10325 c-38 -21 -58 -65 -58 -125 0 -87 42 -140 111 -140 142 0
155 260 14 276 -25 3 -50 -1 -67 -11z m109 -70 c16 -34 16 -36 -7 -60 -42 -44
-80 -24 -80 42 0 62 60 74 87 18z"/>
<path d="M3826 9886 c-21 -8 -62 -30 -90 -50 -56 -38 -143 -123 -135 -131 3
-2 32 16 65 40 84 64 189 115 235 115 109 0 81 -166 -58 -347 -41 -54 -53 -77
-45 -85 38 -38 176 167 202 301 12 62 5 99 -24 136 -27 33 -92 42 -150 21z"/>
<path d="M1950 9694 c0 -3 14 -33 31 -65 79 -148 439 -422 603 -459 64 -14
206 -14 276 0 302 63 611 188 752 304 70 58 141 142 135 160 -8 25 -37 14 -68
-25 -42 -53 -160 -148 -243 -194 -152 -85 -511 -198 -673 -211 -152 -12 -265
29 -443 161 -142 105 -235 190 -295 269 -43 56 -75 81 -75 60z"/>
<path d="M2230 8766 c0 -44 96 -150 181 -198 81 -47 146 -63 254 -62 145 0
285 48 285 97 0 24 -14 22 -104 -17 -100 -44 -177 -53 -274 -32 -99 21 -162
57 -259 150 -52 49 -83 73 -83 62z"/>
</g>
</svg>
