M48
; DRILL file {KiCad (6.0.2)} date Thu Mar 16 16:07:38 2023
; FORMAT={-:-/ absolute / metric / decimal}
; #@! TF.CreationDate,2023-03-16T16:07:38-07:00
; #@! TF.GenerationSoftware,Kicad,Pcbnew,(6.0.2)
; #@! TF.FileFunction,Plated,1,2,PTH
FMAT,2
METRIC
; #@! TA.AperFunction,Plated,PTH,ViaDrill
T1C0.400
; #@! TA.AperFunction,Plated,PTH,ComponentDrill
T2C1.000
%
G90
G05
T1
X93.1Y-190.27
X94.948Y-209.172
X96.35Y-195.27
X98.85Y-171.77
X99.85Y-178.02
X99.948Y-212.422
X103.912Y-226.208
X109.6Y-163.02
X109.85Y-227.52
X110.85Y-157.27
X118.698Y-238.456
X124.6Y-153.02
X124.948Y-237.456
X127.85Y-148.02
X137.025Y-244.02
X137.575Y-134.385
X142.025Y-149.52
X142.025Y-240.77
X147.025Y-146.27
X156.1Y-242.02
X159.316Y-153.054
X159.6Y-237.27
X165.566Y-152.054
X173.064Y-233.234
X174.0Y-110.75
X174.0Y-113.25
X174.0Y-115.75
X174.0Y-118.25
X174.0Y-120.75
X174.0Y-123.25
X174.0Y-125.75
X174.0Y-128.25
X174.314Y-227.484
X174.342Y-162.778
X180.092Y-164.007
X184.243Y-212.546
X184.35Y-177.77
X185.243Y-218.796
X185.75Y-110.75
X185.75Y-113.25
X185.75Y-115.75
X185.75Y-118.25
X185.75Y-120.75
X185.75Y-123.25
X185.75Y-125.75
X185.832Y-128.168
X187.85Y-195.27
X189.35Y-181.27
X190.85Y-200.27
X192.5Y-128.75
X192.5Y-130.75
X193.825Y-133.25
X195.0Y-129.75
X195.25Y-133.75
X196.25Y-131.0
X196.75Y-135.5
X196.75Y-136.5
X197.75Y-135.5
X197.75Y-136.5
X199.0Y-132.75
X199.25Y-131.25
X200.25Y-114.5
X208.075Y-150.135
X209.75Y-117.0
X213.25Y-117.0
X278.075Y-179.385
X284.075Y-150.635
X284.075Y-169.135
X284.075Y-187.635
X284.325Y-132.385
X284.325Y-178.385
X284.325Y-205.635
X284.325Y-223.885
T2
X123.2Y-110.0
X125.74Y-110.0
X128.28Y-110.0
X130.82Y-110.0
X133.36Y-110.0
X135.9Y-110.0
X138.44Y-110.0
X140.98Y-110.0
X143.52Y-110.0
X146.06Y-110.0
X148.6Y-110.0
X151.14Y-110.0
X153.68Y-110.0
X156.22Y-110.0
X158.76Y-110.0
X161.3Y-110.0
X192.55Y-110.0
X195.09Y-110.0
X197.63Y-110.0
X200.17Y-110.0
X202.71Y-110.0
X205.25Y-110.0
X218.175Y-110.0
X220.715Y-110.0
X223.255Y-110.0
X225.795Y-110.0
X228.335Y-110.0
T0
M30
