G04 #@! TF.GenerationSoftware,KiCad,Pcbnew,(6.0.2)*
G04 #@! TF.CreationDate,2023-03-16T16:07:34-07:00*
G04 #@! TF.ProjectId,hall-censor-and-cap-touch-prototype,68616c6c-2d63-4656-9e73-6f722d616e64,rev?*
G04 #@! TF.SameCoordinates,Original*
G04 #@! TF.FileFunction,Copper,L1,Top*
G04 #@! TF.FilePolarity,Positive*
%FSLAX46Y46*%
G04 Gerber Fmt 4.6, Leading zero omitted, Abs format (unit mm)*
G04 Created by KiCad (PCBNEW (6.0.2)) date 2023-03-16 16:07:34*
%MOMM*%
%LPD*%
G01*
G04 APERTURE LIST*
G04 Aperture macros list*
%AMRoundRect*
0 Rectangle with rounded corners*
0 $1 Rounding radius*
0 $2 $3 $4 $5 $6 $7 $8 $9 X,Y pos of 4 corners*
0 Add a 4 corners polygon primitive as box body*
4,1,4,$2,$3,$4,$5,$6,$7,$8,$9,$2,$3,0*
0 Add four circle primitives for the rounded corners*
1,1,$1+$1,$2,$3*
1,1,$1+$1,$4,$5*
1,1,$1+$1,$6,$7*
1,1,$1+$1,$8,$9*
0 Add four rect primitives between the rounded corners*
20,1,$1+$1,$2,$3,$4,$5,0*
20,1,$1+$1,$4,$5,$6,$7,0*
20,1,$1+$1,$6,$7,$8,$9,0*
20,1,$1+$1,$8,$9,$2,$3,0*%
%AMRotRect*
0 Rectangle, with rotation*
0 The origin of the aperture is its center*
0 $1 length*
0 $2 width*
0 $3 Rotation angle, in degrees counterclockwise*
0 Add horizontal line*
21,1,$1,$2,0,0,$3*%
%AMFreePoly0*
4,1,22,0.500000,-0.750000,0.000000,-0.750000,0.000000,-0.745033,-0.079941,-0.743568,-0.215256,-0.701293,-0.333266,-0.622738,-0.424486,-0.514219,-0.481581,-0.384460,-0.499164,-0.250000,-0.500000,-0.250000,-0.500000,0.250000,-0.499164,0.250000,-0.499963,0.256109,-0.478152,0.396186,-0.417904,0.524511,-0.324060,0.630769,-0.204165,0.706417,-0.067858,0.745374,0.000000,0.744959,0.000000,0.750000,
0.500000,0.750000,0.500000,-0.750000,0.500000,-0.750000,$1*%
%AMFreePoly1*
4,1,20,0.000000,0.744959,0.073905,0.744508,0.209726,0.703889,0.328688,0.626782,0.421226,0.519385,0.479903,0.390333,0.500000,0.250000,0.500000,-0.250000,0.499851,-0.262216,0.476331,-0.402017,0.414519,-0.529596,0.319384,-0.634700,0.198574,-0.708877,0.061801,-0.746166,0.000000,-0.745033,0.000000,-0.750000,-0.500000,-0.750000,-0.500000,0.750000,0.000000,0.750000,0.000000,0.744959,
0.000000,0.744959,$1*%
G04 Aperture macros list end*
G04 #@! TA.AperFunction,ComponentPad*
%ADD10R,1.700000X1.700000*%
G04 #@! TD*
G04 #@! TA.AperFunction,ComponentPad*
%ADD11O,1.700000X1.700000*%
G04 #@! TD*
G04 #@! TA.AperFunction,SMDPad,CuDef*
%ADD12RoundRect,0.225000X0.017678X-0.335876X0.335876X-0.017678X-0.017678X0.335876X-0.335876X0.017678X0*%
G04 #@! TD*
G04 #@! TA.AperFunction,SMDPad,CuDef*
%ADD13RotRect,1.000000X1.000000X135.000000*%
G04 #@! TD*
G04 #@! TA.AperFunction,SMDPad,CuDef*
%ADD14RoundRect,0.225000X0.250000X-0.225000X0.250000X0.225000X-0.250000X0.225000X-0.250000X-0.225000X0*%
G04 #@! TD*
G04 #@! TA.AperFunction,SMDPad,CuDef*
%ADD15RotRect,1.000000X1.000000X157.500000*%
G04 #@! TD*
G04 #@! TA.AperFunction,SMDPad,CuDef*
%ADD16FreePoly0,180.000000*%
G04 #@! TD*
G04 #@! TA.AperFunction,SMDPad,CuDef*
%ADD17FreePoly1,180.000000*%
G04 #@! TD*
G04 #@! TA.AperFunction,SMDPad,CuDef*
%ADD18FreePoly0,0.000000*%
G04 #@! TD*
G04 #@! TA.AperFunction,SMDPad,CuDef*
%ADD19FreePoly1,0.000000*%
G04 #@! TD*
G04 #@! TA.AperFunction,SMDPad,CuDef*
%ADD20RoundRect,0.225000X0.225000X0.250000X-0.225000X0.250000X-0.225000X-0.250000X0.225000X-0.250000X0*%
G04 #@! TD*
G04 #@! TA.AperFunction,SMDPad,CuDef*
%ADD21RoundRect,0.225000X-0.303544X-0.144866X0.112202X-0.317074X0.303544X0.144866X-0.112202X0.317074X0*%
G04 #@! TD*
G04 #@! TA.AperFunction,SMDPad,CuDef*
%ADD22RoundRect,0.225000X0.144866X-0.303544X0.317074X0.112202X-0.144866X0.303544X-0.317074X-0.112202X0*%
G04 #@! TD*
G04 #@! TA.AperFunction,SMDPad,CuDef*
%ADD23RotRect,1.000000X1.000000X22.500000*%
G04 #@! TD*
G04 #@! TA.AperFunction,SMDPad,CuDef*
%ADD24R,1.000000X1.000000*%
G04 #@! TD*
G04 #@! TA.AperFunction,SMDPad,CuDef*
%ADD25RoundRect,0.225000X-0.250000X0.225000X-0.250000X-0.225000X0.250000X-0.225000X0.250000X0.225000X0*%
G04 #@! TD*
G04 #@! TA.AperFunction,SMDPad,CuDef*
%ADD26RoundRect,0.200000X0.200000X0.275000X-0.200000X0.275000X-0.200000X-0.275000X0.200000X-0.275000X0*%
G04 #@! TD*
G04 #@! TA.AperFunction,SMDPad,CuDef*
%ADD27RotRect,1.000000X1.000000X112.500000*%
G04 #@! TD*
G04 #@! TA.AperFunction,SMDPad,CuDef*
%ADD28RoundRect,0.225000X-0.335876X-0.017678X-0.017678X-0.335876X0.335876X0.017678X0.017678X0.335876X0*%
G04 #@! TD*
G04 #@! TA.AperFunction,SMDPad,CuDef*
%ADD29RoundRect,0.225000X-0.017678X0.335876X-0.335876X0.017678X0.017678X-0.335876X0.335876X-0.017678X0*%
G04 #@! TD*
G04 #@! TA.AperFunction,SMDPad,CuDef*
%ADD30RoundRect,0.225000X0.112202X0.317074X-0.303544X0.144866X-0.112202X-0.317074X0.303544X-0.144866X0*%
G04 #@! TD*
G04 #@! TA.AperFunction,SMDPad,CuDef*
%ADD31RoundRect,0.225000X-0.144866X0.303544X-0.317074X-0.112202X0.144866X-0.303544X0.317074X0.112202X0*%
G04 #@! TD*
G04 #@! TA.AperFunction,SMDPad,CuDef*
%ADD32RoundRect,0.200000X-0.200000X-0.275000X0.200000X-0.275000X0.200000X0.275000X-0.200000X0.275000X0*%
G04 #@! TD*
G04 #@! TA.AperFunction,SMDPad,CuDef*
%ADD33RotRect,1.000000X1.000000X247.500000*%
G04 #@! TD*
G04 #@! TA.AperFunction,SMDPad,CuDef*
%ADD34RotRect,1.000000X1.000000X45.000000*%
G04 #@! TD*
G04 #@! TA.AperFunction,SMDPad,CuDef*
%ADD35RoundRect,0.225000X0.317074X-0.112202X0.144866X0.303544X-0.317074X0.112202X-0.144866X-0.303544X0*%
G04 #@! TD*
G04 #@! TA.AperFunction,SMDPad,CuDef*
%ADD36R,0.790000X0.270000*%
G04 #@! TD*
G04 #@! TA.AperFunction,SMDPad,CuDef*
%ADD37R,0.270000X0.790000*%
G04 #@! TD*
G04 #@! TA.AperFunction,SMDPad,CuDef*
%ADD38R,2.700000X2.700000*%
G04 #@! TD*
G04 #@! TA.AperFunction,SMDPad,CuDef*
%ADD39RotRect,1.000000X1.000000X225.000000*%
G04 #@! TD*
G04 #@! TA.AperFunction,SMDPad,CuDef*
%ADD40RotRect,1.000000X1.000000X202.500000*%
G04 #@! TD*
G04 #@! TA.AperFunction,SMDPad,CuDef*
%ADD41RotRect,1.000000X1.000000X315.000000*%
G04 #@! TD*
G04 #@! TA.AperFunction,SMDPad,CuDef*
%ADD42RoundRect,0.225000X-0.225000X-0.250000X0.225000X-0.250000X0.225000X0.250000X-0.225000X0.250000X0*%
G04 #@! TD*
G04 #@! TA.AperFunction,SMDPad,CuDef*
%ADD43RotRect,1.000000X1.000000X337.500000*%
G04 #@! TD*
G04 #@! TA.AperFunction,SMDPad,CuDef*
%ADD44RoundRect,0.225000X0.335876X0.017678X0.017678X0.335876X-0.335876X-0.017678X-0.017678X-0.335876X0*%
G04 #@! TD*
G04 #@! TA.AperFunction,SMDPad,CuDef*
%ADD45RoundRect,0.225000X-0.112202X-0.317074X0.303544X-0.144866X0.112202X0.317074X-0.303544X0.144866X0*%
G04 #@! TD*
G04 #@! TA.AperFunction,SMDPad,CuDef*
%ADD46RotRect,1.000000X1.000000X292.500000*%
G04 #@! TD*
G04 #@! TA.AperFunction,SMDPad,CuDef*
%ADD47RoundRect,0.225000X0.303544X0.144866X-0.112202X0.317074X-0.303544X-0.144866X0.112202X-0.317074X0*%
G04 #@! TD*
G04 #@! TA.AperFunction,SMDPad,CuDef*
%ADD48RotRect,1.000000X1.000000X67.500000*%
G04 #@! TD*
G04 #@! TA.AperFunction,SMDPad,CuDef*
%ADD49R,1.550000X2.480000*%
G04 #@! TD*
G04 #@! TA.AperFunction,SMDPad,CuDef*
%ADD50R,0.650000X0.300000*%
G04 #@! TD*
G04 #@! TA.AperFunction,SMDPad,CuDef*
%ADD51RoundRect,0.225000X-0.317074X0.112202X-0.144866X-0.303544X0.317074X-0.112202X0.144866X0.303544X0*%
G04 #@! TD*
G04 #@! TA.AperFunction,ViaPad*
%ADD52C,0.800000*%
G04 #@! TD*
G04 #@! TA.AperFunction,Conductor*
%ADD53C,0.250000*%
G04 #@! TD*
G04 #@! TA.AperFunction,Conductor*
%ADD54C,0.500000*%
G04 #@! TD*
G04 APERTURE END LIST*
G36*
X176000000Y-126350000D02*
G01*
X175500000Y-126350000D01*
X175500000Y-125950000D01*
X176000000Y-125950000D01*
X176000000Y-126350000D01*
G37*
G36*
X176000000Y-125550000D02*
G01*
X175500000Y-125550000D01*
X175500000Y-125150000D01*
X176000000Y-125150000D01*
X176000000Y-125550000D01*
G37*
G36*
X176000000Y-113850000D02*
G01*
X175500000Y-113850000D01*
X175500000Y-113450000D01*
X176000000Y-113450000D01*
X176000000Y-113850000D01*
G37*
G36*
X176000000Y-113050000D02*
G01*
X175500000Y-113050000D01*
X175500000Y-112650000D01*
X176000000Y-112650000D01*
X176000000Y-113050000D01*
G37*
G36*
X187650000Y-110550000D02*
G01*
X187150000Y-110550000D01*
X187150000Y-110150000D01*
X187650000Y-110150000D01*
X187650000Y-110550000D01*
G37*
G36*
X187650000Y-111350000D02*
G01*
X187150000Y-111350000D01*
X187150000Y-110950000D01*
X187650000Y-110950000D01*
X187650000Y-111350000D01*
G37*
G36*
X176000000Y-111350000D02*
G01*
X175500000Y-111350000D01*
X175500000Y-110950000D01*
X176000000Y-110950000D01*
X176000000Y-111350000D01*
G37*
G36*
X176000000Y-110550000D02*
G01*
X175500000Y-110550000D01*
X175500000Y-110150000D01*
X176000000Y-110150000D01*
X176000000Y-110550000D01*
G37*
G36*
X176000000Y-123850000D02*
G01*
X175500000Y-123850000D01*
X175500000Y-123450000D01*
X176000000Y-123450000D01*
X176000000Y-123850000D01*
G37*
G36*
X176000000Y-123050000D02*
G01*
X175500000Y-123050000D01*
X175500000Y-122650000D01*
X176000000Y-122650000D01*
X176000000Y-123050000D01*
G37*
G36*
X176000000Y-116350000D02*
G01*
X175500000Y-116350000D01*
X175500000Y-115950000D01*
X176000000Y-115950000D01*
X176000000Y-116350000D01*
G37*
G36*
X176000000Y-115550000D02*
G01*
X175500000Y-115550000D01*
X175500000Y-115150000D01*
X176000000Y-115150000D01*
X176000000Y-115550000D01*
G37*
G36*
X187650000Y-125550000D02*
G01*
X187150000Y-125550000D01*
X187150000Y-125150000D01*
X187650000Y-125150000D01*
X187650000Y-125550000D01*
G37*
G36*
X187650000Y-126350000D02*
G01*
X187150000Y-126350000D01*
X187150000Y-125950000D01*
X187650000Y-125950000D01*
X187650000Y-126350000D01*
G37*
G36*
X187650000Y-120550000D02*
G01*
X187150000Y-120550000D01*
X187150000Y-120150000D01*
X187650000Y-120150000D01*
X187650000Y-120550000D01*
G37*
G36*
X187650000Y-121350000D02*
G01*
X187150000Y-121350000D01*
X187150000Y-120950000D01*
X187650000Y-120950000D01*
X187650000Y-121350000D01*
G37*
G36*
X187650000Y-113050000D02*
G01*
X187150000Y-113050000D01*
X187150000Y-112650000D01*
X187650000Y-112650000D01*
X187650000Y-113050000D01*
G37*
G36*
X187650000Y-113850000D02*
G01*
X187150000Y-113850000D01*
X187150000Y-113450000D01*
X187650000Y-113450000D01*
X187650000Y-113850000D01*
G37*
G36*
X176000000Y-118050000D02*
G01*
X175500000Y-118050000D01*
X175500000Y-117650000D01*
X176000000Y-117650000D01*
X176000000Y-118050000D01*
G37*
G36*
X176000000Y-118850000D02*
G01*
X175500000Y-118850000D01*
X175500000Y-118450000D01*
X176000000Y-118450000D01*
X176000000Y-118850000D01*
G37*
G36*
X176000000Y-128850000D02*
G01*
X175500000Y-128850000D01*
X175500000Y-128450000D01*
X176000000Y-128450000D01*
X176000000Y-128850000D01*
G37*
G36*
X176000000Y-128050000D02*
G01*
X175500000Y-128050000D01*
X175500000Y-127650000D01*
X176000000Y-127650000D01*
X176000000Y-128050000D01*
G37*
G36*
X176000000Y-121350000D02*
G01*
X175500000Y-121350000D01*
X175500000Y-120950000D01*
X176000000Y-120950000D01*
X176000000Y-121350000D01*
G37*
G36*
X176000000Y-120550000D02*
G01*
X175500000Y-120550000D01*
X175500000Y-120150000D01*
X176000000Y-120150000D01*
X176000000Y-120550000D01*
G37*
G36*
X187650000Y-128050000D02*
G01*
X187150000Y-128050000D01*
X187150000Y-127650000D01*
X187650000Y-127650000D01*
X187650000Y-128050000D01*
G37*
G36*
X187650000Y-128850000D02*
G01*
X187150000Y-128850000D01*
X187150000Y-128450000D01*
X187650000Y-128450000D01*
X187650000Y-128850000D01*
G37*
G36*
X187650000Y-115550000D02*
G01*
X187150000Y-115550000D01*
X187150000Y-115150000D01*
X187650000Y-115150000D01*
X187650000Y-115550000D01*
G37*
G36*
X187650000Y-116350000D02*
G01*
X187150000Y-116350000D01*
X187150000Y-115950000D01*
X187650000Y-115950000D01*
X187650000Y-116350000D01*
G37*
G36*
X187650000Y-118050000D02*
G01*
X187150000Y-118050000D01*
X187150000Y-117650000D01*
X187650000Y-117650000D01*
X187650000Y-118050000D01*
G37*
G36*
X187650000Y-118850000D02*
G01*
X187150000Y-118850000D01*
X187150000Y-118450000D01*
X187650000Y-118450000D01*
X187650000Y-118850000D01*
G37*
G36*
X187650000Y-123050000D02*
G01*
X187150000Y-123050000D01*
X187150000Y-122650000D01*
X187650000Y-122650000D01*
X187650000Y-123050000D01*
G37*
G36*
X187650000Y-123850000D02*
G01*
X187150000Y-123850000D01*
X187150000Y-123450000D01*
X187650000Y-123450000D01*
X187650000Y-123850000D01*
G37*
D10*
X161300000Y-110000000D03*
D11*
X158760000Y-110000000D03*
X156220000Y-110000000D03*
X153680000Y-110000000D03*
X151140000Y-110000000D03*
X148600000Y-110000000D03*
X146060000Y-110000000D03*
X143520000Y-110000000D03*
X140980000Y-110000000D03*
X138440000Y-110000000D03*
X135900000Y-110000000D03*
X133360000Y-110000000D03*
X130820000Y-110000000D03*
X128280000Y-110000000D03*
X125740000Y-110000000D03*
X123200000Y-110000000D03*
D12*
X173765544Y-232531560D03*
X174861560Y-231435544D03*
D13*
X177256676Y-161206827D03*
X175913173Y-159863324D03*
X175100000Y-162020000D03*
D14*
X190850000Y-199295000D03*
X190850000Y-197745000D03*
D15*
X161595510Y-150447469D03*
X159840139Y-149720370D03*
X159914189Y-152024067D03*
D16*
X212150000Y-114500000D03*
D17*
X210850000Y-114500000D03*
D18*
X175100000Y-125750000D03*
D19*
X176400000Y-125750000D03*
D20*
X195775000Y-132250000D03*
X194225000Y-132250000D03*
D21*
X119766168Y-238862786D03*
X121198182Y-239455946D03*
D22*
X185696896Y-217761958D03*
X186290056Y-216329944D03*
D18*
X175100000Y-113250000D03*
D19*
X176400000Y-113250000D03*
D23*
X159874132Y-240603623D03*
X161629503Y-239876524D03*
X159948182Y-238299926D03*
D20*
X197525000Y-129750000D03*
X195975000Y-129750000D03*
D16*
X188050000Y-110750000D03*
D17*
X186750000Y-110750000D03*
D24*
X142975000Y-146220000D03*
X141075000Y-146220000D03*
X142025000Y-148320000D03*
D18*
X175100000Y-110750000D03*
D19*
X176400000Y-110750000D03*
D25*
X93100000Y-191245000D03*
X93100000Y-192795000D03*
D24*
X190900000Y-196220000D03*
X190900000Y-194320000D03*
X188800000Y-195270000D03*
D26*
X223325000Y-150000000D03*
X221675000Y-150000000D03*
D18*
X175100000Y-123250000D03*
D19*
X176400000Y-123250000D03*
D18*
X175100000Y-115750000D03*
D19*
X176400000Y-115750000D03*
D27*
X187683623Y-177495868D03*
X186956524Y-175740497D03*
X185379926Y-177421818D03*
D28*
X104753984Y-226923984D03*
X105850000Y-228020000D03*
D29*
X110148008Y-157971992D03*
X109051992Y-159068008D03*
D30*
X126816007Y-148473420D03*
X125383993Y-149066580D03*
D31*
X98396580Y-172803993D03*
X97803420Y-174236007D03*
D32*
X220925000Y-151750000D03*
X222575000Y-151750000D03*
D33*
X97243476Y-175740497D03*
X96516377Y-177495868D03*
X98820074Y-177421818D03*
D34*
X175884263Y-230397766D03*
X177227766Y-229054263D03*
X175071090Y-228241090D03*
D24*
X93050000Y-194320000D03*
X93050000Y-196220000D03*
X95150000Y-195270000D03*
D16*
X188050000Y-125750000D03*
D17*
X186750000Y-125750000D03*
D16*
X212150000Y-117000000D03*
D17*
X210850000Y-117000000D03*
D16*
X188050000Y-120750000D03*
D17*
X186750000Y-120750000D03*
D35*
X188303420Y-178803993D03*
X188896580Y-180236007D03*
D16*
X188050000Y-113250000D03*
D17*
X186750000Y-113250000D03*
D10*
X205250000Y-110000000D03*
D11*
X202710000Y-110000000D03*
X200170000Y-110000000D03*
X197630000Y-110000000D03*
X195090000Y-110000000D03*
X192550000Y-110000000D03*
D36*
X195280000Y-134750000D03*
X195280000Y-135250000D03*
X195280000Y-135750000D03*
X195280000Y-136250000D03*
X195280000Y-136750000D03*
X195280000Y-137250000D03*
D37*
X196000000Y-137970000D03*
X196500000Y-137970000D03*
X197000000Y-137970000D03*
X197500000Y-137970000D03*
X198000000Y-137970000D03*
X198500000Y-137970000D03*
D36*
X199220000Y-137250000D03*
X199220000Y-136750000D03*
X199220000Y-136250000D03*
X199220000Y-135750000D03*
X199220000Y-135250000D03*
X199220000Y-134750000D03*
D37*
X198500000Y-134030000D03*
X198000000Y-134030000D03*
X197500000Y-134030000D03*
X197000000Y-134030000D03*
X196500000Y-134030000D03*
X196000000Y-134030000D03*
D38*
X197250000Y-136000000D03*
D39*
X108029289Y-160105786D03*
X106685786Y-161449289D03*
X108842462Y-162262462D03*
D40*
X124075868Y-149686377D03*
X122320497Y-150413476D03*
X124001818Y-151990074D03*
D18*
X175100000Y-118250000D03*
D19*
X176400000Y-118250000D03*
D18*
X175100000Y-128250000D03*
D19*
X176400000Y-128250000D03*
D24*
X141075000Y-244070000D03*
X142975000Y-244070000D03*
X142025000Y-241970000D03*
D10*
X218175000Y-110000000D03*
D11*
X220715000Y-110000000D03*
X223255000Y-110000000D03*
X225795000Y-110000000D03*
X228335000Y-110000000D03*
D41*
X106935786Y-229090711D03*
X108279289Y-230434214D03*
X109092462Y-228277538D03*
D18*
X175100000Y-120750000D03*
D19*
X176400000Y-120750000D03*
D20*
X146050000Y-146270000D03*
X144500000Y-146270000D03*
D16*
X188050000Y-128250000D03*
D17*
X186750000Y-128250000D03*
D42*
X138000000Y-244020000D03*
X139550000Y-244020000D03*
D16*
X188050000Y-115750000D03*
D17*
X186750000Y-115750000D03*
D16*
X188050000Y-118250000D03*
D17*
X186750000Y-118250000D03*
D16*
X188050000Y-123250000D03*
D17*
X186750000Y-123250000D03*
D43*
X122668679Y-240062470D03*
X124424050Y-240789569D03*
X124350000Y-238485872D03*
D20*
X279300000Y-179385000D03*
X280850000Y-179385000D03*
D44*
X179342462Y-163527538D03*
X178246446Y-162431522D03*
D45*
X157133993Y-241816580D03*
X158566007Y-241223420D03*
D46*
X96614559Y-212945950D03*
X97341658Y-214701321D03*
X98918256Y-213020000D03*
D47*
X164532014Y-151600573D03*
X163100000Y-151007413D03*
D48*
X186850000Y-214825454D03*
X187577099Y-213070083D03*
X185273402Y-213144133D03*
D49*
X284325000Y-178385000D03*
D50*
X285875000Y-177385000D03*
X285875000Y-177885000D03*
X285875000Y-178385000D03*
X285875000Y-178885000D03*
X285875000Y-179385000D03*
X282775000Y-179385000D03*
X282775000Y-178885000D03*
X282775000Y-178385000D03*
X282775000Y-177885000D03*
X282775000Y-177385000D03*
D51*
X95355022Y-210239804D03*
X95948182Y-211671818D03*
D52*
X137575000Y-134385000D03*
X192500000Y-130750000D03*
X208075000Y-150135000D03*
X192500000Y-128750000D03*
X109850000Y-227520000D03*
X124948182Y-237455946D03*
X165566007Y-152053993D03*
X94948182Y-209171818D03*
X193825000Y-133250000D03*
X173063552Y-233233552D03*
X142025000Y-149520000D03*
X96350000Y-195270000D03*
X180092462Y-164006945D03*
X187850000Y-195270000D03*
X127850000Y-148020000D03*
X197750000Y-136500000D03*
X98850000Y-171770000D03*
X189350000Y-181270000D03*
X103911813Y-226208188D03*
X278075000Y-179385000D03*
X174342462Y-162777538D03*
X137025000Y-244020000D03*
X284325000Y-178385000D03*
X110850000Y-157270000D03*
X195000000Y-129750000D03*
X197750000Y-135500000D03*
X196750000Y-135500000D03*
X124600000Y-153020000D03*
X184350000Y-177770000D03*
X93100000Y-190270000D03*
X196750000Y-136500000D03*
X142025000Y-240770000D03*
X109600000Y-163020000D03*
X147025000Y-146270000D03*
X118698182Y-238455946D03*
X159316007Y-153053993D03*
X156100000Y-242020000D03*
X184243476Y-212545951D03*
X190850000Y-200270000D03*
X174313552Y-227483552D03*
X159600000Y-237270000D03*
X185243476Y-218795951D03*
X99948182Y-212421818D03*
X99850000Y-178020000D03*
X284074998Y-150635000D03*
X284074999Y-169134998D03*
X284075000Y-187635000D03*
X284325000Y-205635000D03*
X284325000Y-223885000D03*
X174000000Y-110750000D03*
X174000000Y-113250000D03*
X174000000Y-115750000D03*
X174000000Y-118250000D03*
X174000000Y-120750000D03*
X174000000Y-123250000D03*
X174000000Y-125750000D03*
X174000000Y-128250000D03*
X185750000Y-110750000D03*
X185750000Y-113250000D03*
X185750000Y-115750000D03*
X185750000Y-118250000D03*
X185750000Y-120750000D03*
X185750000Y-123250000D03*
X185750000Y-125750000D03*
X185832263Y-128167737D03*
X209750000Y-117000000D03*
X199250000Y-131250000D03*
X199000000Y-132750000D03*
X200250000Y-114500000D03*
X195250000Y-133750000D03*
X196250000Y-131000000D03*
X213250000Y-117000000D03*
X284325000Y-132385000D03*
D53*
X190795704Y-137970000D02*
X196000000Y-137970000D01*
X178575704Y-125750000D02*
X190795704Y-137970000D01*
X176400000Y-125750000D02*
X178575704Y-125750000D01*
X196500000Y-138615000D02*
X196500000Y-137970000D01*
X186750000Y-128250000D02*
X185914526Y-128250000D01*
X184848533Y-128208605D02*
X191389927Y-134749999D01*
X176500000Y-110750000D02*
X184848533Y-119098533D01*
X184399023Y-128394799D02*
X191254224Y-135250000D01*
X191118520Y-135750000D02*
X195280000Y-135750000D01*
X183949513Y-128580993D02*
X191118520Y-135750000D01*
X183949511Y-123299511D02*
X183949513Y-128580993D01*
X176400000Y-115750000D02*
X183949511Y-123299511D01*
X180440000Y-128250000D02*
X190940000Y-138750000D01*
X191254224Y-135250000D02*
X195280000Y-135250000D01*
X183500003Y-128767187D02*
X190982816Y-136250000D01*
X190940000Y-138750000D02*
X196365000Y-138750000D01*
X176400000Y-118250000D02*
X183500001Y-125350001D01*
X176400000Y-113250000D02*
X184399023Y-121249023D01*
X190847112Y-136750000D02*
X195280000Y-136750000D01*
X191389927Y-134749999D02*
X195280000Y-134750000D01*
X183050493Y-128953381D02*
X190847112Y-136750000D01*
X176400000Y-128250000D02*
X180440000Y-128250000D01*
X182575000Y-128385000D02*
X182575000Y-129113592D01*
X185914526Y-128250000D02*
X185832263Y-128167737D01*
X177440000Y-123250000D02*
X182575000Y-128385000D01*
X176400000Y-123250000D02*
X177440000Y-123250000D01*
X196365000Y-138750000D02*
X196500000Y-138615000D01*
X184848533Y-119098533D02*
X184848533Y-128208605D01*
X190711408Y-137250000D02*
X195280000Y-137250000D01*
X182575000Y-129113592D02*
X190711408Y-137250000D01*
X183500001Y-125350001D02*
X183500003Y-128767187D01*
X184399023Y-121249023D02*
X184399023Y-128394799D01*
X190982816Y-136250000D02*
X195280000Y-136250000D01*
X183050491Y-127400491D02*
X183050493Y-128953381D01*
X176400000Y-110750000D02*
X176500000Y-110750000D01*
X176400000Y-120750000D02*
X183050491Y-127400491D01*
X203396585Y-136239132D02*
X200436197Y-139199520D01*
X197948802Y-139199520D02*
X197500000Y-138750718D01*
X203396585Y-129260867D02*
X203396585Y-136239132D01*
X189699511Y-115563793D02*
X203396585Y-129260867D01*
X197500000Y-138750718D02*
X197500000Y-137970000D01*
X189699511Y-112399511D02*
X189699511Y-115563793D01*
X200436197Y-139199520D02*
X197948802Y-139199520D01*
X188050000Y-110750000D02*
X189699511Y-112399511D01*
D54*
X137187212Y-154022788D02*
X137575000Y-153635000D01*
X137575000Y-153635000D02*
X137575000Y-134385000D01*
X208210000Y-150000000D02*
X208075000Y-150135000D01*
X220925000Y-150000000D02*
X208210000Y-150000000D01*
D53*
X194225000Y-132850000D02*
X193825000Y-133250000D01*
X194225000Y-132250000D02*
X194225000Y-132850000D01*
X198500000Y-134750000D02*
X197250000Y-136000000D01*
X199220000Y-134750000D02*
X198500000Y-134750000D01*
X197000000Y-136250000D02*
X197250000Y-136000000D01*
X197000000Y-137970000D02*
X197000000Y-136250000D01*
D54*
X137187212Y-154022788D02*
X144462788Y-154022788D01*
X125437212Y-154022788D02*
X137187212Y-154022788D01*
X242075000Y-178135000D02*
X279600000Y-178135000D01*
X279600000Y-178135000D02*
X280850000Y-179385000D01*
X220925000Y-156985000D02*
X242075000Y-178135000D01*
X220925000Y-151750000D02*
X220925000Y-156985000D01*
D53*
X281879568Y-178885000D02*
X282775000Y-178885000D01*
X280129568Y-177135000D02*
X281879568Y-178885000D01*
X242575000Y-177135000D02*
X280129568Y-177135000D01*
X222575000Y-157135000D02*
X242575000Y-177135000D01*
X222575000Y-151750000D02*
X222575000Y-157135000D01*
X223299520Y-150025480D02*
X223325000Y-150000000D01*
X223299520Y-157109520D02*
X223299520Y-150025480D01*
X242825000Y-176635000D02*
X223299520Y-157109520D01*
X280265272Y-176635000D02*
X242825000Y-176635000D01*
X282015272Y-178385000D02*
X280265272Y-176635000D01*
X282775000Y-178385000D02*
X282015272Y-178385000D01*
X225795000Y-110000000D02*
X225795000Y-158855000D01*
X225795000Y-158855000D02*
X243075000Y-176135000D01*
X282150978Y-177885000D02*
X282775000Y-177885000D01*
X243075000Y-176135000D02*
X280400978Y-176135000D01*
X280400978Y-176135000D02*
X282150978Y-177885000D01*
D54*
X179383673Y-174576327D02*
X182767133Y-177959786D01*
X172758673Y-167951327D02*
X179383673Y-174576327D01*
X124814402Y-154022788D02*
X125437212Y-154022788D01*
X114388595Y-164448595D02*
X124814402Y-154022788D01*
D53*
X178246446Y-162431522D02*
X178246446Y-162463554D01*
X178246446Y-162463554D02*
X172758673Y-167951327D01*
D54*
X159508673Y-154701327D02*
X172758673Y-167951327D01*
X182767133Y-178827133D02*
X182767133Y-197692867D01*
X182767133Y-177959786D02*
X182767133Y-178827133D01*
D53*
X188280280Y-178827133D02*
X182767133Y-178827133D01*
X182819266Y-197745000D02*
X182767133Y-197692867D01*
D54*
X182767133Y-197692867D02*
X182767133Y-211975520D01*
D53*
X190850000Y-197745000D02*
X182819266Y-197745000D01*
X186269944Y-216329944D02*
X182341326Y-212401326D01*
X186290056Y-216329944D02*
X186269944Y-216329944D01*
D54*
X182341326Y-212401326D02*
X169216326Y-225526326D01*
X182767133Y-211975520D02*
X182341326Y-212401326D01*
D53*
X174861560Y-231435544D02*
X169216326Y-225790310D01*
X169216326Y-225790310D02*
X169216326Y-225526326D01*
D54*
X169216326Y-225526326D02*
X158830135Y-235912518D01*
D53*
X158547482Y-241204895D02*
X158547482Y-235912518D01*
D54*
X158830135Y-235912518D02*
X158547482Y-235912518D01*
X158547482Y-235912518D02*
X139547482Y-235912518D01*
D53*
X139550000Y-244020000D02*
X139550000Y-235915036D01*
D54*
X139547482Y-235912518D02*
X125444322Y-235912518D01*
D53*
X139550000Y-235915036D02*
X139547482Y-235912518D01*
D54*
X125120902Y-235589098D02*
X111620902Y-222089098D01*
D53*
X121198182Y-239455946D02*
X121254054Y-239455946D01*
D54*
X125444322Y-235912518D02*
X125120902Y-235589098D01*
D53*
X121254054Y-239455946D02*
X125120902Y-235589098D01*
X105850000Y-227860000D02*
X111620902Y-222089098D01*
X105850000Y-228020000D02*
X105850000Y-227860000D01*
D54*
X111620902Y-222089098D02*
X101507324Y-211975520D01*
X101507324Y-211567324D02*
X101507324Y-192702676D01*
D53*
X96052676Y-211567324D02*
X101507324Y-211567324D01*
D54*
X101507324Y-211975520D02*
X101507324Y-211567324D01*
D53*
X93100000Y-192795000D02*
X101415000Y-192795000D01*
D54*
X101507324Y-192702676D02*
X101507324Y-177952676D01*
D53*
X101415000Y-192795000D02*
X101507324Y-192702676D01*
X97803420Y-174248772D02*
X101507324Y-177952676D01*
D54*
X101507324Y-177952676D02*
X101507324Y-177329865D01*
D53*
X97803420Y-174236007D02*
X97803420Y-174248772D01*
X109051992Y-159111992D02*
X114388595Y-164448595D01*
D54*
X101507324Y-177329865D02*
X114388595Y-164448595D01*
D53*
X125383993Y-149066580D02*
X125383993Y-153969569D01*
X125383993Y-153969569D02*
X125437212Y-154022788D01*
D54*
X124814401Y-154022788D02*
X125437212Y-154022788D01*
D53*
X144500000Y-146270000D02*
X144500000Y-153985576D01*
D54*
X144462788Y-154022788D02*
X158830135Y-154022788D01*
D53*
X144500000Y-153985576D02*
X144462788Y-154022788D01*
X163100000Y-151110000D02*
X159508673Y-154701327D01*
X163100000Y-151007413D02*
X163100000Y-151110000D01*
D54*
X158830135Y-154022788D02*
X159508673Y-154701327D01*
D53*
X138440000Y-110000000D02*
X138440000Y-128520000D01*
X138440000Y-128520000D02*
X122320497Y-144639503D01*
X122320497Y-144639503D02*
X122320497Y-150413476D01*
X123200000Y-139260000D02*
X123200000Y-110000000D01*
X90325000Y-172135000D02*
X123200000Y-139260000D01*
X90325000Y-214635000D02*
X90325000Y-172135000D01*
X123578619Y-241635000D02*
X117325000Y-241635000D01*
X117325000Y-241635000D02*
X90325000Y-214635000D01*
X124424050Y-240789569D02*
X123578619Y-241635000D01*
X90825000Y-172385000D02*
X125740000Y-137470000D01*
X90825000Y-214385000D02*
X90825000Y-172385000D01*
X106874214Y-230434214D02*
X90825000Y-214385000D01*
X108279289Y-230434214D02*
X106874214Y-230434214D01*
X125740000Y-137470000D02*
X125740000Y-110000000D01*
X104627609Y-226923984D02*
X103911813Y-226208188D01*
X104753984Y-226923984D02*
X104627609Y-226923984D01*
X91325000Y-209385000D02*
X91325000Y-172635000D01*
X91325000Y-172635000D02*
X128280000Y-135680000D01*
X96641321Y-214701321D02*
X91325000Y-209385000D01*
X97341658Y-214701321D02*
X96641321Y-214701321D01*
X128280000Y-135680000D02*
X128280000Y-110000000D01*
X130820000Y-133890000D02*
X130820000Y-110000000D01*
X93050000Y-196220000D02*
X91825000Y-194995000D01*
X91825000Y-194995000D02*
X91825000Y-172885000D01*
X91825000Y-172885000D02*
X130820000Y-133890000D01*
X133360000Y-132100000D02*
X133360000Y-110000000D01*
X96133694Y-177113185D02*
X96133694Y-169326306D01*
X96516377Y-177495868D02*
X96133694Y-177113185D01*
X96133694Y-169326306D02*
X133360000Y-132100000D01*
X135900000Y-130310000D02*
X135900000Y-110000000D01*
X106685786Y-159524214D02*
X135900000Y-130310000D01*
X106685786Y-161449289D02*
X106685786Y-159524214D01*
X193475790Y-214495204D02*
X168094470Y-239876524D01*
X160024512Y-146084512D02*
X166588808Y-146084512D01*
X158760000Y-144820000D02*
X160024512Y-146084512D01*
X165844035Y-147882555D02*
X186956524Y-168995044D01*
X159279740Y-147882556D02*
X165844035Y-147882555D01*
X148600000Y-137202816D02*
X159279740Y-147882556D01*
X148600000Y-110000000D02*
X148600000Y-137202816D01*
X159465933Y-147433045D02*
X166030229Y-147433045D01*
X151140000Y-139107112D02*
X159465933Y-147433045D01*
X158760000Y-110000000D02*
X158760000Y-144820000D01*
X151140000Y-110000000D02*
X151140000Y-139107112D01*
X153680000Y-141011408D02*
X159652126Y-146983534D01*
X190900000Y-172302816D02*
X190900000Y-194320000D01*
X192845869Y-213436160D02*
X177227766Y-229054263D01*
X192845869Y-172977277D02*
X192845869Y-213436160D01*
X166402614Y-146534022D02*
X192845869Y-172977277D01*
X159838319Y-146534023D02*
X166402614Y-146534022D01*
X168094470Y-239876524D02*
X161629503Y-239876524D01*
X156220000Y-142915704D02*
X159838319Y-146534023D01*
X156220000Y-110000000D02*
X156220000Y-142915704D01*
X166588808Y-146084512D02*
X193475790Y-172971494D01*
X192215948Y-172983060D02*
X192215948Y-208431234D01*
X159652126Y-146983534D02*
X166216423Y-146983535D01*
X192215948Y-208431234D02*
X187577099Y-213070083D01*
X164381915Y-148332066D02*
X159093546Y-148332066D01*
X186956524Y-168995044D02*
X186956524Y-175740497D01*
X166216423Y-146983535D02*
X192215948Y-172983060D01*
X159840139Y-149720370D02*
X143520000Y-133400231D01*
X193475790Y-172971494D02*
X193475790Y-214495204D01*
X166030229Y-147433045D02*
X190900000Y-172302816D01*
X159093546Y-148332066D02*
X146060000Y-135298520D01*
X153680000Y-110000000D02*
X153680000Y-141011408D01*
X146060000Y-135298520D02*
X146060000Y-110000000D01*
X175913173Y-159863324D02*
X164381915Y-148332066D01*
X143520000Y-133400231D02*
X143520000Y-110000000D01*
X166775000Y-145635000D02*
X161825000Y-145635000D01*
X194025000Y-214635000D02*
X194025000Y-172885000D01*
X161825000Y-145635000D02*
X161300000Y-145110000D01*
X161300000Y-145110000D02*
X161300000Y-110000000D01*
X164590000Y-244070000D02*
X194025000Y-214635000D01*
X194025000Y-172885000D02*
X166775000Y-145635000D01*
X142975000Y-244070000D02*
X164590000Y-244070000D01*
X141075000Y-146220000D02*
X141075000Y-110855000D01*
X179342462Y-163527538D02*
X179821869Y-164006945D01*
X179821869Y-164006945D02*
X180092462Y-164006945D01*
X162540056Y-150447469D02*
X163100000Y-151007413D01*
X175884263Y-230397766D02*
X175884263Y-230412841D01*
X196500000Y-132975000D02*
X195775000Y-132250000D01*
X197500000Y-132024600D02*
X197525000Y-131999600D01*
X93050000Y-194320000D02*
X93050000Y-192845000D01*
X190900000Y-197695000D02*
X190850000Y-197745000D01*
X196500000Y-134030000D02*
X196500000Y-132975000D01*
X124764196Y-149686377D02*
X125383993Y-149066580D01*
X195775000Y-132250000D02*
X194275000Y-130750000D01*
X121198182Y-239455946D02*
X122062155Y-239455946D01*
X187683623Y-177495868D02*
X187683623Y-178184196D01*
D54*
X192550000Y-110000000D02*
X194300000Y-111750000D01*
D53*
X139600000Y-244070000D02*
X139550000Y-244020000D01*
D54*
X220925000Y-150000000D02*
X221675000Y-150000000D01*
D53*
X124075868Y-149686377D02*
X124764196Y-149686377D01*
X186850000Y-214825454D02*
X186850000Y-215770000D01*
D54*
X216425000Y-111750000D02*
X218175000Y-110000000D01*
X194300000Y-111750000D02*
X216425000Y-111750000D01*
D53*
X106920711Y-229090711D02*
X105850000Y-228020000D01*
X108029289Y-160090711D02*
X109051992Y-159068008D01*
X194275000Y-130750000D02*
X192500000Y-130750000D01*
X144450000Y-146220000D02*
X144500000Y-146270000D01*
X97243476Y-175740497D02*
X97243476Y-174795951D01*
X196500000Y-128750000D02*
X192500000Y-128750000D01*
X93050000Y-192845000D02*
X93100000Y-192795000D01*
X197525000Y-129750000D02*
X197500000Y-129750000D01*
X141075000Y-244070000D02*
X139600000Y-244070000D01*
X190900000Y-196220000D02*
X190900000Y-197695000D01*
X159874132Y-240603623D02*
X159185804Y-240603623D01*
X197525000Y-131999600D02*
X197525000Y-129750000D01*
X106935786Y-229090711D02*
X106920711Y-229090711D01*
X197500000Y-129750000D02*
X196500000Y-128750000D01*
X122062155Y-239455946D02*
X122668679Y-240062470D01*
X187683623Y-178184196D02*
X188303420Y-178803993D01*
X97243476Y-174795951D02*
X97803420Y-174236007D01*
X142975000Y-146220000D02*
X144450000Y-146220000D01*
D54*
X220925000Y-151750000D02*
X220925000Y-150000000D01*
D53*
X108029289Y-160105786D02*
X108029289Y-160090711D01*
X177256676Y-161441752D02*
X178246446Y-162431522D01*
X177256676Y-161206827D02*
X177256676Y-161441752D01*
X159185804Y-240603623D02*
X158566007Y-241223420D01*
X197500000Y-134030000D02*
X197500000Y-132024600D01*
X161595510Y-150447469D02*
X162540056Y-150447469D01*
X175884263Y-230412841D02*
X174861560Y-231435544D01*
X282775000Y-179385000D02*
X280850000Y-179385000D01*
X96614559Y-212945950D02*
X96614559Y-212338195D01*
X96614559Y-212338195D02*
X95948182Y-211671818D01*
X186850000Y-215770000D02*
X186290056Y-216329944D01*
X146050000Y-146270000D02*
X147025000Y-146270000D01*
X159914189Y-152024067D02*
X159914189Y-152455811D01*
X142025000Y-241970000D02*
X142025000Y-240770000D01*
X98396580Y-172223420D02*
X98850000Y-171770000D01*
X188896580Y-180816580D02*
X189350000Y-181270000D01*
X195975000Y-129750000D02*
X195000000Y-129750000D01*
X99251818Y-177421818D02*
X99850000Y-178020000D01*
X159948182Y-238299926D02*
X159948182Y-237618182D01*
X185696896Y-217761958D02*
X185696896Y-218342531D01*
X197250000Y-136000000D02*
X196750000Y-136500000D01*
X142025000Y-148320000D02*
X142025000Y-149520000D01*
X126816007Y-148473420D02*
X127396580Y-148473420D01*
X98918256Y-213020000D02*
X99350000Y-213020000D01*
X185273402Y-213144133D02*
X184841658Y-213144133D01*
X175100000Y-162020000D02*
X174342462Y-162777538D01*
X157133993Y-241816580D02*
X156303420Y-241816580D01*
X99350000Y-213020000D02*
X99948182Y-212421818D01*
X279300000Y-179385000D02*
X278075000Y-179385000D01*
X184841658Y-213144133D02*
X184243476Y-212545951D01*
X124001818Y-152421818D02*
X124600000Y-153020000D01*
X156303420Y-241816580D02*
X156100000Y-242020000D01*
X197250000Y-136000000D02*
X196750000Y-135500000D01*
X127396580Y-148473420D02*
X127850000Y-148020000D01*
X108842462Y-162262462D02*
X109600000Y-163020000D01*
X138000000Y-244020000D02*
X137025000Y-244020000D01*
X110148008Y-157971992D02*
X110850000Y-157270000D01*
X190850000Y-199295000D02*
X190850000Y-200270000D01*
X159948182Y-237618182D02*
X159600000Y-237270000D01*
X159914189Y-152455811D02*
X159316007Y-153053993D01*
X173765544Y-232531560D02*
X173063552Y-233233552D01*
X188800000Y-195270000D02*
X187850000Y-195270000D01*
X119105022Y-238862786D02*
X118698182Y-238455946D01*
X119766168Y-238862786D02*
X119105022Y-238862786D01*
X188896580Y-180236007D02*
X188896580Y-180816580D01*
X98820074Y-177421818D02*
X99251818Y-177421818D01*
X93100000Y-191245000D02*
X93100000Y-190270000D01*
X95150000Y-195270000D02*
X96350000Y-195270000D01*
X95355022Y-209578658D02*
X94948182Y-209171818D01*
X124350000Y-238054128D02*
X124948182Y-237455946D01*
X124350000Y-238485872D02*
X124350000Y-238054128D01*
X124001818Y-151990074D02*
X124001818Y-152421818D01*
X109092462Y-228277538D02*
X109850000Y-227520000D01*
X185379926Y-177421818D02*
X184698182Y-177421818D01*
X175071090Y-228241090D02*
X174313552Y-227483552D01*
X98396580Y-172803993D02*
X98396580Y-172223420D01*
X185696896Y-218342531D02*
X185243476Y-218795951D01*
X165112587Y-151600573D02*
X165566007Y-152053993D01*
X197250000Y-136000000D02*
X197750000Y-136500000D01*
X164532014Y-151600573D02*
X165112587Y-151600573D01*
X184698182Y-177421818D02*
X184350000Y-177770000D01*
X95355022Y-210239804D02*
X95355022Y-209578658D01*
X197250000Y-136000000D02*
X197750000Y-135500000D01*
X283350498Y-151359500D02*
X284074998Y-150635000D01*
X283350498Y-174860498D02*
X283350498Y-151359500D01*
X285875000Y-177385000D02*
X283350498Y-174860498D01*
X285875000Y-177885000D02*
X286575000Y-177885000D01*
X286825000Y-171884999D02*
X284074999Y-169134998D01*
X286825000Y-177635000D02*
X286825000Y-171884999D01*
X286575000Y-177885000D02*
X286825000Y-177635000D01*
X286634726Y-178385000D02*
X287075000Y-178825274D01*
X287075000Y-178825274D02*
X287075000Y-184635000D01*
X285875000Y-178385000D02*
X286634726Y-178385000D01*
X287075000Y-184635000D02*
X284075000Y-187635000D01*
X285875000Y-178885000D02*
X286325000Y-178885000D01*
X283325000Y-185385000D02*
X283325000Y-204635000D01*
X286524511Y-179084511D02*
X286524511Y-182185489D01*
X286524511Y-182185489D02*
X283325000Y-185385000D01*
X286325000Y-178885000D02*
X286524511Y-179084511D01*
X283325000Y-204635000D02*
X284325000Y-205635000D01*
X282625000Y-222185000D02*
X284325000Y-223885000D01*
X285875000Y-179385000D02*
X282625000Y-182635000D01*
X282625000Y-182635000D02*
X282625000Y-222185000D01*
X174000000Y-110750000D02*
X175100000Y-110750000D01*
X174000000Y-113250000D02*
X175100000Y-113250000D01*
X174000000Y-115750000D02*
X175100000Y-115750000D01*
X174000000Y-118250000D02*
X175100000Y-118250000D01*
X174000000Y-120750000D02*
X175100000Y-120750000D01*
X174000000Y-123250000D02*
X175100000Y-123250000D01*
X174000000Y-125750000D02*
X175100000Y-125750000D01*
X175100000Y-128250000D02*
X174000000Y-128250000D01*
X186750000Y-110750000D02*
X185750000Y-110750000D01*
X186750000Y-113250000D02*
X185750000Y-113250000D01*
X186750000Y-115750000D02*
X185750000Y-115750000D01*
X186750000Y-118250000D02*
X185750000Y-118250000D01*
X186750000Y-120750000D02*
X185750000Y-120750000D01*
X186750000Y-123250000D02*
X185750000Y-123250000D01*
X186750000Y-125750000D02*
X185750000Y-125750000D01*
X198000000Y-134030000D02*
X198000000Y-132500000D01*
X198000000Y-132500000D02*
X199250000Y-131250000D01*
X209750000Y-117000000D02*
X210850000Y-117000000D01*
X198500000Y-133250000D02*
X199000000Y-132750000D01*
X198500000Y-134030000D02*
X198500000Y-133250000D01*
X210850000Y-114500000D02*
X200250000Y-114500000D01*
X195530000Y-134030000D02*
X195250000Y-133750000D01*
X196000000Y-134030000D02*
X195530000Y-134030000D01*
X197000000Y-134030000D02*
X197000000Y-131750000D01*
X197000000Y-131750000D02*
X196250000Y-131000000D01*
X222575000Y-114575000D02*
X222575000Y-111860000D01*
X222500000Y-114500000D02*
X222575000Y-114575000D01*
X212150000Y-114500000D02*
X222500000Y-114500000D01*
X222575000Y-151750000D02*
X222575000Y-114575000D01*
X222575000Y-111860000D02*
X220715000Y-110000000D01*
X223325000Y-150000000D02*
X223255000Y-149930000D01*
X213250000Y-117000000D02*
X212150000Y-117000000D01*
X223255000Y-149930000D02*
X223255000Y-110000000D01*
X198135000Y-138750000D02*
X198000000Y-138615000D01*
X200250000Y-138750000D02*
X198135000Y-138750000D01*
X189250000Y-115750000D02*
X202947065Y-129447065D01*
X188050000Y-113250000D02*
X189250000Y-114450000D01*
X202947065Y-129447065D02*
X202947065Y-136052935D01*
X189250000Y-114450000D02*
X189250000Y-115750000D01*
X198000000Y-138615000D02*
X198000000Y-137970000D01*
X202947065Y-136052935D02*
X200250000Y-138750000D01*
X188500000Y-115750000D02*
X202497554Y-129747554D01*
X200221857Y-137970000D02*
X198500000Y-137970000D01*
X202497554Y-135694303D02*
X200221857Y-137970000D01*
X188050000Y-115750000D02*
X188500000Y-115750000D01*
X202497554Y-129747554D02*
X202497554Y-135694303D01*
X200306153Y-137250000D02*
X199220000Y-137250000D01*
X188050000Y-118250000D02*
X190292816Y-118250000D01*
X202048043Y-135508110D02*
X200306153Y-137250000D01*
X190292816Y-118250000D02*
X202048044Y-130005228D01*
X202048044Y-130005228D02*
X202048043Y-135508110D01*
X200170449Y-136750000D02*
X199220000Y-136750000D01*
X201598532Y-135321917D02*
X200170449Y-136750000D01*
X192157112Y-120750000D02*
X201598533Y-130191421D01*
X188050000Y-120750000D02*
X192157112Y-120750000D01*
X201598533Y-130191421D02*
X201598532Y-135321917D01*
X194021408Y-123250000D02*
X201149022Y-130377614D01*
X201149021Y-135135705D02*
X200034726Y-136250000D01*
X188050000Y-123250000D02*
X194021408Y-123250000D01*
X201149022Y-130377614D02*
X201149021Y-135135705D01*
X200034726Y-136250000D02*
X199220000Y-136250000D01*
X199899022Y-135750000D02*
X199220000Y-135750000D01*
X188050000Y-125750000D02*
X195885704Y-125750000D01*
X195885704Y-125750000D02*
X200699511Y-130563807D01*
X200699511Y-130563807D02*
X200699510Y-134949512D01*
X200699510Y-134949512D02*
X199899022Y-135750000D01*
X199763318Y-135250000D02*
X199220000Y-135250000D01*
X188300000Y-128000000D02*
X197500000Y-128000000D01*
X197500000Y-128000000D02*
X200250000Y-130750000D01*
X188050000Y-128250000D02*
X188300000Y-128000000D01*
X200250000Y-130750000D02*
X200250000Y-134763318D01*
X200250000Y-134763318D02*
X199763318Y-135250000D01*
X282775000Y-133935000D02*
X284325000Y-132385000D01*
X282775000Y-177385000D02*
X282775000Y-133935000D01*
M02*
