G04 #@! TF.GenerationSoftware,KiCad,Pcbnew,(6.0.2)*
G04 #@! TF.CreationDate,2023-03-16T16:07:34-07:00*
G04 #@! TF.ProjectId,hall-censor-and-cap-touch-prototype,68616c6c-2d63-4656-9e73-6f722d616e64,rev?*
G04 #@! TF.SameCoordinates,Original*
G04 #@! TF.FileFunction,Copper,L2,Bot*
G04 #@! TF.FilePolarity,Positive*
%FSLAX46Y46*%
G04 Gerber Fmt 4.6, Leading zero omitted, Abs format (unit mm)*
G04 Created by KiCad (PCBNEW (6.0.2)) date 2023-03-16 16:07:34*
%MOMM*%
%LPD*%
G01*
G04 APERTURE LIST*
G04 Aperture macros list*
%AMFreePoly0*
4,1,20,0.000000,0.744959,0.073905,0.744508,0.209726,0.703889,0.328688,0.626782,0.421226,0.519385,0.479903,0.390333,0.500000,0.250000,0.500000,-0.250000,0.499851,-0.262216,0.476331,-0.402017,0.414519,-0.529596,0.319384,-0.634700,0.198574,-0.708877,0.061801,-0.746166,0.000000,-0.745033,0.000000,-0.750000,-0.500000,-0.750000,-0.500000,0.750000,0.000000,0.750000,0.000000,0.744959,
0.000000,0.744959,$1*%
%AMFreePoly1*
4,1,22,0.500000,-0.750000,0.000000,-0.750000,0.000000,-0.745033,-0.079941,-0.743568,-0.215256,-0.701293,-0.333266,-0.622738,-0.424486,-0.514219,-0.481581,-0.384460,-0.499164,-0.250000,-0.500000,-0.250000,-0.500000,0.250000,-0.499164,0.250000,-0.499963,0.256109,-0.478152,0.396186,-0.417904,0.524511,-0.324060,0.630769,-0.204165,0.706417,-0.067858,0.745374,0.000000,0.744959,0.000000,0.750000,
0.500000,0.750000,0.500000,-0.750000,0.500000,-0.750000,$1*%
G04 Aperture macros list end*
G04 #@! TA.AperFunction,SMDPad,CuDef*
%ADD10C,14.500000*%
G04 #@! TD*
G04 #@! TA.AperFunction,SMDPad,CuDef*
%ADD11R,13.000000X13.000000*%
G04 #@! TD*
G04 #@! TA.AperFunction,ComponentPad*
%ADD12R,1.700000X1.700000*%
G04 #@! TD*
G04 #@! TA.AperFunction,ComponentPad*
%ADD13O,1.700000X1.700000*%
G04 #@! TD*
G04 #@! TA.AperFunction,SMDPad,CuDef*
%ADD14FreePoly0,0.000000*%
G04 #@! TD*
G04 #@! TA.AperFunction,SMDPad,CuDef*
%ADD15FreePoly1,0.000000*%
G04 #@! TD*
G04 #@! TA.AperFunction,ViaPad*
%ADD16C,0.800000*%
G04 #@! TD*
G04 #@! TA.AperFunction,Conductor*
%ADD17C,0.250000*%
G04 #@! TD*
G04 #@! TA.AperFunction,Conductor*
%ADD18C,0.500000*%
G04 #@! TD*
G04 APERTURE END LIST*
D10*
X142075000Y-195260000D03*
D11*
X284325000Y-223885000D03*
X284325000Y-223885000D03*
X284325000Y-205635000D03*
X284325000Y-205635000D03*
X284075000Y-187635000D03*
X284075000Y-187635000D03*
X284075000Y-169135000D03*
X284075000Y-169135000D03*
X284074998Y-150635000D03*
X284074998Y-150635000D03*
X284325000Y-132385000D03*
D12*
X161300000Y-110000000D03*
D13*
X158760000Y-110000000D03*
X156220000Y-110000000D03*
X153680000Y-110000000D03*
X151140000Y-110000000D03*
X148600000Y-110000000D03*
X146060000Y-110000000D03*
X143520000Y-110000000D03*
X140980000Y-110000000D03*
X138440000Y-110000000D03*
X135900000Y-110000000D03*
X133360000Y-110000000D03*
X130820000Y-110000000D03*
X128280000Y-110000000D03*
X125740000Y-110000000D03*
X123200000Y-110000000D03*
D12*
X205250000Y-110000000D03*
D13*
X202710000Y-110000000D03*
X200170000Y-110000000D03*
X197630000Y-110000000D03*
X195090000Y-110000000D03*
X192550000Y-110000000D03*
D12*
X218175000Y-110000000D03*
D13*
X220715000Y-110000000D03*
X223255000Y-110000000D03*
X225795000Y-110000000D03*
X228335000Y-110000000D03*
D14*
X276475000Y-169135000D03*
D15*
X275175000Y-169135000D03*
D14*
X276725000Y-132385000D03*
D15*
X275425000Y-132385000D03*
D14*
X276725000Y-205635000D03*
D15*
X275425000Y-205635000D03*
D14*
X276475000Y-187635000D03*
D15*
X275175000Y-187635000D03*
D14*
X276475000Y-150635000D03*
D15*
X275175000Y-150635000D03*
D14*
X276725000Y-223885000D03*
D15*
X275425000Y-223885000D03*
D16*
X137575000Y-134385000D03*
X192500000Y-130750000D03*
X208075000Y-150135000D03*
X192500000Y-128750000D03*
X109850000Y-227520000D03*
X124948182Y-237455946D03*
X165566007Y-152053993D03*
X94948182Y-209171818D03*
X193825000Y-133250000D03*
X173063552Y-233233552D03*
X142025000Y-149520000D03*
X96350000Y-195270000D03*
X180092462Y-164006945D03*
X187850000Y-195270000D03*
X127850000Y-148020000D03*
X197750000Y-136500000D03*
X98850000Y-171770000D03*
X189350000Y-181270000D03*
X103911813Y-226208188D03*
X278075000Y-179385000D03*
X174342462Y-162777538D03*
X137025000Y-244020000D03*
X284325000Y-178385000D03*
X110850000Y-157270000D03*
X195000000Y-129750000D03*
X197750000Y-135500000D03*
X196750000Y-135500000D03*
X124600000Y-153020000D03*
X184350000Y-177770000D03*
X93100000Y-190270000D03*
X196750000Y-136500000D03*
X142025000Y-240770000D03*
X109600000Y-163020000D03*
X147025000Y-146270000D03*
X118698182Y-238455946D03*
X159316007Y-153053993D03*
X156100000Y-242020000D03*
X184243476Y-212545951D03*
X190850000Y-200270000D03*
X174313552Y-227483552D03*
X159600000Y-237270000D03*
X185243476Y-218795951D03*
X99948182Y-212421818D03*
X99850000Y-178020000D03*
X284074998Y-150635000D03*
X284074999Y-169134998D03*
X284075000Y-187635000D03*
X284325000Y-205635000D03*
X284325000Y-223885000D03*
X174000000Y-110750000D03*
X174000000Y-113250000D03*
X174000000Y-115750000D03*
X174000000Y-118250000D03*
X174000000Y-120750000D03*
X174000000Y-123250000D03*
X174000000Y-125750000D03*
X174000000Y-128250000D03*
X185750000Y-110750000D03*
X185750000Y-113250000D03*
X185750000Y-115750000D03*
X185750000Y-118250000D03*
X185750000Y-120750000D03*
X185750000Y-123250000D03*
X185750000Y-125750000D03*
X185832263Y-128167737D03*
X209750000Y-117000000D03*
X199250000Y-131250000D03*
X199000000Y-132750000D03*
X200250000Y-114500000D03*
X195250000Y-133750000D03*
X196250000Y-131000000D03*
X213250000Y-117000000D03*
X284325000Y-132385000D03*
D17*
X180147537Y-128167737D02*
X185832263Y-128167737D01*
X175918703Y-132396571D02*
X180147537Y-128167737D01*
X123200000Y-110000000D02*
X145596571Y-132396571D01*
X145596571Y-132396571D02*
X175918703Y-132396571D01*
D18*
X192500000Y-134385000D02*
X137575000Y-134385000D01*
X192500000Y-133560000D02*
X192500000Y-134385000D01*
X192500000Y-134560000D02*
X208075000Y-150135000D01*
X192500000Y-133560000D02*
X192500000Y-134560000D01*
X192500000Y-130750000D02*
X192500000Y-133560000D01*
X192550000Y-128700000D02*
X192500000Y-128750000D01*
X192550000Y-110000000D02*
X192550000Y-128700000D01*
X192500000Y-130750000D02*
X192500000Y-128750000D01*
D17*
X196750000Y-135500000D02*
X197000000Y-135750000D01*
X276475000Y-150635000D02*
X284074998Y-150635000D01*
X276475000Y-169135000D02*
X284075000Y-169135000D01*
X276475000Y-187635000D02*
X284075000Y-187635000D01*
X276725000Y-205635000D02*
X284325000Y-205635000D01*
X276725000Y-223885000D02*
X284325000Y-223885000D01*
X173250000Y-110000000D02*
X174000000Y-110750000D01*
X161300000Y-110000000D02*
X173250000Y-110000000D01*
X158760000Y-110000000D02*
X162010000Y-113250000D01*
X162010000Y-113250000D02*
X174000000Y-113250000D01*
X156220000Y-110000000D02*
X161970000Y-115750000D01*
X161970000Y-115750000D02*
X174000000Y-115750000D01*
X153680000Y-110000000D02*
X161930000Y-118250000D01*
X161930000Y-118250000D02*
X174000000Y-118250000D01*
X161890000Y-120750000D02*
X174000000Y-120750000D01*
X151140000Y-110000000D02*
X161890000Y-120750000D01*
X161850000Y-123250000D02*
X174000000Y-123250000D01*
X148600000Y-110000000D02*
X161850000Y-123250000D01*
X146060000Y-110000000D02*
X161810000Y-125750000D01*
X161810000Y-125750000D02*
X174000000Y-125750000D01*
X143520000Y-110000000D02*
X161770000Y-128250000D01*
X161770000Y-128250000D02*
X174000000Y-128250000D01*
X185750000Y-110750000D02*
X177750000Y-118750000D01*
X174615346Y-129250000D02*
X160230000Y-129250000D01*
X177750000Y-118750000D02*
X177750000Y-126115346D01*
X177750000Y-126115346D02*
X174615346Y-129250000D01*
X160230000Y-129250000D02*
X140980000Y-110000000D01*
X174801539Y-129699511D02*
X158139511Y-129699511D01*
X185750000Y-113250000D02*
X178199511Y-120800489D01*
X158139511Y-129699511D02*
X138440000Y-110000000D01*
X178199511Y-126301539D02*
X174801539Y-129699511D01*
X178199511Y-120800489D02*
X178199511Y-126301539D01*
X135900000Y-110000000D02*
X156049021Y-130149021D01*
X178651467Y-122848533D02*
X185750000Y-115750000D01*
X156049021Y-130149021D02*
X174987733Y-130149021D01*
X174987733Y-130149021D02*
X178651467Y-126485287D01*
X178651467Y-126485287D02*
X178651467Y-122848533D01*
X179100978Y-124899022D02*
X185750000Y-118250000D01*
X133360000Y-110000000D02*
X153958531Y-130598531D01*
X179100978Y-126671480D02*
X179100978Y-124899022D01*
X153958531Y-130598531D02*
X175173927Y-130598531D01*
X175173927Y-130598531D02*
X179100978Y-126671480D01*
X151868041Y-131048041D02*
X175360121Y-131048041D01*
X175360121Y-131048041D02*
X185658162Y-120750000D01*
X130820000Y-110000000D02*
X151868041Y-131048041D01*
X185658162Y-120750000D02*
X185750000Y-120750000D01*
X149777551Y-131497551D02*
X175546315Y-131497551D01*
X183793866Y-123250000D02*
X185750000Y-123250000D01*
X175546315Y-131497551D02*
X183793866Y-123250000D01*
X128280000Y-110000000D02*
X149777551Y-131497551D01*
X175732509Y-131947061D02*
X181929570Y-125750000D01*
X181929570Y-125750000D02*
X185750000Y-125750000D01*
X147687061Y-131947061D02*
X175732509Y-131947061D01*
X125740000Y-110000000D02*
X147687061Y-131947061D01*
X202750000Y-117000000D02*
X202750000Y-110040000D01*
X199250000Y-120500000D02*
X199250000Y-131250000D01*
X209750000Y-117000000D02*
X202750000Y-117000000D01*
X202750000Y-110040000D02*
X202710000Y-110000000D01*
X202750000Y-117000000D02*
X199250000Y-120500000D01*
X200250000Y-110080000D02*
X200250000Y-114500000D01*
X198300989Y-132050989D02*
X199000000Y-132750000D01*
X200250000Y-114500000D02*
X198300989Y-116449011D01*
X198300989Y-116449011D02*
X198300989Y-132050989D01*
X200170000Y-110000000D02*
X200250000Y-110080000D01*
X195250000Y-133750000D02*
X197630000Y-131370000D01*
X197630000Y-131370000D02*
X197630000Y-110000000D01*
X196250000Y-111160000D02*
X196250000Y-131000000D01*
X195090000Y-110000000D02*
X196250000Y-111160000D01*
X216255000Y-117000000D02*
X213250000Y-117000000D01*
X223255000Y-110000000D02*
X216255000Y-117000000D01*
X276725000Y-132385000D02*
X284325000Y-132385000D01*
G04 #@! TA.AperFunction,Conductor*
G36*
X299676402Y-107936636D02*
G01*
X299722895Y-107990292D01*
X299734281Y-108042634D01*
X299734281Y-248001000D01*
X299714279Y-248069121D01*
X299660623Y-248115614D01*
X299608281Y-248127000D01*
X87959018Y-248127000D01*
X87890897Y-248106998D01*
X87844404Y-248053342D01*
X87833018Y-248000996D01*
X87833689Y-224195438D01*
X275710503Y-224195438D01*
X275711063Y-224199723D01*
X275711271Y-224206760D01*
X275711271Y-224635000D01*
X275716500Y-224708111D01*
X275757696Y-224848411D01*
X275762567Y-224855990D01*
X275831878Y-224963841D01*
X275831880Y-224963844D01*
X275836750Y-224971421D01*
X275843560Y-224977322D01*
X275940445Y-225061274D01*
X275940448Y-225061276D01*
X275947257Y-225067176D01*
X276080266Y-225127919D01*
X276089189Y-225129202D01*
X276105100Y-225131490D01*
X276225000Y-225148729D01*
X276712322Y-225148729D01*
X276714630Y-225148750D01*
X276778020Y-225149912D01*
X276805382Y-225146504D01*
X276918128Y-225132460D01*
X276918132Y-225132459D01*
X276922565Y-225131907D01*
X277060745Y-225094234D01*
X277140462Y-225059738D01*
X277210921Y-225051041D01*
X277274899Y-225081819D01*
X277312082Y-225142300D01*
X277316500Y-225175375D01*
X277316500Y-230433134D01*
X277323255Y-230495316D01*
X277374385Y-230631705D01*
X277461739Y-230748261D01*
X277578295Y-230835615D01*
X277714684Y-230886745D01*
X277776866Y-230893500D01*
X290873134Y-230893500D01*
X290935316Y-230886745D01*
X291071705Y-230835615D01*
X291188261Y-230748261D01*
X291275615Y-230631705D01*
X291326745Y-230495316D01*
X291333500Y-230433134D01*
X291333500Y-217336866D01*
X291326745Y-217274684D01*
X291275615Y-217138295D01*
X291188261Y-217021739D01*
X291071705Y-216934385D01*
X290935316Y-216883255D01*
X290873134Y-216876500D01*
X277776866Y-216876500D01*
X277714684Y-216883255D01*
X277578295Y-216934385D01*
X277461739Y-217021739D01*
X277374385Y-217138295D01*
X277323255Y-217274684D01*
X277316500Y-217336866D01*
X277316500Y-222594626D01*
X277296498Y-222662747D01*
X277242842Y-222709240D01*
X277172568Y-222719344D01*
X277137649Y-222709006D01*
X277088145Y-222686132D01*
X277088143Y-222686131D01*
X277084076Y-222684252D01*
X277012167Y-222662747D01*
X276951156Y-222644501D01*
X276951151Y-222644500D01*
X276946858Y-222643216D01*
X276942426Y-222642554D01*
X276942423Y-222642553D01*
X276807235Y-222622350D01*
X276807232Y-222622350D01*
X276802804Y-222621688D01*
X276728145Y-222621232D01*
X276664055Y-222620840D01*
X276664050Y-222620840D01*
X276659583Y-222620813D01*
X276657139Y-222621148D01*
X276653344Y-222621271D01*
X276225000Y-222621271D01*
X276209914Y-222622350D01*
X276158627Y-222626018D01*
X276158626Y-222626018D01*
X276151889Y-222626500D01*
X276097218Y-222642553D01*
X276020235Y-222665157D01*
X276020233Y-222665158D01*
X276011589Y-222667696D01*
X275982902Y-222686132D01*
X275896159Y-222741878D01*
X275896156Y-222741880D01*
X275888579Y-222746750D01*
X275882678Y-222753560D01*
X275798726Y-222850445D01*
X275798724Y-222850448D01*
X275792824Y-222857257D01*
X275732081Y-222990266D01*
X275711271Y-223135000D01*
X275711271Y-223596047D01*
X275711273Y-223596047D01*
X275711682Y-223599015D01*
X275710503Y-223695438D01*
X275711063Y-223699723D01*
X275711271Y-223706760D01*
X275711271Y-224096047D01*
X275711273Y-224096047D01*
X275711682Y-224099015D01*
X275710503Y-224195438D01*
X87833689Y-224195438D01*
X87834204Y-205945438D01*
X275710503Y-205945438D01*
X275711063Y-205949723D01*
X275711271Y-205956760D01*
X275711271Y-206385000D01*
X275716500Y-206458111D01*
X275757696Y-206598411D01*
X275762567Y-206605990D01*
X275831878Y-206713841D01*
X275831880Y-206713844D01*
X275836750Y-206721421D01*
X275843560Y-206727322D01*
X275940445Y-206811274D01*
X275940448Y-206811276D01*
X275947257Y-206817176D01*
X276080266Y-206877919D01*
X276089189Y-206879202D01*
X276105100Y-206881490D01*
X276225000Y-206898729D01*
X276712322Y-206898729D01*
X276714630Y-206898750D01*
X276778020Y-206899912D01*
X276805382Y-206896504D01*
X276918128Y-206882460D01*
X276918132Y-206882459D01*
X276922565Y-206881907D01*
X277060745Y-206844234D01*
X277140462Y-206809738D01*
X277210921Y-206801041D01*
X277274899Y-206831819D01*
X277312082Y-206892300D01*
X277316500Y-206925375D01*
X277316500Y-212183134D01*
X277323255Y-212245316D01*
X277374385Y-212381705D01*
X277461739Y-212498261D01*
X277578295Y-212585615D01*
X277714684Y-212636745D01*
X277776866Y-212643500D01*
X290873134Y-212643500D01*
X290935316Y-212636745D01*
X291071705Y-212585615D01*
X291188261Y-212498261D01*
X291275615Y-212381705D01*
X291326745Y-212245316D01*
X291333500Y-212183134D01*
X291333500Y-199086866D01*
X291326745Y-199024684D01*
X291275615Y-198888295D01*
X291188261Y-198771739D01*
X291071705Y-198684385D01*
X290935316Y-198633255D01*
X290873134Y-198626500D01*
X277776866Y-198626500D01*
X277714684Y-198633255D01*
X277578295Y-198684385D01*
X277461739Y-198771739D01*
X277374385Y-198888295D01*
X277323255Y-199024684D01*
X277316500Y-199086866D01*
X277316500Y-204344626D01*
X277296498Y-204412747D01*
X277242842Y-204459240D01*
X277172568Y-204469344D01*
X277137649Y-204459006D01*
X277088145Y-204436132D01*
X277088143Y-204436131D01*
X277084076Y-204434252D01*
X277012167Y-204412747D01*
X276951156Y-204394501D01*
X276951151Y-204394500D01*
X276946858Y-204393216D01*
X276942426Y-204392554D01*
X276942423Y-204392553D01*
X276807235Y-204372350D01*
X276807232Y-204372350D01*
X276802804Y-204371688D01*
X276728145Y-204371232D01*
X276664055Y-204370840D01*
X276664050Y-204370840D01*
X276659583Y-204370813D01*
X276657139Y-204371148D01*
X276653344Y-204371271D01*
X276225000Y-204371271D01*
X276209914Y-204372350D01*
X276158627Y-204376018D01*
X276158626Y-204376018D01*
X276151889Y-204376500D01*
X276097218Y-204392553D01*
X276020235Y-204415157D01*
X276020233Y-204415158D01*
X276011589Y-204417696D01*
X275982902Y-204436132D01*
X275896159Y-204491878D01*
X275896156Y-204491880D01*
X275888579Y-204496750D01*
X275882678Y-204503560D01*
X275798726Y-204600445D01*
X275798724Y-204600448D01*
X275792824Y-204607257D01*
X275732081Y-204740266D01*
X275711271Y-204885000D01*
X275711271Y-205346047D01*
X275711273Y-205346047D01*
X275711682Y-205349015D01*
X275710503Y-205445438D01*
X275711063Y-205449723D01*
X275711271Y-205456760D01*
X275711271Y-205846047D01*
X275711273Y-205846047D01*
X275711682Y-205849015D01*
X275710503Y-205945438D01*
X87834204Y-205945438D01*
X87834505Y-195260000D01*
X134311553Y-195260000D01*
X134330464Y-195801551D01*
X134387106Y-196340463D01*
X134481203Y-196874111D01*
X134612296Y-197399896D01*
X134779746Y-197915255D01*
X134780571Y-197917296D01*
X134780575Y-197917308D01*
X134981910Y-198415630D01*
X134981916Y-198415643D01*
X134982738Y-198417678D01*
X134983702Y-198419654D01*
X134983704Y-198419659D01*
X135216374Y-198896703D01*
X135220283Y-198904718D01*
X135491224Y-199374000D01*
X135794239Y-199823240D01*
X136127855Y-200250248D01*
X136129322Y-200251877D01*
X136129331Y-200251888D01*
X136297601Y-200438769D01*
X136490444Y-200652943D01*
X136880240Y-201029365D01*
X136881920Y-201030775D01*
X136881927Y-201030781D01*
X137293649Y-201376257D01*
X137295345Y-201377680D01*
X137297128Y-201378976D01*
X137297139Y-201378984D01*
X137731948Y-201694890D01*
X137733736Y-201696189D01*
X138193276Y-201983342D01*
X138671729Y-202237740D01*
X138673735Y-202238633D01*
X138673745Y-202238638D01*
X139164767Y-202457255D01*
X139164773Y-202457257D01*
X139166762Y-202458143D01*
X139168811Y-202458889D01*
X139168819Y-202458892D01*
X139529205Y-202590061D01*
X139675963Y-202643477D01*
X140196852Y-202792839D01*
X140726892Y-202905503D01*
X141263499Y-202980918D01*
X141265687Y-202981071D01*
X141801870Y-203018565D01*
X141801874Y-203018565D01*
X141804060Y-203018718D01*
X142345940Y-203018718D01*
X142348126Y-203018565D01*
X142348130Y-203018565D01*
X142884313Y-202981071D01*
X142886501Y-202980918D01*
X143423108Y-202905503D01*
X143953148Y-202792839D01*
X144474037Y-202643477D01*
X144620795Y-202590061D01*
X144981181Y-202458892D01*
X144981189Y-202458889D01*
X144983238Y-202458143D01*
X144985227Y-202457257D01*
X144985233Y-202457255D01*
X145476255Y-202238638D01*
X145476265Y-202238633D01*
X145478271Y-202237740D01*
X145956724Y-201983342D01*
X146416264Y-201696189D01*
X146418052Y-201694890D01*
X146852861Y-201378984D01*
X146852872Y-201378976D01*
X146854655Y-201377680D01*
X146856351Y-201376257D01*
X147268073Y-201030781D01*
X147268080Y-201030775D01*
X147269760Y-201029365D01*
X147659556Y-200652943D01*
X147852399Y-200438769D01*
X148020669Y-200251888D01*
X148020678Y-200251877D01*
X148022145Y-200250248D01*
X148355761Y-199823240D01*
X148658776Y-199374000D01*
X148929717Y-198904718D01*
X148933627Y-198896703D01*
X149166296Y-198419659D01*
X149166298Y-198419654D01*
X149167262Y-198417678D01*
X149168084Y-198415643D01*
X149168090Y-198415630D01*
X149369425Y-197917308D01*
X149369429Y-197917296D01*
X149370254Y-197915255D01*
X149537704Y-197399896D01*
X149668797Y-196874111D01*
X149762894Y-196340463D01*
X149819536Y-195801551D01*
X149838447Y-195260000D01*
X149819536Y-194718449D01*
X149762894Y-194179537D01*
X149668797Y-193645889D01*
X149537704Y-193120104D01*
X149370254Y-192604745D01*
X149369425Y-192602692D01*
X149168090Y-192104370D01*
X149168084Y-192104357D01*
X149167262Y-192102322D01*
X148929717Y-191615282D01*
X148658776Y-191146000D01*
X148355761Y-190696760D01*
X148022145Y-190269752D01*
X148020678Y-190268123D01*
X148020669Y-190268112D01*
X147852399Y-190081231D01*
X147659556Y-189867057D01*
X147269760Y-189490635D01*
X147268080Y-189489225D01*
X147268073Y-189489219D01*
X146856351Y-189143743D01*
X146856349Y-189143741D01*
X146854655Y-189142320D01*
X146852872Y-189141024D01*
X146852861Y-189141016D01*
X146418052Y-188825110D01*
X146418051Y-188825109D01*
X146416264Y-188823811D01*
X145956724Y-188536658D01*
X145478271Y-188282260D01*
X145476265Y-188281367D01*
X145476255Y-188281362D01*
X144985233Y-188062745D01*
X144985227Y-188062743D01*
X144983238Y-188061857D01*
X144981189Y-188061111D01*
X144981181Y-188061108D01*
X144663380Y-187945438D01*
X275460503Y-187945438D01*
X275461063Y-187949723D01*
X275461271Y-187956760D01*
X275461271Y-188385000D01*
X275466500Y-188458111D01*
X275507696Y-188598411D01*
X275512567Y-188605990D01*
X275581878Y-188713841D01*
X275581880Y-188713844D01*
X275586750Y-188721421D01*
X275593560Y-188727322D01*
X275690445Y-188811274D01*
X275690448Y-188811276D01*
X275697257Y-188817176D01*
X275705454Y-188820920D01*
X275705455Y-188820920D01*
X275714630Y-188825110D01*
X275830266Y-188877919D01*
X275839189Y-188879202D01*
X275855100Y-188881490D01*
X275975000Y-188898729D01*
X276462322Y-188898729D01*
X276464630Y-188898750D01*
X276528020Y-188899912D01*
X276555382Y-188896504D01*
X276668128Y-188882460D01*
X276668132Y-188882459D01*
X276672565Y-188881907D01*
X276810745Y-188844234D01*
X276890462Y-188809738D01*
X276960921Y-188801041D01*
X277024899Y-188831819D01*
X277062082Y-188892300D01*
X277066500Y-188925375D01*
X277066500Y-194183134D01*
X277073255Y-194245316D01*
X277124385Y-194381705D01*
X277211739Y-194498261D01*
X277328295Y-194585615D01*
X277464684Y-194636745D01*
X277526866Y-194643500D01*
X290623134Y-194643500D01*
X290685316Y-194636745D01*
X290821705Y-194585615D01*
X290938261Y-194498261D01*
X291025615Y-194381705D01*
X291076745Y-194245316D01*
X291083500Y-194183134D01*
X291083500Y-181086866D01*
X291076745Y-181024684D01*
X291025615Y-180888295D01*
X290938261Y-180771739D01*
X290821705Y-180684385D01*
X290685316Y-180633255D01*
X290623134Y-180626500D01*
X277526866Y-180626500D01*
X277464684Y-180633255D01*
X277328295Y-180684385D01*
X277211739Y-180771739D01*
X277124385Y-180888295D01*
X277073255Y-181024684D01*
X277066500Y-181086866D01*
X277066500Y-186344626D01*
X277046498Y-186412747D01*
X276992842Y-186459240D01*
X276922568Y-186469344D01*
X276887649Y-186459006D01*
X276838145Y-186436132D01*
X276838143Y-186436131D01*
X276834076Y-186434252D01*
X276762167Y-186412747D01*
X276701156Y-186394501D01*
X276701151Y-186394500D01*
X276696858Y-186393216D01*
X276692426Y-186392554D01*
X276692423Y-186392553D01*
X276557235Y-186372350D01*
X276557232Y-186372350D01*
X276552804Y-186371688D01*
X276478145Y-186371232D01*
X276414055Y-186370840D01*
X276414050Y-186370840D01*
X276409583Y-186370813D01*
X276407139Y-186371148D01*
X276403344Y-186371271D01*
X275975000Y-186371271D01*
X275959914Y-186372350D01*
X275908627Y-186376018D01*
X275908626Y-186376018D01*
X275901889Y-186376500D01*
X275847218Y-186392553D01*
X275770235Y-186415157D01*
X275770233Y-186415158D01*
X275761589Y-186417696D01*
X275732902Y-186436132D01*
X275646159Y-186491878D01*
X275646156Y-186491880D01*
X275638579Y-186496750D01*
X275632678Y-186503560D01*
X275548726Y-186600445D01*
X275548724Y-186600448D01*
X275542824Y-186607257D01*
X275482081Y-186740266D01*
X275461271Y-186885000D01*
X275461271Y-187346047D01*
X275461273Y-187346047D01*
X275461682Y-187349015D01*
X275460503Y-187445438D01*
X275461063Y-187449723D01*
X275461271Y-187456760D01*
X275461271Y-187846047D01*
X275461273Y-187846047D01*
X275461682Y-187849015D01*
X275460503Y-187945438D01*
X144663380Y-187945438D01*
X144476111Y-187877278D01*
X144474037Y-187876523D01*
X144367755Y-187846047D01*
X143955272Y-187727770D01*
X143955271Y-187727770D01*
X143953148Y-187727161D01*
X143423108Y-187614497D01*
X142886501Y-187539082D01*
X142880351Y-187538652D01*
X142348130Y-187501435D01*
X142348126Y-187501435D01*
X142345940Y-187501282D01*
X141804060Y-187501282D01*
X141801874Y-187501435D01*
X141801870Y-187501435D01*
X141269649Y-187538652D01*
X141263499Y-187539082D01*
X140726892Y-187614497D01*
X140196852Y-187727161D01*
X140194729Y-187727770D01*
X140194728Y-187727770D01*
X139782246Y-187846047D01*
X139675963Y-187876523D01*
X139673889Y-187877278D01*
X139168819Y-188061108D01*
X139168811Y-188061111D01*
X139166762Y-188061857D01*
X139164773Y-188062743D01*
X139164767Y-188062745D01*
X138673746Y-188281362D01*
X138671729Y-188282260D01*
X138669804Y-188283284D01*
X138669799Y-188283286D01*
X138195225Y-188535622D01*
X138195220Y-188535625D01*
X138193277Y-188536658D01*
X138191418Y-188537820D01*
X138191407Y-188537826D01*
X137931228Y-188700404D01*
X137733736Y-188823811D01*
X137731949Y-188825109D01*
X137731948Y-188825110D01*
X137297139Y-189141016D01*
X137297128Y-189141024D01*
X137295345Y-189142320D01*
X137293651Y-189143741D01*
X137293649Y-189143743D01*
X136881927Y-189489219D01*
X136881920Y-189489225D01*
X136880240Y-189490635D01*
X136490444Y-189867057D01*
X136297601Y-190081231D01*
X136129331Y-190268112D01*
X136129322Y-190268123D01*
X136127855Y-190269752D01*
X135794239Y-190696760D01*
X135491224Y-191146000D01*
X135220283Y-191615282D01*
X134982738Y-192102322D01*
X134981916Y-192104357D01*
X134981910Y-192104370D01*
X134780575Y-192602692D01*
X134779746Y-192604745D01*
X134612296Y-193120104D01*
X134481203Y-193645889D01*
X134387106Y-194179537D01*
X134330464Y-194718449D01*
X134311553Y-195260000D01*
X87834505Y-195260000D01*
X87835052Y-175873297D01*
X87835233Y-169445438D01*
X275460503Y-169445438D01*
X275461063Y-169449723D01*
X275461271Y-169456760D01*
X275461271Y-169885000D01*
X275466500Y-169958111D01*
X275507696Y-170098411D01*
X275512567Y-170105990D01*
X275581878Y-170213841D01*
X275581880Y-170213844D01*
X275586750Y-170221421D01*
X275593560Y-170227322D01*
X275690445Y-170311274D01*
X275690448Y-170311276D01*
X275697257Y-170317176D01*
X275830266Y-170377919D01*
X275839189Y-170379202D01*
X275855100Y-170381490D01*
X275975000Y-170398729D01*
X276462322Y-170398729D01*
X276464630Y-170398750D01*
X276528020Y-170399912D01*
X276555382Y-170396504D01*
X276668128Y-170382460D01*
X276668132Y-170382459D01*
X276672565Y-170381907D01*
X276810745Y-170344234D01*
X276890462Y-170309738D01*
X276960921Y-170301041D01*
X277024899Y-170331819D01*
X277062082Y-170392300D01*
X277066500Y-170425375D01*
X277066500Y-175683134D01*
X277073255Y-175745316D01*
X277124385Y-175881705D01*
X277211739Y-175998261D01*
X277328295Y-176085615D01*
X277464684Y-176136745D01*
X277526866Y-176143500D01*
X290623134Y-176143500D01*
X290685316Y-176136745D01*
X290821705Y-176085615D01*
X290938261Y-175998261D01*
X291025615Y-175881705D01*
X291076745Y-175745316D01*
X291083500Y-175683134D01*
X291083500Y-162586866D01*
X291076745Y-162524684D01*
X291025615Y-162388295D01*
X290938261Y-162271739D01*
X290821705Y-162184385D01*
X290685316Y-162133255D01*
X290623134Y-162126500D01*
X277526866Y-162126500D01*
X277464684Y-162133255D01*
X277328295Y-162184385D01*
X277211739Y-162271739D01*
X277124385Y-162388295D01*
X277073255Y-162524684D01*
X277066500Y-162586866D01*
X277066500Y-167844626D01*
X277046498Y-167912747D01*
X276992842Y-167959240D01*
X276922568Y-167969344D01*
X276887649Y-167959006D01*
X276838145Y-167936132D01*
X276838143Y-167936131D01*
X276834076Y-167934252D01*
X276762167Y-167912747D01*
X276701156Y-167894501D01*
X276701151Y-167894500D01*
X276696858Y-167893216D01*
X276692426Y-167892554D01*
X276692423Y-167892553D01*
X276557235Y-167872350D01*
X276557232Y-167872350D01*
X276552804Y-167871688D01*
X276478145Y-167871232D01*
X276414055Y-167870840D01*
X276414050Y-167870840D01*
X276409583Y-167870813D01*
X276407139Y-167871148D01*
X276403344Y-167871271D01*
X275975000Y-167871271D01*
X275959914Y-167872350D01*
X275908627Y-167876018D01*
X275908626Y-167876018D01*
X275901889Y-167876500D01*
X275847218Y-167892553D01*
X275770235Y-167915157D01*
X275770233Y-167915158D01*
X275761589Y-167917696D01*
X275732902Y-167936132D01*
X275646159Y-167991878D01*
X275646156Y-167991880D01*
X275638579Y-167996750D01*
X275632678Y-168003560D01*
X275548726Y-168100445D01*
X275548724Y-168100448D01*
X275542824Y-168107257D01*
X275482081Y-168240266D01*
X275461271Y-168385000D01*
X275461271Y-168846047D01*
X275461273Y-168846047D01*
X275461682Y-168849015D01*
X275460503Y-168945438D01*
X275461063Y-168949723D01*
X275461271Y-168956760D01*
X275461271Y-169346047D01*
X275461273Y-169346047D01*
X275461682Y-169349015D01*
X275460503Y-169445438D01*
X87835233Y-169445438D01*
X87836222Y-134385000D01*
X136661496Y-134385000D01*
X136662186Y-134391565D01*
X136678187Y-134543803D01*
X136681458Y-134574928D01*
X136740473Y-134756556D01*
X136835960Y-134921944D01*
X136963747Y-135063866D01*
X137062843Y-135135864D01*
X137112904Y-135172235D01*
X137118248Y-135176118D01*
X137124276Y-135178802D01*
X137124278Y-135178803D01*
X137286681Y-135251109D01*
X137292712Y-135253794D01*
X137386113Y-135273647D01*
X137473056Y-135292128D01*
X137473061Y-135292128D01*
X137479513Y-135293500D01*
X137670487Y-135293500D01*
X137676939Y-135292128D01*
X137676944Y-135292128D01*
X137763887Y-135273647D01*
X137857288Y-135253794D01*
X137863319Y-135251109D01*
X138025722Y-135178803D01*
X138025724Y-135178802D01*
X138031752Y-135176118D01*
X138037091Y-135172239D01*
X138037098Y-135172235D01*
X138043528Y-135167563D01*
X138117587Y-135143500D01*
X191958629Y-135143500D01*
X192026750Y-135163502D01*
X192047724Y-135180405D01*
X207154875Y-150287556D01*
X207185613Y-150337714D01*
X207240473Y-150506556D01*
X207335960Y-150671944D01*
X207463747Y-150813866D01*
X207618248Y-150926118D01*
X207624276Y-150928802D01*
X207624278Y-150928803D01*
X207687071Y-150956760D01*
X207792712Y-151003794D01*
X207886112Y-151023647D01*
X207973056Y-151042128D01*
X207973061Y-151042128D01*
X207979513Y-151043500D01*
X208170487Y-151043500D01*
X208176939Y-151042128D01*
X208176944Y-151042128D01*
X208263888Y-151023647D01*
X208357288Y-151003794D01*
X208462929Y-150956760D01*
X208488359Y-150945438D01*
X275460503Y-150945438D01*
X275461063Y-150949723D01*
X275461271Y-150956760D01*
X275461271Y-151385000D01*
X275466500Y-151458111D01*
X275507696Y-151598411D01*
X275512567Y-151605990D01*
X275581878Y-151713841D01*
X275581880Y-151713844D01*
X275586750Y-151721421D01*
X275593560Y-151727322D01*
X275690445Y-151811274D01*
X275690448Y-151811276D01*
X275697257Y-151817176D01*
X275830266Y-151877919D01*
X275839189Y-151879202D01*
X275855100Y-151881490D01*
X275975000Y-151898729D01*
X276462322Y-151898729D01*
X276464630Y-151898750D01*
X276528020Y-151899912D01*
X276555382Y-151896504D01*
X276668128Y-151882460D01*
X276668132Y-151882459D01*
X276672565Y-151881907D01*
X276810745Y-151844234D01*
X276890459Y-151809739D01*
X276960919Y-151801042D01*
X277024897Y-151831820D01*
X277062080Y-151892301D01*
X277066498Y-151925376D01*
X277066498Y-157183134D01*
X277073253Y-157245316D01*
X277124383Y-157381705D01*
X277211737Y-157498261D01*
X277328293Y-157585615D01*
X277464682Y-157636745D01*
X277526864Y-157643500D01*
X290623132Y-157643500D01*
X290685314Y-157636745D01*
X290821703Y-157585615D01*
X290938259Y-157498261D01*
X291025613Y-157381705D01*
X291076743Y-157245316D01*
X291083498Y-157183134D01*
X291083498Y-144086866D01*
X291076743Y-144024684D01*
X291025613Y-143888295D01*
X290938259Y-143771739D01*
X290821703Y-143684385D01*
X290685314Y-143633255D01*
X290623132Y-143626500D01*
X277526864Y-143626500D01*
X277464682Y-143633255D01*
X277328293Y-143684385D01*
X277211737Y-143771739D01*
X277124383Y-143888295D01*
X277073253Y-144024684D01*
X277066498Y-144086866D01*
X277066498Y-149344625D01*
X277046496Y-149412746D01*
X276992840Y-149459239D01*
X276922566Y-149469343D01*
X276887648Y-149459005D01*
X276838151Y-149436134D01*
X276838140Y-149436130D01*
X276834076Y-149434252D01*
X276762163Y-149412746D01*
X276701156Y-149394501D01*
X276701151Y-149394500D01*
X276696858Y-149393216D01*
X276692426Y-149392554D01*
X276692423Y-149392553D01*
X276557235Y-149372350D01*
X276557232Y-149372350D01*
X276552804Y-149371688D01*
X276478145Y-149371232D01*
X276414055Y-149370840D01*
X276414050Y-149370840D01*
X276409583Y-149370813D01*
X276407139Y-149371148D01*
X276403344Y-149371271D01*
X275975000Y-149371271D01*
X275959914Y-149372350D01*
X275908627Y-149376018D01*
X275908626Y-149376018D01*
X275901889Y-149376500D01*
X275847218Y-149392553D01*
X275770235Y-149415157D01*
X275770233Y-149415158D01*
X275761589Y-149417696D01*
X275732899Y-149436134D01*
X275646159Y-149491878D01*
X275646156Y-149491880D01*
X275638579Y-149496750D01*
X275632678Y-149503560D01*
X275548726Y-149600445D01*
X275548724Y-149600448D01*
X275542824Y-149607257D01*
X275482081Y-149740266D01*
X275461271Y-149885000D01*
X275461271Y-150346047D01*
X275461273Y-150346047D01*
X275461682Y-150349015D01*
X275460503Y-150445438D01*
X275461063Y-150449723D01*
X275461271Y-150456760D01*
X275461271Y-150846047D01*
X275461273Y-150846047D01*
X275461682Y-150849015D01*
X275460503Y-150945438D01*
X208488359Y-150945438D01*
X208525722Y-150928803D01*
X208525724Y-150928802D01*
X208531752Y-150926118D01*
X208686253Y-150813866D01*
X208814040Y-150671944D01*
X208909527Y-150506556D01*
X208968542Y-150324928D01*
X208988504Y-150135000D01*
X208968542Y-149945072D01*
X208909527Y-149763444D01*
X208814040Y-149598056D01*
X208698147Y-149469343D01*
X208690675Y-149461045D01*
X208690674Y-149461044D01*
X208686253Y-149456134D01*
X208569450Y-149371271D01*
X208537094Y-149347763D01*
X208537093Y-149347762D01*
X208531752Y-149343882D01*
X208525724Y-149341198D01*
X208525722Y-149341197D01*
X208363319Y-149268891D01*
X208363318Y-149268891D01*
X208357288Y-149266206D01*
X208350833Y-149264834D01*
X208350824Y-149264831D01*
X208294228Y-149252801D01*
X208231331Y-149218650D01*
X193295405Y-134282724D01*
X193261379Y-134220412D01*
X193258500Y-134193629D01*
X193258500Y-131286999D01*
X193275381Y-131223999D01*
X193291428Y-131196206D01*
X193334527Y-131121556D01*
X193393542Y-130939928D01*
X193406501Y-130816635D01*
X193412814Y-130756565D01*
X193413504Y-130750000D01*
X193401389Y-130634729D01*
X193394232Y-130566635D01*
X193394232Y-130566633D01*
X193393542Y-130560072D01*
X193334527Y-130378444D01*
X193275381Y-130276000D01*
X193258500Y-130213001D01*
X193258500Y-129286999D01*
X193275381Y-129223999D01*
X193331223Y-129127279D01*
X193331224Y-129127278D01*
X193334527Y-129121556D01*
X193393542Y-128939928D01*
X193402898Y-128850916D01*
X193412814Y-128756565D01*
X193413504Y-128750000D01*
X193399439Y-128616179D01*
X193394232Y-128566635D01*
X193394232Y-128566633D01*
X193393542Y-128560072D01*
X193334527Y-128378444D01*
X193325380Y-128362602D01*
X193308500Y-128299603D01*
X193308500Y-111192632D01*
X193328502Y-111124511D01*
X193361331Y-111090054D01*
X193429860Y-111041173D01*
X193588096Y-110883489D01*
X193647594Y-110800689D01*
X193718453Y-110702077D01*
X193719776Y-110703028D01*
X193766645Y-110659857D01*
X193836580Y-110647625D01*
X193902026Y-110675144D01*
X193929875Y-110706994D01*
X193989987Y-110805088D01*
X194136250Y-110973938D01*
X194308126Y-111116632D01*
X194501000Y-111229338D01*
X194505825Y-111231180D01*
X194505826Y-111231181D01*
X194578612Y-111258975D01*
X194709692Y-111309030D01*
X194714760Y-111310061D01*
X194714763Y-111310062D01*
X194775353Y-111322389D01*
X194928597Y-111353567D01*
X194933772Y-111353757D01*
X194933774Y-111353757D01*
X195146673Y-111361564D01*
X195146677Y-111361564D01*
X195151837Y-111361753D01*
X195156957Y-111361097D01*
X195156959Y-111361097D01*
X195235512Y-111351034D01*
X195373416Y-111333368D01*
X195419826Y-111319444D01*
X195490821Y-111319026D01*
X195545129Y-111351034D01*
X195579595Y-111385500D01*
X195613621Y-111447812D01*
X195616500Y-111474595D01*
X195616500Y-130297476D01*
X195596498Y-130365597D01*
X195584142Y-130381779D01*
X195510960Y-130463056D01*
X195415473Y-130628444D01*
X195356458Y-130810072D01*
X195355768Y-130816633D01*
X195355768Y-130816635D01*
X195342810Y-130939928D01*
X195336496Y-131000000D01*
X195337186Y-131006565D01*
X195349992Y-131128404D01*
X195356458Y-131189928D01*
X195415473Y-131371556D01*
X195510960Y-131536944D01*
X195638747Y-131678866D01*
X195793248Y-131791118D01*
X195799276Y-131793802D01*
X195799278Y-131793803D01*
X195961685Y-131866111D01*
X195961688Y-131866112D01*
X195967712Y-131868794D01*
X195974162Y-131870165D01*
X195974679Y-131870333D01*
X196033284Y-131910408D01*
X196060919Y-131975805D01*
X196048811Y-132045762D01*
X196024835Y-132079260D01*
X195299500Y-132804595D01*
X195237188Y-132838621D01*
X195210405Y-132841500D01*
X195154513Y-132841500D01*
X195148061Y-132842872D01*
X195148056Y-132842872D01*
X195061112Y-132861353D01*
X194967712Y-132881206D01*
X194961682Y-132883891D01*
X194961681Y-132883891D01*
X194799278Y-132956197D01*
X194799276Y-132956198D01*
X194793248Y-132958882D01*
X194787907Y-132962762D01*
X194787906Y-132962763D01*
X194774810Y-132972278D01*
X194638747Y-133071134D01*
X194510960Y-133213056D01*
X194507659Y-133218774D01*
X194432813Y-133348411D01*
X194415473Y-133378444D01*
X194356458Y-133560072D01*
X194355768Y-133566633D01*
X194355768Y-133566635D01*
X194346257Y-133657128D01*
X194336496Y-133750000D01*
X194356458Y-133939928D01*
X194415473Y-134121556D01*
X194510960Y-134286944D01*
X194638747Y-134428866D01*
X194793248Y-134541118D01*
X194799276Y-134543802D01*
X194799278Y-134543803D01*
X194961681Y-134616109D01*
X194967712Y-134618794D01*
X195061113Y-134638647D01*
X195148056Y-134657128D01*
X195148061Y-134657128D01*
X195154513Y-134658500D01*
X195345487Y-134658500D01*
X195351939Y-134657128D01*
X195351944Y-134657128D01*
X195438887Y-134638647D01*
X195532288Y-134618794D01*
X195538319Y-134616109D01*
X195700722Y-134543803D01*
X195700724Y-134543802D01*
X195706752Y-134541118D01*
X195861253Y-134428866D01*
X195989040Y-134286944D01*
X196084527Y-134121556D01*
X196143542Y-133939928D01*
X196160907Y-133774706D01*
X196187920Y-133709050D01*
X196197122Y-133698782D01*
X197551216Y-132344688D01*
X197613528Y-132310662D01*
X197684343Y-132315727D01*
X197742247Y-132359722D01*
X197767424Y-132394375D01*
X197773941Y-132404296D01*
X197796447Y-132442351D01*
X197810768Y-132456672D01*
X197823608Y-132471705D01*
X197835517Y-132488096D01*
X197841625Y-132493149D01*
X197869587Y-132516281D01*
X197878367Y-132524271D01*
X198052878Y-132698782D01*
X198086904Y-132761094D01*
X198089092Y-132774703D01*
X198106458Y-132939928D01*
X198165473Y-133121556D01*
X198260960Y-133286944D01*
X198388747Y-133428866D01*
X198455441Y-133477322D01*
X198536738Y-133536388D01*
X198543248Y-133541118D01*
X198549276Y-133543802D01*
X198549278Y-133543803D01*
X198711681Y-133616109D01*
X198717712Y-133618794D01*
X198811112Y-133638647D01*
X198898056Y-133657128D01*
X198898061Y-133657128D01*
X198904513Y-133658500D01*
X199095487Y-133658500D01*
X199101939Y-133657128D01*
X199101944Y-133657128D01*
X199188888Y-133638647D01*
X199282288Y-133618794D01*
X199288319Y-133616109D01*
X199450722Y-133543803D01*
X199450724Y-133543802D01*
X199456752Y-133541118D01*
X199463263Y-133536388D01*
X199544559Y-133477322D01*
X199611253Y-133428866D01*
X199739040Y-133286944D01*
X199834527Y-133121556D01*
X199893542Y-132939928D01*
X199900348Y-132875178D01*
X199912814Y-132756565D01*
X199913504Y-132750000D01*
X199907769Y-132695438D01*
X275710503Y-132695438D01*
X275711063Y-132699723D01*
X275711271Y-132706760D01*
X275711271Y-133135000D01*
X275716500Y-133208111D01*
X275757696Y-133348411D01*
X275762567Y-133355990D01*
X275831878Y-133463841D01*
X275831880Y-133463844D01*
X275836750Y-133471421D01*
X275843560Y-133477322D01*
X275940445Y-133561274D01*
X275940448Y-133561276D01*
X275947257Y-133567176D01*
X276080266Y-133627919D01*
X276089189Y-133629202D01*
X276105100Y-133631490D01*
X276225000Y-133648729D01*
X276712322Y-133648729D01*
X276714630Y-133648750D01*
X276778020Y-133649912D01*
X276805382Y-133646504D01*
X276918128Y-133632460D01*
X276918132Y-133632459D01*
X276922565Y-133631907D01*
X277060745Y-133594234D01*
X277140462Y-133559738D01*
X277210921Y-133551041D01*
X277274899Y-133581819D01*
X277312082Y-133642300D01*
X277316500Y-133675375D01*
X277316500Y-138933134D01*
X277323255Y-138995316D01*
X277374385Y-139131705D01*
X277461739Y-139248261D01*
X277578295Y-139335615D01*
X277714684Y-139386745D01*
X277776866Y-139393500D01*
X290873134Y-139393500D01*
X290935316Y-139386745D01*
X291071705Y-139335615D01*
X291188261Y-139248261D01*
X291275615Y-139131705D01*
X291326745Y-138995316D01*
X291333500Y-138933134D01*
X291333500Y-125836866D01*
X291326745Y-125774684D01*
X291275615Y-125638295D01*
X291188261Y-125521739D01*
X291071705Y-125434385D01*
X290935316Y-125383255D01*
X290873134Y-125376500D01*
X277776866Y-125376500D01*
X277714684Y-125383255D01*
X277578295Y-125434385D01*
X277461739Y-125521739D01*
X277374385Y-125638295D01*
X277323255Y-125774684D01*
X277316500Y-125836866D01*
X277316500Y-131094626D01*
X277296498Y-131162747D01*
X277242842Y-131209240D01*
X277172568Y-131219344D01*
X277137649Y-131209006D01*
X277088145Y-131186132D01*
X277088143Y-131186131D01*
X277084076Y-131184252D01*
X277005583Y-131160778D01*
X276951156Y-131144501D01*
X276951151Y-131144500D01*
X276946858Y-131143216D01*
X276942426Y-131142554D01*
X276942423Y-131142553D01*
X276807235Y-131122350D01*
X276807232Y-131122350D01*
X276802804Y-131121688D01*
X276728145Y-131121232D01*
X276664055Y-131120840D01*
X276664050Y-131120840D01*
X276659583Y-131120813D01*
X276657139Y-131121148D01*
X276653344Y-131121271D01*
X276225000Y-131121271D01*
X276209914Y-131122350D01*
X276158627Y-131126018D01*
X276158626Y-131126018D01*
X276151889Y-131126500D01*
X276097218Y-131142553D01*
X276020235Y-131165157D01*
X276020233Y-131165158D01*
X276011589Y-131167696D01*
X275972270Y-131192965D01*
X275896159Y-131241878D01*
X275896156Y-131241880D01*
X275888579Y-131246750D01*
X275882678Y-131253560D01*
X275798726Y-131350445D01*
X275798724Y-131350448D01*
X275792824Y-131357257D01*
X275732081Y-131490266D01*
X275711271Y-131635000D01*
X275711271Y-132096047D01*
X275711273Y-132096047D01*
X275711682Y-132099015D01*
X275710503Y-132195438D01*
X275711063Y-132199723D01*
X275711271Y-132206760D01*
X275711271Y-132596047D01*
X275711273Y-132596047D01*
X275711682Y-132599015D01*
X275710503Y-132695438D01*
X199907769Y-132695438D01*
X199893542Y-132560072D01*
X199834527Y-132378444D01*
X199806877Y-132330552D01*
X199742341Y-132218774D01*
X199739040Y-132213056D01*
X199726314Y-132198923D01*
X199695600Y-132134915D01*
X199704366Y-132064462D01*
X199745893Y-132012680D01*
X199855909Y-131932749D01*
X199855911Y-131932747D01*
X199861253Y-131928866D01*
X199989040Y-131786944D01*
X200084527Y-131621556D01*
X200143542Y-131439928D01*
X200163504Y-131250000D01*
X200156594Y-131184252D01*
X200144232Y-131066635D01*
X200144232Y-131066633D01*
X200143542Y-131060072D01*
X200084527Y-130878444D01*
X199989040Y-130713056D01*
X199915863Y-130631785D01*
X199885147Y-130567779D01*
X199883500Y-130547476D01*
X199883500Y-120814594D01*
X199903502Y-120746473D01*
X199920405Y-120725499D01*
X202975499Y-117670405D01*
X203037811Y-117636379D01*
X203064594Y-117633500D01*
X209041800Y-117633500D01*
X209109921Y-117653502D01*
X209129147Y-117669843D01*
X209129420Y-117669540D01*
X209134332Y-117673963D01*
X209138747Y-117678866D01*
X209293248Y-117791118D01*
X209299276Y-117793802D01*
X209299278Y-117793803D01*
X209461681Y-117866109D01*
X209467712Y-117868794D01*
X209542680Y-117884729D01*
X209648056Y-117907128D01*
X209648061Y-117907128D01*
X209654513Y-117908500D01*
X209845487Y-117908500D01*
X209851939Y-117907128D01*
X209851944Y-117907128D01*
X209957320Y-117884729D01*
X210032288Y-117868794D01*
X210038319Y-117866109D01*
X210200722Y-117793803D01*
X210200724Y-117793802D01*
X210206752Y-117791118D01*
X210361253Y-117678866D01*
X210398095Y-117637949D01*
X210484621Y-117541852D01*
X210484622Y-117541851D01*
X210489040Y-117536944D01*
X210555887Y-117421162D01*
X210581223Y-117377279D01*
X210581224Y-117377278D01*
X210584527Y-117371556D01*
X210643542Y-117189928D01*
X210663504Y-117000000D01*
X212336496Y-117000000D01*
X212356458Y-117189928D01*
X212415473Y-117371556D01*
X212418776Y-117377278D01*
X212418777Y-117377279D01*
X212444113Y-117421162D01*
X212510960Y-117536944D01*
X212515378Y-117541851D01*
X212515379Y-117541852D01*
X212601905Y-117637949D01*
X212638747Y-117678866D01*
X212793248Y-117791118D01*
X212799276Y-117793802D01*
X212799278Y-117793803D01*
X212961681Y-117866109D01*
X212967712Y-117868794D01*
X213042680Y-117884729D01*
X213148056Y-117907128D01*
X213148061Y-117907128D01*
X213154513Y-117908500D01*
X213345487Y-117908500D01*
X213351939Y-117907128D01*
X213351944Y-117907128D01*
X213457320Y-117884729D01*
X213532288Y-117868794D01*
X213538319Y-117866109D01*
X213700722Y-117793803D01*
X213700724Y-117793802D01*
X213706752Y-117791118D01*
X213861253Y-117678866D01*
X213865668Y-117673963D01*
X213870580Y-117669540D01*
X213871705Y-117670789D01*
X213925014Y-117637949D01*
X213958200Y-117633500D01*
X216176233Y-117633500D01*
X216187416Y-117634027D01*
X216194909Y-117635702D01*
X216202835Y-117635453D01*
X216202836Y-117635453D01*
X216262986Y-117633562D01*
X216266945Y-117633500D01*
X216294856Y-117633500D01*
X216298791Y-117633003D01*
X216298856Y-117632995D01*
X216310693Y-117632062D01*
X216342951Y-117631048D01*
X216346970Y-117630922D01*
X216354889Y-117630673D01*
X216374343Y-117625021D01*
X216393700Y-117621013D01*
X216405930Y-117619468D01*
X216405931Y-117619468D01*
X216413797Y-117618474D01*
X216421168Y-117615555D01*
X216421170Y-117615555D01*
X216454912Y-117602196D01*
X216466142Y-117598351D01*
X216500983Y-117588229D01*
X216500984Y-117588229D01*
X216508593Y-117586018D01*
X216515412Y-117581985D01*
X216515417Y-117581983D01*
X216526028Y-117575707D01*
X216543776Y-117567012D01*
X216562617Y-117559552D01*
X216598387Y-117533564D01*
X216608307Y-117527048D01*
X216639535Y-117508580D01*
X216639538Y-117508578D01*
X216646362Y-117504542D01*
X216660683Y-117490221D01*
X216675717Y-117477380D01*
X216685694Y-117470131D01*
X216692107Y-117465472D01*
X216720298Y-117431395D01*
X216728288Y-117422616D01*
X222799550Y-111351355D01*
X222861862Y-111317329D01*
X222913762Y-111316979D01*
X223093597Y-111353567D01*
X223098772Y-111353757D01*
X223098774Y-111353757D01*
X223311673Y-111361564D01*
X223311677Y-111361564D01*
X223316837Y-111361753D01*
X223321957Y-111361097D01*
X223321959Y-111361097D01*
X223533288Y-111334025D01*
X223533289Y-111334025D01*
X223538416Y-111333368D01*
X223543376Y-111331880D01*
X223747429Y-111270661D01*
X223747434Y-111270659D01*
X223752384Y-111269174D01*
X223952994Y-111170896D01*
X224134860Y-111041173D01*
X224293096Y-110883489D01*
X224352594Y-110800689D01*
X224423453Y-110702077D01*
X224424776Y-110703028D01*
X224471645Y-110659857D01*
X224541580Y-110647625D01*
X224607026Y-110675144D01*
X224634875Y-110706994D01*
X224694987Y-110805088D01*
X224841250Y-110973938D01*
X225013126Y-111116632D01*
X225206000Y-111229338D01*
X225210825Y-111231180D01*
X225210826Y-111231181D01*
X225283612Y-111258975D01*
X225414692Y-111309030D01*
X225419760Y-111310061D01*
X225419763Y-111310062D01*
X225480353Y-111322389D01*
X225633597Y-111353567D01*
X225638772Y-111353757D01*
X225638774Y-111353757D01*
X225851673Y-111361564D01*
X225851677Y-111361564D01*
X225856837Y-111361753D01*
X225861957Y-111361097D01*
X225861959Y-111361097D01*
X226073288Y-111334025D01*
X226073289Y-111334025D01*
X226078416Y-111333368D01*
X226083376Y-111331880D01*
X226287429Y-111270661D01*
X226287434Y-111270659D01*
X226292384Y-111269174D01*
X226492994Y-111170896D01*
X226674860Y-111041173D01*
X226833096Y-110883489D01*
X226892594Y-110800689D01*
X226963453Y-110702077D01*
X226964640Y-110702930D01*
X227011960Y-110659362D01*
X227081897Y-110647145D01*
X227147338Y-110674678D01*
X227175166Y-110706511D01*
X227232694Y-110800388D01*
X227238777Y-110808699D01*
X227378213Y-110969667D01*
X227385580Y-110976883D01*
X227549434Y-111112916D01*
X227557881Y-111118831D01*
X227741756Y-111226279D01*
X227751042Y-111230729D01*
X227950001Y-111306703D01*
X227959899Y-111309579D01*
X228063250Y-111330606D01*
X228077299Y-111329410D01*
X228081000Y-111319065D01*
X228081000Y-111318517D01*
X228589000Y-111318517D01*
X228593064Y-111332359D01*
X228606478Y-111334393D01*
X228613184Y-111333534D01*
X228623262Y-111331392D01*
X228827255Y-111270191D01*
X228836842Y-111266433D01*
X229028095Y-111172739D01*
X229036945Y-111167464D01*
X229210328Y-111043792D01*
X229218200Y-111037139D01*
X229369052Y-110886812D01*
X229375730Y-110878965D01*
X229500003Y-110706020D01*
X229505313Y-110697183D01*
X229599670Y-110506267D01*
X229603469Y-110496672D01*
X229665377Y-110292910D01*
X229667555Y-110282837D01*
X229668986Y-110271962D01*
X229666775Y-110257778D01*
X229653617Y-110254000D01*
X228607115Y-110254000D01*
X228591876Y-110258475D01*
X228590671Y-110259865D01*
X228589000Y-110267548D01*
X228589000Y-111318517D01*
X228081000Y-111318517D01*
X228081000Y-109727885D01*
X228589000Y-109727885D01*
X228593475Y-109743124D01*
X228594865Y-109744329D01*
X228602548Y-109746000D01*
X229653344Y-109746000D01*
X229666875Y-109742027D01*
X229668180Y-109732947D01*
X229626214Y-109565875D01*
X229622894Y-109556124D01*
X229537972Y-109360814D01*
X229533105Y-109351739D01*
X229417426Y-109172926D01*
X229411136Y-109164757D01*
X229267806Y-109007240D01*
X229260273Y-109000215D01*
X229093139Y-108868222D01*
X229084552Y-108862517D01*
X228898117Y-108759599D01*
X228888705Y-108755369D01*
X228687959Y-108684280D01*
X228677988Y-108681646D01*
X228606837Y-108668972D01*
X228593540Y-108670432D01*
X228589000Y-108684989D01*
X228589000Y-109727885D01*
X228081000Y-109727885D01*
X228081000Y-108683102D01*
X228077082Y-108669758D01*
X228062806Y-108667771D01*
X228024324Y-108673660D01*
X228014288Y-108676051D01*
X227811868Y-108742212D01*
X227802359Y-108746209D01*
X227613463Y-108844542D01*
X227604738Y-108850036D01*
X227434433Y-108977905D01*
X227426726Y-108984748D01*
X227279590Y-109138717D01*
X227273109Y-109146722D01*
X227168498Y-109300074D01*
X227113587Y-109345076D01*
X227043062Y-109353247D01*
X226979315Y-109321993D01*
X226958618Y-109297509D01*
X226877822Y-109172617D01*
X226877820Y-109172614D01*
X226875014Y-109168277D01*
X226724670Y-109003051D01*
X226720619Y-108999852D01*
X226720615Y-108999848D01*
X226553414Y-108867800D01*
X226553410Y-108867798D01*
X226549359Y-108864598D01*
X226513028Y-108844542D01*
X226421970Y-108794276D01*
X226353789Y-108756638D01*
X226348920Y-108754914D01*
X226348916Y-108754912D01*
X226148087Y-108683795D01*
X226148083Y-108683794D01*
X226143212Y-108682069D01*
X226138119Y-108681162D01*
X226138116Y-108681161D01*
X225928373Y-108643800D01*
X225928367Y-108643799D01*
X225923284Y-108642894D01*
X225849452Y-108641992D01*
X225705081Y-108640228D01*
X225705079Y-108640228D01*
X225699911Y-108640165D01*
X225479091Y-108673955D01*
X225266756Y-108743357D01*
X225068607Y-108846507D01*
X225064474Y-108849610D01*
X225064471Y-108849612D01*
X224981450Y-108911946D01*
X224889965Y-108980635D01*
X224864541Y-109007240D01*
X224778729Y-109097037D01*
X224735629Y-109142138D01*
X224628201Y-109299621D01*
X224573293Y-109344621D01*
X224502768Y-109352792D01*
X224439021Y-109321538D01*
X224418324Y-109297054D01*
X224337822Y-109172617D01*
X224337820Y-109172614D01*
X224335014Y-109168277D01*
X224184670Y-109003051D01*
X224180619Y-108999852D01*
X224180615Y-108999848D01*
X224013414Y-108867800D01*
X224013410Y-108867798D01*
X224009359Y-108864598D01*
X223973028Y-108844542D01*
X223881970Y-108794276D01*
X223813789Y-108756638D01*
X223808920Y-108754914D01*
X223808916Y-108754912D01*
X223608087Y-108683795D01*
X223608083Y-108683794D01*
X223603212Y-108682069D01*
X223598119Y-108681162D01*
X223598116Y-108681161D01*
X223388373Y-108643800D01*
X223388367Y-108643799D01*
X223383284Y-108642894D01*
X223309452Y-108641992D01*
X223165081Y-108640228D01*
X223165079Y-108640228D01*
X223159911Y-108640165D01*
X222939091Y-108673955D01*
X222726756Y-108743357D01*
X222528607Y-108846507D01*
X222524474Y-108849610D01*
X222524471Y-108849612D01*
X222441450Y-108911946D01*
X222349965Y-108980635D01*
X222324541Y-109007240D01*
X222238729Y-109097037D01*
X222195629Y-109142138D01*
X222088201Y-109299621D01*
X222033293Y-109344621D01*
X221962768Y-109352792D01*
X221899021Y-109321538D01*
X221878324Y-109297054D01*
X221797822Y-109172617D01*
X221797820Y-109172614D01*
X221795014Y-109168277D01*
X221644670Y-109003051D01*
X221640619Y-108999852D01*
X221640615Y-108999848D01*
X221473414Y-108867800D01*
X221473410Y-108867798D01*
X221469359Y-108864598D01*
X221433028Y-108844542D01*
X221341970Y-108794276D01*
X221273789Y-108756638D01*
X221268920Y-108754914D01*
X221268916Y-108754912D01*
X221068087Y-108683795D01*
X221068083Y-108683794D01*
X221063212Y-108682069D01*
X221058119Y-108681162D01*
X221058116Y-108681161D01*
X220848373Y-108643800D01*
X220848367Y-108643799D01*
X220843284Y-108642894D01*
X220769452Y-108641992D01*
X220625081Y-108640228D01*
X220625079Y-108640228D01*
X220619911Y-108640165D01*
X220399091Y-108673955D01*
X220186756Y-108743357D01*
X219988607Y-108846507D01*
X219984474Y-108849610D01*
X219984471Y-108849612D01*
X219901450Y-108911946D01*
X219809965Y-108980635D01*
X219731360Y-109062891D01*
X219729283Y-109065064D01*
X219667759Y-109100494D01*
X219596846Y-109097037D01*
X219539060Y-109055791D01*
X219520207Y-109022243D01*
X219478767Y-108911703D01*
X219475615Y-108903295D01*
X219388261Y-108786739D01*
X219271705Y-108699385D01*
X219135316Y-108648255D01*
X219073134Y-108641500D01*
X217276866Y-108641500D01*
X217214684Y-108648255D01*
X217078295Y-108699385D01*
X216961739Y-108786739D01*
X216874385Y-108903295D01*
X216823255Y-109039684D01*
X216816500Y-109101866D01*
X216816500Y-110898134D01*
X216823255Y-110960316D01*
X216874385Y-111096705D01*
X216961739Y-111213261D01*
X217078295Y-111300615D01*
X217214684Y-111351745D01*
X217276866Y-111358500D01*
X219073134Y-111358500D01*
X219135316Y-111351745D01*
X219271705Y-111300615D01*
X219388261Y-111213261D01*
X219475615Y-111096705D01*
X219497799Y-111037529D01*
X219519598Y-110979382D01*
X219562240Y-110922618D01*
X219628802Y-110897918D01*
X219698150Y-110913126D01*
X219732817Y-110941114D01*
X219761250Y-110973938D01*
X219933126Y-111116632D01*
X220126000Y-111229338D01*
X220130825Y-111231180D01*
X220130826Y-111231181D01*
X220203612Y-111258975D01*
X220334692Y-111309030D01*
X220339760Y-111310061D01*
X220339763Y-111310062D01*
X220400353Y-111322389D01*
X220553597Y-111353567D01*
X220558771Y-111353757D01*
X220558773Y-111353757D01*
X220620898Y-111356035D01*
X220700650Y-111358959D01*
X220767991Y-111381443D01*
X220812487Y-111436767D01*
X220820009Y-111507364D01*
X220785127Y-111573969D01*
X218400942Y-113958153D01*
X216029500Y-116329595D01*
X215967188Y-116363621D01*
X215940405Y-116366500D01*
X213958200Y-116366500D01*
X213890079Y-116346498D01*
X213870853Y-116330157D01*
X213870580Y-116330460D01*
X213865668Y-116326037D01*
X213861253Y-116321134D01*
X213791434Y-116270407D01*
X213712094Y-116212763D01*
X213712093Y-116212762D01*
X213706752Y-116208882D01*
X213700724Y-116206198D01*
X213700722Y-116206197D01*
X213538319Y-116133891D01*
X213538318Y-116133891D01*
X213532288Y-116131206D01*
X213438887Y-116111353D01*
X213351944Y-116092872D01*
X213351939Y-116092872D01*
X213345487Y-116091500D01*
X213154513Y-116091500D01*
X213148061Y-116092872D01*
X213148056Y-116092872D01*
X213061113Y-116111353D01*
X212967712Y-116131206D01*
X212961682Y-116133891D01*
X212961681Y-116133891D01*
X212799278Y-116206197D01*
X212799276Y-116206198D01*
X212793248Y-116208882D01*
X212787907Y-116212762D01*
X212787906Y-116212763D01*
X212761078Y-116232255D01*
X212638747Y-116321134D01*
X212634326Y-116326044D01*
X212634325Y-116326045D01*
X212538249Y-116432749D01*
X212510960Y-116463056D01*
X212465891Y-116541118D01*
X212422595Y-116616109D01*
X212415473Y-116628444D01*
X212356458Y-116810072D01*
X212336496Y-117000000D01*
X210663504Y-117000000D01*
X210643542Y-116810072D01*
X210584527Y-116628444D01*
X210577406Y-116616109D01*
X210534109Y-116541118D01*
X210489040Y-116463056D01*
X210461752Y-116432749D01*
X210365675Y-116326045D01*
X210365674Y-116326044D01*
X210361253Y-116321134D01*
X210238922Y-116232255D01*
X210212094Y-116212763D01*
X210212093Y-116212762D01*
X210206752Y-116208882D01*
X210200724Y-116206198D01*
X210200722Y-116206197D01*
X210038319Y-116133891D01*
X210038318Y-116133891D01*
X210032288Y-116131206D01*
X209938887Y-116111353D01*
X209851944Y-116092872D01*
X209851939Y-116092872D01*
X209845487Y-116091500D01*
X209654513Y-116091500D01*
X209648061Y-116092872D01*
X209648056Y-116092872D01*
X209561113Y-116111353D01*
X209467712Y-116131206D01*
X209461682Y-116133891D01*
X209461681Y-116133891D01*
X209299278Y-116206197D01*
X209299276Y-116206198D01*
X209293248Y-116208882D01*
X209287907Y-116212762D01*
X209287906Y-116212763D01*
X209208566Y-116270407D01*
X209138747Y-116321134D01*
X209134332Y-116326037D01*
X209129420Y-116330460D01*
X209128295Y-116329211D01*
X209074986Y-116362051D01*
X209041800Y-116366500D01*
X203509500Y-116366500D01*
X203441379Y-116346498D01*
X203394886Y-116292842D01*
X203383500Y-116240500D01*
X203383500Y-111253262D01*
X203403502Y-111185141D01*
X203436332Y-111150683D01*
X203476332Y-111122151D01*
X203589860Y-111041173D01*
X203657331Y-110973938D01*
X203698479Y-110932933D01*
X203760851Y-110899017D01*
X203831658Y-110904205D01*
X203888419Y-110946851D01*
X203905401Y-110977954D01*
X203946676Y-111088054D01*
X203955214Y-111103649D01*
X204031715Y-111205724D01*
X204044276Y-111218285D01*
X204146351Y-111294786D01*
X204161946Y-111303324D01*
X204282394Y-111348478D01*
X204297649Y-111352105D01*
X204348514Y-111357631D01*
X204355328Y-111358000D01*
X204977885Y-111358000D01*
X204993124Y-111353525D01*
X204994329Y-111352135D01*
X204996000Y-111344452D01*
X204996000Y-111339884D01*
X205504000Y-111339884D01*
X205508475Y-111355123D01*
X205509865Y-111356328D01*
X205517548Y-111357999D01*
X206144669Y-111357999D01*
X206151490Y-111357629D01*
X206202352Y-111352105D01*
X206217604Y-111348479D01*
X206338054Y-111303324D01*
X206353649Y-111294786D01*
X206455724Y-111218285D01*
X206468285Y-111205724D01*
X206544786Y-111103649D01*
X206553324Y-111088054D01*
X206598478Y-110967606D01*
X206602105Y-110952351D01*
X206607631Y-110901486D01*
X206608000Y-110894672D01*
X206608000Y-110272115D01*
X206603525Y-110256876D01*
X206602135Y-110255671D01*
X206594452Y-110254000D01*
X205522115Y-110254000D01*
X205506876Y-110258475D01*
X205505671Y-110259865D01*
X205504000Y-110267548D01*
X205504000Y-111339884D01*
X204996000Y-111339884D01*
X204996000Y-109727885D01*
X205504000Y-109727885D01*
X205508475Y-109743124D01*
X205509865Y-109744329D01*
X205517548Y-109746000D01*
X206589884Y-109746000D01*
X206605123Y-109741525D01*
X206606328Y-109740135D01*
X206607999Y-109732452D01*
X206607999Y-109105331D01*
X206607629Y-109098510D01*
X206602105Y-109047648D01*
X206598479Y-109032396D01*
X206553324Y-108911946D01*
X206544786Y-108896351D01*
X206468285Y-108794276D01*
X206455724Y-108781715D01*
X206353649Y-108705214D01*
X206338054Y-108696676D01*
X206217606Y-108651522D01*
X206202351Y-108647895D01*
X206151486Y-108642369D01*
X206144672Y-108642000D01*
X205522115Y-108642000D01*
X205506876Y-108646475D01*
X205505671Y-108647865D01*
X205504000Y-108655548D01*
X205504000Y-109727885D01*
X204996000Y-109727885D01*
X204996000Y-108660116D01*
X204991525Y-108644877D01*
X204990135Y-108643672D01*
X204982452Y-108642001D01*
X204355331Y-108642001D01*
X204348510Y-108642371D01*
X204297648Y-108647895D01*
X204282396Y-108651521D01*
X204161946Y-108696676D01*
X204146351Y-108705214D01*
X204044276Y-108781715D01*
X204031715Y-108794276D01*
X203955214Y-108896351D01*
X203946676Y-108911946D01*
X203905297Y-109022322D01*
X203862655Y-109079087D01*
X203796093Y-109103786D01*
X203726744Y-109088578D01*
X203694121Y-109062891D01*
X203643151Y-109006876D01*
X203643145Y-109006870D01*
X203639670Y-109003051D01*
X203635619Y-108999852D01*
X203635615Y-108999848D01*
X203468414Y-108867800D01*
X203468410Y-108867798D01*
X203464359Y-108864598D01*
X203428028Y-108844542D01*
X203336970Y-108794276D01*
X203268789Y-108756638D01*
X203263920Y-108754914D01*
X203263916Y-108754912D01*
X203063087Y-108683795D01*
X203063083Y-108683794D01*
X203058212Y-108682069D01*
X203053119Y-108681162D01*
X203053116Y-108681161D01*
X202843373Y-108643800D01*
X202843367Y-108643799D01*
X202838284Y-108642894D01*
X202764452Y-108641992D01*
X202620081Y-108640228D01*
X202620079Y-108640228D01*
X202614911Y-108640165D01*
X202394091Y-108673955D01*
X202181756Y-108743357D01*
X201983607Y-108846507D01*
X201979474Y-108849610D01*
X201979471Y-108849612D01*
X201896450Y-108911946D01*
X201804965Y-108980635D01*
X201779541Y-109007240D01*
X201693729Y-109097037D01*
X201650629Y-109142138D01*
X201543201Y-109299621D01*
X201488293Y-109344621D01*
X201417768Y-109352792D01*
X201354021Y-109321538D01*
X201333324Y-109297054D01*
X201252822Y-109172617D01*
X201252820Y-109172614D01*
X201250014Y-109168277D01*
X201099670Y-109003051D01*
X201095619Y-108999852D01*
X201095615Y-108999848D01*
X200928414Y-108867800D01*
X200928410Y-108867798D01*
X200924359Y-108864598D01*
X200888028Y-108844542D01*
X200796970Y-108794276D01*
X200728789Y-108756638D01*
X200723920Y-108754914D01*
X200723916Y-108754912D01*
X200523087Y-108683795D01*
X200523083Y-108683794D01*
X200518212Y-108682069D01*
X200513119Y-108681162D01*
X200513116Y-108681161D01*
X200303373Y-108643800D01*
X200303367Y-108643799D01*
X200298284Y-108642894D01*
X200224452Y-108641992D01*
X200080081Y-108640228D01*
X200080079Y-108640228D01*
X200074911Y-108640165D01*
X199854091Y-108673955D01*
X199641756Y-108743357D01*
X199443607Y-108846507D01*
X199439474Y-108849610D01*
X199439471Y-108849612D01*
X199356450Y-108911946D01*
X199264965Y-108980635D01*
X199239541Y-109007240D01*
X199153729Y-109097037D01*
X199110629Y-109142138D01*
X199003201Y-109299621D01*
X198948293Y-109344621D01*
X198877768Y-109352792D01*
X198814021Y-109321538D01*
X198793324Y-109297054D01*
X198712822Y-109172617D01*
X198712820Y-109172614D01*
X198710014Y-109168277D01*
X198559670Y-109003051D01*
X198555619Y-108999852D01*
X198555615Y-108999848D01*
X198388414Y-108867800D01*
X198388410Y-108867798D01*
X198384359Y-108864598D01*
X198348028Y-108844542D01*
X198256970Y-108794276D01*
X198188789Y-108756638D01*
X198183920Y-108754914D01*
X198183916Y-108754912D01*
X197983087Y-108683795D01*
X197983083Y-108683794D01*
X197978212Y-108682069D01*
X197973119Y-108681162D01*
X197973116Y-108681161D01*
X197763373Y-108643800D01*
X197763367Y-108643799D01*
X197758284Y-108642894D01*
X197684452Y-108641992D01*
X197540081Y-108640228D01*
X197540079Y-108640228D01*
X197534911Y-108640165D01*
X197314091Y-108673955D01*
X197101756Y-108743357D01*
X196903607Y-108846507D01*
X196899474Y-108849610D01*
X196899471Y-108849612D01*
X196816450Y-108911946D01*
X196724965Y-108980635D01*
X196699541Y-109007240D01*
X196613729Y-109097037D01*
X196570629Y-109142138D01*
X196463201Y-109299621D01*
X196408293Y-109344621D01*
X196337768Y-109352792D01*
X196274021Y-109321538D01*
X196253324Y-109297054D01*
X196172822Y-109172617D01*
X196172820Y-109172614D01*
X196170014Y-109168277D01*
X196019670Y-109003051D01*
X196015619Y-108999852D01*
X196015615Y-108999848D01*
X195848414Y-108867800D01*
X195848410Y-108867798D01*
X195844359Y-108864598D01*
X195808028Y-108844542D01*
X195716970Y-108794276D01*
X195648789Y-108756638D01*
X195643920Y-108754914D01*
X195643916Y-108754912D01*
X195443087Y-108683795D01*
X195443083Y-108683794D01*
X195438212Y-108682069D01*
X195433119Y-108681162D01*
X195433116Y-108681161D01*
X195223373Y-108643800D01*
X195223367Y-108643799D01*
X195218284Y-108642894D01*
X195144452Y-108641992D01*
X195000081Y-108640228D01*
X195000079Y-108640228D01*
X194994911Y-108640165D01*
X194774091Y-108673955D01*
X194561756Y-108743357D01*
X194363607Y-108846507D01*
X194359474Y-108849610D01*
X194359471Y-108849612D01*
X194276450Y-108911946D01*
X194184965Y-108980635D01*
X194159541Y-109007240D01*
X194073729Y-109097037D01*
X194030629Y-109142138D01*
X193923201Y-109299621D01*
X193868293Y-109344621D01*
X193797768Y-109352792D01*
X193734021Y-109321538D01*
X193713324Y-109297054D01*
X193632822Y-109172617D01*
X193632820Y-109172614D01*
X193630014Y-109168277D01*
X193479670Y-109003051D01*
X193475619Y-108999852D01*
X193475615Y-108999848D01*
X193308414Y-108867800D01*
X193308410Y-108867798D01*
X193304359Y-108864598D01*
X193268028Y-108844542D01*
X193176970Y-108794276D01*
X193108789Y-108756638D01*
X193103920Y-108754914D01*
X193103916Y-108754912D01*
X192903087Y-108683795D01*
X192903083Y-108683794D01*
X192898212Y-108682069D01*
X192893119Y-108681162D01*
X192893116Y-108681161D01*
X192683373Y-108643800D01*
X192683367Y-108643799D01*
X192678284Y-108642894D01*
X192604452Y-108641992D01*
X192460081Y-108640228D01*
X192460079Y-108640228D01*
X192454911Y-108640165D01*
X192234091Y-108673955D01*
X192021756Y-108743357D01*
X191823607Y-108846507D01*
X191819474Y-108849610D01*
X191819471Y-108849612D01*
X191736450Y-108911946D01*
X191644965Y-108980635D01*
X191619541Y-109007240D01*
X191533729Y-109097037D01*
X191490629Y-109142138D01*
X191364743Y-109326680D01*
X191326011Y-109410121D01*
X191289471Y-109488841D01*
X191270688Y-109529305D01*
X191210989Y-109744570D01*
X191187251Y-109966695D01*
X191200110Y-110189715D01*
X191201247Y-110194761D01*
X191201248Y-110194767D01*
X191215449Y-110257778D01*
X191249222Y-110407639D01*
X191333266Y-110614616D01*
X191380306Y-110691379D01*
X191447291Y-110800688D01*
X191449987Y-110805088D01*
X191596250Y-110973938D01*
X191744124Y-111096705D01*
X191745985Y-111098250D01*
X191785620Y-111157152D01*
X191791500Y-111195194D01*
X191791500Y-128131256D01*
X191771498Y-128199377D01*
X191767436Y-128205317D01*
X191765379Y-128208148D01*
X191760960Y-128213056D01*
X191665473Y-128378444D01*
X191606458Y-128560072D01*
X191605768Y-128566633D01*
X191605768Y-128566635D01*
X191600561Y-128616179D01*
X191586496Y-128750000D01*
X191587186Y-128756565D01*
X191597103Y-128850916D01*
X191606458Y-128939928D01*
X191665473Y-129121556D01*
X191668776Y-129127278D01*
X191668777Y-129127279D01*
X191724619Y-129223999D01*
X191741500Y-129286999D01*
X191741500Y-130213001D01*
X191724619Y-130276000D01*
X191665473Y-130378444D01*
X191606458Y-130560072D01*
X191605768Y-130566633D01*
X191605768Y-130566635D01*
X191598611Y-130634729D01*
X191586496Y-130750000D01*
X191587186Y-130756565D01*
X191593500Y-130816635D01*
X191606458Y-130939928D01*
X191665473Y-131121556D01*
X191708573Y-131196206D01*
X191724619Y-131223999D01*
X191741500Y-131286999D01*
X191741500Y-133500500D01*
X191721498Y-133568621D01*
X191667842Y-133615114D01*
X191615500Y-133626500D01*
X138117587Y-133626500D01*
X138043528Y-133602437D01*
X138037098Y-133597765D01*
X138037091Y-133597761D01*
X138031752Y-133593882D01*
X138025724Y-133591198D01*
X138025722Y-133591197D01*
X137863319Y-133518891D01*
X137863318Y-133518891D01*
X137857288Y-133516206D01*
X137763888Y-133496353D01*
X137676944Y-133477872D01*
X137676939Y-133477872D01*
X137670487Y-133476500D01*
X137479513Y-133476500D01*
X137473061Y-133477872D01*
X137473056Y-133477872D01*
X137386112Y-133496353D01*
X137292712Y-133516206D01*
X137286682Y-133518891D01*
X137286681Y-133518891D01*
X137124278Y-133591197D01*
X137124276Y-133591198D01*
X137118248Y-133593882D01*
X137112907Y-133597762D01*
X137112906Y-133597763D01*
X137106473Y-133602437D01*
X136963747Y-133706134D01*
X136835960Y-133848056D01*
X136740473Y-134013444D01*
X136681458Y-134195072D01*
X136680768Y-134201633D01*
X136680768Y-134201635D01*
X136671802Y-134286944D01*
X136661496Y-134385000D01*
X87836222Y-134385000D01*
X87836911Y-109966695D01*
X121837251Y-109966695D01*
X121850110Y-110189715D01*
X121851247Y-110194761D01*
X121851248Y-110194767D01*
X121865449Y-110257778D01*
X121899222Y-110407639D01*
X121983266Y-110614616D01*
X122030306Y-110691379D01*
X122097291Y-110800688D01*
X122099987Y-110805088D01*
X122246250Y-110973938D01*
X122418126Y-111116632D01*
X122611000Y-111229338D01*
X122615825Y-111231180D01*
X122615826Y-111231181D01*
X122688612Y-111258975D01*
X122819692Y-111309030D01*
X122824760Y-111310061D01*
X122824763Y-111310062D01*
X122885353Y-111322389D01*
X123038597Y-111353567D01*
X123043772Y-111353757D01*
X123043774Y-111353757D01*
X123256673Y-111361564D01*
X123256677Y-111361564D01*
X123261837Y-111361753D01*
X123266957Y-111361097D01*
X123266959Y-111361097D01*
X123478288Y-111334025D01*
X123478289Y-111334025D01*
X123483416Y-111333368D01*
X123488367Y-111331883D01*
X123488370Y-111331882D01*
X123529829Y-111319444D01*
X123600825Y-111319028D01*
X123655131Y-111351035D01*
X145092914Y-132788818D01*
X145100458Y-132797108D01*
X145104571Y-132803589D01*
X145146404Y-132842872D01*
X145154238Y-132850229D01*
X145157080Y-132852984D01*
X145176801Y-132872705D01*
X145179996Y-132875183D01*
X145189018Y-132882889D01*
X145221250Y-132913157D01*
X145228199Y-132916977D01*
X145239003Y-132922917D01*
X145255527Y-132933770D01*
X145271530Y-132946184D01*
X145312114Y-132963747D01*
X145322744Y-132968954D01*
X145361511Y-132990266D01*
X145369188Y-132992237D01*
X145369193Y-132992239D01*
X145381129Y-132995303D01*
X145399837Y-133001708D01*
X145418426Y-133009752D01*
X145426251Y-133010991D01*
X145426253Y-133010992D01*
X145462090Y-133016668D01*
X145473711Y-133019075D01*
X145505530Y-133027244D01*
X145516541Y-133030071D01*
X145536802Y-133030071D01*
X145556511Y-133031622D01*
X145576514Y-133034790D01*
X145584406Y-133034044D01*
X145589633Y-133033550D01*
X145620525Y-133030630D01*
X145632382Y-133030071D01*
X175839936Y-133030071D01*
X175851119Y-133030598D01*
X175858612Y-133032273D01*
X175866538Y-133032024D01*
X175866539Y-133032024D01*
X175926689Y-133030133D01*
X175930648Y-133030071D01*
X175958559Y-133030071D01*
X175962494Y-133029574D01*
X175962559Y-133029566D01*
X175974396Y-133028633D01*
X176006654Y-133027619D01*
X176010673Y-133027493D01*
X176018592Y-133027244D01*
X176038046Y-133021592D01*
X176057403Y-133017584D01*
X176069633Y-133016039D01*
X176069634Y-133016039D01*
X176077500Y-133015045D01*
X176084871Y-133012126D01*
X176084873Y-133012126D01*
X176118615Y-132998767D01*
X176129845Y-132994922D01*
X176164686Y-132984800D01*
X176164687Y-132984800D01*
X176172296Y-132982589D01*
X176179115Y-132978556D01*
X176179120Y-132978554D01*
X176189731Y-132972278D01*
X176207479Y-132963583D01*
X176226320Y-132956123D01*
X176246690Y-132941324D01*
X176262090Y-132930135D01*
X176272010Y-132923619D01*
X176303238Y-132905151D01*
X176303241Y-132905149D01*
X176310065Y-132901113D01*
X176324386Y-132886792D01*
X176339420Y-132873951D01*
X176341135Y-132872705D01*
X176355810Y-132862043D01*
X176384001Y-132827966D01*
X176391991Y-132819187D01*
X180373036Y-128838142D01*
X180435348Y-128804116D01*
X180462131Y-128801237D01*
X185124063Y-128801237D01*
X185192184Y-128821239D01*
X185211410Y-128837580D01*
X185211683Y-128837277D01*
X185216595Y-128841700D01*
X185221010Y-128846603D01*
X185375511Y-128958855D01*
X185381539Y-128961539D01*
X185381541Y-128961540D01*
X185432084Y-128984043D01*
X185549975Y-129036531D01*
X185643376Y-129056384D01*
X185730319Y-129074865D01*
X185730324Y-129074865D01*
X185736776Y-129076237D01*
X185927750Y-129076237D01*
X185934202Y-129074865D01*
X185934207Y-129074865D01*
X186021150Y-129056384D01*
X186114551Y-129036531D01*
X186232442Y-128984043D01*
X186282985Y-128961540D01*
X186282987Y-128961539D01*
X186289015Y-128958855D01*
X186443516Y-128846603D01*
X186466354Y-128821239D01*
X186566884Y-128709589D01*
X186566885Y-128709588D01*
X186571303Y-128704681D01*
X186666790Y-128539293D01*
X186725805Y-128357665D01*
X186731908Y-128299603D01*
X186745077Y-128174302D01*
X186745767Y-128167737D01*
X186725805Y-127977809D01*
X186666790Y-127796181D01*
X186571303Y-127630793D01*
X186524859Y-127579211D01*
X186447938Y-127493782D01*
X186447937Y-127493781D01*
X186443516Y-127488871D01*
X186299024Y-127383891D01*
X186294357Y-127380500D01*
X186294356Y-127380499D01*
X186289015Y-127376619D01*
X186282987Y-127373935D01*
X186282985Y-127373934D01*
X186120582Y-127301628D01*
X186120581Y-127301628D01*
X186114551Y-127298943D01*
X186021151Y-127279090D01*
X185934207Y-127260609D01*
X185934202Y-127260609D01*
X185927750Y-127259237D01*
X185736776Y-127259237D01*
X185730324Y-127260609D01*
X185730319Y-127260609D01*
X185643375Y-127279090D01*
X185549975Y-127298943D01*
X185543945Y-127301628D01*
X185543944Y-127301628D01*
X185381541Y-127373934D01*
X185381539Y-127373935D01*
X185375511Y-127376619D01*
X185370170Y-127380499D01*
X185370169Y-127380500D01*
X185365502Y-127383891D01*
X185221010Y-127488871D01*
X185216595Y-127493774D01*
X185211683Y-127498197D01*
X185210558Y-127496948D01*
X185157249Y-127529788D01*
X185124063Y-127534237D01*
X181345427Y-127534237D01*
X181277306Y-127514235D01*
X181230813Y-127460579D01*
X181220709Y-127390305D01*
X181250203Y-127325725D01*
X181256332Y-127319142D01*
X182155069Y-126420405D01*
X182217381Y-126386379D01*
X182244164Y-126383500D01*
X185041800Y-126383500D01*
X185109921Y-126403502D01*
X185129147Y-126419843D01*
X185129420Y-126419540D01*
X185134332Y-126423963D01*
X185138747Y-126428866D01*
X185293248Y-126541118D01*
X185299276Y-126543802D01*
X185299278Y-126543803D01*
X185461681Y-126616109D01*
X185467712Y-126618794D01*
X185561113Y-126638647D01*
X185648056Y-126657128D01*
X185648061Y-126657128D01*
X185654513Y-126658500D01*
X185845487Y-126658500D01*
X185851939Y-126657128D01*
X185851944Y-126657128D01*
X185938887Y-126638647D01*
X186032288Y-126618794D01*
X186038319Y-126616109D01*
X186200722Y-126543803D01*
X186200724Y-126543802D01*
X186206752Y-126541118D01*
X186361253Y-126428866D01*
X186397851Y-126388220D01*
X186484621Y-126291852D01*
X186484622Y-126291851D01*
X186489040Y-126286944D01*
X186564053Y-126157018D01*
X186581223Y-126127279D01*
X186581224Y-126127278D01*
X186584527Y-126121556D01*
X186643542Y-125939928D01*
X186663504Y-125750000D01*
X186652647Y-125646703D01*
X186644232Y-125566635D01*
X186644232Y-125566633D01*
X186643542Y-125560072D01*
X186584527Y-125378444D01*
X186489040Y-125213056D01*
X186361253Y-125071134D01*
X186206752Y-124958882D01*
X186200724Y-124956198D01*
X186200722Y-124956197D01*
X186038319Y-124883891D01*
X186038318Y-124883891D01*
X186032288Y-124881206D01*
X185938888Y-124861353D01*
X185851944Y-124842872D01*
X185851939Y-124842872D01*
X185845487Y-124841500D01*
X185654513Y-124841500D01*
X185648061Y-124842872D01*
X185648056Y-124842872D01*
X185561112Y-124861353D01*
X185467712Y-124881206D01*
X185461682Y-124883891D01*
X185461681Y-124883891D01*
X185299278Y-124956197D01*
X185299276Y-124956198D01*
X185293248Y-124958882D01*
X185138747Y-125071134D01*
X185134332Y-125076037D01*
X185129420Y-125080460D01*
X185128295Y-125079211D01*
X185074986Y-125112051D01*
X185041800Y-125116500D01*
X183127460Y-125116500D01*
X183059339Y-125096498D01*
X183012846Y-125042842D01*
X183002742Y-124972568D01*
X183032236Y-124907988D01*
X183038365Y-124901405D01*
X184019365Y-123920405D01*
X184081677Y-123886379D01*
X184108460Y-123883500D01*
X185041800Y-123883500D01*
X185109921Y-123903502D01*
X185129147Y-123919843D01*
X185129420Y-123919540D01*
X185134332Y-123923963D01*
X185138747Y-123928866D01*
X185293248Y-124041118D01*
X185299276Y-124043802D01*
X185299278Y-124043803D01*
X185461681Y-124116109D01*
X185467712Y-124118794D01*
X185561113Y-124138647D01*
X185648056Y-124157128D01*
X185648061Y-124157128D01*
X185654513Y-124158500D01*
X185845487Y-124158500D01*
X185851939Y-124157128D01*
X185851944Y-124157128D01*
X185938887Y-124138647D01*
X186032288Y-124118794D01*
X186038319Y-124116109D01*
X186200722Y-124043803D01*
X186200724Y-124043802D01*
X186206752Y-124041118D01*
X186361253Y-123928866D01*
X186397851Y-123888220D01*
X186484621Y-123791852D01*
X186484622Y-123791851D01*
X186489040Y-123786944D01*
X186564053Y-123657018D01*
X186581223Y-123627279D01*
X186581224Y-123627278D01*
X186584527Y-123621556D01*
X186643542Y-123439928D01*
X186663504Y-123250000D01*
X186643542Y-123060072D01*
X186584527Y-122878444D01*
X186489040Y-122713056D01*
X186361253Y-122571134D01*
X186206752Y-122458882D01*
X186200724Y-122456198D01*
X186200722Y-122456197D01*
X186038319Y-122383891D01*
X186038318Y-122383891D01*
X186032288Y-122381206D01*
X185938887Y-122361353D01*
X185851944Y-122342872D01*
X185851939Y-122342872D01*
X185845487Y-122341500D01*
X185654513Y-122341500D01*
X185648061Y-122342872D01*
X185648056Y-122342872D01*
X185561113Y-122361353D01*
X185467712Y-122381206D01*
X185461682Y-122383891D01*
X185461681Y-122383891D01*
X185299278Y-122456197D01*
X185299276Y-122456198D01*
X185293248Y-122458882D01*
X185138747Y-122571134D01*
X185134332Y-122576037D01*
X185129420Y-122580460D01*
X185128295Y-122579211D01*
X185074986Y-122612051D01*
X185041800Y-122616500D01*
X184991756Y-122616500D01*
X184923635Y-122596498D01*
X184877142Y-122542842D01*
X184867038Y-122472568D01*
X184896532Y-122407988D01*
X184902661Y-122401405D01*
X185608661Y-121695405D01*
X185670973Y-121661379D01*
X185697756Y-121658500D01*
X185845487Y-121658500D01*
X185851939Y-121657128D01*
X185851944Y-121657128D01*
X185938888Y-121638647D01*
X186032288Y-121618794D01*
X186096927Y-121590015D01*
X186200722Y-121543803D01*
X186200724Y-121543802D01*
X186206752Y-121541118D01*
X186361253Y-121428866D01*
X186397851Y-121388220D01*
X186484621Y-121291852D01*
X186484622Y-121291851D01*
X186489040Y-121286944D01*
X186584527Y-121121556D01*
X186643542Y-120939928D01*
X186663504Y-120750000D01*
X186643542Y-120560072D01*
X186584527Y-120378444D01*
X186489040Y-120213056D01*
X186361253Y-120071134D01*
X186216637Y-119966064D01*
X186212094Y-119962763D01*
X186212093Y-119962762D01*
X186206752Y-119958882D01*
X186200724Y-119956198D01*
X186200722Y-119956197D01*
X186038319Y-119883891D01*
X186038318Y-119883891D01*
X186032288Y-119881206D01*
X185938887Y-119861353D01*
X185851944Y-119842872D01*
X185851939Y-119842872D01*
X185845487Y-119841500D01*
X185654513Y-119841500D01*
X185648061Y-119842872D01*
X185648056Y-119842872D01*
X185561113Y-119861353D01*
X185467712Y-119881206D01*
X185461682Y-119883891D01*
X185461681Y-119883891D01*
X185299278Y-119956197D01*
X185299276Y-119956198D01*
X185293248Y-119958882D01*
X185285794Y-119964298D01*
X185284365Y-119964807D01*
X185282189Y-119966064D01*
X185281959Y-119965666D01*
X185218928Y-119988155D01*
X185149776Y-119972075D01*
X185100296Y-119921162D01*
X185086196Y-119851579D01*
X185111954Y-119785420D01*
X185122639Y-119773266D01*
X185700500Y-119195405D01*
X185762812Y-119161379D01*
X185789595Y-119158500D01*
X185845487Y-119158500D01*
X185851939Y-119157128D01*
X185851944Y-119157128D01*
X185938887Y-119138647D01*
X186032288Y-119118794D01*
X186154024Y-119064594D01*
X186200722Y-119043803D01*
X186200724Y-119043802D01*
X186206752Y-119041118D01*
X186361253Y-118928866D01*
X186397851Y-118888220D01*
X186484621Y-118791852D01*
X186484622Y-118791851D01*
X186489040Y-118786944D01*
X186584527Y-118621556D01*
X186643542Y-118439928D01*
X186654737Y-118333419D01*
X186662814Y-118256565D01*
X186663504Y-118250000D01*
X186643542Y-118060072D01*
X186584527Y-117878444D01*
X186577406Y-117866109D01*
X186534109Y-117791118D01*
X186489040Y-117713056D01*
X186461752Y-117682749D01*
X186365675Y-117576045D01*
X186365674Y-117576044D01*
X186361253Y-117571134D01*
X186216091Y-117465667D01*
X186212094Y-117462763D01*
X186212093Y-117462762D01*
X186206752Y-117458882D01*
X186200724Y-117456198D01*
X186200722Y-117456197D01*
X186038319Y-117383891D01*
X186038318Y-117383891D01*
X186032288Y-117381206D01*
X185938888Y-117361353D01*
X185851944Y-117342872D01*
X185851939Y-117342872D01*
X185845487Y-117341500D01*
X185654513Y-117341500D01*
X185648061Y-117342872D01*
X185648056Y-117342872D01*
X185561112Y-117361353D01*
X185467712Y-117381206D01*
X185461682Y-117383891D01*
X185461681Y-117383891D01*
X185299278Y-117456197D01*
X185299276Y-117456198D01*
X185293248Y-117458882D01*
X185285791Y-117464300D01*
X185284360Y-117464811D01*
X185282189Y-117466064D01*
X185281960Y-117465667D01*
X185218923Y-117488158D01*
X185149772Y-117472076D01*
X185100292Y-117421162D01*
X185086193Y-117351579D01*
X185111952Y-117285420D01*
X185122636Y-117273268D01*
X185700499Y-116695405D01*
X185762811Y-116661379D01*
X185789594Y-116658500D01*
X185845487Y-116658500D01*
X185851939Y-116657128D01*
X185851944Y-116657128D01*
X185957320Y-116634729D01*
X186032288Y-116618794D01*
X186038319Y-116616109D01*
X186200722Y-116543803D01*
X186200724Y-116543802D01*
X186206752Y-116541118D01*
X186361253Y-116428866D01*
X186397851Y-116388220D01*
X186484621Y-116291852D01*
X186484622Y-116291851D01*
X186489040Y-116286944D01*
X186572578Y-116142253D01*
X186581223Y-116127279D01*
X186581224Y-116127278D01*
X186584527Y-116121556D01*
X186643542Y-115939928D01*
X186663504Y-115750000D01*
X186643542Y-115560072D01*
X186584527Y-115378444D01*
X186577406Y-115366109D01*
X186534109Y-115291118D01*
X186489040Y-115213056D01*
X186461752Y-115182749D01*
X186365675Y-115076045D01*
X186365674Y-115076044D01*
X186361253Y-115071134D01*
X186216637Y-114966064D01*
X186212094Y-114962763D01*
X186212093Y-114962762D01*
X186206752Y-114958882D01*
X186200724Y-114956198D01*
X186200722Y-114956197D01*
X186038319Y-114883891D01*
X186038318Y-114883891D01*
X186032288Y-114881206D01*
X185938888Y-114861353D01*
X185851944Y-114842872D01*
X185851939Y-114842872D01*
X185845487Y-114841500D01*
X185654513Y-114841500D01*
X185648061Y-114842872D01*
X185648056Y-114842872D01*
X185561112Y-114861353D01*
X185467712Y-114881206D01*
X185461682Y-114883891D01*
X185461681Y-114883891D01*
X185299278Y-114956197D01*
X185299276Y-114956198D01*
X185293248Y-114958882D01*
X185285794Y-114964298D01*
X185284365Y-114964807D01*
X185282189Y-114966064D01*
X185281959Y-114965666D01*
X185218928Y-114988155D01*
X185149776Y-114972075D01*
X185100296Y-114921162D01*
X185086196Y-114851579D01*
X185111954Y-114785420D01*
X185122639Y-114773266D01*
X185700500Y-114195405D01*
X185762812Y-114161379D01*
X185789595Y-114158500D01*
X185845487Y-114158500D01*
X185851939Y-114157128D01*
X185851944Y-114157128D01*
X185957320Y-114134729D01*
X186032288Y-114118794D01*
X186038319Y-114116109D01*
X186200722Y-114043803D01*
X186200724Y-114043802D01*
X186206752Y-114041118D01*
X186361253Y-113928866D01*
X186397851Y-113888220D01*
X186484621Y-113791852D01*
X186484622Y-113791851D01*
X186489040Y-113786944D01*
X186584527Y-113621556D01*
X186643542Y-113439928D01*
X186663504Y-113250000D01*
X186643542Y-113060072D01*
X186584527Y-112878444D01*
X186489040Y-112713056D01*
X186399382Y-112613480D01*
X186365675Y-112576045D01*
X186365674Y-112576044D01*
X186361253Y-112571134D01*
X186206752Y-112458882D01*
X186200724Y-112456198D01*
X186200722Y-112456197D01*
X186038319Y-112383891D01*
X186038318Y-112383891D01*
X186032288Y-112381206D01*
X185938887Y-112361353D01*
X185851944Y-112342872D01*
X185851939Y-112342872D01*
X185845487Y-112341500D01*
X185654513Y-112341500D01*
X185648061Y-112342872D01*
X185648056Y-112342872D01*
X185561113Y-112361353D01*
X185467712Y-112381206D01*
X185461682Y-112383891D01*
X185461681Y-112383891D01*
X185299278Y-112456197D01*
X185299276Y-112456198D01*
X185293248Y-112458882D01*
X185285791Y-112464300D01*
X185284360Y-112464811D01*
X185282189Y-112466064D01*
X185281960Y-112465667D01*
X185218923Y-112488158D01*
X185149772Y-112472076D01*
X185100292Y-112421162D01*
X185086193Y-112351579D01*
X185111952Y-112285420D01*
X185122636Y-112273268D01*
X185700499Y-111695405D01*
X185762811Y-111661379D01*
X185789594Y-111658500D01*
X185845487Y-111658500D01*
X185851939Y-111657128D01*
X185851944Y-111657128D01*
X185938888Y-111638647D01*
X186032288Y-111618794D01*
X186129724Y-111575413D01*
X186200722Y-111543803D01*
X186200724Y-111543802D01*
X186206752Y-111541118D01*
X186361253Y-111428866D01*
X186421852Y-111361564D01*
X186484621Y-111291852D01*
X186484622Y-111291851D01*
X186489040Y-111286944D01*
X186555289Y-111172198D01*
X186581223Y-111127279D01*
X186581224Y-111127278D01*
X186584527Y-111121556D01*
X186643542Y-110939928D01*
X186645362Y-110922618D01*
X186662814Y-110756565D01*
X186663504Y-110750000D01*
X186655636Y-110675144D01*
X186644232Y-110566635D01*
X186644232Y-110566633D01*
X186643542Y-110560072D01*
X186584527Y-110378444D01*
X186489040Y-110213056D01*
X186463371Y-110184547D01*
X186365675Y-110076045D01*
X186365674Y-110076044D01*
X186361253Y-110071134D01*
X186206752Y-109958882D01*
X186200724Y-109956198D01*
X186200722Y-109956197D01*
X186038319Y-109883891D01*
X186038318Y-109883891D01*
X186032288Y-109881206D01*
X185938887Y-109861353D01*
X185851944Y-109842872D01*
X185851939Y-109842872D01*
X185845487Y-109841500D01*
X185654513Y-109841500D01*
X185648061Y-109842872D01*
X185648056Y-109842872D01*
X185561112Y-109861353D01*
X185467712Y-109881206D01*
X185461682Y-109883891D01*
X185461681Y-109883891D01*
X185299278Y-109956197D01*
X185299276Y-109956198D01*
X185293248Y-109958882D01*
X185138747Y-110071134D01*
X185134326Y-110076044D01*
X185134325Y-110076045D01*
X185036630Y-110184547D01*
X185010960Y-110213056D01*
X184915473Y-110378444D01*
X184856458Y-110560072D01*
X184841119Y-110706020D01*
X184839093Y-110725292D01*
X184812080Y-110790949D01*
X184802878Y-110801217D01*
X177357747Y-118246348D01*
X177349461Y-118253888D01*
X177342982Y-118258000D01*
X177337557Y-118263777D01*
X177296357Y-118307651D01*
X177293602Y-118310493D01*
X177273865Y-118330230D01*
X177271385Y-118333427D01*
X177263682Y-118342447D01*
X177233414Y-118374679D01*
X177229595Y-118381625D01*
X177229593Y-118381628D01*
X177223652Y-118392434D01*
X177212801Y-118408953D01*
X177200386Y-118424959D01*
X177197241Y-118432228D01*
X177197238Y-118432232D01*
X177182826Y-118465537D01*
X177177609Y-118476187D01*
X177156305Y-118514940D01*
X177154334Y-118522615D01*
X177154334Y-118522616D01*
X177151267Y-118534562D01*
X177144863Y-118553266D01*
X177136819Y-118571855D01*
X177135580Y-118579678D01*
X177135577Y-118579688D01*
X177129901Y-118615524D01*
X177127495Y-118627144D01*
X177123616Y-118642253D01*
X177116500Y-118669970D01*
X177116500Y-118690224D01*
X177114949Y-118709934D01*
X177111780Y-118729943D01*
X177112526Y-118737835D01*
X177115941Y-118773961D01*
X177116500Y-118785819D01*
X177116500Y-125800751D01*
X177096498Y-125868872D01*
X177079595Y-125889846D01*
X175042649Y-127926792D01*
X174980337Y-127960818D01*
X174909522Y-127955753D01*
X174852686Y-127913206D01*
X174838448Y-127888947D01*
X174836567Y-127884721D01*
X174834527Y-127878444D01*
X174739040Y-127713056D01*
X174611253Y-127571134D01*
X174456752Y-127458882D01*
X174450724Y-127456198D01*
X174450722Y-127456197D01*
X174288319Y-127383891D01*
X174288318Y-127383891D01*
X174282288Y-127381206D01*
X174188888Y-127361353D01*
X174101944Y-127342872D01*
X174101939Y-127342872D01*
X174095487Y-127341500D01*
X173904513Y-127341500D01*
X173898061Y-127342872D01*
X173898056Y-127342872D01*
X173811112Y-127361353D01*
X173717712Y-127381206D01*
X173711682Y-127383891D01*
X173711681Y-127383891D01*
X173549278Y-127456197D01*
X173549276Y-127456198D01*
X173543248Y-127458882D01*
X173388747Y-127571134D01*
X173384332Y-127576037D01*
X173379420Y-127580460D01*
X173378295Y-127579211D01*
X173324986Y-127612051D01*
X173291800Y-127616500D01*
X162084594Y-127616500D01*
X162016473Y-127596498D01*
X161995499Y-127579595D01*
X145991318Y-111575413D01*
X145957292Y-111513101D01*
X145962357Y-111442286D01*
X146004904Y-111385450D01*
X146071424Y-111360639D01*
X146085024Y-111360403D01*
X146101698Y-111361015D01*
X146116674Y-111361564D01*
X146116678Y-111361564D01*
X146121837Y-111361753D01*
X146126957Y-111361097D01*
X146126959Y-111361097D01*
X146338288Y-111334025D01*
X146338289Y-111334025D01*
X146343416Y-111333368D01*
X146348367Y-111331883D01*
X146348370Y-111331882D01*
X146389829Y-111319444D01*
X146460825Y-111319028D01*
X146515131Y-111351035D01*
X161306343Y-126142247D01*
X161313887Y-126150537D01*
X161318000Y-126157018D01*
X161323777Y-126162443D01*
X161367667Y-126203658D01*
X161370509Y-126206413D01*
X161390231Y-126226135D01*
X161393355Y-126228558D01*
X161393359Y-126228562D01*
X161393424Y-126228612D01*
X161402445Y-126236317D01*
X161434679Y-126266586D01*
X161441627Y-126270405D01*
X161441629Y-126270407D01*
X161452432Y-126276346D01*
X161468959Y-126287202D01*
X161478698Y-126294757D01*
X161478700Y-126294758D01*
X161484960Y-126299614D01*
X161525540Y-126317174D01*
X161536188Y-126322391D01*
X161574940Y-126343695D01*
X161582616Y-126345666D01*
X161582619Y-126345667D01*
X161594562Y-126348733D01*
X161613267Y-126355137D01*
X161631855Y-126363181D01*
X161639678Y-126364420D01*
X161639688Y-126364423D01*
X161675524Y-126370099D01*
X161687144Y-126372505D01*
X161722289Y-126381528D01*
X161729970Y-126383500D01*
X161750224Y-126383500D01*
X161769934Y-126385051D01*
X161789943Y-126388220D01*
X161797835Y-126387474D01*
X161833961Y-126384059D01*
X161845819Y-126383500D01*
X173291800Y-126383500D01*
X173359921Y-126403502D01*
X173379147Y-126419843D01*
X173379420Y-126419540D01*
X173384332Y-126423963D01*
X173388747Y-126428866D01*
X173543248Y-126541118D01*
X173549276Y-126543802D01*
X173549278Y-126543803D01*
X173711681Y-126616109D01*
X173717712Y-126618794D01*
X173811113Y-126638647D01*
X173898056Y-126657128D01*
X173898061Y-126657128D01*
X173904513Y-126658500D01*
X174095487Y-126658500D01*
X174101939Y-126657128D01*
X174101944Y-126657128D01*
X174188887Y-126638647D01*
X174282288Y-126618794D01*
X174288319Y-126616109D01*
X174450722Y-126543803D01*
X174450724Y-126543802D01*
X174456752Y-126541118D01*
X174611253Y-126428866D01*
X174647851Y-126388220D01*
X174734621Y-126291852D01*
X174734622Y-126291851D01*
X174739040Y-126286944D01*
X174814053Y-126157018D01*
X174831223Y-126127279D01*
X174831224Y-126127278D01*
X174834527Y-126121556D01*
X174893542Y-125939928D01*
X174913504Y-125750000D01*
X174902647Y-125646703D01*
X174894232Y-125566635D01*
X174894232Y-125566633D01*
X174893542Y-125560072D01*
X174834527Y-125378444D01*
X174739040Y-125213056D01*
X174611253Y-125071134D01*
X174456752Y-124958882D01*
X174450724Y-124956198D01*
X174450722Y-124956197D01*
X174288319Y-124883891D01*
X174288318Y-124883891D01*
X174282288Y-124881206D01*
X174188888Y-124861353D01*
X174101944Y-124842872D01*
X174101939Y-124842872D01*
X174095487Y-124841500D01*
X173904513Y-124841500D01*
X173898061Y-124842872D01*
X173898056Y-124842872D01*
X173811112Y-124861353D01*
X173717712Y-124881206D01*
X173711682Y-124883891D01*
X173711681Y-124883891D01*
X173549278Y-124956197D01*
X173549276Y-124956198D01*
X173543248Y-124958882D01*
X173388747Y-125071134D01*
X173384332Y-125076037D01*
X173379420Y-125080460D01*
X173378295Y-125079211D01*
X173324986Y-125112051D01*
X173291800Y-125116500D01*
X162124594Y-125116500D01*
X162056473Y-125096498D01*
X162035499Y-125079595D01*
X148531318Y-111575413D01*
X148497292Y-111513101D01*
X148502357Y-111442286D01*
X148544904Y-111385450D01*
X148611424Y-111360639D01*
X148625024Y-111360403D01*
X148641698Y-111361015D01*
X148656674Y-111361564D01*
X148656678Y-111361564D01*
X148661837Y-111361753D01*
X148666957Y-111361097D01*
X148666959Y-111361097D01*
X148878288Y-111334025D01*
X148878289Y-111334025D01*
X148883416Y-111333368D01*
X148888367Y-111331883D01*
X148888370Y-111331882D01*
X148929829Y-111319444D01*
X149000825Y-111319028D01*
X149055131Y-111351035D01*
X161346343Y-123642247D01*
X161353887Y-123650537D01*
X161358000Y-123657018D01*
X161363777Y-123662443D01*
X161407667Y-123703658D01*
X161410509Y-123706413D01*
X161430231Y-123726135D01*
X161433373Y-123728572D01*
X161433433Y-123728619D01*
X161442445Y-123736317D01*
X161468036Y-123760347D01*
X161474679Y-123766586D01*
X161481622Y-123770403D01*
X161492431Y-123776345D01*
X161508953Y-123787198D01*
X161524959Y-123799614D01*
X161532237Y-123802764D01*
X161532238Y-123802764D01*
X161565537Y-123817174D01*
X161576187Y-123822391D01*
X161614940Y-123843695D01*
X161622615Y-123845666D01*
X161622616Y-123845666D01*
X161634562Y-123848733D01*
X161653267Y-123855137D01*
X161671855Y-123863181D01*
X161679678Y-123864420D01*
X161679688Y-123864423D01*
X161715524Y-123870099D01*
X161727144Y-123872505D01*
X161762289Y-123881528D01*
X161769970Y-123883500D01*
X161790224Y-123883500D01*
X161809934Y-123885051D01*
X161829943Y-123888220D01*
X161837835Y-123887474D01*
X161873961Y-123884059D01*
X161885819Y-123883500D01*
X173291800Y-123883500D01*
X173359921Y-123903502D01*
X173379147Y-123919843D01*
X173379420Y-123919540D01*
X173384332Y-123923963D01*
X173388747Y-123928866D01*
X173543248Y-124041118D01*
X173549276Y-124043802D01*
X173549278Y-124043803D01*
X173711681Y-124116109D01*
X173717712Y-124118794D01*
X173811113Y-124138647D01*
X173898056Y-124157128D01*
X173898061Y-124157128D01*
X173904513Y-124158500D01*
X174095487Y-124158500D01*
X174101939Y-124157128D01*
X174101944Y-124157128D01*
X174188887Y-124138647D01*
X174282288Y-124118794D01*
X174288319Y-124116109D01*
X174450722Y-124043803D01*
X174450724Y-124043802D01*
X174456752Y-124041118D01*
X174611253Y-123928866D01*
X174647851Y-123888220D01*
X174734621Y-123791852D01*
X174734622Y-123791851D01*
X174739040Y-123786944D01*
X174814053Y-123657018D01*
X174831223Y-123627279D01*
X174831224Y-123627278D01*
X174834527Y-123621556D01*
X174893542Y-123439928D01*
X174913504Y-123250000D01*
X174893542Y-123060072D01*
X174834527Y-122878444D01*
X174739040Y-122713056D01*
X174611253Y-122571134D01*
X174456752Y-122458882D01*
X174450724Y-122456198D01*
X174450722Y-122456197D01*
X174288319Y-122383891D01*
X174288318Y-122383891D01*
X174282288Y-122381206D01*
X174188887Y-122361353D01*
X174101944Y-122342872D01*
X174101939Y-122342872D01*
X174095487Y-122341500D01*
X173904513Y-122341500D01*
X173898061Y-122342872D01*
X173898056Y-122342872D01*
X173811113Y-122361353D01*
X173717712Y-122381206D01*
X173711682Y-122383891D01*
X173711681Y-122383891D01*
X173549278Y-122456197D01*
X173549276Y-122456198D01*
X173543248Y-122458882D01*
X173388747Y-122571134D01*
X173384332Y-122576037D01*
X173379420Y-122580460D01*
X173378295Y-122579211D01*
X173324986Y-122612051D01*
X173291800Y-122616500D01*
X162164594Y-122616500D01*
X162096473Y-122596498D01*
X162075499Y-122579595D01*
X151071318Y-111575413D01*
X151037292Y-111513101D01*
X151042357Y-111442286D01*
X151084904Y-111385450D01*
X151151424Y-111360639D01*
X151165024Y-111360403D01*
X151181698Y-111361015D01*
X151196674Y-111361564D01*
X151196678Y-111361564D01*
X151201837Y-111361753D01*
X151206957Y-111361097D01*
X151206959Y-111361097D01*
X151418288Y-111334025D01*
X151418289Y-111334025D01*
X151423416Y-111333368D01*
X151428367Y-111331883D01*
X151428370Y-111331882D01*
X151469829Y-111319444D01*
X151540825Y-111319028D01*
X151595131Y-111351035D01*
X156505254Y-116261159D01*
X161386348Y-121142253D01*
X161393888Y-121150539D01*
X161398000Y-121157018D01*
X161403777Y-121162443D01*
X161447651Y-121203643D01*
X161450493Y-121206398D01*
X161470230Y-121226135D01*
X161473427Y-121228615D01*
X161482447Y-121236318D01*
X161514679Y-121266586D01*
X161521625Y-121270405D01*
X161521628Y-121270407D01*
X161532434Y-121276348D01*
X161548953Y-121287199D01*
X161564959Y-121299614D01*
X161572228Y-121302759D01*
X161572232Y-121302762D01*
X161605537Y-121317174D01*
X161616187Y-121322391D01*
X161654940Y-121343695D01*
X161662615Y-121345666D01*
X161662616Y-121345666D01*
X161674562Y-121348733D01*
X161693267Y-121355137D01*
X161711855Y-121363181D01*
X161719678Y-121364420D01*
X161719688Y-121364423D01*
X161755524Y-121370099D01*
X161767144Y-121372505D01*
X161802289Y-121381528D01*
X161809970Y-121383500D01*
X161830224Y-121383500D01*
X161849934Y-121385051D01*
X161869943Y-121388220D01*
X161877835Y-121387474D01*
X161913961Y-121384059D01*
X161925819Y-121383500D01*
X173291800Y-121383500D01*
X173359921Y-121403502D01*
X173379147Y-121419843D01*
X173379420Y-121419540D01*
X173384332Y-121423963D01*
X173388747Y-121428866D01*
X173543248Y-121541118D01*
X173549276Y-121543802D01*
X173549278Y-121543803D01*
X173653073Y-121590015D01*
X173717712Y-121618794D01*
X173811112Y-121638647D01*
X173898056Y-121657128D01*
X173898061Y-121657128D01*
X173904513Y-121658500D01*
X174095487Y-121658500D01*
X174101939Y-121657128D01*
X174101944Y-121657128D01*
X174188888Y-121638647D01*
X174282288Y-121618794D01*
X174346927Y-121590015D01*
X174450722Y-121543803D01*
X174450724Y-121543802D01*
X174456752Y-121541118D01*
X174611253Y-121428866D01*
X174647851Y-121388220D01*
X174734621Y-121291852D01*
X174734622Y-121291851D01*
X174739040Y-121286944D01*
X174834527Y-121121556D01*
X174893542Y-120939928D01*
X174913504Y-120750000D01*
X174893542Y-120560072D01*
X174834527Y-120378444D01*
X174739040Y-120213056D01*
X174611253Y-120071134D01*
X174466637Y-119966064D01*
X174462094Y-119962763D01*
X174462093Y-119962762D01*
X174456752Y-119958882D01*
X174450724Y-119956198D01*
X174450722Y-119956197D01*
X174288319Y-119883891D01*
X174288318Y-119883891D01*
X174282288Y-119881206D01*
X174188887Y-119861353D01*
X174101944Y-119842872D01*
X174101939Y-119842872D01*
X174095487Y-119841500D01*
X173904513Y-119841500D01*
X173898061Y-119842872D01*
X173898056Y-119842872D01*
X173811113Y-119861353D01*
X173717712Y-119881206D01*
X173711682Y-119883891D01*
X173711681Y-119883891D01*
X173549278Y-119956197D01*
X173549276Y-119956198D01*
X173543248Y-119958882D01*
X173537907Y-119962762D01*
X173537906Y-119962763D01*
X173533363Y-119966064D01*
X173388747Y-120071134D01*
X173384332Y-120076037D01*
X173379420Y-120080460D01*
X173378295Y-120079211D01*
X173324986Y-120112051D01*
X173291800Y-120116500D01*
X162204594Y-120116500D01*
X162136473Y-120096498D01*
X162115499Y-120079595D01*
X153611318Y-111575413D01*
X153577292Y-111513101D01*
X153582357Y-111442286D01*
X153624904Y-111385450D01*
X153691424Y-111360639D01*
X153705024Y-111360403D01*
X153721698Y-111361015D01*
X153736674Y-111361564D01*
X153736678Y-111361564D01*
X153741837Y-111361753D01*
X153746957Y-111361097D01*
X153746959Y-111361097D01*
X153958288Y-111334025D01*
X153958289Y-111334025D01*
X153963416Y-111333368D01*
X153968367Y-111331883D01*
X153968370Y-111331882D01*
X154009829Y-111319444D01*
X154080825Y-111319028D01*
X154135131Y-111351035D01*
X157815321Y-115031226D01*
X161426348Y-118642253D01*
X161433888Y-118650539D01*
X161438000Y-118657018D01*
X161443777Y-118662443D01*
X161487651Y-118703643D01*
X161490493Y-118706398D01*
X161510230Y-118726135D01*
X161513427Y-118728615D01*
X161522447Y-118736318D01*
X161554679Y-118766586D01*
X161561625Y-118770405D01*
X161561628Y-118770407D01*
X161572434Y-118776348D01*
X161588953Y-118787199D01*
X161604959Y-118799614D01*
X161612228Y-118802759D01*
X161612232Y-118802762D01*
X161645537Y-118817174D01*
X161656187Y-118822391D01*
X161694940Y-118843695D01*
X161702615Y-118845666D01*
X161702616Y-118845666D01*
X161714562Y-118848733D01*
X161733267Y-118855137D01*
X161751855Y-118863181D01*
X161759678Y-118864420D01*
X161759688Y-118864423D01*
X161795524Y-118870099D01*
X161807144Y-118872505D01*
X161842289Y-118881528D01*
X161849970Y-118883500D01*
X161870224Y-118883500D01*
X161889934Y-118885051D01*
X161909943Y-118888220D01*
X161917835Y-118887474D01*
X161953961Y-118884059D01*
X161965819Y-118883500D01*
X173291800Y-118883500D01*
X173359921Y-118903502D01*
X173379147Y-118919843D01*
X173379420Y-118919540D01*
X173384332Y-118923963D01*
X173388747Y-118928866D01*
X173410329Y-118944546D01*
X173452932Y-118975499D01*
X173543248Y-119041118D01*
X173549276Y-119043802D01*
X173549278Y-119043803D01*
X173595976Y-119064594D01*
X173717712Y-119118794D01*
X173811113Y-119138647D01*
X173898056Y-119157128D01*
X173898061Y-119157128D01*
X173904513Y-119158500D01*
X174095487Y-119158500D01*
X174101939Y-119157128D01*
X174101944Y-119157128D01*
X174188887Y-119138647D01*
X174282288Y-119118794D01*
X174404024Y-119064594D01*
X174450722Y-119043803D01*
X174450724Y-119043802D01*
X174456752Y-119041118D01*
X174611253Y-118928866D01*
X174647851Y-118888220D01*
X174734621Y-118791852D01*
X174734622Y-118791851D01*
X174739040Y-118786944D01*
X174834527Y-118621556D01*
X174893542Y-118439928D01*
X174904737Y-118333419D01*
X174912814Y-118256565D01*
X174913504Y-118250000D01*
X174893542Y-118060072D01*
X174834527Y-117878444D01*
X174827406Y-117866109D01*
X174784109Y-117791118D01*
X174739040Y-117713056D01*
X174711752Y-117682749D01*
X174615675Y-117576045D01*
X174615674Y-117576044D01*
X174611253Y-117571134D01*
X174466091Y-117465667D01*
X174462094Y-117462763D01*
X174462093Y-117462762D01*
X174456752Y-117458882D01*
X174450724Y-117456198D01*
X174450722Y-117456197D01*
X174288319Y-117383891D01*
X174288318Y-117383891D01*
X174282288Y-117381206D01*
X174188888Y-117361353D01*
X174101944Y-117342872D01*
X174101939Y-117342872D01*
X174095487Y-117341500D01*
X173904513Y-117341500D01*
X173898061Y-117342872D01*
X173898056Y-117342872D01*
X173811112Y-117361353D01*
X173717712Y-117381206D01*
X173711682Y-117383891D01*
X173711681Y-117383891D01*
X173549278Y-117456197D01*
X173549276Y-117456198D01*
X173543248Y-117458882D01*
X173537907Y-117462762D01*
X173537906Y-117462763D01*
X173474845Y-117508580D01*
X173388747Y-117571134D01*
X173384332Y-117576037D01*
X173379420Y-117580460D01*
X173378295Y-117579211D01*
X173324986Y-117612051D01*
X173291800Y-117616500D01*
X162244594Y-117616500D01*
X162176473Y-117596498D01*
X162155499Y-117579595D01*
X156151318Y-111575413D01*
X156117292Y-111513101D01*
X156122357Y-111442286D01*
X156164904Y-111385450D01*
X156231424Y-111360639D01*
X156245024Y-111360403D01*
X156261698Y-111361015D01*
X156276674Y-111361564D01*
X156276678Y-111361564D01*
X156281837Y-111361753D01*
X156286957Y-111361097D01*
X156286959Y-111361097D01*
X156498288Y-111334025D01*
X156498289Y-111334025D01*
X156503416Y-111333368D01*
X156508367Y-111331883D01*
X156508370Y-111331882D01*
X156549829Y-111319444D01*
X156620825Y-111319028D01*
X156675131Y-111351035D01*
X159085254Y-113761159D01*
X161466348Y-116142253D01*
X161473888Y-116150539D01*
X161478000Y-116157018D01*
X161483777Y-116162443D01*
X161527651Y-116203643D01*
X161530493Y-116206398D01*
X161550230Y-116226135D01*
X161553427Y-116228615D01*
X161562447Y-116236318D01*
X161594679Y-116266586D01*
X161601625Y-116270405D01*
X161601628Y-116270407D01*
X161612434Y-116276348D01*
X161628953Y-116287199D01*
X161644959Y-116299614D01*
X161652228Y-116302759D01*
X161652232Y-116302762D01*
X161685537Y-116317174D01*
X161696187Y-116322391D01*
X161734940Y-116343695D01*
X161742615Y-116345666D01*
X161742616Y-116345666D01*
X161754562Y-116348733D01*
X161773267Y-116355137D01*
X161791855Y-116363181D01*
X161799678Y-116364420D01*
X161799688Y-116364423D01*
X161835524Y-116370099D01*
X161847144Y-116372505D01*
X161882289Y-116381528D01*
X161889970Y-116383500D01*
X161910224Y-116383500D01*
X161929934Y-116385051D01*
X161949943Y-116388220D01*
X161957835Y-116387474D01*
X161993961Y-116384059D01*
X162005819Y-116383500D01*
X173291800Y-116383500D01*
X173359921Y-116403502D01*
X173379147Y-116419843D01*
X173379420Y-116419540D01*
X173384332Y-116423963D01*
X173388747Y-116428866D01*
X173543248Y-116541118D01*
X173549276Y-116543802D01*
X173549278Y-116543803D01*
X173711681Y-116616109D01*
X173717712Y-116618794D01*
X173792680Y-116634729D01*
X173898056Y-116657128D01*
X173898061Y-116657128D01*
X173904513Y-116658500D01*
X174095487Y-116658500D01*
X174101939Y-116657128D01*
X174101944Y-116657128D01*
X174207320Y-116634729D01*
X174282288Y-116618794D01*
X174288319Y-116616109D01*
X174450722Y-116543803D01*
X174450724Y-116543802D01*
X174456752Y-116541118D01*
X174611253Y-116428866D01*
X174647851Y-116388220D01*
X174734621Y-116291852D01*
X174734622Y-116291851D01*
X174739040Y-116286944D01*
X174822578Y-116142253D01*
X174831223Y-116127279D01*
X174831224Y-116127278D01*
X174834527Y-116121556D01*
X174893542Y-115939928D01*
X174913504Y-115750000D01*
X174893542Y-115560072D01*
X174834527Y-115378444D01*
X174827406Y-115366109D01*
X174784109Y-115291118D01*
X174739040Y-115213056D01*
X174711752Y-115182749D01*
X174615675Y-115076045D01*
X174615674Y-115076044D01*
X174611253Y-115071134D01*
X174466637Y-114966064D01*
X174462094Y-114962763D01*
X174462093Y-114962762D01*
X174456752Y-114958882D01*
X174450724Y-114956198D01*
X174450722Y-114956197D01*
X174288319Y-114883891D01*
X174288318Y-114883891D01*
X174282288Y-114881206D01*
X174188888Y-114861353D01*
X174101944Y-114842872D01*
X174101939Y-114842872D01*
X174095487Y-114841500D01*
X173904513Y-114841500D01*
X173898061Y-114842872D01*
X173898056Y-114842872D01*
X173811112Y-114861353D01*
X173717712Y-114881206D01*
X173711682Y-114883891D01*
X173711681Y-114883891D01*
X173549278Y-114956197D01*
X173549276Y-114956198D01*
X173543248Y-114958882D01*
X173537907Y-114962762D01*
X173537906Y-114962763D01*
X173533363Y-114966064D01*
X173388747Y-115071134D01*
X173384332Y-115076037D01*
X173379420Y-115080460D01*
X173378295Y-115079211D01*
X173324986Y-115112051D01*
X173291800Y-115116500D01*
X162284594Y-115116500D01*
X162216473Y-115096498D01*
X162195499Y-115079595D01*
X158691318Y-111575413D01*
X158657292Y-111513101D01*
X158662357Y-111442285D01*
X158704904Y-111385450D01*
X158771424Y-111360639D01*
X158785024Y-111360403D01*
X158801698Y-111361015D01*
X158816674Y-111361564D01*
X158816678Y-111361564D01*
X158821837Y-111361753D01*
X158826957Y-111361097D01*
X158826959Y-111361097D01*
X159038288Y-111334025D01*
X159038289Y-111334025D01*
X159043416Y-111333368D01*
X159048367Y-111331883D01*
X159048370Y-111331882D01*
X159089829Y-111319444D01*
X159160825Y-111319028D01*
X159215131Y-111351035D01*
X160431346Y-112567251D01*
X161506348Y-113642253D01*
X161513888Y-113650539D01*
X161518000Y-113657018D01*
X161523777Y-113662443D01*
X161567651Y-113703643D01*
X161570493Y-113706398D01*
X161590230Y-113726135D01*
X161593427Y-113728615D01*
X161602447Y-113736318D01*
X161634679Y-113766586D01*
X161641625Y-113770405D01*
X161641628Y-113770407D01*
X161652434Y-113776348D01*
X161668953Y-113787199D01*
X161684959Y-113799614D01*
X161692228Y-113802759D01*
X161692232Y-113802762D01*
X161725537Y-113817174D01*
X161736187Y-113822391D01*
X161774940Y-113843695D01*
X161782615Y-113845666D01*
X161782616Y-113845666D01*
X161794562Y-113848733D01*
X161813267Y-113855137D01*
X161831855Y-113863181D01*
X161839678Y-113864420D01*
X161839688Y-113864423D01*
X161875524Y-113870099D01*
X161887144Y-113872505D01*
X161922289Y-113881528D01*
X161929970Y-113883500D01*
X161950224Y-113883500D01*
X161969934Y-113885051D01*
X161989943Y-113888220D01*
X161997835Y-113887474D01*
X162033961Y-113884059D01*
X162045819Y-113883500D01*
X173291800Y-113883500D01*
X173359921Y-113903502D01*
X173379147Y-113919843D01*
X173379420Y-113919540D01*
X173384332Y-113923963D01*
X173388747Y-113928866D01*
X173543248Y-114041118D01*
X173549276Y-114043802D01*
X173549278Y-114043803D01*
X173711681Y-114116109D01*
X173717712Y-114118794D01*
X173792680Y-114134729D01*
X173898056Y-114157128D01*
X173898061Y-114157128D01*
X173904513Y-114158500D01*
X174095487Y-114158500D01*
X174101939Y-114157128D01*
X174101944Y-114157128D01*
X174207320Y-114134729D01*
X174282288Y-114118794D01*
X174288319Y-114116109D01*
X174450722Y-114043803D01*
X174450724Y-114043802D01*
X174456752Y-114041118D01*
X174611253Y-113928866D01*
X174647851Y-113888220D01*
X174734621Y-113791852D01*
X174734622Y-113791851D01*
X174739040Y-113786944D01*
X174834527Y-113621556D01*
X174893542Y-113439928D01*
X174913504Y-113250000D01*
X174893542Y-113060072D01*
X174834527Y-112878444D01*
X174739040Y-112713056D01*
X174649382Y-112613480D01*
X174615675Y-112576045D01*
X174615674Y-112576044D01*
X174611253Y-112571134D01*
X174456752Y-112458882D01*
X174450724Y-112456198D01*
X174450722Y-112456197D01*
X174288319Y-112383891D01*
X174288318Y-112383891D01*
X174282288Y-112381206D01*
X174188887Y-112361353D01*
X174101944Y-112342872D01*
X174101939Y-112342872D01*
X174095487Y-112341500D01*
X173904513Y-112341500D01*
X173898061Y-112342872D01*
X173898056Y-112342872D01*
X173811113Y-112361353D01*
X173717712Y-112381206D01*
X173711682Y-112383891D01*
X173711681Y-112383891D01*
X173549278Y-112456197D01*
X173549276Y-112456198D01*
X173543248Y-112458882D01*
X173388747Y-112571134D01*
X173384332Y-112576037D01*
X173379420Y-112580460D01*
X173378295Y-112579211D01*
X173324986Y-112612051D01*
X173291800Y-112616500D01*
X162324594Y-112616500D01*
X162256473Y-112596498D01*
X162235499Y-112579595D01*
X161229499Y-111573595D01*
X161195473Y-111511283D01*
X161200538Y-111440468D01*
X161243085Y-111383632D01*
X161309605Y-111358821D01*
X161318594Y-111358500D01*
X162198134Y-111358500D01*
X162260316Y-111351745D01*
X162396705Y-111300615D01*
X162513261Y-111213261D01*
X162600615Y-111096705D01*
X162651745Y-110960316D01*
X162658500Y-110898134D01*
X162658500Y-110759500D01*
X162678502Y-110691379D01*
X162732158Y-110644886D01*
X162784500Y-110633500D01*
X172935406Y-110633500D01*
X173003527Y-110653502D01*
X173024501Y-110670405D01*
X173052878Y-110698782D01*
X173086904Y-110761094D01*
X173089092Y-110774703D01*
X173092696Y-110808990D01*
X173104639Y-110922618D01*
X173106458Y-110939928D01*
X173165473Y-111121556D01*
X173168776Y-111127278D01*
X173168777Y-111127279D01*
X173194711Y-111172198D01*
X173260960Y-111286944D01*
X173265378Y-111291851D01*
X173265379Y-111291852D01*
X173328148Y-111361564D01*
X173388747Y-111428866D01*
X173543248Y-111541118D01*
X173549276Y-111543802D01*
X173549278Y-111543803D01*
X173620276Y-111575413D01*
X173717712Y-111618794D01*
X173811112Y-111638647D01*
X173898056Y-111657128D01*
X173898061Y-111657128D01*
X173904513Y-111658500D01*
X174095487Y-111658500D01*
X174101939Y-111657128D01*
X174101944Y-111657128D01*
X174188888Y-111638647D01*
X174282288Y-111618794D01*
X174379724Y-111575413D01*
X174450722Y-111543803D01*
X174450724Y-111543802D01*
X174456752Y-111541118D01*
X174611253Y-111428866D01*
X174671852Y-111361564D01*
X174734621Y-111291852D01*
X174734622Y-111291851D01*
X174739040Y-111286944D01*
X174805289Y-111172198D01*
X174831223Y-111127279D01*
X174831224Y-111127278D01*
X174834527Y-111121556D01*
X174893542Y-110939928D01*
X174895362Y-110922618D01*
X174912814Y-110756565D01*
X174913504Y-110750000D01*
X174905636Y-110675144D01*
X174894232Y-110566635D01*
X174894232Y-110566633D01*
X174893542Y-110560072D01*
X174834527Y-110378444D01*
X174739040Y-110213056D01*
X174713371Y-110184547D01*
X174615675Y-110076045D01*
X174615674Y-110076044D01*
X174611253Y-110071134D01*
X174456752Y-109958882D01*
X174450724Y-109956198D01*
X174450722Y-109956197D01*
X174288319Y-109883891D01*
X174288318Y-109883891D01*
X174282288Y-109881206D01*
X174188887Y-109861353D01*
X174101944Y-109842872D01*
X174101939Y-109842872D01*
X174095487Y-109841500D01*
X174039595Y-109841500D01*
X173971474Y-109821498D01*
X173950500Y-109804595D01*
X173753652Y-109607747D01*
X173746112Y-109599461D01*
X173742000Y-109592982D01*
X173692348Y-109546356D01*
X173689507Y-109543602D01*
X173669770Y-109523865D01*
X173666573Y-109521385D01*
X173657551Y-109513680D01*
X173625321Y-109483414D01*
X173618375Y-109479595D01*
X173618372Y-109479593D01*
X173607566Y-109473652D01*
X173591047Y-109462801D01*
X173590583Y-109462441D01*
X173575041Y-109450386D01*
X173567772Y-109447241D01*
X173567768Y-109447238D01*
X173534463Y-109432826D01*
X173523813Y-109427609D01*
X173485060Y-109406305D01*
X173465437Y-109401267D01*
X173446734Y-109394863D01*
X173435420Y-109389967D01*
X173435419Y-109389967D01*
X173428145Y-109386819D01*
X173420322Y-109385580D01*
X173420312Y-109385577D01*
X173384476Y-109379901D01*
X173372856Y-109377495D01*
X173337711Y-109368472D01*
X173337710Y-109368472D01*
X173330030Y-109366500D01*
X173309776Y-109366500D01*
X173290065Y-109364949D01*
X173277886Y-109363020D01*
X173270057Y-109361780D01*
X173262165Y-109362526D01*
X173226039Y-109365941D01*
X173214181Y-109366500D01*
X162784500Y-109366500D01*
X162716379Y-109346498D01*
X162669886Y-109292842D01*
X162658500Y-109240500D01*
X162658500Y-109101866D01*
X162651745Y-109039684D01*
X162600615Y-108903295D01*
X162513261Y-108786739D01*
X162396705Y-108699385D01*
X162260316Y-108648255D01*
X162198134Y-108641500D01*
X160401866Y-108641500D01*
X160339684Y-108648255D01*
X160203295Y-108699385D01*
X160086739Y-108786739D01*
X159999385Y-108903295D01*
X159996233Y-108911703D01*
X159954919Y-109021907D01*
X159912277Y-109078671D01*
X159845716Y-109103371D01*
X159776367Y-109088163D01*
X159743743Y-109062476D01*
X159693151Y-109006875D01*
X159693142Y-109006866D01*
X159689670Y-109003051D01*
X159685619Y-108999852D01*
X159685615Y-108999848D01*
X159518414Y-108867800D01*
X159518410Y-108867798D01*
X159514359Y-108864598D01*
X159478028Y-108844542D01*
X159386970Y-108794276D01*
X159318789Y-108756638D01*
X159313920Y-108754914D01*
X159313916Y-108754912D01*
X159113087Y-108683795D01*
X159113083Y-108683794D01*
X159108212Y-108682069D01*
X159103119Y-108681162D01*
X159103116Y-108681161D01*
X158893373Y-108643800D01*
X158893367Y-108643799D01*
X158888284Y-108642894D01*
X158814452Y-108641992D01*
X158670081Y-108640228D01*
X158670079Y-108640228D01*
X158664911Y-108640165D01*
X158444091Y-108673955D01*
X158231756Y-108743357D01*
X158033607Y-108846507D01*
X158029474Y-108849610D01*
X158029471Y-108849612D01*
X157946450Y-108911946D01*
X157854965Y-108980635D01*
X157829541Y-109007240D01*
X157743729Y-109097037D01*
X157700629Y-109142138D01*
X157593201Y-109299621D01*
X157538293Y-109344621D01*
X157467768Y-109352792D01*
X157404021Y-109321538D01*
X157383324Y-109297054D01*
X157302822Y-109172617D01*
X157302820Y-109172614D01*
X157300014Y-109168277D01*
X157149670Y-109003051D01*
X157145619Y-108999852D01*
X157145615Y-108999848D01*
X156978414Y-108867800D01*
X156978410Y-108867798D01*
X156974359Y-108864598D01*
X156938028Y-108844542D01*
X156846970Y-108794276D01*
X156778789Y-108756638D01*
X156773920Y-108754914D01*
X156773916Y-108754912D01*
X156573087Y-108683795D01*
X156573083Y-108683794D01*
X156568212Y-108682069D01*
X156563119Y-108681162D01*
X156563116Y-108681161D01*
X156353373Y-108643800D01*
X156353367Y-108643799D01*
X156348284Y-108642894D01*
X156274452Y-108641992D01*
X156130081Y-108640228D01*
X156130079Y-108640228D01*
X156124911Y-108640165D01*
X155904091Y-108673955D01*
X155691756Y-108743357D01*
X155493607Y-108846507D01*
X155489474Y-108849610D01*
X155489471Y-108849612D01*
X155406450Y-108911946D01*
X155314965Y-108980635D01*
X155289541Y-109007240D01*
X155203729Y-109097037D01*
X155160629Y-109142138D01*
X155053201Y-109299621D01*
X154998293Y-109344621D01*
X154927768Y-109352792D01*
X154864021Y-109321538D01*
X154843324Y-109297054D01*
X154762822Y-109172617D01*
X154762820Y-109172614D01*
X154760014Y-109168277D01*
X154609670Y-109003051D01*
X154605619Y-108999852D01*
X154605615Y-108999848D01*
X154438414Y-108867800D01*
X154438410Y-108867798D01*
X154434359Y-108864598D01*
X154398028Y-108844542D01*
X154306970Y-108794276D01*
X154238789Y-108756638D01*
X154233920Y-108754914D01*
X154233916Y-108754912D01*
X154033087Y-108683795D01*
X154033083Y-108683794D01*
X154028212Y-108682069D01*
X154023119Y-108681162D01*
X154023116Y-108681161D01*
X153813373Y-108643800D01*
X153813367Y-108643799D01*
X153808284Y-108642894D01*
X153734452Y-108641992D01*
X153590081Y-108640228D01*
X153590079Y-108640228D01*
X153584911Y-108640165D01*
X153364091Y-108673955D01*
X153151756Y-108743357D01*
X152953607Y-108846507D01*
X152949474Y-108849610D01*
X152949471Y-108849612D01*
X152866450Y-108911946D01*
X152774965Y-108980635D01*
X152749541Y-109007240D01*
X152663729Y-109097037D01*
X152620629Y-109142138D01*
X152513201Y-109299621D01*
X152458293Y-109344621D01*
X152387768Y-109352792D01*
X152324021Y-109321538D01*
X152303324Y-109297054D01*
X152222822Y-109172617D01*
X152222820Y-109172614D01*
X152220014Y-109168277D01*
X152069670Y-109003051D01*
X152065619Y-108999852D01*
X152065615Y-108999848D01*
X151898414Y-108867800D01*
X151898410Y-108867798D01*
X151894359Y-108864598D01*
X151858028Y-108844542D01*
X151766970Y-108794276D01*
X151698789Y-108756638D01*
X151693920Y-108754914D01*
X151693916Y-108754912D01*
X151493087Y-108683795D01*
X151493083Y-108683794D01*
X151488212Y-108682069D01*
X151483119Y-108681162D01*
X151483116Y-108681161D01*
X151273373Y-108643800D01*
X151273367Y-108643799D01*
X151268284Y-108642894D01*
X151194452Y-108641992D01*
X151050081Y-108640228D01*
X151050079Y-108640228D01*
X151044911Y-108640165D01*
X150824091Y-108673955D01*
X150611756Y-108743357D01*
X150413607Y-108846507D01*
X150409474Y-108849610D01*
X150409471Y-108849612D01*
X150326450Y-108911946D01*
X150234965Y-108980635D01*
X150209541Y-109007240D01*
X150123729Y-109097037D01*
X150080629Y-109142138D01*
X149973201Y-109299621D01*
X149918293Y-109344621D01*
X149847768Y-109352792D01*
X149784021Y-109321538D01*
X149763324Y-109297054D01*
X149682822Y-109172617D01*
X149682820Y-109172614D01*
X149680014Y-109168277D01*
X149529670Y-109003051D01*
X149525619Y-108999852D01*
X149525615Y-108999848D01*
X149358414Y-108867800D01*
X149358410Y-108867798D01*
X149354359Y-108864598D01*
X149318028Y-108844542D01*
X149226970Y-108794276D01*
X149158789Y-108756638D01*
X149153920Y-108754914D01*
X149153916Y-108754912D01*
X148953087Y-108683795D01*
X148953083Y-108683794D01*
X148948212Y-108682069D01*
X148943119Y-108681162D01*
X148943116Y-108681161D01*
X148733373Y-108643800D01*
X148733367Y-108643799D01*
X148728284Y-108642894D01*
X148654452Y-108641992D01*
X148510081Y-108640228D01*
X148510079Y-108640228D01*
X148504911Y-108640165D01*
X148284091Y-108673955D01*
X148071756Y-108743357D01*
X147873607Y-108846507D01*
X147869474Y-108849610D01*
X147869471Y-108849612D01*
X147786450Y-108911946D01*
X147694965Y-108980635D01*
X147669541Y-109007240D01*
X147583729Y-109097037D01*
X147540629Y-109142138D01*
X147433201Y-109299621D01*
X147378293Y-109344621D01*
X147307768Y-109352792D01*
X147244021Y-109321538D01*
X147223324Y-109297054D01*
X147142822Y-109172617D01*
X147142820Y-109172614D01*
X147140014Y-109168277D01*
X146989670Y-109003051D01*
X146985619Y-108999852D01*
X146985615Y-108999848D01*
X146818414Y-108867800D01*
X146818410Y-108867798D01*
X146814359Y-108864598D01*
X146778028Y-108844542D01*
X146686970Y-108794276D01*
X146618789Y-108756638D01*
X146613920Y-108754914D01*
X146613916Y-108754912D01*
X146413087Y-108683795D01*
X146413083Y-108683794D01*
X146408212Y-108682069D01*
X146403119Y-108681162D01*
X146403116Y-108681161D01*
X146193373Y-108643800D01*
X146193367Y-108643799D01*
X146188284Y-108642894D01*
X146114452Y-108641992D01*
X145970081Y-108640228D01*
X145970079Y-108640228D01*
X145964911Y-108640165D01*
X145744091Y-108673955D01*
X145531756Y-108743357D01*
X145333607Y-108846507D01*
X145329474Y-108849610D01*
X145329471Y-108849612D01*
X145246450Y-108911946D01*
X145154965Y-108980635D01*
X145129541Y-109007240D01*
X145043729Y-109097037D01*
X145000629Y-109142138D01*
X144893201Y-109299621D01*
X144838293Y-109344621D01*
X144767768Y-109352792D01*
X144704021Y-109321538D01*
X144683324Y-109297054D01*
X144602822Y-109172617D01*
X144602820Y-109172614D01*
X144600014Y-109168277D01*
X144449670Y-109003051D01*
X144445619Y-108999852D01*
X144445615Y-108999848D01*
X144278414Y-108867800D01*
X144278410Y-108867798D01*
X144274359Y-108864598D01*
X144238028Y-108844542D01*
X144146970Y-108794276D01*
X144078789Y-108756638D01*
X144073920Y-108754914D01*
X144073916Y-108754912D01*
X143873087Y-108683795D01*
X143873083Y-108683794D01*
X143868212Y-108682069D01*
X143863119Y-108681162D01*
X143863116Y-108681161D01*
X143653373Y-108643800D01*
X143653367Y-108643799D01*
X143648284Y-108642894D01*
X143574452Y-108641992D01*
X143430081Y-108640228D01*
X143430079Y-108640228D01*
X143424911Y-108640165D01*
X143204091Y-108673955D01*
X142991756Y-108743357D01*
X142793607Y-108846507D01*
X142789474Y-108849610D01*
X142789471Y-108849612D01*
X142706450Y-108911946D01*
X142614965Y-108980635D01*
X142589541Y-109007240D01*
X142503729Y-109097037D01*
X142460629Y-109142138D01*
X142353201Y-109299621D01*
X142298293Y-109344621D01*
X142227768Y-109352792D01*
X142164021Y-109321538D01*
X142143324Y-109297054D01*
X142062822Y-109172617D01*
X142062820Y-109172614D01*
X142060014Y-109168277D01*
X141909670Y-109003051D01*
X141905619Y-108999852D01*
X141905615Y-108999848D01*
X141738414Y-108867800D01*
X141738410Y-108867798D01*
X141734359Y-108864598D01*
X141698028Y-108844542D01*
X141606970Y-108794276D01*
X141538789Y-108756638D01*
X141533920Y-108754914D01*
X141533916Y-108754912D01*
X141333087Y-108683795D01*
X141333083Y-108683794D01*
X141328212Y-108682069D01*
X141323119Y-108681162D01*
X141323116Y-108681161D01*
X141113373Y-108643800D01*
X141113367Y-108643799D01*
X141108284Y-108642894D01*
X141034452Y-108641992D01*
X140890081Y-108640228D01*
X140890079Y-108640228D01*
X140884911Y-108640165D01*
X140664091Y-108673955D01*
X140451756Y-108743357D01*
X140253607Y-108846507D01*
X140249474Y-108849610D01*
X140249471Y-108849612D01*
X140166450Y-108911946D01*
X140074965Y-108980635D01*
X140049541Y-109007240D01*
X139963729Y-109097037D01*
X139920629Y-109142138D01*
X139813201Y-109299621D01*
X139758293Y-109344621D01*
X139687768Y-109352792D01*
X139624021Y-109321538D01*
X139603324Y-109297054D01*
X139522822Y-109172617D01*
X139522820Y-109172614D01*
X139520014Y-109168277D01*
X139369670Y-109003051D01*
X139365619Y-108999852D01*
X139365615Y-108999848D01*
X139198414Y-108867800D01*
X139198410Y-108867798D01*
X139194359Y-108864598D01*
X139158028Y-108844542D01*
X139066970Y-108794276D01*
X138998789Y-108756638D01*
X138993920Y-108754914D01*
X138993916Y-108754912D01*
X138793087Y-108683795D01*
X138793083Y-108683794D01*
X138788212Y-108682069D01*
X138783119Y-108681162D01*
X138783116Y-108681161D01*
X138573373Y-108643800D01*
X138573367Y-108643799D01*
X138568284Y-108642894D01*
X138494452Y-108641992D01*
X138350081Y-108640228D01*
X138350079Y-108640228D01*
X138344911Y-108640165D01*
X138124091Y-108673955D01*
X137911756Y-108743357D01*
X137713607Y-108846507D01*
X137709474Y-108849610D01*
X137709471Y-108849612D01*
X137626450Y-108911946D01*
X137534965Y-108980635D01*
X137509541Y-109007240D01*
X137423729Y-109097037D01*
X137380629Y-109142138D01*
X137273201Y-109299621D01*
X137218293Y-109344621D01*
X137147768Y-109352792D01*
X137084021Y-109321538D01*
X137063324Y-109297054D01*
X136982822Y-109172617D01*
X136982820Y-109172614D01*
X136980014Y-109168277D01*
X136829670Y-109003051D01*
X136825619Y-108999852D01*
X136825615Y-108999848D01*
X136658414Y-108867800D01*
X136658410Y-108867798D01*
X136654359Y-108864598D01*
X136618028Y-108844542D01*
X136526970Y-108794276D01*
X136458789Y-108756638D01*
X136453920Y-108754914D01*
X136453916Y-108754912D01*
X136253087Y-108683795D01*
X136253083Y-108683794D01*
X136248212Y-108682069D01*
X136243119Y-108681162D01*
X136243116Y-108681161D01*
X136033373Y-108643800D01*
X136033367Y-108643799D01*
X136028284Y-108642894D01*
X135954452Y-108641992D01*
X135810081Y-108640228D01*
X135810079Y-108640228D01*
X135804911Y-108640165D01*
X135584091Y-108673955D01*
X135371756Y-108743357D01*
X135173607Y-108846507D01*
X135169474Y-108849610D01*
X135169471Y-108849612D01*
X135086450Y-108911946D01*
X134994965Y-108980635D01*
X134969541Y-109007240D01*
X134883729Y-109097037D01*
X134840629Y-109142138D01*
X134733201Y-109299621D01*
X134678293Y-109344621D01*
X134607768Y-109352792D01*
X134544021Y-109321538D01*
X134523324Y-109297054D01*
X134442822Y-109172617D01*
X134442820Y-109172614D01*
X134440014Y-109168277D01*
X134289670Y-109003051D01*
X134285619Y-108999852D01*
X134285615Y-108999848D01*
X134118414Y-108867800D01*
X134118410Y-108867798D01*
X134114359Y-108864598D01*
X134078028Y-108844542D01*
X133986970Y-108794276D01*
X133918789Y-108756638D01*
X133913920Y-108754914D01*
X133913916Y-108754912D01*
X133713087Y-108683795D01*
X133713083Y-108683794D01*
X133708212Y-108682069D01*
X133703119Y-108681162D01*
X133703116Y-108681161D01*
X133493373Y-108643800D01*
X133493367Y-108643799D01*
X133488284Y-108642894D01*
X133414452Y-108641992D01*
X133270081Y-108640228D01*
X133270079Y-108640228D01*
X133264911Y-108640165D01*
X133044091Y-108673955D01*
X132831756Y-108743357D01*
X132633607Y-108846507D01*
X132629474Y-108849610D01*
X132629471Y-108849612D01*
X132546450Y-108911946D01*
X132454965Y-108980635D01*
X132429541Y-109007240D01*
X132343729Y-109097037D01*
X132300629Y-109142138D01*
X132193201Y-109299621D01*
X132138293Y-109344621D01*
X132067768Y-109352792D01*
X132004021Y-109321538D01*
X131983324Y-109297054D01*
X131902822Y-109172617D01*
X131902820Y-109172614D01*
X131900014Y-109168277D01*
X131749670Y-109003051D01*
X131745619Y-108999852D01*
X131745615Y-108999848D01*
X131578414Y-108867800D01*
X131578410Y-108867798D01*
X131574359Y-108864598D01*
X131538028Y-108844542D01*
X131446970Y-108794276D01*
X131378789Y-108756638D01*
X131373920Y-108754914D01*
X131373916Y-108754912D01*
X131173087Y-108683795D01*
X131173083Y-108683794D01*
X131168212Y-108682069D01*
X131163119Y-108681162D01*
X131163116Y-108681161D01*
X130953373Y-108643800D01*
X130953367Y-108643799D01*
X130948284Y-108642894D01*
X130874452Y-108641992D01*
X130730081Y-108640228D01*
X130730079Y-108640228D01*
X130724911Y-108640165D01*
X130504091Y-108673955D01*
X130291756Y-108743357D01*
X130093607Y-108846507D01*
X130089474Y-108849610D01*
X130089471Y-108849612D01*
X130006450Y-108911946D01*
X129914965Y-108980635D01*
X129889541Y-109007240D01*
X129803729Y-109097037D01*
X129760629Y-109142138D01*
X129653201Y-109299621D01*
X129598293Y-109344621D01*
X129527768Y-109352792D01*
X129464021Y-109321538D01*
X129443324Y-109297054D01*
X129362822Y-109172617D01*
X129362820Y-109172614D01*
X129360014Y-109168277D01*
X129209670Y-109003051D01*
X129205619Y-108999852D01*
X129205615Y-108999848D01*
X129038414Y-108867800D01*
X129038410Y-108867798D01*
X129034359Y-108864598D01*
X128998028Y-108844542D01*
X128906970Y-108794276D01*
X128838789Y-108756638D01*
X128833920Y-108754914D01*
X128833916Y-108754912D01*
X128633087Y-108683795D01*
X128633083Y-108683794D01*
X128628212Y-108682069D01*
X128623119Y-108681162D01*
X128623116Y-108681161D01*
X128413373Y-108643800D01*
X128413367Y-108643799D01*
X128408284Y-108642894D01*
X128334452Y-108641992D01*
X128190081Y-108640228D01*
X128190079Y-108640228D01*
X128184911Y-108640165D01*
X127964091Y-108673955D01*
X127751756Y-108743357D01*
X127553607Y-108846507D01*
X127549474Y-108849610D01*
X127549471Y-108849612D01*
X127466450Y-108911946D01*
X127374965Y-108980635D01*
X127349541Y-109007240D01*
X127263729Y-109097037D01*
X127220629Y-109142138D01*
X127113201Y-109299621D01*
X127058293Y-109344621D01*
X126987768Y-109352792D01*
X126924021Y-109321538D01*
X126903324Y-109297054D01*
X126822822Y-109172617D01*
X126822820Y-109172614D01*
X126820014Y-109168277D01*
X126669670Y-109003051D01*
X126665619Y-108999852D01*
X126665615Y-108999848D01*
X126498414Y-108867800D01*
X126498410Y-108867798D01*
X126494359Y-108864598D01*
X126458028Y-108844542D01*
X126366970Y-108794276D01*
X126298789Y-108756638D01*
X126293920Y-108754914D01*
X126293916Y-108754912D01*
X126093087Y-108683795D01*
X126093083Y-108683794D01*
X126088212Y-108682069D01*
X126083119Y-108681162D01*
X126083116Y-108681161D01*
X125873373Y-108643800D01*
X125873367Y-108643799D01*
X125868284Y-108642894D01*
X125794452Y-108641992D01*
X125650081Y-108640228D01*
X125650079Y-108640228D01*
X125644911Y-108640165D01*
X125424091Y-108673955D01*
X125211756Y-108743357D01*
X125013607Y-108846507D01*
X125009474Y-108849610D01*
X125009471Y-108849612D01*
X124926450Y-108911946D01*
X124834965Y-108980635D01*
X124809541Y-109007240D01*
X124723729Y-109097037D01*
X124680629Y-109142138D01*
X124573201Y-109299621D01*
X124518293Y-109344621D01*
X124447768Y-109352792D01*
X124384021Y-109321538D01*
X124363324Y-109297054D01*
X124282822Y-109172617D01*
X124282820Y-109172614D01*
X124280014Y-109168277D01*
X124129670Y-109003051D01*
X124125619Y-108999852D01*
X124125615Y-108999848D01*
X123958414Y-108867800D01*
X123958410Y-108867798D01*
X123954359Y-108864598D01*
X123918028Y-108844542D01*
X123826970Y-108794276D01*
X123758789Y-108756638D01*
X123753920Y-108754914D01*
X123753916Y-108754912D01*
X123553087Y-108683795D01*
X123553083Y-108683794D01*
X123548212Y-108682069D01*
X123543119Y-108681162D01*
X123543116Y-108681161D01*
X123333373Y-108643800D01*
X123333367Y-108643799D01*
X123328284Y-108642894D01*
X123254452Y-108641992D01*
X123110081Y-108640228D01*
X123110079Y-108640228D01*
X123104911Y-108640165D01*
X122884091Y-108673955D01*
X122671756Y-108743357D01*
X122473607Y-108846507D01*
X122469474Y-108849610D01*
X122469471Y-108849612D01*
X122386450Y-108911946D01*
X122294965Y-108980635D01*
X122269541Y-109007240D01*
X122183729Y-109097037D01*
X122140629Y-109142138D01*
X122014743Y-109326680D01*
X121976011Y-109410121D01*
X121939471Y-109488841D01*
X121920688Y-109529305D01*
X121860989Y-109744570D01*
X121837251Y-109966695D01*
X87836911Y-109966695D01*
X87836965Y-108042628D01*
X87856969Y-107974510D01*
X87910626Y-107928019D01*
X87962965Y-107916634D01*
X299608281Y-107916634D01*
X299676402Y-107936636D01*
G37*
G04 #@! TD.AperFunction*
M02*
