G04 #@! TF.GenerationSoftware,KiCad,Pcbnew,(6.0.2)*
G04 #@! TF.CreationDate,2023-03-16T16:07:34-07:00*
G04 #@! TF.ProjectId,hall-censor-and-cap-touch-prototype,68616c6c-2d63-4656-9e73-6f722d616e64,rev?*
G04 #@! TF.SameCoordinates,Original*
G04 #@! TF.FileFunction,Legend,Top*
G04 #@! TF.FilePolarity,Positive*
%FSLAX46Y46*%
G04 Gerber Fmt 4.6, Leading zero omitted, Abs format (unit mm)*
G04 Created by KiCad (PCBNEW (6.0.2)) date 2023-03-16 16:07:34*
%MOMM*%
%LPD*%
G01*
G04 APERTURE LIST*
G04 Aperture macros list*
%AMRoundRect*
0 Rectangle with rounded corners*
0 $1 Rounding radius*
0 $2 $3 $4 $5 $6 $7 $8 $9 X,Y pos of 4 corners*
0 Add a 4 corners polygon primitive as box body*
4,1,4,$2,$3,$4,$5,$6,$7,$8,$9,$2,$3,0*
0 Add four circle primitives for the rounded corners*
1,1,$1+$1,$2,$3*
1,1,$1+$1,$4,$5*
1,1,$1+$1,$6,$7*
1,1,$1+$1,$8,$9*
0 Add four rect primitives between the rounded corners*
20,1,$1+$1,$2,$3,$4,$5,0*
20,1,$1+$1,$4,$5,$6,$7,0*
20,1,$1+$1,$6,$7,$8,$9,0*
20,1,$1+$1,$8,$9,$2,$3,0*%
%AMRotRect*
0 Rectangle, with rotation*
0 The origin of the aperture is its center*
0 $1 length*
0 $2 width*
0 $3 Rotation angle, in degrees counterclockwise*
0 Add horizontal line*
21,1,$1,$2,0,0,$3*%
%AMFreePoly0*
4,1,22,0.500000,-0.750000,0.000000,-0.750000,0.000000,-0.745033,-0.079941,-0.743568,-0.215256,-0.701293,-0.333266,-0.622738,-0.424486,-0.514219,-0.481581,-0.384460,-0.499164,-0.250000,-0.500000,-0.250000,-0.500000,0.250000,-0.499164,0.250000,-0.499963,0.256109,-0.478152,0.396186,-0.417904,0.524511,-0.324060,0.630769,-0.204165,0.706417,-0.067858,0.745374,0.000000,0.744959,0.000000,0.750000,
0.500000,0.750000,0.500000,-0.750000,0.500000,-0.750000,$1*%
%AMFreePoly1*
4,1,20,0.000000,0.744959,0.073905,0.744508,0.209726,0.703889,0.328688,0.626782,0.421226,0.519385,0.479903,0.390333,0.500000,0.250000,0.500000,-0.250000,0.499851,-0.262216,0.476331,-0.402017,0.414519,-0.529596,0.319384,-0.634700,0.198574,-0.708877,0.061801,-0.746166,0.000000,-0.745033,0.000000,-0.750000,-0.500000,-0.750000,-0.500000,0.750000,0.000000,0.750000,0.000000,0.744959,
0.000000,0.744959,$1*%
G04 Aperture macros list end*
%ADD10C,0.150000*%
%ADD11C,0.120000*%
%ADD12C,0.127000*%
%ADD13C,0.200000*%
%ADD14R,1.700000X1.700000*%
%ADD15O,1.700000X1.700000*%
%ADD16RoundRect,0.225000X0.017678X-0.335876X0.335876X-0.017678X-0.017678X0.335876X-0.335876X0.017678X0*%
%ADD17RotRect,1.000000X1.000000X135.000000*%
%ADD18RoundRect,0.225000X0.250000X-0.225000X0.250000X0.225000X-0.250000X0.225000X-0.250000X-0.225000X0*%
%ADD19RotRect,1.000000X1.000000X157.500000*%
%ADD20FreePoly0,180.000000*%
%ADD21FreePoly1,180.000000*%
%ADD22FreePoly0,0.000000*%
%ADD23FreePoly1,0.000000*%
%ADD24RoundRect,0.225000X0.225000X0.250000X-0.225000X0.250000X-0.225000X-0.250000X0.225000X-0.250000X0*%
%ADD25RoundRect,0.225000X-0.303544X-0.144866X0.112202X-0.317074X0.303544X0.144866X-0.112202X0.317074X0*%
%ADD26RoundRect,0.225000X0.144866X-0.303544X0.317074X0.112202X-0.144866X0.303544X-0.317074X-0.112202X0*%
%ADD27RotRect,1.000000X1.000000X22.500000*%
%ADD28R,1.000000X1.000000*%
%ADD29RoundRect,0.225000X-0.250000X0.225000X-0.250000X-0.225000X0.250000X-0.225000X0.250000X0.225000X0*%
%ADD30RoundRect,0.200000X0.200000X0.275000X-0.200000X0.275000X-0.200000X-0.275000X0.200000X-0.275000X0*%
%ADD31RotRect,1.000000X1.000000X112.500000*%
%ADD32RoundRect,0.225000X-0.335876X-0.017678X-0.017678X-0.335876X0.335876X0.017678X0.017678X0.335876X0*%
%ADD33RoundRect,0.225000X-0.017678X0.335876X-0.335876X0.017678X0.017678X-0.335876X0.335876X-0.017678X0*%
%ADD34RoundRect,0.225000X0.112202X0.317074X-0.303544X0.144866X-0.112202X-0.317074X0.303544X-0.144866X0*%
%ADD35RoundRect,0.225000X-0.144866X0.303544X-0.317074X-0.112202X0.144866X-0.303544X0.317074X0.112202X0*%
%ADD36RoundRect,0.200000X-0.200000X-0.275000X0.200000X-0.275000X0.200000X0.275000X-0.200000X0.275000X0*%
%ADD37RotRect,1.000000X1.000000X247.500000*%
%ADD38RotRect,1.000000X1.000000X45.000000*%
%ADD39RoundRect,0.225000X0.317074X-0.112202X0.144866X0.303544X-0.317074X0.112202X-0.144866X-0.303544X0*%
%ADD40R,0.790000X0.270000*%
%ADD41R,0.270000X0.790000*%
%ADD42R,2.700000X2.700000*%
%ADD43RotRect,1.000000X1.000000X225.000000*%
%ADD44RotRect,1.000000X1.000000X202.500000*%
%ADD45RotRect,1.000000X1.000000X315.000000*%
%ADD46RoundRect,0.225000X-0.225000X-0.250000X0.225000X-0.250000X0.225000X0.250000X-0.225000X0.250000X0*%
%ADD47RotRect,1.000000X1.000000X337.500000*%
%ADD48RoundRect,0.225000X0.335876X0.017678X0.017678X0.335876X-0.335876X-0.017678X-0.017678X-0.335876X0*%
%ADD49RoundRect,0.225000X-0.112202X-0.317074X0.303544X-0.144866X0.112202X0.317074X-0.303544X0.144866X0*%
%ADD50RotRect,1.000000X1.000000X292.500000*%
%ADD51RoundRect,0.225000X0.303544X0.144866X-0.112202X0.317074X-0.303544X-0.144866X0.112202X-0.317074X0*%
%ADD52RotRect,1.000000X1.000000X67.500000*%
%ADD53R,1.550000X2.480000*%
%ADD54R,0.650000X0.300000*%
%ADD55RoundRect,0.225000X-0.317074X0.112202X-0.144866X-0.303544X0.317074X-0.112202X0.144866X0.303544X0*%
G04 APERTURE END LIST*
D10*
X191952380Y-113797619D02*
X191952380Y-113178571D01*
X192333333Y-113511904D01*
X192333333Y-113369047D01*
X192380952Y-113273809D01*
X192428571Y-113226190D01*
X192523809Y-113178571D01*
X192761904Y-113178571D01*
X192857142Y-113226190D01*
X192904761Y-113273809D01*
X192952380Y-113369047D01*
X192952380Y-113654761D01*
X192904761Y-113750000D01*
X192857142Y-113797619D01*
X192857142Y-112750000D02*
X192904761Y-112702380D01*
X192952380Y-112750000D01*
X192904761Y-112797619D01*
X192857142Y-112750000D01*
X192952380Y-112750000D01*
X191952380Y-112369047D02*
X191952380Y-111750000D01*
X192333333Y-112083333D01*
X192333333Y-111940476D01*
X192380952Y-111845238D01*
X192428571Y-111797619D01*
X192523809Y-111750000D01*
X192761904Y-111750000D01*
X192857142Y-111797619D01*
X192904761Y-111845238D01*
X192952380Y-111940476D01*
X192952380Y-112226190D01*
X192904761Y-112321428D01*
X192857142Y-112369047D01*
X221154761Y-114190476D02*
X221202380Y-114047619D01*
X221202380Y-113809523D01*
X221154761Y-113714285D01*
X221107142Y-113666666D01*
X221011904Y-113619047D01*
X220916666Y-113619047D01*
X220821428Y-113666666D01*
X220773809Y-113714285D01*
X220726190Y-113809523D01*
X220678571Y-114000000D01*
X220630952Y-114095238D01*
X220583333Y-114142857D01*
X220488095Y-114190476D01*
X220392857Y-114190476D01*
X220297619Y-114142857D01*
X220250000Y-114095238D01*
X220202380Y-114000000D01*
X220202380Y-113761904D01*
X220250000Y-113619047D01*
X221202380Y-112714285D02*
X221202380Y-113190476D01*
X220202380Y-113190476D01*
X221107142Y-111809523D02*
X221154761Y-111857142D01*
X221202380Y-112000000D01*
X221202380Y-112095238D01*
X221154761Y-112238095D01*
X221059523Y-112333333D01*
X220964285Y-112380952D01*
X220773809Y-112428571D01*
X220630952Y-112428571D01*
X220440476Y-112380952D01*
X220345238Y-112333333D01*
X220250000Y-112238095D01*
X220202380Y-112095238D01*
X220202380Y-112000000D01*
X220250000Y-111857142D01*
X220297619Y-111809523D01*
X227750000Y-113761904D02*
X227702380Y-113857142D01*
X227702380Y-114000000D01*
X227750000Y-114142857D01*
X227845238Y-114238095D01*
X227940476Y-114285714D01*
X228130952Y-114333333D01*
X228273809Y-114333333D01*
X228464285Y-114285714D01*
X228559523Y-114238095D01*
X228654761Y-114142857D01*
X228702380Y-114000000D01*
X228702380Y-113904761D01*
X228654761Y-113761904D01*
X228607142Y-113714285D01*
X228273809Y-113714285D01*
X228273809Y-113904761D01*
X228702380Y-113285714D02*
X227702380Y-113285714D01*
X228702380Y-112714285D01*
X227702380Y-112714285D01*
X228702380Y-112238095D02*
X227702380Y-112238095D01*
X227702380Y-112000000D01*
X227750000Y-111857142D01*
X227845238Y-111761904D01*
X227940476Y-111714285D01*
X228130952Y-111666666D01*
X228273809Y-111666666D01*
X228464285Y-111714285D01*
X228559523Y-111761904D01*
X228654761Y-111857142D01*
X228702380Y-112000000D01*
X228702380Y-112238095D01*
X198202380Y-113297619D02*
X197726190Y-113630952D01*
X198202380Y-113869047D02*
X197202380Y-113869047D01*
X197202380Y-113488095D01*
X197250000Y-113392857D01*
X197297619Y-113345238D01*
X197392857Y-113297619D01*
X197535714Y-113297619D01*
X197630952Y-113345238D01*
X197678571Y-113392857D01*
X197726190Y-113488095D01*
X197726190Y-113869047D01*
X198154761Y-112916666D02*
X198202380Y-112773809D01*
X198202380Y-112535714D01*
X198154761Y-112440476D01*
X198107142Y-112392857D01*
X198011904Y-112345238D01*
X197916666Y-112345238D01*
X197821428Y-112392857D01*
X197773809Y-112440476D01*
X197726190Y-112535714D01*
X197678571Y-112726190D01*
X197630952Y-112821428D01*
X197583333Y-112869047D01*
X197488095Y-112916666D01*
X197392857Y-112916666D01*
X197297619Y-112869047D01*
X197250000Y-112821428D01*
X197202380Y-112726190D01*
X197202380Y-112488095D01*
X197250000Y-112345238D01*
X197202380Y-112059523D02*
X197202380Y-111488095D01*
X198202380Y-111773809D02*
X197202380Y-111773809D01*
X203154761Y-114214285D02*
X203202380Y-114071428D01*
X203202380Y-113833333D01*
X203154761Y-113738095D01*
X203107142Y-113690476D01*
X203011904Y-113642857D01*
X202916666Y-113642857D01*
X202821428Y-113690476D01*
X202773809Y-113738095D01*
X202726190Y-113833333D01*
X202678571Y-114023809D01*
X202630952Y-114119047D01*
X202583333Y-114166666D01*
X202488095Y-114214285D01*
X202392857Y-114214285D01*
X202297619Y-114166666D01*
X202250000Y-114119047D01*
X202202380Y-114023809D01*
X202202380Y-113785714D01*
X202250000Y-113642857D01*
X203202380Y-113214285D02*
X202202380Y-113214285D01*
X202202380Y-112976190D01*
X202250000Y-112833333D01*
X202345238Y-112738095D01*
X202440476Y-112690476D01*
X202630952Y-112642857D01*
X202773809Y-112642857D01*
X202964285Y-112690476D01*
X203059523Y-112738095D01*
X203154761Y-112833333D01*
X203202380Y-112976190D01*
X203202380Y-113214285D01*
X202916666Y-112261904D02*
X202916666Y-111785714D01*
X203202380Y-112357142D02*
X202202380Y-112023809D01*
X203202380Y-111690476D01*
X123702380Y-112940476D02*
X123702380Y-113511904D01*
X123702380Y-113226190D02*
X122702380Y-113226190D01*
X122845238Y-113321428D01*
X122940476Y-113416666D01*
X122988095Y-113511904D01*
X122702380Y-112083333D02*
X122702380Y-112273809D01*
X122750000Y-112369047D01*
X122797619Y-112416666D01*
X122940476Y-112511904D01*
X123130952Y-112559523D01*
X123511904Y-112559523D01*
X123607142Y-112511904D01*
X123654761Y-112464285D01*
X123702380Y-112369047D01*
X123702380Y-112178571D01*
X123654761Y-112083333D01*
X123607142Y-112035714D01*
X123511904Y-111988095D01*
X123273809Y-111988095D01*
X123178571Y-112035714D01*
X123130952Y-112083333D01*
X123083333Y-112178571D01*
X123083333Y-112369047D01*
X123130952Y-112464285D01*
X123178571Y-112511904D01*
X123273809Y-112559523D01*
X204750000Y-113511904D02*
X204702380Y-113607142D01*
X204702380Y-113750000D01*
X204750000Y-113892857D01*
X204845238Y-113988095D01*
X204940476Y-114035714D01*
X205130952Y-114083333D01*
X205273809Y-114083333D01*
X205464285Y-114035714D01*
X205559523Y-113988095D01*
X205654761Y-113892857D01*
X205702380Y-113750000D01*
X205702380Y-113654761D01*
X205654761Y-113511904D01*
X205607142Y-113464285D01*
X205273809Y-113464285D01*
X205273809Y-113654761D01*
X205702380Y-113035714D02*
X204702380Y-113035714D01*
X205702380Y-112464285D01*
X204702380Y-112464285D01*
X205702380Y-111988095D02*
X204702380Y-111988095D01*
X204702380Y-111750000D01*
X204750000Y-111607142D01*
X204845238Y-111511904D01*
X204940476Y-111464285D01*
X205130952Y-111416666D01*
X205273809Y-111416666D01*
X205464285Y-111464285D01*
X205559523Y-111511904D01*
X205654761Y-111607142D01*
X205702380Y-111750000D01*
X205702380Y-111988095D01*
X161952380Y-112464285D02*
X161952380Y-113035714D01*
X161952380Y-112750000D02*
X160952380Y-112750000D01*
X161095238Y-112845238D01*
X161190476Y-112940476D01*
X161238095Y-113035714D01*
X200654761Y-113940476D02*
X200702380Y-113797619D01*
X200702380Y-113559523D01*
X200654761Y-113464285D01*
X200607142Y-113416666D01*
X200511904Y-113369047D01*
X200416666Y-113369047D01*
X200321428Y-113416666D01*
X200273809Y-113464285D01*
X200226190Y-113559523D01*
X200178571Y-113750000D01*
X200130952Y-113845238D01*
X200083333Y-113892857D01*
X199988095Y-113940476D01*
X199892857Y-113940476D01*
X199797619Y-113892857D01*
X199750000Y-113845238D01*
X199702380Y-113750000D01*
X199702380Y-113511904D01*
X199750000Y-113369047D01*
X200702380Y-112464285D02*
X200702380Y-112940476D01*
X199702380Y-112940476D01*
X200607142Y-111559523D02*
X200654761Y-111607142D01*
X200702380Y-111750000D01*
X200702380Y-111845238D01*
X200654761Y-111988095D01*
X200559523Y-112083333D01*
X200464285Y-112130952D01*
X200273809Y-112178571D01*
X200130952Y-112178571D01*
X199940476Y-112130952D01*
X199845238Y-112083333D01*
X199750000Y-111988095D01*
X199702380Y-111845238D01*
X199702380Y-111750000D01*
X199750000Y-111607142D01*
X199797619Y-111559523D01*
X226202380Y-113654761D02*
X225202380Y-113654761D01*
X226202380Y-113178571D02*
X225202380Y-113178571D01*
X226202380Y-112607142D01*
X225202380Y-112607142D01*
X225202380Y-112273809D02*
X225202380Y-111702380D01*
X226202380Y-111988095D02*
X225202380Y-111988095D01*
X195452380Y-113654761D02*
X194452380Y-113654761D01*
X195452380Y-113178571D02*
X194452380Y-113178571D01*
X195452380Y-112607142D01*
X194452380Y-112607142D01*
X194452380Y-112273809D02*
X194452380Y-111702380D01*
X195452380Y-111988095D02*
X194452380Y-111988095D01*
X217702380Y-113797619D02*
X217702380Y-113178571D01*
X218083333Y-113511904D01*
X218083333Y-113369047D01*
X218130952Y-113273809D01*
X218178571Y-113226190D01*
X218273809Y-113178571D01*
X218511904Y-113178571D01*
X218607142Y-113226190D01*
X218654761Y-113273809D01*
X218702380Y-113369047D01*
X218702380Y-113654761D01*
X218654761Y-113750000D01*
X218607142Y-113797619D01*
X218607142Y-112750000D02*
X218654761Y-112702380D01*
X218702380Y-112750000D01*
X218654761Y-112797619D01*
X218607142Y-112750000D01*
X218702380Y-112750000D01*
X217702380Y-112369047D02*
X217702380Y-111750000D01*
X218083333Y-112083333D01*
X218083333Y-111940476D01*
X218130952Y-111845238D01*
X218178571Y-111797619D01*
X218273809Y-111750000D01*
X218511904Y-111750000D01*
X218607142Y-111797619D01*
X218654761Y-111845238D01*
X218702380Y-111940476D01*
X218702380Y-112226190D01*
X218654761Y-112321428D01*
X218607142Y-112369047D01*
X223654761Y-114214285D02*
X223702380Y-114071428D01*
X223702380Y-113833333D01*
X223654761Y-113738095D01*
X223607142Y-113690476D01*
X223511904Y-113642857D01*
X223416666Y-113642857D01*
X223321428Y-113690476D01*
X223273809Y-113738095D01*
X223226190Y-113833333D01*
X223178571Y-114023809D01*
X223130952Y-114119047D01*
X223083333Y-114166666D01*
X222988095Y-114214285D01*
X222892857Y-114214285D01*
X222797619Y-114166666D01*
X222750000Y-114119047D01*
X222702380Y-114023809D01*
X222702380Y-113785714D01*
X222750000Y-113642857D01*
X223702380Y-113214285D02*
X222702380Y-113214285D01*
X222702380Y-112976190D01*
X222750000Y-112833333D01*
X222845238Y-112738095D01*
X222940476Y-112690476D01*
X223130952Y-112642857D01*
X223273809Y-112642857D01*
X223464285Y-112690476D01*
X223559523Y-112738095D01*
X223654761Y-112833333D01*
X223702380Y-112976190D01*
X223702380Y-113214285D01*
X223416666Y-112261904D02*
X223416666Y-111785714D01*
X223702380Y-112357142D02*
X222702380Y-112023809D01*
X223702380Y-111690476D01*
X164154761Y-114238095D02*
X164202380Y-114095238D01*
X164202380Y-113857142D01*
X164154761Y-113761904D01*
X164107142Y-113714285D01*
X164011904Y-113666666D01*
X163916666Y-113666666D01*
X163821428Y-113714285D01*
X163773809Y-113761904D01*
X163726190Y-113857142D01*
X163678571Y-114047619D01*
X163630952Y-114142857D01*
X163583333Y-114190476D01*
X163488095Y-114238095D01*
X163392857Y-114238095D01*
X163297619Y-114190476D01*
X163250000Y-114142857D01*
X163202380Y-114047619D01*
X163202380Y-113809523D01*
X163250000Y-113666666D01*
X164154761Y-112857142D02*
X164202380Y-112952380D01*
X164202380Y-113142857D01*
X164154761Y-113238095D01*
X164059523Y-113285714D01*
X163678571Y-113285714D01*
X163583333Y-113238095D01*
X163535714Y-113142857D01*
X163535714Y-112952380D01*
X163583333Y-112857142D01*
X163678571Y-112809523D01*
X163773809Y-112809523D01*
X163869047Y-113285714D01*
X163535714Y-112380952D02*
X164202380Y-112380952D01*
X163630952Y-112380952D02*
X163583333Y-112333333D01*
X163535714Y-112238095D01*
X163535714Y-112095238D01*
X163583333Y-112000000D01*
X163678571Y-111952380D01*
X164202380Y-111952380D01*
X164154761Y-111523809D02*
X164202380Y-111428571D01*
X164202380Y-111238095D01*
X164154761Y-111142857D01*
X164059523Y-111095238D01*
X164011904Y-111095238D01*
X163916666Y-111142857D01*
X163869047Y-111238095D01*
X163869047Y-111380952D01*
X163821428Y-111476190D01*
X163726190Y-111523809D01*
X163678571Y-111523809D01*
X163583333Y-111476190D01*
X163535714Y-111380952D01*
X163535714Y-111238095D01*
X163583333Y-111142857D01*
X164202380Y-110523809D02*
X164154761Y-110619047D01*
X164107142Y-110666666D01*
X164011904Y-110714285D01*
X163726190Y-110714285D01*
X163630952Y-110666666D01*
X163583333Y-110619047D01*
X163535714Y-110523809D01*
X163535714Y-110380952D01*
X163583333Y-110285714D01*
X163630952Y-110238095D01*
X163726190Y-110190476D01*
X164011904Y-110190476D01*
X164107142Y-110238095D01*
X164154761Y-110285714D01*
X164202380Y-110380952D01*
X164202380Y-110523809D01*
X164202380Y-109761904D02*
X163535714Y-109761904D01*
X163726190Y-109761904D02*
X163630952Y-109714285D01*
X163583333Y-109666666D01*
X163535714Y-109571428D01*
X163535714Y-109476190D01*
X164154761Y-109190476D02*
X164202380Y-109095238D01*
X164202380Y-108904761D01*
X164154761Y-108809523D01*
X164059523Y-108761904D01*
X164011904Y-108761904D01*
X163916666Y-108809523D01*
X163869047Y-108904761D01*
X163869047Y-109047619D01*
X163821428Y-109142857D01*
X163726190Y-109190476D01*
X163678571Y-109190476D01*
X163583333Y-109142857D01*
X163535714Y-109047619D01*
X163535714Y-108904761D01*
X163583333Y-108809523D01*
X173437076Y-231342778D02*
X173437076Y-231410121D01*
X173369732Y-231544808D01*
X173302389Y-231612152D01*
X173167701Y-231679495D01*
X173033014Y-231679495D01*
X172931999Y-231645824D01*
X172763640Y-231544808D01*
X172662625Y-231443793D01*
X172561610Y-231275434D01*
X172527938Y-231174419D01*
X172527938Y-231039732D01*
X172595282Y-230905045D01*
X172662625Y-230837701D01*
X172797312Y-230770358D01*
X172864656Y-230770358D01*
X173403404Y-230096923D02*
X173268717Y-230231610D01*
X173235045Y-230332625D01*
X173235045Y-230399969D01*
X173268717Y-230568327D01*
X173369732Y-230736686D01*
X173639106Y-231006060D01*
X173740121Y-231039732D01*
X173807465Y-231039732D01*
X173908480Y-231006060D01*
X174043167Y-230871373D01*
X174076839Y-230770358D01*
X174076839Y-230703014D01*
X174043167Y-230601999D01*
X173874808Y-230433640D01*
X173773793Y-230399969D01*
X173706450Y-230399969D01*
X173605434Y-230433640D01*
X173470747Y-230568327D01*
X173437076Y-230669343D01*
X173437076Y-230736686D01*
X173470747Y-230837701D01*
X173524329Y-162877114D02*
X173456986Y-162742427D01*
X173288627Y-162574068D01*
X173187612Y-162540396D01*
X173120268Y-162540396D01*
X173019253Y-162574068D01*
X172951910Y-162641411D01*
X172918238Y-162742427D01*
X172918238Y-162809770D01*
X172951910Y-162910785D01*
X173052925Y-163079144D01*
X173086597Y-163180159D01*
X173086597Y-163247503D01*
X173052925Y-163348518D01*
X172985581Y-163415862D01*
X172884566Y-163449533D01*
X172817223Y-163449533D01*
X172716207Y-163415862D01*
X172547849Y-163247503D01*
X172480505Y-163112816D01*
X172211131Y-162910785D02*
X171739727Y-162439381D01*
X172749879Y-162035320D01*
X189777142Y-198686666D02*
X189824761Y-198734285D01*
X189872380Y-198877142D01*
X189872380Y-198972380D01*
X189824761Y-199115238D01*
X189729523Y-199210476D01*
X189634285Y-199258095D01*
X189443809Y-199305714D01*
X189300952Y-199305714D01*
X189110476Y-199258095D01*
X189015238Y-199210476D01*
X188920000Y-199115238D01*
X188872380Y-198972380D01*
X188872380Y-198877142D01*
X188920000Y-198734285D01*
X188967619Y-198686666D01*
X189300952Y-198115238D02*
X189253333Y-198210476D01*
X189205714Y-198258095D01*
X189110476Y-198305714D01*
X189062857Y-198305714D01*
X188967619Y-198258095D01*
X188920000Y-198210476D01*
X188872380Y-198115238D01*
X188872380Y-197924761D01*
X188920000Y-197829523D01*
X188967619Y-197781904D01*
X189062857Y-197734285D01*
X189110476Y-197734285D01*
X189205714Y-197781904D01*
X189253333Y-197829523D01*
X189300952Y-197924761D01*
X189300952Y-198115238D01*
X189348571Y-198210476D01*
X189396190Y-198258095D01*
X189491428Y-198305714D01*
X189681904Y-198305714D01*
X189777142Y-198258095D01*
X189824761Y-198210476D01*
X189872380Y-198115238D01*
X189872380Y-197924761D01*
X189824761Y-197829523D01*
X189777142Y-197781904D01*
X189681904Y-197734285D01*
X189491428Y-197734285D01*
X189396190Y-197781904D01*
X189348571Y-197829523D01*
X189300952Y-197924761D01*
X158786463Y-153418920D02*
X158672704Y-153320256D01*
X158452732Y-153229141D01*
X158346521Y-153236689D01*
X158284303Y-153262461D01*
X158203863Y-153332226D01*
X158167417Y-153420215D01*
X158174965Y-153526426D01*
X158200737Y-153588643D01*
X158270502Y-153669084D01*
X158428256Y-153785970D01*
X158498022Y-153866410D01*
X158523793Y-153928628D01*
X158531341Y-154034839D01*
X158494895Y-154122828D01*
X158414455Y-154192593D01*
X158352237Y-154218365D01*
X158246026Y-154225913D01*
X158026055Y-154134798D01*
X157912295Y-154036134D01*
X157530148Y-153465504D02*
X157599913Y-153545944D01*
X157625685Y-153608162D01*
X157633233Y-153714373D01*
X157615010Y-153758367D01*
X157534569Y-153828133D01*
X157472352Y-153853904D01*
X157366141Y-153861452D01*
X157190164Y-153788560D01*
X157120398Y-153708120D01*
X157094627Y-153645903D01*
X157087079Y-153539691D01*
X157105302Y-153495697D01*
X157185742Y-153425931D01*
X157247959Y-153400160D01*
X157354171Y-153392612D01*
X157530148Y-153465504D01*
X157636359Y-153457956D01*
X157698577Y-153432185D01*
X157779017Y-153362419D01*
X157851909Y-153186442D01*
X157844361Y-153080230D01*
X157818590Y-153018013D01*
X157748824Y-152937573D01*
X157572847Y-152864681D01*
X157466635Y-152872229D01*
X157404418Y-152898000D01*
X157323978Y-152967766D01*
X157251086Y-153143743D01*
X157258634Y-153249954D01*
X157284405Y-153312172D01*
X157354171Y-153392612D01*
X210309523Y-113154761D02*
X210452380Y-113202380D01*
X210690476Y-113202380D01*
X210785714Y-113154761D01*
X210833333Y-113107142D01*
X210880952Y-113011904D01*
X210880952Y-112916666D01*
X210833333Y-112821428D01*
X210785714Y-112773809D01*
X210690476Y-112726190D01*
X210500000Y-112678571D01*
X210404761Y-112630952D01*
X210357142Y-112583333D01*
X210309523Y-112488095D01*
X210309523Y-112392857D01*
X210357142Y-112297619D01*
X210404761Y-112250000D01*
X210500000Y-112202380D01*
X210738095Y-112202380D01*
X210880952Y-112250000D01*
X211785714Y-113202380D02*
X211309523Y-113202380D01*
X211309523Y-112202380D01*
X212690476Y-113107142D02*
X212642857Y-113154761D01*
X212500000Y-113202380D01*
X212404761Y-113202380D01*
X212261904Y-113154761D01*
X212166666Y-113059523D01*
X212119047Y-112964285D01*
X212071428Y-112773809D01*
X212071428Y-112630952D01*
X212119047Y-112440476D01*
X212166666Y-112345238D01*
X212261904Y-112250000D01*
X212404761Y-112202380D01*
X212500000Y-112202380D01*
X212642857Y-112250000D01*
X212690476Y-112297619D01*
X171738095Y-126154761D02*
X171880952Y-126202380D01*
X172119047Y-126202380D01*
X172214285Y-126154761D01*
X172261904Y-126107142D01*
X172309523Y-126011904D01*
X172309523Y-125916666D01*
X172261904Y-125821428D01*
X172214285Y-125773809D01*
X172119047Y-125726190D01*
X171928571Y-125678571D01*
X171833333Y-125630952D01*
X171785714Y-125583333D01*
X171738095Y-125488095D01*
X171738095Y-125392857D01*
X171785714Y-125297619D01*
X171833333Y-125250000D01*
X171928571Y-125202380D01*
X172166666Y-125202380D01*
X172309523Y-125250000D01*
X172642857Y-125202380D02*
X173309523Y-125202380D01*
X172880952Y-126202380D01*
X194692753Y-131357142D02*
X194645134Y-131404761D01*
X194502277Y-131452380D01*
X194407039Y-131452380D01*
X194264181Y-131404761D01*
X194168943Y-131309523D01*
X194121324Y-131214285D01*
X194073705Y-131023809D01*
X194073705Y-130880952D01*
X194121324Y-130690476D01*
X194168943Y-130595238D01*
X194264181Y-130500000D01*
X194407039Y-130452380D01*
X194502277Y-130452380D01*
X194645134Y-130500000D01*
X194692753Y-130547619D01*
X195073705Y-130547619D02*
X195121324Y-130500000D01*
X195216562Y-130452380D01*
X195454658Y-130452380D01*
X195549896Y-130500000D01*
X195597515Y-130547619D01*
X195645134Y-130642857D01*
X195645134Y-130738095D01*
X195597515Y-130880952D01*
X195026086Y-131452380D01*
X195645134Y-131452380D01*
X121760007Y-237754271D02*
X121822224Y-237728500D01*
X121972430Y-237739175D01*
X122060418Y-237775621D01*
X122174178Y-237874284D01*
X122225721Y-237998719D01*
X122233269Y-238104930D01*
X122204371Y-238299130D01*
X122149702Y-238431113D01*
X122032816Y-238588867D01*
X121952375Y-238658633D01*
X121827941Y-238710175D01*
X121677735Y-238699500D01*
X121589746Y-238663054D01*
X121475987Y-238564391D01*
X121450215Y-238502174D01*
X120916567Y-237301822D02*
X121444499Y-237520499D01*
X121180533Y-237411160D02*
X120797850Y-238335040D01*
X120940507Y-238239503D01*
X121064942Y-238187961D01*
X121171153Y-238180413D01*
X120476625Y-237119592D02*
X120300648Y-237046700D01*
X120194436Y-237054248D01*
X120132219Y-237080020D01*
X119989561Y-237175556D01*
X119872675Y-237333310D01*
X119726891Y-237685264D01*
X119734439Y-237791476D01*
X119760210Y-237853693D01*
X119829976Y-237934134D01*
X120005953Y-238007026D01*
X120112164Y-237999477D01*
X120174382Y-237973706D01*
X120254822Y-237903941D01*
X120345937Y-237683969D01*
X120338389Y-237577758D01*
X120312618Y-237515541D01*
X120242852Y-237435100D01*
X120066875Y-237362208D01*
X119960664Y-237369756D01*
X119898446Y-237395528D01*
X119818006Y-237465293D01*
X184938504Y-216789366D02*
X184964275Y-216851583D01*
X184953600Y-217001789D01*
X184917154Y-217089778D01*
X184818491Y-217203537D01*
X184694056Y-217255080D01*
X184587845Y-217262628D01*
X184393645Y-217233730D01*
X184261662Y-217179061D01*
X184103908Y-217062175D01*
X184034142Y-216981735D01*
X183982600Y-216857300D01*
X183993275Y-216707094D01*
X184029721Y-216619106D01*
X184128384Y-216505346D01*
X184190601Y-216479575D01*
X184230174Y-216135169D02*
X184485296Y-215519249D01*
X185245169Y-216297881D01*
X171738095Y-113654761D02*
X171880952Y-113702380D01*
X172119047Y-113702380D01*
X172214285Y-113654761D01*
X172261904Y-113607142D01*
X172309523Y-113511904D01*
X172309523Y-113416666D01*
X172261904Y-113321428D01*
X172214285Y-113273809D01*
X172119047Y-113226190D01*
X171928571Y-113178571D01*
X171833333Y-113130952D01*
X171785714Y-113083333D01*
X171738095Y-112988095D01*
X171738095Y-112892857D01*
X171785714Y-112797619D01*
X171833333Y-112750000D01*
X171928571Y-112702380D01*
X172166666Y-112702380D01*
X172309523Y-112750000D01*
X172690476Y-112797619D02*
X172738095Y-112750000D01*
X172833333Y-112702380D01*
X173071428Y-112702380D01*
X173166666Y-112750000D01*
X173214285Y-112797619D01*
X173261904Y-112892857D01*
X173261904Y-112988095D01*
X173214285Y-113130952D01*
X172642857Y-113702380D01*
X173261904Y-113702380D01*
X159759294Y-236516194D02*
X159909500Y-236505519D01*
X160129471Y-236414404D01*
X160199237Y-236333964D01*
X160225008Y-236271747D01*
X160232556Y-236165535D01*
X160196110Y-236077547D01*
X160115670Y-236007781D01*
X160053452Y-235982010D01*
X159947241Y-235974462D01*
X159753041Y-236003359D01*
X159646829Y-235995811D01*
X159584612Y-235970040D01*
X159504172Y-235900274D01*
X159467726Y-235812286D01*
X159475274Y-235706074D01*
X159501045Y-235643857D01*
X159570811Y-235563417D01*
X159790782Y-235472302D01*
X159940988Y-235461627D01*
X160311165Y-235359837D02*
X160336936Y-235297620D01*
X160406702Y-235217179D01*
X160626673Y-235126064D01*
X160732884Y-235133612D01*
X160795102Y-235159384D01*
X160875542Y-235229149D01*
X160911988Y-235317138D01*
X160922663Y-235467344D01*
X160613408Y-236213951D01*
X161185333Y-235977052D01*
X196583333Y-128357142D02*
X196535714Y-128404761D01*
X196392857Y-128452380D01*
X196297619Y-128452380D01*
X196154761Y-128404761D01*
X196059523Y-128309523D01*
X196011904Y-128214285D01*
X195964285Y-128023809D01*
X195964285Y-127880952D01*
X196011904Y-127690476D01*
X196059523Y-127595238D01*
X196154761Y-127500000D01*
X196297619Y-127452380D01*
X196392857Y-127452380D01*
X196535714Y-127500000D01*
X196583333Y-127547619D01*
X197535714Y-128452380D02*
X196964285Y-128452380D01*
X197250000Y-128452380D02*
X197250000Y-127452380D01*
X197154761Y-127595238D01*
X197059523Y-127690476D01*
X196964285Y-127738095D01*
X183488095Y-111154761D02*
X183630952Y-111202380D01*
X183869047Y-111202380D01*
X183964285Y-111154761D01*
X184011904Y-111107142D01*
X184059523Y-111011904D01*
X184059523Y-110916666D01*
X184011904Y-110821428D01*
X183964285Y-110773809D01*
X183869047Y-110726190D01*
X183678571Y-110678571D01*
X183583333Y-110630952D01*
X183535714Y-110583333D01*
X183488095Y-110488095D01*
X183488095Y-110392857D01*
X183535714Y-110297619D01*
X183583333Y-110250000D01*
X183678571Y-110202380D01*
X183916666Y-110202380D01*
X184059523Y-110250000D01*
X184535714Y-111202380D02*
X184726190Y-111202380D01*
X184821428Y-111154761D01*
X184869047Y-111107142D01*
X184964285Y-110964285D01*
X185011904Y-110773809D01*
X185011904Y-110392857D01*
X184964285Y-110297619D01*
X184916666Y-110250000D01*
X184821428Y-110202380D01*
X184630952Y-110202380D01*
X184535714Y-110250000D01*
X184488095Y-110297619D01*
X184440476Y-110392857D01*
X184440476Y-110630952D01*
X184488095Y-110726190D01*
X184535714Y-110773809D01*
X184630952Y-110821428D01*
X184821428Y-110821428D01*
X184916666Y-110773809D01*
X184964285Y-110726190D01*
X185011904Y-110630952D01*
X139993095Y-150849761D02*
X140135952Y-150897380D01*
X140374047Y-150897380D01*
X140469285Y-150849761D01*
X140516904Y-150802142D01*
X140564523Y-150706904D01*
X140564523Y-150611666D01*
X140516904Y-150516428D01*
X140469285Y-150468809D01*
X140374047Y-150421190D01*
X140183571Y-150373571D01*
X140088333Y-150325952D01*
X140040714Y-150278333D01*
X139993095Y-150183095D01*
X139993095Y-150087857D01*
X140040714Y-149992619D01*
X140088333Y-149945000D01*
X140183571Y-149897380D01*
X140421666Y-149897380D01*
X140564523Y-149945000D01*
X141040714Y-150897380D02*
X141231190Y-150897380D01*
X141326428Y-150849761D01*
X141374047Y-150802142D01*
X141469285Y-150659285D01*
X141516904Y-150468809D01*
X141516904Y-150087857D01*
X141469285Y-149992619D01*
X141421666Y-149945000D01*
X141326428Y-149897380D01*
X141135952Y-149897380D01*
X141040714Y-149945000D01*
X140993095Y-149992619D01*
X140945476Y-150087857D01*
X140945476Y-150325952D01*
X140993095Y-150421190D01*
X141040714Y-150468809D01*
X141135952Y-150516428D01*
X141326428Y-150516428D01*
X141421666Y-150468809D01*
X141469285Y-150421190D01*
X141516904Y-150325952D01*
X171738095Y-111154761D02*
X171880952Y-111202380D01*
X172119047Y-111202380D01*
X172214285Y-111154761D01*
X172261904Y-111107142D01*
X172309523Y-111011904D01*
X172309523Y-110916666D01*
X172261904Y-110821428D01*
X172214285Y-110773809D01*
X172119047Y-110726190D01*
X171928571Y-110678571D01*
X171833333Y-110630952D01*
X171785714Y-110583333D01*
X171738095Y-110488095D01*
X171738095Y-110392857D01*
X171785714Y-110297619D01*
X171833333Y-110250000D01*
X171928571Y-110202380D01*
X172166666Y-110202380D01*
X172309523Y-110250000D01*
X173261904Y-111202380D02*
X172690476Y-111202380D01*
X172976190Y-111202380D02*
X172976190Y-110202380D01*
X172880952Y-110345238D01*
X172785714Y-110440476D01*
X172690476Y-110488095D01*
X94887142Y-192662857D02*
X94934761Y-192710476D01*
X94982380Y-192853333D01*
X94982380Y-192948571D01*
X94934761Y-193091428D01*
X94839523Y-193186666D01*
X94744285Y-193234285D01*
X94553809Y-193281904D01*
X94410952Y-193281904D01*
X94220476Y-193234285D01*
X94125238Y-193186666D01*
X94030000Y-193091428D01*
X93982380Y-192948571D01*
X93982380Y-192853333D01*
X94030000Y-192710476D01*
X94077619Y-192662857D01*
X94982380Y-191710476D02*
X94982380Y-192281904D01*
X94982380Y-191996190D02*
X93982380Y-191996190D01*
X94125238Y-192091428D01*
X94220476Y-192186666D01*
X94268095Y-192281904D01*
X93982380Y-190853333D02*
X93982380Y-191043809D01*
X94030000Y-191139047D01*
X94077619Y-191186666D01*
X94220476Y-191281904D01*
X94410952Y-191329523D01*
X94791904Y-191329523D01*
X94887142Y-191281904D01*
X94934761Y-191234285D01*
X94982380Y-191139047D01*
X94982380Y-190948571D01*
X94934761Y-190853333D01*
X94887142Y-190805714D01*
X94791904Y-190758095D01*
X94553809Y-190758095D01*
X94458571Y-190805714D01*
X94410952Y-190853333D01*
X94363333Y-190948571D01*
X94363333Y-191139047D01*
X94410952Y-191234285D01*
X94458571Y-191281904D01*
X94553809Y-191329523D01*
X187079761Y-194761904D02*
X187127380Y-194619047D01*
X187127380Y-194380952D01*
X187079761Y-194285714D01*
X187032142Y-194238095D01*
X186936904Y-194190476D01*
X186841666Y-194190476D01*
X186746428Y-194238095D01*
X186698809Y-194285714D01*
X186651190Y-194380952D01*
X186603571Y-194571428D01*
X186555952Y-194666666D01*
X186508333Y-194714285D01*
X186413095Y-194761904D01*
X186317857Y-194761904D01*
X186222619Y-194714285D01*
X186175000Y-194666666D01*
X186127380Y-194571428D01*
X186127380Y-194333333D01*
X186175000Y-194190476D01*
X186127380Y-193285714D02*
X186127380Y-193761904D01*
X186603571Y-193809523D01*
X186555952Y-193761904D01*
X186508333Y-193666666D01*
X186508333Y-193428571D01*
X186555952Y-193333333D01*
X186603571Y-193285714D01*
X186698809Y-193238095D01*
X186936904Y-193238095D01*
X187032142Y-193285714D01*
X187079761Y-193333333D01*
X187127380Y-193428571D01*
X187127380Y-193666666D01*
X187079761Y-193761904D01*
X187032142Y-193809523D01*
X222333333Y-149202380D02*
X222000000Y-148726190D01*
X221761904Y-149202380D02*
X221761904Y-148202380D01*
X222142857Y-148202380D01*
X222238095Y-148250000D01*
X222285714Y-148297619D01*
X222333333Y-148392857D01*
X222333333Y-148535714D01*
X222285714Y-148630952D01*
X222238095Y-148678571D01*
X222142857Y-148726190D01*
X221761904Y-148726190D01*
X222714285Y-148297619D02*
X222761904Y-148250000D01*
X222857142Y-148202380D01*
X223095238Y-148202380D01*
X223190476Y-148250000D01*
X223238095Y-148297619D01*
X223285714Y-148392857D01*
X223285714Y-148488095D01*
X223238095Y-148630952D01*
X222666666Y-149202380D01*
X223285714Y-149202380D01*
X171738095Y-123654761D02*
X171880952Y-123702380D01*
X172119047Y-123702380D01*
X172214285Y-123654761D01*
X172261904Y-123607142D01*
X172309523Y-123511904D01*
X172309523Y-123416666D01*
X172261904Y-123321428D01*
X172214285Y-123273809D01*
X172119047Y-123226190D01*
X171928571Y-123178571D01*
X171833333Y-123130952D01*
X171785714Y-123083333D01*
X171738095Y-122988095D01*
X171738095Y-122892857D01*
X171785714Y-122797619D01*
X171833333Y-122750000D01*
X171928571Y-122702380D01*
X172166666Y-122702380D01*
X172309523Y-122750000D01*
X173166666Y-122702380D02*
X172976190Y-122702380D01*
X172880952Y-122750000D01*
X172833333Y-122797619D01*
X172738095Y-122940476D01*
X172690476Y-123130952D01*
X172690476Y-123511904D01*
X172738095Y-123607142D01*
X172785714Y-123654761D01*
X172880952Y-123702380D01*
X173071428Y-123702380D01*
X173166666Y-123654761D01*
X173214285Y-123607142D01*
X173261904Y-123511904D01*
X173261904Y-123273809D01*
X173214285Y-123178571D01*
X173166666Y-123130952D01*
X173071428Y-123083333D01*
X172880952Y-123083333D01*
X172785714Y-123130952D01*
X172738095Y-123178571D01*
X172690476Y-123273809D01*
X171738095Y-116154761D02*
X171880952Y-116202380D01*
X172119047Y-116202380D01*
X172214285Y-116154761D01*
X172261904Y-116107142D01*
X172309523Y-116011904D01*
X172309523Y-115916666D01*
X172261904Y-115821428D01*
X172214285Y-115773809D01*
X172119047Y-115726190D01*
X171928571Y-115678571D01*
X171833333Y-115630952D01*
X171785714Y-115583333D01*
X171738095Y-115488095D01*
X171738095Y-115392857D01*
X171785714Y-115297619D01*
X171833333Y-115250000D01*
X171928571Y-115202380D01*
X172166666Y-115202380D01*
X172309523Y-115250000D01*
X172642857Y-115202380D02*
X173261904Y-115202380D01*
X172928571Y-115583333D01*
X173071428Y-115583333D01*
X173166666Y-115630952D01*
X173214285Y-115678571D01*
X173261904Y-115773809D01*
X173261904Y-116011904D01*
X173214285Y-116107142D01*
X173166666Y-116154761D01*
X173071428Y-116202380D01*
X172785714Y-116202380D01*
X172690476Y-116154761D01*
X172642857Y-116107142D01*
X183596194Y-177610705D02*
X183585519Y-177460499D01*
X183494404Y-177240528D01*
X183413964Y-177170762D01*
X183351747Y-177144991D01*
X183245535Y-177137443D01*
X183157547Y-177173889D01*
X183087781Y-177254329D01*
X183062010Y-177316547D01*
X183054462Y-177422758D01*
X183083359Y-177616958D01*
X183075811Y-177723170D01*
X183050040Y-177785387D01*
X182980274Y-177865827D01*
X182892286Y-177902273D01*
X182786074Y-177894725D01*
X182723857Y-177868954D01*
X182643417Y-177799188D01*
X182552302Y-177579217D01*
X182541627Y-177429011D01*
X182169618Y-176655338D02*
X182242510Y-176831315D01*
X182322951Y-176901080D01*
X182385168Y-176926851D01*
X182553597Y-176960171D01*
X182747797Y-176931273D01*
X183099751Y-176785489D01*
X183169516Y-176705049D01*
X183195288Y-176642831D01*
X183202836Y-176536620D01*
X183129944Y-176360643D01*
X183049503Y-176290877D01*
X182987286Y-176265106D01*
X182881075Y-176257558D01*
X182661103Y-176348673D01*
X182591338Y-176429113D01*
X182565567Y-176491330D01*
X182558018Y-176597542D01*
X182630910Y-176773519D01*
X182711351Y-176843284D01*
X182773568Y-176869056D01*
X182879780Y-176876604D01*
X107020261Y-226662859D02*
X107087605Y-226662859D01*
X107222292Y-226730203D01*
X107289635Y-226797546D01*
X107356979Y-226932233D01*
X107356979Y-227066920D01*
X107323307Y-227167935D01*
X107222292Y-227336294D01*
X107121277Y-227437309D01*
X106952918Y-227538325D01*
X106851903Y-227571996D01*
X106717216Y-227571996D01*
X106582529Y-227504653D01*
X106515185Y-227437309D01*
X106447842Y-227302622D01*
X106447842Y-227235279D01*
X106414170Y-225922080D02*
X106818231Y-226326141D01*
X106616200Y-226124111D02*
X105909093Y-226831218D01*
X106077452Y-226797546D01*
X106212139Y-226797546D01*
X106313154Y-226831218D01*
X105606048Y-225922080D02*
X105639719Y-226023096D01*
X105639719Y-226090439D01*
X105606048Y-226191454D01*
X105572376Y-226225126D01*
X105471361Y-226258798D01*
X105404017Y-226258798D01*
X105303002Y-226225126D01*
X105168315Y-226090439D01*
X105134643Y-225989424D01*
X105134643Y-225922080D01*
X105168315Y-225821065D01*
X105201987Y-225787393D01*
X105303002Y-225753722D01*
X105370345Y-225753722D01*
X105471361Y-225787393D01*
X105606048Y-225922080D01*
X105707063Y-225955752D01*
X105774406Y-225955752D01*
X105875422Y-225922080D01*
X106010109Y-225787393D01*
X106043780Y-225686378D01*
X106043780Y-225619035D01*
X106010109Y-225518019D01*
X105875422Y-225383332D01*
X105774406Y-225349661D01*
X105707063Y-225349661D01*
X105606048Y-225383332D01*
X105471361Y-225518019D01*
X105437689Y-225619035D01*
X105437689Y-225686378D01*
X105471361Y-225787393D01*
X110409132Y-160238269D02*
X110409132Y-160305613D01*
X110341788Y-160440300D01*
X110274445Y-160507643D01*
X110139758Y-160574987D01*
X110005071Y-160574987D01*
X109904056Y-160541315D01*
X109735697Y-160440300D01*
X109634682Y-160339285D01*
X109533666Y-160170926D01*
X109499995Y-160069911D01*
X109499995Y-159935224D01*
X109567338Y-159800537D01*
X109634682Y-159733193D01*
X109769369Y-159665850D01*
X109836712Y-159665850D01*
X111149911Y-159632178D02*
X110745850Y-160036239D01*
X110947880Y-159834208D02*
X110240773Y-159127101D01*
X110274445Y-159295460D01*
X110274445Y-159430147D01*
X110240773Y-159531163D01*
X111284598Y-158554682D02*
X111756002Y-159026086D01*
X110846865Y-158453666D02*
X111183582Y-159127101D01*
X111621315Y-158689369D01*
X126189987Y-150667115D02*
X126164215Y-150729333D01*
X126050456Y-150827996D01*
X125962467Y-150864442D01*
X125812261Y-150875117D01*
X125687827Y-150823574D01*
X125607386Y-150753809D01*
X125490500Y-150596055D01*
X125435831Y-150464072D01*
X125406933Y-150269872D01*
X125414481Y-150163660D01*
X125466024Y-150039226D01*
X125579784Y-149940562D01*
X125667772Y-149904116D01*
X125817978Y-149893442D01*
X125880195Y-149919213D01*
X127106318Y-150390643D02*
X126578387Y-150609320D01*
X126842352Y-150499981D02*
X126459669Y-149576102D01*
X126426349Y-149744531D01*
X126374807Y-149868965D01*
X126305041Y-149949406D01*
X127031594Y-149339203D02*
X127603520Y-149102303D01*
X127441344Y-149581819D01*
X127573327Y-149527150D01*
X127679538Y-149534698D01*
X127741756Y-149560469D01*
X127822196Y-149630235D01*
X127913311Y-149850206D01*
X127905763Y-149956417D01*
X127879992Y-150018635D01*
X127810226Y-150099075D01*
X127546261Y-150208413D01*
X127440049Y-150200865D01*
X127377832Y-150175094D01*
X99505094Y-174797832D02*
X99530865Y-174860049D01*
X99520190Y-175010255D01*
X99483744Y-175098243D01*
X99385081Y-175212003D01*
X99260646Y-175263546D01*
X99154435Y-175271094D01*
X98960235Y-175242196D01*
X98828252Y-175187527D01*
X98670498Y-175070641D01*
X98600732Y-174990200D01*
X98549190Y-174865766D01*
X98559865Y-174715560D01*
X98596311Y-174627571D01*
X98694974Y-174513812D01*
X98757191Y-174488040D01*
X99957543Y-173954392D02*
X99738866Y-174482324D01*
X99848205Y-174218358D02*
X98924325Y-173835675D01*
X99019862Y-173978332D01*
X99071404Y-174102767D01*
X99078952Y-174208978D01*
X99379900Y-172735818D02*
X99197670Y-173175761D01*
X99619390Y-173401985D01*
X99593619Y-173339768D01*
X99586070Y-173233556D01*
X99677186Y-173013585D01*
X99757626Y-172943819D01*
X99819843Y-172918048D01*
X99926055Y-172910500D01*
X100146026Y-173001615D01*
X100215792Y-173082055D01*
X100241563Y-173144273D01*
X100249111Y-173250484D01*
X100157996Y-173470456D01*
X100077556Y-173540221D01*
X100015338Y-173565992D01*
X221583333Y-153702380D02*
X221250000Y-153226190D01*
X221011904Y-153702380D02*
X221011904Y-152702380D01*
X221392857Y-152702380D01*
X221488095Y-152750000D01*
X221535714Y-152797619D01*
X221583333Y-152892857D01*
X221583333Y-153035714D01*
X221535714Y-153130952D01*
X221488095Y-153178571D01*
X221392857Y-153226190D01*
X221011904Y-153226190D01*
X222535714Y-153702380D02*
X221964285Y-153702380D01*
X222250000Y-153702380D02*
X222250000Y-152702380D01*
X222154761Y-152845238D01*
X222059523Y-152940476D01*
X221964285Y-152988095D01*
X100197462Y-180707093D02*
X100296126Y-180593333D01*
X100387241Y-180373362D01*
X100379692Y-180267150D01*
X100353921Y-180204933D01*
X100284156Y-180124493D01*
X100196167Y-180088047D01*
X100089956Y-180095595D01*
X100027738Y-180121366D01*
X99947298Y-180191132D01*
X99830412Y-180348886D01*
X99749971Y-180418651D01*
X99687754Y-180444423D01*
X99581543Y-180451971D01*
X99493554Y-180415525D01*
X99423788Y-180335084D01*
X99398017Y-180272867D01*
X99390469Y-180166656D01*
X99481584Y-179946684D01*
X99580247Y-179832924D01*
X100824593Y-179317500D02*
X100605917Y-179845431D01*
X100715255Y-179581465D02*
X99791375Y-179198782D01*
X99886912Y-179341439D01*
X99938455Y-179465874D01*
X99946003Y-179572085D01*
X100134486Y-178619308D02*
X100108715Y-178557091D01*
X100101167Y-178450879D01*
X100192282Y-178230908D01*
X100272722Y-178161142D01*
X100334940Y-178135371D01*
X100441151Y-178127823D01*
X100529140Y-178164269D01*
X100642899Y-178262932D01*
X100952154Y-179009540D01*
X101189054Y-178437614D01*
X174213975Y-226665419D02*
X174348662Y-226598076D01*
X174517021Y-226429717D01*
X174550693Y-226328702D01*
X174550693Y-226261358D01*
X174517021Y-226160343D01*
X174449678Y-226093000D01*
X174348662Y-226059328D01*
X174281319Y-226059328D01*
X174180304Y-226093000D01*
X174011945Y-226194015D01*
X173910930Y-226227687D01*
X173843586Y-226227687D01*
X173742571Y-226194015D01*
X173675227Y-226126671D01*
X173641556Y-226025656D01*
X173641556Y-225958313D01*
X173675227Y-225857297D01*
X173843586Y-225688939D01*
X173978273Y-225621595D01*
X174180304Y-225352221D02*
X174618036Y-224914488D01*
X174651708Y-225419565D01*
X174752723Y-225318549D01*
X174853739Y-225284878D01*
X174921082Y-225284878D01*
X175022097Y-225318549D01*
X175190456Y-225486908D01*
X175224128Y-225587923D01*
X175224128Y-225655267D01*
X175190456Y-225756282D01*
X174988426Y-225958313D01*
X174887410Y-225991984D01*
X174820067Y-225991984D01*
X97679761Y-197778095D02*
X97727380Y-197635238D01*
X97727380Y-197397142D01*
X97679761Y-197301904D01*
X97632142Y-197254285D01*
X97536904Y-197206666D01*
X97441666Y-197206666D01*
X97346428Y-197254285D01*
X97298809Y-197301904D01*
X97251190Y-197397142D01*
X97203571Y-197587619D01*
X97155952Y-197682857D01*
X97108333Y-197730476D01*
X97013095Y-197778095D01*
X96917857Y-197778095D01*
X96822619Y-197730476D01*
X96775000Y-197682857D01*
X96727380Y-197587619D01*
X96727380Y-197349523D01*
X96775000Y-197206666D01*
X97727380Y-196254285D02*
X97727380Y-196825714D01*
X97727380Y-196540000D02*
X96727380Y-196540000D01*
X96870238Y-196635238D01*
X96965476Y-196730476D01*
X97013095Y-196825714D01*
X96727380Y-195920952D02*
X96727380Y-195301904D01*
X97108333Y-195635238D01*
X97108333Y-195492380D01*
X97155952Y-195397142D01*
X97203571Y-195349523D01*
X97298809Y-195301904D01*
X97536904Y-195301904D01*
X97632142Y-195349523D01*
X97679761Y-195397142D01*
X97727380Y-195492380D01*
X97727380Y-195778095D01*
X97679761Y-195873333D01*
X97632142Y-195920952D01*
X182761904Y-126154761D02*
X182904761Y-126202380D01*
X183142857Y-126202380D01*
X183238095Y-126154761D01*
X183285714Y-126107142D01*
X183333333Y-126011904D01*
X183333333Y-125916666D01*
X183285714Y-125821428D01*
X183238095Y-125773809D01*
X183142857Y-125726190D01*
X182952380Y-125678571D01*
X182857142Y-125630952D01*
X182809523Y-125583333D01*
X182761904Y-125488095D01*
X182761904Y-125392857D01*
X182809523Y-125297619D01*
X182857142Y-125250000D01*
X182952380Y-125202380D01*
X183190476Y-125202380D01*
X183333333Y-125250000D01*
X184285714Y-126202380D02*
X183714285Y-126202380D01*
X184000000Y-126202380D02*
X184000000Y-125202380D01*
X183904761Y-125345238D01*
X183809523Y-125440476D01*
X183714285Y-125488095D01*
X185190476Y-125202380D02*
X184714285Y-125202380D01*
X184666666Y-125678571D01*
X184714285Y-125630952D01*
X184809523Y-125583333D01*
X185047619Y-125583333D01*
X185142857Y-125630952D01*
X185190476Y-125678571D01*
X185238095Y-125773809D01*
X185238095Y-126011904D01*
X185190476Y-126107142D01*
X185142857Y-126154761D01*
X185047619Y-126202380D01*
X184809523Y-126202380D01*
X184714285Y-126154761D01*
X184666666Y-126107142D01*
X210285714Y-119204761D02*
X210428571Y-119252380D01*
X210666666Y-119252380D01*
X210761904Y-119204761D01*
X210809523Y-119157142D01*
X210857142Y-119061904D01*
X210857142Y-118966666D01*
X210809523Y-118871428D01*
X210761904Y-118823809D01*
X210666666Y-118776190D01*
X210476190Y-118728571D01*
X210380952Y-118680952D01*
X210333333Y-118633333D01*
X210285714Y-118538095D01*
X210285714Y-118442857D01*
X210333333Y-118347619D01*
X210380952Y-118300000D01*
X210476190Y-118252380D01*
X210714285Y-118252380D01*
X210857142Y-118300000D01*
X211285714Y-119252380D02*
X211285714Y-118252380D01*
X211523809Y-118252380D01*
X211666666Y-118300000D01*
X211761904Y-118395238D01*
X211809523Y-118490476D01*
X211857142Y-118680952D01*
X211857142Y-118823809D01*
X211809523Y-119014285D01*
X211761904Y-119109523D01*
X211666666Y-119204761D01*
X211523809Y-119252380D01*
X211285714Y-119252380D01*
X212238095Y-118966666D02*
X212714285Y-118966666D01*
X212142857Y-119252380D02*
X212476190Y-118252380D01*
X212809523Y-119252380D01*
X182761904Y-121154761D02*
X182904761Y-121202380D01*
X183142857Y-121202380D01*
X183238095Y-121154761D01*
X183285714Y-121107142D01*
X183333333Y-121011904D01*
X183333333Y-120916666D01*
X183285714Y-120821428D01*
X183238095Y-120773809D01*
X183142857Y-120726190D01*
X182952380Y-120678571D01*
X182857142Y-120630952D01*
X182809523Y-120583333D01*
X182761904Y-120488095D01*
X182761904Y-120392857D01*
X182809523Y-120297619D01*
X182857142Y-120250000D01*
X182952380Y-120202380D01*
X183190476Y-120202380D01*
X183333333Y-120250000D01*
X184285714Y-121202380D02*
X183714285Y-121202380D01*
X184000000Y-121202380D02*
X184000000Y-120202380D01*
X183904761Y-120345238D01*
X183809523Y-120440476D01*
X183714285Y-120488095D01*
X184619047Y-120202380D02*
X185238095Y-120202380D01*
X184904761Y-120583333D01*
X185047619Y-120583333D01*
X185142857Y-120630952D01*
X185190476Y-120678571D01*
X185238095Y-120773809D01*
X185238095Y-121011904D01*
X185190476Y-121107142D01*
X185142857Y-121154761D01*
X185047619Y-121202380D01*
X184761904Y-121202380D01*
X184666666Y-121154761D01*
X184619047Y-121107142D01*
X187672589Y-180084544D02*
X187734806Y-180110315D01*
X187833470Y-180224075D01*
X187869916Y-180312063D01*
X187880590Y-180462269D01*
X187829048Y-180586704D01*
X187759283Y-180667144D01*
X187601528Y-180784030D01*
X187469546Y-180838699D01*
X187275346Y-180867597D01*
X187169134Y-180860049D01*
X187044699Y-180808507D01*
X186946036Y-180694747D01*
X186909590Y-180606758D01*
X186898915Y-180456552D01*
X186924687Y-180394335D01*
X187578347Y-179608155D02*
X187505455Y-179432178D01*
X187425015Y-179362413D01*
X187362798Y-179336641D01*
X187194369Y-179303322D01*
X187000169Y-179332220D01*
X186648215Y-179478004D01*
X186578449Y-179558444D01*
X186552678Y-179620661D01*
X186545130Y-179726873D01*
X186618022Y-179902850D01*
X186698462Y-179972616D01*
X186760679Y-179998387D01*
X186866891Y-180005935D01*
X187086862Y-179914820D01*
X187156628Y-179834380D01*
X187182399Y-179772162D01*
X187189947Y-179665951D01*
X187117055Y-179489974D01*
X187036615Y-179420208D01*
X186974398Y-179394437D01*
X186868186Y-179386889D01*
X182761904Y-113654761D02*
X182904761Y-113702380D01*
X183142857Y-113702380D01*
X183238095Y-113654761D01*
X183285714Y-113607142D01*
X183333333Y-113511904D01*
X183333333Y-113416666D01*
X183285714Y-113321428D01*
X183238095Y-113273809D01*
X183142857Y-113226190D01*
X182952380Y-113178571D01*
X182857142Y-113130952D01*
X182809523Y-113083333D01*
X182761904Y-112988095D01*
X182761904Y-112892857D01*
X182809523Y-112797619D01*
X182857142Y-112750000D01*
X182952380Y-112702380D01*
X183190476Y-112702380D01*
X183333333Y-112750000D01*
X184285714Y-113702380D02*
X183714285Y-113702380D01*
X184000000Y-113702380D02*
X184000000Y-112702380D01*
X183904761Y-112845238D01*
X183809523Y-112940476D01*
X183714285Y-112988095D01*
X184904761Y-112702380D02*
X185000000Y-112702380D01*
X185095238Y-112750000D01*
X185142857Y-112797619D01*
X185190476Y-112892857D01*
X185238095Y-113083333D01*
X185238095Y-113321428D01*
X185190476Y-113511904D01*
X185142857Y-113607142D01*
X185095238Y-113654761D01*
X185000000Y-113702380D01*
X184904761Y-113702380D01*
X184809523Y-113654761D01*
X184761904Y-113607142D01*
X184714285Y-113511904D01*
X184666666Y-113321428D01*
X184666666Y-113083333D01*
X184714285Y-112892857D01*
X184761904Y-112797619D01*
X184809523Y-112750000D01*
X184904761Y-112702380D01*
X207984761Y-114238095D02*
X208032380Y-114095238D01*
X208032380Y-113857142D01*
X207984761Y-113761904D01*
X207937142Y-113714285D01*
X207841904Y-113666666D01*
X207746666Y-113666666D01*
X207651428Y-113714285D01*
X207603809Y-113761904D01*
X207556190Y-113857142D01*
X207508571Y-114047619D01*
X207460952Y-114142857D01*
X207413333Y-114190476D01*
X207318095Y-114238095D01*
X207222857Y-114238095D01*
X207127619Y-114190476D01*
X207080000Y-114142857D01*
X207032380Y-114047619D01*
X207032380Y-113809523D01*
X207080000Y-113666666D01*
X207984761Y-112857142D02*
X208032380Y-112952380D01*
X208032380Y-113142857D01*
X207984761Y-113238095D01*
X207889523Y-113285714D01*
X207508571Y-113285714D01*
X207413333Y-113238095D01*
X207365714Y-113142857D01*
X207365714Y-112952380D01*
X207413333Y-112857142D01*
X207508571Y-112809523D01*
X207603809Y-112809523D01*
X207699047Y-113285714D01*
X207365714Y-112380952D02*
X208032380Y-112380952D01*
X207460952Y-112380952D02*
X207413333Y-112333333D01*
X207365714Y-112238095D01*
X207365714Y-112095238D01*
X207413333Y-112000000D01*
X207508571Y-111952380D01*
X208032380Y-111952380D01*
X207984761Y-111523809D02*
X208032380Y-111428571D01*
X208032380Y-111238095D01*
X207984761Y-111142857D01*
X207889523Y-111095238D01*
X207841904Y-111095238D01*
X207746666Y-111142857D01*
X207699047Y-111238095D01*
X207699047Y-111380952D01*
X207651428Y-111476190D01*
X207556190Y-111523809D01*
X207508571Y-111523809D01*
X207413333Y-111476190D01*
X207365714Y-111380952D01*
X207365714Y-111238095D01*
X207413333Y-111142857D01*
X208032380Y-110523809D02*
X207984761Y-110619047D01*
X207937142Y-110666666D01*
X207841904Y-110714285D01*
X207556190Y-110714285D01*
X207460952Y-110666666D01*
X207413333Y-110619047D01*
X207365714Y-110523809D01*
X207365714Y-110380952D01*
X207413333Y-110285714D01*
X207460952Y-110238095D01*
X207556190Y-110190476D01*
X207841904Y-110190476D01*
X207937142Y-110238095D01*
X207984761Y-110285714D01*
X208032380Y-110380952D01*
X208032380Y-110523809D01*
X208032380Y-109761904D02*
X207365714Y-109761904D01*
X207556190Y-109761904D02*
X207460952Y-109714285D01*
X207413333Y-109666666D01*
X207365714Y-109571428D01*
X207365714Y-109476190D01*
X207984761Y-109190476D02*
X208032380Y-109095238D01*
X208032380Y-108904761D01*
X207984761Y-108809523D01*
X207889523Y-108761904D01*
X207841904Y-108761904D01*
X207746666Y-108809523D01*
X207699047Y-108904761D01*
X207699047Y-109047619D01*
X207651428Y-109142857D01*
X207556190Y-109190476D01*
X207508571Y-109190476D01*
X207413333Y-109142857D01*
X207365714Y-109047619D01*
X207365714Y-108904761D01*
X207413333Y-108809523D01*
X196640476Y-131878904D02*
X196640476Y-132526523D01*
X196678571Y-132602714D01*
X196716666Y-132640809D01*
X196792857Y-132678904D01*
X196945238Y-132678904D01*
X197021428Y-132640809D01*
X197059523Y-132602714D01*
X197097619Y-132526523D01*
X197097619Y-131878904D01*
X197897619Y-132678904D02*
X197440476Y-132678904D01*
X197669047Y-132678904D02*
X197669047Y-131878904D01*
X197592857Y-131993190D01*
X197516666Y-132069380D01*
X197440476Y-132107476D01*
X108857782Y-165824765D02*
X108992469Y-165757421D01*
X109160828Y-165589063D01*
X109194499Y-165488047D01*
X109194499Y-165420704D01*
X109160828Y-165319689D01*
X109093484Y-165252345D01*
X108992469Y-165218673D01*
X108925125Y-165218673D01*
X108824110Y-165252345D01*
X108655751Y-165353360D01*
X108554736Y-165387032D01*
X108487393Y-165387032D01*
X108386377Y-165353360D01*
X108319034Y-165286017D01*
X108285362Y-165185002D01*
X108285362Y-165117658D01*
X108319034Y-165016643D01*
X108487393Y-164848284D01*
X108622080Y-164780941D01*
X109968950Y-164780941D02*
X109564889Y-165185002D01*
X109766919Y-164982971D02*
X109059812Y-164275864D01*
X109093484Y-164444223D01*
X109093484Y-164578910D01*
X109059812Y-164679925D01*
X110642385Y-164107506D02*
X110238324Y-164511567D01*
X110440354Y-164309536D02*
X109733247Y-163602429D01*
X109766919Y-163770788D01*
X109766919Y-163905475D01*
X109733247Y-164006490D01*
X122652737Y-155287074D02*
X122802943Y-155276399D01*
X123022914Y-155185284D01*
X123092680Y-155104844D01*
X123118451Y-155042627D01*
X123125999Y-154936415D01*
X123089553Y-154848427D01*
X123009113Y-154778661D01*
X122946896Y-154752890D01*
X122840684Y-154745342D01*
X122646484Y-154774240D01*
X122540273Y-154766691D01*
X122478055Y-154740920D01*
X122397615Y-154671155D01*
X122361169Y-154583166D01*
X122368717Y-154476955D01*
X122394488Y-154414737D01*
X122464254Y-154334297D01*
X122684225Y-154243182D01*
X122834431Y-154232507D01*
X124078777Y-154747932D02*
X123550846Y-154966608D01*
X123814811Y-154857270D02*
X123432128Y-153933390D01*
X123398808Y-154101819D01*
X123347266Y-154226254D01*
X123277500Y-154306694D01*
X124268019Y-153587153D02*
X124356007Y-153550707D01*
X124462219Y-153558255D01*
X124524436Y-153584027D01*
X124604876Y-153653792D01*
X124721763Y-153811546D01*
X124812878Y-154031517D01*
X124841776Y-154225717D01*
X124834227Y-154331929D01*
X124808456Y-154394146D01*
X124738691Y-154474587D01*
X124650702Y-154511033D01*
X124544491Y-154503484D01*
X124482273Y-154477713D01*
X124401833Y-154407948D01*
X124284947Y-154250194D01*
X124193832Y-154030222D01*
X124164934Y-153836022D01*
X124172482Y-153729811D01*
X124198253Y-153667593D01*
X124268019Y-153587153D01*
X171738095Y-118654761D02*
X171880952Y-118702380D01*
X172119047Y-118702380D01*
X172214285Y-118654761D01*
X172261904Y-118607142D01*
X172309523Y-118511904D01*
X172309523Y-118416666D01*
X172261904Y-118321428D01*
X172214285Y-118273809D01*
X172119047Y-118226190D01*
X171928571Y-118178571D01*
X171833333Y-118130952D01*
X171785714Y-118083333D01*
X171738095Y-117988095D01*
X171738095Y-117892857D01*
X171785714Y-117797619D01*
X171833333Y-117750000D01*
X171928571Y-117702380D01*
X172166666Y-117702380D01*
X172309523Y-117750000D01*
X173166666Y-118035714D02*
X173166666Y-118702380D01*
X172928571Y-117654761D02*
X172690476Y-118369047D01*
X173309523Y-118369047D01*
X171738095Y-128654761D02*
X171880952Y-128702380D01*
X172119047Y-128702380D01*
X172214285Y-128654761D01*
X172261904Y-128607142D01*
X172309523Y-128511904D01*
X172309523Y-128416666D01*
X172261904Y-128321428D01*
X172214285Y-128273809D01*
X172119047Y-128226190D01*
X171928571Y-128178571D01*
X171833333Y-128130952D01*
X171785714Y-128083333D01*
X171738095Y-127988095D01*
X171738095Y-127892857D01*
X171785714Y-127797619D01*
X171833333Y-127750000D01*
X171928571Y-127702380D01*
X172166666Y-127702380D01*
X172309523Y-127750000D01*
X172880952Y-128130952D02*
X172785714Y-128083333D01*
X172738095Y-128035714D01*
X172690476Y-127940476D01*
X172690476Y-127892857D01*
X172738095Y-127797619D01*
X172785714Y-127750000D01*
X172880952Y-127702380D01*
X173071428Y-127702380D01*
X173166666Y-127750000D01*
X173214285Y-127797619D01*
X173261904Y-127892857D01*
X173261904Y-127940476D01*
X173214285Y-128035714D01*
X173166666Y-128083333D01*
X173071428Y-128130952D01*
X172880952Y-128130952D01*
X172785714Y-128178571D01*
X172738095Y-128226190D01*
X172690476Y-128321428D01*
X172690476Y-128511904D01*
X172738095Y-128607142D01*
X172785714Y-128654761D01*
X172880952Y-128702380D01*
X173071428Y-128702380D01*
X173166666Y-128654761D01*
X173214285Y-128607142D01*
X173261904Y-128511904D01*
X173261904Y-128321428D01*
X173214285Y-128226190D01*
X173166666Y-128178571D01*
X173071428Y-128130952D01*
X142533095Y-240249761D02*
X142675952Y-240297380D01*
X142914047Y-240297380D01*
X143009285Y-240249761D01*
X143056904Y-240202142D01*
X143104523Y-240106904D01*
X143104523Y-240011666D01*
X143056904Y-239916428D01*
X143009285Y-239868809D01*
X142914047Y-239821190D01*
X142723571Y-239773571D01*
X142628333Y-239725952D01*
X142580714Y-239678333D01*
X142533095Y-239583095D01*
X142533095Y-239487857D01*
X142580714Y-239392619D01*
X142628333Y-239345000D01*
X142723571Y-239297380D01*
X142961666Y-239297380D01*
X143104523Y-239345000D01*
X144056904Y-240297380D02*
X143485476Y-240297380D01*
X143771190Y-240297380D02*
X143771190Y-239297380D01*
X143675952Y-239440238D01*
X143580714Y-239535476D01*
X143485476Y-239583095D01*
X231357142Y-116809523D02*
X231404761Y-116857142D01*
X231452380Y-117000000D01*
X231452380Y-117095238D01*
X231404761Y-117238095D01*
X231309523Y-117333333D01*
X231214285Y-117380952D01*
X231023809Y-117428571D01*
X230880952Y-117428571D01*
X230690476Y-117380952D01*
X230595238Y-117333333D01*
X230500000Y-117238095D01*
X230452380Y-117095238D01*
X230452380Y-117000000D01*
X230500000Y-116857142D01*
X230547619Y-116809523D01*
X231452380Y-115952380D02*
X230928571Y-115952380D01*
X230833333Y-116000000D01*
X230785714Y-116095238D01*
X230785714Y-116285714D01*
X230833333Y-116380952D01*
X231404761Y-115952380D02*
X231452380Y-116047619D01*
X231452380Y-116285714D01*
X231404761Y-116380952D01*
X231309523Y-116428571D01*
X231214285Y-116428571D01*
X231119047Y-116380952D01*
X231071428Y-116285714D01*
X231071428Y-116047619D01*
X231023809Y-115952380D01*
X230785714Y-115476190D02*
X231785714Y-115476190D01*
X230833333Y-115476190D02*
X230785714Y-115380952D01*
X230785714Y-115190476D01*
X230833333Y-115095238D01*
X230880952Y-115047619D01*
X230976190Y-115000000D01*
X231261904Y-115000000D01*
X231357142Y-115047619D01*
X231404761Y-115095238D01*
X231452380Y-115190476D01*
X231452380Y-115380952D01*
X231404761Y-115476190D01*
X230928571Y-113476190D02*
X230976190Y-113333333D01*
X231023809Y-113285714D01*
X231119047Y-113238095D01*
X231261904Y-113238095D01*
X231357142Y-113285714D01*
X231404761Y-113333333D01*
X231452380Y-113428571D01*
X231452380Y-113809523D01*
X230452380Y-113809523D01*
X230452380Y-113476190D01*
X230500000Y-113380952D01*
X230547619Y-113333333D01*
X230642857Y-113285714D01*
X230738095Y-113285714D01*
X230833333Y-113333333D01*
X230880952Y-113380952D01*
X230928571Y-113476190D01*
X230928571Y-113809523D01*
X230785714Y-112380952D02*
X231452380Y-112380952D01*
X230785714Y-112809523D02*
X231309523Y-112809523D01*
X231404761Y-112761904D01*
X231452380Y-112666666D01*
X231452380Y-112523809D01*
X231404761Y-112428571D01*
X231357142Y-112380952D01*
X230785714Y-112047619D02*
X230785714Y-111666666D01*
X230452380Y-111904761D02*
X231309523Y-111904761D01*
X231404761Y-111857142D01*
X231452380Y-111761904D01*
X231452380Y-111666666D01*
X230785714Y-111476190D02*
X230785714Y-111095238D01*
X230452380Y-111333333D02*
X231309523Y-111333333D01*
X231404761Y-111285714D01*
X231452380Y-111190476D01*
X231452380Y-111095238D01*
X231452380Y-110619047D02*
X231404761Y-110714285D01*
X231357142Y-110761904D01*
X231261904Y-110809523D01*
X230976190Y-110809523D01*
X230880952Y-110761904D01*
X230833333Y-110714285D01*
X230785714Y-110619047D01*
X230785714Y-110476190D01*
X230833333Y-110380952D01*
X230880952Y-110333333D01*
X230976190Y-110285714D01*
X231261904Y-110285714D01*
X231357142Y-110333333D01*
X231404761Y-110380952D01*
X231452380Y-110476190D01*
X231452380Y-110619047D01*
X230785714Y-109857142D02*
X231452380Y-109857142D01*
X230880952Y-109857142D02*
X230833333Y-109809523D01*
X230785714Y-109714285D01*
X230785714Y-109571428D01*
X230833333Y-109476190D01*
X230928571Y-109428571D01*
X231452380Y-109428571D01*
X231404761Y-109000000D02*
X231452380Y-108904761D01*
X231452380Y-108714285D01*
X231404761Y-108619047D01*
X231309523Y-108571428D01*
X231261904Y-108571428D01*
X231166666Y-108619047D01*
X231119047Y-108714285D01*
X231119047Y-108857142D01*
X231071428Y-108952380D01*
X230976190Y-109000000D01*
X230928571Y-109000000D01*
X230833333Y-108952380D01*
X230785714Y-108857142D01*
X230785714Y-108714285D01*
X230833333Y-108619047D01*
X112654765Y-228262217D02*
X112587421Y-228127530D01*
X112419063Y-227959171D01*
X112318047Y-227925500D01*
X112250704Y-227925500D01*
X112149689Y-227959171D01*
X112082345Y-228026515D01*
X112048673Y-228127530D01*
X112048673Y-228194874D01*
X112082345Y-228295889D01*
X112183360Y-228464248D01*
X112217032Y-228565263D01*
X112217032Y-228632606D01*
X112183360Y-228733622D01*
X112116017Y-228800965D01*
X112015002Y-228834637D01*
X111947658Y-228834637D01*
X111846643Y-228800965D01*
X111678284Y-228632606D01*
X111610941Y-228497919D01*
X111610941Y-227151049D02*
X112015002Y-227555110D01*
X111812971Y-227353080D02*
X111105864Y-228060187D01*
X111274223Y-228026515D01*
X111408910Y-228026515D01*
X111509925Y-228060187D01*
X110264071Y-227218393D02*
X110600788Y-227555110D01*
X110971177Y-227252065D01*
X110903834Y-227252065D01*
X110802819Y-227218393D01*
X110634460Y-227050034D01*
X110600788Y-226949019D01*
X110600788Y-226881675D01*
X110634460Y-226780660D01*
X110802819Y-226612301D01*
X110903834Y-226578630D01*
X110971177Y-226578630D01*
X111072193Y-226612301D01*
X111240551Y-226780660D01*
X111274223Y-226881675D01*
X111274223Y-226949019D01*
X171738095Y-121154761D02*
X171880952Y-121202380D01*
X172119047Y-121202380D01*
X172214285Y-121154761D01*
X172261904Y-121107142D01*
X172309523Y-121011904D01*
X172309523Y-120916666D01*
X172261904Y-120821428D01*
X172214285Y-120773809D01*
X172119047Y-120726190D01*
X171928571Y-120678571D01*
X171833333Y-120630952D01*
X171785714Y-120583333D01*
X171738095Y-120488095D01*
X171738095Y-120392857D01*
X171785714Y-120297619D01*
X171833333Y-120250000D01*
X171928571Y-120202380D01*
X172166666Y-120202380D01*
X172309523Y-120250000D01*
X173214285Y-120202380D02*
X172738095Y-120202380D01*
X172690476Y-120678571D01*
X172738095Y-120630952D01*
X172833333Y-120583333D01*
X173071428Y-120583333D01*
X173166666Y-120630952D01*
X173214285Y-120678571D01*
X173261904Y-120773809D01*
X173261904Y-121011904D01*
X173214285Y-121107142D01*
X173166666Y-121154761D01*
X173071428Y-121202380D01*
X172833333Y-121202380D01*
X172738095Y-121154761D01*
X172690476Y-121107142D01*
X144632142Y-148057142D02*
X144584523Y-148104761D01*
X144441666Y-148152380D01*
X144346428Y-148152380D01*
X144203571Y-148104761D01*
X144108333Y-148009523D01*
X144060714Y-147914285D01*
X144013095Y-147723809D01*
X144013095Y-147580952D01*
X144060714Y-147390476D01*
X144108333Y-147295238D01*
X144203571Y-147200000D01*
X144346428Y-147152380D01*
X144441666Y-147152380D01*
X144584523Y-147200000D01*
X144632142Y-147247619D01*
X145584523Y-148152380D02*
X145013095Y-148152380D01*
X145298809Y-148152380D02*
X145298809Y-147152380D01*
X145203571Y-147295238D01*
X145108333Y-147390476D01*
X145013095Y-147438095D01*
X145965476Y-147247619D02*
X146013095Y-147200000D01*
X146108333Y-147152380D01*
X146346428Y-147152380D01*
X146441666Y-147200000D01*
X146489285Y-147247619D01*
X146536904Y-147342857D01*
X146536904Y-147438095D01*
X146489285Y-147580952D01*
X145917857Y-148152380D01*
X146536904Y-148152380D01*
X182761904Y-128654761D02*
X182904761Y-128702380D01*
X183142857Y-128702380D01*
X183238095Y-128654761D01*
X183285714Y-128607142D01*
X183333333Y-128511904D01*
X183333333Y-128416666D01*
X183285714Y-128321428D01*
X183238095Y-128273809D01*
X183142857Y-128226190D01*
X182952380Y-128178571D01*
X182857142Y-128130952D01*
X182809523Y-128083333D01*
X182761904Y-127988095D01*
X182761904Y-127892857D01*
X182809523Y-127797619D01*
X182857142Y-127750000D01*
X182952380Y-127702380D01*
X183190476Y-127702380D01*
X183333333Y-127750000D01*
X184285714Y-128702380D02*
X183714285Y-128702380D01*
X184000000Y-128702380D02*
X184000000Y-127702380D01*
X183904761Y-127845238D01*
X183809523Y-127940476D01*
X183714285Y-127988095D01*
X185142857Y-127702380D02*
X184952380Y-127702380D01*
X184857142Y-127750000D01*
X184809523Y-127797619D01*
X184714285Y-127940476D01*
X184666666Y-128130952D01*
X184666666Y-128511904D01*
X184714285Y-128607142D01*
X184761904Y-128654761D01*
X184857142Y-128702380D01*
X185047619Y-128702380D01*
X185142857Y-128654761D01*
X185190476Y-128607142D01*
X185238095Y-128511904D01*
X185238095Y-128273809D01*
X185190476Y-128178571D01*
X185142857Y-128130952D01*
X185047619Y-128083333D01*
X184857142Y-128083333D01*
X184761904Y-128130952D01*
X184714285Y-128178571D01*
X184666666Y-128273809D01*
X138608333Y-242947142D02*
X138560714Y-242994761D01*
X138417857Y-243042380D01*
X138322619Y-243042380D01*
X138179761Y-242994761D01*
X138084523Y-242899523D01*
X138036904Y-242804285D01*
X137989285Y-242613809D01*
X137989285Y-242470952D01*
X138036904Y-242280476D01*
X138084523Y-242185238D01*
X138179761Y-242090000D01*
X138322619Y-242042380D01*
X138417857Y-242042380D01*
X138560714Y-242090000D01*
X138608333Y-242137619D01*
X138941666Y-242042380D02*
X139560714Y-242042380D01*
X139227380Y-242423333D01*
X139370238Y-242423333D01*
X139465476Y-242470952D01*
X139513095Y-242518571D01*
X139560714Y-242613809D01*
X139560714Y-242851904D01*
X139513095Y-242947142D01*
X139465476Y-242994761D01*
X139370238Y-243042380D01*
X139084523Y-243042380D01*
X138989285Y-242994761D01*
X138941666Y-242947142D01*
X182761904Y-116154761D02*
X182904761Y-116202380D01*
X183142857Y-116202380D01*
X183238095Y-116154761D01*
X183285714Y-116107142D01*
X183333333Y-116011904D01*
X183333333Y-115916666D01*
X183285714Y-115821428D01*
X183238095Y-115773809D01*
X183142857Y-115726190D01*
X182952380Y-115678571D01*
X182857142Y-115630952D01*
X182809523Y-115583333D01*
X182761904Y-115488095D01*
X182761904Y-115392857D01*
X182809523Y-115297619D01*
X182857142Y-115250000D01*
X182952380Y-115202380D01*
X183190476Y-115202380D01*
X183333333Y-115250000D01*
X184285714Y-116202380D02*
X183714285Y-116202380D01*
X184000000Y-116202380D02*
X184000000Y-115202380D01*
X183904761Y-115345238D01*
X183809523Y-115440476D01*
X183714285Y-115488095D01*
X185238095Y-116202380D02*
X184666666Y-116202380D01*
X184952380Y-116202380D02*
X184952380Y-115202380D01*
X184857142Y-115345238D01*
X184761904Y-115440476D01*
X184666666Y-115488095D01*
X182761904Y-118654761D02*
X182904761Y-118702380D01*
X183142857Y-118702380D01*
X183238095Y-118654761D01*
X183285714Y-118607142D01*
X183333333Y-118511904D01*
X183333333Y-118416666D01*
X183285714Y-118321428D01*
X183238095Y-118273809D01*
X183142857Y-118226190D01*
X182952380Y-118178571D01*
X182857142Y-118130952D01*
X182809523Y-118083333D01*
X182761904Y-117988095D01*
X182761904Y-117892857D01*
X182809523Y-117797619D01*
X182857142Y-117750000D01*
X182952380Y-117702380D01*
X183190476Y-117702380D01*
X183333333Y-117750000D01*
X184285714Y-118702380D02*
X183714285Y-118702380D01*
X184000000Y-118702380D02*
X184000000Y-117702380D01*
X183904761Y-117845238D01*
X183809523Y-117940476D01*
X183714285Y-117988095D01*
X184666666Y-117797619D02*
X184714285Y-117750000D01*
X184809523Y-117702380D01*
X185047619Y-117702380D01*
X185142857Y-117750000D01*
X185190476Y-117797619D01*
X185238095Y-117892857D01*
X185238095Y-117988095D01*
X185190476Y-118130952D01*
X184619047Y-118702380D01*
X185238095Y-118702380D01*
X182761904Y-123654761D02*
X182904761Y-123702380D01*
X183142857Y-123702380D01*
X183238095Y-123654761D01*
X183285714Y-123607142D01*
X183333333Y-123511904D01*
X183333333Y-123416666D01*
X183285714Y-123321428D01*
X183238095Y-123273809D01*
X183142857Y-123226190D01*
X182952380Y-123178571D01*
X182857142Y-123130952D01*
X182809523Y-123083333D01*
X182761904Y-122988095D01*
X182761904Y-122892857D01*
X182809523Y-122797619D01*
X182857142Y-122750000D01*
X182952380Y-122702380D01*
X183190476Y-122702380D01*
X183333333Y-122750000D01*
X184285714Y-123702380D02*
X183714285Y-123702380D01*
X184000000Y-123702380D02*
X184000000Y-122702380D01*
X183904761Y-122845238D01*
X183809523Y-122940476D01*
X183714285Y-122988095D01*
X185142857Y-123035714D02*
X185142857Y-123702380D01*
X184904761Y-122654761D02*
X184666666Y-123369047D01*
X185285714Y-123369047D01*
X127635275Y-237108483D02*
X127521515Y-237009819D01*
X127301544Y-236918704D01*
X127195332Y-236926253D01*
X127133115Y-236952024D01*
X127052675Y-237021789D01*
X127016229Y-237109778D01*
X127023777Y-237215989D01*
X127049548Y-237278207D01*
X127119314Y-237358647D01*
X127277068Y-237475533D01*
X127346833Y-237555974D01*
X127372605Y-237618191D01*
X127380153Y-237724402D01*
X127343707Y-237812391D01*
X127263266Y-237882157D01*
X127201049Y-237907928D01*
X127094838Y-237915476D01*
X126874866Y-237824361D01*
X126761106Y-237725698D01*
X126245682Y-236481352D02*
X126773613Y-236700028D01*
X126509647Y-236590690D02*
X126126964Y-237514570D01*
X126269621Y-237419033D01*
X126394056Y-237367490D01*
X126500267Y-237359942D01*
X125071101Y-237077217D02*
X125247078Y-237150109D01*
X125353290Y-237142561D01*
X125415507Y-237116790D01*
X125558165Y-237021253D01*
X125675051Y-236863499D01*
X125820835Y-236511545D01*
X125813287Y-236405333D01*
X125787516Y-236343116D01*
X125717750Y-236262676D01*
X125541773Y-236189784D01*
X125435562Y-236197332D01*
X125373345Y-236223103D01*
X125292904Y-236292869D01*
X125201789Y-236512840D01*
X125209337Y-236619051D01*
X125235109Y-236681269D01*
X125304874Y-236761709D01*
X125480851Y-236834601D01*
X125587063Y-236827053D01*
X125649280Y-236801282D01*
X125729720Y-236731516D01*
X279658333Y-178492142D02*
X279610714Y-178539761D01*
X279467857Y-178587380D01*
X279372619Y-178587380D01*
X279229761Y-178539761D01*
X279134523Y-178444523D01*
X279086904Y-178349285D01*
X279039285Y-178158809D01*
X279039285Y-178015952D01*
X279086904Y-177825476D01*
X279134523Y-177730238D01*
X279229761Y-177635000D01*
X279372619Y-177587380D01*
X279467857Y-177587380D01*
X279610714Y-177635000D01*
X279658333Y-177682619D01*
X280515476Y-177920714D02*
X280515476Y-178587380D01*
X280277380Y-177539761D02*
X280039285Y-178254047D01*
X280658333Y-178254047D01*
X178490397Y-164192723D02*
X178557741Y-164192723D01*
X178692428Y-164260067D01*
X178759771Y-164327410D01*
X178827115Y-164462097D01*
X178827115Y-164596784D01*
X178793443Y-164697799D01*
X178692428Y-164866158D01*
X178591413Y-164967173D01*
X178423054Y-165068189D01*
X178322039Y-165101860D01*
X178187352Y-165101860D01*
X178052665Y-165034517D01*
X177985321Y-164967173D01*
X177917978Y-164832486D01*
X177917978Y-164765143D01*
X177884306Y-163451944D02*
X178288367Y-163856005D01*
X178086336Y-163653975D02*
X177379229Y-164361082D01*
X177547588Y-164327410D01*
X177682275Y-164327410D01*
X177783291Y-164361082D01*
X176739466Y-163721318D02*
X176672123Y-163653975D01*
X176638451Y-163552960D01*
X176638451Y-163485616D01*
X176672123Y-163384601D01*
X176773138Y-163216242D01*
X176941497Y-163047883D01*
X177109855Y-162946868D01*
X177210871Y-162913196D01*
X177278214Y-162913196D01*
X177379229Y-162946868D01*
X177446573Y-163014212D01*
X177480245Y-163115227D01*
X177480245Y-163182570D01*
X177446573Y-163283586D01*
X177345558Y-163451944D01*
X177177199Y-163620303D01*
X177008840Y-163721318D01*
X176907825Y-163754990D01*
X176840481Y-163754990D01*
X176739466Y-163721318D01*
X157285455Y-240592589D02*
X157259684Y-240654806D01*
X157145924Y-240753470D01*
X157057936Y-240789916D01*
X156907730Y-240800590D01*
X156783295Y-240749048D01*
X156702855Y-240679283D01*
X156585969Y-240521528D01*
X156531300Y-240389546D01*
X156502402Y-240195346D01*
X156509950Y-240089134D01*
X156561492Y-239964699D01*
X156675252Y-239866036D01*
X156763241Y-239829590D01*
X156913447Y-239818915D01*
X156975664Y-239844687D01*
X157775109Y-239410461D02*
X157335166Y-239592691D01*
X157473402Y-240050857D01*
X157499173Y-239988639D01*
X157568939Y-239908199D01*
X157788910Y-239817084D01*
X157895122Y-239824632D01*
X157957339Y-239850403D01*
X158037779Y-239920169D01*
X158128894Y-240140140D01*
X158121346Y-240246352D01*
X158095575Y-240308569D01*
X158025809Y-240389009D01*
X157805838Y-240480124D01*
X157699627Y-240472576D01*
X157637409Y-240446805D01*
X102215256Y-214369080D02*
X102204581Y-214218874D01*
X102113466Y-213998903D01*
X102033026Y-213929137D01*
X101970809Y-213903366D01*
X101864597Y-213895818D01*
X101776609Y-213932264D01*
X101706843Y-214012704D01*
X101681072Y-214074921D01*
X101673524Y-214181133D01*
X101702422Y-214375333D01*
X101694873Y-214481544D01*
X101669102Y-214543762D01*
X101599337Y-214624202D01*
X101511348Y-214660648D01*
X101405137Y-214653100D01*
X101342919Y-214627329D01*
X101262479Y-214557563D01*
X101171364Y-214337592D01*
X101160689Y-214187386D01*
X101676114Y-212943040D02*
X101894790Y-213470971D01*
X101785452Y-213207006D02*
X100861572Y-213589689D01*
X101030001Y-213623009D01*
X101154436Y-213674551D01*
X101234876Y-213744317D01*
X100732180Y-212406266D02*
X101348100Y-212151143D01*
X100471341Y-212772021D02*
X101222370Y-212718647D01*
X100985471Y-212146722D01*
X163999365Y-152541194D02*
X164061582Y-152515423D01*
X164211788Y-152526098D01*
X164299776Y-152562544D01*
X164413536Y-152661207D01*
X164465079Y-152785642D01*
X164472627Y-152891853D01*
X164443729Y-153086053D01*
X164389060Y-153218036D01*
X164272174Y-153375790D01*
X164191733Y-153445556D01*
X164067299Y-153497098D01*
X163917093Y-153486423D01*
X163829104Y-153449977D01*
X163715345Y-153351314D01*
X163689573Y-153289097D01*
X163155925Y-152088745D02*
X163683857Y-152307422D01*
X163419891Y-152198083D02*
X163037208Y-153121963D01*
X163179865Y-153026426D01*
X163304300Y-152974884D01*
X163410511Y-152967336D01*
X162276040Y-151724285D02*
X162803971Y-151942961D01*
X162540006Y-151833623D02*
X162157322Y-152757503D01*
X162299980Y-152661966D01*
X162424415Y-152610423D01*
X162530626Y-152602875D01*
X183878548Y-212016407D02*
X183977212Y-211902648D01*
X184068327Y-211682676D01*
X184060779Y-211576465D01*
X184035007Y-211514247D01*
X183965242Y-211433807D01*
X183877253Y-211397361D01*
X183771042Y-211404909D01*
X183708825Y-211430681D01*
X183628384Y-211500446D01*
X183511498Y-211658200D01*
X183431058Y-211727966D01*
X183368840Y-211753737D01*
X183262629Y-211761285D01*
X183174640Y-211724839D01*
X183104875Y-211644399D01*
X183079103Y-211582181D01*
X183071555Y-211475970D01*
X183162670Y-211255999D01*
X183261334Y-211142239D01*
X183853314Y-210459680D02*
X184469233Y-210714803D01*
X183410244Y-210533867D02*
X183979043Y-211027184D01*
X184215943Y-210455259D01*
X286813095Y-177837380D02*
X286813095Y-178646904D01*
X286860714Y-178742142D01*
X286908333Y-178789761D01*
X287003571Y-178837380D01*
X287194047Y-178837380D01*
X287289285Y-178789761D01*
X287336904Y-178742142D01*
X287384523Y-178646904D01*
X287384523Y-177837380D01*
X287765476Y-177837380D02*
X288384523Y-177837380D01*
X288051190Y-178218333D01*
X288194047Y-178218333D01*
X288289285Y-178265952D01*
X288336904Y-178313571D01*
X288384523Y-178408809D01*
X288384523Y-178646904D01*
X288336904Y-178742142D01*
X288289285Y-178789761D01*
X288194047Y-178837380D01*
X287908333Y-178837380D01*
X287813095Y-178789761D01*
X287765476Y-178742142D01*
X97548717Y-210865823D02*
X97610935Y-210891595D01*
X97709598Y-211005354D01*
X97746044Y-211093343D01*
X97756719Y-211243549D01*
X97705176Y-211367983D01*
X97635411Y-211448424D01*
X97477657Y-211565310D01*
X97345674Y-211619979D01*
X97151474Y-211648877D01*
X97045262Y-211641329D01*
X96920828Y-211589786D01*
X96822164Y-211476026D01*
X96785718Y-211388038D01*
X96775044Y-211237832D01*
X96800815Y-211175615D01*
X97272245Y-209949492D02*
X97490922Y-210477423D01*
X97381583Y-210213458D02*
X96457704Y-210596141D01*
X96626133Y-210629461D01*
X96750567Y-210681003D01*
X96831008Y-210750769D01*
X96220805Y-210024216D02*
X95965682Y-209408296D01*
X97053569Y-209421561D01*
D11*
X160030000Y-108670000D02*
X121870000Y-108670000D01*
X160030000Y-108670000D02*
X160030000Y-111330000D01*
X121870000Y-108670000D02*
X121870000Y-111330000D01*
X160030000Y-111330000D02*
X121870000Y-111330000D01*
X162630000Y-108670000D02*
X162630000Y-110000000D01*
X161300000Y-108670000D02*
X162630000Y-108670000D01*
X174574771Y-232443582D02*
X174773582Y-232244771D01*
X173853522Y-231722333D02*
X174052333Y-231523522D01*
X191360000Y-198660580D02*
X191360000Y-198379420D01*
X190340000Y-198660580D02*
X190340000Y-198379420D01*
X212200000Y-115500000D02*
X210800000Y-115500000D01*
X210100000Y-114800000D02*
X210100000Y-114200000D01*
X212900000Y-114200000D02*
X212900000Y-114800000D01*
X210800000Y-113500000D02*
X212200000Y-113500000D01*
X210800000Y-113500000D02*
G75*
G03*
X210100000Y-114200000I-1J-699999D01*
G01*
X212900000Y-114200000D02*
G75*
G03*
X212200000Y-113500000I-699999J1D01*
G01*
X212200000Y-115500000D02*
G75*
G03*
X212900000Y-114800000I1J699999D01*
G01*
X210100000Y-114800000D02*
G75*
G03*
X210800000Y-115500000I699999J-1D01*
G01*
X175050000Y-124750000D02*
X176450000Y-124750000D01*
X176450000Y-126750000D02*
X175050000Y-126750000D01*
X174350000Y-126050000D02*
X174350000Y-125450000D01*
X177150000Y-125450000D02*
X177150000Y-126050000D01*
X174350000Y-126050000D02*
G75*
G03*
X175050000Y-126750000I699999J-1D01*
G01*
X175050000Y-124750000D02*
G75*
G03*
X174350000Y-125450000I-1J-699999D01*
G01*
X177150000Y-125450000D02*
G75*
G03*
X176450000Y-124750000I-699999J1D01*
G01*
X176450000Y-126750000D02*
G75*
G03*
X177150000Y-126050000I1J699999D01*
G01*
X195140580Y-132760000D02*
X194859420Y-132760000D01*
X195140580Y-131740000D02*
X194859420Y-131740000D01*
X120157127Y-239576747D02*
X120416885Y-239684342D01*
X120547465Y-238634390D02*
X120807223Y-238741985D01*
X186410857Y-217370999D02*
X186518452Y-217111241D01*
X185468500Y-216980661D02*
X185576095Y-216720903D01*
X176450000Y-114250000D02*
X175050000Y-114250000D01*
X174350000Y-113550000D02*
X174350000Y-112950000D01*
X175050000Y-112250000D02*
X176450000Y-112250000D01*
X177150000Y-112950000D02*
X177150000Y-113550000D01*
X176450000Y-114250000D02*
G75*
G03*
X177150000Y-113550000I1J699999D01*
G01*
X177150000Y-112950000D02*
G75*
G03*
X176450000Y-112250000I-699999J1D01*
G01*
X174350000Y-113550000D02*
G75*
G03*
X175050000Y-114250000I699999J-1D01*
G01*
X175050000Y-112250000D02*
G75*
G03*
X174350000Y-112950000I-1J-699999D01*
G01*
X196890580Y-129240000D02*
X196609420Y-129240000D01*
X196890580Y-130260000D02*
X196609420Y-130260000D01*
X186000000Y-111050000D02*
X186000000Y-110450000D01*
X188800000Y-110450000D02*
X188800000Y-111050000D01*
X186700000Y-109750000D02*
X188100000Y-109750000D01*
X188100000Y-111750000D02*
X186700000Y-111750000D01*
X186000000Y-111050000D02*
G75*
G03*
X186700000Y-111750000I699999J-1D01*
G01*
X188100000Y-111750000D02*
G75*
G03*
X188800000Y-111050000I1J699999D01*
G01*
X188800000Y-110450000D02*
G75*
G03*
X188100000Y-109750000I-699999J1D01*
G01*
X186700000Y-109750000D02*
G75*
G03*
X186000000Y-110450000I-1J-699999D01*
G01*
X175050000Y-109750000D02*
X176450000Y-109750000D01*
X174350000Y-111050000D02*
X174350000Y-110450000D01*
X177150000Y-110450000D02*
X177150000Y-111050000D01*
X176450000Y-111750000D02*
X175050000Y-111750000D01*
X177150000Y-110450000D02*
G75*
G03*
X176450000Y-109750000I-699999J1D01*
G01*
X175050000Y-109750000D02*
G75*
G03*
X174350000Y-110450000I-1J-699999D01*
G01*
X176450000Y-111750000D02*
G75*
G03*
X177150000Y-111050000I1J699999D01*
G01*
X174350000Y-111050000D02*
G75*
G03*
X175050000Y-111750000I699999J-1D01*
G01*
X93610000Y-191879420D02*
X93610000Y-192160580D01*
X92590000Y-191879420D02*
X92590000Y-192160580D01*
X222737258Y-149477500D02*
X222262742Y-149477500D01*
X222737258Y-150522500D02*
X222262742Y-150522500D01*
X174350000Y-123550000D02*
X174350000Y-122950000D01*
X177150000Y-122950000D02*
X177150000Y-123550000D01*
X176450000Y-124250000D02*
X175050000Y-124250000D01*
X175050000Y-122250000D02*
X176450000Y-122250000D01*
X176450000Y-124250000D02*
G75*
G03*
X177150000Y-123550000I1J699999D01*
G01*
X175050000Y-122250000D02*
G75*
G03*
X174350000Y-122950000I-1J-699999D01*
G01*
X174350000Y-123550000D02*
G75*
G03*
X175050000Y-124250000I699999J-1D01*
G01*
X177150000Y-122950000D02*
G75*
G03*
X176450000Y-122250000I-699999J1D01*
G01*
X174350000Y-116050000D02*
X174350000Y-115450000D01*
X175050000Y-114750000D02*
X176450000Y-114750000D01*
X177150000Y-115450000D02*
X177150000Y-116050000D01*
X176450000Y-116750000D02*
X175050000Y-116750000D01*
X175050000Y-114750000D02*
G75*
G03*
X174350000Y-115450000I-1J-699999D01*
G01*
X176450000Y-116750000D02*
G75*
G03*
X177150000Y-116050000I1J699999D01*
G01*
X177150000Y-115450000D02*
G75*
G03*
X176450000Y-114750000I-699999J1D01*
G01*
X174350000Y-116050000D02*
G75*
G03*
X175050000Y-116750000I699999J-1D01*
G01*
X104841962Y-227733211D02*
X105040773Y-227932022D01*
X105563211Y-227011962D02*
X105762022Y-227210773D01*
X110060030Y-158781219D02*
X109861219Y-158980030D01*
X109338781Y-158059970D02*
X109139970Y-158258781D01*
X126425048Y-149187381D02*
X126165290Y-149294976D01*
X126034710Y-148245024D02*
X125774952Y-148352619D01*
X97682619Y-173194952D02*
X97575024Y-173454710D01*
X98624976Y-173585290D02*
X98517381Y-173845048D01*
X221512742Y-151227500D02*
X221987258Y-151227500D01*
X221512742Y-152272500D02*
X221987258Y-152272500D01*
X188100000Y-126750000D02*
X186700000Y-126750000D01*
X186000000Y-126050000D02*
X186000000Y-125450000D01*
X188800000Y-125450000D02*
X188800000Y-126050000D01*
X186700000Y-124750000D02*
X188100000Y-124750000D01*
X188100000Y-126750000D02*
G75*
G03*
X188800000Y-126050000I1J699999D01*
G01*
X186700000Y-124750000D02*
G75*
G03*
X186000000Y-125450000I-1J-699999D01*
G01*
X186000000Y-126050000D02*
G75*
G03*
X186700000Y-126750000I699999J-1D01*
G01*
X188800000Y-125450000D02*
G75*
G03*
X188100000Y-124750000I-699999J1D01*
G01*
X212200000Y-118000000D02*
X210800000Y-118000000D01*
X210100000Y-117300000D02*
X210100000Y-116700000D01*
X210800000Y-116000000D02*
X212200000Y-116000000D01*
X212900000Y-116700000D02*
X212900000Y-117300000D01*
X212200000Y-118000000D02*
G75*
G03*
X212900000Y-117300000I1J699999D01*
G01*
X210100000Y-117300000D02*
G75*
G03*
X210800000Y-118000000I699999J-1D01*
G01*
X210800000Y-116000000D02*
G75*
G03*
X210100000Y-116700000I-1J-699999D01*
G01*
X212900000Y-116700000D02*
G75*
G03*
X212200000Y-116000000I-699999J1D01*
G01*
X188100000Y-121750000D02*
X186700000Y-121750000D01*
X188800000Y-120450000D02*
X188800000Y-121050000D01*
X186000000Y-121050000D02*
X186000000Y-120450000D01*
X186700000Y-119750000D02*
X188100000Y-119750000D01*
X188800000Y-120450000D02*
G75*
G03*
X188100000Y-119750000I-699999J1D01*
G01*
X188100000Y-121750000D02*
G75*
G03*
X188800000Y-121050000I1J699999D01*
G01*
X186000000Y-121050000D02*
G75*
G03*
X186700000Y-121750000I699999J-1D01*
G01*
X186700000Y-119750000D02*
G75*
G03*
X186000000Y-120450000I-1J-699999D01*
G01*
X189124976Y-179454710D02*
X189017381Y-179194952D01*
X188182619Y-179845048D02*
X188075024Y-179585290D01*
X186000000Y-113550000D02*
X186000000Y-112950000D01*
X186700000Y-112250000D02*
X188100000Y-112250000D01*
X188800000Y-112950000D02*
X188800000Y-113550000D01*
X188100000Y-114250000D02*
X186700000Y-114250000D01*
X186000000Y-113550000D02*
G75*
G03*
X186700000Y-114250000I699999J-1D01*
G01*
X188800000Y-112950000D02*
G75*
G03*
X188100000Y-112250000I-699999J1D01*
G01*
X186700000Y-112250000D02*
G75*
G03*
X186000000Y-112950000I-1J-699999D01*
G01*
X188100000Y-114250000D02*
G75*
G03*
X188800000Y-113550000I1J699999D01*
G01*
X203980000Y-108670000D02*
X191220000Y-108670000D01*
X203980000Y-111330000D02*
X191220000Y-111330000D01*
X206580000Y-108670000D02*
X206580000Y-110000000D01*
X191220000Y-108670000D02*
X191220000Y-111330000D01*
X205250000Y-108670000D02*
X206580000Y-108670000D01*
X203980000Y-108670000D02*
X203980000Y-111330000D01*
D12*
X195250000Y-134000000D02*
X195550000Y-134000000D01*
X195250000Y-138000000D02*
X195550000Y-138000000D01*
X199250000Y-138000000D02*
X199250000Y-137700000D01*
X199250000Y-134000000D02*
X198950000Y-134000000D01*
X195250000Y-138000000D02*
X195250000Y-137700000D01*
X195250000Y-134000000D02*
X195250000Y-134300000D01*
X199250000Y-134000000D02*
X199250000Y-134300000D01*
X199250000Y-138000000D02*
X198950000Y-138000000D01*
D13*
X194350000Y-134750000D02*
G75*
G03*
X194350000Y-134750000I-100000J0D01*
G01*
D11*
X175050000Y-117250000D02*
X176450000Y-117250000D01*
X177150000Y-117950000D02*
X177150000Y-118550000D01*
X174350000Y-118550000D02*
X174350000Y-117950000D01*
X176450000Y-119250000D02*
X175050000Y-119250000D01*
X175050000Y-117250000D02*
G75*
G03*
X174350000Y-117950000I-1J-699999D01*
G01*
X174350000Y-118550000D02*
G75*
G03*
X175050000Y-119250000I699999J-1D01*
G01*
X177150000Y-117950000D02*
G75*
G03*
X176450000Y-117250000I-699999J1D01*
G01*
X176450000Y-119250000D02*
G75*
G03*
X177150000Y-118550000I1J699999D01*
G01*
X175050000Y-127250000D02*
X176450000Y-127250000D01*
X177150000Y-127950000D02*
X177150000Y-128550000D01*
X174350000Y-128550000D02*
X174350000Y-127950000D01*
X176450000Y-129250000D02*
X175050000Y-129250000D01*
X174350000Y-128550000D02*
G75*
G03*
X175050000Y-129250000I699999J-1D01*
G01*
X177150000Y-127950000D02*
G75*
G03*
X176450000Y-127250000I-699999J1D01*
G01*
X175050000Y-127250000D02*
G75*
G03*
X174350000Y-127950000I-1J-699999D01*
G01*
X176450000Y-129250000D02*
G75*
G03*
X177150000Y-128550000I1J699999D01*
G01*
X216845000Y-111330000D02*
X216845000Y-110000000D01*
X229665000Y-111330000D02*
X229665000Y-108670000D01*
X219445000Y-108670000D02*
X229665000Y-108670000D01*
X219445000Y-111330000D02*
X229665000Y-111330000D01*
X219445000Y-111330000D02*
X219445000Y-108670000D01*
X218175000Y-111330000D02*
X216845000Y-111330000D01*
X177150000Y-120450000D02*
X177150000Y-121050000D01*
X175050000Y-119750000D02*
X176450000Y-119750000D01*
X176450000Y-121750000D02*
X175050000Y-121750000D01*
X174350000Y-121050000D02*
X174350000Y-120450000D01*
X177150000Y-120450000D02*
G75*
G03*
X176450000Y-119750000I-699999J1D01*
G01*
X174350000Y-121050000D02*
G75*
G03*
X175050000Y-121750000I699999J-1D01*
G01*
X175050000Y-119750000D02*
G75*
G03*
X174350000Y-120450000I-1J-699999D01*
G01*
X176450000Y-121750000D02*
G75*
G03*
X177150000Y-121050000I1J699999D01*
G01*
X145415580Y-145760000D02*
X145134420Y-145760000D01*
X145415580Y-146780000D02*
X145134420Y-146780000D01*
X186700000Y-127250000D02*
X188100000Y-127250000D01*
X188100000Y-129250000D02*
X186700000Y-129250000D01*
X188800000Y-127950000D02*
X188800000Y-128550000D01*
X186000000Y-128550000D02*
X186000000Y-127950000D01*
X186000000Y-128550000D02*
G75*
G03*
X186700000Y-129250000I699999J-1D01*
G01*
X188800000Y-127950000D02*
G75*
G03*
X188100000Y-127250000I-699999J1D01*
G01*
X188100000Y-129250000D02*
G75*
G03*
X188800000Y-128550000I1J699999D01*
G01*
X186700000Y-127250000D02*
G75*
G03*
X186000000Y-127950000I-1J-699999D01*
G01*
X138634420Y-244530000D02*
X138915580Y-244530000D01*
X138634420Y-243510000D02*
X138915580Y-243510000D01*
X188100000Y-116750000D02*
X186700000Y-116750000D01*
X188800000Y-115450000D02*
X188800000Y-116050000D01*
X186700000Y-114750000D02*
X188100000Y-114750000D01*
X186000000Y-116050000D02*
X186000000Y-115450000D01*
X186700000Y-114750000D02*
G75*
G03*
X186000000Y-115450000I-1J-699999D01*
G01*
X186000000Y-116050000D02*
G75*
G03*
X186700000Y-116750000I699999J-1D01*
G01*
X188100000Y-116750000D02*
G75*
G03*
X188800000Y-116050000I1J699999D01*
G01*
X188800000Y-115450000D02*
G75*
G03*
X188100000Y-114750000I-699999J1D01*
G01*
X188800000Y-117950000D02*
X188800000Y-118550000D01*
X186000000Y-118550000D02*
X186000000Y-117950000D01*
X186700000Y-117250000D02*
X188100000Y-117250000D01*
X188100000Y-119250000D02*
X186700000Y-119250000D01*
X186700000Y-117250000D02*
G75*
G03*
X186000000Y-117950000I-1J-699999D01*
G01*
X188800000Y-117950000D02*
G75*
G03*
X188100000Y-117250000I-699999J1D01*
G01*
X188100000Y-119250000D02*
G75*
G03*
X188800000Y-118550000I1J699999D01*
G01*
X186000000Y-118550000D02*
G75*
G03*
X186700000Y-119250000I699999J-1D01*
G01*
X188100000Y-124250000D02*
X186700000Y-124250000D01*
X188800000Y-122950000D02*
X188800000Y-123550000D01*
X186700000Y-122250000D02*
X188100000Y-122250000D01*
X186000000Y-123550000D02*
X186000000Y-122950000D01*
X188100000Y-124250000D02*
G75*
G03*
X188800000Y-123550000I1J699999D01*
G01*
X188800000Y-122950000D02*
G75*
G03*
X188100000Y-122250000I-699999J1D01*
G01*
X186700000Y-122250000D02*
G75*
G03*
X186000000Y-122950000I-1J-699999D01*
G01*
X186000000Y-123550000D02*
G75*
G03*
X186700000Y-124250000I699999J-1D01*
G01*
X280215580Y-178875000D02*
X279934420Y-178875000D01*
X280215580Y-179895000D02*
X279934420Y-179895000D01*
X179254484Y-162718311D02*
X179055673Y-162519500D01*
X178533235Y-163439560D02*
X178334424Y-163240749D01*
X157915290Y-242044976D02*
X158175048Y-241937381D01*
X157524952Y-241102619D02*
X157784710Y-240995024D01*
X163750717Y-151828969D02*
X163490959Y-151721374D01*
X164141055Y-150886612D02*
X163881297Y-150779017D01*
D10*
X282825000Y-180035000D02*
X285825000Y-180035000D01*
X284325000Y-176735000D02*
X285825000Y-176735000D01*
D11*
X95126626Y-211021101D02*
X95234221Y-211280859D01*
X96068983Y-210630763D02*
X96176578Y-210890521D01*
%LPC*%
D14*
X161300000Y-110000000D03*
D15*
X158760000Y-110000000D03*
X156220000Y-110000000D03*
X153680000Y-110000000D03*
X151140000Y-110000000D03*
X148600000Y-110000000D03*
X146060000Y-110000000D03*
X143520000Y-110000000D03*
X140980000Y-110000000D03*
X138440000Y-110000000D03*
X135900000Y-110000000D03*
X133360000Y-110000000D03*
X130820000Y-110000000D03*
X128280000Y-110000000D03*
X125740000Y-110000000D03*
X123200000Y-110000000D03*
D16*
X173765544Y-232531560D03*
X174861560Y-231435544D03*
D17*
X177256676Y-161206827D03*
X175913173Y-159863324D03*
X175100000Y-162020000D03*
D18*
X190850000Y-199295000D03*
X190850000Y-197745000D03*
D19*
X161595510Y-150447469D03*
X159840139Y-149720370D03*
X159914189Y-152024067D03*
D20*
X212150000Y-114500000D03*
D21*
X210850000Y-114500000D03*
D22*
X175100000Y-125750000D03*
D23*
X176400000Y-125750000D03*
D24*
X195775000Y-132250000D03*
X194225000Y-132250000D03*
D25*
X119766168Y-238862786D03*
X121198182Y-239455946D03*
D26*
X185696896Y-217761958D03*
X186290056Y-216329944D03*
D22*
X175100000Y-113250000D03*
D23*
X176400000Y-113250000D03*
D27*
X159874132Y-240603623D03*
X161629503Y-239876524D03*
X159948182Y-238299926D03*
D24*
X197525000Y-129750000D03*
X195975000Y-129750000D03*
D20*
X188050000Y-110750000D03*
D21*
X186750000Y-110750000D03*
D28*
X142975000Y-146220000D03*
X141075000Y-146220000D03*
X142025000Y-148320000D03*
D22*
X175100000Y-110750000D03*
D23*
X176400000Y-110750000D03*
D29*
X93100000Y-191245000D03*
X93100000Y-192795000D03*
D28*
X190900000Y-196220000D03*
X190900000Y-194320000D03*
X188800000Y-195270000D03*
D30*
X223325000Y-150000000D03*
X221675000Y-150000000D03*
D22*
X175100000Y-123250000D03*
D23*
X176400000Y-123250000D03*
D22*
X175100000Y-115750000D03*
D23*
X176400000Y-115750000D03*
D31*
X187683623Y-177495868D03*
X186956524Y-175740497D03*
X185379926Y-177421818D03*
D32*
X104753984Y-226923984D03*
X105850000Y-228020000D03*
D33*
X110148008Y-157971992D03*
X109051992Y-159068008D03*
D34*
X126816007Y-148473420D03*
X125383993Y-149066580D03*
D35*
X98396580Y-172803993D03*
X97803420Y-174236007D03*
D36*
X220925000Y-151750000D03*
X222575000Y-151750000D03*
D37*
X97243476Y-175740497D03*
X96516377Y-177495868D03*
X98820074Y-177421818D03*
D38*
X175884263Y-230397766D03*
X177227766Y-229054263D03*
X175071090Y-228241090D03*
D28*
X93050000Y-194320000D03*
X93050000Y-196220000D03*
X95150000Y-195270000D03*
D20*
X188050000Y-125750000D03*
D21*
X186750000Y-125750000D03*
D20*
X212150000Y-117000000D03*
D21*
X210850000Y-117000000D03*
D20*
X188050000Y-120750000D03*
D21*
X186750000Y-120750000D03*
D39*
X188303420Y-178803993D03*
X188896580Y-180236007D03*
D20*
X188050000Y-113250000D03*
D21*
X186750000Y-113250000D03*
D14*
X205250000Y-110000000D03*
D15*
X202710000Y-110000000D03*
X200170000Y-110000000D03*
X197630000Y-110000000D03*
X195090000Y-110000000D03*
X192550000Y-110000000D03*
D40*
X195280000Y-134750000D03*
X195280000Y-135250000D03*
X195280000Y-135750000D03*
X195280000Y-136250000D03*
X195280000Y-136750000D03*
X195280000Y-137250000D03*
D41*
X196000000Y-137970000D03*
X196500000Y-137970000D03*
X197000000Y-137970000D03*
X197500000Y-137970000D03*
X198000000Y-137970000D03*
X198500000Y-137970000D03*
D40*
X199220000Y-137250000D03*
X199220000Y-136750000D03*
X199220000Y-136250000D03*
X199220000Y-135750000D03*
X199220000Y-135250000D03*
X199220000Y-134750000D03*
D41*
X198500000Y-134030000D03*
X198000000Y-134030000D03*
X197500000Y-134030000D03*
X197000000Y-134030000D03*
X196500000Y-134030000D03*
X196000000Y-134030000D03*
D42*
X197250000Y-136000000D03*
D43*
X108029289Y-160105786D03*
X106685786Y-161449289D03*
X108842462Y-162262462D03*
D44*
X124075868Y-149686377D03*
X122320497Y-150413476D03*
X124001818Y-151990074D03*
D22*
X175100000Y-118250000D03*
D23*
X176400000Y-118250000D03*
D22*
X175100000Y-128250000D03*
D23*
X176400000Y-128250000D03*
D28*
X141075000Y-244070000D03*
X142975000Y-244070000D03*
X142025000Y-241970000D03*
D14*
X218175000Y-110000000D03*
D15*
X220715000Y-110000000D03*
X223255000Y-110000000D03*
X225795000Y-110000000D03*
X228335000Y-110000000D03*
D45*
X106935786Y-229090711D03*
X108279289Y-230434214D03*
X109092462Y-228277538D03*
D22*
X175100000Y-120750000D03*
D23*
X176400000Y-120750000D03*
D24*
X146050000Y-146270000D03*
X144500000Y-146270000D03*
D20*
X188050000Y-128250000D03*
D21*
X186750000Y-128250000D03*
D46*
X138000000Y-244020000D03*
X139550000Y-244020000D03*
D20*
X188050000Y-115750000D03*
D21*
X186750000Y-115750000D03*
D20*
X188050000Y-118250000D03*
D21*
X186750000Y-118250000D03*
D20*
X188050000Y-123250000D03*
D21*
X186750000Y-123250000D03*
D47*
X122668679Y-240062470D03*
X124424050Y-240789569D03*
X124350000Y-238485872D03*
D24*
X279300000Y-179385000D03*
X280850000Y-179385000D03*
D48*
X179342462Y-163527538D03*
X178246446Y-162431522D03*
D49*
X157133993Y-241816580D03*
X158566007Y-241223420D03*
D50*
X96614559Y-212945950D03*
X97341658Y-214701321D03*
X98918256Y-213020000D03*
D51*
X164532014Y-151600573D03*
X163100000Y-151007413D03*
D52*
X186850000Y-214825454D03*
X187577099Y-213070083D03*
X185273402Y-213144133D03*
D53*
X284325000Y-178385000D03*
D54*
X285875000Y-177385000D03*
X285875000Y-177885000D03*
X285875000Y-178385000D03*
X285875000Y-178885000D03*
X285875000Y-179385000D03*
X282775000Y-179385000D03*
X282775000Y-178885000D03*
X282775000Y-178385000D03*
X282775000Y-177885000D03*
X282775000Y-177385000D03*
D55*
X95355022Y-210239804D03*
X95948182Y-211671818D03*
M02*
