G04 #@! TF.GenerationSoftware,KiCad,Pcbnew,(6.0.2)*
G04 #@! TF.CreationDate,2023-03-16T16:07:34-07:00*
G04 #@! TF.ProjectId,hall-censor-and-cap-touch-prototype,68616c6c-2d63-4656-9e73-6f722d616e64,rev?*
G04 #@! TF.SameCoordinates,Original*
G04 #@! TF.FileFunction,Paste,Top*
G04 #@! TF.FilePolarity,Positive*
%FSLAX46Y46*%
G04 Gerber Fmt 4.6, Leading zero omitted, Abs format (unit mm)*
G04 Created by KiCad (PCBNEW (6.0.2)) date 2023-03-16 16:07:34*
%MOMM*%
%LPD*%
G01*
G04 APERTURE LIST*
G04 Aperture macros list*
%AMRoundRect*
0 Rectangle with rounded corners*
0 $1 Rounding radius*
0 $2 $3 $4 $5 $6 $7 $8 $9 X,Y pos of 4 corners*
0 Add a 4 corners polygon primitive as box body*
4,1,4,$2,$3,$4,$5,$6,$7,$8,$9,$2,$3,0*
0 Add four circle primitives for the rounded corners*
1,1,$1+$1,$2,$3*
1,1,$1+$1,$4,$5*
1,1,$1+$1,$6,$7*
1,1,$1+$1,$8,$9*
0 Add four rect primitives between the rounded corners*
20,1,$1+$1,$2,$3,$4,$5,0*
20,1,$1+$1,$4,$5,$6,$7,0*
20,1,$1+$1,$6,$7,$8,$9,0*
20,1,$1+$1,$8,$9,$2,$3,0*%
%AMRotRect*
0 Rectangle, with rotation*
0 The origin of the aperture is its center*
0 $1 length*
0 $2 width*
0 $3 Rotation angle, in degrees counterclockwise*
0 Add horizontal line*
21,1,$1,$2,0,0,$3*%
G04 Aperture macros list end*
%ADD10C,0.010000*%
%ADD11RoundRect,0.225000X0.017678X-0.335876X0.335876X-0.017678X-0.017678X0.335876X-0.335876X0.017678X0*%
%ADD12RotRect,1.000000X1.000000X135.000000*%
%ADD13RoundRect,0.225000X0.250000X-0.225000X0.250000X0.225000X-0.250000X0.225000X-0.250000X-0.225000X0*%
%ADD14RotRect,1.000000X1.000000X157.500000*%
%ADD15RoundRect,0.225000X0.225000X0.250000X-0.225000X0.250000X-0.225000X-0.250000X0.225000X-0.250000X0*%
%ADD16RoundRect,0.225000X-0.303544X-0.144866X0.112202X-0.317074X0.303544X0.144866X-0.112202X0.317074X0*%
%ADD17RoundRect,0.225000X0.144866X-0.303544X0.317074X0.112202X-0.144866X0.303544X-0.317074X-0.112202X0*%
%ADD18RotRect,1.000000X1.000000X22.500000*%
%ADD19R,1.000000X1.000000*%
%ADD20RoundRect,0.225000X-0.250000X0.225000X-0.250000X-0.225000X0.250000X-0.225000X0.250000X0.225000X0*%
%ADD21RoundRect,0.200000X0.200000X0.275000X-0.200000X0.275000X-0.200000X-0.275000X0.200000X-0.275000X0*%
%ADD22RotRect,1.000000X1.000000X112.500000*%
%ADD23RoundRect,0.225000X-0.335876X-0.017678X-0.017678X-0.335876X0.335876X0.017678X0.017678X0.335876X0*%
%ADD24RoundRect,0.225000X-0.017678X0.335876X-0.335876X0.017678X0.017678X-0.335876X0.335876X-0.017678X0*%
%ADD25RoundRect,0.225000X0.112202X0.317074X-0.303544X0.144866X-0.112202X-0.317074X0.303544X-0.144866X0*%
%ADD26RoundRect,0.225000X-0.144866X0.303544X-0.317074X-0.112202X0.144866X-0.303544X0.317074X0.112202X0*%
%ADD27RoundRect,0.200000X-0.200000X-0.275000X0.200000X-0.275000X0.200000X0.275000X-0.200000X0.275000X0*%
%ADD28RotRect,1.000000X1.000000X247.500000*%
%ADD29RotRect,1.000000X1.000000X45.000000*%
%ADD30RoundRect,0.225000X0.317074X-0.112202X0.144866X0.303544X-0.317074X0.112202X-0.144866X-0.303544X0*%
%ADD31R,0.790000X0.270000*%
%ADD32R,0.270000X0.790000*%
%ADD33RotRect,1.000000X1.000000X225.000000*%
%ADD34RotRect,1.000000X1.000000X202.500000*%
%ADD35RotRect,1.000000X1.000000X315.000000*%
%ADD36RoundRect,0.225000X-0.225000X-0.250000X0.225000X-0.250000X0.225000X0.250000X-0.225000X0.250000X0*%
%ADD37RotRect,1.000000X1.000000X337.500000*%
%ADD38RoundRect,0.225000X0.335876X0.017678X0.017678X0.335876X-0.335876X-0.017678X-0.017678X-0.335876X0*%
%ADD39RoundRect,0.225000X-0.112202X-0.317074X0.303544X-0.144866X0.112202X0.317074X-0.303544X0.144866X0*%
%ADD40RotRect,1.000000X1.000000X292.500000*%
%ADD41RoundRect,0.225000X0.303544X0.144866X-0.112202X0.317074X-0.303544X-0.144866X0.112202X-0.317074X0*%
%ADD42RotRect,1.000000X1.000000X67.500000*%
%ADD43R,0.650000X0.300000*%
%ADD44R,0.600000X1.050000*%
%ADD45RoundRect,0.225000X-0.317074X0.112202X-0.144866X-0.303544X0.317074X-0.112202X0.144866X0.303544X0*%
G04 APERTURE END LIST*
D10*
X196396500Y-135146500D02*
X198103500Y-135146500D01*
X198103500Y-135146500D02*
X198103500Y-136853500D01*
X198103500Y-136853500D02*
X196396500Y-136853500D01*
X196396500Y-136853500D02*
X196396500Y-135146500D01*
G36*
X198103500Y-136853500D02*
G01*
X196396500Y-136853500D01*
X196396500Y-135146500D01*
X198103500Y-135146500D01*
X198103500Y-136853500D01*
G37*
X198103500Y-136853500D02*
X196396500Y-136853500D01*
X196396500Y-135146500D01*
X198103500Y-135146500D01*
X198103500Y-136853500D01*
D11*
X173765544Y-232531560D03*
X174861560Y-231435544D03*
D12*
X177256676Y-161206827D03*
X175913173Y-159863324D03*
X175100000Y-162020000D03*
D13*
X190850000Y-199295000D03*
X190850000Y-197745000D03*
D14*
X161595510Y-150447469D03*
X159840139Y-149720370D03*
X159914189Y-152024067D03*
D15*
X195775000Y-132250000D03*
X194225000Y-132250000D03*
D16*
X119766168Y-238862786D03*
X121198182Y-239455946D03*
D17*
X185696896Y-217761958D03*
X186290056Y-216329944D03*
D18*
X159874132Y-240603623D03*
X161629503Y-239876524D03*
X159948182Y-238299926D03*
D15*
X197525000Y-129750000D03*
X195975000Y-129750000D03*
D19*
X142975000Y-146220000D03*
X141075000Y-146220000D03*
X142025000Y-148320000D03*
D20*
X93100000Y-191245000D03*
X93100000Y-192795000D03*
D19*
X190900000Y-196220000D03*
X190900000Y-194320000D03*
X188800000Y-195270000D03*
D21*
X223325000Y-150000000D03*
X221675000Y-150000000D03*
D22*
X187683623Y-177495868D03*
X186956524Y-175740497D03*
X185379926Y-177421818D03*
D23*
X104753984Y-226923984D03*
X105850000Y-228020000D03*
D24*
X110148008Y-157971992D03*
X109051992Y-159068008D03*
D25*
X126816007Y-148473420D03*
X125383993Y-149066580D03*
D26*
X98396580Y-172803993D03*
X97803420Y-174236007D03*
D27*
X220925000Y-151750000D03*
X222575000Y-151750000D03*
D28*
X97243476Y-175740497D03*
X96516377Y-177495868D03*
X98820074Y-177421818D03*
D29*
X175884263Y-230397766D03*
X177227766Y-229054263D03*
X175071090Y-228241090D03*
D19*
X93050000Y-194320000D03*
X93050000Y-196220000D03*
X95150000Y-195270000D03*
D30*
X188303420Y-178803993D03*
X188896580Y-180236007D03*
D31*
X195280000Y-134750000D03*
X195280000Y-135250000D03*
X195280000Y-135750000D03*
X195280000Y-136250000D03*
X195280000Y-136750000D03*
X195280000Y-137250000D03*
D32*
X196000000Y-137970000D03*
X196500000Y-137970000D03*
X197000000Y-137970000D03*
X197500000Y-137970000D03*
X198000000Y-137970000D03*
X198500000Y-137970000D03*
D31*
X199220000Y-137250000D03*
X199220000Y-136750000D03*
X199220000Y-136250000D03*
X199220000Y-135750000D03*
X199220000Y-135250000D03*
X199220000Y-134750000D03*
D32*
X198500000Y-134030000D03*
X198000000Y-134030000D03*
X197500000Y-134030000D03*
X197000000Y-134030000D03*
X196500000Y-134030000D03*
X196000000Y-134030000D03*
D33*
X108029289Y-160105786D03*
X106685786Y-161449289D03*
X108842462Y-162262462D03*
D34*
X124075868Y-149686377D03*
X122320497Y-150413476D03*
X124001818Y-151990074D03*
D19*
X141075000Y-244070000D03*
X142975000Y-244070000D03*
X142025000Y-241970000D03*
D35*
X106935786Y-229090711D03*
X108279289Y-230434214D03*
X109092462Y-228277538D03*
D15*
X146050000Y-146270000D03*
X144500000Y-146270000D03*
D36*
X138000000Y-244020000D03*
X139550000Y-244020000D03*
D37*
X122668679Y-240062470D03*
X124424050Y-240789569D03*
X124350000Y-238485872D03*
D15*
X279300000Y-179385000D03*
X280850000Y-179385000D03*
D38*
X179342462Y-163527538D03*
X178246446Y-162431522D03*
D39*
X157133993Y-241816580D03*
X158566007Y-241223420D03*
D40*
X96614559Y-212945950D03*
X97341658Y-214701321D03*
X98918256Y-213020000D03*
D41*
X164532014Y-151600573D03*
X163100000Y-151007413D03*
D42*
X186850000Y-214825454D03*
X187577099Y-213070083D03*
X185273402Y-213144133D03*
D43*
X285875000Y-177385000D03*
X285875000Y-177885000D03*
X285875000Y-178385000D03*
X285875000Y-178885000D03*
X285875000Y-179385000D03*
X282775000Y-179385000D03*
X282775000Y-178885000D03*
X282775000Y-178385000D03*
X282775000Y-177885000D03*
X282775000Y-177385000D03*
D44*
X284712500Y-177765000D03*
X284712500Y-179005000D03*
X283937500Y-177765000D03*
X283937500Y-179005000D03*
D45*
X95355022Y-210239804D03*
X95948182Y-211671818D03*
M02*
