G04 #@! TF.GenerationSoftware,KiCad,Pcbnew,(6.0.2)*
G04 #@! TF.CreationDate,2023-03-16T16:07:34-07:00*
G04 #@! TF.ProjectId,hall-censor-and-cap-touch-prototype,68616c6c-2d63-4656-9e73-6f722d616e64,rev?*
G04 #@! TF.SameCoordinates,Original*
G04 #@! TF.FileFunction,Soldermask,Bot*
G04 #@! TF.FilePolarity,Negative*
%FSLAX46Y46*%
G04 Gerber Fmt 4.6, Leading zero omitted, Abs format (unit mm)*
G04 Created by KiCad (PCBNEW (6.0.2)) date 2023-03-16 16:07:34*
%MOMM*%
%LPD*%
G01*
G04 APERTURE LIST*
G04 Aperture macros list*
%AMFreePoly0*
4,1,20,0.000000,0.744959,0.073905,0.744508,0.209726,0.703889,0.328688,0.626782,0.421226,0.519385,0.479903,0.390333,0.500000,0.250000,0.500000,-0.250000,0.499851,-0.262216,0.476331,-0.402017,0.414519,-0.529596,0.319384,-0.634700,0.198574,-0.708877,0.061801,-0.746166,0.000000,-0.745033,0.000000,-0.750000,-0.500000,-0.750000,-0.500000,0.750000,0.000000,0.750000,0.000000,0.744959,
0.000000,0.744959,$1*%
%AMFreePoly1*
4,1,22,0.500000,-0.750000,0.000000,-0.750000,0.000000,-0.745033,-0.079941,-0.743568,-0.215256,-0.701293,-0.333266,-0.622738,-0.424486,-0.514219,-0.481581,-0.384460,-0.499164,-0.250000,-0.500000,-0.250000,-0.500000,0.250000,-0.499164,0.250000,-0.499963,0.256109,-0.478152,0.396186,-0.417904,0.524511,-0.324060,0.630769,-0.204165,0.706417,-0.067858,0.745374,0.000000,0.744959,0.000000,0.750000,
0.500000,0.750000,0.500000,-0.750000,0.500000,-0.750000,$1*%
G04 Aperture macros list end*
%ADD10C,14.500000*%
%ADD11R,13.000000X13.000000*%
%ADD12R,1.700000X1.700000*%
%ADD13O,1.700000X1.700000*%
%ADD14FreePoly0,0.000000*%
%ADD15FreePoly1,0.000000*%
G04 APERTURE END LIST*
D10*
X142075000Y-195260000D03*
D11*
X284325000Y-223885000D03*
X284325000Y-223885000D03*
X284325000Y-205635000D03*
X284325000Y-205635000D03*
X284075000Y-187635000D03*
X284075000Y-187635000D03*
X284075000Y-169135000D03*
X284075000Y-169135000D03*
X284074998Y-150635000D03*
X284074998Y-150635000D03*
X284325000Y-132385000D03*
D12*
X161300000Y-110000000D03*
D13*
X158760000Y-110000000D03*
X156220000Y-110000000D03*
X153680000Y-110000000D03*
X151140000Y-110000000D03*
X148600000Y-110000000D03*
X146060000Y-110000000D03*
X143520000Y-110000000D03*
X140980000Y-110000000D03*
X138440000Y-110000000D03*
X135900000Y-110000000D03*
X133360000Y-110000000D03*
X130820000Y-110000000D03*
X128280000Y-110000000D03*
X125740000Y-110000000D03*
X123200000Y-110000000D03*
D12*
X205250000Y-110000000D03*
D13*
X202710000Y-110000000D03*
X200170000Y-110000000D03*
X197630000Y-110000000D03*
X195090000Y-110000000D03*
X192550000Y-110000000D03*
D12*
X218175000Y-110000000D03*
D13*
X220715000Y-110000000D03*
X223255000Y-110000000D03*
X225795000Y-110000000D03*
X228335000Y-110000000D03*
D14*
X276475000Y-169135000D03*
D15*
X275175000Y-169135000D03*
D14*
X276725000Y-132385000D03*
D15*
X275425000Y-132385000D03*
D14*
X276725000Y-205635000D03*
D15*
X275425000Y-205635000D03*
D14*
X276475000Y-187635000D03*
D15*
X275175000Y-187635000D03*
D14*
X276475000Y-150635000D03*
D15*
X275175000Y-150635000D03*
D14*
X276725000Y-223885000D03*
D15*
X275425000Y-223885000D03*
M02*
