%TF.GenerationSoftware,KiCad,Pcbnew,(6.0.2)*%
%TF.CreationDate,2023-03-26T00:57:02-07:00*%
%TF.ProjectId,cap-sensors-1-ch-dome-switches,6361702d-7365-46e7-936f-72732d312d63,rev?*%
%TF.SameCoordinates,Original*%
%TF.FileFunction,Copper,L2,Bot*%
%TF.FilePolarity,Positive*%
%FSLAX46Y46*%
G04 Gerber Fmt 4.6, Leading zero omitted, Abs format (unit mm)*
G04 Created by KiCad (PCBNEW (6.0.2)) date 2023-03-26 00:57:02*
%MOMM*%
%LPD*%
G01*
G04 APERTURE LIST*
G04 Aperture macros list*
%AMRoundRect*
0 Rectangle with rounded corners*
0 $1 Rounding radius*
0 $2 $3 $4 $5 $6 $7 $8 $9 X,Y pos of 4 corners*
0 Add a 4 corners polygon primitive as box body*
4,1,4,$2,$3,$4,$5,$6,$7,$8,$9,$2,$3,0*
0 Add four circle primitives for the rounded corners*
1,1,$1+$1,$2,$3*
1,1,$1+$1,$4,$5*
1,1,$1+$1,$6,$7*
1,1,$1+$1,$8,$9*
0 Add four rect primitives between the rounded corners*
20,1,$1+$1,$2,$3,$4,$5,0*
20,1,$1+$1,$4,$5,$6,$7,0*
20,1,$1+$1,$6,$7,$8,$9,0*
20,1,$1+$1,$8,$9,$2,$3,0*%
G04 Aperture macros list end*
%TA.AperFunction,NonConductor*%
%ADD10C,0.200000*%
%TD*%
%TA.AperFunction,SMDPad,CuDef*%
%ADD11RoundRect,2.500000X2.500000X2.500000X-2.500000X2.500000X-2.500000X-2.500000X2.500000X-2.500000X0*%
%TD*%
%TA.AperFunction,ComponentPad*%
%ADD12R,1.700000X1.700000*%
%TD*%
%TA.AperFunction,ComponentPad*%
%ADD13O,1.700000X1.700000*%
%TD*%
%TA.AperFunction,ViaPad*%
%ADD14C,0.800000*%
%TD*%
%TA.AperFunction,Conductor*%
%ADD15C,0.500000*%
%TD*%
%TA.AperFunction,Conductor*%
%ADD16C,0.250000*%
%TD*%
G04 APERTURE END LIST*
D10*
X196750000Y-92250000D02*
G75*
G03*
X196750000Y-92250000I-250000J0D01*
G01*
X174750000Y-92250000D02*
G75*
G03*
X174750000Y-92250000I-250000J0D01*
G01*
X152750000Y-92250000D02*
G75*
G03*
X152750000Y-92250000I-250000J0D01*
G01*
X130750000Y-92250000D02*
G75*
G03*
X130750000Y-92250000I-250000J0D01*
G01*
D11*
%TO.P,Button 4,1,Touch_Pad*%
%TO.N,Net-(P4-Pad1)*%
X88975000Y-110850000D03*
%TD*%
%TO.P,Button 3,1,Touch_Pad*%
%TO.N,Net-(P3-Pad1)*%
X68308332Y-110850000D03*
%TD*%
%TO.P,Button 2,1,Touch_Pad*%
%TO.N,Net-(P2-Pad1)*%
X47641666Y-110850000D03*
%TD*%
%TO.P,Button 1,1,Touch_Pad*%
%TO.N,Net-(P1-Pad1)*%
X26975000Y-110850000D03*
%TD*%
D12*
%TO.P,J1,1,Pin_1*%
%TO.N,GND*%
X113000000Y-116540000D03*
D13*
%TO.P,J1,2,Pin_2*%
%TO.N,Net-(J1-Pad2)*%
X113000000Y-114000000D03*
%TO.P,J1,3,Pin_3*%
%TO.N,Net-(J1-Pad3)*%
X113000000Y-111460000D03*
%TO.P,J1,4,Pin_4*%
%TO.N,Net-(J1-Pad4)*%
X113000000Y-108920000D03*
%TO.P,J1,5,Pin_5*%
%TO.N,Net-(J1-Pad5)*%
X113000000Y-106380000D03*
%TO.P,J1,6,Pin_6*%
%TO.N,+3V3*%
X113000000Y-103840000D03*
%TD*%
D14*
%TO.N,+3V3*%
X198500000Y-103800000D03*
%TO.N,Net-(J1-Pad5)*%
X194550000Y-106450000D03*
X124250000Y-106500000D03*
%TO.N,Net-(J1-Pad3)*%
X124290000Y-111460000D03*
%TO.N,Net-(J1-Pad4)*%
X124330000Y-108920000D03*
%TO.N,+3V3*%
X176450000Y-103800000D03*
X154450000Y-103800000D03*
X132499998Y-103840000D03*
X92475000Y-118000000D03*
X71725000Y-118000000D03*
X50975000Y-118000000D03*
X30250001Y-117999999D03*
%TO.N,Net-(J1-Pad3)*%
X148000000Y-111500000D03*
%TO.N,Net-(J1-Pad4)*%
X170250000Y-109000000D03*
%TO.N,GND*%
X106250000Y-105750000D03*
X106250000Y-108500000D03*
X106250000Y-111500000D03*
X106250000Y-114500000D03*
X90225000Y-105000000D03*
X90225000Y-116750000D03*
%TO.N,Net-(P4-Pad1)*%
X88500000Y-109000000D03*
%TO.N,GND*%
X69500000Y-105000000D03*
X69475000Y-116750000D03*
%TO.N,Net-(P3-Pad1)*%
X67750000Y-109125000D03*
%TO.N,Net-(P2-Pad1)*%
X46975000Y-109000000D03*
%TO.N,GND*%
X48725000Y-105000000D03*
X48725000Y-116750000D03*
X28225000Y-105000000D03*
%TO.N,Net-(P1-Pad1)*%
X26375000Y-109375480D03*
%TO.N,GND*%
X27975000Y-116750000D03*
%TD*%
D15*
%TO.N,+3V3*%
X115380000Y-103800000D02*
X198500000Y-103800000D01*
X115340000Y-103840000D02*
X115380000Y-103800000D01*
D16*
%TO.N,Net-(J1-Pad3)*%
X147960000Y-111460000D02*
X148000000Y-111500000D01*
X124290000Y-111460000D02*
X147960000Y-111460000D01*
%TO.N,Net-(J1-Pad4)*%
X124410000Y-109000000D02*
X170250000Y-109000000D01*
X124330000Y-108920000D02*
X124410000Y-109000000D01*
%TO.N,Net-(J1-Pad5)*%
X194500000Y-106500000D02*
X194550000Y-106450000D01*
X124250000Y-106500000D02*
X194500000Y-106500000D01*
D15*
%TO.N,+3V3*%
X109250000Y-118000000D02*
X92475000Y-118000000D01*
X114750000Y-119500000D02*
X110750000Y-119500000D01*
X110750000Y-119500000D02*
X109250000Y-118000000D01*
X116250000Y-103840000D02*
X116250000Y-118000000D01*
X115340000Y-103840000D02*
X116250000Y-103840000D01*
X116250000Y-118000000D02*
X114750000Y-119500000D01*
X50975000Y-118000000D02*
X30250001Y-117999999D01*
X113000000Y-103840000D02*
X115340000Y-103840000D01*
X92475000Y-118000000D02*
X71725000Y-118000000D01*
X71725000Y-118000000D02*
X50975000Y-118000000D01*
%TD*%
%TA.AperFunction,Conductor*%
%TO.N,GND*%
G36*
X201934121Y-89278002D02*
G01*
X201980614Y-89331658D01*
X201992000Y-89384000D01*
X201992000Y-129866000D01*
X201971998Y-129934121D01*
X201918342Y-129980614D01*
X201866000Y-129992000D01*
X21634000Y-129992000D01*
X21565879Y-129971998D01*
X21519386Y-129918342D01*
X21508000Y-129866000D01*
X21508000Y-117999999D01*
X29336497Y-117999999D01*
X29337187Y-118006564D01*
X29353871Y-118165299D01*
X29356459Y-118189927D01*
X29415474Y-118371555D01*
X29510961Y-118536943D01*
X29515379Y-118541850D01*
X29515380Y-118541851D01*
X29541972Y-118571384D01*
X29638748Y-118678865D01*
X29697427Y-118721498D01*
X29787905Y-118787234D01*
X29793249Y-118791117D01*
X29799277Y-118793801D01*
X29799279Y-118793802D01*
X29961682Y-118866108D01*
X29967713Y-118868793D01*
X30061113Y-118888646D01*
X30148057Y-118907127D01*
X30148062Y-118907127D01*
X30154514Y-118908499D01*
X30345488Y-118908499D01*
X30351940Y-118907127D01*
X30351945Y-118907127D01*
X30438889Y-118888646D01*
X30532289Y-118868793D01*
X30538320Y-118866108D01*
X30700723Y-118793802D01*
X30700725Y-118793801D01*
X30706753Y-118791117D01*
X30712092Y-118787238D01*
X30712099Y-118787234D01*
X30718529Y-118782562D01*
X30792588Y-118758499D01*
X40612501Y-118758500D01*
X50432413Y-118758500D01*
X50506472Y-118782563D01*
X50512902Y-118787235D01*
X50512909Y-118787239D01*
X50518248Y-118791118D01*
X50524276Y-118793802D01*
X50524278Y-118793803D01*
X50686679Y-118866108D01*
X50692712Y-118868794D01*
X50786112Y-118888647D01*
X50873056Y-118907128D01*
X50873061Y-118907128D01*
X50879513Y-118908500D01*
X51070487Y-118908500D01*
X51076939Y-118907128D01*
X51076944Y-118907128D01*
X51163888Y-118888647D01*
X51257288Y-118868794D01*
X51263321Y-118866108D01*
X51425722Y-118793803D01*
X51425724Y-118793802D01*
X51431752Y-118791118D01*
X51437091Y-118787239D01*
X51437098Y-118787235D01*
X51443528Y-118782563D01*
X51517587Y-118758500D01*
X71182413Y-118758500D01*
X71256472Y-118782563D01*
X71262902Y-118787235D01*
X71262909Y-118787239D01*
X71268248Y-118791118D01*
X71274276Y-118793802D01*
X71274278Y-118793803D01*
X71436679Y-118866108D01*
X71442712Y-118868794D01*
X71536112Y-118888647D01*
X71623056Y-118907128D01*
X71623061Y-118907128D01*
X71629513Y-118908500D01*
X71820487Y-118908500D01*
X71826939Y-118907128D01*
X71826944Y-118907128D01*
X71913888Y-118888647D01*
X72007288Y-118868794D01*
X72013321Y-118866108D01*
X72175722Y-118793803D01*
X72175724Y-118793802D01*
X72181752Y-118791118D01*
X72187091Y-118787239D01*
X72187098Y-118787235D01*
X72193528Y-118782563D01*
X72267587Y-118758500D01*
X91932413Y-118758500D01*
X92006472Y-118782563D01*
X92012902Y-118787235D01*
X92012909Y-118787239D01*
X92018248Y-118791118D01*
X92024276Y-118793802D01*
X92024278Y-118793803D01*
X92186679Y-118866108D01*
X92192712Y-118868794D01*
X92286112Y-118888647D01*
X92373056Y-118907128D01*
X92373061Y-118907128D01*
X92379513Y-118908500D01*
X92570487Y-118908500D01*
X92576939Y-118907128D01*
X92576944Y-118907128D01*
X92663888Y-118888647D01*
X92757288Y-118868794D01*
X92763321Y-118866108D01*
X92925722Y-118793803D01*
X92925724Y-118793802D01*
X92931752Y-118791118D01*
X92937091Y-118787239D01*
X92937098Y-118787235D01*
X92943528Y-118782563D01*
X93017587Y-118758500D01*
X108883629Y-118758500D01*
X108951750Y-118778502D01*
X108972724Y-118795405D01*
X110166230Y-119988911D01*
X110178616Y-120003323D01*
X110187149Y-120014918D01*
X110187154Y-120014923D01*
X110191492Y-120020818D01*
X110197070Y-120025557D01*
X110197073Y-120025560D01*
X110231768Y-120055035D01*
X110239284Y-120061965D01*
X110244979Y-120067660D01*
X110247861Y-120069940D01*
X110267251Y-120085281D01*
X110270655Y-120088072D01*
X110320703Y-120130591D01*
X110326285Y-120135333D01*
X110332801Y-120138661D01*
X110337850Y-120142028D01*
X110342979Y-120145195D01*
X110348716Y-120149734D01*
X110414875Y-120180655D01*
X110418769Y-120182558D01*
X110483808Y-120215769D01*
X110490916Y-120217508D01*
X110496559Y-120219607D01*
X110502322Y-120221524D01*
X110508950Y-120224622D01*
X110516112Y-120226112D01*
X110516113Y-120226112D01*
X110580412Y-120239486D01*
X110584696Y-120240456D01*
X110655610Y-120257808D01*
X110661212Y-120258156D01*
X110661215Y-120258156D01*
X110666764Y-120258500D01*
X110666762Y-120258536D01*
X110670755Y-120258775D01*
X110674947Y-120259149D01*
X110682115Y-120260640D01*
X110759520Y-120258546D01*
X110762928Y-120258500D01*
X114682930Y-120258500D01*
X114701880Y-120259933D01*
X114716115Y-120262099D01*
X114716119Y-120262099D01*
X114723349Y-120263199D01*
X114730641Y-120262606D01*
X114730644Y-120262606D01*
X114776018Y-120258915D01*
X114786233Y-120258500D01*
X114794293Y-120258500D01*
X114811680Y-120256473D01*
X114822507Y-120255211D01*
X114826882Y-120254778D01*
X114892339Y-120249454D01*
X114892342Y-120249453D01*
X114899637Y-120248860D01*
X114906601Y-120246604D01*
X114912560Y-120245413D01*
X114918415Y-120244029D01*
X114925681Y-120243182D01*
X114994327Y-120218265D01*
X114998455Y-120216848D01*
X115060936Y-120196607D01*
X115060938Y-120196606D01*
X115067899Y-120194351D01*
X115074154Y-120190555D01*
X115079628Y-120188049D01*
X115085058Y-120185330D01*
X115091937Y-120182833D01*
X115098058Y-120178820D01*
X115152976Y-120142814D01*
X115156680Y-120140477D01*
X115219107Y-120102595D01*
X115227484Y-120095197D01*
X115227508Y-120095224D01*
X115230500Y-120092571D01*
X115233733Y-120089868D01*
X115239852Y-120085856D01*
X115293128Y-120029617D01*
X115295506Y-120027175D01*
X116738911Y-118583770D01*
X116753323Y-118571384D01*
X116764918Y-118562851D01*
X116764923Y-118562846D01*
X116770818Y-118558508D01*
X116775557Y-118552930D01*
X116775560Y-118552927D01*
X116805035Y-118518232D01*
X116811965Y-118510716D01*
X116817660Y-118505021D01*
X116835281Y-118482749D01*
X116838072Y-118479345D01*
X116880591Y-118429297D01*
X116880592Y-118429295D01*
X116885333Y-118423715D01*
X116888661Y-118417199D01*
X116892028Y-118412150D01*
X116895195Y-118407021D01*
X116899734Y-118401284D01*
X116930655Y-118335125D01*
X116932561Y-118331225D01*
X116965769Y-118266192D01*
X116967508Y-118259084D01*
X116969607Y-118253441D01*
X116971524Y-118247678D01*
X116974622Y-118241050D01*
X116989487Y-118169583D01*
X116990457Y-118165299D01*
X117006473Y-118099845D01*
X117007808Y-118094390D01*
X117008500Y-118083236D01*
X117008536Y-118083238D01*
X117008775Y-118079245D01*
X117009149Y-118075053D01*
X117010640Y-118067885D01*
X117008546Y-117990479D01*
X117008500Y-117987072D01*
X117008500Y-111460000D01*
X123376496Y-111460000D01*
X123377186Y-111466565D01*
X123383844Y-111529908D01*
X123396458Y-111649928D01*
X123455473Y-111831556D01*
X123458776Y-111837278D01*
X123458777Y-111837279D01*
X123478567Y-111871556D01*
X123550960Y-111996944D01*
X123555378Y-112001851D01*
X123555379Y-112001852D01*
X123586976Y-112036944D01*
X123678747Y-112138866D01*
X123833248Y-112251118D01*
X123839276Y-112253802D01*
X123839278Y-112253803D01*
X124001681Y-112326109D01*
X124007712Y-112328794D01*
X124094009Y-112347137D01*
X124188056Y-112367128D01*
X124188061Y-112367128D01*
X124194513Y-112368500D01*
X124385487Y-112368500D01*
X124391939Y-112367128D01*
X124391944Y-112367128D01*
X124485991Y-112347137D01*
X124572288Y-112328794D01*
X124578319Y-112326109D01*
X124740722Y-112253803D01*
X124740724Y-112253802D01*
X124746752Y-112251118D01*
X124840854Y-112182749D01*
X124879671Y-112154546D01*
X124901253Y-112138866D01*
X124905668Y-112133963D01*
X124910580Y-112129540D01*
X124911705Y-112130789D01*
X124965014Y-112097949D01*
X124998200Y-112093500D01*
X147255784Y-112093500D01*
X147323905Y-112113502D01*
X147349420Y-112135189D01*
X147388747Y-112178866D01*
X147410329Y-112194546D01*
X147512792Y-112268990D01*
X147543248Y-112291118D01*
X147549276Y-112293802D01*
X147549278Y-112293803D01*
X147669069Y-112347137D01*
X147717712Y-112368794D01*
X147811112Y-112388647D01*
X147898056Y-112407128D01*
X147898061Y-112407128D01*
X147904513Y-112408500D01*
X148095487Y-112408500D01*
X148101939Y-112407128D01*
X148101944Y-112407128D01*
X148188888Y-112388647D01*
X148282288Y-112368794D01*
X148330931Y-112347137D01*
X148450722Y-112293803D01*
X148450724Y-112293802D01*
X148456752Y-112291118D01*
X148487209Y-112268990D01*
X148517149Y-112247237D01*
X148611253Y-112178866D01*
X148643773Y-112142749D01*
X148734621Y-112041852D01*
X148734622Y-112041851D01*
X148739040Y-112036944D01*
X148834527Y-111871556D01*
X148893542Y-111689928D01*
X148913504Y-111500000D01*
X148906341Y-111431851D01*
X148894232Y-111316635D01*
X148894232Y-111316633D01*
X148893542Y-111310072D01*
X148834527Y-111128444D01*
X148739040Y-110963056D01*
X148708173Y-110928774D01*
X148615675Y-110826045D01*
X148615674Y-110826044D01*
X148611253Y-110821134D01*
X148456752Y-110708882D01*
X148450724Y-110706198D01*
X148450722Y-110706197D01*
X148288319Y-110633891D01*
X148288318Y-110633891D01*
X148282288Y-110631206D01*
X148188887Y-110611353D01*
X148101944Y-110592872D01*
X148101939Y-110592872D01*
X148095487Y-110591500D01*
X147904513Y-110591500D01*
X147898061Y-110592872D01*
X147898056Y-110592872D01*
X147811113Y-110611353D01*
X147717712Y-110631206D01*
X147711682Y-110633891D01*
X147711681Y-110633891D01*
X147549278Y-110706197D01*
X147549276Y-110706198D01*
X147543248Y-110708882D01*
X147537907Y-110712762D01*
X147537906Y-110712763D01*
X147414482Y-110802436D01*
X147347614Y-110826295D01*
X147340421Y-110826500D01*
X124998200Y-110826500D01*
X124930079Y-110806498D01*
X124910853Y-110790157D01*
X124910580Y-110790460D01*
X124905668Y-110786037D01*
X124901253Y-110781134D01*
X124801807Y-110708882D01*
X124752094Y-110672763D01*
X124752093Y-110672762D01*
X124746752Y-110668882D01*
X124740724Y-110666198D01*
X124740722Y-110666197D01*
X124578319Y-110593891D01*
X124578318Y-110593891D01*
X124572288Y-110591206D01*
X124478887Y-110571353D01*
X124391944Y-110552872D01*
X124391939Y-110552872D01*
X124385487Y-110551500D01*
X124194513Y-110551500D01*
X124188061Y-110552872D01*
X124188056Y-110552872D01*
X124101112Y-110571353D01*
X124007712Y-110591206D01*
X124001682Y-110593891D01*
X124001681Y-110593891D01*
X123839278Y-110666197D01*
X123839276Y-110666198D01*
X123833248Y-110668882D01*
X123827907Y-110672762D01*
X123827906Y-110672763D01*
X123778193Y-110708882D01*
X123678747Y-110781134D01*
X123674326Y-110786044D01*
X123674325Y-110786045D01*
X123647498Y-110815840D01*
X123550960Y-110923056D01*
X123455473Y-111088444D01*
X123396458Y-111270072D01*
X123376496Y-111460000D01*
X117008500Y-111460000D01*
X117008500Y-108920000D01*
X123416496Y-108920000D01*
X123417186Y-108926565D01*
X123423844Y-108989908D01*
X123436458Y-109109928D01*
X123495473Y-109291556D01*
X123498776Y-109297278D01*
X123498777Y-109297279D01*
X123519069Y-109332425D01*
X123590960Y-109456944D01*
X123718747Y-109598866D01*
X123793947Y-109653502D01*
X123834202Y-109682749D01*
X123873248Y-109711118D01*
X123879276Y-109713802D01*
X123879278Y-109713803D01*
X123904625Y-109725088D01*
X124047712Y-109788794D01*
X124134009Y-109807137D01*
X124228056Y-109827128D01*
X124228061Y-109827128D01*
X124234513Y-109828500D01*
X124425487Y-109828500D01*
X124431939Y-109827128D01*
X124431944Y-109827128D01*
X124525991Y-109807137D01*
X124612288Y-109788794D01*
X124755375Y-109725088D01*
X124780722Y-109713803D01*
X124780724Y-109713802D01*
X124786752Y-109711118D01*
X124837903Y-109673955D01*
X124860463Y-109657564D01*
X124934524Y-109633500D01*
X169541800Y-109633500D01*
X169609921Y-109653502D01*
X169629147Y-109669843D01*
X169629420Y-109669540D01*
X169634332Y-109673963D01*
X169638747Y-109678866D01*
X169660329Y-109694546D01*
X169786354Y-109786109D01*
X169793248Y-109791118D01*
X169799276Y-109793802D01*
X169799278Y-109793803D01*
X169961681Y-109866109D01*
X169967712Y-109868794D01*
X170061112Y-109888647D01*
X170148056Y-109907128D01*
X170148061Y-109907128D01*
X170154513Y-109908500D01*
X170345487Y-109908500D01*
X170351939Y-109907128D01*
X170351944Y-109907128D01*
X170438888Y-109888647D01*
X170532288Y-109868794D01*
X170538319Y-109866109D01*
X170700722Y-109793803D01*
X170700724Y-109793802D01*
X170706752Y-109791118D01*
X170713647Y-109786109D01*
X170762157Y-109750864D01*
X170861253Y-109678866D01*
X170869650Y-109669540D01*
X170984621Y-109541852D01*
X170984622Y-109541851D01*
X170989040Y-109536944D01*
X171084527Y-109371556D01*
X171143542Y-109189928D01*
X171151291Y-109116206D01*
X171162814Y-109006565D01*
X171163504Y-109000000D01*
X171155786Y-108926565D01*
X171144232Y-108816635D01*
X171144232Y-108816633D01*
X171143542Y-108810072D01*
X171084527Y-108628444D01*
X170989040Y-108463056D01*
X170981154Y-108454297D01*
X170865675Y-108326045D01*
X170865674Y-108326044D01*
X170861253Y-108321134D01*
X170750109Y-108240383D01*
X170712094Y-108212763D01*
X170712093Y-108212762D01*
X170706752Y-108208882D01*
X170700724Y-108206198D01*
X170700722Y-108206197D01*
X170538319Y-108133891D01*
X170538318Y-108133891D01*
X170532288Y-108131206D01*
X170438888Y-108111353D01*
X170351944Y-108092872D01*
X170351939Y-108092872D01*
X170345487Y-108091500D01*
X170154513Y-108091500D01*
X170148061Y-108092872D01*
X170148056Y-108092872D01*
X170061112Y-108111353D01*
X169967712Y-108131206D01*
X169961682Y-108133891D01*
X169961681Y-108133891D01*
X169799278Y-108206197D01*
X169799276Y-108206198D01*
X169793248Y-108208882D01*
X169787907Y-108212762D01*
X169787906Y-108212763D01*
X169707073Y-108271492D01*
X169638747Y-108321134D01*
X169634332Y-108326037D01*
X169629420Y-108330460D01*
X169628295Y-108329211D01*
X169574986Y-108362051D01*
X169541800Y-108366500D01*
X125110231Y-108366500D01*
X125042110Y-108346498D01*
X125016595Y-108324810D01*
X125009793Y-108317255D01*
X124941253Y-108241134D01*
X124842157Y-108169136D01*
X124792094Y-108132763D01*
X124792093Y-108132762D01*
X124786752Y-108128882D01*
X124780724Y-108126198D01*
X124780722Y-108126197D01*
X124618319Y-108053891D01*
X124618318Y-108053891D01*
X124612288Y-108051206D01*
X124518887Y-108031353D01*
X124431944Y-108012872D01*
X124431939Y-108012872D01*
X124425487Y-108011500D01*
X124234513Y-108011500D01*
X124228061Y-108012872D01*
X124228056Y-108012872D01*
X124141112Y-108031353D01*
X124047712Y-108051206D01*
X124041682Y-108053891D01*
X124041681Y-108053891D01*
X123879278Y-108126197D01*
X123879276Y-108126198D01*
X123873248Y-108128882D01*
X123867907Y-108132762D01*
X123867906Y-108132763D01*
X123817843Y-108169136D01*
X123718747Y-108241134D01*
X123714326Y-108246044D01*
X123714325Y-108246045D01*
X123638318Y-108330460D01*
X123590960Y-108383056D01*
X123495473Y-108548444D01*
X123436458Y-108730072D01*
X123435768Y-108736633D01*
X123435768Y-108736635D01*
X123428050Y-108810072D01*
X123416496Y-108920000D01*
X117008500Y-108920000D01*
X117008500Y-106500000D01*
X123336496Y-106500000D01*
X123337186Y-106506565D01*
X123354161Y-106668069D01*
X123356458Y-106689928D01*
X123415473Y-106871556D01*
X123510960Y-107036944D01*
X123515378Y-107041851D01*
X123515379Y-107041852D01*
X123630350Y-107169540D01*
X123638747Y-107178866D01*
X123793248Y-107291118D01*
X123799276Y-107293802D01*
X123799278Y-107293803D01*
X123941761Y-107357240D01*
X123967712Y-107368794D01*
X124061113Y-107388647D01*
X124148056Y-107407128D01*
X124148061Y-107407128D01*
X124154513Y-107408500D01*
X124345487Y-107408500D01*
X124351939Y-107407128D01*
X124351944Y-107407128D01*
X124438887Y-107388647D01*
X124532288Y-107368794D01*
X124558239Y-107357240D01*
X124700722Y-107293803D01*
X124700724Y-107293802D01*
X124706752Y-107291118D01*
X124861253Y-107178866D01*
X124865668Y-107173963D01*
X124870580Y-107169540D01*
X124871705Y-107170789D01*
X124925014Y-107137949D01*
X124958200Y-107133500D01*
X193904185Y-107133500D01*
X193972306Y-107153502D01*
X193978246Y-107157564D01*
X194016130Y-107185088D01*
X194093248Y-107241118D01*
X194099276Y-107243802D01*
X194099278Y-107243803D01*
X194196833Y-107287237D01*
X194267712Y-107318794D01*
X194361112Y-107338647D01*
X194448056Y-107357128D01*
X194448061Y-107357128D01*
X194454513Y-107358500D01*
X194645487Y-107358500D01*
X194651939Y-107357128D01*
X194651944Y-107357128D01*
X194738887Y-107338647D01*
X194832288Y-107318794D01*
X194903167Y-107287237D01*
X195000722Y-107243803D01*
X195000724Y-107243802D01*
X195006752Y-107241118D01*
X195161253Y-107128866D01*
X195165675Y-107123955D01*
X195284621Y-106991852D01*
X195284622Y-106991851D01*
X195289040Y-106986944D01*
X195384527Y-106821556D01*
X195443542Y-106639928D01*
X195463504Y-106450000D01*
X195462794Y-106443240D01*
X195444232Y-106266635D01*
X195444232Y-106266633D01*
X195443542Y-106260072D01*
X195384527Y-106078444D01*
X195289040Y-105913056D01*
X195214398Y-105830157D01*
X195165675Y-105776045D01*
X195165674Y-105776044D01*
X195161253Y-105771134D01*
X195006752Y-105658882D01*
X195000724Y-105656198D01*
X195000722Y-105656197D01*
X194838319Y-105583891D01*
X194838318Y-105583891D01*
X194832288Y-105581206D01*
X194738887Y-105561353D01*
X194651944Y-105542872D01*
X194651939Y-105542872D01*
X194645487Y-105541500D01*
X194454513Y-105541500D01*
X194448061Y-105542872D01*
X194448056Y-105542872D01*
X194361112Y-105561353D01*
X194267712Y-105581206D01*
X194261682Y-105583891D01*
X194261681Y-105583891D01*
X194099278Y-105656197D01*
X194099276Y-105656198D01*
X194093248Y-105658882D01*
X193938747Y-105771134D01*
X193897220Y-105817255D01*
X193890417Y-105824810D01*
X193829971Y-105862050D01*
X193796781Y-105866500D01*
X124958200Y-105866500D01*
X124890079Y-105846498D01*
X124870853Y-105830157D01*
X124870580Y-105830460D01*
X124865668Y-105826037D01*
X124861253Y-105821134D01*
X124750394Y-105740590D01*
X124712094Y-105712763D01*
X124712093Y-105712762D01*
X124706752Y-105708882D01*
X124700724Y-105706198D01*
X124700722Y-105706197D01*
X124538319Y-105633891D01*
X124538318Y-105633891D01*
X124532288Y-105631206D01*
X124438887Y-105611353D01*
X124351944Y-105592872D01*
X124351939Y-105592872D01*
X124345487Y-105591500D01*
X124154513Y-105591500D01*
X124148061Y-105592872D01*
X124148056Y-105592872D01*
X124061112Y-105611353D01*
X123967712Y-105631206D01*
X123961682Y-105633891D01*
X123961681Y-105633891D01*
X123799278Y-105706197D01*
X123799276Y-105706198D01*
X123793248Y-105708882D01*
X123638747Y-105821134D01*
X123634326Y-105826044D01*
X123634325Y-105826045D01*
X123531088Y-105940702D01*
X123510960Y-105963056D01*
X123415473Y-106128444D01*
X123356458Y-106310072D01*
X123355768Y-106316633D01*
X123355768Y-106316635D01*
X123341761Y-106449908D01*
X123336496Y-106500000D01*
X117008500Y-106500000D01*
X117008500Y-104684500D01*
X117028502Y-104616379D01*
X117082158Y-104569886D01*
X117134500Y-104558500D01*
X131902356Y-104558500D01*
X131976417Y-104582564D01*
X132022960Y-104616379D01*
X132043246Y-104631118D01*
X132049274Y-104633802D01*
X132049276Y-104633803D01*
X132211679Y-104706109D01*
X132217710Y-104708794D01*
X132295708Y-104725373D01*
X132398054Y-104747128D01*
X132398059Y-104747128D01*
X132404511Y-104748500D01*
X132595485Y-104748500D01*
X132601937Y-104747128D01*
X132601942Y-104747128D01*
X132704288Y-104725373D01*
X132782286Y-104708794D01*
X132788317Y-104706109D01*
X132950720Y-104633803D01*
X132950722Y-104633802D01*
X132956750Y-104631118D01*
X132977037Y-104616379D01*
X133023579Y-104582564D01*
X133097640Y-104558500D01*
X153907413Y-104558500D01*
X153981472Y-104582563D01*
X153987902Y-104587235D01*
X153987909Y-104587239D01*
X153993248Y-104591118D01*
X153999276Y-104593802D01*
X153999278Y-104593803D01*
X154161681Y-104666109D01*
X154167712Y-104668794D01*
X154241603Y-104684500D01*
X154348056Y-104707128D01*
X154348061Y-104707128D01*
X154354513Y-104708500D01*
X154545487Y-104708500D01*
X154551939Y-104707128D01*
X154551944Y-104707128D01*
X154658397Y-104684500D01*
X154732288Y-104668794D01*
X154738319Y-104666109D01*
X154900722Y-104593803D01*
X154900724Y-104593802D01*
X154906752Y-104591118D01*
X154912091Y-104587239D01*
X154912098Y-104587235D01*
X154918528Y-104582563D01*
X154992587Y-104558500D01*
X175907413Y-104558500D01*
X175981472Y-104582563D01*
X175987902Y-104587235D01*
X175987909Y-104587239D01*
X175993248Y-104591118D01*
X175999276Y-104593802D01*
X175999278Y-104593803D01*
X176161681Y-104666109D01*
X176167712Y-104668794D01*
X176241603Y-104684500D01*
X176348056Y-104707128D01*
X176348061Y-104707128D01*
X176354513Y-104708500D01*
X176545487Y-104708500D01*
X176551939Y-104707128D01*
X176551944Y-104707128D01*
X176658397Y-104684500D01*
X176732288Y-104668794D01*
X176738319Y-104666109D01*
X176900722Y-104593803D01*
X176900724Y-104593802D01*
X176906752Y-104591118D01*
X176912091Y-104587239D01*
X176912098Y-104587235D01*
X176918528Y-104582563D01*
X176992587Y-104558500D01*
X197957413Y-104558500D01*
X198031472Y-104582563D01*
X198037902Y-104587235D01*
X198037909Y-104587239D01*
X198043248Y-104591118D01*
X198049276Y-104593802D01*
X198049278Y-104593803D01*
X198211681Y-104666109D01*
X198217712Y-104668794D01*
X198291603Y-104684500D01*
X198398056Y-104707128D01*
X198398061Y-104707128D01*
X198404513Y-104708500D01*
X198595487Y-104708500D01*
X198601939Y-104707128D01*
X198601944Y-104707128D01*
X198708397Y-104684500D01*
X198782288Y-104668794D01*
X198788319Y-104666109D01*
X198950722Y-104593803D01*
X198950724Y-104593802D01*
X198956752Y-104591118D01*
X198962097Y-104587235D01*
X199012157Y-104550864D01*
X199111253Y-104478866D01*
X199115675Y-104473955D01*
X199234621Y-104341852D01*
X199234622Y-104341851D01*
X199239040Y-104336944D01*
X199334527Y-104171556D01*
X199393542Y-103989928D01*
X199413504Y-103800000D01*
X199393542Y-103610072D01*
X199334527Y-103428444D01*
X199239040Y-103263056D01*
X199111253Y-103121134D01*
X199001647Y-103041500D01*
X198962094Y-103012763D01*
X198962093Y-103012762D01*
X198956752Y-103008882D01*
X198950724Y-103006198D01*
X198950722Y-103006197D01*
X198788319Y-102933891D01*
X198788318Y-102933891D01*
X198782288Y-102931206D01*
X198688887Y-102911353D01*
X198601944Y-102892872D01*
X198601939Y-102892872D01*
X198595487Y-102891500D01*
X198404513Y-102891500D01*
X198398061Y-102892872D01*
X198398056Y-102892872D01*
X198311113Y-102911353D01*
X198217712Y-102931206D01*
X198211682Y-102933891D01*
X198211681Y-102933891D01*
X198049278Y-103006197D01*
X198049276Y-103006198D01*
X198043248Y-103008882D01*
X198037909Y-103012761D01*
X198037902Y-103012765D01*
X198031472Y-103017437D01*
X197957413Y-103041500D01*
X176992587Y-103041500D01*
X176918528Y-103017437D01*
X176912098Y-103012765D01*
X176912091Y-103012761D01*
X176906752Y-103008882D01*
X176900724Y-103006198D01*
X176900722Y-103006197D01*
X176738319Y-102933891D01*
X176738318Y-102933891D01*
X176732288Y-102931206D01*
X176638887Y-102911353D01*
X176551944Y-102892872D01*
X176551939Y-102892872D01*
X176545487Y-102891500D01*
X176354513Y-102891500D01*
X176348061Y-102892872D01*
X176348056Y-102892872D01*
X176261113Y-102911353D01*
X176167712Y-102931206D01*
X176161682Y-102933891D01*
X176161681Y-102933891D01*
X175999278Y-103006197D01*
X175999276Y-103006198D01*
X175993248Y-103008882D01*
X175987909Y-103012761D01*
X175987902Y-103012765D01*
X175981472Y-103017437D01*
X175907413Y-103041500D01*
X154992587Y-103041500D01*
X154918528Y-103017437D01*
X154912098Y-103012765D01*
X154912091Y-103012761D01*
X154906752Y-103008882D01*
X154900724Y-103006198D01*
X154900722Y-103006197D01*
X154738319Y-102933891D01*
X154738318Y-102933891D01*
X154732288Y-102931206D01*
X154638887Y-102911353D01*
X154551944Y-102892872D01*
X154551939Y-102892872D01*
X154545487Y-102891500D01*
X154354513Y-102891500D01*
X154348061Y-102892872D01*
X154348056Y-102892872D01*
X154261113Y-102911353D01*
X154167712Y-102931206D01*
X154161682Y-102933891D01*
X154161681Y-102933891D01*
X153999278Y-103006197D01*
X153999276Y-103006198D01*
X153993248Y-103008882D01*
X153987909Y-103012761D01*
X153987902Y-103012765D01*
X153981472Y-103017437D01*
X153907413Y-103041500D01*
X132966953Y-103041500D01*
X132915705Y-103030607D01*
X132788321Y-102973892D01*
X132788313Y-102973889D01*
X132782286Y-102971206D01*
X132688886Y-102951353D01*
X132601942Y-102932872D01*
X132601937Y-102932872D01*
X132595485Y-102931500D01*
X132404511Y-102931500D01*
X132398059Y-102932872D01*
X132398054Y-102932872D01*
X132311111Y-102951353D01*
X132217710Y-102971206D01*
X132211683Y-102973889D01*
X132211675Y-102973892D01*
X132084291Y-103030607D01*
X132033043Y-103041500D01*
X115447070Y-103041500D01*
X115428120Y-103040067D01*
X115413885Y-103037901D01*
X115413881Y-103037901D01*
X115406651Y-103036801D01*
X115399359Y-103037394D01*
X115399356Y-103037394D01*
X115353982Y-103041085D01*
X115343767Y-103041500D01*
X115335707Y-103041500D01*
X115332073Y-103041924D01*
X115332067Y-103041924D01*
X115319042Y-103043443D01*
X115307480Y-103044791D01*
X115303132Y-103045221D01*
X115281059Y-103047016D01*
X115237662Y-103050546D01*
X115237659Y-103050547D01*
X115230364Y-103051140D01*
X115223400Y-103053396D01*
X115217461Y-103054583D01*
X115211591Y-103055970D01*
X115204319Y-103056818D01*
X115197442Y-103059314D01*
X115197439Y-103059315D01*
X115157152Y-103073939D01*
X115114160Y-103081500D01*
X114195939Y-103081500D01*
X114127818Y-103061498D01*
X114090147Y-103023941D01*
X114085940Y-103017437D01*
X114080014Y-103008277D01*
X113929670Y-102843051D01*
X113925619Y-102839852D01*
X113925615Y-102839848D01*
X113758414Y-102707800D01*
X113758410Y-102707798D01*
X113754359Y-102704598D01*
X113558789Y-102596638D01*
X113553920Y-102594914D01*
X113553916Y-102594912D01*
X113353087Y-102523795D01*
X113353083Y-102523794D01*
X113348212Y-102522069D01*
X113343119Y-102521162D01*
X113343116Y-102521161D01*
X113133373Y-102483800D01*
X113133367Y-102483799D01*
X113128284Y-102482894D01*
X113054452Y-102481992D01*
X112910081Y-102480228D01*
X112910079Y-102480228D01*
X112904911Y-102480165D01*
X112684091Y-102513955D01*
X112471756Y-102583357D01*
X112273607Y-102686507D01*
X112269474Y-102689610D01*
X112269471Y-102689612D01*
X112245247Y-102707800D01*
X112094965Y-102820635D01*
X111940629Y-102982138D01*
X111937715Y-102986410D01*
X111937714Y-102986411D01*
X111900418Y-103041085D01*
X111814743Y-103166680D01*
X111720688Y-103369305D01*
X111660989Y-103584570D01*
X111637251Y-103806695D01*
X111637548Y-103811848D01*
X111637548Y-103811851D01*
X111647816Y-103989928D01*
X111650110Y-104029715D01*
X111651247Y-104034761D01*
X111651248Y-104034767D01*
X111675304Y-104141508D01*
X111699222Y-104247639D01*
X111783266Y-104454616D01*
X111800506Y-104482749D01*
X111893072Y-104633803D01*
X111899987Y-104645088D01*
X112046250Y-104813938D01*
X112218126Y-104956632D01*
X112288595Y-104997811D01*
X112291445Y-104999476D01*
X112340169Y-105051114D01*
X112353240Y-105120897D01*
X112326509Y-105186669D01*
X112286055Y-105220027D01*
X112273607Y-105226507D01*
X112269474Y-105229610D01*
X112269471Y-105229612D01*
X112109429Y-105349775D01*
X112094965Y-105360635D01*
X111940629Y-105522138D01*
X111937715Y-105526410D01*
X111937714Y-105526411D01*
X111872604Y-105621859D01*
X111814743Y-105706680D01*
X111720688Y-105909305D01*
X111660989Y-106124570D01*
X111637251Y-106346695D01*
X111637548Y-106351848D01*
X111637548Y-106351851D01*
X111642829Y-106443435D01*
X111650110Y-106569715D01*
X111651247Y-106574761D01*
X111651248Y-106574767D01*
X111664454Y-106633365D01*
X111699222Y-106787639D01*
X111783266Y-106994616D01*
X111785965Y-106999020D01*
X111893165Y-107173955D01*
X111899987Y-107185088D01*
X112046250Y-107353938D01*
X112218126Y-107496632D01*
X112288595Y-107537811D01*
X112291445Y-107539476D01*
X112340169Y-107591114D01*
X112353240Y-107660897D01*
X112326509Y-107726669D01*
X112286055Y-107760027D01*
X112273607Y-107766507D01*
X112269474Y-107769610D01*
X112269471Y-107769612D01*
X112245247Y-107787800D01*
X112094965Y-107900635D01*
X111940629Y-108062138D01*
X111937715Y-108066410D01*
X111937714Y-108066411D01*
X111919838Y-108092617D01*
X111814743Y-108246680D01*
X111720688Y-108449305D01*
X111660989Y-108664570D01*
X111637251Y-108886695D01*
X111637548Y-108891848D01*
X111637548Y-108891851D01*
X111649744Y-109103365D01*
X111650110Y-109109715D01*
X111651247Y-109114761D01*
X111651248Y-109114767D01*
X111666708Y-109183365D01*
X111699222Y-109327639D01*
X111783266Y-109534616D01*
X111785965Y-109539020D01*
X111893072Y-109713803D01*
X111899987Y-109725088D01*
X112046250Y-109893938D01*
X112218126Y-110036632D01*
X112288595Y-110077811D01*
X112291445Y-110079476D01*
X112340169Y-110131114D01*
X112353240Y-110200897D01*
X112326509Y-110266669D01*
X112286055Y-110300027D01*
X112273607Y-110306507D01*
X112269474Y-110309610D01*
X112269471Y-110309612D01*
X112245247Y-110327800D01*
X112094965Y-110440635D01*
X111940629Y-110602138D01*
X111937715Y-110606410D01*
X111937714Y-110606411D01*
X111896931Y-110666197D01*
X111814743Y-110786680D01*
X111796259Y-110826500D01*
X111735151Y-110958148D01*
X111720688Y-110989305D01*
X111660989Y-111204570D01*
X111637251Y-111426695D01*
X111637548Y-111431848D01*
X111637548Y-111431851D01*
X111643011Y-111526590D01*
X111650110Y-111649715D01*
X111651247Y-111654761D01*
X111651248Y-111654767D01*
X111660587Y-111696206D01*
X111699222Y-111867639D01*
X111783266Y-112074616D01*
X111807095Y-112113502D01*
X111893072Y-112253803D01*
X111899987Y-112265088D01*
X112046250Y-112433938D01*
X112218126Y-112576632D01*
X112288595Y-112617811D01*
X112291445Y-112619476D01*
X112340169Y-112671114D01*
X112353240Y-112740897D01*
X112326509Y-112806669D01*
X112286055Y-112840027D01*
X112273607Y-112846507D01*
X112269474Y-112849610D01*
X112269471Y-112849612D01*
X112245247Y-112867800D01*
X112094965Y-112980635D01*
X111940629Y-113142138D01*
X111814743Y-113326680D01*
X111720688Y-113529305D01*
X111660989Y-113744570D01*
X111637251Y-113966695D01*
X111637548Y-113971848D01*
X111637548Y-113971851D01*
X111643011Y-114066590D01*
X111650110Y-114189715D01*
X111651247Y-114194761D01*
X111651248Y-114194767D01*
X111671119Y-114282939D01*
X111699222Y-114407639D01*
X111737461Y-114501811D01*
X111773524Y-114590623D01*
X111783266Y-114614616D01*
X111899987Y-114805088D01*
X112046250Y-114973938D01*
X112050225Y-114977238D01*
X112050231Y-114977244D01*
X112055425Y-114981556D01*
X112095059Y-115040460D01*
X112096555Y-115111441D01*
X112059439Y-115171962D01*
X112019168Y-115196480D01*
X111911946Y-115236676D01*
X111896351Y-115245214D01*
X111794276Y-115321715D01*
X111781715Y-115334276D01*
X111705214Y-115436351D01*
X111696676Y-115451946D01*
X111651522Y-115572394D01*
X111647895Y-115587649D01*
X111642369Y-115638514D01*
X111642000Y-115645328D01*
X111642000Y-116267885D01*
X111646475Y-116283124D01*
X111647865Y-116284329D01*
X111655548Y-116286000D01*
X114339884Y-116286000D01*
X114355123Y-116281525D01*
X114356328Y-116280135D01*
X114357999Y-116272452D01*
X114357999Y-115645331D01*
X114357629Y-115638510D01*
X114352105Y-115587648D01*
X114348479Y-115572396D01*
X114303324Y-115451946D01*
X114294786Y-115436351D01*
X114218285Y-115334276D01*
X114205724Y-115321715D01*
X114103649Y-115245214D01*
X114088054Y-115236676D01*
X113977813Y-115195348D01*
X113921049Y-115152706D01*
X113896349Y-115086145D01*
X113911557Y-115016796D01*
X113933104Y-114988115D01*
X114034430Y-114887144D01*
X114034440Y-114887132D01*
X114038096Y-114883489D01*
X114097594Y-114800689D01*
X114165435Y-114706277D01*
X114168453Y-114702077D01*
X114176475Y-114685847D01*
X114265136Y-114506453D01*
X114265137Y-114506451D01*
X114267430Y-114501811D01*
X114332370Y-114288069D01*
X114361529Y-114066590D01*
X114363156Y-114000000D01*
X114344852Y-113777361D01*
X114290431Y-113560702D01*
X114201354Y-113355840D01*
X114080014Y-113168277D01*
X113929670Y-113003051D01*
X113925619Y-112999852D01*
X113925615Y-112999848D01*
X113758414Y-112867800D01*
X113758410Y-112867798D01*
X113754359Y-112864598D01*
X113713053Y-112841796D01*
X113663084Y-112791364D01*
X113648312Y-112721921D01*
X113673428Y-112655516D01*
X113700780Y-112628909D01*
X113744603Y-112597650D01*
X113879860Y-112501173D01*
X114038096Y-112343489D01*
X114047670Y-112330166D01*
X114165435Y-112166277D01*
X114168453Y-112162077D01*
X114178006Y-112142749D01*
X114265136Y-111966453D01*
X114265137Y-111966451D01*
X114267430Y-111961811D01*
X114332370Y-111748069D01*
X114361529Y-111526590D01*
X114363156Y-111460000D01*
X114344852Y-111237361D01*
X114290431Y-111020702D01*
X114201354Y-110815840D01*
X114161906Y-110754862D01*
X114082822Y-110632617D01*
X114082820Y-110632614D01*
X114080014Y-110628277D01*
X113929670Y-110463051D01*
X113925619Y-110459852D01*
X113925615Y-110459848D01*
X113758414Y-110327800D01*
X113758410Y-110327798D01*
X113754359Y-110324598D01*
X113713053Y-110301796D01*
X113663084Y-110251364D01*
X113648312Y-110181921D01*
X113673428Y-110115516D01*
X113700780Y-110088909D01*
X113744603Y-110057650D01*
X113879860Y-109961173D01*
X114038096Y-109803489D01*
X114046986Y-109791118D01*
X114165435Y-109626277D01*
X114168453Y-109622077D01*
X114178006Y-109602749D01*
X114265136Y-109426453D01*
X114265137Y-109426451D01*
X114267430Y-109421811D01*
X114332370Y-109208069D01*
X114361529Y-108986590D01*
X114363156Y-108920000D01*
X114344852Y-108697361D01*
X114290431Y-108480702D01*
X114201354Y-108275840D01*
X114109523Y-108133891D01*
X114082822Y-108092617D01*
X114082820Y-108092614D01*
X114080014Y-108088277D01*
X113929670Y-107923051D01*
X113925619Y-107919852D01*
X113925615Y-107919848D01*
X113758414Y-107787800D01*
X113758410Y-107787798D01*
X113754359Y-107784598D01*
X113713053Y-107761796D01*
X113663084Y-107711364D01*
X113648312Y-107641921D01*
X113673428Y-107575516D01*
X113700780Y-107548909D01*
X113744603Y-107517650D01*
X113879860Y-107421173D01*
X113892578Y-107408500D01*
X114034435Y-107267137D01*
X114038096Y-107263489D01*
X114097594Y-107180689D01*
X114165435Y-107086277D01*
X114168453Y-107082077D01*
X114177549Y-107063674D01*
X114265136Y-106886453D01*
X114265137Y-106886451D01*
X114267430Y-106881811D01*
X114299900Y-106774940D01*
X114330865Y-106673023D01*
X114330865Y-106673021D01*
X114332370Y-106668069D01*
X114361529Y-106446590D01*
X114363156Y-106380000D01*
X114344852Y-106157361D01*
X114290431Y-105940702D01*
X114201354Y-105735840D01*
X114080014Y-105548277D01*
X113929670Y-105383051D01*
X113925619Y-105379852D01*
X113925615Y-105379848D01*
X113758414Y-105247800D01*
X113758410Y-105247798D01*
X113754359Y-105244598D01*
X113713053Y-105221796D01*
X113663084Y-105171364D01*
X113648312Y-105101921D01*
X113673428Y-105035516D01*
X113700780Y-105008909D01*
X113744603Y-104977650D01*
X113879860Y-104881173D01*
X114038096Y-104723489D01*
X114047670Y-104710166D01*
X114090203Y-104650974D01*
X114146198Y-104607326D01*
X114192526Y-104598500D01*
X115272930Y-104598500D01*
X115291880Y-104599933D01*
X115306115Y-104602099D01*
X115306119Y-104602099D01*
X115313349Y-104603199D01*
X115320641Y-104602606D01*
X115320644Y-104602606D01*
X115355285Y-104599788D01*
X115424803Y-104614201D01*
X115475493Y-104663911D01*
X115491500Y-104725373D01*
X115491500Y-117633629D01*
X115471498Y-117701750D01*
X115454595Y-117722724D01*
X114472724Y-118704595D01*
X114410412Y-118738621D01*
X114383629Y-118741500D01*
X111116371Y-118741500D01*
X111048250Y-118721498D01*
X111027276Y-118704595D01*
X109833770Y-117511089D01*
X109821384Y-117496677D01*
X109812851Y-117485082D01*
X109812846Y-117485077D01*
X109808508Y-117479182D01*
X109802930Y-117474443D01*
X109802927Y-117474440D01*
X109768232Y-117444965D01*
X109760716Y-117438035D01*
X109757350Y-117434669D01*
X111642001Y-117434669D01*
X111642371Y-117441490D01*
X111647895Y-117492352D01*
X111651521Y-117507604D01*
X111696676Y-117628054D01*
X111705214Y-117643649D01*
X111781715Y-117745724D01*
X111794276Y-117758285D01*
X111896351Y-117834786D01*
X111911946Y-117843324D01*
X112032394Y-117888478D01*
X112047649Y-117892105D01*
X112098514Y-117897631D01*
X112105328Y-117898000D01*
X112727885Y-117898000D01*
X112743124Y-117893525D01*
X112744329Y-117892135D01*
X112746000Y-117884452D01*
X112746000Y-117879884D01*
X113254000Y-117879884D01*
X113258475Y-117895123D01*
X113259865Y-117896328D01*
X113267548Y-117897999D01*
X113894669Y-117897999D01*
X113901490Y-117897629D01*
X113952352Y-117892105D01*
X113967604Y-117888479D01*
X114088054Y-117843324D01*
X114103649Y-117834786D01*
X114205724Y-117758285D01*
X114218285Y-117745724D01*
X114294786Y-117643649D01*
X114303324Y-117628054D01*
X114348478Y-117507606D01*
X114352105Y-117492351D01*
X114357631Y-117441486D01*
X114358000Y-117434672D01*
X114358000Y-116812115D01*
X114353525Y-116796876D01*
X114352135Y-116795671D01*
X114344452Y-116794000D01*
X113272115Y-116794000D01*
X113256876Y-116798475D01*
X113255671Y-116799865D01*
X113254000Y-116807548D01*
X113254000Y-117879884D01*
X112746000Y-117879884D01*
X112746000Y-116812115D01*
X112741525Y-116796876D01*
X112740135Y-116795671D01*
X112732452Y-116794000D01*
X111660116Y-116794000D01*
X111644877Y-116798475D01*
X111643672Y-116799865D01*
X111642001Y-116807548D01*
X111642001Y-117434669D01*
X109757350Y-117434669D01*
X109755021Y-117432340D01*
X109748880Y-117427482D01*
X109732749Y-117414719D01*
X109729345Y-117411928D01*
X109679297Y-117369409D01*
X109679295Y-117369408D01*
X109673715Y-117364667D01*
X109667199Y-117361339D01*
X109662150Y-117357972D01*
X109657021Y-117354805D01*
X109651284Y-117350266D01*
X109585125Y-117319345D01*
X109581225Y-117317439D01*
X109580855Y-117317250D01*
X109516192Y-117284231D01*
X109509084Y-117282492D01*
X109503441Y-117280393D01*
X109497678Y-117278476D01*
X109491050Y-117275378D01*
X109419583Y-117260513D01*
X109415299Y-117259543D01*
X109344390Y-117242192D01*
X109338788Y-117241844D01*
X109338785Y-117241844D01*
X109333236Y-117241500D01*
X109333238Y-117241464D01*
X109329245Y-117241225D01*
X109325053Y-117240851D01*
X109317885Y-117239360D01*
X109251675Y-117241151D01*
X109240479Y-117241454D01*
X109237072Y-117241500D01*
X93017587Y-117241500D01*
X92943528Y-117217437D01*
X92937098Y-117212765D01*
X92937091Y-117212761D01*
X92931752Y-117208882D01*
X92925724Y-117206198D01*
X92925722Y-117206197D01*
X92763319Y-117133891D01*
X92763316Y-117133890D01*
X92757288Y-117131206D01*
X92663888Y-117111353D01*
X92576944Y-117092872D01*
X92576939Y-117092872D01*
X92570487Y-117091500D01*
X92379513Y-117091500D01*
X92373061Y-117092872D01*
X92373056Y-117092872D01*
X92286112Y-117111353D01*
X92192712Y-117131206D01*
X92186684Y-117133890D01*
X92186681Y-117133891D01*
X92024278Y-117206197D01*
X92024276Y-117206198D01*
X92018248Y-117208882D01*
X92012909Y-117212761D01*
X92012902Y-117212765D01*
X92006472Y-117217437D01*
X91932413Y-117241500D01*
X72267587Y-117241500D01*
X72193528Y-117217437D01*
X72187098Y-117212765D01*
X72187091Y-117212761D01*
X72181752Y-117208882D01*
X72175724Y-117206198D01*
X72175722Y-117206197D01*
X72013319Y-117133891D01*
X72013316Y-117133890D01*
X72007288Y-117131206D01*
X71913888Y-117111353D01*
X71826944Y-117092872D01*
X71826939Y-117092872D01*
X71820487Y-117091500D01*
X71629513Y-117091500D01*
X71623061Y-117092872D01*
X71623056Y-117092872D01*
X71536112Y-117111353D01*
X71442712Y-117131206D01*
X71436684Y-117133890D01*
X71436681Y-117133891D01*
X71274278Y-117206197D01*
X71274276Y-117206198D01*
X71268248Y-117208882D01*
X71262909Y-117212761D01*
X71262902Y-117212765D01*
X71256472Y-117217437D01*
X71182413Y-117241500D01*
X51517587Y-117241500D01*
X51443528Y-117217437D01*
X51437098Y-117212765D01*
X51437091Y-117212761D01*
X51431752Y-117208882D01*
X51425724Y-117206198D01*
X51425722Y-117206197D01*
X51263319Y-117133891D01*
X51263316Y-117133890D01*
X51257288Y-117131206D01*
X51163888Y-117111353D01*
X51076944Y-117092872D01*
X51076939Y-117092872D01*
X51070487Y-117091500D01*
X50879513Y-117091500D01*
X50873061Y-117092872D01*
X50873056Y-117092872D01*
X50786112Y-117111353D01*
X50692712Y-117131206D01*
X50686684Y-117133890D01*
X50686681Y-117133891D01*
X50524278Y-117206197D01*
X50524276Y-117206198D01*
X50518248Y-117208882D01*
X50512909Y-117212761D01*
X50512902Y-117212765D01*
X50506472Y-117217437D01*
X50432413Y-117241500D01*
X40612501Y-117241500D01*
X30792588Y-117241499D01*
X30718529Y-117217436D01*
X30712099Y-117212764D01*
X30712092Y-117212760D01*
X30706753Y-117208881D01*
X30700725Y-117206197D01*
X30700723Y-117206196D01*
X30538320Y-117133890D01*
X30538319Y-117133890D01*
X30532289Y-117131205D01*
X30438888Y-117111352D01*
X30351945Y-117092871D01*
X30351940Y-117092871D01*
X30345488Y-117091499D01*
X30154514Y-117091499D01*
X30148062Y-117092871D01*
X30148057Y-117092871D01*
X30061114Y-117111352D01*
X29967713Y-117131205D01*
X29961683Y-117133890D01*
X29961682Y-117133890D01*
X29799279Y-117206196D01*
X29799277Y-117206197D01*
X29793249Y-117208881D01*
X29787908Y-117212761D01*
X29787907Y-117212762D01*
X29745563Y-117243527D01*
X29638748Y-117321133D01*
X29634327Y-117326043D01*
X29634326Y-117326044D01*
X29555716Y-117413350D01*
X29510961Y-117463055D01*
X29415474Y-117628443D01*
X29356459Y-117810071D01*
X29355769Y-117816632D01*
X29355769Y-117816634D01*
X29347217Y-117898000D01*
X29336497Y-117999999D01*
X21508000Y-117999999D01*
X21508000Y-114685847D01*
X21528002Y-114617726D01*
X21581658Y-114571233D01*
X21651932Y-114561129D01*
X21716512Y-114590623D01*
X21747653Y-114631732D01*
X21748214Y-114633128D01*
X21787931Y-114706277D01*
X21912028Y-114934837D01*
X21912034Y-114934846D01*
X21913764Y-114938033D01*
X21915853Y-114941005D01*
X21915854Y-114941007D01*
X22111176Y-115218922D01*
X22113262Y-115221890D01*
X22115677Y-115224601D01*
X22115679Y-115224603D01*
X22190901Y-115309030D01*
X22344064Y-115480936D01*
X22346770Y-115483347D01*
X22528577Y-115645331D01*
X22603110Y-115711738D01*
X22886967Y-115911236D01*
X22890154Y-115912966D01*
X22890163Y-115912972D01*
X23188683Y-116075055D01*
X23188690Y-116075058D01*
X23191872Y-116076786D01*
X23513785Y-116206194D01*
X23517282Y-116207151D01*
X23517289Y-116207153D01*
X23729881Y-116265311D01*
X23848438Y-116297745D01*
X23852032Y-116298295D01*
X23852037Y-116298296D01*
X24114434Y-116338448D01*
X24191395Y-116350225D01*
X24194688Y-116350380D01*
X24194695Y-116350381D01*
X24365383Y-116358430D01*
X24365392Y-116358430D01*
X24366872Y-116358500D01*
X29583128Y-116358500D01*
X29584608Y-116358430D01*
X29584617Y-116358430D01*
X29755305Y-116350381D01*
X29755312Y-116350380D01*
X29758605Y-116350225D01*
X29835566Y-116338448D01*
X30097963Y-116298296D01*
X30097968Y-116298295D01*
X30101562Y-116297745D01*
X30220119Y-116265311D01*
X30432711Y-116207153D01*
X30432718Y-116207151D01*
X30436215Y-116206194D01*
X30758128Y-116076786D01*
X30761310Y-116075058D01*
X30761317Y-116075055D01*
X31059837Y-115912972D01*
X31059846Y-115912966D01*
X31063033Y-115911236D01*
X31346890Y-115711738D01*
X31421424Y-115645331D01*
X31603230Y-115483347D01*
X31605936Y-115480936D01*
X31759099Y-115309030D01*
X31834321Y-115224603D01*
X31834323Y-115224601D01*
X31836738Y-115221890D01*
X31838824Y-115218922D01*
X32034146Y-114941007D01*
X32034147Y-114941005D01*
X32036236Y-114938033D01*
X32037966Y-114934846D01*
X32037972Y-114934837D01*
X32200055Y-114636317D01*
X32200058Y-114636310D01*
X32201786Y-114633128D01*
X32331194Y-114311215D01*
X32338930Y-114282939D01*
X32398116Y-114066590D01*
X32422745Y-113976562D01*
X32425041Y-113961562D01*
X32474725Y-113636872D01*
X32475225Y-113633605D01*
X32478427Y-113565720D01*
X32483430Y-113459617D01*
X32483430Y-113459608D01*
X32483500Y-113458128D01*
X42133166Y-113458128D01*
X42133236Y-113459608D01*
X42133236Y-113459617D01*
X42138240Y-113565720D01*
X42141441Y-113633605D01*
X42141941Y-113636872D01*
X42191626Y-113961562D01*
X42193921Y-113976562D01*
X42218550Y-114066590D01*
X42277737Y-114282939D01*
X42285472Y-114311215D01*
X42414880Y-114633128D01*
X42416608Y-114636310D01*
X42416611Y-114636317D01*
X42578694Y-114934837D01*
X42578700Y-114934846D01*
X42580430Y-114938033D01*
X42582519Y-114941005D01*
X42582520Y-114941007D01*
X42777842Y-115218922D01*
X42779928Y-115221890D01*
X42782343Y-115224601D01*
X42782345Y-115224603D01*
X42857567Y-115309030D01*
X43010730Y-115480936D01*
X43013436Y-115483347D01*
X43195243Y-115645331D01*
X43269776Y-115711738D01*
X43553633Y-115911236D01*
X43556820Y-115912966D01*
X43556829Y-115912972D01*
X43855349Y-116075055D01*
X43855356Y-116075058D01*
X43858538Y-116076786D01*
X44180451Y-116206194D01*
X44183948Y-116207151D01*
X44183955Y-116207153D01*
X44396547Y-116265311D01*
X44515104Y-116297745D01*
X44518698Y-116298295D01*
X44518703Y-116298296D01*
X44781100Y-116338448D01*
X44858061Y-116350225D01*
X44861354Y-116350380D01*
X44861361Y-116350381D01*
X45032049Y-116358430D01*
X45032058Y-116358430D01*
X45033538Y-116358500D01*
X50249794Y-116358500D01*
X50251274Y-116358430D01*
X50251283Y-116358430D01*
X50421971Y-116350381D01*
X50421978Y-116350380D01*
X50425271Y-116350225D01*
X50502232Y-116338448D01*
X50764629Y-116298296D01*
X50764634Y-116298295D01*
X50768228Y-116297745D01*
X50886785Y-116265311D01*
X51099377Y-116207153D01*
X51099384Y-116207151D01*
X51102881Y-116206194D01*
X51424794Y-116076786D01*
X51427976Y-116075058D01*
X51427983Y-116075055D01*
X51726503Y-115912972D01*
X51726512Y-115912966D01*
X51729699Y-115911236D01*
X52013556Y-115711738D01*
X52088090Y-115645331D01*
X52269896Y-115483347D01*
X52272602Y-115480936D01*
X52425765Y-115309030D01*
X52500987Y-115224603D01*
X52500989Y-115224601D01*
X52503404Y-115221890D01*
X52505490Y-115218922D01*
X52700812Y-114941007D01*
X52700813Y-114941005D01*
X52702902Y-114938033D01*
X52704632Y-114934846D01*
X52704638Y-114934837D01*
X52866721Y-114636317D01*
X52866724Y-114636310D01*
X52868452Y-114633128D01*
X52997860Y-114311215D01*
X53005596Y-114282939D01*
X53064782Y-114066590D01*
X53089411Y-113976562D01*
X53091707Y-113961562D01*
X53141391Y-113636872D01*
X53141891Y-113633605D01*
X53145093Y-113565720D01*
X53150096Y-113459617D01*
X53150096Y-113459608D01*
X53150166Y-113458128D01*
X62799832Y-113458128D01*
X62799902Y-113459608D01*
X62799902Y-113459617D01*
X62804906Y-113565720D01*
X62808107Y-113633605D01*
X62808607Y-113636872D01*
X62858292Y-113961562D01*
X62860587Y-113976562D01*
X62885216Y-114066590D01*
X62944403Y-114282939D01*
X62952138Y-114311215D01*
X63081546Y-114633128D01*
X63083274Y-114636310D01*
X63083277Y-114636317D01*
X63245360Y-114934837D01*
X63245366Y-114934846D01*
X63247096Y-114938033D01*
X63249185Y-114941005D01*
X63249186Y-114941007D01*
X63444508Y-115218922D01*
X63446594Y-115221890D01*
X63449009Y-115224601D01*
X63449011Y-115224603D01*
X63524233Y-115309030D01*
X63677396Y-115480936D01*
X63680102Y-115483347D01*
X63861909Y-115645331D01*
X63936442Y-115711738D01*
X64220299Y-115911236D01*
X64223486Y-115912966D01*
X64223495Y-115912972D01*
X64522015Y-116075055D01*
X64522022Y-116075058D01*
X64525204Y-116076786D01*
X64847117Y-116206194D01*
X64850614Y-116207151D01*
X64850621Y-116207153D01*
X65063213Y-116265311D01*
X65181770Y-116297745D01*
X65185364Y-116298295D01*
X65185369Y-116298296D01*
X65447766Y-116338448D01*
X65524727Y-116350225D01*
X65528020Y-116350380D01*
X65528027Y-116350381D01*
X65698715Y-116358430D01*
X65698724Y-116358430D01*
X65700204Y-116358500D01*
X70916460Y-116358500D01*
X70917940Y-116358430D01*
X70917949Y-116358430D01*
X71088637Y-116350381D01*
X71088644Y-116350380D01*
X71091937Y-116350225D01*
X71168898Y-116338448D01*
X71431295Y-116298296D01*
X71431300Y-116298295D01*
X71434894Y-116297745D01*
X71553451Y-116265311D01*
X71766043Y-116207153D01*
X71766050Y-116207151D01*
X71769547Y-116206194D01*
X72091460Y-116076786D01*
X72094642Y-116075058D01*
X72094649Y-116075055D01*
X72393169Y-115912972D01*
X72393178Y-115912966D01*
X72396365Y-115911236D01*
X72680222Y-115711738D01*
X72754756Y-115645331D01*
X72936562Y-115483347D01*
X72939268Y-115480936D01*
X73092431Y-115309030D01*
X73167653Y-115224603D01*
X73167655Y-115224601D01*
X73170070Y-115221890D01*
X73172156Y-115218922D01*
X73367478Y-114941007D01*
X73367479Y-114941005D01*
X73369568Y-114938033D01*
X73371298Y-114934846D01*
X73371304Y-114934837D01*
X73533387Y-114636317D01*
X73533390Y-114636310D01*
X73535118Y-114633128D01*
X73664526Y-114311215D01*
X73672262Y-114282939D01*
X73731448Y-114066590D01*
X73756077Y-113976562D01*
X73758373Y-113961562D01*
X73808057Y-113636872D01*
X73808557Y-113633605D01*
X73811759Y-113565720D01*
X73816762Y-113459617D01*
X73816762Y-113459608D01*
X73816832Y-113458128D01*
X83466500Y-113458128D01*
X83466570Y-113459608D01*
X83466570Y-113459617D01*
X83471574Y-113565720D01*
X83474775Y-113633605D01*
X83475275Y-113636872D01*
X83524960Y-113961562D01*
X83527255Y-113976562D01*
X83551884Y-114066590D01*
X83611071Y-114282939D01*
X83618806Y-114311215D01*
X83748214Y-114633128D01*
X83749942Y-114636310D01*
X83749945Y-114636317D01*
X83912028Y-114934837D01*
X83912034Y-114934846D01*
X83913764Y-114938033D01*
X83915853Y-114941005D01*
X83915854Y-114941007D01*
X84111176Y-115218922D01*
X84113262Y-115221890D01*
X84115677Y-115224601D01*
X84115679Y-115224603D01*
X84190901Y-115309030D01*
X84344064Y-115480936D01*
X84346770Y-115483347D01*
X84528577Y-115645331D01*
X84603110Y-115711738D01*
X84886967Y-115911236D01*
X84890154Y-115912966D01*
X84890163Y-115912972D01*
X85188683Y-116075055D01*
X85188690Y-116075058D01*
X85191872Y-116076786D01*
X85513785Y-116206194D01*
X85517282Y-116207151D01*
X85517289Y-116207153D01*
X85729881Y-116265311D01*
X85848438Y-116297745D01*
X85852032Y-116298295D01*
X85852037Y-116298296D01*
X86114434Y-116338448D01*
X86191395Y-116350225D01*
X86194688Y-116350380D01*
X86194695Y-116350381D01*
X86365383Y-116358430D01*
X86365392Y-116358430D01*
X86366872Y-116358500D01*
X91583128Y-116358500D01*
X91584608Y-116358430D01*
X91584617Y-116358430D01*
X91755305Y-116350381D01*
X91755312Y-116350380D01*
X91758605Y-116350225D01*
X91835566Y-116338448D01*
X92097963Y-116298296D01*
X92097968Y-116298295D01*
X92101562Y-116297745D01*
X92220119Y-116265311D01*
X92432711Y-116207153D01*
X92432718Y-116207151D01*
X92436215Y-116206194D01*
X92758128Y-116076786D01*
X92761310Y-116075058D01*
X92761317Y-116075055D01*
X93059837Y-115912972D01*
X93059846Y-115912966D01*
X93063033Y-115911236D01*
X93346890Y-115711738D01*
X93421424Y-115645331D01*
X93603230Y-115483347D01*
X93605936Y-115480936D01*
X93759099Y-115309030D01*
X93834321Y-115224603D01*
X93834323Y-115224601D01*
X93836738Y-115221890D01*
X93838824Y-115218922D01*
X94034146Y-114941007D01*
X94034147Y-114941005D01*
X94036236Y-114938033D01*
X94037966Y-114934846D01*
X94037972Y-114934837D01*
X94200055Y-114636317D01*
X94200058Y-114636310D01*
X94201786Y-114633128D01*
X94331194Y-114311215D01*
X94338930Y-114282939D01*
X94398116Y-114066590D01*
X94422745Y-113976562D01*
X94425041Y-113961562D01*
X94474725Y-113636872D01*
X94475225Y-113633605D01*
X94478427Y-113565720D01*
X94483430Y-113459617D01*
X94483430Y-113459608D01*
X94483500Y-113458128D01*
X94483500Y-108241872D01*
X94483282Y-108237251D01*
X94475381Y-108069695D01*
X94475380Y-108069688D01*
X94475225Y-108066395D01*
X94422745Y-107723438D01*
X94340875Y-107424171D01*
X94332153Y-107392289D01*
X94332151Y-107392282D01*
X94331194Y-107388785D01*
X94201786Y-107066872D01*
X94200050Y-107063674D01*
X94037972Y-106765163D01*
X94037966Y-106765154D01*
X94036236Y-106761967D01*
X93990019Y-106696206D01*
X93838824Y-106481078D01*
X93838824Y-106481077D01*
X93836738Y-106478110D01*
X93605936Y-106219064D01*
X93504227Y-106128444D01*
X93349603Y-105990679D01*
X93349601Y-105990677D01*
X93346890Y-105988262D01*
X93319161Y-105968774D01*
X93066007Y-105790854D01*
X93066005Y-105790853D01*
X93063033Y-105788764D01*
X93059846Y-105787034D01*
X93059837Y-105787028D01*
X92761317Y-105624945D01*
X92761310Y-105624942D01*
X92758128Y-105623214D01*
X92436215Y-105493806D01*
X92432718Y-105492849D01*
X92432711Y-105492847D01*
X92220119Y-105434689D01*
X92101562Y-105402255D01*
X92097968Y-105401705D01*
X92097963Y-105401704D01*
X91809284Y-105357530D01*
X91758605Y-105349775D01*
X91755312Y-105349620D01*
X91755305Y-105349619D01*
X91584617Y-105341570D01*
X91584608Y-105341570D01*
X91583128Y-105341500D01*
X86366872Y-105341500D01*
X86365392Y-105341570D01*
X86365383Y-105341570D01*
X86194695Y-105349619D01*
X86194688Y-105349620D01*
X86191395Y-105349775D01*
X86140716Y-105357530D01*
X85852037Y-105401704D01*
X85852032Y-105401705D01*
X85848438Y-105402255D01*
X85729881Y-105434689D01*
X85517289Y-105492847D01*
X85517282Y-105492849D01*
X85513785Y-105493806D01*
X85191872Y-105623214D01*
X85188690Y-105624942D01*
X85188683Y-105624945D01*
X84890163Y-105787028D01*
X84890154Y-105787034D01*
X84886967Y-105788764D01*
X84883995Y-105790853D01*
X84883993Y-105790854D01*
X84630839Y-105968774D01*
X84603110Y-105988262D01*
X84600399Y-105990677D01*
X84600397Y-105990679D01*
X84445773Y-106128444D01*
X84344064Y-106219064D01*
X84113262Y-106478110D01*
X84111176Y-106481077D01*
X84111176Y-106481078D01*
X83959982Y-106696206D01*
X83913764Y-106761967D01*
X83912034Y-106765154D01*
X83912028Y-106765163D01*
X83749950Y-107063674D01*
X83748214Y-107066872D01*
X83618806Y-107388785D01*
X83617849Y-107392282D01*
X83617847Y-107392289D01*
X83609125Y-107424171D01*
X83527255Y-107723438D01*
X83474775Y-108066395D01*
X83474620Y-108069688D01*
X83474619Y-108069695D01*
X83466718Y-108237251D01*
X83466500Y-108241872D01*
X83466500Y-113458128D01*
X73816832Y-113458128D01*
X73816832Y-108241872D01*
X73816614Y-108237251D01*
X73808713Y-108069695D01*
X73808712Y-108069688D01*
X73808557Y-108066395D01*
X73756077Y-107723438D01*
X73674207Y-107424171D01*
X73665485Y-107392289D01*
X73665483Y-107392282D01*
X73664526Y-107388785D01*
X73535118Y-107066872D01*
X73533382Y-107063674D01*
X73371304Y-106765163D01*
X73371298Y-106765154D01*
X73369568Y-106761967D01*
X73323351Y-106696206D01*
X73172156Y-106481078D01*
X73172156Y-106481077D01*
X73170070Y-106478110D01*
X72939268Y-106219064D01*
X72837559Y-106128444D01*
X72682935Y-105990679D01*
X72682933Y-105990677D01*
X72680222Y-105988262D01*
X72652493Y-105968774D01*
X72399339Y-105790854D01*
X72399337Y-105790853D01*
X72396365Y-105788764D01*
X72393178Y-105787034D01*
X72393169Y-105787028D01*
X72094649Y-105624945D01*
X72094642Y-105624942D01*
X72091460Y-105623214D01*
X71769547Y-105493806D01*
X71766050Y-105492849D01*
X71766043Y-105492847D01*
X71553451Y-105434689D01*
X71434894Y-105402255D01*
X71431300Y-105401705D01*
X71431295Y-105401704D01*
X71142616Y-105357530D01*
X71091937Y-105349775D01*
X71088644Y-105349620D01*
X71088637Y-105349619D01*
X70917949Y-105341570D01*
X70917940Y-105341570D01*
X70916460Y-105341500D01*
X65700204Y-105341500D01*
X65698724Y-105341570D01*
X65698715Y-105341570D01*
X65528027Y-105349619D01*
X65528020Y-105349620D01*
X65524727Y-105349775D01*
X65474048Y-105357530D01*
X65185369Y-105401704D01*
X65185364Y-105401705D01*
X65181770Y-105402255D01*
X65063213Y-105434689D01*
X64850621Y-105492847D01*
X64850614Y-105492849D01*
X64847117Y-105493806D01*
X64525204Y-105623214D01*
X64522022Y-105624942D01*
X64522015Y-105624945D01*
X64223495Y-105787028D01*
X64223486Y-105787034D01*
X64220299Y-105788764D01*
X64217327Y-105790853D01*
X64217325Y-105790854D01*
X63964171Y-105968774D01*
X63936442Y-105988262D01*
X63933731Y-105990677D01*
X63933729Y-105990679D01*
X63779105Y-106128444D01*
X63677396Y-106219064D01*
X63446594Y-106478110D01*
X63444508Y-106481077D01*
X63444508Y-106481078D01*
X63293314Y-106696206D01*
X63247096Y-106761967D01*
X63245366Y-106765154D01*
X63245360Y-106765163D01*
X63083282Y-107063674D01*
X63081546Y-107066872D01*
X62952138Y-107388785D01*
X62951181Y-107392282D01*
X62951179Y-107392289D01*
X62942457Y-107424171D01*
X62860587Y-107723438D01*
X62808107Y-108066395D01*
X62807952Y-108069688D01*
X62807951Y-108069695D01*
X62800050Y-108237251D01*
X62799832Y-108241872D01*
X62799832Y-113458128D01*
X53150166Y-113458128D01*
X53150166Y-108241872D01*
X53149948Y-108237251D01*
X53142047Y-108069695D01*
X53142046Y-108069688D01*
X53141891Y-108066395D01*
X53089411Y-107723438D01*
X53007541Y-107424171D01*
X52998819Y-107392289D01*
X52998817Y-107392282D01*
X52997860Y-107388785D01*
X52868452Y-107066872D01*
X52866716Y-107063674D01*
X52704638Y-106765163D01*
X52704632Y-106765154D01*
X52702902Y-106761967D01*
X52656685Y-106696206D01*
X52505490Y-106481078D01*
X52505490Y-106481077D01*
X52503404Y-106478110D01*
X52272602Y-106219064D01*
X52170893Y-106128444D01*
X52016269Y-105990679D01*
X52016267Y-105990677D01*
X52013556Y-105988262D01*
X51985827Y-105968774D01*
X51732673Y-105790854D01*
X51732671Y-105790853D01*
X51729699Y-105788764D01*
X51726512Y-105787034D01*
X51726503Y-105787028D01*
X51427983Y-105624945D01*
X51427976Y-105624942D01*
X51424794Y-105623214D01*
X51102881Y-105493806D01*
X51099384Y-105492849D01*
X51099377Y-105492847D01*
X50886785Y-105434689D01*
X50768228Y-105402255D01*
X50764634Y-105401705D01*
X50764629Y-105401704D01*
X50475950Y-105357530D01*
X50425271Y-105349775D01*
X50421978Y-105349620D01*
X50421971Y-105349619D01*
X50251283Y-105341570D01*
X50251274Y-105341570D01*
X50249794Y-105341500D01*
X45033538Y-105341500D01*
X45032058Y-105341570D01*
X45032049Y-105341570D01*
X44861361Y-105349619D01*
X44861354Y-105349620D01*
X44858061Y-105349775D01*
X44807382Y-105357530D01*
X44518703Y-105401704D01*
X44518698Y-105401705D01*
X44515104Y-105402255D01*
X44396547Y-105434689D01*
X44183955Y-105492847D01*
X44183948Y-105492849D01*
X44180451Y-105493806D01*
X43858538Y-105623214D01*
X43855356Y-105624942D01*
X43855349Y-105624945D01*
X43556829Y-105787028D01*
X43556820Y-105787034D01*
X43553633Y-105788764D01*
X43550661Y-105790853D01*
X43550659Y-105790854D01*
X43297505Y-105968774D01*
X43269776Y-105988262D01*
X43267065Y-105990677D01*
X43267063Y-105990679D01*
X43112439Y-106128444D01*
X43010730Y-106219064D01*
X42779928Y-106478110D01*
X42777842Y-106481077D01*
X42777842Y-106481078D01*
X42626648Y-106696206D01*
X42580430Y-106761967D01*
X42578700Y-106765154D01*
X42578694Y-106765163D01*
X42416616Y-107063674D01*
X42414880Y-107066872D01*
X42285472Y-107388785D01*
X42284515Y-107392282D01*
X42284513Y-107392289D01*
X42275791Y-107424171D01*
X42193921Y-107723438D01*
X42141441Y-108066395D01*
X42141286Y-108069688D01*
X42141285Y-108069695D01*
X42133384Y-108237251D01*
X42133166Y-108241872D01*
X42133166Y-113458128D01*
X32483500Y-113458128D01*
X32483500Y-108241872D01*
X32483282Y-108237251D01*
X32475381Y-108069695D01*
X32475380Y-108069688D01*
X32475225Y-108066395D01*
X32422745Y-107723438D01*
X32340875Y-107424171D01*
X32332153Y-107392289D01*
X32332151Y-107392282D01*
X32331194Y-107388785D01*
X32201786Y-107066872D01*
X32200050Y-107063674D01*
X32037972Y-106765163D01*
X32037966Y-106765154D01*
X32036236Y-106761967D01*
X31990019Y-106696206D01*
X31838824Y-106481078D01*
X31838824Y-106481077D01*
X31836738Y-106478110D01*
X31605936Y-106219064D01*
X31504227Y-106128444D01*
X31349603Y-105990679D01*
X31349601Y-105990677D01*
X31346890Y-105988262D01*
X31319161Y-105968774D01*
X31066007Y-105790854D01*
X31066005Y-105790853D01*
X31063033Y-105788764D01*
X31059846Y-105787034D01*
X31059837Y-105787028D01*
X30761317Y-105624945D01*
X30761310Y-105624942D01*
X30758128Y-105623214D01*
X30436215Y-105493806D01*
X30432718Y-105492849D01*
X30432711Y-105492847D01*
X30220119Y-105434689D01*
X30101562Y-105402255D01*
X30097968Y-105401705D01*
X30097963Y-105401704D01*
X29809284Y-105357530D01*
X29758605Y-105349775D01*
X29755312Y-105349620D01*
X29755305Y-105349619D01*
X29584617Y-105341570D01*
X29584608Y-105341570D01*
X29583128Y-105341500D01*
X24366872Y-105341500D01*
X24365392Y-105341570D01*
X24365383Y-105341570D01*
X24194695Y-105349619D01*
X24194688Y-105349620D01*
X24191395Y-105349775D01*
X24140716Y-105357530D01*
X23852037Y-105401704D01*
X23852032Y-105401705D01*
X23848438Y-105402255D01*
X23729881Y-105434689D01*
X23517289Y-105492847D01*
X23517282Y-105492849D01*
X23513785Y-105493806D01*
X23191872Y-105623214D01*
X23188690Y-105624942D01*
X23188683Y-105624945D01*
X22890163Y-105787028D01*
X22890154Y-105787034D01*
X22886967Y-105788764D01*
X22883995Y-105790853D01*
X22883993Y-105790854D01*
X22630839Y-105968774D01*
X22603110Y-105988262D01*
X22600399Y-105990677D01*
X22600397Y-105990679D01*
X22445773Y-106128444D01*
X22344064Y-106219064D01*
X22113262Y-106478110D01*
X22111176Y-106481077D01*
X22111176Y-106481078D01*
X21959982Y-106696206D01*
X21913764Y-106761967D01*
X21912034Y-106765154D01*
X21912028Y-106765163D01*
X21825791Y-106923993D01*
X21748214Y-107066872D01*
X21747703Y-107068142D01*
X21700912Y-107120918D01*
X21632569Y-107140145D01*
X21564680Y-107119370D01*
X21518799Y-107065190D01*
X21508000Y-107014153D01*
X21508000Y-92250000D01*
X129637274Y-92250000D01*
X129656127Y-92429371D01*
X129711861Y-92600902D01*
X129715165Y-92606624D01*
X129715165Y-92606625D01*
X129798737Y-92751378D01*
X129798740Y-92751382D01*
X129802040Y-92757098D01*
X129922724Y-92891130D01*
X130068637Y-92997143D01*
X130074666Y-92999827D01*
X130074669Y-92999829D01*
X130227367Y-93067814D01*
X130227370Y-93067815D01*
X130233403Y-93070501D01*
X130272855Y-93078887D01*
X130403364Y-93106628D01*
X130403369Y-93106628D01*
X130409821Y-93108000D01*
X130590179Y-93108000D01*
X130596631Y-93106628D01*
X130596636Y-93106628D01*
X130727145Y-93078887D01*
X130766597Y-93070501D01*
X130772630Y-93067815D01*
X130772633Y-93067814D01*
X130925331Y-92999829D01*
X130925334Y-92999827D01*
X130931363Y-92997143D01*
X131077276Y-92891130D01*
X131197960Y-92757098D01*
X131201260Y-92751382D01*
X131201263Y-92751378D01*
X131284835Y-92606625D01*
X131284835Y-92606624D01*
X131288139Y-92600902D01*
X131343873Y-92429371D01*
X131362726Y-92250000D01*
X151637274Y-92250000D01*
X151656127Y-92429371D01*
X151711861Y-92600902D01*
X151715165Y-92606624D01*
X151715165Y-92606625D01*
X151798737Y-92751378D01*
X151798740Y-92751382D01*
X151802040Y-92757098D01*
X151922724Y-92891130D01*
X152068637Y-92997143D01*
X152074666Y-92999827D01*
X152074669Y-92999829D01*
X152227367Y-93067814D01*
X152227370Y-93067815D01*
X152233403Y-93070501D01*
X152272855Y-93078887D01*
X152403364Y-93106628D01*
X152403369Y-93106628D01*
X152409821Y-93108000D01*
X152590179Y-93108000D01*
X152596631Y-93106628D01*
X152596636Y-93106628D01*
X152727145Y-93078887D01*
X152766597Y-93070501D01*
X152772630Y-93067815D01*
X152772633Y-93067814D01*
X152925331Y-92999829D01*
X152925334Y-92999827D01*
X152931363Y-92997143D01*
X153077276Y-92891130D01*
X153197960Y-92757098D01*
X153201260Y-92751382D01*
X153201263Y-92751378D01*
X153284835Y-92606625D01*
X153284835Y-92606624D01*
X153288139Y-92600902D01*
X153343873Y-92429371D01*
X153362726Y-92250000D01*
X173637274Y-92250000D01*
X173656127Y-92429371D01*
X173711861Y-92600902D01*
X173715165Y-92606624D01*
X173715165Y-92606625D01*
X173798737Y-92751378D01*
X173798740Y-92751382D01*
X173802040Y-92757098D01*
X173922724Y-92891130D01*
X174068637Y-92997143D01*
X174074666Y-92999827D01*
X174074669Y-92999829D01*
X174227367Y-93067814D01*
X174227370Y-93067815D01*
X174233403Y-93070501D01*
X174272855Y-93078887D01*
X174403364Y-93106628D01*
X174403369Y-93106628D01*
X174409821Y-93108000D01*
X174590179Y-93108000D01*
X174596631Y-93106628D01*
X174596636Y-93106628D01*
X174727145Y-93078887D01*
X174766597Y-93070501D01*
X174772630Y-93067815D01*
X174772633Y-93067814D01*
X174925331Y-92999829D01*
X174925334Y-92999827D01*
X174931363Y-92997143D01*
X175077276Y-92891130D01*
X175197960Y-92757098D01*
X175201260Y-92751382D01*
X175201263Y-92751378D01*
X175284835Y-92606625D01*
X175284835Y-92606624D01*
X175288139Y-92600902D01*
X175343873Y-92429371D01*
X175362726Y-92250000D01*
X195637274Y-92250000D01*
X195656127Y-92429371D01*
X195711861Y-92600902D01*
X195715165Y-92606624D01*
X195715165Y-92606625D01*
X195798737Y-92751378D01*
X195798740Y-92751382D01*
X195802040Y-92757098D01*
X195922724Y-92891130D01*
X196068637Y-92997143D01*
X196074666Y-92999827D01*
X196074669Y-92999829D01*
X196227367Y-93067814D01*
X196227370Y-93067815D01*
X196233403Y-93070501D01*
X196272855Y-93078887D01*
X196403364Y-93106628D01*
X196403369Y-93106628D01*
X196409821Y-93108000D01*
X196590179Y-93108000D01*
X196596631Y-93106628D01*
X196596636Y-93106628D01*
X196727145Y-93078887D01*
X196766597Y-93070501D01*
X196772630Y-93067815D01*
X196772633Y-93067814D01*
X196925331Y-92999829D01*
X196925334Y-92999827D01*
X196931363Y-92997143D01*
X197077276Y-92891130D01*
X197197960Y-92757098D01*
X197201260Y-92751382D01*
X197201263Y-92751378D01*
X197284835Y-92606625D01*
X197284835Y-92606624D01*
X197288139Y-92600902D01*
X197343873Y-92429371D01*
X197362726Y-92250000D01*
X197343873Y-92070629D01*
X197288139Y-91899098D01*
X197284835Y-91893375D01*
X197201263Y-91748622D01*
X197201260Y-91748618D01*
X197197960Y-91742902D01*
X197077276Y-91608870D01*
X196931363Y-91502857D01*
X196925334Y-91500173D01*
X196925331Y-91500171D01*
X196772633Y-91432186D01*
X196772630Y-91432185D01*
X196766597Y-91429499D01*
X196727145Y-91421113D01*
X196596636Y-91393372D01*
X196596631Y-91393372D01*
X196590179Y-91392000D01*
X196409821Y-91392000D01*
X196403369Y-91393372D01*
X196403364Y-91393372D01*
X196272855Y-91421113D01*
X196233403Y-91429499D01*
X196227370Y-91432185D01*
X196227367Y-91432186D01*
X196074669Y-91500171D01*
X196074666Y-91500173D01*
X196068637Y-91502857D01*
X195922724Y-91608870D01*
X195802040Y-91742902D01*
X195798740Y-91748618D01*
X195798737Y-91748622D01*
X195715165Y-91893375D01*
X195711861Y-91899098D01*
X195656127Y-92070629D01*
X195637274Y-92250000D01*
X175362726Y-92250000D01*
X175343873Y-92070629D01*
X175288139Y-91899098D01*
X175284835Y-91893375D01*
X175201263Y-91748622D01*
X175201260Y-91748618D01*
X175197960Y-91742902D01*
X175077276Y-91608870D01*
X174931363Y-91502857D01*
X174925334Y-91500173D01*
X174925331Y-91500171D01*
X174772633Y-91432186D01*
X174772630Y-91432185D01*
X174766597Y-91429499D01*
X174727145Y-91421113D01*
X174596636Y-91393372D01*
X174596631Y-91393372D01*
X174590179Y-91392000D01*
X174409821Y-91392000D01*
X174403369Y-91393372D01*
X174403364Y-91393372D01*
X174272855Y-91421113D01*
X174233403Y-91429499D01*
X174227370Y-91432185D01*
X174227367Y-91432186D01*
X174074669Y-91500171D01*
X174074666Y-91500173D01*
X174068637Y-91502857D01*
X173922724Y-91608870D01*
X173802040Y-91742902D01*
X173798740Y-91748618D01*
X173798737Y-91748622D01*
X173715165Y-91893375D01*
X173711861Y-91899098D01*
X173656127Y-92070629D01*
X173637274Y-92250000D01*
X153362726Y-92250000D01*
X153343873Y-92070629D01*
X153288139Y-91899098D01*
X153284835Y-91893375D01*
X153201263Y-91748622D01*
X153201260Y-91748618D01*
X153197960Y-91742902D01*
X153077276Y-91608870D01*
X152931363Y-91502857D01*
X152925334Y-91500173D01*
X152925331Y-91500171D01*
X152772633Y-91432186D01*
X152772630Y-91432185D01*
X152766597Y-91429499D01*
X152727145Y-91421113D01*
X152596636Y-91393372D01*
X152596631Y-91393372D01*
X152590179Y-91392000D01*
X152409821Y-91392000D01*
X152403369Y-91393372D01*
X152403364Y-91393372D01*
X152272855Y-91421113D01*
X152233403Y-91429499D01*
X152227370Y-91432185D01*
X152227367Y-91432186D01*
X152074669Y-91500171D01*
X152074666Y-91500173D01*
X152068637Y-91502857D01*
X151922724Y-91608870D01*
X151802040Y-91742902D01*
X151798740Y-91748618D01*
X151798737Y-91748622D01*
X151715165Y-91893375D01*
X151711861Y-91899098D01*
X151656127Y-92070629D01*
X151637274Y-92250000D01*
X131362726Y-92250000D01*
X131343873Y-92070629D01*
X131288139Y-91899098D01*
X131284835Y-91893375D01*
X131201263Y-91748622D01*
X131201260Y-91748618D01*
X131197960Y-91742902D01*
X131077276Y-91608870D01*
X130931363Y-91502857D01*
X130925334Y-91500173D01*
X130925331Y-91500171D01*
X130772633Y-91432186D01*
X130772630Y-91432185D01*
X130766597Y-91429499D01*
X130727145Y-91421113D01*
X130596636Y-91393372D01*
X130596631Y-91393372D01*
X130590179Y-91392000D01*
X130409821Y-91392000D01*
X130403369Y-91393372D01*
X130403364Y-91393372D01*
X130272855Y-91421113D01*
X130233403Y-91429499D01*
X130227370Y-91432185D01*
X130227367Y-91432186D01*
X130074669Y-91500171D01*
X130074666Y-91500173D01*
X130068637Y-91502857D01*
X129922724Y-91608870D01*
X129802040Y-91742902D01*
X129798740Y-91748618D01*
X129798737Y-91748622D01*
X129715165Y-91893375D01*
X129711861Y-91899098D01*
X129656127Y-92070629D01*
X129637274Y-92250000D01*
X21508000Y-92250000D01*
X21508000Y-89384000D01*
X21528002Y-89315879D01*
X21581658Y-89269386D01*
X21634000Y-89258000D01*
X201866000Y-89258000D01*
X201934121Y-89278002D01*
G37*
%TD.AperFunction*%
%TD*%
M02*
