%TF.GenerationSoftware,KiCad,Pcbnew,(6.0.2)*%
%TF.CreationDate,2023-03-26T00:57:02-07:00*%
%TF.ProjectId,cap-sensors-1-ch-dome-switches,6361702d-7365-46e7-936f-72732d312d63,rev?*%
%TF.SameCoordinates,Original*%
%TF.FileFunction,Paste,Top*%
%TF.FilePolarity,Positive*%
%FSLAX46Y46*%
G04 Gerber Fmt 4.6, Leading zero omitted, Abs format (unit mm)*
G04 Created by KiCad (PCBNEW (6.0.2)) date 2023-03-26 00:57:02*
%MOMM*%
%LPD*%
G01*
G04 APERTURE LIST*
G04 Aperture macros list*
%AMRoundRect*
0 Rectangle with rounded corners*
0 $1 Rounding radius*
0 $2 $3 $4 $5 $6 $7 $8 $9 X,Y pos of 4 corners*
0 Add a 4 corners polygon primitive as box body*
4,1,4,$2,$3,$4,$5,$6,$7,$8,$9,$2,$3,0*
0 Add four circle primitives for the rounded corners*
1,1,$1+$1,$2,$3*
1,1,$1+$1,$4,$5*
1,1,$1+$1,$6,$7*
1,1,$1+$1,$8,$9*
0 Add four rect primitives between the rounded corners*
20,1,$1+$1,$2,$3,$4,$5,0*
20,1,$1+$1,$4,$5,$6,$7,0*
20,1,$1+$1,$6,$7,$8,$9,0*
20,1,$1+$1,$8,$9,$2,$3,0*%
G04 Aperture macros list end*
%ADD10R,0.800000X0.600000*%
%ADD11R,1.000000X0.500000*%
%ADD12RoundRect,0.225000X0.225000X0.250000X-0.225000X0.250000X-0.225000X-0.250000X0.225000X-0.250000X0*%
%ADD13RoundRect,0.150000X-0.512500X-0.150000X0.512500X-0.150000X0.512500X0.150000X-0.512500X0.150000X0*%
%ADD14R,0.450000X1.000000*%
%ADD15R,0.600000X1.000000*%
%ADD16RoundRect,0.200000X-0.275000X0.200000X-0.275000X-0.200000X0.275000X-0.200000X0.275000X0.200000X0*%
%ADD17RoundRect,0.200000X0.200000X0.275000X-0.200000X0.275000X-0.200000X-0.275000X0.200000X-0.275000X0*%
%ADD18RoundRect,0.218750X-0.256250X0.218750X-0.256250X-0.218750X0.256250X-0.218750X0.256250X0.218750X0*%
%ADD19RoundRect,0.225000X0.250000X-0.225000X0.250000X0.225000X-0.250000X0.225000X-0.250000X-0.225000X0*%
G04 APERTURE END LIST*
D10*
%TO.C,SW8*%
X132900000Y-109000000D03*
X127100000Y-109000000D03*
X132900000Y-111000000D03*
X127100000Y-111000000D03*
%TD*%
%TO.C,SW7*%
X177400000Y-109000000D03*
X171600000Y-109000000D03*
X177400000Y-111000000D03*
X171600000Y-111000000D03*
%TD*%
%TO.C,SW6*%
X199650000Y-109000000D03*
X193850000Y-109000000D03*
X199650000Y-111000000D03*
X193850000Y-111000000D03*
%TD*%
%TO.C,SW5*%
X155150000Y-109000000D03*
X149350000Y-109000000D03*
X155150000Y-111000000D03*
X149350000Y-111000000D03*
%TD*%
D11*
%TO.C,SW12*%
X133200000Y-125700000D03*
X126800000Y-125700000D03*
X133200000Y-129400000D03*
X126800000Y-129400000D03*
%TD*%
%TO.C,SW11*%
X177533333Y-125700000D03*
X171133333Y-125700000D03*
X177533333Y-129400000D03*
X171133333Y-129400000D03*
%TD*%
%TO.C,SW10*%
X199700000Y-125700000D03*
X193300000Y-125700000D03*
X199700000Y-129400000D03*
X193300000Y-129400000D03*
%TD*%
%TO.C,SW9*%
X155366666Y-125700000D03*
X148966666Y-125700000D03*
X155366666Y-129400000D03*
X148966666Y-129400000D03*
%TD*%
D12*
%TO.C,C1*%
X28100000Y-110375480D03*
X29650000Y-110375480D03*
%TD*%
D13*
%TO.C,U4*%
X91350000Y-112000000D03*
X91350000Y-112950000D03*
X91350000Y-113900000D03*
X89075000Y-113900000D03*
X89075000Y-112950000D03*
X89075000Y-112000000D03*
%TD*%
%TO.C,U3*%
X68325000Y-112025000D03*
X68325000Y-112975000D03*
X68325000Y-113925000D03*
X70600000Y-113925000D03*
X70600000Y-112975000D03*
X70600000Y-112025000D03*
%TD*%
%TO.C,U2*%
X47550000Y-112000000D03*
X47550000Y-112950000D03*
X47550000Y-113900000D03*
X49825000Y-113900000D03*
X49825000Y-112950000D03*
X49825000Y-112000000D03*
%TD*%
%TO.C,U1*%
X28975000Y-112125480D03*
X28975000Y-113075480D03*
X28975000Y-114025480D03*
X26700000Y-114025480D03*
X26700000Y-113075480D03*
X26700000Y-112125480D03*
%TD*%
D14*
%TO.C,SW4*%
X133100000Y-92250000D03*
X127900000Y-92250000D03*
D15*
X132450000Y-89950000D03*
X132450000Y-94550000D03*
X128550000Y-94550000D03*
X128550000Y-89950000D03*
%TD*%
%TO.C,SW3*%
X150550000Y-89950000D03*
X150550000Y-94550000D03*
X154450000Y-94550000D03*
X154450000Y-89950000D03*
D14*
X149900000Y-92250000D03*
X155100000Y-92250000D03*
%TD*%
%TO.C,SW2*%
X199100000Y-92250000D03*
X193900000Y-92250000D03*
D15*
X198450000Y-89950000D03*
X198450000Y-94550000D03*
X194550000Y-94550000D03*
X194550000Y-89950000D03*
%TD*%
%TO.C,SW1*%
X172550000Y-89950000D03*
X172550000Y-94550000D03*
X176450000Y-94550000D03*
X176450000Y-89950000D03*
D14*
X171900000Y-92250000D03*
X177100000Y-92250000D03*
%TD*%
D16*
%TO.C,R8*%
X109000000Y-114600000D03*
X109000000Y-116250000D03*
%TD*%
%TO.C,R7*%
X109000000Y-111600000D03*
X109000000Y-113250000D03*
%TD*%
%TO.C,R6*%
X109000000Y-108600000D03*
X109000000Y-110250000D03*
%TD*%
%TO.C,R5*%
X109000000Y-105600000D03*
X109000000Y-107250000D03*
%TD*%
D17*
%TO.C,R4*%
X86925000Y-110250000D03*
X88575000Y-110250000D03*
%TD*%
%TO.C,R3*%
X67825000Y-110375000D03*
X66175000Y-110375000D03*
%TD*%
%TO.C,R2*%
X47050000Y-110250000D03*
X45400000Y-110250000D03*
%TD*%
%TO.C,R1*%
X24800000Y-110375480D03*
X26450000Y-110375480D03*
%TD*%
D18*
%TO.C,D4*%
X107500000Y-114637500D03*
X107500000Y-116212500D03*
%TD*%
%TO.C,D3*%
X107500000Y-111637500D03*
X107500000Y-113212500D03*
%TD*%
%TO.C,D2*%
X107500000Y-108637500D03*
X107500000Y-110212500D03*
%TD*%
%TO.C,D1*%
X107500000Y-105637500D03*
X107500000Y-107212500D03*
%TD*%
D19*
%TO.C,C8*%
X87250000Y-112225000D03*
X87250000Y-113775000D03*
%TD*%
%TO.C,C7*%
X66500000Y-113900000D03*
X66500000Y-112350000D03*
%TD*%
%TO.C,C6*%
X45725000Y-113775000D03*
X45725000Y-112225000D03*
%TD*%
%TO.C,C5*%
X24875000Y-112350480D03*
X24875000Y-113900480D03*
%TD*%
D12*
%TO.C,C4*%
X90200000Y-110250000D03*
X91750000Y-110250000D03*
%TD*%
%TO.C,C3*%
X71025000Y-110375000D03*
X69475000Y-110375000D03*
%TD*%
%TO.C,C2*%
X50250000Y-110250000D03*
X48700000Y-110250000D03*
%TD*%
M02*
