M48
; DRILL file {KiCad (6.0.2)} date Sun Mar 26 00:57:04 2023
; FORMAT={-:-/ absolute / metric / decimal}
; #@! TF.CreationDate,2023-03-26T00:57:04-07:00
; #@! TF.GenerationSoftware,Kicad,Pcbnew,(6.0.2)
; #@! TF.FileFunction,Plated,1,2,PTH
FMAT,2
METRIC
; #@! TA.AperFunction,Plated,PTH,ViaDrill
T1C0.400
; #@! TA.AperFunction,Plated,PTH,ComponentDrill
T2C1.000
%
G90
G05
T1
X26.375Y-109.375
X27.975Y-116.75
X28.225Y-105.0
X30.25Y-118.0
X46.975Y-109.0
X48.725Y-105.0
X48.725Y-116.75
X50.975Y-118.0
X67.75Y-109.125
X69.475Y-116.75
X69.5Y-105.0
X71.725Y-118.0
X88.5Y-109.0
X90.225Y-105.0
X90.225Y-116.75
X92.475Y-118.0
X106.25Y-105.75
X106.25Y-108.5
X106.25Y-111.5
X106.25Y-114.5
X124.25Y-106.5
X124.29Y-111.46
X124.33Y-108.92
X132.5Y-103.84
X148.0Y-111.5
X154.45Y-103.8
X170.25Y-109.0
X176.45Y-103.8
X194.55Y-106.45
X198.5Y-103.8
T2
X113.0Y-103.84
X113.0Y-106.38
X113.0Y-108.92
X113.0Y-111.46
X113.0Y-114.0
X113.0Y-116.54
T0
M30
