%TF.GenerationSoftware,KiCad,Pcbnew,(6.0.2)*%
%TF.CreationDate,2023-03-26T00:57:02-07:00*%
%TF.ProjectId,cap-sensors-1-ch-dome-switches,6361702d-7365-46e7-936f-72732d312d63,rev?*%
%TF.SameCoordinates,Original*%
%TF.FileFunction,Legend,Top*%
%TF.FilePolarity,Positive*%
%FSLAX46Y46*%
G04 Gerber Fmt 4.6, Leading zero omitted, Abs format (unit mm)*
G04 Created by KiCad (PCBNEW (6.0.2)) date 2023-03-26 00:57:02*
%MOMM*%
%LPD*%
G01*
G04 APERTURE LIST*
G04 Aperture macros list*
%AMRoundRect*
0 Rectangle with rounded corners*
0 $1 Rounding radius*
0 $2 $3 $4 $5 $6 $7 $8 $9 X,Y pos of 4 corners*
0 Add a 4 corners polygon primitive as box body*
4,1,4,$2,$3,$4,$5,$6,$7,$8,$9,$2,$3,0*
0 Add four circle primitives for the rounded corners*
1,1,$1+$1,$2,$3*
1,1,$1+$1,$4,$5*
1,1,$1+$1,$6,$7*
1,1,$1+$1,$8,$9*
0 Add four rect primitives between the rounded corners*
20,1,$1+$1,$2,$3,$4,$5,0*
20,1,$1+$1,$4,$5,$6,$7,0*
20,1,$1+$1,$6,$7,$8,$9,0*
20,1,$1+$1,$8,$9,$2,$3,0*%
G04 Aperture macros list end*
%ADD10C,0.150000*%
%ADD11C,0.120000*%
%ADD12R,0.800000X0.600000*%
%ADD13R,1.000000X0.500000*%
%ADD14RoundRect,0.225000X0.225000X0.250000X-0.225000X0.250000X-0.225000X-0.250000X0.225000X-0.250000X0*%
%ADD15RoundRect,0.150000X-0.512500X-0.150000X0.512500X-0.150000X0.512500X0.150000X-0.512500X0.150000X0*%
%ADD16R,0.450000X1.000000*%
%ADD17R,0.600000X1.000000*%
%ADD18RoundRect,0.200000X-0.275000X0.200000X-0.275000X-0.200000X0.275000X-0.200000X0.275000X0.200000X0*%
%ADD19RoundRect,0.200000X0.200000X0.275000X-0.200000X0.275000X-0.200000X-0.275000X0.200000X-0.275000X0*%
%ADD20R,1.700000X1.700000*%
%ADD21O,1.700000X1.700000*%
%ADD22RoundRect,0.218750X-0.256250X0.218750X-0.256250X-0.218750X0.256250X-0.218750X0.256250X0.218750X0*%
%ADD23RoundRect,0.225000X0.250000X-0.225000X0.250000X0.225000X-0.250000X0.225000X-0.250000X-0.225000X0*%
G04 APERTURE END LIST*
D10*
X126178571Y-101642857D02*
X126392857Y-101714285D01*
X126464285Y-101785714D01*
X126535714Y-101928571D01*
X126535714Y-102142857D01*
X126464285Y-102285714D01*
X126392857Y-102357142D01*
X126250000Y-102428571D01*
X125678571Y-102428571D01*
X125678571Y-100928571D01*
X126178571Y-100928571D01*
X126321428Y-101000000D01*
X126392857Y-101071428D01*
X126464285Y-101214285D01*
X126464285Y-101357142D01*
X126392857Y-101500000D01*
X126321428Y-101571428D01*
X126178571Y-101642857D01*
X125678571Y-101642857D01*
X127821428Y-101428571D02*
X127821428Y-102428571D01*
X127178571Y-101428571D02*
X127178571Y-102214285D01*
X127250000Y-102357142D01*
X127392857Y-102428571D01*
X127607142Y-102428571D01*
X127750000Y-102357142D01*
X127821428Y-102285714D01*
X128321428Y-101428571D02*
X128892857Y-101428571D01*
X128535714Y-100928571D02*
X128535714Y-102214285D01*
X128607142Y-102357142D01*
X128750000Y-102428571D01*
X128892857Y-102428571D01*
X129178571Y-101428571D02*
X129750000Y-101428571D01*
X129392857Y-100928571D02*
X129392857Y-102214285D01*
X129464285Y-102357142D01*
X129607142Y-102428571D01*
X129750000Y-102428571D01*
X130464285Y-102428571D02*
X130321428Y-102357142D01*
X130250000Y-102285714D01*
X130178571Y-102142857D01*
X130178571Y-101714285D01*
X130250000Y-101571428D01*
X130321428Y-101500000D01*
X130464285Y-101428571D01*
X130678571Y-101428571D01*
X130821428Y-101500000D01*
X130892857Y-101571428D01*
X130964285Y-101714285D01*
X130964285Y-102142857D01*
X130892857Y-102285714D01*
X130821428Y-102357142D01*
X130678571Y-102428571D01*
X130464285Y-102428571D01*
X131607142Y-101428571D02*
X131607142Y-102428571D01*
X131607142Y-101571428D02*
X131678571Y-101500000D01*
X131821428Y-101428571D01*
X132035714Y-101428571D01*
X132178571Y-101500000D01*
X132250000Y-101642857D01*
X132250000Y-102428571D01*
X134750000Y-101428571D02*
X134750000Y-102428571D01*
X134392857Y-100857142D02*
X134035714Y-101928571D01*
X134964285Y-101928571D01*
X148428571Y-101392857D02*
X148642857Y-101464285D01*
X148714285Y-101535714D01*
X148785714Y-101678571D01*
X148785714Y-101892857D01*
X148714285Y-102035714D01*
X148642857Y-102107142D01*
X148500000Y-102178571D01*
X147928571Y-102178571D01*
X147928571Y-100678571D01*
X148428571Y-100678571D01*
X148571428Y-100750000D01*
X148642857Y-100821428D01*
X148714285Y-100964285D01*
X148714285Y-101107142D01*
X148642857Y-101250000D01*
X148571428Y-101321428D01*
X148428571Y-101392857D01*
X147928571Y-101392857D01*
X150071428Y-101178571D02*
X150071428Y-102178571D01*
X149428571Y-101178571D02*
X149428571Y-101964285D01*
X149500000Y-102107142D01*
X149642857Y-102178571D01*
X149857142Y-102178571D01*
X150000000Y-102107142D01*
X150071428Y-102035714D01*
X150571428Y-101178571D02*
X151142857Y-101178571D01*
X150785714Y-100678571D02*
X150785714Y-101964285D01*
X150857142Y-102107142D01*
X151000000Y-102178571D01*
X151142857Y-102178571D01*
X151428571Y-101178571D02*
X152000000Y-101178571D01*
X151642857Y-100678571D02*
X151642857Y-101964285D01*
X151714285Y-102107142D01*
X151857142Y-102178571D01*
X152000000Y-102178571D01*
X152714285Y-102178571D02*
X152571428Y-102107142D01*
X152500000Y-102035714D01*
X152428571Y-101892857D01*
X152428571Y-101464285D01*
X152500000Y-101321428D01*
X152571428Y-101250000D01*
X152714285Y-101178571D01*
X152928571Y-101178571D01*
X153071428Y-101250000D01*
X153142857Y-101321428D01*
X153214285Y-101464285D01*
X153214285Y-101892857D01*
X153142857Y-102035714D01*
X153071428Y-102107142D01*
X152928571Y-102178571D01*
X152714285Y-102178571D01*
X153857142Y-101178571D02*
X153857142Y-102178571D01*
X153857142Y-101321428D02*
X153928571Y-101250000D01*
X154071428Y-101178571D01*
X154285714Y-101178571D01*
X154428571Y-101250000D01*
X154500000Y-101392857D01*
X154500000Y-102178571D01*
X156214285Y-100678571D02*
X157142857Y-100678571D01*
X156642857Y-101250000D01*
X156857142Y-101250000D01*
X157000000Y-101321428D01*
X157071428Y-101392857D01*
X157142857Y-101535714D01*
X157142857Y-101892857D01*
X157071428Y-102035714D01*
X157000000Y-102107142D01*
X156857142Y-102178571D01*
X156428571Y-102178571D01*
X156285714Y-102107142D01*
X156214285Y-102035714D01*
X192678571Y-101392857D02*
X192892857Y-101464285D01*
X192964285Y-101535714D01*
X193035714Y-101678571D01*
X193035714Y-101892857D01*
X192964285Y-102035714D01*
X192892857Y-102107142D01*
X192750000Y-102178571D01*
X192178571Y-102178571D01*
X192178571Y-100678571D01*
X192678571Y-100678571D01*
X192821428Y-100750000D01*
X192892857Y-100821428D01*
X192964285Y-100964285D01*
X192964285Y-101107142D01*
X192892857Y-101250000D01*
X192821428Y-101321428D01*
X192678571Y-101392857D01*
X192178571Y-101392857D01*
X194321428Y-101178571D02*
X194321428Y-102178571D01*
X193678571Y-101178571D02*
X193678571Y-101964285D01*
X193750000Y-102107142D01*
X193892857Y-102178571D01*
X194107142Y-102178571D01*
X194250000Y-102107142D01*
X194321428Y-102035714D01*
X194821428Y-101178571D02*
X195392857Y-101178571D01*
X195035714Y-100678571D02*
X195035714Y-101964285D01*
X195107142Y-102107142D01*
X195250000Y-102178571D01*
X195392857Y-102178571D01*
X195678571Y-101178571D02*
X196250000Y-101178571D01*
X195892857Y-100678571D02*
X195892857Y-101964285D01*
X195964285Y-102107142D01*
X196107142Y-102178571D01*
X196250000Y-102178571D01*
X196964285Y-102178571D02*
X196821428Y-102107142D01*
X196750000Y-102035714D01*
X196678571Y-101892857D01*
X196678571Y-101464285D01*
X196750000Y-101321428D01*
X196821428Y-101250000D01*
X196964285Y-101178571D01*
X197178571Y-101178571D01*
X197321428Y-101250000D01*
X197392857Y-101321428D01*
X197464285Y-101464285D01*
X197464285Y-101892857D01*
X197392857Y-102035714D01*
X197321428Y-102107142D01*
X197178571Y-102178571D01*
X196964285Y-102178571D01*
X198107142Y-101178571D02*
X198107142Y-102178571D01*
X198107142Y-101321428D02*
X198178571Y-101250000D01*
X198321428Y-101178571D01*
X198535714Y-101178571D01*
X198678571Y-101250000D01*
X198750000Y-101392857D01*
X198750000Y-102178571D01*
X201392857Y-102178571D02*
X200535714Y-102178571D01*
X200964285Y-102178571D02*
X200964285Y-100678571D01*
X200821428Y-100892857D01*
X200678571Y-101035714D01*
X200535714Y-101107142D01*
X172428571Y-101142857D02*
X172642857Y-101214285D01*
X172714285Y-101285714D01*
X172785714Y-101428571D01*
X172785714Y-101642857D01*
X172714285Y-101785714D01*
X172642857Y-101857142D01*
X172500000Y-101928571D01*
X171928571Y-101928571D01*
X171928571Y-100428571D01*
X172428571Y-100428571D01*
X172571428Y-100500000D01*
X172642857Y-100571428D01*
X172714285Y-100714285D01*
X172714285Y-100857142D01*
X172642857Y-101000000D01*
X172571428Y-101071428D01*
X172428571Y-101142857D01*
X171928571Y-101142857D01*
X174071428Y-100928571D02*
X174071428Y-101928571D01*
X173428571Y-100928571D02*
X173428571Y-101714285D01*
X173500000Y-101857142D01*
X173642857Y-101928571D01*
X173857142Y-101928571D01*
X174000000Y-101857142D01*
X174071428Y-101785714D01*
X174571428Y-100928571D02*
X175142857Y-100928571D01*
X174785714Y-100428571D02*
X174785714Y-101714285D01*
X174857142Y-101857142D01*
X175000000Y-101928571D01*
X175142857Y-101928571D01*
X175428571Y-100928571D02*
X176000000Y-100928571D01*
X175642857Y-100428571D02*
X175642857Y-101714285D01*
X175714285Y-101857142D01*
X175857142Y-101928571D01*
X176000000Y-101928571D01*
X176714285Y-101928571D02*
X176571428Y-101857142D01*
X176500000Y-101785714D01*
X176428571Y-101642857D01*
X176428571Y-101214285D01*
X176500000Y-101071428D01*
X176571428Y-101000000D01*
X176714285Y-100928571D01*
X176928571Y-100928571D01*
X177071428Y-101000000D01*
X177142857Y-101071428D01*
X177214285Y-101214285D01*
X177214285Y-101642857D01*
X177142857Y-101785714D01*
X177071428Y-101857142D01*
X176928571Y-101928571D01*
X176714285Y-101928571D01*
X177857142Y-100928571D02*
X177857142Y-101928571D01*
X177857142Y-101071428D02*
X177928571Y-101000000D01*
X178071428Y-100928571D01*
X178285714Y-100928571D01*
X178428571Y-101000000D01*
X178500000Y-101142857D01*
X178500000Y-101928571D01*
X180285714Y-100571428D02*
X180357142Y-100500000D01*
X180500000Y-100428571D01*
X180857142Y-100428571D01*
X181000000Y-100500000D01*
X181071428Y-100571428D01*
X181142857Y-100714285D01*
X181142857Y-100857142D01*
X181071428Y-101071428D01*
X180214285Y-101928571D01*
X181142857Y-101928571D01*
X107285714Y-117750000D02*
X107142857Y-117678571D01*
X106928571Y-117678571D01*
X106714285Y-117750000D01*
X106571428Y-117892857D01*
X106500000Y-118035714D01*
X106428571Y-118321428D01*
X106428571Y-118535714D01*
X106500000Y-118821428D01*
X106571428Y-118964285D01*
X106714285Y-119107142D01*
X106928571Y-119178571D01*
X107071428Y-119178571D01*
X107285714Y-119107142D01*
X107357142Y-119035714D01*
X107357142Y-118535714D01*
X107071428Y-118535714D01*
X108000000Y-118178571D02*
X108000000Y-119178571D01*
X108000000Y-118321428D02*
X108071428Y-118250000D01*
X108214285Y-118178571D01*
X108428571Y-118178571D01*
X108571428Y-118250000D01*
X108642857Y-118392857D01*
X108642857Y-119178571D01*
X110000000Y-119178571D02*
X110000000Y-117678571D01*
X110000000Y-119107142D02*
X109857142Y-119178571D01*
X109571428Y-119178571D01*
X109428571Y-119107142D01*
X109357142Y-119035714D01*
X109285714Y-118892857D01*
X109285714Y-118464285D01*
X109357142Y-118321428D01*
X109428571Y-118250000D01*
X109571428Y-118178571D01*
X109857142Y-118178571D01*
X110000000Y-118250000D01*
X106357142Y-102678571D02*
X107285714Y-102678571D01*
X106785714Y-103250000D01*
X107000000Y-103250000D01*
X107142857Y-103321428D01*
X107214285Y-103392857D01*
X107285714Y-103535714D01*
X107285714Y-103892857D01*
X107214285Y-104035714D01*
X107142857Y-104107142D01*
X107000000Y-104178571D01*
X106571428Y-104178571D01*
X106428571Y-104107142D01*
X106357142Y-104035714D01*
X107928571Y-104035714D02*
X108000000Y-104107142D01*
X107928571Y-104178571D01*
X107857142Y-104107142D01*
X107928571Y-104035714D01*
X107928571Y-104178571D01*
X108500000Y-102678571D02*
X109428571Y-102678571D01*
X108928571Y-103250000D01*
X109142857Y-103250000D01*
X109285714Y-103321428D01*
X109357142Y-103392857D01*
X109428571Y-103535714D01*
X109428571Y-103892857D01*
X109357142Y-104035714D01*
X109285714Y-104107142D01*
X109142857Y-104178571D01*
X108714285Y-104178571D01*
X108571428Y-104107142D01*
X108500000Y-104035714D01*
X109928571Y-103178571D02*
X110285714Y-104178571D01*
X110642857Y-103178571D01*
X134071428Y-113857142D02*
X133857142Y-113785714D01*
X133785714Y-113714285D01*
X133714285Y-113571428D01*
X133714285Y-113357142D01*
X133785714Y-113214285D01*
X133857142Y-113142857D01*
X134000000Y-113071428D01*
X134571428Y-113071428D01*
X134571428Y-114571428D01*
X134071428Y-114571428D01*
X133928571Y-114500000D01*
X133857142Y-114428571D01*
X133785714Y-114285714D01*
X133785714Y-114142857D01*
X133857142Y-114000000D01*
X133928571Y-113928571D01*
X134071428Y-113857142D01*
X134571428Y-113857142D01*
X132428571Y-114071428D02*
X132428571Y-113071428D01*
X133071428Y-114071428D02*
X133071428Y-113285714D01*
X133000000Y-113142857D01*
X132857142Y-113071428D01*
X132642857Y-113071428D01*
X132500000Y-113142857D01*
X132428571Y-113214285D01*
X131928571Y-114071428D02*
X131357142Y-114071428D01*
X131714285Y-114571428D02*
X131714285Y-113285714D01*
X131642857Y-113142857D01*
X131500000Y-113071428D01*
X131357142Y-113071428D01*
X131071428Y-114071428D02*
X130500000Y-114071428D01*
X130857142Y-114571428D02*
X130857142Y-113285714D01*
X130785714Y-113142857D01*
X130642857Y-113071428D01*
X130500000Y-113071428D01*
X129785714Y-113071428D02*
X129928571Y-113142857D01*
X130000000Y-113214285D01*
X130071428Y-113357142D01*
X130071428Y-113785714D01*
X130000000Y-113928571D01*
X129928571Y-114000000D01*
X129785714Y-114071428D01*
X129571428Y-114071428D01*
X129428571Y-114000000D01*
X129357142Y-113928571D01*
X129285714Y-113785714D01*
X129285714Y-113357142D01*
X129357142Y-113214285D01*
X129428571Y-113142857D01*
X129571428Y-113071428D01*
X129785714Y-113071428D01*
X128642857Y-114071428D02*
X128642857Y-113071428D01*
X128642857Y-113928571D02*
X128571428Y-114000000D01*
X128428571Y-114071428D01*
X128214285Y-114071428D01*
X128071428Y-114000000D01*
X128000000Y-113857142D01*
X128000000Y-113071428D01*
X125500000Y-114071428D02*
X125500000Y-113071428D01*
X125857142Y-114642857D02*
X126214285Y-113571428D01*
X125285714Y-113571428D01*
X156321428Y-113607142D02*
X156107142Y-113535714D01*
X156035714Y-113464285D01*
X155964285Y-113321428D01*
X155964285Y-113107142D01*
X156035714Y-112964285D01*
X156107142Y-112892857D01*
X156250000Y-112821428D01*
X156821428Y-112821428D01*
X156821428Y-114321428D01*
X156321428Y-114321428D01*
X156178571Y-114250000D01*
X156107142Y-114178571D01*
X156035714Y-114035714D01*
X156035714Y-113892857D01*
X156107142Y-113750000D01*
X156178571Y-113678571D01*
X156321428Y-113607142D01*
X156821428Y-113607142D01*
X154678571Y-113821428D02*
X154678571Y-112821428D01*
X155321428Y-113821428D02*
X155321428Y-113035714D01*
X155250000Y-112892857D01*
X155107142Y-112821428D01*
X154892857Y-112821428D01*
X154750000Y-112892857D01*
X154678571Y-112964285D01*
X154178571Y-113821428D02*
X153607142Y-113821428D01*
X153964285Y-114321428D02*
X153964285Y-113035714D01*
X153892857Y-112892857D01*
X153750000Y-112821428D01*
X153607142Y-112821428D01*
X153321428Y-113821428D02*
X152750000Y-113821428D01*
X153107142Y-114321428D02*
X153107142Y-113035714D01*
X153035714Y-112892857D01*
X152892857Y-112821428D01*
X152750000Y-112821428D01*
X152035714Y-112821428D02*
X152178571Y-112892857D01*
X152250000Y-112964285D01*
X152321428Y-113107142D01*
X152321428Y-113535714D01*
X152250000Y-113678571D01*
X152178571Y-113750000D01*
X152035714Y-113821428D01*
X151821428Y-113821428D01*
X151678571Y-113750000D01*
X151607142Y-113678571D01*
X151535714Y-113535714D01*
X151535714Y-113107142D01*
X151607142Y-112964285D01*
X151678571Y-112892857D01*
X151821428Y-112821428D01*
X152035714Y-112821428D01*
X150892857Y-113821428D02*
X150892857Y-112821428D01*
X150892857Y-113678571D02*
X150821428Y-113750000D01*
X150678571Y-113821428D01*
X150464285Y-113821428D01*
X150321428Y-113750000D01*
X150250000Y-113607142D01*
X150250000Y-112821428D01*
X148535714Y-114321428D02*
X147607142Y-114321428D01*
X148107142Y-113750000D01*
X147892857Y-113750000D01*
X147750000Y-113678571D01*
X147678571Y-113607142D01*
X147607142Y-113464285D01*
X147607142Y-113107142D01*
X147678571Y-112964285D01*
X147750000Y-112892857D01*
X147892857Y-112821428D01*
X148321428Y-112821428D01*
X148464285Y-112892857D01*
X148535714Y-112964285D01*
X180321428Y-113357142D02*
X180107142Y-113285714D01*
X180035714Y-113214285D01*
X179964285Y-113071428D01*
X179964285Y-112857142D01*
X180035714Y-112714285D01*
X180107142Y-112642857D01*
X180250000Y-112571428D01*
X180821428Y-112571428D01*
X180821428Y-114071428D01*
X180321428Y-114071428D01*
X180178571Y-114000000D01*
X180107142Y-113928571D01*
X180035714Y-113785714D01*
X180035714Y-113642857D01*
X180107142Y-113500000D01*
X180178571Y-113428571D01*
X180321428Y-113357142D01*
X180821428Y-113357142D01*
X178678571Y-113571428D02*
X178678571Y-112571428D01*
X179321428Y-113571428D02*
X179321428Y-112785714D01*
X179250000Y-112642857D01*
X179107142Y-112571428D01*
X178892857Y-112571428D01*
X178750000Y-112642857D01*
X178678571Y-112714285D01*
X178178571Y-113571428D02*
X177607142Y-113571428D01*
X177964285Y-114071428D02*
X177964285Y-112785714D01*
X177892857Y-112642857D01*
X177750000Y-112571428D01*
X177607142Y-112571428D01*
X177321428Y-113571428D02*
X176750000Y-113571428D01*
X177107142Y-114071428D02*
X177107142Y-112785714D01*
X177035714Y-112642857D01*
X176892857Y-112571428D01*
X176750000Y-112571428D01*
X176035714Y-112571428D02*
X176178571Y-112642857D01*
X176250000Y-112714285D01*
X176321428Y-112857142D01*
X176321428Y-113285714D01*
X176250000Y-113428571D01*
X176178571Y-113500000D01*
X176035714Y-113571428D01*
X175821428Y-113571428D01*
X175678571Y-113500000D01*
X175607142Y-113428571D01*
X175535714Y-113285714D01*
X175535714Y-112857142D01*
X175607142Y-112714285D01*
X175678571Y-112642857D01*
X175821428Y-112571428D01*
X176035714Y-112571428D01*
X174892857Y-113571428D02*
X174892857Y-112571428D01*
X174892857Y-113428571D02*
X174821428Y-113500000D01*
X174678571Y-113571428D01*
X174464285Y-113571428D01*
X174321428Y-113500000D01*
X174250000Y-113357142D01*
X174250000Y-112571428D01*
X172464285Y-113928571D02*
X172392857Y-114000000D01*
X172250000Y-114071428D01*
X171892857Y-114071428D01*
X171750000Y-114000000D01*
X171678571Y-113928571D01*
X171607142Y-113785714D01*
X171607142Y-113642857D01*
X171678571Y-113428571D01*
X172535714Y-112571428D01*
X171607142Y-112571428D01*
X200571428Y-113607142D02*
X200357142Y-113535714D01*
X200285714Y-113464285D01*
X200214285Y-113321428D01*
X200214285Y-113107142D01*
X200285714Y-112964285D01*
X200357142Y-112892857D01*
X200500000Y-112821428D01*
X201071428Y-112821428D01*
X201071428Y-114321428D01*
X200571428Y-114321428D01*
X200428571Y-114250000D01*
X200357142Y-114178571D01*
X200285714Y-114035714D01*
X200285714Y-113892857D01*
X200357142Y-113750000D01*
X200428571Y-113678571D01*
X200571428Y-113607142D01*
X201071428Y-113607142D01*
X198928571Y-113821428D02*
X198928571Y-112821428D01*
X199571428Y-113821428D02*
X199571428Y-113035714D01*
X199500000Y-112892857D01*
X199357142Y-112821428D01*
X199142857Y-112821428D01*
X199000000Y-112892857D01*
X198928571Y-112964285D01*
X198428571Y-113821428D02*
X197857142Y-113821428D01*
X198214285Y-114321428D02*
X198214285Y-113035714D01*
X198142857Y-112892857D01*
X198000000Y-112821428D01*
X197857142Y-112821428D01*
X197571428Y-113821428D02*
X197000000Y-113821428D01*
X197357142Y-114321428D02*
X197357142Y-113035714D01*
X197285714Y-112892857D01*
X197142857Y-112821428D01*
X197000000Y-112821428D01*
X196285714Y-112821428D02*
X196428571Y-112892857D01*
X196500000Y-112964285D01*
X196571428Y-113107142D01*
X196571428Y-113535714D01*
X196500000Y-113678571D01*
X196428571Y-113750000D01*
X196285714Y-113821428D01*
X196071428Y-113821428D01*
X195928571Y-113750000D01*
X195857142Y-113678571D01*
X195785714Y-113535714D01*
X195785714Y-113107142D01*
X195857142Y-112964285D01*
X195928571Y-112892857D01*
X196071428Y-112821428D01*
X196285714Y-112821428D01*
X195142857Y-113821428D02*
X195142857Y-112821428D01*
X195142857Y-113678571D02*
X195071428Y-113750000D01*
X194928571Y-113821428D01*
X194714285Y-113821428D01*
X194571428Y-113750000D01*
X194500000Y-113607142D01*
X194500000Y-112821428D01*
X191857142Y-112821428D02*
X192714285Y-112821428D01*
X192285714Y-112821428D02*
X192285714Y-114321428D01*
X192428571Y-114107142D01*
X192571428Y-113964285D01*
X192714285Y-113892857D01*
X104535714Y-115178571D02*
X104535714Y-116178571D01*
X104178571Y-114607142D02*
X103821428Y-115678571D01*
X104750000Y-115678571D01*
X103750000Y-111428571D02*
X104678571Y-111428571D01*
X104178571Y-112000000D01*
X104392857Y-112000000D01*
X104535714Y-112071428D01*
X104607142Y-112142857D01*
X104678571Y-112285714D01*
X104678571Y-112642857D01*
X104607142Y-112785714D01*
X104535714Y-112857142D01*
X104392857Y-112928571D01*
X103964285Y-112928571D01*
X103821428Y-112857142D01*
X103750000Y-112785714D01*
X103821428Y-108821428D02*
X103892857Y-108750000D01*
X104035714Y-108678571D01*
X104392857Y-108678571D01*
X104535714Y-108750000D01*
X104607142Y-108821428D01*
X104678571Y-108964285D01*
X104678571Y-109107142D01*
X104607142Y-109321428D01*
X103750000Y-110178571D01*
X104678571Y-110178571D01*
X104678571Y-107178571D02*
X103821428Y-107178571D01*
X104250000Y-107178571D02*
X104250000Y-105678571D01*
X104107142Y-105892857D01*
X103964285Y-106035714D01*
X103821428Y-106107142D01*
%TO.C,SW8*%
X128766666Y-107104761D02*
X128909523Y-107152380D01*
X129147619Y-107152380D01*
X129242857Y-107104761D01*
X129290476Y-107057142D01*
X129338095Y-106961904D01*
X129338095Y-106866666D01*
X129290476Y-106771428D01*
X129242857Y-106723809D01*
X129147619Y-106676190D01*
X128957142Y-106628571D01*
X128861904Y-106580952D01*
X128814285Y-106533333D01*
X128766666Y-106438095D01*
X128766666Y-106342857D01*
X128814285Y-106247619D01*
X128861904Y-106200000D01*
X128957142Y-106152380D01*
X129195238Y-106152380D01*
X129338095Y-106200000D01*
X129671428Y-106152380D02*
X129909523Y-107152380D01*
X130100000Y-106438095D01*
X130290476Y-107152380D01*
X130528571Y-106152380D01*
X131052380Y-106580952D02*
X130957142Y-106533333D01*
X130909523Y-106485714D01*
X130861904Y-106390476D01*
X130861904Y-106342857D01*
X130909523Y-106247619D01*
X130957142Y-106200000D01*
X131052380Y-106152380D01*
X131242857Y-106152380D01*
X131338095Y-106200000D01*
X131385714Y-106247619D01*
X131433333Y-106342857D01*
X131433333Y-106390476D01*
X131385714Y-106485714D01*
X131338095Y-106533333D01*
X131242857Y-106580952D01*
X131052380Y-106580952D01*
X130957142Y-106628571D01*
X130909523Y-106676190D01*
X130861904Y-106771428D01*
X130861904Y-106961904D01*
X130909523Y-107057142D01*
X130957142Y-107104761D01*
X131052380Y-107152380D01*
X131242857Y-107152380D01*
X131338095Y-107104761D01*
X131385714Y-107057142D01*
X131433333Y-106961904D01*
X131433333Y-106771428D01*
X131385714Y-106676190D01*
X131338095Y-106628571D01*
X131242857Y-106580952D01*
%TO.C,SW7*%
X173266666Y-107104761D02*
X173409523Y-107152380D01*
X173647619Y-107152380D01*
X173742857Y-107104761D01*
X173790476Y-107057142D01*
X173838095Y-106961904D01*
X173838095Y-106866666D01*
X173790476Y-106771428D01*
X173742857Y-106723809D01*
X173647619Y-106676190D01*
X173457142Y-106628571D01*
X173361904Y-106580952D01*
X173314285Y-106533333D01*
X173266666Y-106438095D01*
X173266666Y-106342857D01*
X173314285Y-106247619D01*
X173361904Y-106200000D01*
X173457142Y-106152380D01*
X173695238Y-106152380D01*
X173838095Y-106200000D01*
X174171428Y-106152380D02*
X174409523Y-107152380D01*
X174600000Y-106438095D01*
X174790476Y-107152380D01*
X175028571Y-106152380D01*
X175314285Y-106152380D02*
X175980952Y-106152380D01*
X175552380Y-107152380D01*
%TO.C,SW6*%
X195516666Y-107104761D02*
X195659523Y-107152380D01*
X195897619Y-107152380D01*
X195992857Y-107104761D01*
X196040476Y-107057142D01*
X196088095Y-106961904D01*
X196088095Y-106866666D01*
X196040476Y-106771428D01*
X195992857Y-106723809D01*
X195897619Y-106676190D01*
X195707142Y-106628571D01*
X195611904Y-106580952D01*
X195564285Y-106533333D01*
X195516666Y-106438095D01*
X195516666Y-106342857D01*
X195564285Y-106247619D01*
X195611904Y-106200000D01*
X195707142Y-106152380D01*
X195945238Y-106152380D01*
X196088095Y-106200000D01*
X196421428Y-106152380D02*
X196659523Y-107152380D01*
X196850000Y-106438095D01*
X197040476Y-107152380D01*
X197278571Y-106152380D01*
X198088095Y-106152380D02*
X197897619Y-106152380D01*
X197802380Y-106200000D01*
X197754761Y-106247619D01*
X197659523Y-106390476D01*
X197611904Y-106580952D01*
X197611904Y-106961904D01*
X197659523Y-107057142D01*
X197707142Y-107104761D01*
X197802380Y-107152380D01*
X197992857Y-107152380D01*
X198088095Y-107104761D01*
X198135714Y-107057142D01*
X198183333Y-106961904D01*
X198183333Y-106723809D01*
X198135714Y-106628571D01*
X198088095Y-106580952D01*
X197992857Y-106533333D01*
X197802380Y-106533333D01*
X197707142Y-106580952D01*
X197659523Y-106628571D01*
X197611904Y-106723809D01*
%TO.C,SW5*%
X151016666Y-107104761D02*
X151159523Y-107152380D01*
X151397619Y-107152380D01*
X151492857Y-107104761D01*
X151540476Y-107057142D01*
X151588095Y-106961904D01*
X151588095Y-106866666D01*
X151540476Y-106771428D01*
X151492857Y-106723809D01*
X151397619Y-106676190D01*
X151207142Y-106628571D01*
X151111904Y-106580952D01*
X151064285Y-106533333D01*
X151016666Y-106438095D01*
X151016666Y-106342857D01*
X151064285Y-106247619D01*
X151111904Y-106200000D01*
X151207142Y-106152380D01*
X151445238Y-106152380D01*
X151588095Y-106200000D01*
X151921428Y-106152380D02*
X152159523Y-107152380D01*
X152350000Y-106438095D01*
X152540476Y-107152380D01*
X152778571Y-106152380D01*
X153635714Y-106152380D02*
X153159523Y-106152380D01*
X153111904Y-106628571D01*
X153159523Y-106580952D01*
X153254761Y-106533333D01*
X153492857Y-106533333D01*
X153588095Y-106580952D01*
X153635714Y-106628571D01*
X153683333Y-106723809D01*
X153683333Y-106961904D01*
X153635714Y-107057142D01*
X153588095Y-107104761D01*
X153492857Y-107152380D01*
X153254761Y-107152380D01*
X153159523Y-107104761D01*
X153111904Y-107057142D01*
%TO.C,SW12*%
X128190476Y-124604761D02*
X128333333Y-124652380D01*
X128571428Y-124652380D01*
X128666666Y-124604761D01*
X128714285Y-124557142D01*
X128761904Y-124461904D01*
X128761904Y-124366666D01*
X128714285Y-124271428D01*
X128666666Y-124223809D01*
X128571428Y-124176190D01*
X128380952Y-124128571D01*
X128285714Y-124080952D01*
X128238095Y-124033333D01*
X128190476Y-123938095D01*
X128190476Y-123842857D01*
X128238095Y-123747619D01*
X128285714Y-123700000D01*
X128380952Y-123652380D01*
X128619047Y-123652380D01*
X128761904Y-123700000D01*
X129095238Y-123652380D02*
X129333333Y-124652380D01*
X129523809Y-123938095D01*
X129714285Y-124652380D01*
X129952380Y-123652380D01*
X130857142Y-124652380D02*
X130285714Y-124652380D01*
X130571428Y-124652380D02*
X130571428Y-123652380D01*
X130476190Y-123795238D01*
X130380952Y-123890476D01*
X130285714Y-123938095D01*
X131238095Y-123747619D02*
X131285714Y-123700000D01*
X131380952Y-123652380D01*
X131619047Y-123652380D01*
X131714285Y-123700000D01*
X131761904Y-123747619D01*
X131809523Y-123842857D01*
X131809523Y-123938095D01*
X131761904Y-124080952D01*
X131190476Y-124652380D01*
X131809523Y-124652380D01*
%TO.C,SW11*%
X172523809Y-124604761D02*
X172666666Y-124652380D01*
X172904761Y-124652380D01*
X172999999Y-124604761D01*
X173047618Y-124557142D01*
X173095237Y-124461904D01*
X173095237Y-124366666D01*
X173047618Y-124271428D01*
X172999999Y-124223809D01*
X172904761Y-124176190D01*
X172714285Y-124128571D01*
X172619047Y-124080952D01*
X172571428Y-124033333D01*
X172523809Y-123938095D01*
X172523809Y-123842857D01*
X172571428Y-123747619D01*
X172619047Y-123700000D01*
X172714285Y-123652380D01*
X172952380Y-123652380D01*
X173095237Y-123700000D01*
X173428571Y-123652380D02*
X173666666Y-124652380D01*
X173857142Y-123938095D01*
X174047618Y-124652380D01*
X174285713Y-123652380D01*
X175190475Y-124652380D02*
X174619047Y-124652380D01*
X174904761Y-124652380D02*
X174904761Y-123652380D01*
X174809523Y-123795238D01*
X174714285Y-123890476D01*
X174619047Y-123938095D01*
X176142856Y-124652380D02*
X175571428Y-124652380D01*
X175857142Y-124652380D02*
X175857142Y-123652380D01*
X175761904Y-123795238D01*
X175666666Y-123890476D01*
X175571428Y-123938095D01*
%TO.C,SW10*%
X194690476Y-124604761D02*
X194833333Y-124652380D01*
X195071428Y-124652380D01*
X195166666Y-124604761D01*
X195214285Y-124557142D01*
X195261904Y-124461904D01*
X195261904Y-124366666D01*
X195214285Y-124271428D01*
X195166666Y-124223809D01*
X195071428Y-124176190D01*
X194880952Y-124128571D01*
X194785714Y-124080952D01*
X194738095Y-124033333D01*
X194690476Y-123938095D01*
X194690476Y-123842857D01*
X194738095Y-123747619D01*
X194785714Y-123700000D01*
X194880952Y-123652380D01*
X195119047Y-123652380D01*
X195261904Y-123700000D01*
X195595238Y-123652380D02*
X195833333Y-124652380D01*
X196023809Y-123938095D01*
X196214285Y-124652380D01*
X196452380Y-123652380D01*
X197357142Y-124652380D02*
X196785714Y-124652380D01*
X197071428Y-124652380D02*
X197071428Y-123652380D01*
X196976190Y-123795238D01*
X196880952Y-123890476D01*
X196785714Y-123938095D01*
X197976190Y-123652380D02*
X198071428Y-123652380D01*
X198166666Y-123700000D01*
X198214285Y-123747619D01*
X198261904Y-123842857D01*
X198309523Y-124033333D01*
X198309523Y-124271428D01*
X198261904Y-124461904D01*
X198214285Y-124557142D01*
X198166666Y-124604761D01*
X198071428Y-124652380D01*
X197976190Y-124652380D01*
X197880952Y-124604761D01*
X197833333Y-124557142D01*
X197785714Y-124461904D01*
X197738095Y-124271428D01*
X197738095Y-124033333D01*
X197785714Y-123842857D01*
X197833333Y-123747619D01*
X197880952Y-123700000D01*
X197976190Y-123652380D01*
%TO.C,SW9*%
X150833332Y-124604761D02*
X150976189Y-124652380D01*
X151214285Y-124652380D01*
X151309523Y-124604761D01*
X151357142Y-124557142D01*
X151404761Y-124461904D01*
X151404761Y-124366666D01*
X151357142Y-124271428D01*
X151309523Y-124223809D01*
X151214285Y-124176190D01*
X151023808Y-124128571D01*
X150928570Y-124080952D01*
X150880951Y-124033333D01*
X150833332Y-123938095D01*
X150833332Y-123842857D01*
X150880951Y-123747619D01*
X150928570Y-123700000D01*
X151023808Y-123652380D01*
X151261904Y-123652380D01*
X151404761Y-123700000D01*
X151738094Y-123652380D02*
X151976189Y-124652380D01*
X152166666Y-123938095D01*
X152357142Y-124652380D01*
X152595237Y-123652380D01*
X153023808Y-124652380D02*
X153214285Y-124652380D01*
X153309523Y-124604761D01*
X153357142Y-124557142D01*
X153452380Y-124414285D01*
X153499999Y-124223809D01*
X153499999Y-123842857D01*
X153452380Y-123747619D01*
X153404761Y-123700000D01*
X153309523Y-123652380D01*
X153119046Y-123652380D01*
X153023808Y-123700000D01*
X152976189Y-123747619D01*
X152928570Y-123842857D01*
X152928570Y-124080952D01*
X152976189Y-124176190D01*
X153023808Y-124223809D01*
X153119046Y-124271428D01*
X153309523Y-124271428D01*
X153404761Y-124223809D01*
X153452380Y-124176190D01*
X153499999Y-124080952D01*
%TO.C,C1*%
X28808333Y-109382622D02*
X28760714Y-109430241D01*
X28617857Y-109477860D01*
X28522619Y-109477860D01*
X28379761Y-109430241D01*
X28284523Y-109335003D01*
X28236904Y-109239765D01*
X28189285Y-109049289D01*
X28189285Y-108906432D01*
X28236904Y-108715956D01*
X28284523Y-108620718D01*
X28379761Y-108525480D01*
X28522619Y-108477860D01*
X28617857Y-108477860D01*
X28760714Y-108525480D01*
X28808333Y-108573099D01*
X29760714Y-109477860D02*
X29189285Y-109477860D01*
X29475000Y-109477860D02*
X29475000Y-108477860D01*
X29379761Y-108620718D01*
X29284523Y-108715956D01*
X29189285Y-108763575D01*
%TO.C,U4*%
X89688095Y-114852380D02*
X89688095Y-115661904D01*
X89735714Y-115757142D01*
X89783333Y-115804761D01*
X89878571Y-115852380D01*
X90069047Y-115852380D01*
X90164285Y-115804761D01*
X90211904Y-115757142D01*
X90259523Y-115661904D01*
X90259523Y-114852380D01*
X91164285Y-115185714D02*
X91164285Y-115852380D01*
X90926190Y-114804761D02*
X90688095Y-115519047D01*
X91307142Y-115519047D01*
%TO.C,U3*%
X68938095Y-114877380D02*
X68938095Y-115686904D01*
X68985714Y-115782142D01*
X69033333Y-115829761D01*
X69128571Y-115877380D01*
X69319047Y-115877380D01*
X69414285Y-115829761D01*
X69461904Y-115782142D01*
X69509523Y-115686904D01*
X69509523Y-114877380D01*
X69890476Y-114877380D02*
X70509523Y-114877380D01*
X70176190Y-115258333D01*
X70319047Y-115258333D01*
X70414285Y-115305952D01*
X70461904Y-115353571D01*
X70509523Y-115448809D01*
X70509523Y-115686904D01*
X70461904Y-115782142D01*
X70414285Y-115829761D01*
X70319047Y-115877380D01*
X70033333Y-115877380D01*
X69938095Y-115829761D01*
X69890476Y-115782142D01*
%TO.C,U2*%
X48163095Y-114852380D02*
X48163095Y-115661904D01*
X48210714Y-115757142D01*
X48258333Y-115804761D01*
X48353571Y-115852380D01*
X48544047Y-115852380D01*
X48639285Y-115804761D01*
X48686904Y-115757142D01*
X48734523Y-115661904D01*
X48734523Y-114852380D01*
X49163095Y-114947619D02*
X49210714Y-114900000D01*
X49305952Y-114852380D01*
X49544047Y-114852380D01*
X49639285Y-114900000D01*
X49686904Y-114947619D01*
X49734523Y-115042857D01*
X49734523Y-115138095D01*
X49686904Y-115280952D01*
X49115476Y-115852380D01*
X49734523Y-115852380D01*
%TO.C,U1*%
X27313095Y-114977860D02*
X27313095Y-115787384D01*
X27360714Y-115882622D01*
X27408333Y-115930241D01*
X27503571Y-115977860D01*
X27694047Y-115977860D01*
X27789285Y-115930241D01*
X27836904Y-115882622D01*
X27884523Y-115787384D01*
X27884523Y-114977860D01*
X28884523Y-115977860D02*
X28313095Y-115977860D01*
X28598809Y-115977860D02*
X28598809Y-114977860D01*
X28503571Y-115120718D01*
X28408333Y-115215956D01*
X28313095Y-115263575D01*
%TO.C,SW4*%
X124416666Y-92904761D02*
X124559523Y-92952380D01*
X124797619Y-92952380D01*
X124892857Y-92904761D01*
X124940476Y-92857142D01*
X124988095Y-92761904D01*
X124988095Y-92666666D01*
X124940476Y-92571428D01*
X124892857Y-92523809D01*
X124797619Y-92476190D01*
X124607142Y-92428571D01*
X124511904Y-92380952D01*
X124464285Y-92333333D01*
X124416666Y-92238095D01*
X124416666Y-92142857D01*
X124464285Y-92047619D01*
X124511904Y-92000000D01*
X124607142Y-91952380D01*
X124845238Y-91952380D01*
X124988095Y-92000000D01*
X125321428Y-91952380D02*
X125559523Y-92952380D01*
X125750000Y-92238095D01*
X125940476Y-92952380D01*
X126178571Y-91952380D01*
X126988095Y-92285714D02*
X126988095Y-92952380D01*
X126750000Y-91904761D02*
X126511904Y-92619047D01*
X127130952Y-92619047D01*
%TO.C,SW3*%
X156166666Y-92654761D02*
X156309523Y-92702380D01*
X156547619Y-92702380D01*
X156642857Y-92654761D01*
X156690476Y-92607142D01*
X156738095Y-92511904D01*
X156738095Y-92416666D01*
X156690476Y-92321428D01*
X156642857Y-92273809D01*
X156547619Y-92226190D01*
X156357142Y-92178571D01*
X156261904Y-92130952D01*
X156214285Y-92083333D01*
X156166666Y-91988095D01*
X156166666Y-91892857D01*
X156214285Y-91797619D01*
X156261904Y-91750000D01*
X156357142Y-91702380D01*
X156595238Y-91702380D01*
X156738095Y-91750000D01*
X157071428Y-91702380D02*
X157309523Y-92702380D01*
X157500000Y-91988095D01*
X157690476Y-92702380D01*
X157928571Y-91702380D01*
X158214285Y-91702380D02*
X158833333Y-91702380D01*
X158500000Y-92083333D01*
X158642857Y-92083333D01*
X158738095Y-92130952D01*
X158785714Y-92178571D01*
X158833333Y-92273809D01*
X158833333Y-92511904D01*
X158785714Y-92607142D01*
X158738095Y-92654761D01*
X158642857Y-92702380D01*
X158357142Y-92702380D01*
X158261904Y-92654761D01*
X158214285Y-92607142D01*
%TO.C,SW2*%
X199916666Y-92654761D02*
X200059523Y-92702380D01*
X200297619Y-92702380D01*
X200392857Y-92654761D01*
X200440476Y-92607142D01*
X200488095Y-92511904D01*
X200488095Y-92416666D01*
X200440476Y-92321428D01*
X200392857Y-92273809D01*
X200297619Y-92226190D01*
X200107142Y-92178571D01*
X200011904Y-92130952D01*
X199964285Y-92083333D01*
X199916666Y-91988095D01*
X199916666Y-91892857D01*
X199964285Y-91797619D01*
X200011904Y-91750000D01*
X200107142Y-91702380D01*
X200345238Y-91702380D01*
X200488095Y-91750000D01*
X200821428Y-91702380D02*
X201059523Y-92702380D01*
X201250000Y-91988095D01*
X201440476Y-92702380D01*
X201678571Y-91702380D01*
X202011904Y-91797619D02*
X202059523Y-91750000D01*
X202154761Y-91702380D01*
X202392857Y-91702380D01*
X202488095Y-91750000D01*
X202535714Y-91797619D01*
X202583333Y-91892857D01*
X202583333Y-91988095D01*
X202535714Y-92130952D01*
X201964285Y-92702380D01*
X202583333Y-92702380D01*
%TO.C,SW1*%
X177916666Y-92654761D02*
X178059523Y-92702380D01*
X178297619Y-92702380D01*
X178392857Y-92654761D01*
X178440476Y-92607142D01*
X178488095Y-92511904D01*
X178488095Y-92416666D01*
X178440476Y-92321428D01*
X178392857Y-92273809D01*
X178297619Y-92226190D01*
X178107142Y-92178571D01*
X178011904Y-92130952D01*
X177964285Y-92083333D01*
X177916666Y-91988095D01*
X177916666Y-91892857D01*
X177964285Y-91797619D01*
X178011904Y-91750000D01*
X178107142Y-91702380D01*
X178345238Y-91702380D01*
X178488095Y-91750000D01*
X178821428Y-91702380D02*
X179059523Y-92702380D01*
X179250000Y-91988095D01*
X179440476Y-92702380D01*
X179678571Y-91702380D01*
X180583333Y-92702380D02*
X180011904Y-92702380D01*
X180297619Y-92702380D02*
X180297619Y-91702380D01*
X180202380Y-91845238D01*
X180107142Y-91940476D01*
X180011904Y-91988095D01*
%TO.C,R8*%
X110882380Y-115591666D02*
X110406190Y-115925000D01*
X110882380Y-116163095D02*
X109882380Y-116163095D01*
X109882380Y-115782142D01*
X109930000Y-115686904D01*
X109977619Y-115639285D01*
X110072857Y-115591666D01*
X110215714Y-115591666D01*
X110310952Y-115639285D01*
X110358571Y-115686904D01*
X110406190Y-115782142D01*
X110406190Y-116163095D01*
X110310952Y-115020238D02*
X110263333Y-115115476D01*
X110215714Y-115163095D01*
X110120476Y-115210714D01*
X110072857Y-115210714D01*
X109977619Y-115163095D01*
X109930000Y-115115476D01*
X109882380Y-115020238D01*
X109882380Y-114829761D01*
X109930000Y-114734523D01*
X109977619Y-114686904D01*
X110072857Y-114639285D01*
X110120476Y-114639285D01*
X110215714Y-114686904D01*
X110263333Y-114734523D01*
X110310952Y-114829761D01*
X110310952Y-115020238D01*
X110358571Y-115115476D01*
X110406190Y-115163095D01*
X110501428Y-115210714D01*
X110691904Y-115210714D01*
X110787142Y-115163095D01*
X110834761Y-115115476D01*
X110882380Y-115020238D01*
X110882380Y-114829761D01*
X110834761Y-114734523D01*
X110787142Y-114686904D01*
X110691904Y-114639285D01*
X110501428Y-114639285D01*
X110406190Y-114686904D01*
X110358571Y-114734523D01*
X110310952Y-114829761D01*
%TO.C,R7*%
X110882380Y-112591666D02*
X110406190Y-112925000D01*
X110882380Y-113163095D02*
X109882380Y-113163095D01*
X109882380Y-112782142D01*
X109930000Y-112686904D01*
X109977619Y-112639285D01*
X110072857Y-112591666D01*
X110215714Y-112591666D01*
X110310952Y-112639285D01*
X110358571Y-112686904D01*
X110406190Y-112782142D01*
X110406190Y-113163095D01*
X109882380Y-112258333D02*
X109882380Y-111591666D01*
X110882380Y-112020238D01*
%TO.C,R6*%
X110882380Y-109591666D02*
X110406190Y-109925000D01*
X110882380Y-110163095D02*
X109882380Y-110163095D01*
X109882380Y-109782142D01*
X109930000Y-109686904D01*
X109977619Y-109639285D01*
X110072857Y-109591666D01*
X110215714Y-109591666D01*
X110310952Y-109639285D01*
X110358571Y-109686904D01*
X110406190Y-109782142D01*
X110406190Y-110163095D01*
X109882380Y-108734523D02*
X109882380Y-108925000D01*
X109930000Y-109020238D01*
X109977619Y-109067857D01*
X110120476Y-109163095D01*
X110310952Y-109210714D01*
X110691904Y-109210714D01*
X110787142Y-109163095D01*
X110834761Y-109115476D01*
X110882380Y-109020238D01*
X110882380Y-108829761D01*
X110834761Y-108734523D01*
X110787142Y-108686904D01*
X110691904Y-108639285D01*
X110453809Y-108639285D01*
X110358571Y-108686904D01*
X110310952Y-108734523D01*
X110263333Y-108829761D01*
X110263333Y-109020238D01*
X110310952Y-109115476D01*
X110358571Y-109163095D01*
X110453809Y-109210714D01*
%TO.C,R5*%
X110882380Y-106591666D02*
X110406190Y-106925000D01*
X110882380Y-107163095D02*
X109882380Y-107163095D01*
X109882380Y-106782142D01*
X109930000Y-106686904D01*
X109977619Y-106639285D01*
X110072857Y-106591666D01*
X110215714Y-106591666D01*
X110310952Y-106639285D01*
X110358571Y-106686904D01*
X110406190Y-106782142D01*
X110406190Y-107163095D01*
X109882380Y-105686904D02*
X109882380Y-106163095D01*
X110358571Y-106210714D01*
X110310952Y-106163095D01*
X110263333Y-106067857D01*
X110263333Y-105829761D01*
X110310952Y-105734523D01*
X110358571Y-105686904D01*
X110453809Y-105639285D01*
X110691904Y-105639285D01*
X110787142Y-105686904D01*
X110834761Y-105734523D01*
X110882380Y-105829761D01*
X110882380Y-106067857D01*
X110834761Y-106163095D01*
X110787142Y-106210714D01*
%TO.C,R4*%
X87583333Y-109202380D02*
X87250000Y-108726190D01*
X87011904Y-109202380D02*
X87011904Y-108202380D01*
X87392857Y-108202380D01*
X87488095Y-108250000D01*
X87535714Y-108297619D01*
X87583333Y-108392857D01*
X87583333Y-108535714D01*
X87535714Y-108630952D01*
X87488095Y-108678571D01*
X87392857Y-108726190D01*
X87011904Y-108726190D01*
X88440476Y-108535714D02*
X88440476Y-109202380D01*
X88202380Y-108154761D02*
X87964285Y-108869047D01*
X88583333Y-108869047D01*
%TO.C,R3*%
X66833333Y-109327380D02*
X66500000Y-108851190D01*
X66261904Y-109327380D02*
X66261904Y-108327380D01*
X66642857Y-108327380D01*
X66738095Y-108375000D01*
X66785714Y-108422619D01*
X66833333Y-108517857D01*
X66833333Y-108660714D01*
X66785714Y-108755952D01*
X66738095Y-108803571D01*
X66642857Y-108851190D01*
X66261904Y-108851190D01*
X67166666Y-108327380D02*
X67785714Y-108327380D01*
X67452380Y-108708333D01*
X67595238Y-108708333D01*
X67690476Y-108755952D01*
X67738095Y-108803571D01*
X67785714Y-108898809D01*
X67785714Y-109136904D01*
X67738095Y-109232142D01*
X67690476Y-109279761D01*
X67595238Y-109327380D01*
X67309523Y-109327380D01*
X67214285Y-109279761D01*
X67166666Y-109232142D01*
%TO.C,R2*%
X46058333Y-109202380D02*
X45725000Y-108726190D01*
X45486904Y-109202380D02*
X45486904Y-108202380D01*
X45867857Y-108202380D01*
X45963095Y-108250000D01*
X46010714Y-108297619D01*
X46058333Y-108392857D01*
X46058333Y-108535714D01*
X46010714Y-108630952D01*
X45963095Y-108678571D01*
X45867857Y-108726190D01*
X45486904Y-108726190D01*
X46439285Y-108297619D02*
X46486904Y-108250000D01*
X46582142Y-108202380D01*
X46820238Y-108202380D01*
X46915476Y-108250000D01*
X46963095Y-108297619D01*
X47010714Y-108392857D01*
X47010714Y-108488095D01*
X46963095Y-108630952D01*
X46391666Y-109202380D01*
X47010714Y-109202380D01*
%TO.C,R1*%
X24808333Y-109477860D02*
X24475000Y-109001670D01*
X24236904Y-109477860D02*
X24236904Y-108477860D01*
X24617857Y-108477860D01*
X24713095Y-108525480D01*
X24760714Y-108573099D01*
X24808333Y-108668337D01*
X24808333Y-108811194D01*
X24760714Y-108906432D01*
X24713095Y-108954051D01*
X24617857Y-109001670D01*
X24236904Y-109001670D01*
X25760714Y-109477860D02*
X25189285Y-109477860D01*
X25475000Y-109477860D02*
X25475000Y-108477860D01*
X25379761Y-108620718D01*
X25284523Y-108715956D01*
X25189285Y-108763575D01*
%TO.C,J1*%
X112666666Y-118322380D02*
X112666666Y-119036666D01*
X112619047Y-119179523D01*
X112523809Y-119274761D01*
X112380952Y-119322380D01*
X112285714Y-119322380D01*
X113666666Y-119322380D02*
X113095238Y-119322380D01*
X113380952Y-119322380D02*
X113380952Y-118322380D01*
X113285714Y-118465238D01*
X113190476Y-118560476D01*
X113095238Y-118608095D01*
%TO.C,D4*%
X106452380Y-116163095D02*
X105452380Y-116163095D01*
X105452380Y-115925000D01*
X105500000Y-115782142D01*
X105595238Y-115686904D01*
X105690476Y-115639285D01*
X105880952Y-115591666D01*
X106023809Y-115591666D01*
X106214285Y-115639285D01*
X106309523Y-115686904D01*
X106404761Y-115782142D01*
X106452380Y-115925000D01*
X106452380Y-116163095D01*
X105785714Y-114734523D02*
X106452380Y-114734523D01*
X105404761Y-114972619D02*
X106119047Y-115210714D01*
X106119047Y-114591666D01*
%TO.C,D3*%
X106452380Y-112988095D02*
X105452380Y-112988095D01*
X105452380Y-112750000D01*
X105500000Y-112607142D01*
X105595238Y-112511904D01*
X105690476Y-112464285D01*
X105880952Y-112416666D01*
X106023809Y-112416666D01*
X106214285Y-112464285D01*
X106309523Y-112511904D01*
X106404761Y-112607142D01*
X106452380Y-112750000D01*
X106452380Y-112988095D01*
X105452380Y-112083333D02*
X105452380Y-111464285D01*
X105833333Y-111797619D01*
X105833333Y-111654761D01*
X105880952Y-111559523D01*
X105928571Y-111511904D01*
X106023809Y-111464285D01*
X106261904Y-111464285D01*
X106357142Y-111511904D01*
X106404761Y-111559523D01*
X106452380Y-111654761D01*
X106452380Y-111940476D01*
X106404761Y-112035714D01*
X106357142Y-112083333D01*
%TO.C,D2*%
X106452380Y-110163095D02*
X105452380Y-110163095D01*
X105452380Y-109925000D01*
X105500000Y-109782142D01*
X105595238Y-109686904D01*
X105690476Y-109639285D01*
X105880952Y-109591666D01*
X106023809Y-109591666D01*
X106214285Y-109639285D01*
X106309523Y-109686904D01*
X106404761Y-109782142D01*
X106452380Y-109925000D01*
X106452380Y-110163095D01*
X105547619Y-109210714D02*
X105500000Y-109163095D01*
X105452380Y-109067857D01*
X105452380Y-108829761D01*
X105500000Y-108734523D01*
X105547619Y-108686904D01*
X105642857Y-108639285D01*
X105738095Y-108639285D01*
X105880952Y-108686904D01*
X106452380Y-109258333D01*
X106452380Y-108639285D01*
%TO.C,D1*%
X106452380Y-107163095D02*
X105452380Y-107163095D01*
X105452380Y-106925000D01*
X105500000Y-106782142D01*
X105595238Y-106686904D01*
X105690476Y-106639285D01*
X105880952Y-106591666D01*
X106023809Y-106591666D01*
X106214285Y-106639285D01*
X106309523Y-106686904D01*
X106404761Y-106782142D01*
X106452380Y-106925000D01*
X106452380Y-107163095D01*
X106452380Y-105639285D02*
X106452380Y-106210714D01*
X106452380Y-105925000D02*
X105452380Y-105925000D01*
X105595238Y-106020238D01*
X105690476Y-106115476D01*
X105738095Y-106210714D01*
%TO.C,C8*%
X86082142Y-113166666D02*
X86129761Y-113214285D01*
X86177380Y-113357142D01*
X86177380Y-113452380D01*
X86129761Y-113595238D01*
X86034523Y-113690476D01*
X85939285Y-113738095D01*
X85748809Y-113785714D01*
X85605952Y-113785714D01*
X85415476Y-113738095D01*
X85320238Y-113690476D01*
X85225000Y-113595238D01*
X85177380Y-113452380D01*
X85177380Y-113357142D01*
X85225000Y-113214285D01*
X85272619Y-113166666D01*
X85605952Y-112595238D02*
X85558333Y-112690476D01*
X85510714Y-112738095D01*
X85415476Y-112785714D01*
X85367857Y-112785714D01*
X85272619Y-112738095D01*
X85225000Y-112690476D01*
X85177380Y-112595238D01*
X85177380Y-112404761D01*
X85225000Y-112309523D01*
X85272619Y-112261904D01*
X85367857Y-112214285D01*
X85415476Y-112214285D01*
X85510714Y-112261904D01*
X85558333Y-112309523D01*
X85605952Y-112404761D01*
X85605952Y-112595238D01*
X85653571Y-112690476D01*
X85701190Y-112738095D01*
X85796428Y-112785714D01*
X85986904Y-112785714D01*
X86082142Y-112738095D01*
X86129761Y-112690476D01*
X86177380Y-112595238D01*
X86177380Y-112404761D01*
X86129761Y-112309523D01*
X86082142Y-112261904D01*
X85986904Y-112214285D01*
X85796428Y-112214285D01*
X85701190Y-112261904D01*
X85653571Y-112309523D01*
X85605952Y-112404761D01*
%TO.C,C7*%
X65427142Y-113291666D02*
X65474761Y-113339285D01*
X65522380Y-113482142D01*
X65522380Y-113577380D01*
X65474761Y-113720238D01*
X65379523Y-113815476D01*
X65284285Y-113863095D01*
X65093809Y-113910714D01*
X64950952Y-113910714D01*
X64760476Y-113863095D01*
X64665238Y-113815476D01*
X64570000Y-113720238D01*
X64522380Y-113577380D01*
X64522380Y-113482142D01*
X64570000Y-113339285D01*
X64617619Y-113291666D01*
X64522380Y-112958333D02*
X64522380Y-112291666D01*
X65522380Y-112720238D01*
%TO.C,C6*%
X44652142Y-113166666D02*
X44699761Y-113214285D01*
X44747380Y-113357142D01*
X44747380Y-113452380D01*
X44699761Y-113595238D01*
X44604523Y-113690476D01*
X44509285Y-113738095D01*
X44318809Y-113785714D01*
X44175952Y-113785714D01*
X43985476Y-113738095D01*
X43890238Y-113690476D01*
X43795000Y-113595238D01*
X43747380Y-113452380D01*
X43747380Y-113357142D01*
X43795000Y-113214285D01*
X43842619Y-113166666D01*
X43747380Y-112309523D02*
X43747380Y-112500000D01*
X43795000Y-112595238D01*
X43842619Y-112642857D01*
X43985476Y-112738095D01*
X44175952Y-112785714D01*
X44556904Y-112785714D01*
X44652142Y-112738095D01*
X44699761Y-112690476D01*
X44747380Y-112595238D01*
X44747380Y-112404761D01*
X44699761Y-112309523D01*
X44652142Y-112261904D01*
X44556904Y-112214285D01*
X44318809Y-112214285D01*
X44223571Y-112261904D01*
X44175952Y-112309523D01*
X44128333Y-112404761D01*
X44128333Y-112595238D01*
X44175952Y-112690476D01*
X44223571Y-112738095D01*
X44318809Y-112785714D01*
%TO.C,C5*%
X23802142Y-113292146D02*
X23849761Y-113339765D01*
X23897380Y-113482622D01*
X23897380Y-113577860D01*
X23849761Y-113720718D01*
X23754523Y-113815956D01*
X23659285Y-113863575D01*
X23468809Y-113911194D01*
X23325952Y-113911194D01*
X23135476Y-113863575D01*
X23040238Y-113815956D01*
X22945000Y-113720718D01*
X22897380Y-113577860D01*
X22897380Y-113482622D01*
X22945000Y-113339765D01*
X22992619Y-113292146D01*
X22897380Y-112387384D02*
X22897380Y-112863575D01*
X23373571Y-112911194D01*
X23325952Y-112863575D01*
X23278333Y-112768337D01*
X23278333Y-112530241D01*
X23325952Y-112435003D01*
X23373571Y-112387384D01*
X23468809Y-112339765D01*
X23706904Y-112339765D01*
X23802142Y-112387384D01*
X23849761Y-112435003D01*
X23897380Y-112530241D01*
X23897380Y-112768337D01*
X23849761Y-112863575D01*
X23802142Y-112911194D01*
%TO.C,C4*%
X90833333Y-109107142D02*
X90785714Y-109154761D01*
X90642857Y-109202380D01*
X90547619Y-109202380D01*
X90404761Y-109154761D01*
X90309523Y-109059523D01*
X90261904Y-108964285D01*
X90214285Y-108773809D01*
X90214285Y-108630952D01*
X90261904Y-108440476D01*
X90309523Y-108345238D01*
X90404761Y-108250000D01*
X90547619Y-108202380D01*
X90642857Y-108202380D01*
X90785714Y-108250000D01*
X90833333Y-108297619D01*
X91690476Y-108535714D02*
X91690476Y-109202380D01*
X91452380Y-108154761D02*
X91214285Y-108869047D01*
X91833333Y-108869047D01*
%TO.C,C3*%
X70083333Y-109232142D02*
X70035714Y-109279761D01*
X69892857Y-109327380D01*
X69797619Y-109327380D01*
X69654761Y-109279761D01*
X69559523Y-109184523D01*
X69511904Y-109089285D01*
X69464285Y-108898809D01*
X69464285Y-108755952D01*
X69511904Y-108565476D01*
X69559523Y-108470238D01*
X69654761Y-108375000D01*
X69797619Y-108327380D01*
X69892857Y-108327380D01*
X70035714Y-108375000D01*
X70083333Y-108422619D01*
X70416666Y-108327380D02*
X71035714Y-108327380D01*
X70702380Y-108708333D01*
X70845238Y-108708333D01*
X70940476Y-108755952D01*
X70988095Y-108803571D01*
X71035714Y-108898809D01*
X71035714Y-109136904D01*
X70988095Y-109232142D01*
X70940476Y-109279761D01*
X70845238Y-109327380D01*
X70559523Y-109327380D01*
X70464285Y-109279761D01*
X70416666Y-109232142D01*
%TO.C,C2*%
X49308333Y-109107142D02*
X49260714Y-109154761D01*
X49117857Y-109202380D01*
X49022619Y-109202380D01*
X48879761Y-109154761D01*
X48784523Y-109059523D01*
X48736904Y-108964285D01*
X48689285Y-108773809D01*
X48689285Y-108630952D01*
X48736904Y-108440476D01*
X48784523Y-108345238D01*
X48879761Y-108250000D01*
X49022619Y-108202380D01*
X49117857Y-108202380D01*
X49260714Y-108250000D01*
X49308333Y-108297619D01*
X49689285Y-108297619D02*
X49736904Y-108250000D01*
X49832142Y-108202380D01*
X50070238Y-108202380D01*
X50165476Y-108250000D01*
X50213095Y-108297619D01*
X50260714Y-108392857D01*
X50260714Y-108488095D01*
X50213095Y-108630952D01*
X49641666Y-109202380D01*
X50260714Y-109202380D01*
%TO.C,SW8*%
X132300000Y-111600000D02*
X127700000Y-111600000D01*
X127700000Y-111600000D02*
X127700000Y-108400000D01*
X127700000Y-108400000D02*
X132300000Y-108400000D01*
X132300000Y-108400000D02*
X132300000Y-111600000D01*
X126900000Y-108000000D02*
X133100000Y-108000000D01*
X133100000Y-108000000D02*
X133100000Y-112000000D01*
X133100000Y-112000000D02*
X126900000Y-112000000D01*
X126900000Y-112000000D02*
X126900000Y-108000000D01*
%TO.C,SW7*%
X176800000Y-111600000D02*
X172200000Y-111600000D01*
X172200000Y-111600000D02*
X172200000Y-108400000D01*
X172200000Y-108400000D02*
X176800000Y-108400000D01*
X176800000Y-108400000D02*
X176800000Y-111600000D01*
X171400000Y-108000000D02*
X177600000Y-108000000D01*
X177600000Y-108000000D02*
X177600000Y-112000000D01*
X177600000Y-112000000D02*
X171400000Y-112000000D01*
X171400000Y-112000000D02*
X171400000Y-108000000D01*
%TO.C,SW6*%
X199050000Y-111600000D02*
X194450000Y-111600000D01*
X194450000Y-111600000D02*
X194450000Y-108400000D01*
X194450000Y-108400000D02*
X199050000Y-108400000D01*
X199050000Y-108400000D02*
X199050000Y-111600000D01*
X193650000Y-108000000D02*
X199850000Y-108000000D01*
X199850000Y-108000000D02*
X199850000Y-112000000D01*
X199850000Y-112000000D02*
X193650000Y-112000000D01*
X193650000Y-112000000D02*
X193650000Y-108000000D01*
%TO.C,SW5*%
X154550000Y-111600000D02*
X149950000Y-111600000D01*
X149950000Y-111600000D02*
X149950000Y-108400000D01*
X149950000Y-108400000D02*
X154550000Y-108400000D01*
X154550000Y-108400000D02*
X154550000Y-111600000D01*
X149150000Y-108000000D02*
X155350000Y-108000000D01*
X155350000Y-108000000D02*
X155350000Y-112000000D01*
X155350000Y-112000000D02*
X149150000Y-112000000D01*
X149150000Y-112000000D02*
X149150000Y-108000000D01*
%TO.C,SW12*%
X127600000Y-125100000D02*
X132400000Y-125100000D01*
X132400000Y-125100000D02*
X132400000Y-130000000D01*
X132400000Y-130000000D02*
X127600000Y-130000000D01*
X127600000Y-130000000D02*
X127600000Y-125100000D01*
X132202272Y-127500000D02*
G75*
G03*
X132202272Y-127500000I-2202272J0D01*
G01*
%TO.C,SW11*%
X171933333Y-125100000D02*
X176733333Y-125100000D01*
X176733333Y-125100000D02*
X176733333Y-130000000D01*
X176733333Y-130000000D02*
X171933333Y-130000000D01*
X171933333Y-130000000D02*
X171933333Y-125100000D01*
X176535605Y-127500000D02*
G75*
G03*
X176535605Y-127500000I-2202272J0D01*
G01*
%TO.C,SW10*%
X194100000Y-125100000D02*
X198900000Y-125100000D01*
X198900000Y-125100000D02*
X198900000Y-130000000D01*
X198900000Y-130000000D02*
X194100000Y-130000000D01*
X194100000Y-130000000D02*
X194100000Y-125100000D01*
X198702272Y-127500000D02*
G75*
G03*
X198702272Y-127500000I-2202272J0D01*
G01*
%TO.C,SW9*%
X149766666Y-125100000D02*
X154566666Y-125100000D01*
X154566666Y-125100000D02*
X154566666Y-130000000D01*
X154566666Y-130000000D02*
X149766666Y-130000000D01*
X149766666Y-130000000D02*
X149766666Y-125100000D01*
X154368938Y-127500000D02*
G75*
G03*
X154368938Y-127500000I-2202272J0D01*
G01*
D11*
%TO.C,C1*%
X29015580Y-110885480D02*
X28734420Y-110885480D01*
X29015580Y-109865480D02*
X28734420Y-109865480D01*
%TO.C,U4*%
X90212500Y-111390000D02*
X88412500Y-111390000D01*
X90212500Y-114510000D02*
X91012500Y-114510000D01*
X90212500Y-111390000D02*
X91012500Y-111390000D01*
X90212500Y-114510000D02*
X89412500Y-114510000D01*
%TO.C,U3*%
X69462500Y-114535000D02*
X68662500Y-114535000D01*
X69462500Y-111415000D02*
X70262500Y-111415000D01*
X69462500Y-114535000D02*
X70262500Y-114535000D01*
X69462500Y-111415000D02*
X67662500Y-111415000D01*
%TO.C,U2*%
X48687500Y-114510000D02*
X47887500Y-114510000D01*
X48687500Y-111390000D02*
X49487500Y-111390000D01*
X48687500Y-114510000D02*
X49487500Y-114510000D01*
X48687500Y-111390000D02*
X46887500Y-111390000D01*
%TO.C,U1*%
X27837500Y-111515480D02*
X26037500Y-111515480D01*
X27837500Y-114635480D02*
X28637500Y-114635480D01*
X27837500Y-111515480D02*
X28637500Y-111515480D01*
X27837500Y-114635480D02*
X27037500Y-114635480D01*
D10*
%TO.C,SW4*%
X131600000Y-92250000D02*
G75*
G03*
X131600000Y-92250000I-1100000J0D01*
G01*
X128000000Y-89800000D02*
X133000000Y-89800000D01*
X133000000Y-89800000D02*
X133000000Y-94700000D01*
X133000000Y-94700000D02*
X128000000Y-94700000D01*
X128000000Y-94700000D02*
X128000000Y-89800000D01*
%TO.C,SW3*%
X150000000Y-89800000D02*
X155000000Y-89800000D01*
X155000000Y-89800000D02*
X155000000Y-94700000D01*
X155000000Y-94700000D02*
X150000000Y-94700000D01*
X150000000Y-94700000D02*
X150000000Y-89800000D01*
X153600000Y-92250000D02*
G75*
G03*
X153600000Y-92250000I-1100000J0D01*
G01*
%TO.C,SW2*%
X197600000Y-92250000D02*
G75*
G03*
X197600000Y-92250000I-1100000J0D01*
G01*
X194000000Y-89800000D02*
X199000000Y-89800000D01*
X199000000Y-89800000D02*
X199000000Y-94700000D01*
X199000000Y-94700000D02*
X194000000Y-94700000D01*
X194000000Y-94700000D02*
X194000000Y-89800000D01*
%TO.C,SW1*%
X172000000Y-89800000D02*
X177000000Y-89800000D01*
X177000000Y-89800000D02*
X177000000Y-94700000D01*
X177000000Y-94700000D02*
X172000000Y-94700000D01*
X172000000Y-94700000D02*
X172000000Y-89800000D01*
X175600000Y-92250000D02*
G75*
G03*
X175600000Y-92250000I-1100000J0D01*
G01*
D11*
%TO.C,R8*%
X108477500Y-115187742D02*
X108477500Y-115662258D01*
X109522500Y-115187742D02*
X109522500Y-115662258D01*
%TO.C,R7*%
X108477500Y-112187742D02*
X108477500Y-112662258D01*
X109522500Y-112187742D02*
X109522500Y-112662258D01*
%TO.C,R6*%
X108477500Y-109187742D02*
X108477500Y-109662258D01*
X109522500Y-109187742D02*
X109522500Y-109662258D01*
%TO.C,R5*%
X108477500Y-106187742D02*
X108477500Y-106662258D01*
X109522500Y-106187742D02*
X109522500Y-106662258D01*
%TO.C,R4*%
X87987258Y-110772500D02*
X87512742Y-110772500D01*
X87987258Y-109727500D02*
X87512742Y-109727500D01*
%TO.C,R3*%
X67237258Y-109852500D02*
X66762742Y-109852500D01*
X67237258Y-110897500D02*
X66762742Y-110897500D01*
%TO.C,R2*%
X46462258Y-109727500D02*
X45987742Y-109727500D01*
X46462258Y-110772500D02*
X45987742Y-110772500D01*
%TO.C,R1*%
X25862258Y-110897980D02*
X25387742Y-110897980D01*
X25862258Y-109852980D02*
X25387742Y-109852980D01*
%TO.C,J1*%
X114330000Y-115270000D02*
X114330000Y-102510000D01*
X114330000Y-116540000D02*
X114330000Y-117870000D01*
X114330000Y-117870000D02*
X113000000Y-117870000D01*
X114330000Y-115270000D02*
X111670000Y-115270000D01*
X114330000Y-102510000D02*
X111670000Y-102510000D01*
X111670000Y-115270000D02*
X111670000Y-102510000D01*
%TO.C,D4*%
X106765000Y-113940000D02*
X106765000Y-116225000D01*
X108235000Y-113940000D02*
X106765000Y-113940000D01*
X108235000Y-116225000D02*
X108235000Y-113940000D01*
%TO.C,D3*%
X106765000Y-110940000D02*
X106765000Y-113225000D01*
X108235000Y-110940000D02*
X106765000Y-110940000D01*
X108235000Y-113225000D02*
X108235000Y-110940000D01*
%TO.C,D2*%
X106765000Y-107940000D02*
X106765000Y-110225000D01*
X108235000Y-107940000D02*
X106765000Y-107940000D01*
X108235000Y-110225000D02*
X108235000Y-107940000D01*
%TO.C,D1*%
X106765000Y-104940000D02*
X106765000Y-107225000D01*
X108235000Y-104940000D02*
X106765000Y-104940000D01*
X108235000Y-107225000D02*
X108235000Y-104940000D01*
%TO.C,C8*%
X86740000Y-113140580D02*
X86740000Y-112859420D01*
X87760000Y-113140580D02*
X87760000Y-112859420D01*
%TO.C,C7*%
X67010000Y-113265580D02*
X67010000Y-112984420D01*
X65990000Y-113265580D02*
X65990000Y-112984420D01*
%TO.C,C6*%
X46235000Y-113140580D02*
X46235000Y-112859420D01*
X45215000Y-113140580D02*
X45215000Y-112859420D01*
%TO.C,C5*%
X24365000Y-113266060D02*
X24365000Y-112984900D01*
X25385000Y-113266060D02*
X25385000Y-112984900D01*
%TO.C,C4*%
X91115580Y-110760000D02*
X90834420Y-110760000D01*
X91115580Y-109740000D02*
X90834420Y-109740000D01*
%TO.C,C3*%
X70390580Y-109865000D02*
X70109420Y-109865000D01*
X70390580Y-110885000D02*
X70109420Y-110885000D01*
%TO.C,C2*%
X49615580Y-109740000D02*
X49334420Y-109740000D01*
X49615580Y-110760000D02*
X49334420Y-110760000D01*
%TD*%
%LPC*%
D12*
%TO.C,SW8*%
X132900000Y-109000000D03*
X127100000Y-109000000D03*
X132900000Y-111000000D03*
X127100000Y-111000000D03*
%TD*%
%TO.C,SW7*%
X177400000Y-109000000D03*
X171600000Y-109000000D03*
X177400000Y-111000000D03*
X171600000Y-111000000D03*
%TD*%
%TO.C,SW6*%
X199650000Y-109000000D03*
X193850000Y-109000000D03*
X199650000Y-111000000D03*
X193850000Y-111000000D03*
%TD*%
%TO.C,SW5*%
X155150000Y-109000000D03*
X149350000Y-109000000D03*
X155150000Y-111000000D03*
X149350000Y-111000000D03*
%TD*%
D13*
%TO.C,SW12*%
X133200000Y-125700000D03*
X126800000Y-125700000D03*
X133200000Y-129400000D03*
X126800000Y-129400000D03*
%TD*%
%TO.C,SW11*%
X177533333Y-125700000D03*
X171133333Y-125700000D03*
X177533333Y-129400000D03*
X171133333Y-129400000D03*
%TD*%
%TO.C,SW10*%
X199700000Y-125700000D03*
X193300000Y-125700000D03*
X199700000Y-129400000D03*
X193300000Y-129400000D03*
%TD*%
%TO.C,SW9*%
X155366666Y-125700000D03*
X148966666Y-125700000D03*
X155366666Y-129400000D03*
X148966666Y-129400000D03*
%TD*%
D14*
%TO.C,C1*%
X28100000Y-110375480D03*
X29650000Y-110375480D03*
%TD*%
D15*
%TO.C,U4*%
X91350000Y-112000000D03*
X91350000Y-112950000D03*
X91350000Y-113900000D03*
X89075000Y-113900000D03*
X89075000Y-112950000D03*
X89075000Y-112000000D03*
%TD*%
%TO.C,U3*%
X68325000Y-112025000D03*
X68325000Y-112975000D03*
X68325000Y-113925000D03*
X70600000Y-113925000D03*
X70600000Y-112975000D03*
X70600000Y-112025000D03*
%TD*%
%TO.C,U2*%
X47550000Y-112000000D03*
X47550000Y-112950000D03*
X47550000Y-113900000D03*
X49825000Y-113900000D03*
X49825000Y-112950000D03*
X49825000Y-112000000D03*
%TD*%
%TO.C,U1*%
X28975000Y-112125480D03*
X28975000Y-113075480D03*
X28975000Y-114025480D03*
X26700000Y-114025480D03*
X26700000Y-113075480D03*
X26700000Y-112125480D03*
%TD*%
D16*
%TO.C,SW4*%
X133100000Y-92250000D03*
X127900000Y-92250000D03*
D17*
X132450000Y-89950000D03*
X132450000Y-94550000D03*
X128550000Y-94550000D03*
X128550000Y-89950000D03*
%TD*%
%TO.C,SW3*%
X150550000Y-89950000D03*
X150550000Y-94550000D03*
X154450000Y-94550000D03*
X154450000Y-89950000D03*
D16*
X149900000Y-92250000D03*
X155100000Y-92250000D03*
%TD*%
%TO.C,SW2*%
X199100000Y-92250000D03*
X193900000Y-92250000D03*
D17*
X198450000Y-89950000D03*
X198450000Y-94550000D03*
X194550000Y-94550000D03*
X194550000Y-89950000D03*
%TD*%
%TO.C,SW1*%
X172550000Y-89950000D03*
X172550000Y-94550000D03*
X176450000Y-94550000D03*
X176450000Y-89950000D03*
D16*
X171900000Y-92250000D03*
X177100000Y-92250000D03*
%TD*%
D18*
%TO.C,R8*%
X109000000Y-114600000D03*
X109000000Y-116250000D03*
%TD*%
%TO.C,R7*%
X109000000Y-111600000D03*
X109000000Y-113250000D03*
%TD*%
%TO.C,R6*%
X109000000Y-108600000D03*
X109000000Y-110250000D03*
%TD*%
%TO.C,R5*%
X109000000Y-105600000D03*
X109000000Y-107250000D03*
%TD*%
D19*
%TO.C,R4*%
X86925000Y-110250000D03*
X88575000Y-110250000D03*
%TD*%
%TO.C,R3*%
X67825000Y-110375000D03*
X66175000Y-110375000D03*
%TD*%
%TO.C,R2*%
X47050000Y-110250000D03*
X45400000Y-110250000D03*
%TD*%
%TO.C,R1*%
X24800000Y-110375480D03*
X26450000Y-110375480D03*
%TD*%
D20*
%TO.C,J1*%
X113000000Y-116540000D03*
D21*
X113000000Y-114000000D03*
X113000000Y-111460000D03*
X113000000Y-108920000D03*
X113000000Y-106380000D03*
X113000000Y-103840000D03*
%TD*%
D22*
%TO.C,D4*%
X107500000Y-114637500D03*
X107500000Y-116212500D03*
%TD*%
%TO.C,D3*%
X107500000Y-111637500D03*
X107500000Y-113212500D03*
%TD*%
%TO.C,D2*%
X107500000Y-108637500D03*
X107500000Y-110212500D03*
%TD*%
%TO.C,D1*%
X107500000Y-105637500D03*
X107500000Y-107212500D03*
%TD*%
D23*
%TO.C,C8*%
X87250000Y-112225000D03*
X87250000Y-113775000D03*
%TD*%
%TO.C,C7*%
X66500000Y-113900000D03*
X66500000Y-112350000D03*
%TD*%
%TO.C,C6*%
X45725000Y-113775000D03*
X45725000Y-112225000D03*
%TD*%
%TO.C,C5*%
X24875000Y-112350480D03*
X24875000Y-113900480D03*
%TD*%
D14*
%TO.C,C4*%
X90200000Y-110250000D03*
X91750000Y-110250000D03*
%TD*%
%TO.C,C3*%
X71025000Y-110375000D03*
X69475000Y-110375000D03*
%TD*%
%TO.C,C2*%
X50250000Y-110250000D03*
X48700000Y-110250000D03*
%TD*%
M02*
