M48
; DRILL file {KiCad 7.0.2} date Mon May 29 12:29:11 2023
; FORMAT={-:-/ absolute / metric / decimal}
; #@! TF.CreationDate,2023-05-29T12:29:11-07:00
; #@! TF.GenerationSoftware,Kicad,Pcbnew,7.0.2
; #@! TF.FileFunction,Plated,1,2,PTH
FMAT,2
METRIC
; #@! TA.AperFunction,Plated,PTH,ViaDrill
T1C0.400
; #@! TA.AperFunction,Plated,PTH,ComponentDrill
T2C0.760
; #@! TA.AperFunction,Plated,PTH,ComponentDrill
T3C1.000
; #@! TA.AperFunction,Plated,PTH,ComponentDrill
T4C1.170
%
G90
G05
T1
X247.6Y-431.5
X247.6Y-438.0
X248.005Y-440.695
X248.246Y-449.604
X248.58Y-446.8
X248.9Y-439.8
X249.3Y-422.6
X249.3Y-429.15
X249.35Y-430.8
X249.5Y-448.7
X250.22Y-458.43
X250.267Y-455.65
X251.05Y-422.15
X251.239Y-420.289
X251.25Y-457.4
X252.173Y-413.95
X253.091Y-464.2
X253.155Y-466.995
X253.85Y-413.65
X254.14Y-411.84
X254.35Y-465.85
X256.137Y-405.85
X257.023Y-472.25
X257.267Y-475.133
X257.6Y-405.7
X258.165Y-403.815
X258.25Y-473.65
X261.168Y-398.4
X261.867Y-479.733
X262.35Y-482.65
X262.5Y-398.25
X263.15Y-481.05
X263.155Y-396.455
X266.9Y-487.2
X267.113Y-391.55
X267.913Y-433.438
X268.3Y-391.55
X268.768Y-389.418
X269.15Y-487.6
X269.15Y-488.887
X271.198Y-414.644
X272.069Y-452.058
X273.368Y-384.818
X273.906Y-492.794
X274.55Y-385.95
X275.85Y-494.839
X276.0Y-493.35
X276.15Y-384.442
X280.775Y-381.125
X280.887Y-379.737
X281.32Y-497.83
X281.373Y-398.582
X282.982Y-467.627
X283.25Y-498.35
X283.3Y-499.85
X283.65Y-379.513
X287.85Y-387.25
X288.76Y-393.85
X289.093Y-375.593
X289.365Y-501.885
X289.45Y-389.8
X290.05Y-376.6
X291.25Y-502.3
X291.45Y-503.827
X291.75Y-375.611
X292.55Y-393.75
X296.942Y-387.569
X297.35Y-392.1
X297.622Y-372.672
X297.884Y-504.866
X299.044Y-477.802
X299.05Y-394.55
X299.3Y-374.6
X299.6Y-505.05
X300.0Y-506.7
X300.3Y-372.774
X302.55Y-378.8
X304.05Y-266.65
X304.15Y-352.6
X305.5Y-282.95
X306.394Y-370.994
X306.7Y-506.7
X307.7Y-372.0
X308.3Y-392.4
X308.35Y-506.7
X308.638Y-345.262
X308.7Y-362.75
X309.075Y-508.025
X309.55Y-380.15
X309.6Y-347.25
X311.1Y-354.9
X311.19Y-380.643
X311.45Y-347.75
X311.45Y-353.2
X311.6Y-356.883
X311.65Y-378.8
X311.925Y-381.75
X312.15Y-393.5
X312.175Y-380.475
X312.5Y-348.65
X312.65Y-395.2
X313.375Y-393.525
X313.4Y-388.95
X313.5Y-346.05
X313.55Y-265.278
X314.124Y-357.7
X314.741Y-360.366
X314.85Y-264.5
X314.95Y-348.3
X315.4Y-375.3
X315.45Y-507.94
X315.562Y-383.413
X315.637Y-355.375
X315.65Y-351.15
X315.674Y-352.792
X316.25Y-371.15
X316.5Y-356.6
X316.636Y-355.338
X317.3Y-507.25
X317.5Y-346.4
X317.52Y-357.157
X317.775Y-393.5
X317.837Y-481.087
X318.1Y-370.35
X318.145Y-508.045
X318.6Y-375.25
X318.8Y-351.35
X319.25Y-479.25
X319.65Y-482.45
X320.45Y-479.2
X320.85Y-482.4
X321.7Y-479.1
X322.1Y-482.3
X322.2Y-397.65
X322.35Y-370.35
X322.85Y-478.95
X323.25Y-482.15
X324.05Y-381.05
X324.05Y-478.8
X324.4Y-507.42
X324.45Y-482.0
X325.2Y-371.8
X325.2Y-394.8
X325.2Y-478.6
X325.4Y-396.45
X325.6Y-481.8
X325.65Y-336.85
X325.7Y-318.7
X325.75Y-300.5
X325.9Y-355.61
X325.95Y-358.61
X325.95Y-361.61
X326.25Y-506.55
X326.4Y-478.35
X326.8Y-481.55
X326.95Y-371.8
X326.95Y-390.45
X327.0Y-282.35
X327.125Y-507.475
X327.7Y-478.1
X327.95Y-381.05
X327.95Y-381.85
X327.955Y-319.295
X327.97Y-301.13
X328.0Y-337.55
X328.0Y-343.45
X328.1Y-481.3
X328.9Y-342.6
X329.0Y-477.8
X329.35Y-381.05
X329.35Y-381.85
X329.4Y-481.0
X329.65Y-343.4
X330.2Y-477.4
X330.6Y-480.6
X331.4Y-477.1
X331.8Y-480.3
X332.55Y-476.75
X332.95Y-479.95
X333.2Y-505.7
X333.45Y-373.4
X333.55Y-371.8
X334.15Y-378.75
X334.15Y-380.3
X334.356Y-386.698
X335.1Y-504.7
X335.658Y-373.692
X335.953Y-505.753
X336.458Y-476.931
X341.3Y-386.5
X341.75Y-502.899
X342.05Y-374.666
X342.5Y-376.35
X342.96Y-397.55
X343.4Y-501.7
X344.512Y-502.812
X344.673Y-375.973
X346.878Y-388.578
X349.85Y-498.987
X350.3Y-378.47
X350.35Y-379.95
X350.518Y-396.873
X351.15Y-497.9
X351.915Y-466.107
X352.222Y-380.428
X352.643Y-498.743
X357.318Y-494.068
X357.8Y-383.5
X357.85Y-384.8
X358.45Y-492.65
X359.675Y-385.475
X360.175Y-493.675
X361.431Y-412.542
X362.302Y-449.956
X364.3Y-389.613
X364.5Y-390.8
X364.75Y-489.1
X365.05Y-486.9
X365.587Y-431.162
X366.377Y-486.95
X366.627Y-391.323
X370.376Y-482.026
X370.45Y-397.5
X370.9Y-480.15
X371.152Y-395.848
X371.548Y-398.65
X372.341Y-480.2
X375.35Y-404.8
X375.38Y-474.63
X375.9Y-472.75
X376.188Y-403.312
X376.487Y-406.2
X377.353Y-472.7
X379.2Y-412.5
X379.432Y-466.582
X379.8Y-464.8
X380.312Y-411.488
X380.399Y-414.25
X381.323Y-464.6
X382.15Y-420.95
X382.296Y-458.196
X382.35Y-456.5
X383.226Y-422.8
X383.248Y-420.052
X383.85Y-429.8
X384.15Y-447.75
X384.202Y-449.45
X384.202Y-455.95
X384.65Y-438.7
X384.91Y-431.6
X385.025Y-428.925
X385.6Y-437.9
X385.911Y-440.5
X385.911Y-447.0
T2
X289.107Y-380.944
X291.453Y-379.972
X293.8Y-379.0
T3
X273.1Y-324.27
X273.1Y-326.81
X273.1Y-329.35
X273.1Y-331.89
X299.732Y-261.489
X300.704Y-259.142
X301.676Y-256.796
X302.079Y-262.461
X303.051Y-260.114
X304.023Y-257.768
X349.561Y-263.105
X350.533Y-260.758
X351.908Y-264.077
X352.88Y-261.73
X354.255Y-265.049
X355.227Y-262.702
T4
X342.96Y-425.57
X342.96Y-439.16
T0
M30
