%TF.GenerationSoftware,KiCad,Pcbnew,7.0.2*%
%TF.CreationDate,2023-05-26T22:51:46-07:00*%
%TF.ProjectId,plumbus-bfb,706c756d-6275-4732-9d62-66622e6b6963,rev?*%
%TF.SameCoordinates,Original*%
%TF.FileFunction,Profile,NP*%
%FSLAX46Y46*%
G04 Gerber Fmt 4.6, Leading zero omitted, Abs format (unit mm)*
G04 Created by KiCad (PCBNEW 7.0.2) date 2023-05-26 22:51:46*
%MOMM*%
%LPD*%
G01*
G04 APERTURE LIST*
%TA.AperFunction,Profile*%
%ADD10C,0.330729*%
%TD*%
%TA.AperFunction,Profile*%
%ADD11C,0.325000*%
%TD*%
G04 APERTURE END LIST*
D10*
X313250000Y-513600000D02*
X316750000Y-513800000D01*
X311350000Y-512250000D02*
X311050000Y-511350000D01*
X313250000Y-513600000D02*
X312150000Y-513000000D01*
X311350000Y-512250000D02*
X312150000Y-513000000D01*
X311050000Y-511350000D02*
X310500000Y-510750000D01*
X309442742Y-510169362D02*
X310500000Y-510750000D01*
X320300000Y-513600000D02*
X316750000Y-513800000D01*
X323989235Y-510169289D02*
X323050000Y-510750000D01*
X322500000Y-511350000D02*
X323050000Y-510750000D01*
X320300000Y-513600000D02*
X321400000Y-513000000D01*
X322200000Y-512250000D02*
X322500000Y-511350000D01*
X322200000Y-512250000D02*
X321400000Y-513000000D01*
X320266734Y-245702600D02*
X319337170Y-245557537D01*
X279212279Y-378943738D02*
X284396450Y-376014495D01*
X311337627Y-245988521D02*
X310362792Y-246254199D01*
X371568792Y-306758506D02*
X371754030Y-305996705D01*
X386407257Y-453739557D02*
X385612926Y-457181103D01*
X364815523Y-280753128D02*
X364955342Y-280110970D01*
X362410234Y-265796152D02*
X361932607Y-265067889D01*
X386741145Y-426809432D02*
X387222872Y-429897448D01*
X298901310Y-254860005D02*
X298406532Y-255685600D01*
X313343063Y-245594986D02*
X312331482Y-245768371D01*
X291685496Y-264998374D02*
X290819610Y-264921041D01*
X357236466Y-338170197D02*
X357747588Y-337335186D01*
X275296392Y-269233574D02*
X274329862Y-269947382D01*
X348211303Y-257604793D02*
X348211303Y-257604793D01*
X365244875Y-278158550D02*
X365297590Y-277500893D01*
X348211303Y-257604793D02*
X347413262Y-257628056D01*
X387485238Y-446676503D02*
X387032851Y-450236534D01*
X327549309Y-509716947D02*
X323989235Y-510169289D01*
X299100857Y-349524476D02*
X299632984Y-349355717D01*
X301944790Y-251142345D02*
X301264456Y-251827038D01*
X380837626Y-470243153D02*
X379266655Y-473310289D01*
X364955342Y-280110970D02*
X365073604Y-279464128D01*
X270485100Y-326716388D02*
X270392905Y-327843367D01*
X273275446Y-318287712D02*
X272736208Y-319264068D01*
X288041060Y-350062681D02*
X289130734Y-350251978D01*
X357783618Y-260778320D02*
X357088771Y-260295032D01*
X270475403Y-331179419D02*
X270616321Y-332256278D01*
X261823678Y-484654014D02*
X259711852Y-481966937D01*
X271113599Y-323411729D02*
X270846425Y-324498411D01*
X332498495Y-252737518D02*
X331918958Y-252075375D01*
X342796157Y-373195620D02*
X345592786Y-374367466D01*
X334504561Y-255620210D02*
X334051821Y-254866294D01*
X353598793Y-378557249D02*
X356129509Y-380168580D01*
X264427708Y-290462735D02*
X264427708Y-290462735D01*
X359021479Y-334686785D02*
X359355179Y-333760376D01*
X339940545Y-372141152D02*
X342796157Y-373195620D01*
X345056933Y-257927438D02*
X344288365Y-258101996D01*
X354795031Y-341237848D02*
X355462269Y-340514302D01*
X369033864Y-312271142D02*
X369445695Y-311646610D01*
X365587564Y-288070218D02*
X364640696Y-287383716D01*
X273445130Y-310258056D02*
X274750630Y-311298671D01*
X363685366Y-317219810D02*
X364308953Y-316843868D01*
X292648958Y-372439579D02*
X295515171Y-371477944D01*
X369511914Y-292470673D02*
X368845991Y-291473360D01*
X304985547Y-248734934D02*
X304180029Y-249284604D01*
X279483999Y-266873014D02*
X278391971Y-267385736D01*
X293618571Y-350473798D02*
X294176219Y-350440016D01*
X349092056Y-257628977D02*
X348211303Y-257604793D01*
X285325715Y-265156001D02*
X284111656Y-265381161D01*
X365314152Y-275223213D02*
X365247973Y-274280372D01*
X331918958Y-252075375D02*
X331310178Y-251438518D01*
X339076591Y-347771480D02*
X340169614Y-347745528D01*
X372115174Y-303634873D02*
X372168052Y-302824971D01*
X339943956Y-259897249D02*
X339276363Y-260316160D01*
X299435783Y-254060113D02*
X298901310Y-254860005D01*
X358158326Y-319091151D02*
X358894131Y-318975683D01*
X249896033Y-463864544D02*
X248777636Y-460559162D01*
X331426681Y-346560806D02*
X331570301Y-346638035D01*
X275198111Y-315538515D02*
X274507376Y-316422777D01*
X348327433Y-375653689D02*
X350997101Y-377051284D01*
X295953087Y-264068111D02*
X295926347Y-265082581D01*
X346378899Y-346561279D02*
X347343208Y-346204186D01*
X292256984Y-506221092D02*
X289026567Y-504947668D01*
X360064842Y-330867880D02*
X360199812Y-329870139D01*
X363044971Y-317566188D02*
X363685366Y-317219810D01*
X274153996Y-496407264D02*
X271466673Y-494295782D01*
X330008815Y-250244415D02*
X329318197Y-249689043D01*
X372185855Y-302005184D02*
X372140243Y-300695235D01*
X329318197Y-249689043D02*
X328602265Y-249162708D01*
X271816078Y-321293768D02*
X271437143Y-322342795D01*
X354874766Y-259065169D02*
X354097208Y-258732448D01*
X322081350Y-246109833D02*
X321181788Y-245887011D01*
X293059748Y-350493809D02*
X293618571Y-350473798D01*
X356092475Y-339761009D02*
X356684318Y-338979222D01*
X345592786Y-374367466D02*
X348327433Y-375653689D01*
X295839607Y-350256539D02*
X296390050Y-350168169D01*
X371605444Y-394145907D02*
X373460451Y-396492061D01*
X341248245Y-347668508D02*
X342311152Y-347541673D01*
X249812423Y-415173867D02*
X250897573Y-412366451D01*
X358881535Y-320639153D02*
X358656438Y-320116707D01*
X364914940Y-316439216D02*
X365502530Y-316006710D01*
X251169757Y-467094991D02*
X249896033Y-463864544D01*
X264969986Y-295827350D02*
X265380725Y-297535172D01*
X338628326Y-260767859D02*
X338001130Y-261251814D01*
X337396057Y-261767495D02*
X336814389Y-262314373D01*
X361716937Y-318166828D02*
X362388563Y-317882146D01*
X350623744Y-501951434D02*
X347556480Y-503522276D01*
X382428561Y-412108988D02*
X383534946Y-414940449D01*
X269970328Y-306636941D02*
X271050842Y-307922890D01*
X359878192Y-331849670D02*
X360064842Y-330867880D01*
X356371626Y-259847631D02*
X355633265Y-259437286D01*
X295937428Y-265756583D02*
X295942888Y-265853178D01*
X335306593Y-257188903D02*
X334923146Y-256394725D01*
X268973085Y-305277819D02*
X269970328Y-306636941D01*
X295942888Y-265853178D02*
X295942888Y-265853178D01*
X297483405Y-349950912D02*
X298025817Y-349822123D01*
X269325035Y-275145140D02*
X268637742Y-276148901D01*
X289950913Y-264875206D02*
X289080262Y-264860992D01*
X363798201Y-283874764D02*
X364043608Y-283264123D01*
X342784240Y-258560076D02*
X342051249Y-258842538D01*
X387852511Y-439403293D02*
X387759948Y-443063934D01*
X357747588Y-337335186D02*
X358216352Y-336475444D01*
X266858565Y-279363661D02*
X266364903Y-280497711D01*
X336758690Y-347671074D02*
X337365513Y-347714558D01*
X295286987Y-350331336D02*
X295839607Y-350256539D01*
X333565909Y-254133915D02*
X333047806Y-253424011D01*
X361424049Y-264366152D02*
X360885642Y-263692113D01*
X273398578Y-270707438D02*
X272504087Y-271512135D01*
X309442742Y-510169362D02*
X305882667Y-509717105D01*
X370191929Y-310337941D02*
X370524744Y-309655516D01*
X334494012Y-508297157D02*
X331052391Y-509091413D01*
X350997101Y-377051284D02*
X353598793Y-378557249D01*
X287811566Y-264894307D02*
X286559534Y-264993180D01*
X323830069Y-246666959D02*
X322964438Y-246370128D01*
X366070931Y-315547207D02*
X366619347Y-315061561D01*
X345834794Y-257789909D02*
X345056933Y-257927438D01*
X285920213Y-349532275D02*
X286970421Y-349822329D01*
X271437143Y-322342795D02*
X271113599Y-323411729D01*
X364308953Y-316843868D02*
X364914940Y-316439216D01*
X371907369Y-305221595D02*
X372028015Y-304434033D01*
X339276363Y-260316160D02*
X338628326Y-260767859D01*
X300618648Y-252542390D02*
X300008660Y-253287161D01*
X385387909Y-420772318D02*
X386128492Y-423766721D01*
X353354788Y-342590680D02*
X354092094Y-341930392D01*
X266414976Y-489705136D02*
X264059542Y-487234902D01*
X344405404Y-504946737D02*
X341174988Y-506220350D01*
X276296619Y-268567624D02*
X275296392Y-269233574D01*
X365247973Y-274280372D02*
X365138994Y-273351188D01*
X268637742Y-276148901D02*
X267996533Y-277187647D01*
X359723592Y-262431805D02*
X359102108Y-261847876D01*
X379266655Y-473310289D02*
X377553767Y-476289137D01*
X361932607Y-265067889D02*
X361424049Y-264366152D01*
X280603529Y-266414587D02*
X279483999Y-266873014D01*
X341332682Y-259159907D02*
X340629824Y-259511654D01*
X349199351Y-345364389D02*
X350088521Y-344884192D01*
X387222872Y-429897448D02*
X387570673Y-433027765D01*
X250897573Y-412366451D02*
X252096597Y-409617886D01*
X358641426Y-335592226D02*
X359021479Y-334686785D01*
X334064359Y-370396367D02*
X337028946Y-371207067D01*
X270831682Y-273249012D02*
X270056865Y-274177974D01*
X359890862Y-323885082D02*
X359763728Y-323332762D01*
X359763728Y-323332762D02*
X359620037Y-322784465D01*
X299632984Y-349355717D02*
X300161184Y-349173733D01*
X387781552Y-436197381D02*
X387852511Y-439403293D01*
X308475347Y-246917177D02*
X307565323Y-247311999D01*
X265203781Y-284064721D02*
X264928524Y-285303315D01*
X359283348Y-321701469D02*
X359090535Y-321167535D01*
X362611241Y-286232707D02*
X362611241Y-286232707D01*
X359641193Y-332814253D02*
X359878192Y-331849670D01*
X294257756Y-265418122D02*
X293405424Y-265247038D01*
X300008660Y-253287161D02*
X299435783Y-254060113D01*
X364546458Y-492057933D02*
X361965296Y-494293644D01*
X347556480Y-503522276D02*
X344405404Y-504946737D01*
X245855638Y-433091581D02*
X246196510Y-429992053D01*
X268063249Y-303849825D02*
X268973085Y-305277819D01*
X368117310Y-290531107D02*
X367329155Y-289647465D01*
X270392905Y-327843367D02*
X270360994Y-328979461D01*
X362388563Y-317882146D02*
X363044971Y-317566188D01*
X365336452Y-276178541D02*
X365336452Y-276178541D01*
X363268384Y-267327580D02*
X362855853Y-266549773D01*
X297541235Y-257408940D02*
X297173299Y-258304207D01*
X359102108Y-261847876D02*
X358455090Y-261296325D01*
X270636599Y-325600684D02*
X270485100Y-326716388D01*
X265380725Y-297535172D02*
X265899558Y-299195633D01*
X349961305Y-257700747D02*
X349092056Y-257628977D01*
X359277973Y-496405318D02*
X356488960Y-498388487D01*
X318394079Y-245452760D02*
X317438442Y-245389207D01*
X365328165Y-276840710D02*
X365336452Y-276178541D01*
X337958994Y-347745985D02*
X338531798Y-347765057D01*
X265535962Y-282849850D02*
X265203781Y-284064721D01*
X310362792Y-246254199D02*
X309408268Y-246564163D01*
X269710567Y-386007981D02*
X274309235Y-382282645D01*
X360281771Y-328857701D02*
X360309386Y-327831819D01*
X335534356Y-347549112D02*
X336145859Y-347615827D01*
X372140243Y-300695235D02*
X372005595Y-299411937D01*
X284891832Y-349193872D02*
X285920213Y-349532275D01*
X281749015Y-266012063D02*
X280603529Y-266414587D01*
X270616321Y-332256278D02*
X270811185Y-333315918D01*
X367146984Y-314550629D02*
X367653049Y-314015265D01*
X367016991Y-489702654D02*
X364546458Y-492057933D01*
X284111656Y-265381161D02*
X282918907Y-265667051D01*
X284396450Y-376014495D02*
X287086692Y-374710759D01*
X363647494Y-286770028D02*
X362611241Y-286232707D01*
X290819610Y-264921041D02*
X289950913Y-264875206D01*
X300161184Y-349173733D02*
X300685204Y-348978575D01*
X375217505Y-398916553D02*
X376873608Y-401416381D01*
X345392208Y-346874827D02*
X346378899Y-346561279D01*
X360318463Y-263046941D02*
X359723592Y-262431805D01*
X336814389Y-262314373D02*
X336662393Y-261421910D01*
X305819130Y-248222117D02*
X304985547Y-248734934D01*
X331059718Y-370049398D02*
X331059718Y-346025236D01*
X303403869Y-249869889D02*
X302658358Y-250489549D01*
X360199812Y-329870139D02*
X360281771Y-328857701D01*
X364043608Y-283264123D02*
X364268191Y-282646099D01*
X350949981Y-344365469D02*
X351782401Y-343809473D01*
X333781160Y-347283120D02*
X334344672Y-347382463D01*
X355462269Y-340514302D02*
X356092475Y-339761009D01*
X356488960Y-498388487D02*
X353602727Y-500238682D01*
X275937388Y-314689268D02*
X275198111Y-315538515D01*
X371608289Y-484651265D02*
X369372425Y-487232275D01*
X267996533Y-277187647D02*
X267402958Y-278259771D01*
X286970421Y-349822329D02*
X288041060Y-350062681D01*
X293405424Y-265247038D02*
X292547719Y-265107080D01*
X334931515Y-347471226D02*
X335534356Y-347549112D01*
X296032447Y-263066953D02*
X295953087Y-264068111D01*
X328602265Y-249162708D02*
X327862000Y-248666347D01*
X247269284Y-423920174D02*
X247995373Y-420953633D01*
X297173299Y-258304207D02*
X296850229Y-259220220D01*
X296163133Y-262080345D02*
X296032447Y-263066953D01*
X245579452Y-439403293D02*
X245579452Y-439403293D01*
X332753472Y-347053873D02*
X333248316Y-347173491D01*
X387032851Y-450236534D02*
X386407257Y-453739557D01*
X375703430Y-479175228D02*
X373720114Y-481964093D01*
X274507376Y-316422777D02*
X273866162Y-317339895D01*
X364268191Y-282646099D02*
X364471801Y-282021232D01*
X317438442Y-245389207D02*
X316471243Y-245367814D01*
X356684318Y-338979222D02*
X357236466Y-338170197D01*
X270360994Y-328979461D02*
X270389829Y-330086696D01*
X283886676Y-348808475D02*
X284891832Y-349193872D01*
X304180029Y-249284604D02*
X303403869Y-249869889D01*
X364654294Y-281390062D02*
X364815523Y-280753128D01*
X338001130Y-261251814D02*
X337396057Y-261767495D01*
X302379583Y-509091685D02*
X298937962Y-508297566D01*
X365170164Y-278813141D02*
X365244875Y-278158550D01*
X362938488Y-285656994D02*
X363245494Y-285071739D01*
X359090535Y-321167535D02*
X358881535Y-320639153D01*
X344288365Y-258101996D02*
X343530373Y-258313052D01*
X272736208Y-319264068D02*
X272249426Y-320266806D01*
X336236289Y-259680033D02*
X335964147Y-258832494D01*
X327862000Y-248666347D02*
X327098385Y-248200897D01*
X252594339Y-470246038D02*
X251169757Y-467094991D01*
X266364903Y-280497711D02*
X265923519Y-281660310D01*
X372028015Y-304434033D02*
X372115174Y-303634873D01*
X333047806Y-253424011D02*
X332498495Y-252737518D01*
X252096597Y-409617886D02*
X253406589Y-406931076D01*
X248844055Y-418037229D02*
X249812423Y-415173867D01*
X277557654Y-313104451D02*
X276724229Y-313877194D01*
X296850229Y-259220220D02*
X296573316Y-260155740D01*
X307565323Y-247311999D02*
X306679486Y-247747392D01*
X359355179Y-333760376D02*
X359641193Y-332814253D01*
X360095082Y-325000259D02*
X360001344Y-324441041D01*
X273866162Y-317339895D02*
X273275446Y-318287712D01*
X277557654Y-313104451D02*
X277557654Y-313104451D01*
X245672015Y-443064516D02*
X245579452Y-439403293D01*
X360966030Y-383695331D02*
X363265838Y-385604744D01*
X354097208Y-258732448D02*
X353301670Y-258440294D01*
X383534946Y-414940449D02*
X384522395Y-417829226D01*
X373720114Y-481964093D02*
X371608289Y-484651265D01*
X365073604Y-279464128D02*
X365170164Y-278813141D01*
X271058599Y-334356985D02*
X271357167Y-335378128D01*
X276724229Y-313877194D02*
X275937388Y-314689268D01*
X339076591Y-347771480D02*
X339076591Y-347771480D01*
X324677262Y-246999389D02*
X323830069Y-246666959D01*
X272249426Y-320266806D02*
X271816078Y-321293768D01*
X368597283Y-312874666D02*
X369033864Y-312271142D01*
X295933325Y-265660220D02*
X295937428Y-265756583D01*
X247024706Y-453741457D02*
X246399112Y-450238063D01*
X287086692Y-374710759D02*
X289838497Y-373518152D01*
X266522348Y-300804430D02*
X267244957Y-302357261D01*
X267402958Y-278259771D02*
X266858565Y-279363661D01*
X289080262Y-264860992D02*
X289080262Y-264860992D01*
X360300752Y-327262052D02*
X360274913Y-326693630D01*
X368136747Y-313456326D02*
X368597283Y-312874666D01*
X272210489Y-309131362D02*
X273445130Y-310258056D01*
X362611241Y-286232707D02*
X362938488Y-285656994D01*
X336145859Y-347615827D02*
X336758690Y-347671074D01*
X360309386Y-327831819D02*
X360300752Y-327262052D01*
X264459784Y-289145341D02*
X264427708Y-290462735D01*
X245946725Y-446677594D02*
X245672015Y-443064516D01*
X295562272Y-507339213D02*
X292256984Y-506221092D01*
X377553767Y-476289137D02*
X375703430Y-479175228D01*
X278391971Y-267385736D02*
X277328995Y-267951142D01*
X330673136Y-250827886D02*
X330008815Y-250244415D01*
X343357002Y-347366279D02*
X344384465Y-347143579D01*
X371352451Y-307506144D02*
X371568792Y-306758506D01*
X360231959Y-326126935D02*
X360171985Y-325562351D01*
X296573316Y-260155740D02*
X296343853Y-261109528D01*
X295928414Y-265467880D02*
X295933325Y-265660220D01*
X316715989Y-510536525D02*
X316715989Y-510536525D01*
X340169614Y-347745528D02*
X341248245Y-347668508D01*
X264059542Y-487234902D02*
X261823678Y-484654014D01*
X372185855Y-302005184D02*
X372185855Y-302005184D01*
X334923146Y-256394725D02*
X334504561Y-255620210D01*
X254165310Y-473313222D02*
X252594339Y-470246038D01*
X343530373Y-258313052D02*
X342784240Y-258560076D01*
X264489341Y-292286829D02*
X264671479Y-294076468D01*
X369831981Y-311001924D02*
X370191929Y-310337941D01*
X295103863Y-265620210D02*
X294257756Y-265418122D01*
X282808227Y-501952767D02*
X279829243Y-500240222D01*
X338531798Y-347765057D02*
X339076591Y-347771480D01*
X350817970Y-257818934D02*
X349961305Y-257700747D01*
X257973312Y-399270219D02*
X261519356Y-394525003D01*
X264671479Y-294076468D02*
X264969986Y-295827350D01*
X350088521Y-344884192D02*
X350949981Y-344365469D01*
X312331482Y-245768371D02*
X311337627Y-245988521D01*
X298565051Y-349679962D02*
X299100857Y-349524476D01*
X348283803Y-345804805D02*
X349199351Y-345364389D01*
X354092094Y-341930392D02*
X354795031Y-341237848D01*
X333248316Y-347173491D02*
X333781160Y-347283120D01*
X331310178Y-251438518D02*
X330673136Y-250827886D01*
X274750630Y-311298671D02*
X276122851Y-312248903D01*
X360171985Y-325562351D02*
X360095082Y-325000259D01*
X292547719Y-265107080D02*
X291685496Y-264998374D01*
X295942888Y-265853178D02*
X295103863Y-265620210D01*
X372005595Y-299411937D02*
X371785197Y-298158840D01*
X305882667Y-509717105D02*
X302379583Y-509091685D01*
X264554977Y-287845234D02*
X264459784Y-289145341D01*
X361965296Y-494293644D02*
X359277973Y-496405318D01*
X358586254Y-381882275D02*
X360966030Y-383695331D01*
X347343208Y-346204186D02*
X348283803Y-345804805D01*
X357088771Y-260295032D02*
X356371626Y-259847631D01*
X286559534Y-264993180D02*
X285325715Y-265156001D01*
X362855853Y-266549773D02*
X362410234Y-265796152D01*
X265899558Y-299195633D02*
X266522348Y-300804430D01*
X276943009Y-498390232D02*
X274153996Y-496407264D01*
X336814389Y-262314373D02*
X336814389Y-262314373D01*
X316471243Y-245367814D02*
X315414236Y-245393468D01*
X247995373Y-420953633D02*
X248844055Y-418037229D01*
X363989867Y-268951076D02*
X363646749Y-268128404D01*
X282918907Y-265667051D02*
X281749015Y-266012063D01*
X336469365Y-260543484D02*
X336236289Y-259680033D01*
X335964147Y-258832494D02*
X335653921Y-258001805D01*
X387852511Y-439403293D02*
X387852511Y-439403293D01*
X290238047Y-350388865D02*
X291361601Y-350471990D01*
X360309386Y-327831819D02*
X360309386Y-327831819D01*
X337028946Y-371207067D02*
X339940545Y-372141152D01*
X306679486Y-247747392D02*
X305819130Y-248222117D01*
X270056865Y-274177974D02*
X269325035Y-275145140D01*
X370642348Y-294616272D02*
X370111795Y-293519494D01*
X257728536Y-479178136D02*
X255878198Y-476292076D01*
X358656438Y-320116707D02*
X358415338Y-319600579D01*
X341174988Y-506220350D02*
X337869701Y-507338646D01*
X271050842Y-307922890D02*
X272210489Y-309131362D01*
X295926347Y-265082581D02*
X295926347Y-265082581D01*
X365482681Y-387607511D02*
X367613561Y-389700629D01*
X254824643Y-404308925D02*
X257973312Y-399270219D01*
X384654328Y-460556705D02*
X383535932Y-463861893D01*
X371754030Y-305996705D02*
X371907369Y-305221595D01*
X298406532Y-255685600D02*
X297952743Y-256535658D01*
X360274913Y-326693630D02*
X360231959Y-326126935D01*
X371100289Y-295757457D02*
X370642348Y-294616272D01*
X364566048Y-270657279D02*
X364296659Y-269794424D01*
X366484812Y-288825985D02*
X365587564Y-288070218D01*
X264928524Y-285303315D02*
X264711740Y-286564022D01*
X279829243Y-500240222D02*
X276943009Y-498390232D01*
X335653921Y-258001805D02*
X335306593Y-257188903D01*
X277328995Y-267951142D02*
X276296619Y-268567624D01*
X353301670Y-258440294D02*
X352489232Y-258189877D01*
X346620664Y-257689938D02*
X345834794Y-257789909D01*
X359620037Y-322784465D02*
X359459879Y-322240573D01*
X294732441Y-350392512D02*
X295286987Y-350331336D01*
X340629824Y-259511654D02*
X339943956Y-259897249D01*
X314371078Y-245469605D02*
X313343063Y-245594986D01*
X298025817Y-349822123D02*
X298565051Y-349679962D01*
X353602727Y-500238682D02*
X350623744Y-501951434D01*
X298937962Y-508297566D02*
X295562272Y-507339213D01*
X325505034Y-247366481D02*
X324677262Y-246999389D01*
X371482334Y-296939496D02*
X371100289Y-295757457D01*
X331907130Y-346785849D02*
X332303966Y-346924561D01*
X358216352Y-336475444D02*
X358641426Y-335592226D01*
X289080262Y-264860992D02*
X287811566Y-264894307D01*
X352584447Y-343217458D02*
X353354788Y-342590680D01*
X270360994Y-328979461D02*
X270360994Y-328979461D01*
X359459879Y-322240573D02*
X359283348Y-321701469D01*
X358894131Y-318975683D02*
X359618689Y-318824661D01*
X309408268Y-246564163D02*
X308475347Y-246917177D01*
X274329862Y-269947382D02*
X273398578Y-270707438D01*
X289838497Y-373518152D02*
X292648958Y-372439579D01*
X366619347Y-315061561D02*
X367146984Y-314550629D01*
X270811185Y-333315918D02*
X271058599Y-334356985D01*
X296343853Y-261109528D02*
X296163133Y-262080345D01*
X301426377Y-348436248D02*
X301426377Y-370241220D01*
X376873608Y-401416381D02*
X378425763Y-403988541D01*
X364796952Y-271538472D02*
X364566048Y-270657279D01*
X363245494Y-285071739D02*
X363532114Y-284477482D01*
X326312402Y-247767295D02*
X325505034Y-247366481D01*
X265923519Y-281660310D02*
X265535962Y-282849850D01*
X367613561Y-389700629D02*
X369655481Y-391881096D01*
X342051249Y-258842538D02*
X341332682Y-259159907D01*
X334051821Y-254866294D02*
X333565909Y-254133915D01*
X367329155Y-289647465D02*
X366484812Y-288825985D01*
X253406589Y-406931076D02*
X254824643Y-404308925D01*
X334344672Y-347382463D02*
X334931515Y-347471226D01*
X358158326Y-319091151D02*
X358158326Y-319091151D01*
X359618689Y-318824661D02*
X360331206Y-318638941D01*
X369372425Y-487232275D02*
X367016991Y-489702654D01*
X364988294Y-272436832D02*
X364796952Y-271538472D01*
X368845991Y-291473360D02*
X368117310Y-290531107D01*
X386128492Y-423766721D02*
X386741145Y-426809432D01*
X276122851Y-312248903D02*
X277557654Y-313104451D01*
X264711740Y-286564022D02*
X264554977Y-287845234D01*
X372168052Y-302824971D02*
X372185855Y-302005184D01*
X373460451Y-396492061D02*
X375217505Y-398916553D01*
X300685204Y-348978575D02*
X301204796Y-348770292D01*
X371785197Y-298158840D02*
X371482334Y-296939496D01*
X360331206Y-318638941D02*
X361030887Y-318419378D01*
X347413262Y-257628056D02*
X346620664Y-257689938D01*
X274309235Y-382282645D02*
X279212279Y-378943738D01*
X337869701Y-507338646D02*
X334494012Y-508297157D01*
X302658358Y-250489549D02*
X301944790Y-251142345D01*
X344384465Y-347143579D02*
X345392208Y-346874827D01*
X297952743Y-256535658D02*
X297541235Y-257408940D01*
X355633265Y-259437286D02*
X354874766Y-259065169D01*
X370829633Y-308955504D02*
X371105800Y-308238761D01*
X381206237Y-409337848D02*
X382428561Y-412108988D01*
X363532114Y-284477482D02*
X363798201Y-283874764D01*
X264427708Y-290462735D02*
X264489341Y-292286829D01*
X296390050Y-350168169D02*
X296938066Y-350066277D01*
X379870972Y-406630032D02*
X381206237Y-409337848D01*
X361030887Y-318419378D02*
X361716937Y-318166828D01*
X289130734Y-350251978D02*
X290238047Y-350388865D01*
X364640696Y-287383716D02*
X363647494Y-286770028D01*
X322964438Y-246370128D02*
X322081350Y-246109833D01*
X358455090Y-261296325D02*
X357783618Y-260778320D01*
X331570301Y-346638035D02*
X331907130Y-346785849D01*
X336662393Y-261421910D02*
X336469365Y-260543484D01*
X358415338Y-319600579D02*
X358158326Y-319091151D01*
X370111795Y-293519494D02*
X369511914Y-292470673D01*
X294176219Y-350440016D02*
X294732441Y-350392512D01*
X370524744Y-309655516D02*
X370829633Y-308955504D01*
X270389829Y-330086696D02*
X270475403Y-331179419D01*
X378425763Y-403988541D02*
X379870972Y-406630032D01*
X265439524Y-390096512D02*
X269710567Y-386007981D01*
X247819038Y-457183312D02*
X247024706Y-453741457D01*
X267244957Y-302357261D02*
X268063249Y-303849825D01*
X356129509Y-380168580D02*
X358586254Y-381882275D01*
X363646749Y-268128404D02*
X363268384Y-267327580D01*
X363265838Y-385604744D02*
X365482681Y-387607511D01*
X364296659Y-269794424D02*
X363989867Y-268951076D01*
X316471243Y-245367814D02*
X316471243Y-245367814D01*
X301264456Y-251827038D02*
X300618648Y-252542390D01*
X351782401Y-343809473D02*
X352584447Y-343217458D01*
X268885509Y-492060251D02*
X266414976Y-489705136D01*
X270846425Y-324498411D02*
X270636599Y-325600684D01*
X296938066Y-350066277D02*
X297483405Y-349950912D01*
X369655481Y-391881096D02*
X371605444Y-394145907D01*
X272504087Y-271512135D02*
X271647939Y-272359862D01*
X261519356Y-394525003D02*
X265439524Y-390096512D01*
X342311152Y-347541673D02*
X343357002Y-347366279D01*
X365336452Y-276178541D02*
X365314152Y-275223213D01*
X369445695Y-311646610D02*
X369831981Y-311001924D01*
X295926605Y-265275540D02*
X295928414Y-265467880D01*
X364471801Y-282021232D02*
X364654294Y-281390062D01*
X331052391Y-509091413D02*
X327549309Y-509716947D01*
X246196510Y-429992053D02*
X246668694Y-426933949D01*
X387570673Y-433027765D02*
X387781552Y-436197381D01*
X271647939Y-272359862D02*
X270831682Y-273249012D01*
X332303966Y-346924561D02*
X332753472Y-347053873D01*
X321181788Y-245887011D02*
X320266734Y-245702600D01*
X285875492Y-503523404D02*
X282808227Y-501952767D01*
X295926347Y-265082581D02*
X295926605Y-265275540D01*
X360001344Y-324441041D02*
X359890862Y-323885082D01*
X248777636Y-460559162D02*
X247819038Y-457183312D01*
X360885642Y-263692113D02*
X360318463Y-263046941D01*
X365138994Y-273351188D02*
X364988294Y-272436832D01*
X255878198Y-476292076D02*
X254165310Y-473313222D01*
X337365513Y-347714558D02*
X337958994Y-347745985D01*
X387759948Y-443063934D02*
X387485238Y-446676503D01*
X319337170Y-245557537D02*
X318394079Y-245452760D01*
X327098385Y-248200897D02*
X326312402Y-247767295D01*
X246668694Y-426933949D02*
X247269284Y-423920174D01*
X385612926Y-457181103D02*
X384654328Y-460556705D01*
X351660972Y-257982367D02*
X350817970Y-257818934D01*
X271466673Y-494295782D02*
X268885509Y-492060251D01*
X352489232Y-258189877D02*
X351660972Y-257982367D01*
X289026567Y-504947668D02*
X285875492Y-503523404D01*
X371105800Y-308238761D02*
X371352451Y-307506144D01*
X315414236Y-245393468D02*
X314371078Y-245469605D01*
X246399112Y-450238063D02*
X245946725Y-446677594D01*
X383535932Y-463861893D02*
X382262208Y-467092198D01*
X259711852Y-481966937D02*
X257728536Y-479178136D01*
X382262208Y-467092198D02*
X380837626Y-470243153D01*
X365502530Y-316006710D02*
X366070931Y-315547207D01*
X365297590Y-277500893D02*
X365328165Y-276840710D01*
X367653049Y-314015265D02*
X368136747Y-313456326D01*
X384522395Y-417829226D02*
X385387909Y-420772318D01*
D11*
X245648983Y-436229629D02*
X245855638Y-433091581D01*
X245579452Y-439403293D02*
X245648983Y-436229629D01*
X295515171Y-371477944D02*
X298500000Y-370636151D01*
X298500000Y-370636151D02*
X301426377Y-370241220D01*
X274762139Y-341854521D02*
X274144597Y-341010754D01*
X272545827Y-338308468D02*
X272102177Y-337355223D01*
X276115772Y-343448441D02*
X275419663Y-342667534D01*
X277618160Y-344908521D02*
X278421646Y-345584987D01*
X331426681Y-346560806D02*
X331059718Y-346025236D01*
X281024516Y-347383846D02*
X281951621Y-347902108D01*
X273035045Y-339236374D02*
X272545827Y-338308468D01*
X272102177Y-337355223D02*
X271705492Y-336377992D01*
X301204796Y-348770292D02*
X301426377Y-348436248D01*
X291361601Y-350471990D02*
X292500000Y-350500000D01*
X334064359Y-370396367D02*
X331059718Y-370049398D01*
X279258132Y-346223932D02*
X280126221Y-346824003D01*
X276849070Y-344195888D02*
X276115772Y-343448441D01*
X271705492Y-336377992D02*
X271357167Y-335378128D01*
X292500000Y-350500000D02*
X293059748Y-350493809D01*
X278421646Y-345584987D02*
X279258132Y-346223932D01*
X273568433Y-340137587D02*
X273035045Y-339236374D01*
X276849070Y-344195888D02*
X277618160Y-344908521D01*
X274144597Y-341010754D02*
X273568433Y-340137587D01*
X281951621Y-347902108D02*
X282906140Y-348377435D01*
X275419663Y-342667534D02*
X274762139Y-341854521D01*
X280126221Y-346824003D02*
X281024516Y-347383846D01*
X282906140Y-348377435D02*
X283886676Y-348808475D01*
M02*
