%TF.GenerationSoftware,KiCad,Pcbnew,7.0.2*%
%TF.CreationDate,2023-05-26T22:51:46-07:00*%
%TF.ProjectId,plumbus-bfb,706c756d-6275-4732-9d62-66622e6b6963,rev?*%
%TF.SameCoordinates,Original*%
%TF.FileFunction,Legend,Top*%
%TF.FilePolarity,Positive*%
%FSLAX46Y46*%
G04 Gerber Fmt 4.6, Leading zero omitted, Abs format (unit mm)*
G04 Created by KiCad (PCBNEW 7.0.2) date 2023-05-26 22:51:46*
%MOMM*%
%LPD*%
G01*
G04 APERTURE LIST*
%ADD10C,5.000000*%
%ADD11C,1.500000*%
%ADD12C,1.270000*%
%ADD13C,0.150000*%
%ADD14C,0.120000*%
%ADD15C,0.127000*%
%ADD16C,0.200000*%
G04 APERTURE END LIST*
D10*
X337251172Y-496144092D02*
G75*
G03*
X370638871Y-466695541I-20549999J56949999D01*
G01*
X296151174Y-382244096D02*
G75*
G03*
X262763476Y-411692647I20549999J-56949998D01*
G01*
D11*
X386750000Y-439250000D02*
G75*
G03*
X386750000Y-439250000I-70000000J0D01*
G01*
D12*
X301454506Y-347856105D02*
G75*
G03*
X330714996Y-347869688I14635902J12179885D01*
G01*
X307713491Y-325160391D02*
G75*
G03*
X302714995Y-317869690I-19498473J-8009299D01*
G01*
X361753210Y-276367494D02*
G75*
G03*
X345219474Y-262476956I-13983692J140604D01*
G01*
X337343653Y-281561897D02*
G75*
G03*
X350364996Y-289869687I15121365J9342207D01*
G01*
X365064993Y-313619685D02*
G75*
G03*
X369338883Y-305594573I-13799975J12499995D01*
G01*
X274435011Y-335387441D02*
G75*
G03*
X286364996Y-347369687I18829977J6817751D01*
G01*
X368665000Y-296119687D02*
G75*
G03*
X365210055Y-289850315I-15399982J-4400003D01*
G01*
X339262493Y-308267122D02*
G75*
G03*
X330864996Y-312019689I5152525J-22802568D01*
G01*
X346380006Y-306559999D02*
G75*
G03*
X349514997Y-313069687I15885012J3640309D01*
G01*
X305212803Y-267387544D02*
G75*
G03*
X330264996Y-266269688I12202195J7817854D01*
G01*
X339514995Y-345269677D02*
G75*
G03*
X350216185Y-341901098I-1799977J24399987D01*
G01*
X295814995Y-300719687D02*
G75*
G03*
X298357152Y-287376874I-14099977J9599997D01*
G01*
X316084705Y-247573443D02*
G75*
G03*
X304114996Y-253569688I2480283J-19896237D01*
G01*
X327364999Y-319869690D02*
G75*
G03*
X322162615Y-297396048I-11400001J9200000D01*
G01*
X278314997Y-271669690D02*
G75*
G03*
X267617419Y-290585090I12850001J-19750000D01*
G01*
X297214996Y-314369687D02*
G75*
G03*
X286324479Y-312402905I-8999998J-18700003D01*
G01*
X326415008Y-329069680D02*
G75*
G03*
X318105395Y-323675287I-10449990J-7000010D01*
G01*
D13*
X323850000Y-432200000D02*
G75*
G03*
X323850000Y-432200000I-7100000J0D01*
G01*
%TO.C,S1*%
X316665000Y-420161904D02*
X316712619Y-420019047D01*
X316712619Y-420019047D02*
X316712619Y-419780952D01*
X316712619Y-419780952D02*
X316665000Y-419685714D01*
X316665000Y-419685714D02*
X316617380Y-419638095D01*
X316617380Y-419638095D02*
X316522142Y-419590476D01*
X316522142Y-419590476D02*
X316426904Y-419590476D01*
X316426904Y-419590476D02*
X316331666Y-419638095D01*
X316331666Y-419638095D02*
X316284047Y-419685714D01*
X316284047Y-419685714D02*
X316236428Y-419780952D01*
X316236428Y-419780952D02*
X316188809Y-419971428D01*
X316188809Y-419971428D02*
X316141190Y-420066666D01*
X316141190Y-420066666D02*
X316093571Y-420114285D01*
X316093571Y-420114285D02*
X315998333Y-420161904D01*
X315998333Y-420161904D02*
X315903095Y-420161904D01*
X315903095Y-420161904D02*
X315807857Y-420114285D01*
X315807857Y-420114285D02*
X315760238Y-420066666D01*
X315760238Y-420066666D02*
X315712619Y-419971428D01*
X315712619Y-419971428D02*
X315712619Y-419733333D01*
X315712619Y-419733333D02*
X315760238Y-419590476D01*
X316712619Y-418638095D02*
X316712619Y-419209523D01*
X316712619Y-418923809D02*
X315712619Y-418923809D01*
X315712619Y-418923809D02*
X315855476Y-419019047D01*
X315855476Y-419019047D02*
X315950714Y-419114285D01*
X315950714Y-419114285D02*
X315998333Y-419209523D01*
%TO.C,Button 8*%
X314085713Y-288938809D02*
X314228570Y-288986428D01*
X314228570Y-288986428D02*
X314276189Y-289034047D01*
X314276189Y-289034047D02*
X314323808Y-289129285D01*
X314323808Y-289129285D02*
X314323808Y-289272142D01*
X314323808Y-289272142D02*
X314276189Y-289367380D01*
X314276189Y-289367380D02*
X314228570Y-289415000D01*
X314228570Y-289415000D02*
X314133332Y-289462619D01*
X314133332Y-289462619D02*
X313752380Y-289462619D01*
X313752380Y-289462619D02*
X313752380Y-288462619D01*
X313752380Y-288462619D02*
X314085713Y-288462619D01*
X314085713Y-288462619D02*
X314180951Y-288510238D01*
X314180951Y-288510238D02*
X314228570Y-288557857D01*
X314228570Y-288557857D02*
X314276189Y-288653095D01*
X314276189Y-288653095D02*
X314276189Y-288748333D01*
X314276189Y-288748333D02*
X314228570Y-288843571D01*
X314228570Y-288843571D02*
X314180951Y-288891190D01*
X314180951Y-288891190D02*
X314085713Y-288938809D01*
X314085713Y-288938809D02*
X313752380Y-288938809D01*
X315180951Y-288795952D02*
X315180951Y-289462619D01*
X314752380Y-288795952D02*
X314752380Y-289319761D01*
X314752380Y-289319761D02*
X314799999Y-289415000D01*
X314799999Y-289415000D02*
X314895237Y-289462619D01*
X314895237Y-289462619D02*
X315038094Y-289462619D01*
X315038094Y-289462619D02*
X315133332Y-289415000D01*
X315133332Y-289415000D02*
X315180951Y-289367380D01*
X315514285Y-288795952D02*
X315895237Y-288795952D01*
X315657142Y-288462619D02*
X315657142Y-289319761D01*
X315657142Y-289319761D02*
X315704761Y-289415000D01*
X315704761Y-289415000D02*
X315799999Y-289462619D01*
X315799999Y-289462619D02*
X315895237Y-289462619D01*
X316085714Y-288795952D02*
X316466666Y-288795952D01*
X316228571Y-288462619D02*
X316228571Y-289319761D01*
X316228571Y-289319761D02*
X316276190Y-289415000D01*
X316276190Y-289415000D02*
X316371428Y-289462619D01*
X316371428Y-289462619D02*
X316466666Y-289462619D01*
X316942857Y-289462619D02*
X316847619Y-289415000D01*
X316847619Y-289415000D02*
X316800000Y-289367380D01*
X316800000Y-289367380D02*
X316752381Y-289272142D01*
X316752381Y-289272142D02*
X316752381Y-288986428D01*
X316752381Y-288986428D02*
X316800000Y-288891190D01*
X316800000Y-288891190D02*
X316847619Y-288843571D01*
X316847619Y-288843571D02*
X316942857Y-288795952D01*
X316942857Y-288795952D02*
X317085714Y-288795952D01*
X317085714Y-288795952D02*
X317180952Y-288843571D01*
X317180952Y-288843571D02*
X317228571Y-288891190D01*
X317228571Y-288891190D02*
X317276190Y-288986428D01*
X317276190Y-288986428D02*
X317276190Y-289272142D01*
X317276190Y-289272142D02*
X317228571Y-289367380D01*
X317228571Y-289367380D02*
X317180952Y-289415000D01*
X317180952Y-289415000D02*
X317085714Y-289462619D01*
X317085714Y-289462619D02*
X316942857Y-289462619D01*
X317704762Y-288795952D02*
X317704762Y-289462619D01*
X317704762Y-288891190D02*
X317752381Y-288843571D01*
X317752381Y-288843571D02*
X317847619Y-288795952D01*
X317847619Y-288795952D02*
X317990476Y-288795952D01*
X317990476Y-288795952D02*
X318085714Y-288843571D01*
X318085714Y-288843571D02*
X318133333Y-288938809D01*
X318133333Y-288938809D02*
X318133333Y-289462619D01*
X319514286Y-288891190D02*
X319419048Y-288843571D01*
X319419048Y-288843571D02*
X319371429Y-288795952D01*
X319371429Y-288795952D02*
X319323810Y-288700714D01*
X319323810Y-288700714D02*
X319323810Y-288653095D01*
X319323810Y-288653095D02*
X319371429Y-288557857D01*
X319371429Y-288557857D02*
X319419048Y-288510238D01*
X319419048Y-288510238D02*
X319514286Y-288462619D01*
X319514286Y-288462619D02*
X319704762Y-288462619D01*
X319704762Y-288462619D02*
X319800000Y-288510238D01*
X319800000Y-288510238D02*
X319847619Y-288557857D01*
X319847619Y-288557857D02*
X319895238Y-288653095D01*
X319895238Y-288653095D02*
X319895238Y-288700714D01*
X319895238Y-288700714D02*
X319847619Y-288795952D01*
X319847619Y-288795952D02*
X319800000Y-288843571D01*
X319800000Y-288843571D02*
X319704762Y-288891190D01*
X319704762Y-288891190D02*
X319514286Y-288891190D01*
X319514286Y-288891190D02*
X319419048Y-288938809D01*
X319419048Y-288938809D02*
X319371429Y-288986428D01*
X319371429Y-288986428D02*
X319323810Y-289081666D01*
X319323810Y-289081666D02*
X319323810Y-289272142D01*
X319323810Y-289272142D02*
X319371429Y-289367380D01*
X319371429Y-289367380D02*
X319419048Y-289415000D01*
X319419048Y-289415000D02*
X319514286Y-289462619D01*
X319514286Y-289462619D02*
X319704762Y-289462619D01*
X319704762Y-289462619D02*
X319800000Y-289415000D01*
X319800000Y-289415000D02*
X319847619Y-289367380D01*
X319847619Y-289367380D02*
X319895238Y-289272142D01*
X319895238Y-289272142D02*
X319895238Y-289081666D01*
X319895238Y-289081666D02*
X319847619Y-288986428D01*
X319847619Y-288986428D02*
X319800000Y-288938809D01*
X319800000Y-288938809D02*
X319704762Y-288891190D01*
%TO.C,Button 1*%
X314055713Y-343288809D02*
X314198570Y-343336428D01*
X314198570Y-343336428D02*
X314246189Y-343384047D01*
X314246189Y-343384047D02*
X314293808Y-343479285D01*
X314293808Y-343479285D02*
X314293808Y-343622142D01*
X314293808Y-343622142D02*
X314246189Y-343717380D01*
X314246189Y-343717380D02*
X314198570Y-343765000D01*
X314198570Y-343765000D02*
X314103332Y-343812619D01*
X314103332Y-343812619D02*
X313722380Y-343812619D01*
X313722380Y-343812619D02*
X313722380Y-342812619D01*
X313722380Y-342812619D02*
X314055713Y-342812619D01*
X314055713Y-342812619D02*
X314150951Y-342860238D01*
X314150951Y-342860238D02*
X314198570Y-342907857D01*
X314198570Y-342907857D02*
X314246189Y-343003095D01*
X314246189Y-343003095D02*
X314246189Y-343098333D01*
X314246189Y-343098333D02*
X314198570Y-343193571D01*
X314198570Y-343193571D02*
X314150951Y-343241190D01*
X314150951Y-343241190D02*
X314055713Y-343288809D01*
X314055713Y-343288809D02*
X313722380Y-343288809D01*
X315150951Y-343145952D02*
X315150951Y-343812619D01*
X314722380Y-343145952D02*
X314722380Y-343669761D01*
X314722380Y-343669761D02*
X314769999Y-343765000D01*
X314769999Y-343765000D02*
X314865237Y-343812619D01*
X314865237Y-343812619D02*
X315008094Y-343812619D01*
X315008094Y-343812619D02*
X315103332Y-343765000D01*
X315103332Y-343765000D02*
X315150951Y-343717380D01*
X315484285Y-343145952D02*
X315865237Y-343145952D01*
X315627142Y-342812619D02*
X315627142Y-343669761D01*
X315627142Y-343669761D02*
X315674761Y-343765000D01*
X315674761Y-343765000D02*
X315769999Y-343812619D01*
X315769999Y-343812619D02*
X315865237Y-343812619D01*
X316055714Y-343145952D02*
X316436666Y-343145952D01*
X316198571Y-342812619D02*
X316198571Y-343669761D01*
X316198571Y-343669761D02*
X316246190Y-343765000D01*
X316246190Y-343765000D02*
X316341428Y-343812619D01*
X316341428Y-343812619D02*
X316436666Y-343812619D01*
X316912857Y-343812619D02*
X316817619Y-343765000D01*
X316817619Y-343765000D02*
X316770000Y-343717380D01*
X316770000Y-343717380D02*
X316722381Y-343622142D01*
X316722381Y-343622142D02*
X316722381Y-343336428D01*
X316722381Y-343336428D02*
X316770000Y-343241190D01*
X316770000Y-343241190D02*
X316817619Y-343193571D01*
X316817619Y-343193571D02*
X316912857Y-343145952D01*
X316912857Y-343145952D02*
X317055714Y-343145952D01*
X317055714Y-343145952D02*
X317150952Y-343193571D01*
X317150952Y-343193571D02*
X317198571Y-343241190D01*
X317198571Y-343241190D02*
X317246190Y-343336428D01*
X317246190Y-343336428D02*
X317246190Y-343622142D01*
X317246190Y-343622142D02*
X317198571Y-343717380D01*
X317198571Y-343717380D02*
X317150952Y-343765000D01*
X317150952Y-343765000D02*
X317055714Y-343812619D01*
X317055714Y-343812619D02*
X316912857Y-343812619D01*
X317674762Y-343145952D02*
X317674762Y-343812619D01*
X317674762Y-343241190D02*
X317722381Y-343193571D01*
X317722381Y-343193571D02*
X317817619Y-343145952D01*
X317817619Y-343145952D02*
X317960476Y-343145952D01*
X317960476Y-343145952D02*
X318055714Y-343193571D01*
X318055714Y-343193571D02*
X318103333Y-343288809D01*
X318103333Y-343288809D02*
X318103333Y-343812619D01*
X319865238Y-343812619D02*
X319293810Y-343812619D01*
X319579524Y-343812619D02*
X319579524Y-342812619D01*
X319579524Y-342812619D02*
X319484286Y-342955476D01*
X319484286Y-342955476D02*
X319389048Y-343050714D01*
X319389048Y-343050714D02*
X319293810Y-343098333D01*
%TO.C,SAO 1*%
X297750653Y-264115886D02*
X297864412Y-264214549D01*
X297864412Y-264214549D02*
X298084384Y-264305664D01*
X298084384Y-264305664D02*
X298190595Y-264298116D01*
X298190595Y-264298116D02*
X298252812Y-264272345D01*
X298252812Y-264272345D02*
X298333253Y-264202579D01*
X298333253Y-264202579D02*
X298369699Y-264114591D01*
X298369699Y-264114591D02*
X298362151Y-264008379D01*
X298362151Y-264008379D02*
X298336379Y-263946162D01*
X298336379Y-263946162D02*
X298266614Y-263865722D01*
X298266614Y-263865722D02*
X298108860Y-263748835D01*
X298108860Y-263748835D02*
X298039094Y-263668395D01*
X298039094Y-263668395D02*
X298013323Y-263606178D01*
X298013323Y-263606178D02*
X298005775Y-263499966D01*
X298005775Y-263499966D02*
X298042221Y-263411977D01*
X298042221Y-263411977D02*
X298122661Y-263342212D01*
X298122661Y-263342212D02*
X298184878Y-263316441D01*
X298184878Y-263316441D02*
X298291090Y-263308893D01*
X298291090Y-263308893D02*
X298511061Y-263400008D01*
X298511061Y-263400008D02*
X298624821Y-263498671D01*
X298721653Y-264260375D02*
X299161596Y-264442605D01*
X298524326Y-264487894D02*
X299214970Y-263691576D01*
X299214970Y-263691576D02*
X299140246Y-264743017D01*
X300006866Y-264019590D02*
X300182844Y-264092482D01*
X300182844Y-264092482D02*
X300252609Y-264172923D01*
X300252609Y-264172923D02*
X300304152Y-264297357D01*
X300304152Y-264297357D02*
X300275254Y-264491557D01*
X300275254Y-264491557D02*
X300147693Y-264799517D01*
X300147693Y-264799517D02*
X300030806Y-264957271D01*
X300030806Y-264957271D02*
X299906372Y-265008814D01*
X299906372Y-265008814D02*
X299800160Y-265016362D01*
X299800160Y-265016362D02*
X299624183Y-264943470D01*
X299624183Y-264943470D02*
X299554418Y-264863030D01*
X299554418Y-264863030D02*
X299502875Y-264738595D01*
X299502875Y-264738595D02*
X299531773Y-264544395D01*
X299531773Y-264544395D02*
X299659334Y-264236435D01*
X299659334Y-264236435D02*
X299776220Y-264078681D01*
X299776220Y-264078681D02*
X299900655Y-264027139D01*
X299900655Y-264027139D02*
X300006866Y-264019590D01*
X301603925Y-265763506D02*
X301075994Y-265544830D01*
X301339959Y-265654168D02*
X301722643Y-264730288D01*
X301722643Y-264730288D02*
X301579985Y-264825825D01*
X301579985Y-264825825D02*
X301455551Y-264877368D01*
X301455551Y-264877368D02*
X301349339Y-264884916D01*
%TO.C,Button 2*%
X314055713Y-325288809D02*
X314198570Y-325336428D01*
X314198570Y-325336428D02*
X314246189Y-325384047D01*
X314246189Y-325384047D02*
X314293808Y-325479285D01*
X314293808Y-325479285D02*
X314293808Y-325622142D01*
X314293808Y-325622142D02*
X314246189Y-325717380D01*
X314246189Y-325717380D02*
X314198570Y-325765000D01*
X314198570Y-325765000D02*
X314103332Y-325812619D01*
X314103332Y-325812619D02*
X313722380Y-325812619D01*
X313722380Y-325812619D02*
X313722380Y-324812619D01*
X313722380Y-324812619D02*
X314055713Y-324812619D01*
X314055713Y-324812619D02*
X314150951Y-324860238D01*
X314150951Y-324860238D02*
X314198570Y-324907857D01*
X314198570Y-324907857D02*
X314246189Y-325003095D01*
X314246189Y-325003095D02*
X314246189Y-325098333D01*
X314246189Y-325098333D02*
X314198570Y-325193571D01*
X314198570Y-325193571D02*
X314150951Y-325241190D01*
X314150951Y-325241190D02*
X314055713Y-325288809D01*
X314055713Y-325288809D02*
X313722380Y-325288809D01*
X315150951Y-325145952D02*
X315150951Y-325812619D01*
X314722380Y-325145952D02*
X314722380Y-325669761D01*
X314722380Y-325669761D02*
X314769999Y-325765000D01*
X314769999Y-325765000D02*
X314865237Y-325812619D01*
X314865237Y-325812619D02*
X315008094Y-325812619D01*
X315008094Y-325812619D02*
X315103332Y-325765000D01*
X315103332Y-325765000D02*
X315150951Y-325717380D01*
X315484285Y-325145952D02*
X315865237Y-325145952D01*
X315627142Y-324812619D02*
X315627142Y-325669761D01*
X315627142Y-325669761D02*
X315674761Y-325765000D01*
X315674761Y-325765000D02*
X315769999Y-325812619D01*
X315769999Y-325812619D02*
X315865237Y-325812619D01*
X316055714Y-325145952D02*
X316436666Y-325145952D01*
X316198571Y-324812619D02*
X316198571Y-325669761D01*
X316198571Y-325669761D02*
X316246190Y-325765000D01*
X316246190Y-325765000D02*
X316341428Y-325812619D01*
X316341428Y-325812619D02*
X316436666Y-325812619D01*
X316912857Y-325812619D02*
X316817619Y-325765000D01*
X316817619Y-325765000D02*
X316770000Y-325717380D01*
X316770000Y-325717380D02*
X316722381Y-325622142D01*
X316722381Y-325622142D02*
X316722381Y-325336428D01*
X316722381Y-325336428D02*
X316770000Y-325241190D01*
X316770000Y-325241190D02*
X316817619Y-325193571D01*
X316817619Y-325193571D02*
X316912857Y-325145952D01*
X316912857Y-325145952D02*
X317055714Y-325145952D01*
X317055714Y-325145952D02*
X317150952Y-325193571D01*
X317150952Y-325193571D02*
X317198571Y-325241190D01*
X317198571Y-325241190D02*
X317246190Y-325336428D01*
X317246190Y-325336428D02*
X317246190Y-325622142D01*
X317246190Y-325622142D02*
X317198571Y-325717380D01*
X317198571Y-325717380D02*
X317150952Y-325765000D01*
X317150952Y-325765000D02*
X317055714Y-325812619D01*
X317055714Y-325812619D02*
X316912857Y-325812619D01*
X317674762Y-325145952D02*
X317674762Y-325812619D01*
X317674762Y-325241190D02*
X317722381Y-325193571D01*
X317722381Y-325193571D02*
X317817619Y-325145952D01*
X317817619Y-325145952D02*
X317960476Y-325145952D01*
X317960476Y-325145952D02*
X318055714Y-325193571D01*
X318055714Y-325193571D02*
X318103333Y-325288809D01*
X318103333Y-325288809D02*
X318103333Y-325812619D01*
X319293810Y-324907857D02*
X319341429Y-324860238D01*
X319341429Y-324860238D02*
X319436667Y-324812619D01*
X319436667Y-324812619D02*
X319674762Y-324812619D01*
X319674762Y-324812619D02*
X319770000Y-324860238D01*
X319770000Y-324860238D02*
X319817619Y-324907857D01*
X319817619Y-324907857D02*
X319865238Y-325003095D01*
X319865238Y-325003095D02*
X319865238Y-325098333D01*
X319865238Y-325098333D02*
X319817619Y-325241190D01*
X319817619Y-325241190D02*
X319246191Y-325812619D01*
X319246191Y-325812619D02*
X319865238Y-325812619D01*
%TO.C,Button 4*%
X314115713Y-306938809D02*
X314258570Y-306986428D01*
X314258570Y-306986428D02*
X314306189Y-307034047D01*
X314306189Y-307034047D02*
X314353808Y-307129285D01*
X314353808Y-307129285D02*
X314353808Y-307272142D01*
X314353808Y-307272142D02*
X314306189Y-307367380D01*
X314306189Y-307367380D02*
X314258570Y-307415000D01*
X314258570Y-307415000D02*
X314163332Y-307462619D01*
X314163332Y-307462619D02*
X313782380Y-307462619D01*
X313782380Y-307462619D02*
X313782380Y-306462619D01*
X313782380Y-306462619D02*
X314115713Y-306462619D01*
X314115713Y-306462619D02*
X314210951Y-306510238D01*
X314210951Y-306510238D02*
X314258570Y-306557857D01*
X314258570Y-306557857D02*
X314306189Y-306653095D01*
X314306189Y-306653095D02*
X314306189Y-306748333D01*
X314306189Y-306748333D02*
X314258570Y-306843571D01*
X314258570Y-306843571D02*
X314210951Y-306891190D01*
X314210951Y-306891190D02*
X314115713Y-306938809D01*
X314115713Y-306938809D02*
X313782380Y-306938809D01*
X315210951Y-306795952D02*
X315210951Y-307462619D01*
X314782380Y-306795952D02*
X314782380Y-307319761D01*
X314782380Y-307319761D02*
X314829999Y-307415000D01*
X314829999Y-307415000D02*
X314925237Y-307462619D01*
X314925237Y-307462619D02*
X315068094Y-307462619D01*
X315068094Y-307462619D02*
X315163332Y-307415000D01*
X315163332Y-307415000D02*
X315210951Y-307367380D01*
X315544285Y-306795952D02*
X315925237Y-306795952D01*
X315687142Y-306462619D02*
X315687142Y-307319761D01*
X315687142Y-307319761D02*
X315734761Y-307415000D01*
X315734761Y-307415000D02*
X315829999Y-307462619D01*
X315829999Y-307462619D02*
X315925237Y-307462619D01*
X316115714Y-306795952D02*
X316496666Y-306795952D01*
X316258571Y-306462619D02*
X316258571Y-307319761D01*
X316258571Y-307319761D02*
X316306190Y-307415000D01*
X316306190Y-307415000D02*
X316401428Y-307462619D01*
X316401428Y-307462619D02*
X316496666Y-307462619D01*
X316972857Y-307462619D02*
X316877619Y-307415000D01*
X316877619Y-307415000D02*
X316830000Y-307367380D01*
X316830000Y-307367380D02*
X316782381Y-307272142D01*
X316782381Y-307272142D02*
X316782381Y-306986428D01*
X316782381Y-306986428D02*
X316830000Y-306891190D01*
X316830000Y-306891190D02*
X316877619Y-306843571D01*
X316877619Y-306843571D02*
X316972857Y-306795952D01*
X316972857Y-306795952D02*
X317115714Y-306795952D01*
X317115714Y-306795952D02*
X317210952Y-306843571D01*
X317210952Y-306843571D02*
X317258571Y-306891190D01*
X317258571Y-306891190D02*
X317306190Y-306986428D01*
X317306190Y-306986428D02*
X317306190Y-307272142D01*
X317306190Y-307272142D02*
X317258571Y-307367380D01*
X317258571Y-307367380D02*
X317210952Y-307415000D01*
X317210952Y-307415000D02*
X317115714Y-307462619D01*
X317115714Y-307462619D02*
X316972857Y-307462619D01*
X317734762Y-306795952D02*
X317734762Y-307462619D01*
X317734762Y-306891190D02*
X317782381Y-306843571D01*
X317782381Y-306843571D02*
X317877619Y-306795952D01*
X317877619Y-306795952D02*
X318020476Y-306795952D01*
X318020476Y-306795952D02*
X318115714Y-306843571D01*
X318115714Y-306843571D02*
X318163333Y-306938809D01*
X318163333Y-306938809D02*
X318163333Y-307462619D01*
X319830000Y-306795952D02*
X319830000Y-307462619D01*
X319591905Y-306415000D02*
X319353810Y-307129285D01*
X319353810Y-307129285D02*
X319972857Y-307129285D01*
%TO.C,SAO 2*%
X349005439Y-266181597D02*
X349119198Y-266280260D01*
X349119198Y-266280260D02*
X349339170Y-266371375D01*
X349339170Y-266371375D02*
X349445381Y-266363827D01*
X349445381Y-266363827D02*
X349507598Y-266338056D01*
X349507598Y-266338056D02*
X349588039Y-266268290D01*
X349588039Y-266268290D02*
X349624485Y-266180302D01*
X349624485Y-266180302D02*
X349616937Y-266074090D01*
X349616937Y-266074090D02*
X349591165Y-266011873D01*
X349591165Y-266011873D02*
X349521400Y-265931433D01*
X349521400Y-265931433D02*
X349363646Y-265814546D01*
X349363646Y-265814546D02*
X349293880Y-265734106D01*
X349293880Y-265734106D02*
X349268109Y-265671889D01*
X349268109Y-265671889D02*
X349260561Y-265565677D01*
X349260561Y-265565677D02*
X349297007Y-265477688D01*
X349297007Y-265477688D02*
X349377447Y-265407923D01*
X349377447Y-265407923D02*
X349439664Y-265382152D01*
X349439664Y-265382152D02*
X349545876Y-265374604D01*
X349545876Y-265374604D02*
X349765847Y-265465719D01*
X349765847Y-265465719D02*
X349879607Y-265564382D01*
X349976439Y-266326086D02*
X350416382Y-266508316D01*
X349779112Y-266553605D02*
X350469756Y-265757287D01*
X350469756Y-265757287D02*
X350395032Y-266808728D01*
X351261652Y-266085301D02*
X351437630Y-266158193D01*
X351437630Y-266158193D02*
X351507395Y-266238634D01*
X351507395Y-266238634D02*
X351558938Y-266363068D01*
X351558938Y-266363068D02*
X351530040Y-266557268D01*
X351530040Y-266557268D02*
X351402479Y-266865228D01*
X351402479Y-266865228D02*
X351285592Y-267022982D01*
X351285592Y-267022982D02*
X351161158Y-267074525D01*
X351161158Y-267074525D02*
X351054946Y-267082073D01*
X351054946Y-267082073D02*
X350878969Y-267009181D01*
X350878969Y-267009181D02*
X350809204Y-266928741D01*
X350809204Y-266928741D02*
X350757661Y-266804306D01*
X350757661Y-266804306D02*
X350786559Y-266610106D01*
X350786559Y-266610106D02*
X350914120Y-266302146D01*
X350914120Y-266302146D02*
X351031006Y-266144392D01*
X351031006Y-266144392D02*
X351155441Y-266092850D01*
X351155441Y-266092850D02*
X351261652Y-266085301D01*
X352677017Y-266774650D02*
X352739235Y-266748878D01*
X352739235Y-266748878D02*
X352845446Y-266741330D01*
X352845446Y-266741330D02*
X353065417Y-266832445D01*
X353065417Y-266832445D02*
X353135183Y-266912886D01*
X353135183Y-266912886D02*
X353160954Y-266975103D01*
X353160954Y-266975103D02*
X353168502Y-267081314D01*
X353168502Y-267081314D02*
X353132056Y-267169303D01*
X353132056Y-267169303D02*
X353033393Y-267283063D01*
X353033393Y-267283063D02*
X352286786Y-267592318D01*
X352286786Y-267592318D02*
X352858711Y-267829217D01*
%TO.C,4*%
X330440476Y-355495952D02*
X330440476Y-356162619D01*
X330202381Y-355115000D02*
X329964286Y-355829285D01*
X329964286Y-355829285D02*
X330583333Y-355829285D01*
%TO.C,MODE*%
X307747619Y-359734523D02*
X306747619Y-359734523D01*
X306747619Y-359734523D02*
X307461904Y-359401190D01*
X307461904Y-359401190D02*
X306747619Y-359067857D01*
X306747619Y-359067857D02*
X307747619Y-359067857D01*
X306747619Y-358401190D02*
X306747619Y-358210714D01*
X306747619Y-358210714D02*
X306795238Y-358115476D01*
X306795238Y-358115476D02*
X306890476Y-358020238D01*
X306890476Y-358020238D02*
X307080952Y-357972619D01*
X307080952Y-357972619D02*
X307414285Y-357972619D01*
X307414285Y-357972619D02*
X307604761Y-358020238D01*
X307604761Y-358020238D02*
X307700000Y-358115476D01*
X307700000Y-358115476D02*
X307747619Y-358210714D01*
X307747619Y-358210714D02*
X307747619Y-358401190D01*
X307747619Y-358401190D02*
X307700000Y-358496428D01*
X307700000Y-358496428D02*
X307604761Y-358591666D01*
X307604761Y-358591666D02*
X307414285Y-358639285D01*
X307414285Y-358639285D02*
X307080952Y-358639285D01*
X307080952Y-358639285D02*
X306890476Y-358591666D01*
X306890476Y-358591666D02*
X306795238Y-358496428D01*
X306795238Y-358496428D02*
X306747619Y-358401190D01*
X307747619Y-357544047D02*
X306747619Y-357544047D01*
X306747619Y-357544047D02*
X306747619Y-357305952D01*
X306747619Y-357305952D02*
X306795238Y-357163095D01*
X306795238Y-357163095D02*
X306890476Y-357067857D01*
X306890476Y-357067857D02*
X306985714Y-357020238D01*
X306985714Y-357020238D02*
X307176190Y-356972619D01*
X307176190Y-356972619D02*
X307319047Y-356972619D01*
X307319047Y-356972619D02*
X307509523Y-357020238D01*
X307509523Y-357020238D02*
X307604761Y-357067857D01*
X307604761Y-357067857D02*
X307700000Y-357163095D01*
X307700000Y-357163095D02*
X307747619Y-357305952D01*
X307747619Y-357305952D02*
X307747619Y-357544047D01*
X307223809Y-356544047D02*
X307223809Y-356210714D01*
X307747619Y-356067857D02*
X307747619Y-356544047D01*
X307747619Y-356544047D02*
X306747619Y-356544047D01*
X306747619Y-356544047D02*
X306747619Y-356067857D01*
%TO.C,2*%
X330014286Y-358157857D02*
X330061905Y-358110238D01*
X330061905Y-358110238D02*
X330157143Y-358062619D01*
X330157143Y-358062619D02*
X330395238Y-358062619D01*
X330395238Y-358062619D02*
X330490476Y-358110238D01*
X330490476Y-358110238D02*
X330538095Y-358157857D01*
X330538095Y-358157857D02*
X330585714Y-358253095D01*
X330585714Y-358253095D02*
X330585714Y-358348333D01*
X330585714Y-358348333D02*
X330538095Y-358491190D01*
X330538095Y-358491190D02*
X329966667Y-359062619D01*
X329966667Y-359062619D02*
X330585714Y-359062619D01*
%TO.C,1*%
X330585714Y-362012619D02*
X330014286Y-362012619D01*
X330300000Y-362012619D02*
X330300000Y-361012619D01*
X330300000Y-361012619D02*
X330204762Y-361155476D01*
X330204762Y-361155476D02*
X330109524Y-361250714D01*
X330109524Y-361250714D02*
X330014286Y-361298333D01*
D14*
%TO.C,U59*%
X250654847Y-420925736D02*
X250344264Y-422084847D01*
X250344264Y-422084847D02*
X249185153Y-421774264D01*
X249185153Y-421774264D02*
X249495736Y-420615153D01*
X249495736Y-420615153D02*
X250654847Y-420925736D01*
%TO.C,U56*%
X248666551Y-447616817D02*
X248823183Y-448806551D01*
X248823183Y-448806551D02*
X247633449Y-448963183D01*
X247633449Y-448963183D02*
X247476817Y-447773449D01*
X247476817Y-447773449D02*
X248666551Y-447616817D01*
%TO.C,U72*%
X325150000Y-317600000D02*
X323950000Y-317600000D01*
X323950000Y-317600000D02*
X323950000Y-318800000D01*
X323950000Y-318800000D02*
X325150000Y-318800000D01*
X325150000Y-318800000D02*
X325150000Y-317600000D01*
%TO.C,U44*%
X325106817Y-507333449D02*
X326296551Y-507176817D01*
X326296551Y-507176817D02*
X326453183Y-508366551D01*
X326453183Y-508366551D02*
X325263449Y-508523183D01*
X325263449Y-508523183D02*
X325106817Y-507333449D01*
%TO.C,U73*%
X309550000Y-300600000D02*
X308350000Y-300600000D01*
X308350000Y-300600000D02*
X308350000Y-299400000D01*
X308350000Y-299400000D02*
X309550000Y-299400000D01*
X309550000Y-299400000D02*
X309550000Y-300600000D01*
%TO.C,U39*%
X364821472Y-488170000D02*
X365670000Y-487321472D01*
X365670000Y-487321472D02*
X366518528Y-488170000D01*
X366518528Y-488170000D02*
X365670000Y-489018528D01*
X365670000Y-489018528D02*
X364821472Y-488170000D01*
%TO.C,U43*%
X333925153Y-505655736D02*
X335084264Y-505345153D01*
X335084264Y-505345153D02*
X335394847Y-506504264D01*
X335394847Y-506504264D02*
X334235736Y-506814847D01*
X334235736Y-506814847D02*
X333925153Y-505655736D01*
%TO.C,U74*%
X325150000Y-299400000D02*
X323950000Y-299400000D01*
X323950000Y-299400000D02*
X323950000Y-300600000D01*
X323950000Y-300600000D02*
X325150000Y-300600000D01*
X325150000Y-300600000D02*
X325150000Y-299400000D01*
%TO.C,U70*%
X325150000Y-335750000D02*
X323950000Y-335750000D01*
X323950000Y-335750000D02*
X323950000Y-336950000D01*
X323950000Y-336950000D02*
X325150000Y-336950000D01*
X325150000Y-336950000D02*
X325150000Y-335750000D01*
%TO.C,U63*%
X268668528Y-390322893D02*
X267820000Y-391171421D01*
X267820000Y-391171421D02*
X266971472Y-390322893D01*
X266971472Y-390322893D02*
X267820000Y-389474365D01*
X267820000Y-389474365D02*
X268668528Y-390322893D01*
%TO.C,U29*%
X376450385Y-405479615D02*
X375850385Y-404440385D01*
X375850385Y-404440385D02*
X376889615Y-403840385D01*
X376889615Y-403840385D02*
X377489615Y-404879615D01*
X377489615Y-404879615D02*
X376450385Y-405479615D01*
%TO.C,U47*%
X298422183Y-505352781D02*
X299581294Y-505663364D01*
X299581294Y-505663364D02*
X299270711Y-506822475D01*
X299270711Y-506822475D02*
X298111600Y-506511892D01*
X298111600Y-506511892D02*
X298422183Y-505352781D01*
%TO.C,U46*%
X307203908Y-507177803D02*
X308393642Y-507334435D01*
X308393642Y-507334435D02*
X308237010Y-508524169D01*
X308237010Y-508524169D02*
X307047276Y-508367537D01*
X307047276Y-508367537D02*
X307203908Y-507177803D01*
%TO.C,U35*%
X382855153Y-457584264D02*
X383165736Y-456425153D01*
X383165736Y-456425153D02*
X384324847Y-456735736D01*
X384324847Y-456735736D02*
X384014264Y-457894847D01*
X384014264Y-457894847D02*
X382855153Y-457584264D01*
%TO.C,U48*%
X289945880Y-502389343D02*
X291054536Y-502848563D01*
X291054536Y-502848563D02*
X290595316Y-503957219D01*
X290595316Y-503957219D02*
X289486660Y-503497999D01*
X289486660Y-503497999D02*
X289945880Y-502389343D01*
%TO.C,U26*%
X359093051Y-385042326D02*
X358141027Y-384311812D01*
X358141027Y-384311812D02*
X358871541Y-383359788D01*
X358871541Y-383359788D02*
X359823565Y-384090302D01*
X359823565Y-384090302D02*
X359093051Y-385042326D01*
%TO.C,U38*%
X370798731Y-481480755D02*
X371529245Y-480528731D01*
X371529245Y-480528731D02*
X372481269Y-481259245D01*
X372481269Y-481259245D02*
X371750755Y-482211269D01*
X371750755Y-482211269D02*
X370798731Y-481480755D01*
%TO.C,U32*%
X384823449Y-430883183D02*
X384666817Y-429693449D01*
X384666817Y-429693449D02*
X385856551Y-429536817D01*
X385856551Y-429536817D02*
X386013183Y-430726551D01*
X386013183Y-430726551D02*
X384823449Y-430883183D01*
%TO.C,U68*%
X308393183Y-371176551D02*
X307203449Y-371333183D01*
X307203449Y-371333183D02*
X307046817Y-370143449D01*
X307046817Y-370143449D02*
X308236551Y-369986817D01*
X308236551Y-369986817D02*
X308393183Y-371176551D01*
%TO.C,U28*%
X371529245Y-397971269D02*
X370798731Y-397019245D01*
X370798731Y-397019245D02*
X371750755Y-396288731D01*
X371750755Y-396288731D02*
X372481269Y-397240755D01*
X372481269Y-397240755D02*
X371529245Y-397971269D01*
%TO.C,U66*%
X291053938Y-375664718D02*
X289945282Y-376123938D01*
X289945282Y-376123938D02*
X289486062Y-375015282D01*
X289486062Y-375015282D02*
X290594718Y-374556062D01*
X290594718Y-374556062D02*
X291053938Y-375664718D01*
%TO.C,U36*%
X379885464Y-466051437D02*
X380344684Y-464942781D01*
X380344684Y-464942781D02*
X381453340Y-465402001D01*
X381453340Y-465402001D02*
X380994120Y-466510657D01*
X380994120Y-466510657D02*
X379885464Y-466051437D01*
%TO.C,U30*%
X380345282Y-413553938D02*
X379886062Y-412445282D01*
X379886062Y-412445282D02*
X380994718Y-411986062D01*
X380994718Y-411986062D02*
X381453938Y-413094718D01*
X381453938Y-413094718D02*
X380345282Y-413553938D01*
%TO.C,U33*%
X385330000Y-439850000D02*
X386530000Y-439850000D01*
X386530000Y-439850000D02*
X386530000Y-438650000D01*
X386530000Y-438650000D02*
X385330000Y-438650000D01*
X385330000Y-438650000D02*
X385330000Y-439850000D01*
%TO.C,U75*%
X309550000Y-282400000D02*
X308350000Y-282400000D01*
X308350000Y-282400000D02*
X308350000Y-281200000D01*
X308350000Y-281200000D02*
X309550000Y-281200000D01*
X309550000Y-281200000D02*
X309550000Y-282400000D01*
%TO.C,U62*%
X262710212Y-397021541D02*
X261979698Y-397973565D01*
X261979698Y-397973565D02*
X261027674Y-397243051D01*
X261027674Y-397243051D02*
X261758188Y-396291027D01*
X261758188Y-396291027D02*
X262710212Y-397021541D01*
%TO.C,U34*%
X384677276Y-448787537D02*
X384833908Y-447597803D01*
X384833908Y-447597803D02*
X386023642Y-447754435D01*
X386023642Y-447754435D02*
X385867010Y-448944169D01*
X385867010Y-448944169D02*
X384677276Y-448787537D01*
%TO.C,U25*%
X351666602Y-379972628D02*
X350627372Y-379372628D01*
X350627372Y-379372628D02*
X351227372Y-378333398D01*
X351227372Y-378333398D02*
X352266602Y-378933398D01*
X352266602Y-378933398D02*
X351666602Y-379972628D01*
%TO.C,U40*%
X358037674Y-494026949D02*
X358989698Y-493296435D01*
X358989698Y-493296435D02*
X359720212Y-494248459D01*
X359720212Y-494248459D02*
X358768188Y-494978973D01*
X358768188Y-494978973D02*
X358037674Y-494026949D01*
%TO.C,U58*%
X248834169Y-429702990D02*
X248677537Y-430892724D01*
X248677537Y-430892724D02*
X247487803Y-430736092D01*
X247487803Y-430736092D02*
X247644435Y-429546358D01*
X247644435Y-429546358D02*
X248834169Y-429702990D01*
%TO.C,U55*%
X250337817Y-456422781D02*
X250648400Y-457581892D01*
X250648400Y-457581892D02*
X249489289Y-457892475D01*
X249489289Y-457892475D02*
X249178706Y-456733364D01*
X249178706Y-456733364D02*
X250337817Y-456422781D01*
%TO.C,U41*%
X350530385Y-498950385D02*
X351569615Y-498350385D01*
X351569615Y-498350385D02*
X352169615Y-499389615D01*
X352169615Y-499389615D02*
X351130385Y-499989615D01*
X351130385Y-499989615D02*
X350530385Y-498950385D01*
%TO.C,U57*%
X248170000Y-438660000D02*
X246970000Y-438660000D01*
X246970000Y-438660000D02*
X246970000Y-439860000D01*
X246970000Y-439860000D02*
X248170000Y-439860000D01*
X248170000Y-439860000D02*
X248170000Y-438660000D01*
%TO.C,U53*%
X257059615Y-473020385D02*
X257659615Y-474059615D01*
X257659615Y-474059615D02*
X256620385Y-474659615D01*
X256620385Y-474659615D02*
X256020385Y-473620385D01*
X256020385Y-473620385D02*
X257059615Y-473020385D01*
%TO.C,U52*%
X261973051Y-480527674D02*
X262703565Y-481479698D01*
X262703565Y-481479698D02*
X261751541Y-482210212D01*
X261751541Y-482210212D02*
X261021027Y-481258188D01*
X261021027Y-481258188D02*
X261973051Y-480527674D01*
%TO.C,U45*%
X316150000Y-507840000D02*
X317350000Y-507840000D01*
X317350000Y-507840000D02*
X317350000Y-509040000D01*
X317350000Y-509040000D02*
X316150000Y-509040000D01*
X316150000Y-509040000D02*
X316150000Y-507840000D01*
%TO.C,U42*%
X342446062Y-502845282D02*
X343554718Y-502386062D01*
X343554718Y-502386062D02*
X344013938Y-503494718D01*
X344013938Y-503494718D02*
X342905282Y-503953938D01*
X342905282Y-503953938D02*
X342446062Y-502845282D01*
%TO.C,U69*%
X309550000Y-336950000D02*
X308350000Y-336950000D01*
X308350000Y-336950000D02*
X308350000Y-335750000D01*
X308350000Y-335750000D02*
X309550000Y-335750000D01*
X309550000Y-335750000D02*
X309550000Y-336950000D01*
%TO.C,U21*%
X317350000Y-370450000D02*
X316150000Y-370450000D01*
X316150000Y-370450000D02*
X316150000Y-369250000D01*
X316150000Y-369250000D02*
X317350000Y-369250000D01*
X317350000Y-369250000D02*
X317350000Y-370450000D01*
%TO.C,U49*%
X281937372Y-498347372D02*
X282976602Y-498947372D01*
X282976602Y-498947372D02*
X282376602Y-499986602D01*
X282376602Y-499986602D02*
X281337372Y-499386602D01*
X281337372Y-499386602D02*
X281937372Y-498347372D01*
%TO.C,U24*%
X343547999Y-376103340D02*
X342439343Y-375644120D01*
X342439343Y-375644120D02*
X342898563Y-374535464D01*
X342898563Y-374535464D02*
X344007219Y-374994684D01*
X344007219Y-374994684D02*
X343547999Y-376103340D01*
%TO.C,U51*%
X267820000Y-487331472D02*
X268668528Y-488180000D01*
X268668528Y-488180000D02*
X267820000Y-489028528D01*
X267820000Y-489028528D02*
X266971472Y-488180000D01*
X266971472Y-488180000D02*
X267820000Y-487331472D01*
%TO.C,U54*%
X253145316Y-464952781D02*
X253604536Y-466061437D01*
X253604536Y-466061437D02*
X252495880Y-466520657D01*
X252495880Y-466520657D02*
X252036660Y-465412001D01*
X252036660Y-465412001D02*
X253145316Y-464952781D01*
%TO.C,U65*%
X282979615Y-379549615D02*
X281940385Y-380149615D01*
X281940385Y-380149615D02*
X281340385Y-379110385D01*
X281340385Y-379110385D02*
X282379615Y-378510385D01*
X282379615Y-378510385D02*
X282979615Y-379549615D01*
%TO.C,U71*%
X309550000Y-318800000D02*
X308350000Y-318800000D01*
X308350000Y-318800000D02*
X308350000Y-317600000D01*
X308350000Y-317600000D02*
X309550000Y-317600000D01*
X309550000Y-317600000D02*
X309550000Y-318800000D01*
%TO.C,U22*%
X326296092Y-371332197D02*
X325106358Y-371175565D01*
X325106358Y-371175565D02*
X325262990Y-369985831D01*
X325262990Y-369985831D02*
X326452724Y-370142463D01*
X326452724Y-370142463D02*
X326296092Y-371332197D01*
%TO.C,U61*%
X257639615Y-404440385D02*
X257039615Y-405479615D01*
X257039615Y-405479615D02*
X256000385Y-404879615D01*
X256000385Y-404879615D02*
X256600385Y-403840385D01*
X256600385Y-403840385D02*
X257639615Y-404440385D01*
%TO.C,U67*%
X299574847Y-372844264D02*
X298415736Y-373154847D01*
X298415736Y-373154847D02*
X298105153Y-371995736D01*
X298105153Y-371995736D02*
X299264264Y-371685153D01*
X299264264Y-371685153D02*
X299574847Y-372844264D01*
%TO.C,U23*%
X335071892Y-373158400D02*
X333912781Y-372847817D01*
X333912781Y-372847817D02*
X334223364Y-371688706D01*
X334223364Y-371688706D02*
X335382475Y-371999289D01*
X335382475Y-371999289D02*
X335071892Y-373158400D01*
%TO.C,U76*%
X325150000Y-281200000D02*
X323950000Y-281200000D01*
X323950000Y-281200000D02*
X323950000Y-282400000D01*
X323950000Y-282400000D02*
X325150000Y-282400000D01*
X325150000Y-282400000D02*
X325150000Y-281200000D01*
%TO.C,U64*%
X275471269Y-384460755D02*
X274519245Y-385191269D01*
X274519245Y-385191269D02*
X273788731Y-384239245D01*
X273788731Y-384239245D02*
X274740755Y-383508731D01*
X274740755Y-383508731D02*
X275471269Y-384460755D01*
%TO.C,U27*%
X365680000Y-391168528D02*
X364831472Y-390320000D01*
X364831472Y-390320000D02*
X365680000Y-389471472D01*
X365680000Y-389471472D02*
X366528528Y-390320000D01*
X366528528Y-390320000D02*
X365680000Y-391168528D01*
%TO.C,U37*%
X375850385Y-474059615D02*
X376450385Y-473020385D01*
X376450385Y-473020385D02*
X377489615Y-473620385D01*
X377489615Y-473620385D02*
X376889615Y-474659615D01*
X376889615Y-474659615D02*
X375850385Y-474059615D01*
%TO.C,U50*%
X274530302Y-493296435D02*
X275482326Y-494026949D01*
X275482326Y-494026949D02*
X274751812Y-494978973D01*
X274751812Y-494978973D02*
X273799788Y-494248459D01*
X273799788Y-494248459D02*
X274530302Y-493296435D01*
%TO.C,U60*%
X253610657Y-412445880D02*
X253151437Y-413554536D01*
X253151437Y-413554536D02*
X252042781Y-413095316D01*
X252042781Y-413095316D02*
X252502001Y-411986660D01*
X252502001Y-411986660D02*
X253610657Y-412445880D01*
%TO.C,U31*%
X383155736Y-422084847D02*
X382845153Y-420925736D01*
X382845153Y-420925736D02*
X384004264Y-420615153D01*
X384004264Y-420615153D02*
X384314847Y-421774264D01*
X384314847Y-421774264D02*
X383155736Y-422084847D01*
D13*
%TO.C,S1*%
X309250000Y-424900000D02*
X324250000Y-424900000D01*
X324250000Y-424900000D02*
X324250000Y-413900000D01*
X324250000Y-413900000D02*
X309250000Y-413900000D01*
X309250000Y-413900000D02*
X309250000Y-424900000D01*
%TO.C,Button 8*%
X310730000Y-275820000D02*
X322730000Y-275820000D01*
X322730000Y-275820000D02*
X322730000Y-287820000D01*
X322730000Y-287820000D02*
X310730000Y-287820000D01*
X310730000Y-287820000D02*
X310730000Y-275820000D01*
X320330000Y-281820000D02*
G75*
G03*
X320330000Y-281820000I-3600000J0D01*
G01*
%TO.C,Button 1*%
X320340000Y-336360000D02*
G75*
G03*
X320340000Y-336360000I-3600000J0D01*
G01*
X310740000Y-330360000D02*
X322740000Y-330360000D01*
X322740000Y-330360000D02*
X322740000Y-342360000D01*
X322740000Y-342360000D02*
X310740000Y-342360000D01*
X310740000Y-342360000D02*
X310740000Y-330360000D01*
D14*
%TO.C,SAO 1*%
X302798365Y-264198880D02*
X305760335Y-257048052D01*
X302798365Y-264198880D02*
X300396278Y-263203903D01*
X305760335Y-257048052D02*
X300956161Y-255058098D01*
X300396278Y-263203903D02*
X301391255Y-260801816D01*
X301391255Y-260801816D02*
X298989168Y-259806839D01*
X299222951Y-262717895D02*
X297994191Y-262208926D01*
X297994191Y-262208926D02*
X298503160Y-260980166D01*
X298989168Y-259806839D02*
X300956161Y-255058098D01*
D13*
%TO.C,Button 2*%
X310740000Y-312180000D02*
X322740000Y-312180000D01*
X322740000Y-312180000D02*
X322740000Y-324180000D01*
X322740000Y-324180000D02*
X310740000Y-324180000D01*
X310740000Y-324180000D02*
X310740000Y-312180000D01*
X320340000Y-318180000D02*
G75*
G03*
X320340000Y-318180000I-3600000J0D01*
G01*
%TO.C,Button 4*%
X310740000Y-294000000D02*
X322740000Y-294000000D01*
X322740000Y-294000000D02*
X322740000Y-306000000D01*
X322740000Y-306000000D02*
X310740000Y-306000000D01*
X310740000Y-306000000D02*
X310740000Y-294000000D01*
X320340000Y-300000000D02*
G75*
G03*
X320340000Y-300000000I-3600000J0D01*
G01*
D14*
%TO.C,SAO 2*%
X347823601Y-263824429D02*
X354974429Y-266786399D01*
X347823601Y-263824429D02*
X348818578Y-261422342D01*
X354974429Y-266786399D02*
X356964383Y-261982225D01*
X348818578Y-261422342D02*
X351220665Y-262417319D01*
X351220665Y-262417319D02*
X352215642Y-260015232D01*
X349304586Y-260249015D02*
X349813555Y-259020255D01*
X349813555Y-259020255D02*
X351042315Y-259529224D01*
X352215642Y-260015232D02*
X356964383Y-261982225D01*
%TO.C,4*%
X327462500Y-356345000D02*
X329747500Y-356345000D01*
X329747500Y-356345000D02*
X329747500Y-354875000D01*
X329747500Y-354875000D02*
X327462500Y-354875000D01*
D15*
%TO.C,MODE*%
X302400000Y-354750000D02*
X303136500Y-354750000D01*
X305163500Y-354750000D02*
X305900000Y-354750000D01*
X305900000Y-354750000D02*
X305900000Y-360750000D01*
X302400000Y-360750000D02*
X302400000Y-354750000D01*
X303136500Y-360750000D02*
X302400000Y-360750000D01*
X305900000Y-360750000D02*
X305163500Y-360750000D01*
D16*
X304250000Y-353500000D02*
G75*
G03*
X304250000Y-353500000I-100000J0D01*
G01*
D14*
%TO.C,R3*%
X328025242Y-354612500D02*
X328499758Y-354612500D01*
X328025242Y-353567500D02*
X328499758Y-353567500D01*
%TO.C, *%
X328025242Y-357622500D02*
X328499758Y-357622500D01*
X328025242Y-356577500D02*
X328499758Y-356577500D01*
%TO.C,2*%
X327462500Y-359345000D02*
X329747500Y-359345000D01*
X329747500Y-359345000D02*
X329747500Y-357875000D01*
X329747500Y-357875000D02*
X327462500Y-357875000D01*
%TO.C,1*%
X329735000Y-360875000D02*
X327450000Y-360875000D01*
X329735000Y-362345000D02*
X329735000Y-360875000D01*
X327450000Y-362345000D02*
X329735000Y-362345000D01*
%TO.C,R5*%
X328012742Y-360632500D02*
X328487258Y-360632500D01*
X328012742Y-359587500D02*
X328487258Y-359587500D01*
%TD*%
M02*
