G04 #@! TF.GenerationSoftware,KiCad,Pcbnew,7.0.2*
G04 #@! TF.CreationDate,2023-05-29T12:29:06-07:00*
G04 #@! TF.ProjectId,plumbus-bfb,706c756d-6275-4732-9d62-66622e6b6963,rev?*
G04 #@! TF.SameCoordinates,Original*
G04 #@! TF.FileFunction,Legend,Bot*
G04 #@! TF.FilePolarity,Positive*
%FSLAX46Y46*%
G04 Gerber Fmt 4.6, Leading zero omitted, Abs format (unit mm)*
G04 Created by KiCad (PCBNEW 7.0.2) date 2023-05-29 12:29:06*
%MOMM*%
%LPD*%
G01*
G04 APERTURE LIST*
G04 Aperture macros list*
%AMRoundRect*
0 Rectangle with rounded corners*
0 $1 Rounding radius*
0 $2 $3 $4 $5 $6 $7 $8 $9 X,Y pos of 4 corners*
0 Add a 4 corners polygon primitive as box body*
4,1,4,$2,$3,$4,$5,$6,$7,$8,$9,$2,$3,0*
0 Add four circle primitives for the rounded corners*
1,1,$1+$1,$2,$3*
1,1,$1+$1,$4,$5*
1,1,$1+$1,$6,$7*
1,1,$1+$1,$8,$9*
0 Add four rect primitives between the rounded corners*
20,1,$1+$1,$2,$3,$4,$5,0*
20,1,$1+$1,$4,$5,$6,$7,0*
20,1,$1+$1,$6,$7,$8,$9,0*
20,1,$1+$1,$8,$9,$2,$3,0*%
%AMHorizOval*
0 Thick line with rounded ends*
0 $1 width*
0 $2 $3 position (X,Y) of the first rounded end (center of the circle)*
0 $4 $5 position (X,Y) of the second rounded end (center of the circle)*
0 Add line between two ends*
20,1,$1,$2,$3,$4,$5,0*
0 Add two circle primitives to create the rounded ends*
1,1,$1,$2,$3*
1,1,$1,$4,$5*%
%AMRotRect*
0 Rectangle, with rotation*
0 The origin of the aperture is its center*
0 $1 length*
0 $2 width*
0 $3 Rotation angle, in degrees counterclockwise*
0 Add horizontal line*
21,1,$1,$2,0,0,$3*%
G04 Aperture macros list end*
%ADD10C,0.150000*%
%ADD11C,5.000000*%
%ADD12C,1.500000*%
%ADD13C,1.270000*%
%ADD14C,0.015000*%
%ADD15C,0.120000*%
%ADD16C,0.100000*%
%ADD17C,0.200000*%
%ADD18C,0.127000*%
%ADD19C,0.010000*%
%ADD20O,7.000000X2.000000*%
%ADD21HorizOval,2.000000X2.478612X-0.326315X-2.478612X0.326315X0*%
%ADD22R,1.700000X1.700000*%
%ADD23O,1.700000X1.700000*%
%ADD24C,2.170000*%
%ADD25R,2.170000X2.170000*%
%ADD26RotRect,0.800000X1.000000X247.500000*%
%ADD27RotRect,0.700000X1.500000X337.500000*%
%ADD28C,0.001000*%
%ADD29RotRect,1.700000X1.700000X157.500000*%
%ADD30HorizOval,1.700000X0.000000X0.000000X0.000000X0.000000X0*%
%ADD31RotRect,1.700000X1.700000X67.500000*%
%ADD32HorizOval,1.700000X0.000000X0.000000X0.000000X0.000000X0*%
%ADD33RoundRect,0.225000X0.250000X-0.225000X0.250000X0.225000X-0.250000X0.225000X-0.250000X-0.225000X0*%
%ADD34RoundRect,0.200000X0.275000X-0.200000X0.275000X0.200000X-0.275000X0.200000X-0.275000X-0.200000X0*%
%ADD35RoundRect,0.150000X-0.416086X-0.334707X0.530891X0.057543X0.416086X0.334707X-0.530891X-0.057543X0*%
%ADD36RoundRect,0.225000X-0.225000X-0.250000X0.225000X-0.250000X0.225000X0.250000X-0.225000X0.250000X0*%
%ADD37RoundRect,0.150000X-0.587500X-0.150000X0.587500X-0.150000X0.587500X0.150000X-0.587500X0.150000X0*%
%ADD38RoundRect,0.225000X-0.250000X0.225000X-0.250000X-0.225000X0.250000X-0.225000X0.250000X0.225000X0*%
%ADD39R,1.900000X1.400000*%
%ADD40RoundRect,0.225000X0.017678X-0.335876X0.335876X-0.017678X-0.017678X0.335876X-0.335876X0.017678X0*%
%ADD41RoundRect,0.225000X0.225000X0.250000X-0.225000X0.250000X-0.225000X-0.250000X0.225000X-0.250000X0*%
%ADD42RoundRect,0.150000X0.057543X0.530891X-0.334707X-0.416086X-0.057543X-0.530891X0.334707X0.416086X0*%
%ADD43RoundRect,0.200000X-0.275000X0.200000X-0.275000X-0.200000X0.275000X-0.200000X0.275000X0.200000X0*%
%ADD44RoundRect,0.150000X-0.057543X-0.530891X0.334707X0.416086X0.057543X0.530891X-0.334707X-0.416086X0*%
%ADD45RoundRect,0.225000X-0.303544X-0.144866X0.112202X-0.317074X0.303544X0.144866X-0.112202X0.317074X0*%
%ADD46RoundRect,0.150000X-0.256326X-0.468458X0.468458X0.256326X0.256326X0.468458X-0.468458X-0.256326X0*%
%ADD47RoundRect,0.200000X-0.200000X-0.275000X0.200000X-0.275000X0.200000X0.275000X-0.200000X0.275000X0*%
%ADD48RoundRect,0.150000X0.150000X-0.587500X0.150000X0.587500X-0.150000X0.587500X-0.150000X-0.587500X0*%
%ADD49RoundRect,0.250000X0.787500X1.025000X-0.787500X1.025000X-0.787500X-1.025000X0.787500X-1.025000X0*%
%ADD50RoundRect,0.150000X-0.468458X0.256326X0.256326X-0.468458X0.468458X-0.256326X-0.256326X0.468458X0*%
%ADD51RoundRect,0.150000X0.334707X-0.416086X-0.057543X0.530891X-0.334707X0.416086X0.057543X-0.530891X0*%
%ADD52RoundRect,0.225000X0.112202X0.317074X-0.303544X0.144866X-0.112202X-0.317074X0.303544X-0.144866X0*%
%ADD53RoundRect,0.150000X-0.334707X0.416086X0.057543X-0.530891X0.334707X-0.416086X-0.057543X0.530891X0*%
%ADD54RotRect,1.160000X1.160000X202.500000*%
%ADD55C,1.160000*%
%ADD56RoundRect,0.150000X0.416086X0.334707X-0.530891X-0.057543X-0.416086X-0.334707X0.530891X0.057543X0*%
%ADD57RoundRect,0.225000X-0.112202X-0.317074X0.303544X-0.144866X0.112202X0.317074X-0.303544X0.144866X0*%
%ADD58RoundRect,0.100000X-0.100000X0.637500X-0.100000X-0.637500X0.100000X-0.637500X0.100000X0.637500X0*%
%ADD59RoundRect,0.150000X0.468458X-0.256326X-0.256326X0.468458X-0.468458X0.256326X0.256326X-0.468458X0*%
%ADD60RoundRect,0.150000X-0.150000X0.825000X-0.150000X-0.825000X0.150000X-0.825000X0.150000X0.825000X0*%
%ADD61RoundRect,0.062500X-0.375000X-0.062500X0.375000X-0.062500X0.375000X0.062500X-0.375000X0.062500X0*%
%ADD62RoundRect,0.062500X-0.062500X-0.375000X0.062500X-0.375000X0.062500X0.375000X-0.062500X0.375000X0*%
%ADD63R,3.100000X3.100000*%
%ADD64RoundRect,0.225000X-0.335876X-0.017678X-0.017678X-0.335876X0.335876X0.017678X0.017678X0.335876X0*%
%ADD65RoundRect,0.150000X-0.150000X0.512500X-0.150000X-0.512500X0.150000X-0.512500X0.150000X0.512500X0*%
%ADD66RoundRect,0.225000X-0.144866X0.303544X-0.317074X-0.112202X0.144866X-0.303544X0.317074X0.112202X0*%
%ADD67RoundRect,0.225000X-0.317074X0.112202X-0.144866X-0.303544X0.317074X-0.112202X0.144866X0.303544X0*%
%ADD68RoundRect,0.225000X0.144866X-0.303544X0.317074X0.112202X-0.144866X0.303544X-0.317074X-0.112202X0*%
%ADD69RoundRect,0.150000X-0.512500X-0.150000X0.512500X-0.150000X0.512500X0.150000X-0.512500X0.150000X0*%
%ADD70RoundRect,0.250000X-0.375000X-0.850000X0.375000X-0.850000X0.375000X0.850000X-0.375000X0.850000X0*%
%ADD71RoundRect,0.225000X-0.017678X0.335876X-0.335876X0.017678X0.017678X-0.335876X0.335876X-0.017678X0*%
%ADD72RoundRect,0.225000X0.303544X0.144866X-0.112202X0.317074X-0.303544X-0.144866X0.112202X-0.317074X0*%
%ADD73RoundRect,0.225000X0.317074X-0.112202X0.144866X0.303544X-0.317074X0.112202X-0.144866X-0.303544X0*%
%ADD74RoundRect,0.150000X0.530891X-0.057543X-0.416086X0.334707X-0.530891X0.057543X0.416086X-0.334707X0*%
%ADD75RoundRect,0.150000X-0.530891X0.057543X0.416086X-0.334707X0.530891X-0.057543X-0.416086X0.334707X0*%
%ADD76RoundRect,0.225000X0.335876X0.017678X0.017678X0.335876X-0.335876X-0.017678X-0.017678X-0.335876X0*%
%ADD77RoundRect,0.150000X0.256326X0.468458X-0.468458X-0.256326X-0.256326X-0.468458X0.468458X0.256326X0*%
%ADD78RoundRect,0.250000X-0.412500X-0.925000X0.412500X-0.925000X0.412500X0.925000X-0.412500X0.925000X0*%
%ADD79RoundRect,0.150000X0.512500X0.150000X-0.512500X0.150000X-0.512500X-0.150000X0.512500X-0.150000X0*%
%ADD80RoundRect,0.150000X0.150000X-0.512500X0.150000X0.512500X-0.150000X0.512500X-0.150000X-0.512500X0*%
G04 APERTURE END LIST*
D10*
X278927619Y-327238095D02*
X277927619Y-327238095D01*
X277927619Y-327238095D02*
X277927619Y-327619047D01*
X277927619Y-327619047D02*
X277975238Y-327714285D01*
X277975238Y-327714285D02*
X278022857Y-327761904D01*
X278022857Y-327761904D02*
X278118095Y-327809523D01*
X278118095Y-327809523D02*
X278260952Y-327809523D01*
X278260952Y-327809523D02*
X278356190Y-327761904D01*
X278356190Y-327761904D02*
X278403809Y-327714285D01*
X278403809Y-327714285D02*
X278451428Y-327619047D01*
X278451428Y-327619047D02*
X278451428Y-327238095D01*
X278927619Y-328238095D02*
X277927619Y-328238095D01*
X277927619Y-328238095D02*
X277927619Y-328476190D01*
X277927619Y-328476190D02*
X277975238Y-328619047D01*
X277975238Y-328619047D02*
X278070476Y-328714285D01*
X278070476Y-328714285D02*
X278165714Y-328761904D01*
X278165714Y-328761904D02*
X278356190Y-328809523D01*
X278356190Y-328809523D02*
X278499047Y-328809523D01*
X278499047Y-328809523D02*
X278689523Y-328761904D01*
X278689523Y-328761904D02*
X278784761Y-328714285D01*
X278784761Y-328714285D02*
X278880000Y-328619047D01*
X278880000Y-328619047D02*
X278927619Y-328476190D01*
X278927619Y-328476190D02*
X278927619Y-328238095D01*
X278927619Y-329238095D02*
X277927619Y-329238095D01*
X342133568Y-379599048D02*
X341957591Y-379526155D01*
X341957591Y-379526155D02*
X341851379Y-379533704D01*
X341851379Y-379533704D02*
X341726945Y-379585246D01*
X341726945Y-379585246D02*
X341610058Y-379743000D01*
X341610058Y-379743000D02*
X341482497Y-380050960D01*
X341482497Y-380050960D02*
X341453599Y-380245160D01*
X341453599Y-380245160D02*
X341505142Y-380369595D01*
X341505142Y-380369595D02*
X341574907Y-380450035D01*
X341574907Y-380450035D02*
X341750884Y-380522927D01*
X341750884Y-380522927D02*
X341857096Y-380515379D01*
X341857096Y-380515379D02*
X341981530Y-380463836D01*
X341981530Y-380463836D02*
X342098417Y-380306082D01*
X342098417Y-380306082D02*
X342225978Y-379998122D01*
X342225978Y-379998122D02*
X342254876Y-379803922D01*
X342254876Y-379803922D02*
X342203333Y-379679488D01*
X342203333Y-379679488D02*
X342133568Y-379599048D01*
X341686077Y-379310606D02*
X340402159Y-380170437D01*
X340343068Y-379939790D02*
X340725751Y-379015911D01*
X307440476Y-390077619D02*
X307773809Y-389601428D01*
X308011904Y-390077619D02*
X308011904Y-389077619D01*
X308011904Y-389077619D02*
X307630952Y-389077619D01*
X307630952Y-389077619D02*
X307535714Y-389125238D01*
X307535714Y-389125238D02*
X307488095Y-389172857D01*
X307488095Y-389172857D02*
X307440476Y-389268095D01*
X307440476Y-389268095D02*
X307440476Y-389410952D01*
X307440476Y-389410952D02*
X307488095Y-389506190D01*
X307488095Y-389506190D02*
X307535714Y-389553809D01*
X307535714Y-389553809D02*
X307630952Y-389601428D01*
X307630952Y-389601428D02*
X308011904Y-389601428D01*
X306630952Y-390030000D02*
X306726190Y-390077619D01*
X306726190Y-390077619D02*
X306916666Y-390077619D01*
X306916666Y-390077619D02*
X307011904Y-390030000D01*
X307011904Y-390030000D02*
X307059523Y-389934761D01*
X307059523Y-389934761D02*
X307059523Y-389553809D01*
X307059523Y-389553809D02*
X307011904Y-389458571D01*
X307011904Y-389458571D02*
X306916666Y-389410952D01*
X306916666Y-389410952D02*
X306726190Y-389410952D01*
X306726190Y-389410952D02*
X306630952Y-389458571D01*
X306630952Y-389458571D02*
X306583333Y-389553809D01*
X306583333Y-389553809D02*
X306583333Y-389649047D01*
X306583333Y-389649047D02*
X307059523Y-389744285D01*
X306202380Y-390030000D02*
X306107142Y-390077619D01*
X306107142Y-390077619D02*
X305916666Y-390077619D01*
X305916666Y-390077619D02*
X305821428Y-390030000D01*
X305821428Y-390030000D02*
X305773809Y-389934761D01*
X305773809Y-389934761D02*
X305773809Y-389887142D01*
X305773809Y-389887142D02*
X305821428Y-389791904D01*
X305821428Y-389791904D02*
X305916666Y-389744285D01*
X305916666Y-389744285D02*
X306059523Y-389744285D01*
X306059523Y-389744285D02*
X306154761Y-389696666D01*
X306154761Y-389696666D02*
X306202380Y-389601428D01*
X306202380Y-389601428D02*
X306202380Y-389553809D01*
X306202380Y-389553809D02*
X306154761Y-389458571D01*
X306154761Y-389458571D02*
X306059523Y-389410952D01*
X306059523Y-389410952D02*
X305916666Y-389410952D01*
X305916666Y-389410952D02*
X305821428Y-389458571D01*
X304964285Y-390030000D02*
X305059523Y-390077619D01*
X305059523Y-390077619D02*
X305249999Y-390077619D01*
X305249999Y-390077619D02*
X305345237Y-390030000D01*
X305345237Y-390030000D02*
X305392856Y-389934761D01*
X305392856Y-389934761D02*
X305392856Y-389553809D01*
X305392856Y-389553809D02*
X305345237Y-389458571D01*
X305345237Y-389458571D02*
X305249999Y-389410952D01*
X305249999Y-389410952D02*
X305059523Y-389410952D01*
X305059523Y-389410952D02*
X304964285Y-389458571D01*
X304964285Y-389458571D02*
X304916666Y-389553809D01*
X304916666Y-389553809D02*
X304916666Y-389649047D01*
X304916666Y-389649047D02*
X305392856Y-389744285D01*
X304630951Y-389410952D02*
X304249999Y-389410952D01*
X304488094Y-389077619D02*
X304488094Y-389934761D01*
X304488094Y-389934761D02*
X304440475Y-390030000D01*
X304440475Y-390030000D02*
X304345237Y-390077619D01*
X304345237Y-390077619D02*
X304249999Y-390077619D01*
D11*
X370638877Y-411692639D02*
G75*
G03*
X337251178Y-382244087I-53937701J-27501451D01*
G01*
X262763475Y-466695541D02*
G75*
G03*
X296151174Y-496144092I53937698J27501448D01*
G01*
D12*
X386750000Y-439250000D02*
G75*
G03*
X386750000Y-439250000I-70000000J0D01*
G01*
D13*
X326398810Y-329068590D02*
G75*
G03*
X318089210Y-323674189I-10449944J-6999915D01*
G01*
X297198811Y-314368590D02*
G75*
G03*
X286308294Y-312401806I-8999996J-18699975D01*
G01*
X278298811Y-271668589D02*
G75*
G03*
X267601234Y-290583991I12850003J-19750001D01*
G01*
X339498811Y-345268587D02*
G75*
G03*
X350200000Y-341900000I-1800056J24400186D01*
G01*
X305196615Y-267386446D02*
G75*
G03*
X330248810Y-266268589I12202196J7817859D01*
G01*
X316068520Y-247572343D02*
G75*
G03*
X304098811Y-253568589I2480295J-19896258D01*
G01*
X346363801Y-306558904D02*
G75*
G03*
X349498812Y-313068588I15885114J3640403D01*
G01*
X339246311Y-308266034D02*
G75*
G03*
X330848811Y-312018589I5152404J-22802367D01*
G01*
X368648798Y-296118592D02*
G75*
G03*
X365193870Y-289849216I-15399883J-4399909D01*
G01*
X274418830Y-335386341D02*
G75*
G03*
X286348811Y-347368587I18829960J6817731D01*
G01*
X295798810Y-300718588D02*
G75*
G03*
X298340966Y-287375775I-14099986J9599997D01*
G01*
X365048809Y-313618588D02*
G75*
G03*
X369322698Y-305593474I-13800044J12500027D01*
G01*
X337327457Y-281560805D02*
G75*
G03*
X350348811Y-289868588I15121408J9342294D01*
G01*
X361737035Y-276366395D02*
G75*
G03*
X345203289Y-262475857I-13983710J140584D01*
G01*
X307697302Y-325159294D02*
G75*
G03*
X302698810Y-317868590I-19498383J-8009222D01*
G01*
X301438318Y-347855008D02*
G75*
G03*
X330698811Y-347868589I14635903J12179892D01*
G01*
X327348811Y-319868589D02*
G75*
G03*
X322146430Y-297394950I-11399994J9200001D01*
G01*
D10*
X295742040Y-381260370D02*
X295816763Y-382311810D01*
X295816763Y-382311810D02*
X295126120Y-381515492D01*
X295068861Y-382621602D02*
X295138626Y-382541161D01*
X295138626Y-382541161D02*
X295164398Y-382478944D01*
X295164398Y-382478944D02*
X295171946Y-382372733D01*
X295171946Y-382372733D02*
X295062608Y-382108767D01*
X295062608Y-382108767D02*
X294982167Y-382039002D01*
X294982167Y-382039002D02*
X294919950Y-382013230D01*
X294919950Y-382013230D02*
X294813739Y-382005682D01*
X294813739Y-382005682D02*
X294681756Y-382060351D01*
X294681756Y-382060351D02*
X294611990Y-382140791D01*
X294611990Y-382140791D02*
X294586219Y-382203009D01*
X294586219Y-382203009D02*
X294578671Y-382309220D01*
X294578671Y-382309220D02*
X294688009Y-382573186D01*
X294688009Y-382573186D02*
X294768449Y-382642951D01*
X294768449Y-382642951D02*
X294830667Y-382668723D01*
X294830667Y-382668723D02*
X294936878Y-382676271D01*
X294936878Y-382676271D02*
X295068861Y-382621602D01*
X294232970Y-382967839D02*
X294302735Y-382887399D01*
X294302735Y-382887399D02*
X294310284Y-382781187D01*
X294310284Y-382781187D02*
X293982269Y-381989291D01*
X293229945Y-382661711D02*
X293485067Y-383277631D01*
X293625893Y-382497704D02*
X293826346Y-382981641D01*
X293826346Y-382981641D02*
X293818798Y-383087852D01*
X293818798Y-383087852D02*
X293749032Y-383168293D01*
X293749032Y-383168293D02*
X293617050Y-383222962D01*
X293617050Y-383222962D02*
X293510838Y-383215413D01*
X293510838Y-383215413D02*
X293448621Y-383189642D01*
X293045124Y-383459861D02*
X292790002Y-382843941D01*
X292826448Y-382931930D02*
X292764231Y-382906159D01*
X292764231Y-382906159D02*
X292658019Y-382898610D01*
X292658019Y-382898610D02*
X292526036Y-382953279D01*
X292526036Y-382953279D02*
X292456271Y-383033720D01*
X292456271Y-383033720D02*
X292448723Y-383139931D01*
X292448723Y-383139931D02*
X292649176Y-383623868D01*
X292448723Y-383139931D02*
X292368282Y-383070166D01*
X292368282Y-383070166D02*
X292262071Y-383062618D01*
X292262071Y-383062618D02*
X292130088Y-383117287D01*
X292130088Y-383117287D02*
X292060322Y-383197727D01*
X292060322Y-383197727D02*
X292052774Y-383303938D01*
X292052774Y-383303938D02*
X292253227Y-383787875D01*
X291443108Y-384071895D02*
X291549319Y-384079444D01*
X291549319Y-384079444D02*
X291725297Y-384006551D01*
X291725297Y-384006551D02*
X291795062Y-383926111D01*
X291795062Y-383926111D02*
X291802610Y-383819900D01*
X291802610Y-383819900D02*
X291656826Y-383467946D01*
X291656826Y-383467946D02*
X291576386Y-383398180D01*
X291576386Y-383398180D02*
X291470174Y-383390632D01*
X291470174Y-383390632D02*
X291294197Y-383463524D01*
X291294197Y-383463524D02*
X291224432Y-383543964D01*
X291224432Y-383543964D02*
X291216883Y-383650176D01*
X291216883Y-383650176D02*
X291253330Y-383738164D01*
X291253330Y-383738164D02*
X291729718Y-383643923D01*
X277011904Y-329977619D02*
X277011904Y-328977619D01*
X277011904Y-328977619D02*
X276773809Y-328977619D01*
X276773809Y-328977619D02*
X276630952Y-329025238D01*
X276630952Y-329025238D02*
X276535714Y-329120476D01*
X276535714Y-329120476D02*
X276488095Y-329215714D01*
X276488095Y-329215714D02*
X276440476Y-329406190D01*
X276440476Y-329406190D02*
X276440476Y-329549047D01*
X276440476Y-329549047D02*
X276488095Y-329739523D01*
X276488095Y-329739523D02*
X276535714Y-329834761D01*
X276535714Y-329834761D02*
X276630952Y-329930000D01*
X276630952Y-329930000D02*
X276773809Y-329977619D01*
X276773809Y-329977619D02*
X277011904Y-329977619D01*
X275583333Y-329977619D02*
X275583333Y-329453809D01*
X275583333Y-329453809D02*
X275630952Y-329358571D01*
X275630952Y-329358571D02*
X275726190Y-329310952D01*
X275726190Y-329310952D02*
X275916666Y-329310952D01*
X275916666Y-329310952D02*
X276011904Y-329358571D01*
X275583333Y-329930000D02*
X275678571Y-329977619D01*
X275678571Y-329977619D02*
X275916666Y-329977619D01*
X275916666Y-329977619D02*
X276011904Y-329930000D01*
X276011904Y-329930000D02*
X276059523Y-329834761D01*
X276059523Y-329834761D02*
X276059523Y-329739523D01*
X276059523Y-329739523D02*
X276011904Y-329644285D01*
X276011904Y-329644285D02*
X275916666Y-329596666D01*
X275916666Y-329596666D02*
X275678571Y-329596666D01*
X275678571Y-329596666D02*
X275583333Y-329549047D01*
X275249999Y-329310952D02*
X274869047Y-329310952D01*
X275107142Y-328977619D02*
X275107142Y-329834761D01*
X275107142Y-329834761D02*
X275059523Y-329930000D01*
X275059523Y-329930000D02*
X274964285Y-329977619D01*
X274964285Y-329977619D02*
X274869047Y-329977619D01*
X276440476Y-327277619D02*
X276773809Y-326801428D01*
X277011904Y-327277619D02*
X277011904Y-326277619D01*
X277011904Y-326277619D02*
X276630952Y-326277619D01*
X276630952Y-326277619D02*
X276535714Y-326325238D01*
X276535714Y-326325238D02*
X276488095Y-326372857D01*
X276488095Y-326372857D02*
X276440476Y-326468095D01*
X276440476Y-326468095D02*
X276440476Y-326610952D01*
X276440476Y-326610952D02*
X276488095Y-326706190D01*
X276488095Y-326706190D02*
X276535714Y-326753809D01*
X276535714Y-326753809D02*
X276630952Y-326801428D01*
X276630952Y-326801428D02*
X277011904Y-326801428D01*
X276059523Y-327230000D02*
X275964285Y-327277619D01*
X275964285Y-327277619D02*
X275773809Y-327277619D01*
X275773809Y-327277619D02*
X275678571Y-327230000D01*
X275678571Y-327230000D02*
X275630952Y-327134761D01*
X275630952Y-327134761D02*
X275630952Y-327087142D01*
X275630952Y-327087142D02*
X275678571Y-326991904D01*
X275678571Y-326991904D02*
X275773809Y-326944285D01*
X275773809Y-326944285D02*
X275916666Y-326944285D01*
X275916666Y-326944285D02*
X276011904Y-326896666D01*
X276011904Y-326896666D02*
X276059523Y-326801428D01*
X276059523Y-326801428D02*
X276059523Y-326753809D01*
X276059523Y-326753809D02*
X276011904Y-326658571D01*
X276011904Y-326658571D02*
X275916666Y-326610952D01*
X275916666Y-326610952D02*
X275773809Y-326610952D01*
X275773809Y-326610952D02*
X275678571Y-326658571D01*
X275345237Y-326610952D02*
X274964285Y-326610952D01*
X275202380Y-326277619D02*
X275202380Y-327134761D01*
X275202380Y-327134761D02*
X275154761Y-327230000D01*
X275154761Y-327230000D02*
X275059523Y-327277619D01*
X275059523Y-327277619D02*
X274964285Y-327277619D01*
X276488095Y-331425238D02*
X276583333Y-331377619D01*
X276583333Y-331377619D02*
X276726190Y-331377619D01*
X276726190Y-331377619D02*
X276869047Y-331425238D01*
X276869047Y-331425238D02*
X276964285Y-331520476D01*
X276964285Y-331520476D02*
X277011904Y-331615714D01*
X277011904Y-331615714D02*
X277059523Y-331806190D01*
X277059523Y-331806190D02*
X277059523Y-331949047D01*
X277059523Y-331949047D02*
X277011904Y-332139523D01*
X277011904Y-332139523D02*
X276964285Y-332234761D01*
X276964285Y-332234761D02*
X276869047Y-332330000D01*
X276869047Y-332330000D02*
X276726190Y-332377619D01*
X276726190Y-332377619D02*
X276630952Y-332377619D01*
X276630952Y-332377619D02*
X276488095Y-332330000D01*
X276488095Y-332330000D02*
X276440476Y-332282380D01*
X276440476Y-332282380D02*
X276440476Y-331949047D01*
X276440476Y-331949047D02*
X276630952Y-331949047D01*
X276011904Y-331710952D02*
X276011904Y-332377619D01*
X276011904Y-331806190D02*
X275964285Y-331758571D01*
X275964285Y-331758571D02*
X275869047Y-331710952D01*
X275869047Y-331710952D02*
X275726190Y-331710952D01*
X275726190Y-331710952D02*
X275630952Y-331758571D01*
X275630952Y-331758571D02*
X275583333Y-331853809D01*
X275583333Y-331853809D02*
X275583333Y-332377619D01*
X274678571Y-332377619D02*
X274678571Y-331377619D01*
X274678571Y-332330000D02*
X274773809Y-332377619D01*
X274773809Y-332377619D02*
X274964285Y-332377619D01*
X274964285Y-332377619D02*
X275059523Y-332330000D01*
X275059523Y-332330000D02*
X275107142Y-332282380D01*
X275107142Y-332282380D02*
X275154761Y-332187142D01*
X275154761Y-332187142D02*
X275154761Y-331901428D01*
X275154761Y-331901428D02*
X275107142Y-331806190D01*
X275107142Y-331806190D02*
X275059523Y-331758571D01*
X275059523Y-331758571D02*
X274964285Y-331710952D01*
X274964285Y-331710952D02*
X274773809Y-331710952D01*
X274773809Y-331710952D02*
X274678571Y-331758571D01*
X277057142Y-323777619D02*
X276438095Y-323777619D01*
X276438095Y-323777619D02*
X276771428Y-324158571D01*
X276771428Y-324158571D02*
X276628571Y-324158571D01*
X276628571Y-324158571D02*
X276533333Y-324206190D01*
X276533333Y-324206190D02*
X276485714Y-324253809D01*
X276485714Y-324253809D02*
X276438095Y-324349047D01*
X276438095Y-324349047D02*
X276438095Y-324587142D01*
X276438095Y-324587142D02*
X276485714Y-324682380D01*
X276485714Y-324682380D02*
X276533333Y-324730000D01*
X276533333Y-324730000D02*
X276628571Y-324777619D01*
X276628571Y-324777619D02*
X276914285Y-324777619D01*
X276914285Y-324777619D02*
X277009523Y-324730000D01*
X277009523Y-324730000D02*
X277057142Y-324682380D01*
X276009523Y-324682380D02*
X275961904Y-324730000D01*
X275961904Y-324730000D02*
X276009523Y-324777619D01*
X276009523Y-324777619D02*
X276057142Y-324730000D01*
X276057142Y-324730000D02*
X276009523Y-324682380D01*
X276009523Y-324682380D02*
X276009523Y-324777619D01*
X275628571Y-323777619D02*
X275009524Y-323777619D01*
X275009524Y-323777619D02*
X275342857Y-324158571D01*
X275342857Y-324158571D02*
X275200000Y-324158571D01*
X275200000Y-324158571D02*
X275104762Y-324206190D01*
X275104762Y-324206190D02*
X275057143Y-324253809D01*
X275057143Y-324253809D02*
X275009524Y-324349047D01*
X275009524Y-324349047D02*
X275009524Y-324587142D01*
X275009524Y-324587142D02*
X275057143Y-324682380D01*
X275057143Y-324682380D02*
X275104762Y-324730000D01*
X275104762Y-324730000D02*
X275200000Y-324777619D01*
X275200000Y-324777619D02*
X275485714Y-324777619D01*
X275485714Y-324777619D02*
X275580952Y-324730000D01*
X275580952Y-324730000D02*
X275628571Y-324682380D01*
X317585714Y-415398809D02*
X317442857Y-415446428D01*
X317442857Y-415446428D02*
X317395238Y-415494047D01*
X317395238Y-415494047D02*
X317347619Y-415589285D01*
X317347619Y-415589285D02*
X317347619Y-415732142D01*
X317347619Y-415732142D02*
X317395238Y-415827380D01*
X317395238Y-415827380D02*
X317442857Y-415875000D01*
X317442857Y-415875000D02*
X317538095Y-415922619D01*
X317538095Y-415922619D02*
X317919047Y-415922619D01*
X317919047Y-415922619D02*
X317919047Y-414922619D01*
X317919047Y-414922619D02*
X317585714Y-414922619D01*
X317585714Y-414922619D02*
X317490476Y-414970238D01*
X317490476Y-414970238D02*
X317442857Y-415017857D01*
X317442857Y-415017857D02*
X317395238Y-415113095D01*
X317395238Y-415113095D02*
X317395238Y-415208333D01*
X317395238Y-415208333D02*
X317442857Y-415303571D01*
X317442857Y-415303571D02*
X317490476Y-415351190D01*
X317490476Y-415351190D02*
X317585714Y-415398809D01*
X317585714Y-415398809D02*
X317919047Y-415398809D01*
X317061904Y-414922619D02*
X316490476Y-414922619D01*
X316776190Y-415922619D02*
X316776190Y-414922619D01*
X315633333Y-415922619D02*
X316204761Y-415922619D01*
X315919047Y-415922619D02*
X315919047Y-414922619D01*
X315919047Y-414922619D02*
X316014285Y-415065476D01*
X316014285Y-415065476D02*
X316109523Y-415160714D01*
X316109523Y-415160714D02*
X316204761Y-415208333D01*
X347871428Y-439282500D02*
X346728571Y-439282500D01*
X347871428Y-425692500D02*
X346728571Y-425692500D01*
X347299999Y-426263928D02*
X347299999Y-425121071D01*
X328166428Y-425692500D02*
X327023571Y-425692500D01*
X327594999Y-426263928D02*
X327594999Y-425121071D01*
X306576428Y-425692500D02*
X305433571Y-425692500D01*
X328166428Y-439282500D02*
X327023571Y-439282500D01*
X306576428Y-439282500D02*
X305433571Y-439282500D01*
X306004999Y-439853928D02*
X306004999Y-438711071D01*
X330237619Y-383506076D02*
X330237619Y-384024171D01*
X330237619Y-384024171D02*
X330207142Y-384085123D01*
X330207142Y-384085123D02*
X330176666Y-384115600D01*
X330176666Y-384115600D02*
X330115714Y-384146076D01*
X330115714Y-384146076D02*
X329993809Y-384146076D01*
X329993809Y-384146076D02*
X329932857Y-384115600D01*
X329932857Y-384115600D02*
X329902380Y-384085123D01*
X329902380Y-384085123D02*
X329871904Y-384024171D01*
X329871904Y-384024171D02*
X329871904Y-383506076D01*
X329292857Y-383719409D02*
X329292857Y-384146076D01*
X329445238Y-383475600D02*
X329597619Y-383932742D01*
X329597619Y-383932742D02*
X329201428Y-383932742D01*
X314616666Y-396617380D02*
X314664285Y-396665000D01*
X314664285Y-396665000D02*
X314807142Y-396712619D01*
X314807142Y-396712619D02*
X314902380Y-396712619D01*
X314902380Y-396712619D02*
X315045237Y-396665000D01*
X315045237Y-396665000D02*
X315140475Y-396569761D01*
X315140475Y-396569761D02*
X315188094Y-396474523D01*
X315188094Y-396474523D02*
X315235713Y-396284047D01*
X315235713Y-396284047D02*
X315235713Y-396141190D01*
X315235713Y-396141190D02*
X315188094Y-395950714D01*
X315188094Y-395950714D02*
X315140475Y-395855476D01*
X315140475Y-395855476D02*
X315045237Y-395760238D01*
X315045237Y-395760238D02*
X314902380Y-395712619D01*
X314902380Y-395712619D02*
X314807142Y-395712619D01*
X314807142Y-395712619D02*
X314664285Y-395760238D01*
X314664285Y-395760238D02*
X314616666Y-395807857D01*
X314045237Y-396141190D02*
X314140475Y-396093571D01*
X314140475Y-396093571D02*
X314188094Y-396045952D01*
X314188094Y-396045952D02*
X314235713Y-395950714D01*
X314235713Y-395950714D02*
X314235713Y-395903095D01*
X314235713Y-395903095D02*
X314188094Y-395807857D01*
X314188094Y-395807857D02*
X314140475Y-395760238D01*
X314140475Y-395760238D02*
X314045237Y-395712619D01*
X314045237Y-395712619D02*
X313854761Y-395712619D01*
X313854761Y-395712619D02*
X313759523Y-395760238D01*
X313759523Y-395760238D02*
X313711904Y-395807857D01*
X313711904Y-395807857D02*
X313664285Y-395903095D01*
X313664285Y-395903095D02*
X313664285Y-395950714D01*
X313664285Y-395950714D02*
X313711904Y-396045952D01*
X313711904Y-396045952D02*
X313759523Y-396093571D01*
X313759523Y-396093571D02*
X313854761Y-396141190D01*
X313854761Y-396141190D02*
X314045237Y-396141190D01*
X314045237Y-396141190D02*
X314140475Y-396188809D01*
X314140475Y-396188809D02*
X314188094Y-396236428D01*
X314188094Y-396236428D02*
X314235713Y-396331666D01*
X314235713Y-396331666D02*
X314235713Y-396522142D01*
X314235713Y-396522142D02*
X314188094Y-396617380D01*
X314188094Y-396617380D02*
X314140475Y-396665000D01*
X314140475Y-396665000D02*
X314045237Y-396712619D01*
X314045237Y-396712619D02*
X313854761Y-396712619D01*
X313854761Y-396712619D02*
X313759523Y-396665000D01*
X313759523Y-396665000D02*
X313711904Y-396617380D01*
X313711904Y-396617380D02*
X313664285Y-396522142D01*
X313664285Y-396522142D02*
X313664285Y-396331666D01*
X313664285Y-396331666D02*
X313711904Y-396236428D01*
X313711904Y-396236428D02*
X313759523Y-396188809D01*
X313759523Y-396188809D02*
X313854761Y-396141190D01*
X311562619Y-365633333D02*
X311086428Y-365300000D01*
X311562619Y-365061905D02*
X310562619Y-365061905D01*
X310562619Y-365061905D02*
X310562619Y-365442857D01*
X310562619Y-365442857D02*
X310610238Y-365538095D01*
X310610238Y-365538095D02*
X310657857Y-365585714D01*
X310657857Y-365585714D02*
X310753095Y-365633333D01*
X310753095Y-365633333D02*
X310895952Y-365633333D01*
X310895952Y-365633333D02*
X310991190Y-365585714D01*
X310991190Y-365585714D02*
X311038809Y-365538095D01*
X311038809Y-365538095D02*
X311086428Y-365442857D01*
X311086428Y-365442857D02*
X311086428Y-365061905D01*
X311562619Y-366109524D02*
X311562619Y-366300000D01*
X311562619Y-366300000D02*
X311515000Y-366395238D01*
X311515000Y-366395238D02*
X311467380Y-366442857D01*
X311467380Y-366442857D02*
X311324523Y-366538095D01*
X311324523Y-366538095D02*
X311134047Y-366585714D01*
X311134047Y-366585714D02*
X310753095Y-366585714D01*
X310753095Y-366585714D02*
X310657857Y-366538095D01*
X310657857Y-366538095D02*
X310610238Y-366490476D01*
X310610238Y-366490476D02*
X310562619Y-366395238D01*
X310562619Y-366395238D02*
X310562619Y-366204762D01*
X310562619Y-366204762D02*
X310610238Y-366109524D01*
X310610238Y-366109524D02*
X310657857Y-366061905D01*
X310657857Y-366061905D02*
X310753095Y-366014286D01*
X310753095Y-366014286D02*
X310991190Y-366014286D01*
X310991190Y-366014286D02*
X311086428Y-366061905D01*
X311086428Y-366061905D02*
X311134047Y-366109524D01*
X311134047Y-366109524D02*
X311181666Y-366204762D01*
X311181666Y-366204762D02*
X311181666Y-366395238D01*
X311181666Y-366395238D02*
X311134047Y-366490476D01*
X311134047Y-366490476D02*
X311086428Y-366538095D01*
X311086428Y-366538095D02*
X310991190Y-366585714D01*
X332711799Y-478247444D02*
X331963897Y-478557235D01*
X331963897Y-478557235D02*
X331857685Y-478549687D01*
X331857685Y-478549687D02*
X331795468Y-478523916D01*
X331795468Y-478523916D02*
X331715028Y-478454151D01*
X331715028Y-478454151D02*
X331642135Y-478278173D01*
X331642135Y-478278173D02*
X331649684Y-478171962D01*
X331649684Y-478171962D02*
X331675455Y-478109745D01*
X331675455Y-478109745D02*
X331745220Y-478029304D01*
X331745220Y-478029304D02*
X332493123Y-477719513D01*
X331186560Y-477178317D02*
X331405236Y-477706248D01*
X331295898Y-477442282D02*
X332219778Y-477059599D01*
X332219778Y-477059599D02*
X332124241Y-477202257D01*
X332124241Y-477202257D02*
X332072698Y-477326691D01*
X332072698Y-477326691D02*
X332065150Y-477432903D01*
X331876667Y-476480125D02*
X331902438Y-476417908D01*
X331902438Y-476417908D02*
X331909986Y-476311697D01*
X331909986Y-476311697D02*
X331818871Y-476091725D01*
X331818871Y-476091725D02*
X331738431Y-476021960D01*
X331738431Y-476021960D02*
X331676214Y-475996188D01*
X331676214Y-475996188D02*
X331570002Y-475988640D01*
X331570002Y-475988640D02*
X331482013Y-476025086D01*
X331482013Y-476025086D02*
X331368254Y-476123750D01*
X331368254Y-476123750D02*
X331058999Y-476870357D01*
X331058999Y-476870357D02*
X330822099Y-476298432D01*
X319842857Y-361567380D02*
X319890476Y-361615000D01*
X319890476Y-361615000D02*
X320033333Y-361662619D01*
X320033333Y-361662619D02*
X320128571Y-361662619D01*
X320128571Y-361662619D02*
X320271428Y-361615000D01*
X320271428Y-361615000D02*
X320366666Y-361519761D01*
X320366666Y-361519761D02*
X320414285Y-361424523D01*
X320414285Y-361424523D02*
X320461904Y-361234047D01*
X320461904Y-361234047D02*
X320461904Y-361091190D01*
X320461904Y-361091190D02*
X320414285Y-360900714D01*
X320414285Y-360900714D02*
X320366666Y-360805476D01*
X320366666Y-360805476D02*
X320271428Y-360710238D01*
X320271428Y-360710238D02*
X320128571Y-360662619D01*
X320128571Y-360662619D02*
X320033333Y-360662619D01*
X320033333Y-360662619D02*
X319890476Y-360710238D01*
X319890476Y-360710238D02*
X319842857Y-360757857D01*
X318890476Y-361662619D02*
X319461904Y-361662619D01*
X319176190Y-361662619D02*
X319176190Y-360662619D01*
X319176190Y-360662619D02*
X319271428Y-360805476D01*
X319271428Y-360805476D02*
X319366666Y-360900714D01*
X319366666Y-360900714D02*
X319461904Y-360948333D01*
X318509523Y-360757857D02*
X318461904Y-360710238D01*
X318461904Y-360710238D02*
X318366666Y-360662619D01*
X318366666Y-360662619D02*
X318128571Y-360662619D01*
X318128571Y-360662619D02*
X318033333Y-360710238D01*
X318033333Y-360710238D02*
X317985714Y-360757857D01*
X317985714Y-360757857D02*
X317938095Y-360853095D01*
X317938095Y-360853095D02*
X317938095Y-360948333D01*
X317938095Y-360948333D02*
X317985714Y-361091190D01*
X317985714Y-361091190D02*
X318557142Y-361662619D01*
X318557142Y-361662619D02*
X317938095Y-361662619D01*
X314662619Y-365633333D02*
X314186428Y-365300000D01*
X314662619Y-365061905D02*
X313662619Y-365061905D01*
X313662619Y-365061905D02*
X313662619Y-365442857D01*
X313662619Y-365442857D02*
X313710238Y-365538095D01*
X313710238Y-365538095D02*
X313757857Y-365585714D01*
X313757857Y-365585714D02*
X313853095Y-365633333D01*
X313853095Y-365633333D02*
X313995952Y-365633333D01*
X313995952Y-365633333D02*
X314091190Y-365585714D01*
X314091190Y-365585714D02*
X314138809Y-365538095D01*
X314138809Y-365538095D02*
X314186428Y-365442857D01*
X314186428Y-365442857D02*
X314186428Y-365061905D01*
X314091190Y-366204762D02*
X314043571Y-366109524D01*
X314043571Y-366109524D02*
X313995952Y-366061905D01*
X313995952Y-366061905D02*
X313900714Y-366014286D01*
X313900714Y-366014286D02*
X313853095Y-366014286D01*
X313853095Y-366014286D02*
X313757857Y-366061905D01*
X313757857Y-366061905D02*
X313710238Y-366109524D01*
X313710238Y-366109524D02*
X313662619Y-366204762D01*
X313662619Y-366204762D02*
X313662619Y-366395238D01*
X313662619Y-366395238D02*
X313710238Y-366490476D01*
X313710238Y-366490476D02*
X313757857Y-366538095D01*
X313757857Y-366538095D02*
X313853095Y-366585714D01*
X313853095Y-366585714D02*
X313900714Y-366585714D01*
X313900714Y-366585714D02*
X313995952Y-366538095D01*
X313995952Y-366538095D02*
X314043571Y-366490476D01*
X314043571Y-366490476D02*
X314091190Y-366395238D01*
X314091190Y-366395238D02*
X314091190Y-366204762D01*
X314091190Y-366204762D02*
X314138809Y-366109524D01*
X314138809Y-366109524D02*
X314186428Y-366061905D01*
X314186428Y-366061905D02*
X314281666Y-366014286D01*
X314281666Y-366014286D02*
X314472142Y-366014286D01*
X314472142Y-366014286D02*
X314567380Y-366061905D01*
X314567380Y-366061905D02*
X314615000Y-366109524D01*
X314615000Y-366109524D02*
X314662619Y-366204762D01*
X314662619Y-366204762D02*
X314662619Y-366395238D01*
X314662619Y-366395238D02*
X314615000Y-366490476D01*
X314615000Y-366490476D02*
X314567380Y-366538095D01*
X314567380Y-366538095D02*
X314472142Y-366585714D01*
X314472142Y-366585714D02*
X314281666Y-366585714D01*
X314281666Y-366585714D02*
X314186428Y-366538095D01*
X314186428Y-366538095D02*
X314138809Y-366490476D01*
X314138809Y-366490476D02*
X314091190Y-366395238D01*
X314557857Y-356104761D02*
X314510238Y-356009523D01*
X314510238Y-356009523D02*
X314415000Y-355914285D01*
X314415000Y-355914285D02*
X314272142Y-355771428D01*
X314272142Y-355771428D02*
X314224523Y-355676190D01*
X314224523Y-355676190D02*
X314224523Y-355580952D01*
X314462619Y-355628571D02*
X314415000Y-355533333D01*
X314415000Y-355533333D02*
X314319761Y-355438095D01*
X314319761Y-355438095D02*
X314129285Y-355390476D01*
X314129285Y-355390476D02*
X313795952Y-355390476D01*
X313795952Y-355390476D02*
X313605476Y-355438095D01*
X313605476Y-355438095D02*
X313510238Y-355533333D01*
X313510238Y-355533333D02*
X313462619Y-355628571D01*
X313462619Y-355628571D02*
X313462619Y-355819047D01*
X313462619Y-355819047D02*
X313510238Y-355914285D01*
X313510238Y-355914285D02*
X313605476Y-356009523D01*
X313605476Y-356009523D02*
X313795952Y-356057142D01*
X313795952Y-356057142D02*
X314129285Y-356057142D01*
X314129285Y-356057142D02*
X314319761Y-356009523D01*
X314319761Y-356009523D02*
X314415000Y-355914285D01*
X314415000Y-355914285D02*
X314462619Y-355819047D01*
X314462619Y-355819047D02*
X314462619Y-355628571D01*
X313557857Y-356438095D02*
X313510238Y-356485714D01*
X313510238Y-356485714D02*
X313462619Y-356580952D01*
X313462619Y-356580952D02*
X313462619Y-356819047D01*
X313462619Y-356819047D02*
X313510238Y-356914285D01*
X313510238Y-356914285D02*
X313557857Y-356961904D01*
X313557857Y-356961904D02*
X313653095Y-357009523D01*
X313653095Y-357009523D02*
X313748333Y-357009523D01*
X313748333Y-357009523D02*
X313891190Y-356961904D01*
X313891190Y-356961904D02*
X314462619Y-356390476D01*
X314462619Y-356390476D02*
X314462619Y-357009523D01*
X265917696Y-431087142D02*
X265965316Y-431039523D01*
X265965316Y-431039523D02*
X266012935Y-430896666D01*
X266012935Y-430896666D02*
X266012935Y-430801428D01*
X266012935Y-430801428D02*
X265965316Y-430658571D01*
X265965316Y-430658571D02*
X265870077Y-430563333D01*
X265870077Y-430563333D02*
X265774839Y-430515714D01*
X265774839Y-430515714D02*
X265584363Y-430468095D01*
X265584363Y-430468095D02*
X265441506Y-430468095D01*
X265441506Y-430468095D02*
X265251030Y-430515714D01*
X265251030Y-430515714D02*
X265155792Y-430563333D01*
X265155792Y-430563333D02*
X265060554Y-430658571D01*
X265060554Y-430658571D02*
X265012935Y-430801428D01*
X265012935Y-430801428D02*
X265012935Y-430896666D01*
X265012935Y-430896666D02*
X265060554Y-431039523D01*
X265060554Y-431039523D02*
X265108173Y-431087142D01*
X265108173Y-431468095D02*
X265060554Y-431515714D01*
X265060554Y-431515714D02*
X265012935Y-431610952D01*
X265012935Y-431610952D02*
X265012935Y-431849047D01*
X265012935Y-431849047D02*
X265060554Y-431944285D01*
X265060554Y-431944285D02*
X265108173Y-431991904D01*
X265108173Y-431991904D02*
X265203411Y-432039523D01*
X265203411Y-432039523D02*
X265298649Y-432039523D01*
X265298649Y-432039523D02*
X265441506Y-431991904D01*
X265441506Y-431991904D02*
X266012935Y-431420476D01*
X266012935Y-431420476D02*
X266012935Y-432039523D01*
X265012935Y-432372857D02*
X265012935Y-433039523D01*
X265012935Y-433039523D02*
X266012935Y-432610952D01*
X353092967Y-468789931D02*
X353160310Y-468789931D01*
X353160310Y-468789931D02*
X353294997Y-468722588D01*
X353294997Y-468722588D02*
X353362341Y-468655244D01*
X353362341Y-468655244D02*
X353429684Y-468520557D01*
X353429684Y-468520557D02*
X353429684Y-468385870D01*
X353429684Y-468385870D02*
X353396013Y-468284855D01*
X353396013Y-468284855D02*
X353294997Y-468116496D01*
X353294997Y-468116496D02*
X353193982Y-468015481D01*
X353193982Y-468015481D02*
X353025623Y-467914466D01*
X353025623Y-467914466D02*
X352924608Y-467880794D01*
X352924608Y-467880794D02*
X352789921Y-467880794D01*
X352789921Y-467880794D02*
X352655234Y-467948138D01*
X352655234Y-467948138D02*
X352587890Y-468015481D01*
X352587890Y-468015481D02*
X352520547Y-468150168D01*
X352520547Y-468150168D02*
X352520547Y-468217512D01*
X352251173Y-468486886D02*
X352183829Y-468486886D01*
X352183829Y-468486886D02*
X352082814Y-468520557D01*
X352082814Y-468520557D02*
X351914455Y-468688916D01*
X351914455Y-468688916D02*
X351880784Y-468789931D01*
X351880784Y-468789931D02*
X351880784Y-468857275D01*
X351880784Y-468857275D02*
X351914455Y-468958290D01*
X351914455Y-468958290D02*
X351981799Y-469025634D01*
X351981799Y-469025634D02*
X352116486Y-469092977D01*
X352116486Y-469092977D02*
X352924608Y-469092977D01*
X352924608Y-469092977D02*
X352486875Y-469530710D01*
X351813440Y-470204145D02*
X352217501Y-469800084D01*
X352015471Y-470002114D02*
X351308364Y-469295008D01*
X351308364Y-469295008D02*
X351476723Y-469328679D01*
X351476723Y-469328679D02*
X351611410Y-469328679D01*
X351611410Y-469328679D02*
X351712425Y-469295008D01*
X317912857Y-381417696D02*
X317960476Y-381465316D01*
X317960476Y-381465316D02*
X318103333Y-381512935D01*
X318103333Y-381512935D02*
X318198571Y-381512935D01*
X318198571Y-381512935D02*
X318341428Y-381465316D01*
X318341428Y-381465316D02*
X318436666Y-381370077D01*
X318436666Y-381370077D02*
X318484285Y-381274839D01*
X318484285Y-381274839D02*
X318531904Y-381084363D01*
X318531904Y-381084363D02*
X318531904Y-380941506D01*
X318531904Y-380941506D02*
X318484285Y-380751030D01*
X318484285Y-380751030D02*
X318436666Y-380655792D01*
X318436666Y-380655792D02*
X318341428Y-380560554D01*
X318341428Y-380560554D02*
X318198571Y-380512935D01*
X318198571Y-380512935D02*
X318103333Y-380512935D01*
X318103333Y-380512935D02*
X317960476Y-380560554D01*
X317960476Y-380560554D02*
X317912857Y-380608173D01*
X316960476Y-381512935D02*
X317531904Y-381512935D01*
X317246190Y-381512935D02*
X317246190Y-380512935D01*
X317246190Y-380512935D02*
X317341428Y-380655792D01*
X317341428Y-380655792D02*
X317436666Y-380751030D01*
X317436666Y-380751030D02*
X317531904Y-380798649D01*
X316055714Y-380512935D02*
X316531904Y-380512935D01*
X316531904Y-380512935D02*
X316579523Y-380989125D01*
X316579523Y-380989125D02*
X316531904Y-380941506D01*
X316531904Y-380941506D02*
X316436666Y-380893887D01*
X316436666Y-380893887D02*
X316198571Y-380893887D01*
X316198571Y-380893887D02*
X316103333Y-380941506D01*
X316103333Y-380941506D02*
X316055714Y-380989125D01*
X316055714Y-380989125D02*
X316008095Y-381084363D01*
X316008095Y-381084363D02*
X316008095Y-381322458D01*
X316008095Y-381322458D02*
X316055714Y-381417696D01*
X316055714Y-381417696D02*
X316103333Y-381465316D01*
X316103333Y-381465316D02*
X316198571Y-381512935D01*
X316198571Y-381512935D02*
X316436666Y-381512935D01*
X316436666Y-381512935D02*
X316531904Y-381465316D01*
X316531904Y-381465316D02*
X316579523Y-381417696D01*
X275795610Y-411587095D02*
X275485818Y-412334997D01*
X275485818Y-412334997D02*
X275405378Y-412404763D01*
X275405378Y-412404763D02*
X275343161Y-412430534D01*
X275343161Y-412430534D02*
X275236949Y-412438082D01*
X275236949Y-412438082D02*
X275060972Y-412365190D01*
X275060972Y-412365190D02*
X274991207Y-412284750D01*
X274991207Y-412284750D02*
X274965435Y-412222532D01*
X274965435Y-412222532D02*
X274957887Y-412116321D01*
X274957887Y-412116321D02*
X275267679Y-411368418D01*
X273961116Y-411909614D02*
X274489047Y-412128291D01*
X274225081Y-412018953D02*
X274607765Y-411095073D01*
X274607765Y-411095073D02*
X274641084Y-411263502D01*
X274641084Y-411263502D02*
X274692627Y-411387936D01*
X274692627Y-411387936D02*
X274762392Y-411468377D01*
X273651861Y-411163007D02*
X273758072Y-411155459D01*
X273758072Y-411155459D02*
X273820289Y-411129688D01*
X273820289Y-411129688D02*
X273900730Y-411059922D01*
X273900730Y-411059922D02*
X273918953Y-411015928D01*
X273918953Y-411015928D02*
X273911405Y-410909716D01*
X273911405Y-410909716D02*
X273885633Y-410847499D01*
X273885633Y-410847499D02*
X273815868Y-410767059D01*
X273815868Y-410767059D02*
X273639891Y-410694167D01*
X273639891Y-410694167D02*
X273533679Y-410701715D01*
X273533679Y-410701715D02*
X273471462Y-410727486D01*
X273471462Y-410727486D02*
X273391022Y-410797252D01*
X273391022Y-410797252D02*
X273372799Y-410841246D01*
X273372799Y-410841246D02*
X273380347Y-410947457D01*
X273380347Y-410947457D02*
X273406118Y-411009675D01*
X273406118Y-411009675D02*
X273475884Y-411090115D01*
X273475884Y-411090115D02*
X273651861Y-411163007D01*
X273651861Y-411163007D02*
X273721626Y-411243447D01*
X273721626Y-411243447D02*
X273747397Y-411305665D01*
X273747397Y-411305665D02*
X273754946Y-411411876D01*
X273754946Y-411411876D02*
X273682054Y-411587853D01*
X273682054Y-411587853D02*
X273601613Y-411657619D01*
X273601613Y-411657619D02*
X273539396Y-411683390D01*
X273539396Y-411683390D02*
X273433184Y-411690938D01*
X273433184Y-411690938D02*
X273257207Y-411618046D01*
X273257207Y-411618046D02*
X273187442Y-411537606D01*
X273187442Y-411537606D02*
X273161671Y-411475389D01*
X273161671Y-411475389D02*
X273154122Y-411369177D01*
X273154122Y-411369177D02*
X273227014Y-411193200D01*
X273227014Y-411193200D02*
X273307455Y-411123434D01*
X273307455Y-411123434D02*
X273369672Y-411097663D01*
X273369672Y-411097663D02*
X273475884Y-411090115D01*
X315502619Y-342207142D02*
X315026428Y-341873809D01*
X315502619Y-341635714D02*
X314502619Y-341635714D01*
X314502619Y-341635714D02*
X314502619Y-342016666D01*
X314502619Y-342016666D02*
X314550238Y-342111904D01*
X314550238Y-342111904D02*
X314597857Y-342159523D01*
X314597857Y-342159523D02*
X314693095Y-342207142D01*
X314693095Y-342207142D02*
X314835952Y-342207142D01*
X314835952Y-342207142D02*
X314931190Y-342159523D01*
X314931190Y-342159523D02*
X314978809Y-342111904D01*
X314978809Y-342111904D02*
X315026428Y-342016666D01*
X315026428Y-342016666D02*
X315026428Y-341635714D01*
X315502619Y-343159523D02*
X315502619Y-342588095D01*
X315502619Y-342873809D02*
X314502619Y-342873809D01*
X314502619Y-342873809D02*
X314645476Y-342778571D01*
X314645476Y-342778571D02*
X314740714Y-342683333D01*
X314740714Y-342683333D02*
X314788333Y-342588095D01*
X314835952Y-344016666D02*
X315502619Y-344016666D01*
X314455000Y-343778571D02*
X315169285Y-343540476D01*
X315169285Y-343540476D02*
X315169285Y-344159523D01*
X295566666Y-391217380D02*
X295614285Y-391265000D01*
X295614285Y-391265000D02*
X295757142Y-391312619D01*
X295757142Y-391312619D02*
X295852380Y-391312619D01*
X295852380Y-391312619D02*
X295995237Y-391265000D01*
X295995237Y-391265000D02*
X296090475Y-391169761D01*
X296090475Y-391169761D02*
X296138094Y-391074523D01*
X296138094Y-391074523D02*
X296185713Y-390884047D01*
X296185713Y-390884047D02*
X296185713Y-390741190D01*
X296185713Y-390741190D02*
X296138094Y-390550714D01*
X296138094Y-390550714D02*
X296090475Y-390455476D01*
X296090475Y-390455476D02*
X295995237Y-390360238D01*
X295995237Y-390360238D02*
X295852380Y-390312619D01*
X295852380Y-390312619D02*
X295757142Y-390312619D01*
X295757142Y-390312619D02*
X295614285Y-390360238D01*
X295614285Y-390360238D02*
X295566666Y-390407857D01*
X295233332Y-390312619D02*
X294614285Y-390312619D01*
X294614285Y-390312619D02*
X294947618Y-390693571D01*
X294947618Y-390693571D02*
X294804761Y-390693571D01*
X294804761Y-390693571D02*
X294709523Y-390741190D01*
X294709523Y-390741190D02*
X294661904Y-390788809D01*
X294661904Y-390788809D02*
X294614285Y-390884047D01*
X294614285Y-390884047D02*
X294614285Y-391122142D01*
X294614285Y-391122142D02*
X294661904Y-391217380D01*
X294661904Y-391217380D02*
X294709523Y-391265000D01*
X294709523Y-391265000D02*
X294804761Y-391312619D01*
X294804761Y-391312619D02*
X295090475Y-391312619D01*
X295090475Y-391312619D02*
X295185713Y-391265000D01*
X295185713Y-391265000D02*
X295233332Y-391217380D01*
X360527440Y-453148738D02*
X360217648Y-453896640D01*
X360217648Y-453896640D02*
X360137208Y-453966406D01*
X360137208Y-453966406D02*
X360074991Y-453992177D01*
X360074991Y-453992177D02*
X359968779Y-453999725D01*
X359968779Y-453999725D02*
X359792802Y-453926833D01*
X359792802Y-453926833D02*
X359723037Y-453846393D01*
X359723037Y-453846393D02*
X359697265Y-453784175D01*
X359697265Y-453784175D02*
X359689717Y-453677964D01*
X359689717Y-453677964D02*
X359999509Y-452930061D01*
X358692946Y-453471257D02*
X359220877Y-453689934D01*
X358956911Y-453580596D02*
X359339595Y-452656716D01*
X359339595Y-452656716D02*
X359372914Y-452825145D01*
X359372914Y-452825145D02*
X359424457Y-452949579D01*
X359424457Y-452949579D02*
X359494222Y-453030020D01*
X358503704Y-452310479D02*
X358415715Y-452274033D01*
X358415715Y-452274033D02*
X358309504Y-452281581D01*
X358309504Y-452281581D02*
X358247286Y-452307352D01*
X358247286Y-452307352D02*
X358166846Y-452377118D01*
X358166846Y-452377118D02*
X358049960Y-452534872D01*
X358049960Y-452534872D02*
X357958844Y-452754843D01*
X357958844Y-452754843D02*
X357929947Y-452949043D01*
X357929947Y-452949043D02*
X357937495Y-453055255D01*
X357937495Y-453055255D02*
X357963266Y-453117472D01*
X357963266Y-453117472D02*
X358033032Y-453197912D01*
X358033032Y-453197912D02*
X358121020Y-453234358D01*
X358121020Y-453234358D02*
X358227232Y-453226810D01*
X358227232Y-453226810D02*
X358289449Y-453201039D01*
X358289449Y-453201039D02*
X358369889Y-453131273D01*
X358369889Y-453131273D02*
X358486776Y-452973519D01*
X358486776Y-452973519D02*
X358577891Y-452753548D01*
X358577891Y-452753548D02*
X358606789Y-452559348D01*
X358606789Y-452559348D02*
X358599240Y-452453136D01*
X358599240Y-452453136D02*
X358573469Y-452390919D01*
X358573469Y-452390919D02*
X358503704Y-452310479D01*
X316312619Y-365633333D02*
X315836428Y-365300000D01*
X316312619Y-365061905D02*
X315312619Y-365061905D01*
X315312619Y-365061905D02*
X315312619Y-365442857D01*
X315312619Y-365442857D02*
X315360238Y-365538095D01*
X315360238Y-365538095D02*
X315407857Y-365585714D01*
X315407857Y-365585714D02*
X315503095Y-365633333D01*
X315503095Y-365633333D02*
X315645952Y-365633333D01*
X315645952Y-365633333D02*
X315741190Y-365585714D01*
X315741190Y-365585714D02*
X315788809Y-365538095D01*
X315788809Y-365538095D02*
X315836428Y-365442857D01*
X315836428Y-365442857D02*
X315836428Y-365061905D01*
X315312619Y-365966667D02*
X315312619Y-366633333D01*
X315312619Y-366633333D02*
X316312619Y-366204762D01*
X297015242Y-479916329D02*
X297041014Y-479978546D01*
X297041014Y-479978546D02*
X297154774Y-480077210D01*
X297154774Y-480077210D02*
X297242762Y-480113656D01*
X297242762Y-480113656D02*
X297392968Y-480124330D01*
X297392968Y-480124330D02*
X297517402Y-480072788D01*
X297517402Y-480072788D02*
X297597843Y-480003022D01*
X297597843Y-480003022D02*
X297714729Y-479845268D01*
X297714729Y-479845268D02*
X297769398Y-479713286D01*
X297769398Y-479713286D02*
X297798296Y-479519086D01*
X297798296Y-479519086D02*
X297790748Y-479412874D01*
X297790748Y-479412874D02*
X297739205Y-479288439D01*
X297739205Y-479288439D02*
X297625445Y-479189776D01*
X297625445Y-479189776D02*
X297537457Y-479153330D01*
X297537457Y-479153330D02*
X297387251Y-479142655D01*
X297387251Y-479142655D02*
X297325034Y-479168427D01*
X296973080Y-479022642D02*
X296947308Y-478960425D01*
X296947308Y-478960425D02*
X296877543Y-478879985D01*
X296877543Y-478879985D02*
X296657572Y-478788870D01*
X296657572Y-478788870D02*
X296551360Y-478796418D01*
X296551360Y-478796418D02*
X296489143Y-478822189D01*
X296489143Y-478822189D02*
X296408703Y-478891955D01*
X296408703Y-478891955D02*
X296372256Y-478979943D01*
X296372256Y-478979943D02*
X296361582Y-479130149D01*
X296361582Y-479130149D02*
X296670837Y-479876756D01*
X296670837Y-479876756D02*
X296098911Y-479639857D01*
X295562137Y-478695923D02*
X295307014Y-479311843D01*
X295927892Y-478435084D02*
X295874518Y-479186113D01*
X295874518Y-479186113D02*
X295302593Y-478949214D01*
X349077246Y-468451329D02*
X348504827Y-469023749D01*
X348504827Y-469023749D02*
X348403811Y-469057421D01*
X348403811Y-469057421D02*
X348336468Y-469057421D01*
X348336468Y-469057421D02*
X348235453Y-469023749D01*
X348235453Y-469023749D02*
X348100766Y-468889062D01*
X348100766Y-468889062D02*
X348067094Y-468788047D01*
X348067094Y-468788047D02*
X348067094Y-468720703D01*
X348067094Y-468720703D02*
X348100766Y-468619688D01*
X348100766Y-468619688D02*
X348673185Y-468047268D01*
X347258972Y-468047268D02*
X347663033Y-468451329D01*
X347461002Y-468249299D02*
X348168109Y-467542192D01*
X348168109Y-467542192D02*
X348134437Y-467710550D01*
X348134437Y-467710550D02*
X348134437Y-467845237D01*
X348134437Y-467845237D02*
X348168109Y-467946253D01*
X346585537Y-467373833D02*
X346989598Y-467777894D01*
X346787567Y-467575863D02*
X347494674Y-466868757D01*
X347494674Y-466868757D02*
X347461002Y-467037115D01*
X347461002Y-467037115D02*
X347461002Y-467171802D01*
X347461002Y-467171802D02*
X347494674Y-467272818D01*
X320567380Y-349883333D02*
X320615000Y-349835714D01*
X320615000Y-349835714D02*
X320662619Y-349692857D01*
X320662619Y-349692857D02*
X320662619Y-349597619D01*
X320662619Y-349597619D02*
X320615000Y-349454762D01*
X320615000Y-349454762D02*
X320519761Y-349359524D01*
X320519761Y-349359524D02*
X320424523Y-349311905D01*
X320424523Y-349311905D02*
X320234047Y-349264286D01*
X320234047Y-349264286D02*
X320091190Y-349264286D01*
X320091190Y-349264286D02*
X319900714Y-349311905D01*
X319900714Y-349311905D02*
X319805476Y-349359524D01*
X319805476Y-349359524D02*
X319710238Y-349454762D01*
X319710238Y-349454762D02*
X319662619Y-349597619D01*
X319662619Y-349597619D02*
X319662619Y-349692857D01*
X319662619Y-349692857D02*
X319710238Y-349835714D01*
X319710238Y-349835714D02*
X319757857Y-349883333D01*
X319662619Y-350216667D02*
X319662619Y-350883333D01*
X319662619Y-350883333D02*
X320662619Y-350454762D01*
X327254166Y-398342619D02*
X327587499Y-397866428D01*
X327825594Y-398342619D02*
X327825594Y-397342619D01*
X327825594Y-397342619D02*
X327444642Y-397342619D01*
X327444642Y-397342619D02*
X327349404Y-397390238D01*
X327349404Y-397390238D02*
X327301785Y-397437857D01*
X327301785Y-397437857D02*
X327254166Y-397533095D01*
X327254166Y-397533095D02*
X327254166Y-397675952D01*
X327254166Y-397675952D02*
X327301785Y-397771190D01*
X327301785Y-397771190D02*
X327349404Y-397818809D01*
X327349404Y-397818809D02*
X327444642Y-397866428D01*
X327444642Y-397866428D02*
X327825594Y-397866428D01*
X326397023Y-397342619D02*
X326587499Y-397342619D01*
X326587499Y-397342619D02*
X326682737Y-397390238D01*
X326682737Y-397390238D02*
X326730356Y-397437857D01*
X326730356Y-397437857D02*
X326825594Y-397580714D01*
X326825594Y-397580714D02*
X326873213Y-397771190D01*
X326873213Y-397771190D02*
X326873213Y-398152142D01*
X326873213Y-398152142D02*
X326825594Y-398247380D01*
X326825594Y-398247380D02*
X326777975Y-398295000D01*
X326777975Y-398295000D02*
X326682737Y-398342619D01*
X326682737Y-398342619D02*
X326492261Y-398342619D01*
X326492261Y-398342619D02*
X326397023Y-398295000D01*
X326397023Y-398295000D02*
X326349404Y-398247380D01*
X326349404Y-398247380D02*
X326301785Y-398152142D01*
X326301785Y-398152142D02*
X326301785Y-397914047D01*
X326301785Y-397914047D02*
X326349404Y-397818809D01*
X326349404Y-397818809D02*
X326397023Y-397771190D01*
X326397023Y-397771190D02*
X326492261Y-397723571D01*
X326492261Y-397723571D02*
X326682737Y-397723571D01*
X326682737Y-397723571D02*
X326777975Y-397771190D01*
X326777975Y-397771190D02*
X326825594Y-397818809D01*
X326825594Y-397818809D02*
X326873213Y-397914047D01*
X329907857Y-393654761D02*
X329860238Y-393559523D01*
X329860238Y-393559523D02*
X329765000Y-393464285D01*
X329765000Y-393464285D02*
X329622142Y-393321428D01*
X329622142Y-393321428D02*
X329574523Y-393226190D01*
X329574523Y-393226190D02*
X329574523Y-393130952D01*
X329812619Y-393178571D02*
X329765000Y-393083333D01*
X329765000Y-393083333D02*
X329669761Y-392988095D01*
X329669761Y-392988095D02*
X329479285Y-392940476D01*
X329479285Y-392940476D02*
X329145952Y-392940476D01*
X329145952Y-392940476D02*
X328955476Y-392988095D01*
X328955476Y-392988095D02*
X328860238Y-393083333D01*
X328860238Y-393083333D02*
X328812619Y-393178571D01*
X328812619Y-393178571D02*
X328812619Y-393369047D01*
X328812619Y-393369047D02*
X328860238Y-393464285D01*
X328860238Y-393464285D02*
X328955476Y-393559523D01*
X328955476Y-393559523D02*
X329145952Y-393607142D01*
X329145952Y-393607142D02*
X329479285Y-393607142D01*
X329479285Y-393607142D02*
X329669761Y-393559523D01*
X329669761Y-393559523D02*
X329765000Y-393464285D01*
X329765000Y-393464285D02*
X329812619Y-393369047D01*
X329812619Y-393369047D02*
X329812619Y-393178571D01*
X329812619Y-394559523D02*
X329812619Y-393988095D01*
X329812619Y-394273809D02*
X328812619Y-394273809D01*
X328812619Y-394273809D02*
X328955476Y-394178571D01*
X328955476Y-394178571D02*
X329050714Y-394083333D01*
X329050714Y-394083333D02*
X329098333Y-393988095D01*
X287042857Y-385667380D02*
X287090476Y-385715000D01*
X287090476Y-385715000D02*
X287233333Y-385762619D01*
X287233333Y-385762619D02*
X287328571Y-385762619D01*
X287328571Y-385762619D02*
X287471428Y-385715000D01*
X287471428Y-385715000D02*
X287566666Y-385619761D01*
X287566666Y-385619761D02*
X287614285Y-385524523D01*
X287614285Y-385524523D02*
X287661904Y-385334047D01*
X287661904Y-385334047D02*
X287661904Y-385191190D01*
X287661904Y-385191190D02*
X287614285Y-385000714D01*
X287614285Y-385000714D02*
X287566666Y-384905476D01*
X287566666Y-384905476D02*
X287471428Y-384810238D01*
X287471428Y-384810238D02*
X287328571Y-384762619D01*
X287328571Y-384762619D02*
X287233333Y-384762619D01*
X287233333Y-384762619D02*
X287090476Y-384810238D01*
X287090476Y-384810238D02*
X287042857Y-384857857D01*
X286090476Y-385762619D02*
X286661904Y-385762619D01*
X286376190Y-385762619D02*
X286376190Y-384762619D01*
X286376190Y-384762619D02*
X286471428Y-384905476D01*
X286471428Y-384905476D02*
X286566666Y-385000714D01*
X286566666Y-385000714D02*
X286661904Y-385048333D01*
X285138095Y-385762619D02*
X285709523Y-385762619D01*
X285423809Y-385762619D02*
X285423809Y-384762619D01*
X285423809Y-384762619D02*
X285519047Y-384905476D01*
X285519047Y-384905476D02*
X285614285Y-385000714D01*
X285614285Y-385000714D02*
X285709523Y-385048333D01*
X320266666Y-372517380D02*
X320314285Y-372565000D01*
X320314285Y-372565000D02*
X320457142Y-372612619D01*
X320457142Y-372612619D02*
X320552380Y-372612619D01*
X320552380Y-372612619D02*
X320695237Y-372565000D01*
X320695237Y-372565000D02*
X320790475Y-372469761D01*
X320790475Y-372469761D02*
X320838094Y-372374523D01*
X320838094Y-372374523D02*
X320885713Y-372184047D01*
X320885713Y-372184047D02*
X320885713Y-372041190D01*
X320885713Y-372041190D02*
X320838094Y-371850714D01*
X320838094Y-371850714D02*
X320790475Y-371755476D01*
X320790475Y-371755476D02*
X320695237Y-371660238D01*
X320695237Y-371660238D02*
X320552380Y-371612619D01*
X320552380Y-371612619D02*
X320457142Y-371612619D01*
X320457142Y-371612619D02*
X320314285Y-371660238D01*
X320314285Y-371660238D02*
X320266666Y-371707857D01*
X319361904Y-371612619D02*
X319838094Y-371612619D01*
X319838094Y-371612619D02*
X319885713Y-372088809D01*
X319885713Y-372088809D02*
X319838094Y-372041190D01*
X319838094Y-372041190D02*
X319742856Y-371993571D01*
X319742856Y-371993571D02*
X319504761Y-371993571D01*
X319504761Y-371993571D02*
X319409523Y-372041190D01*
X319409523Y-372041190D02*
X319361904Y-372088809D01*
X319361904Y-372088809D02*
X319314285Y-372184047D01*
X319314285Y-372184047D02*
X319314285Y-372422142D01*
X319314285Y-372422142D02*
X319361904Y-372517380D01*
X319361904Y-372517380D02*
X319409523Y-372565000D01*
X319409523Y-372565000D02*
X319504761Y-372612619D01*
X319504761Y-372612619D02*
X319742856Y-372612619D01*
X319742856Y-372612619D02*
X319838094Y-372565000D01*
X319838094Y-372565000D02*
X319885713Y-372517380D01*
X281428551Y-462530281D02*
X282000971Y-463102700D01*
X282000971Y-463102700D02*
X282034643Y-463203716D01*
X282034643Y-463203716D02*
X282034643Y-463271059D01*
X282034643Y-463271059D02*
X282000971Y-463372074D01*
X282000971Y-463372074D02*
X281866284Y-463506761D01*
X281866284Y-463506761D02*
X281765269Y-463540433D01*
X281765269Y-463540433D02*
X281697925Y-463540433D01*
X281697925Y-463540433D02*
X281596910Y-463506761D01*
X281596910Y-463506761D02*
X281024490Y-462934342D01*
X281024490Y-464348555D02*
X281428551Y-463944494D01*
X281226521Y-464146525D02*
X280519414Y-463439418D01*
X280519414Y-463439418D02*
X280687772Y-463473090D01*
X280687772Y-463473090D02*
X280822459Y-463473090D01*
X280822459Y-463473090D02*
X280923475Y-463439418D01*
X279677620Y-464281212D02*
X280014337Y-463944494D01*
X280014337Y-463944494D02*
X280384727Y-464247540D01*
X280384727Y-464247540D02*
X280317383Y-464247540D01*
X280317383Y-464247540D02*
X280216368Y-464281212D01*
X280216368Y-464281212D02*
X280048009Y-464449570D01*
X280048009Y-464449570D02*
X280014337Y-464550586D01*
X280014337Y-464550586D02*
X280014337Y-464617929D01*
X280014337Y-464617929D02*
X280048009Y-464718944D01*
X280048009Y-464718944D02*
X280216368Y-464887303D01*
X280216368Y-464887303D02*
X280317383Y-464920975D01*
X280317383Y-464920975D02*
X280384727Y-464920975D01*
X280384727Y-464920975D02*
X280485742Y-464887303D01*
X280485742Y-464887303D02*
X280654101Y-464718944D01*
X280654101Y-464718944D02*
X280687772Y-464617929D01*
X280687772Y-464617929D02*
X280687772Y-464550586D01*
X362183989Y-416218521D02*
X362493780Y-416966423D01*
X362493780Y-416966423D02*
X362486232Y-417072635D01*
X362486232Y-417072635D02*
X362460461Y-417134852D01*
X362460461Y-417134852D02*
X362390695Y-417215293D01*
X362390695Y-417215293D02*
X362214718Y-417288185D01*
X362214718Y-417288185D02*
X362108507Y-417280636D01*
X362108507Y-417280636D02*
X362046289Y-417254865D01*
X362046289Y-417254865D02*
X361965849Y-417185100D01*
X361965849Y-417185100D02*
X361656058Y-416437197D01*
X361248140Y-417070045D02*
X361317905Y-416989604D01*
X361317905Y-416989604D02*
X361343676Y-416927387D01*
X361343676Y-416927387D02*
X361351225Y-416821176D01*
X361351225Y-416821176D02*
X361333002Y-416777181D01*
X361333002Y-416777181D02*
X361252561Y-416707416D01*
X361252561Y-416707416D02*
X361190344Y-416681645D01*
X361190344Y-416681645D02*
X361084132Y-416674096D01*
X361084132Y-416674096D02*
X360908155Y-416746988D01*
X360908155Y-416746988D02*
X360838390Y-416827429D01*
X360838390Y-416827429D02*
X360812619Y-416889646D01*
X360812619Y-416889646D02*
X360805070Y-416995858D01*
X360805070Y-416995858D02*
X360823293Y-417039852D01*
X360823293Y-417039852D02*
X360903734Y-417109617D01*
X360903734Y-417109617D02*
X360965951Y-417135389D01*
X360965951Y-417135389D02*
X361072163Y-417142937D01*
X361072163Y-417142937D02*
X361248140Y-417070045D01*
X361248140Y-417070045D02*
X361354351Y-417077593D01*
X361354351Y-417077593D02*
X361416568Y-417103364D01*
X361416568Y-417103364D02*
X361497009Y-417173130D01*
X361497009Y-417173130D02*
X361569901Y-417349107D01*
X361569901Y-417349107D02*
X361562353Y-417455318D01*
X361562353Y-417455318D02*
X361536581Y-417517536D01*
X361536581Y-417517536D02*
X361466816Y-417597976D01*
X361466816Y-417597976D02*
X361290839Y-417670868D01*
X361290839Y-417670868D02*
X361184627Y-417663320D01*
X361184627Y-417663320D02*
X361122410Y-417637549D01*
X361122410Y-417637549D02*
X361041970Y-417567783D01*
X361041970Y-417567783D02*
X360969078Y-417391806D01*
X360969078Y-417391806D02*
X360976626Y-417285594D01*
X360976626Y-417285594D02*
X361002397Y-417223377D01*
X361002397Y-417223377D02*
X361072163Y-417142937D01*
X298349646Y-384826242D02*
X298411863Y-384852014D01*
X298411863Y-384852014D02*
X298562069Y-384841339D01*
X298562069Y-384841339D02*
X298650057Y-384804893D01*
X298650057Y-384804893D02*
X298763817Y-384706230D01*
X298763817Y-384706230D02*
X298815360Y-384581795D01*
X298815360Y-384581795D02*
X298822908Y-384475583D01*
X298822908Y-384475583D02*
X298794010Y-384281383D01*
X298794010Y-384281383D02*
X298739341Y-384149401D01*
X298739341Y-384149401D02*
X298622455Y-383991647D01*
X298622455Y-383991647D02*
X298542014Y-383921881D01*
X298542014Y-383921881D02*
X298417580Y-383870339D01*
X298417580Y-383870339D02*
X298267374Y-383881013D01*
X298267374Y-383881013D02*
X298179385Y-383917459D01*
X298179385Y-383917459D02*
X298065626Y-384016123D01*
X298065626Y-384016123D02*
X298039854Y-384078340D01*
X297695448Y-384117913D02*
X297123523Y-384354812D01*
X297123523Y-384354812D02*
X297577267Y-384579205D01*
X297577267Y-384579205D02*
X297445284Y-384633874D01*
X297445284Y-384633874D02*
X297375519Y-384714314D01*
X297375519Y-384714314D02*
X297349748Y-384776531D01*
X297349748Y-384776531D02*
X297342199Y-384882743D01*
X297342199Y-384882743D02*
X297433314Y-385102714D01*
X297433314Y-385102714D02*
X297513755Y-385172480D01*
X297513755Y-385172480D02*
X297575972Y-385198251D01*
X297575972Y-385198251D02*
X297682184Y-385205799D01*
X297682184Y-385205799D02*
X297946149Y-385096461D01*
X297946149Y-385096461D02*
X298015915Y-385016021D01*
X298015915Y-385016021D02*
X298041686Y-384953804D01*
X296551598Y-384591711D02*
X296463609Y-384628157D01*
X296463609Y-384628157D02*
X296393844Y-384708597D01*
X296393844Y-384708597D02*
X296368072Y-384770815D01*
X296368072Y-384770815D02*
X296360524Y-384877026D01*
X296360524Y-384877026D02*
X296389422Y-385071226D01*
X296389422Y-385071226D02*
X296480537Y-385291198D01*
X296480537Y-385291198D02*
X296597423Y-385448952D01*
X296597423Y-385448952D02*
X296677864Y-385518717D01*
X296677864Y-385518717D02*
X296740081Y-385544488D01*
X296740081Y-385544488D02*
X296846292Y-385552037D01*
X296846292Y-385552037D02*
X296934281Y-385515591D01*
X296934281Y-385515591D02*
X297004047Y-385435150D01*
X297004047Y-385435150D02*
X297029818Y-385372933D01*
X297029818Y-385372933D02*
X297037366Y-385266722D01*
X297037366Y-385266722D02*
X297008468Y-385072521D01*
X297008468Y-385072521D02*
X296917353Y-384852550D01*
X296917353Y-384852550D02*
X296800467Y-384694796D01*
X296800467Y-384694796D02*
X296720026Y-384625031D01*
X296720026Y-384625031D02*
X296657809Y-384599259D01*
X296657809Y-384599259D02*
X296551598Y-384591711D01*
X272832901Y-446519870D02*
X273142692Y-447267772D01*
X273142692Y-447267772D02*
X273135144Y-447373984D01*
X273135144Y-447373984D02*
X273109373Y-447436201D01*
X273109373Y-447436201D02*
X273039608Y-447516641D01*
X273039608Y-447516641D02*
X272863630Y-447589534D01*
X272863630Y-447589534D02*
X272757419Y-447581985D01*
X272757419Y-447581985D02*
X272695202Y-447556214D01*
X272695202Y-447556214D02*
X272614761Y-447486449D01*
X272614761Y-447486449D02*
X272304970Y-446738546D01*
X271763774Y-448045109D02*
X272291705Y-447826433D01*
X272027739Y-447935771D02*
X271645056Y-447011891D01*
X271645056Y-447011891D02*
X271787714Y-447107428D01*
X271787714Y-447107428D02*
X271912148Y-447158971D01*
X271912148Y-447158971D02*
X272018360Y-447166519D01*
X270589194Y-447449244D02*
X270765171Y-447376352D01*
X270765171Y-447376352D02*
X270871382Y-447383900D01*
X270871382Y-447383900D02*
X270933600Y-447409671D01*
X270933600Y-447409671D02*
X271076257Y-447505208D01*
X271076257Y-447505208D02*
X271193144Y-447662962D01*
X271193144Y-447662962D02*
X271338928Y-448014916D01*
X271338928Y-448014916D02*
X271331379Y-448121128D01*
X271331379Y-448121128D02*
X271305608Y-448183345D01*
X271305608Y-448183345D02*
X271235843Y-448263785D01*
X271235843Y-448263785D02*
X271059866Y-448336677D01*
X271059866Y-448336677D02*
X270953654Y-448329129D01*
X270953654Y-448329129D02*
X270891437Y-448303358D01*
X270891437Y-448303358D02*
X270810997Y-448233592D01*
X270810997Y-448233592D02*
X270719881Y-448013621D01*
X270719881Y-448013621D02*
X270727430Y-447907410D01*
X270727430Y-447907410D02*
X270753201Y-447845192D01*
X270753201Y-447845192D02*
X270822966Y-447764752D01*
X270822966Y-447764752D02*
X270998943Y-447691860D01*
X270998943Y-447691860D02*
X271105155Y-447699408D01*
X271105155Y-447699408D02*
X271167372Y-447725179D01*
X271167372Y-447725179D02*
X271247813Y-447794945D01*
X312967380Y-365607142D02*
X313015000Y-365559523D01*
X313015000Y-365559523D02*
X313062619Y-365416666D01*
X313062619Y-365416666D02*
X313062619Y-365321428D01*
X313062619Y-365321428D02*
X313015000Y-365178571D01*
X313015000Y-365178571D02*
X312919761Y-365083333D01*
X312919761Y-365083333D02*
X312824523Y-365035714D01*
X312824523Y-365035714D02*
X312634047Y-364988095D01*
X312634047Y-364988095D02*
X312491190Y-364988095D01*
X312491190Y-364988095D02*
X312300714Y-365035714D01*
X312300714Y-365035714D02*
X312205476Y-365083333D01*
X312205476Y-365083333D02*
X312110238Y-365178571D01*
X312110238Y-365178571D02*
X312062619Y-365321428D01*
X312062619Y-365321428D02*
X312062619Y-365416666D01*
X312062619Y-365416666D02*
X312110238Y-365559523D01*
X312110238Y-365559523D02*
X312157857Y-365607142D01*
X313062619Y-366559523D02*
X313062619Y-365988095D01*
X313062619Y-366273809D02*
X312062619Y-366273809D01*
X312062619Y-366273809D02*
X312205476Y-366178571D01*
X312205476Y-366178571D02*
X312300714Y-366083333D01*
X312300714Y-366083333D02*
X312348333Y-365988095D01*
X312395952Y-367416666D02*
X313062619Y-367416666D01*
X312015000Y-367178571D02*
X312729285Y-366940476D01*
X312729285Y-366940476D02*
X312729285Y-367559523D01*
X309312619Y-358407142D02*
X308836428Y-358073809D01*
X309312619Y-357835714D02*
X308312619Y-357835714D01*
X308312619Y-357835714D02*
X308312619Y-358216666D01*
X308312619Y-358216666D02*
X308360238Y-358311904D01*
X308360238Y-358311904D02*
X308407857Y-358359523D01*
X308407857Y-358359523D02*
X308503095Y-358407142D01*
X308503095Y-358407142D02*
X308645952Y-358407142D01*
X308645952Y-358407142D02*
X308741190Y-358359523D01*
X308741190Y-358359523D02*
X308788809Y-358311904D01*
X308788809Y-358311904D02*
X308836428Y-358216666D01*
X308836428Y-358216666D02*
X308836428Y-357835714D01*
X309312619Y-359359523D02*
X309312619Y-358788095D01*
X309312619Y-359073809D02*
X308312619Y-359073809D01*
X308312619Y-359073809D02*
X308455476Y-358978571D01*
X308455476Y-358978571D02*
X308550714Y-358883333D01*
X308550714Y-358883333D02*
X308598333Y-358788095D01*
X308312619Y-359978571D02*
X308312619Y-360073809D01*
X308312619Y-360073809D02*
X308360238Y-360169047D01*
X308360238Y-360169047D02*
X308407857Y-360216666D01*
X308407857Y-360216666D02*
X308503095Y-360264285D01*
X308503095Y-360264285D02*
X308693571Y-360311904D01*
X308693571Y-360311904D02*
X308931666Y-360311904D01*
X308931666Y-360311904D02*
X309122142Y-360264285D01*
X309122142Y-360264285D02*
X309217380Y-360216666D01*
X309217380Y-360216666D02*
X309265000Y-360169047D01*
X309265000Y-360169047D02*
X309312619Y-360073809D01*
X309312619Y-360073809D02*
X309312619Y-359978571D01*
X309312619Y-359978571D02*
X309265000Y-359883333D01*
X309265000Y-359883333D02*
X309217380Y-359835714D01*
X309217380Y-359835714D02*
X309122142Y-359788095D01*
X309122142Y-359788095D02*
X308931666Y-359740476D01*
X308931666Y-359740476D02*
X308693571Y-359740476D01*
X308693571Y-359740476D02*
X308503095Y-359788095D01*
X308503095Y-359788095D02*
X308407857Y-359835714D01*
X308407857Y-359835714D02*
X308360238Y-359883333D01*
X308360238Y-359883333D02*
X308312619Y-359978571D01*
D14*
X289579550Y-372259636D02*
X289705279Y-371692132D01*
X290107481Y-372040960D02*
X289724797Y-371117080D01*
X289724797Y-371117080D02*
X289372843Y-371262864D01*
X289372843Y-371262864D02*
X289303078Y-371343305D01*
X289303078Y-371343305D02*
X289277306Y-371405522D01*
X289277306Y-371405522D02*
X289269758Y-371511733D01*
X289269758Y-371511733D02*
X289324427Y-371643716D01*
X289324427Y-371643716D02*
X289404868Y-371713482D01*
X289404868Y-371713482D02*
X289467085Y-371739253D01*
X289467085Y-371739253D02*
X289573296Y-371746801D01*
X289573296Y-371746801D02*
X289925250Y-371601017D01*
X288932901Y-371445095D02*
X289007624Y-372496535D01*
X289007624Y-372496535D02*
X288316981Y-371700217D01*
X287907767Y-372952111D02*
X288435699Y-372733435D01*
X288171733Y-372842773D02*
X287789050Y-371918893D01*
X287789050Y-371918893D02*
X287931707Y-372014430D01*
X287931707Y-372014430D02*
X288056142Y-372065972D01*
X288056142Y-372065972D02*
X288162353Y-372073521D01*
D10*
X302588442Y-388528770D02*
X301840540Y-388838561D01*
X301840540Y-388838561D02*
X301734328Y-388831013D01*
X301734328Y-388831013D02*
X301672111Y-388805242D01*
X301672111Y-388805242D02*
X301591671Y-388735477D01*
X301591671Y-388735477D02*
X301518778Y-388559499D01*
X301518778Y-388559499D02*
X301526327Y-388453288D01*
X301526327Y-388453288D02*
X301552098Y-388391071D01*
X301552098Y-388391071D02*
X301621863Y-388310630D01*
X301621863Y-388310630D02*
X302369766Y-388000839D01*
X302117770Y-387641337D02*
X302143541Y-387579119D01*
X302143541Y-387579119D02*
X302151090Y-387472908D01*
X302151090Y-387472908D02*
X302059975Y-387252937D01*
X302059975Y-387252937D02*
X301979534Y-387183171D01*
X301979534Y-387183171D02*
X301917317Y-387157400D01*
X301917317Y-387157400D02*
X301811105Y-387149852D01*
X301811105Y-387149852D02*
X301723117Y-387186298D01*
X301723117Y-387186298D02*
X301609357Y-387284961D01*
X301609357Y-387284961D02*
X301300102Y-388031568D01*
X301300102Y-388031568D02*
X301063203Y-387459643D01*
X301750183Y-386505034D02*
X301713737Y-386417045D01*
X301713737Y-386417045D02*
X301633297Y-386347280D01*
X301633297Y-386347280D02*
X301571080Y-386321509D01*
X301571080Y-386321509D02*
X301464868Y-386313961D01*
X301464868Y-386313961D02*
X301270668Y-386342858D01*
X301270668Y-386342858D02*
X301050697Y-386433973D01*
X301050697Y-386433973D02*
X300892943Y-386550860D01*
X300892943Y-386550860D02*
X300823177Y-386631300D01*
X300823177Y-386631300D02*
X300797406Y-386693517D01*
X300797406Y-386693517D02*
X300789858Y-386799729D01*
X300789858Y-386799729D02*
X300826304Y-386887717D01*
X300826304Y-386887717D02*
X300906744Y-386957483D01*
X300906744Y-386957483D02*
X300968961Y-386983254D01*
X300968961Y-386983254D02*
X301075173Y-386990802D01*
X301075173Y-386990802D02*
X301269373Y-386961905D01*
X301269373Y-386961905D02*
X301489344Y-386870789D01*
X301489344Y-386870789D02*
X301647098Y-386753903D01*
X301647098Y-386753903D02*
X301716864Y-386673463D01*
X301716864Y-386673463D02*
X301742635Y-386611246D01*
X301742635Y-386611246D02*
X301750183Y-386505034D01*
X336519380Y-479860565D02*
X336581597Y-479886337D01*
X336581597Y-479886337D02*
X336731803Y-479875662D01*
X336731803Y-479875662D02*
X336819791Y-479839216D01*
X336819791Y-479839216D02*
X336933551Y-479740553D01*
X336933551Y-479740553D02*
X336985094Y-479616118D01*
X336985094Y-479616118D02*
X336992642Y-479509906D01*
X336992642Y-479509906D02*
X336963744Y-479315706D01*
X336963744Y-479315706D02*
X336909075Y-479183724D01*
X336909075Y-479183724D02*
X336792189Y-479025970D01*
X336792189Y-479025970D02*
X336711748Y-478956204D01*
X336711748Y-478956204D02*
X336587314Y-478904662D01*
X336587314Y-478904662D02*
X336437108Y-478915336D01*
X336437108Y-478915336D02*
X336349119Y-478951782D01*
X336349119Y-478951782D02*
X336235360Y-479050446D01*
X336235360Y-479050446D02*
X336209588Y-479112663D01*
X335857634Y-479258447D02*
X335795417Y-479232676D01*
X335795417Y-479232676D02*
X335689205Y-479225128D01*
X335689205Y-479225128D02*
X335469234Y-479316243D01*
X335469234Y-479316243D02*
X335399469Y-479396683D01*
X335399469Y-479396683D02*
X335373697Y-479458900D01*
X335373697Y-479458900D02*
X335366149Y-479565112D01*
X335366149Y-479565112D02*
X335402595Y-479653100D01*
X335402595Y-479653100D02*
X335501258Y-479766860D01*
X335501258Y-479766860D02*
X336247866Y-480076115D01*
X336247866Y-480076115D02*
X335675940Y-480313014D01*
X334977749Y-479622908D02*
X334915532Y-479597136D01*
X334915532Y-479597136D02*
X334809320Y-479589588D01*
X334809320Y-479589588D02*
X334589349Y-479680703D01*
X334589349Y-479680703D02*
X334519583Y-479761144D01*
X334519583Y-479761144D02*
X334493812Y-479823361D01*
X334493812Y-479823361D02*
X334486264Y-479929572D01*
X334486264Y-479929572D02*
X334522710Y-480017561D01*
X334522710Y-480017561D02*
X334621373Y-480131321D01*
X334621373Y-480131321D02*
X335367981Y-480440576D01*
X335367981Y-480440576D02*
X334796055Y-480677475D01*
X314012619Y-391238095D02*
X314822142Y-391238095D01*
X314822142Y-391238095D02*
X314917380Y-391285714D01*
X314917380Y-391285714D02*
X314965000Y-391333333D01*
X314965000Y-391333333D02*
X315012619Y-391428571D01*
X315012619Y-391428571D02*
X315012619Y-391619047D01*
X315012619Y-391619047D02*
X314965000Y-391714285D01*
X314965000Y-391714285D02*
X314917380Y-391761904D01*
X314917380Y-391761904D02*
X314822142Y-391809523D01*
X314822142Y-391809523D02*
X314012619Y-391809523D01*
X314107857Y-392238095D02*
X314060238Y-392285714D01*
X314060238Y-392285714D02*
X314012619Y-392380952D01*
X314012619Y-392380952D02*
X314012619Y-392619047D01*
X314012619Y-392619047D02*
X314060238Y-392714285D01*
X314060238Y-392714285D02*
X314107857Y-392761904D01*
X314107857Y-392761904D02*
X314203095Y-392809523D01*
X314203095Y-392809523D02*
X314298333Y-392809523D01*
X314298333Y-392809523D02*
X314441190Y-392761904D01*
X314441190Y-392761904D02*
X315012619Y-392190476D01*
X315012619Y-392190476D02*
X315012619Y-392809523D01*
X352409999Y-400362185D02*
X352982419Y-400934605D01*
X352982419Y-400934605D02*
X353016090Y-401035620D01*
X353016090Y-401035620D02*
X353016090Y-401102963D01*
X353016090Y-401102963D02*
X352982419Y-401203979D01*
X352982419Y-401203979D02*
X352847732Y-401338666D01*
X352847732Y-401338666D02*
X352746716Y-401372337D01*
X352746716Y-401372337D02*
X352679373Y-401372337D01*
X352679373Y-401372337D02*
X352578358Y-401338666D01*
X352578358Y-401338666D02*
X352005938Y-400766246D01*
X351736564Y-401035620D02*
X351265159Y-401507024D01*
X351265159Y-401507024D02*
X352275312Y-401911085D01*
X286712619Y-388938095D02*
X287522142Y-388938095D01*
X287522142Y-388938095D02*
X287617380Y-388985714D01*
X287617380Y-388985714D02*
X287665000Y-389033333D01*
X287665000Y-389033333D02*
X287712619Y-389128571D01*
X287712619Y-389128571D02*
X287712619Y-389319047D01*
X287712619Y-389319047D02*
X287665000Y-389414285D01*
X287665000Y-389414285D02*
X287617380Y-389461904D01*
X287617380Y-389461904D02*
X287522142Y-389509523D01*
X287522142Y-389509523D02*
X286712619Y-389509523D01*
X286712619Y-389890476D02*
X286712619Y-390509523D01*
X286712619Y-390509523D02*
X287093571Y-390176190D01*
X287093571Y-390176190D02*
X287093571Y-390319047D01*
X287093571Y-390319047D02*
X287141190Y-390414285D01*
X287141190Y-390414285D02*
X287188809Y-390461904D01*
X287188809Y-390461904D02*
X287284047Y-390509523D01*
X287284047Y-390509523D02*
X287522142Y-390509523D01*
X287522142Y-390509523D02*
X287617380Y-390461904D01*
X287617380Y-390461904D02*
X287665000Y-390414285D01*
X287665000Y-390414285D02*
X287712619Y-390319047D01*
X287712619Y-390319047D02*
X287712619Y-390033333D01*
X287712619Y-390033333D02*
X287665000Y-389938095D01*
X287665000Y-389938095D02*
X287617380Y-389890476D01*
X317161904Y-347612619D02*
X317161904Y-348422142D01*
X317161904Y-348422142D02*
X317114285Y-348517380D01*
X317114285Y-348517380D02*
X317066666Y-348565000D01*
X317066666Y-348565000D02*
X316971428Y-348612619D01*
X316971428Y-348612619D02*
X316780952Y-348612619D01*
X316780952Y-348612619D02*
X316685714Y-348565000D01*
X316685714Y-348565000D02*
X316638095Y-348517380D01*
X316638095Y-348517380D02*
X316590476Y-348422142D01*
X316590476Y-348422142D02*
X316590476Y-347612619D01*
X315590476Y-348612619D02*
X316161904Y-348612619D01*
X315876190Y-348612619D02*
X315876190Y-347612619D01*
X315876190Y-347612619D02*
X315971428Y-347755476D01*
X315971428Y-347755476D02*
X316066666Y-347850714D01*
X316066666Y-347850714D02*
X316161904Y-347898333D01*
X280298892Y-468804144D02*
X280298892Y-468871487D01*
X280298892Y-468871487D02*
X280366235Y-469006174D01*
X280366235Y-469006174D02*
X280433579Y-469073518D01*
X280433579Y-469073518D02*
X280568266Y-469140861D01*
X280568266Y-469140861D02*
X280702953Y-469140861D01*
X280702953Y-469140861D02*
X280803968Y-469107190D01*
X280803968Y-469107190D02*
X280972327Y-469006174D01*
X280972327Y-469006174D02*
X281073342Y-468905159D01*
X281073342Y-468905159D02*
X281174357Y-468736800D01*
X281174357Y-468736800D02*
X281208029Y-468635785D01*
X281208029Y-468635785D02*
X281208029Y-468501098D01*
X281208029Y-468501098D02*
X281140685Y-468366411D01*
X281140685Y-468366411D02*
X281073342Y-468299067D01*
X281073342Y-468299067D02*
X280938655Y-468231724D01*
X280938655Y-468231724D02*
X280871311Y-468231724D01*
X280601937Y-467962350D02*
X280601937Y-467895006D01*
X280601937Y-467895006D02*
X280568266Y-467793991D01*
X280568266Y-467793991D02*
X280399907Y-467625632D01*
X280399907Y-467625632D02*
X280298892Y-467591961D01*
X280298892Y-467591961D02*
X280231548Y-467591961D01*
X280231548Y-467591961D02*
X280130533Y-467625632D01*
X280130533Y-467625632D02*
X280063189Y-467692976D01*
X280063189Y-467692976D02*
X279995846Y-467827663D01*
X279995846Y-467827663D02*
X279995846Y-468635785D01*
X279995846Y-468635785D02*
X279558113Y-468198052D01*
X279625457Y-466851182D02*
X279962174Y-467187900D01*
X279962174Y-467187900D02*
X279659128Y-467558289D01*
X279659128Y-467558289D02*
X279659128Y-467490945D01*
X279659128Y-467490945D02*
X279625457Y-467389930D01*
X279625457Y-467389930D02*
X279457098Y-467221571D01*
X279457098Y-467221571D02*
X279356083Y-467187900D01*
X279356083Y-467187900D02*
X279288739Y-467187900D01*
X279288739Y-467187900D02*
X279187724Y-467221571D01*
X279187724Y-467221571D02*
X279019365Y-467389930D01*
X279019365Y-467389930D02*
X278985693Y-467490945D01*
X278985693Y-467490945D02*
X278985693Y-467558289D01*
X278985693Y-467558289D02*
X279019365Y-467659304D01*
X279019365Y-467659304D02*
X279187724Y-467827663D01*
X279187724Y-467827663D02*
X279288739Y-467861335D01*
X279288739Y-467861335D02*
X279356083Y-467861335D01*
X323766666Y-382617380D02*
X323814285Y-382665000D01*
X323814285Y-382665000D02*
X323957142Y-382712619D01*
X323957142Y-382712619D02*
X324052380Y-382712619D01*
X324052380Y-382712619D02*
X324195237Y-382665000D01*
X324195237Y-382665000D02*
X324290475Y-382569761D01*
X324290475Y-382569761D02*
X324338094Y-382474523D01*
X324338094Y-382474523D02*
X324385713Y-382284047D01*
X324385713Y-382284047D02*
X324385713Y-382141190D01*
X324385713Y-382141190D02*
X324338094Y-381950714D01*
X324338094Y-381950714D02*
X324290475Y-381855476D01*
X324290475Y-381855476D02*
X324195237Y-381760238D01*
X324195237Y-381760238D02*
X324052380Y-381712619D01*
X324052380Y-381712619D02*
X323957142Y-381712619D01*
X323957142Y-381712619D02*
X323814285Y-381760238D01*
X323814285Y-381760238D02*
X323766666Y-381807857D01*
X323385713Y-381807857D02*
X323338094Y-381760238D01*
X323338094Y-381760238D02*
X323242856Y-381712619D01*
X323242856Y-381712619D02*
X323004761Y-381712619D01*
X323004761Y-381712619D02*
X322909523Y-381760238D01*
X322909523Y-381760238D02*
X322861904Y-381807857D01*
X322861904Y-381807857D02*
X322814285Y-381903095D01*
X322814285Y-381903095D02*
X322814285Y-381998333D01*
X322814285Y-381998333D02*
X322861904Y-382141190D01*
X322861904Y-382141190D02*
X323433332Y-382712619D01*
X323433332Y-382712619D02*
X322814285Y-382712619D01*
X270472320Y-428694425D02*
X270472320Y-429503948D01*
X270472320Y-429503948D02*
X270424701Y-429599186D01*
X270424701Y-429599186D02*
X270377082Y-429646806D01*
X270377082Y-429646806D02*
X270281844Y-429694425D01*
X270281844Y-429694425D02*
X270091368Y-429694425D01*
X270091368Y-429694425D02*
X269996130Y-429646806D01*
X269996130Y-429646806D02*
X269948511Y-429599186D01*
X269948511Y-429599186D02*
X269900892Y-429503948D01*
X269900892Y-429503948D02*
X269900892Y-428694425D01*
X268900892Y-429694425D02*
X269472320Y-429694425D01*
X269186606Y-429694425D02*
X269186606Y-428694425D01*
X269186606Y-428694425D02*
X269281844Y-428837282D01*
X269281844Y-428837282D02*
X269377082Y-428932520D01*
X269377082Y-428932520D02*
X269472320Y-428980139D01*
X268567558Y-428694425D02*
X267900892Y-428694425D01*
X267900892Y-428694425D02*
X268329463Y-429694425D01*
X270254523Y-411708578D02*
X270316740Y-411682806D01*
X270316740Y-411682806D02*
X270415404Y-411569046D01*
X270415404Y-411569046D02*
X270451850Y-411481058D01*
X270451850Y-411481058D02*
X270462524Y-411330852D01*
X270462524Y-411330852D02*
X270410982Y-411206418D01*
X270410982Y-411206418D02*
X270341216Y-411125977D01*
X270341216Y-411125977D02*
X270183462Y-411009091D01*
X270183462Y-411009091D02*
X270051480Y-410954422D01*
X270051480Y-410954422D02*
X269857280Y-410925524D01*
X269857280Y-410925524D02*
X269751068Y-410933072D01*
X269751068Y-410933072D02*
X269626633Y-410984615D01*
X269626633Y-410984615D02*
X269527970Y-411098375D01*
X269527970Y-411098375D02*
X269491524Y-411186363D01*
X269491524Y-411186363D02*
X269480849Y-411336569D01*
X269480849Y-411336569D02*
X269506621Y-411398786D01*
X269360836Y-411750740D02*
X269298619Y-411776512D01*
X269298619Y-411776512D02*
X269218179Y-411846277D01*
X269218179Y-411846277D02*
X269127064Y-412066248D01*
X269127064Y-412066248D02*
X269134612Y-412172460D01*
X269134612Y-412172460D02*
X269160383Y-412234677D01*
X269160383Y-412234677D02*
X269230149Y-412315117D01*
X269230149Y-412315117D02*
X269318137Y-412351564D01*
X269318137Y-412351564D02*
X269468343Y-412362238D01*
X269468343Y-412362238D02*
X270214950Y-412052983D01*
X270214950Y-412052983D02*
X269978051Y-412624909D01*
X269231444Y-412934164D02*
X269223896Y-412827952D01*
X269223896Y-412827952D02*
X269198124Y-412765735D01*
X269198124Y-412765735D02*
X269128359Y-412685295D01*
X269128359Y-412685295D02*
X269084364Y-412667072D01*
X269084364Y-412667072D02*
X268978153Y-412674620D01*
X268978153Y-412674620D02*
X268915936Y-412700391D01*
X268915936Y-412700391D02*
X268835495Y-412770157D01*
X268835495Y-412770157D02*
X268762603Y-412946134D01*
X268762603Y-412946134D02*
X268770151Y-413052345D01*
X268770151Y-413052345D02*
X268795923Y-413114562D01*
X268795923Y-413114562D02*
X268865688Y-413195003D01*
X268865688Y-413195003D02*
X268909683Y-413213226D01*
X268909683Y-413213226D02*
X269015894Y-413205678D01*
X269015894Y-413205678D02*
X269078111Y-413179906D01*
X269078111Y-413179906D02*
X269158552Y-413110141D01*
X269158552Y-413110141D02*
X269231444Y-412934164D01*
X269231444Y-412934164D02*
X269311884Y-412864398D01*
X269311884Y-412864398D02*
X269374101Y-412838627D01*
X269374101Y-412838627D02*
X269480313Y-412831079D01*
X269480313Y-412831079D02*
X269656290Y-412903971D01*
X269656290Y-412903971D02*
X269726055Y-412984411D01*
X269726055Y-412984411D02*
X269751827Y-413046628D01*
X269751827Y-413046628D02*
X269759375Y-413152840D01*
X269759375Y-413152840D02*
X269686483Y-413328817D01*
X269686483Y-413328817D02*
X269606043Y-413398583D01*
X269606043Y-413398583D02*
X269543825Y-413424354D01*
X269543825Y-413424354D02*
X269437614Y-413431902D01*
X269437614Y-413431902D02*
X269261637Y-413359010D01*
X269261637Y-413359010D02*
X269191871Y-413278570D01*
X269191871Y-413278570D02*
X269166100Y-413216352D01*
X269166100Y-413216352D02*
X269158552Y-413110141D01*
X269139434Y-452119381D02*
X269113662Y-452181598D01*
X269113662Y-452181598D02*
X269124337Y-452331804D01*
X269124337Y-452331804D02*
X269160783Y-452419792D01*
X269160783Y-452419792D02*
X269259446Y-452533552D01*
X269259446Y-452533552D02*
X269383881Y-452585095D01*
X269383881Y-452585095D02*
X269490093Y-452592643D01*
X269490093Y-452592643D02*
X269684293Y-452563745D01*
X269684293Y-452563745D02*
X269816275Y-452509076D01*
X269816275Y-452509076D02*
X269974029Y-452392190D01*
X269974029Y-452392190D02*
X270043795Y-452311749D01*
X270043795Y-452311749D02*
X270095337Y-452187315D01*
X270095337Y-452187315D02*
X270084663Y-452037109D01*
X270084663Y-452037109D02*
X270048217Y-451949120D01*
X270048217Y-451949120D02*
X269949553Y-451835361D01*
X269949553Y-451835361D02*
X269887336Y-451809589D01*
X269741552Y-451457635D02*
X269767323Y-451395418D01*
X269767323Y-451395418D02*
X269774871Y-451289206D01*
X269774871Y-451289206D02*
X269683756Y-451069235D01*
X269683756Y-451069235D02*
X269603316Y-450999470D01*
X269603316Y-450999470D02*
X269541099Y-450973698D01*
X269541099Y-450973698D02*
X269434887Y-450966150D01*
X269434887Y-450966150D02*
X269346899Y-451002596D01*
X269346899Y-451002596D02*
X269233139Y-451101259D01*
X269233139Y-451101259D02*
X268923884Y-451847867D01*
X268923884Y-451847867D02*
X268686985Y-451275941D01*
X269282850Y-450101361D02*
X269355742Y-450277338D01*
X269355742Y-450277338D02*
X269348194Y-450383550D01*
X269348194Y-450383550D02*
X269322422Y-450445767D01*
X269322422Y-450445767D02*
X269226886Y-450588425D01*
X269226886Y-450588425D02*
X269069132Y-450705311D01*
X269069132Y-450705311D02*
X268717177Y-450851095D01*
X268717177Y-450851095D02*
X268610966Y-450843547D01*
X268610966Y-450843547D02*
X268548749Y-450817776D01*
X268548749Y-450817776D02*
X268468308Y-450748010D01*
X268468308Y-450748010D02*
X268395416Y-450572033D01*
X268395416Y-450572033D02*
X268402964Y-450465822D01*
X268402964Y-450465822D02*
X268428736Y-450403604D01*
X268428736Y-450403604D02*
X268498501Y-450323164D01*
X268498501Y-450323164D02*
X268718473Y-450232049D01*
X268718473Y-450232049D02*
X268824684Y-450239597D01*
X268824684Y-450239597D02*
X268886901Y-450265368D01*
X268886901Y-450265368D02*
X268967342Y-450335134D01*
X268967342Y-450335134D02*
X269040234Y-450511111D01*
X269040234Y-450511111D02*
X269032686Y-450617323D01*
X269032686Y-450617323D02*
X269006914Y-450679540D01*
X269006914Y-450679540D02*
X268937149Y-450759980D01*
X364416329Y-451984757D02*
X364478546Y-451958985D01*
X364478546Y-451958985D02*
X364577210Y-451845225D01*
X364577210Y-451845225D02*
X364613656Y-451757237D01*
X364613656Y-451757237D02*
X364624330Y-451607031D01*
X364624330Y-451607031D02*
X364572788Y-451482597D01*
X364572788Y-451482597D02*
X364503022Y-451402156D01*
X364503022Y-451402156D02*
X364345268Y-451285270D01*
X364345268Y-451285270D02*
X364213286Y-451230601D01*
X364213286Y-451230601D02*
X364019086Y-451201703D01*
X364019086Y-451201703D02*
X363912874Y-451209251D01*
X363912874Y-451209251D02*
X363788439Y-451260794D01*
X363788439Y-451260794D02*
X363689776Y-451374554D01*
X363689776Y-451374554D02*
X363653330Y-451462542D01*
X363653330Y-451462542D02*
X363642655Y-451612748D01*
X363642655Y-451612748D02*
X363668427Y-451674965D01*
X363522642Y-452026919D02*
X363460425Y-452052691D01*
X363460425Y-452052691D02*
X363379985Y-452122456D01*
X363379985Y-452122456D02*
X363288870Y-452342427D01*
X363288870Y-452342427D02*
X363296418Y-452448639D01*
X363296418Y-452448639D02*
X363322189Y-452510856D01*
X363322189Y-452510856D02*
X363391955Y-452591296D01*
X363391955Y-452591296D02*
X363479943Y-452627743D01*
X363479943Y-452627743D02*
X363630149Y-452638417D01*
X363630149Y-452638417D02*
X364376756Y-452329162D01*
X364376756Y-452329162D02*
X364139857Y-452901088D01*
X362979078Y-453090330D02*
X362942632Y-453178318D01*
X362942632Y-453178318D02*
X362950181Y-453284530D01*
X362950181Y-453284530D02*
X362975952Y-453346747D01*
X362975952Y-453346747D02*
X363045717Y-453427188D01*
X363045717Y-453427188D02*
X363203471Y-453544074D01*
X363203471Y-453544074D02*
X363423443Y-453635189D01*
X363423443Y-453635189D02*
X363617643Y-453664087D01*
X363617643Y-453664087D02*
X363723854Y-453656539D01*
X363723854Y-453656539D02*
X363786072Y-453630767D01*
X363786072Y-453630767D02*
X363866512Y-453561002D01*
X363866512Y-453561002D02*
X363902958Y-453473013D01*
X363902958Y-453473013D02*
X363895410Y-453366802D01*
X363895410Y-453366802D02*
X363869638Y-453304584D01*
X363869638Y-453304584D02*
X363799873Y-453224144D01*
X363799873Y-453224144D02*
X363642119Y-453107258D01*
X363642119Y-453107258D02*
X363422148Y-453016143D01*
X363422148Y-453016143D02*
X363227947Y-452987245D01*
X363227947Y-452987245D02*
X363121736Y-452994793D01*
X363121736Y-452994793D02*
X363059519Y-453020564D01*
X363059519Y-453020564D02*
X362979078Y-453090330D01*
X313272619Y-478301905D02*
X314082142Y-478301905D01*
X314082142Y-478301905D02*
X314177380Y-478349524D01*
X314177380Y-478349524D02*
X314225000Y-478397143D01*
X314225000Y-478397143D02*
X314272619Y-478492381D01*
X314272619Y-478492381D02*
X314272619Y-478682857D01*
X314272619Y-478682857D02*
X314225000Y-478778095D01*
X314225000Y-478778095D02*
X314177380Y-478825714D01*
X314177380Y-478825714D02*
X314082142Y-478873333D01*
X314082142Y-478873333D02*
X313272619Y-478873333D01*
X314272619Y-479873333D02*
X314272619Y-479301905D01*
X314272619Y-479587619D02*
X313272619Y-479587619D01*
X313272619Y-479587619D02*
X313415476Y-479492381D01*
X313415476Y-479492381D02*
X313510714Y-479397143D01*
X313510714Y-479397143D02*
X313558333Y-479301905D01*
X313272619Y-480206667D02*
X313272619Y-480825714D01*
X313272619Y-480825714D02*
X313653571Y-480492381D01*
X313653571Y-480492381D02*
X313653571Y-480635238D01*
X313653571Y-480635238D02*
X313701190Y-480730476D01*
X313701190Y-480730476D02*
X313748809Y-480778095D01*
X313748809Y-480778095D02*
X313844047Y-480825714D01*
X313844047Y-480825714D02*
X314082142Y-480825714D01*
X314082142Y-480825714D02*
X314177380Y-480778095D01*
X314177380Y-480778095D02*
X314225000Y-480730476D01*
X314225000Y-480730476D02*
X314272619Y-480635238D01*
X314272619Y-480635238D02*
X314272619Y-480349524D01*
X314272619Y-480349524D02*
X314225000Y-480254286D01*
X314225000Y-480254286D02*
X314177380Y-480206667D01*
X328766666Y-376512619D02*
X329242856Y-376512619D01*
X329242856Y-376512619D02*
X329242856Y-375512619D01*
X327909523Y-376512619D02*
X328480951Y-376512619D01*
X328195237Y-376512619D02*
X328195237Y-375512619D01*
X328195237Y-375512619D02*
X328290475Y-375655476D01*
X328290475Y-375655476D02*
X328385713Y-375750714D01*
X328385713Y-375750714D02*
X328480951Y-375798333D01*
X281624548Y-395509308D02*
X281691891Y-395509308D01*
X281691891Y-395509308D02*
X281826578Y-395441965D01*
X281826578Y-395441965D02*
X281893922Y-395374621D01*
X281893922Y-395374621D02*
X281961265Y-395239934D01*
X281961265Y-395239934D02*
X281961265Y-395105247D01*
X281961265Y-395105247D02*
X281927594Y-395004232D01*
X281927594Y-395004232D02*
X281826578Y-394835873D01*
X281826578Y-394835873D02*
X281725563Y-394734858D01*
X281725563Y-394734858D02*
X281557204Y-394633843D01*
X281557204Y-394633843D02*
X281456189Y-394600171D01*
X281456189Y-394600171D02*
X281321502Y-394600171D01*
X281321502Y-394600171D02*
X281186815Y-394667515D01*
X281186815Y-394667515D02*
X281119471Y-394734858D01*
X281119471Y-394734858D02*
X281052128Y-394869545D01*
X281052128Y-394869545D02*
X281052128Y-394936889D01*
X280782754Y-395206263D02*
X280715410Y-395206263D01*
X280715410Y-395206263D02*
X280614395Y-395239934D01*
X280614395Y-395239934D02*
X280446036Y-395408293D01*
X280446036Y-395408293D02*
X280412365Y-395509308D01*
X280412365Y-395509308D02*
X280412365Y-395576652D01*
X280412365Y-395576652D02*
X280446036Y-395677667D01*
X280446036Y-395677667D02*
X280513380Y-395745011D01*
X280513380Y-395745011D02*
X280648067Y-395812354D01*
X280648067Y-395812354D02*
X281456189Y-395812354D01*
X281456189Y-395812354D02*
X281018456Y-396250087D01*
X280681739Y-396586804D02*
X280547052Y-396721491D01*
X280547052Y-396721491D02*
X280446036Y-396755163D01*
X280446036Y-396755163D02*
X280378693Y-396755163D01*
X280378693Y-396755163D02*
X280210334Y-396721491D01*
X280210334Y-396721491D02*
X280041975Y-396620476D01*
X280041975Y-396620476D02*
X279772601Y-396351102D01*
X279772601Y-396351102D02*
X279738930Y-396250087D01*
X279738930Y-396250087D02*
X279738930Y-396182743D01*
X279738930Y-396182743D02*
X279772601Y-396081728D01*
X279772601Y-396081728D02*
X279907288Y-395947041D01*
X279907288Y-395947041D02*
X280008304Y-395913369D01*
X280008304Y-395913369D02*
X280075647Y-395913369D01*
X280075647Y-395913369D02*
X280176662Y-395947041D01*
X280176662Y-395947041D02*
X280345021Y-396115400D01*
X280345021Y-396115400D02*
X280378693Y-396216415D01*
X280378693Y-396216415D02*
X280378693Y-396283759D01*
X280378693Y-396283759D02*
X280345021Y-396384774D01*
X280345021Y-396384774D02*
X280210334Y-396519461D01*
X280210334Y-396519461D02*
X280109319Y-396553133D01*
X280109319Y-396553133D02*
X280041975Y-396553133D01*
X280041975Y-396553133D02*
X279940960Y-396519461D01*
X316862619Y-342207142D02*
X316386428Y-341873809D01*
X316862619Y-341635714D02*
X315862619Y-341635714D01*
X315862619Y-341635714D02*
X315862619Y-342016666D01*
X315862619Y-342016666D02*
X315910238Y-342111904D01*
X315910238Y-342111904D02*
X315957857Y-342159523D01*
X315957857Y-342159523D02*
X316053095Y-342207142D01*
X316053095Y-342207142D02*
X316195952Y-342207142D01*
X316195952Y-342207142D02*
X316291190Y-342159523D01*
X316291190Y-342159523D02*
X316338809Y-342111904D01*
X316338809Y-342111904D02*
X316386428Y-342016666D01*
X316386428Y-342016666D02*
X316386428Y-341635714D01*
X316862619Y-343159523D02*
X316862619Y-342588095D01*
X316862619Y-342873809D02*
X315862619Y-342873809D01*
X315862619Y-342873809D02*
X316005476Y-342778571D01*
X316005476Y-342778571D02*
X316100714Y-342683333D01*
X316100714Y-342683333D02*
X316148333Y-342588095D01*
X315862619Y-343492857D02*
X315862619Y-344111904D01*
X315862619Y-344111904D02*
X316243571Y-343778571D01*
X316243571Y-343778571D02*
X316243571Y-343921428D01*
X316243571Y-343921428D02*
X316291190Y-344016666D01*
X316291190Y-344016666D02*
X316338809Y-344064285D01*
X316338809Y-344064285D02*
X316434047Y-344111904D01*
X316434047Y-344111904D02*
X316672142Y-344111904D01*
X316672142Y-344111904D02*
X316767380Y-344064285D01*
X316767380Y-344064285D02*
X316815000Y-344016666D01*
X316815000Y-344016666D02*
X316862619Y-343921428D01*
X316862619Y-343921428D02*
X316862619Y-343635714D01*
X316862619Y-343635714D02*
X316815000Y-343540476D01*
X316815000Y-343540476D02*
X316767380Y-343492857D01*
X332012619Y-383183333D02*
X331536428Y-382850000D01*
X332012619Y-382611905D02*
X331012619Y-382611905D01*
X331012619Y-382611905D02*
X331012619Y-382992857D01*
X331012619Y-382992857D02*
X331060238Y-383088095D01*
X331060238Y-383088095D02*
X331107857Y-383135714D01*
X331107857Y-383135714D02*
X331203095Y-383183333D01*
X331203095Y-383183333D02*
X331345952Y-383183333D01*
X331345952Y-383183333D02*
X331441190Y-383135714D01*
X331441190Y-383135714D02*
X331488809Y-383088095D01*
X331488809Y-383088095D02*
X331536428Y-382992857D01*
X331536428Y-382992857D02*
X331536428Y-382611905D01*
X332012619Y-384135714D02*
X332012619Y-383564286D01*
X332012619Y-383850000D02*
X331012619Y-383850000D01*
X331012619Y-383850000D02*
X331155476Y-383754762D01*
X331155476Y-383754762D02*
X331250714Y-383659524D01*
X331250714Y-383659524D02*
X331298333Y-383564286D01*
X332566666Y-377767380D02*
X332614285Y-377815000D01*
X332614285Y-377815000D02*
X332757142Y-377862619D01*
X332757142Y-377862619D02*
X332852380Y-377862619D01*
X332852380Y-377862619D02*
X332995237Y-377815000D01*
X332995237Y-377815000D02*
X333090475Y-377719761D01*
X333090475Y-377719761D02*
X333138094Y-377624523D01*
X333138094Y-377624523D02*
X333185713Y-377434047D01*
X333185713Y-377434047D02*
X333185713Y-377291190D01*
X333185713Y-377291190D02*
X333138094Y-377100714D01*
X333138094Y-377100714D02*
X333090475Y-377005476D01*
X333090475Y-377005476D02*
X332995237Y-376910238D01*
X332995237Y-376910238D02*
X332852380Y-376862619D01*
X332852380Y-376862619D02*
X332757142Y-376862619D01*
X332757142Y-376862619D02*
X332614285Y-376910238D01*
X332614285Y-376910238D02*
X332566666Y-376957857D01*
X331614285Y-377862619D02*
X332185713Y-377862619D01*
X331899999Y-377862619D02*
X331899999Y-376862619D01*
X331899999Y-376862619D02*
X331995237Y-377005476D01*
X331995237Y-377005476D02*
X332090475Y-377100714D01*
X332090475Y-377100714D02*
X332185713Y-377148333D01*
X334003331Y-385885426D02*
X334029103Y-385947643D01*
X334029103Y-385947643D02*
X334142863Y-386046307D01*
X334142863Y-386046307D02*
X334230851Y-386082753D01*
X334230851Y-386082753D02*
X334381057Y-386093427D01*
X334381057Y-386093427D02*
X334505491Y-386041885D01*
X334505491Y-386041885D02*
X334585932Y-385972119D01*
X334585932Y-385972119D02*
X334702818Y-385814365D01*
X334702818Y-385814365D02*
X334757487Y-385682383D01*
X334757487Y-385682383D02*
X334786385Y-385488183D01*
X334786385Y-385488183D02*
X334778837Y-385381971D01*
X334778837Y-385381971D02*
X334727294Y-385257536D01*
X334727294Y-385257536D02*
X334613534Y-385158873D01*
X334613534Y-385158873D02*
X334525546Y-385122427D01*
X334525546Y-385122427D02*
X334375340Y-385111752D01*
X334375340Y-385111752D02*
X334313123Y-385137524D01*
X333087000Y-385608954D02*
X333614931Y-385827630D01*
X333350966Y-385718292D02*
X333733649Y-384794413D01*
X333733649Y-384794413D02*
X333766969Y-384962842D01*
X333766969Y-384962842D02*
X333818511Y-385087276D01*
X333818511Y-385087276D02*
X333888277Y-385167716D01*
X332677787Y-384357060D02*
X332853764Y-384429952D01*
X332853764Y-384429952D02*
X332923529Y-384510393D01*
X332923529Y-384510393D02*
X332949301Y-384572610D01*
X332949301Y-384572610D02*
X332982620Y-384741039D01*
X332982620Y-384741039D02*
X332953722Y-384935239D01*
X332953722Y-384935239D02*
X332807938Y-385287193D01*
X332807938Y-385287193D02*
X332727498Y-385356958D01*
X332727498Y-385356958D02*
X332665281Y-385382730D01*
X332665281Y-385382730D02*
X332559069Y-385390278D01*
X332559069Y-385390278D02*
X332383092Y-385317386D01*
X332383092Y-385317386D02*
X332313326Y-385236946D01*
X332313326Y-385236946D02*
X332287555Y-385174728D01*
X332287555Y-385174728D02*
X332280007Y-385068517D01*
X332280007Y-385068517D02*
X332371122Y-384848545D01*
X332371122Y-384848545D02*
X332451562Y-384778780D01*
X332451562Y-384778780D02*
X332513780Y-384753009D01*
X332513780Y-384753009D02*
X332619991Y-384745460D01*
X332619991Y-384745460D02*
X332795968Y-384818352D01*
X332795968Y-384818352D02*
X332865734Y-384898793D01*
X332865734Y-384898793D02*
X332891505Y-384961010D01*
X332891505Y-384961010D02*
X332899053Y-385067222D01*
X364173756Y-413949646D02*
X364147984Y-414011863D01*
X364147984Y-414011863D02*
X364158659Y-414162069D01*
X364158659Y-414162069D02*
X364195105Y-414250057D01*
X364195105Y-414250057D02*
X364293768Y-414363817D01*
X364293768Y-414363817D02*
X364418203Y-414415360D01*
X364418203Y-414415360D02*
X364524415Y-414422908D01*
X364524415Y-414422908D02*
X364718615Y-414394010D01*
X364718615Y-414394010D02*
X364850597Y-414339341D01*
X364850597Y-414339341D02*
X365008351Y-414222455D01*
X365008351Y-414222455D02*
X365078117Y-414142014D01*
X365078117Y-414142014D02*
X365129659Y-414017580D01*
X365129659Y-414017580D02*
X365118985Y-413867374D01*
X365118985Y-413867374D02*
X365082539Y-413779385D01*
X365082539Y-413779385D02*
X364983875Y-413665626D01*
X364983875Y-413665626D02*
X364921658Y-413639854D01*
X363721307Y-413106206D02*
X363939983Y-413634138D01*
X363830645Y-413370172D02*
X364754524Y-412987489D01*
X364754524Y-412987489D02*
X364658988Y-413130146D01*
X364658988Y-413130146D02*
X364607445Y-413254581D01*
X364607445Y-413254581D02*
X364599897Y-413360792D01*
X364030562Y-412359599D02*
X364111002Y-412429365D01*
X364111002Y-412429365D02*
X364173219Y-412455136D01*
X364173219Y-412455136D02*
X364279431Y-412462684D01*
X364279431Y-412462684D02*
X364323425Y-412444461D01*
X364323425Y-412444461D02*
X364393190Y-412364021D01*
X364393190Y-412364021D02*
X364418962Y-412301803D01*
X364418962Y-412301803D02*
X364426510Y-412195592D01*
X364426510Y-412195592D02*
X364353618Y-412019615D01*
X364353618Y-412019615D02*
X364273177Y-411949849D01*
X364273177Y-411949849D02*
X364210960Y-411924078D01*
X364210960Y-411924078D02*
X364104749Y-411916530D01*
X364104749Y-411916530D02*
X364060754Y-411934753D01*
X364060754Y-411934753D02*
X363990989Y-412015193D01*
X363990989Y-412015193D02*
X363965218Y-412077410D01*
X363965218Y-412077410D02*
X363957669Y-412183622D01*
X363957669Y-412183622D02*
X364030562Y-412359599D01*
X364030562Y-412359599D02*
X364023013Y-412465811D01*
X364023013Y-412465811D02*
X363997242Y-412528028D01*
X363997242Y-412528028D02*
X363927477Y-412608468D01*
X363927477Y-412608468D02*
X363751499Y-412681360D01*
X363751499Y-412681360D02*
X363645288Y-412673812D01*
X363645288Y-412673812D02*
X363583071Y-412648041D01*
X363583071Y-412648041D02*
X363502630Y-412578275D01*
X363502630Y-412578275D02*
X363429738Y-412402298D01*
X363429738Y-412402298D02*
X363437286Y-412296087D01*
X363437286Y-412296087D02*
X363463058Y-412233869D01*
X363463058Y-412233869D02*
X363532823Y-412153429D01*
X363532823Y-412153429D02*
X363708800Y-412080537D01*
X363708800Y-412080537D02*
X363815012Y-412088085D01*
X363815012Y-412088085D02*
X363877229Y-412113856D01*
X363877229Y-412113856D02*
X363957669Y-412183622D01*
X311342857Y-361867380D02*
X311390476Y-361915000D01*
X311390476Y-361915000D02*
X311533333Y-361962619D01*
X311533333Y-361962619D02*
X311628571Y-361962619D01*
X311628571Y-361962619D02*
X311771428Y-361915000D01*
X311771428Y-361915000D02*
X311866666Y-361819761D01*
X311866666Y-361819761D02*
X311914285Y-361724523D01*
X311914285Y-361724523D02*
X311961904Y-361534047D01*
X311961904Y-361534047D02*
X311961904Y-361391190D01*
X311961904Y-361391190D02*
X311914285Y-361200714D01*
X311914285Y-361200714D02*
X311866666Y-361105476D01*
X311866666Y-361105476D02*
X311771428Y-361010238D01*
X311771428Y-361010238D02*
X311628571Y-360962619D01*
X311628571Y-360962619D02*
X311533333Y-360962619D01*
X311533333Y-360962619D02*
X311390476Y-361010238D01*
X311390476Y-361010238D02*
X311342857Y-361057857D01*
X310390476Y-361962619D02*
X310961904Y-361962619D01*
X310676190Y-361962619D02*
X310676190Y-360962619D01*
X310676190Y-360962619D02*
X310771428Y-361105476D01*
X310771428Y-361105476D02*
X310866666Y-361200714D01*
X310866666Y-361200714D02*
X310961904Y-361248333D01*
X310057142Y-360962619D02*
X309438095Y-360962619D01*
X309438095Y-360962619D02*
X309771428Y-361343571D01*
X309771428Y-361343571D02*
X309628571Y-361343571D01*
X309628571Y-361343571D02*
X309533333Y-361391190D01*
X309533333Y-361391190D02*
X309485714Y-361438809D01*
X309485714Y-361438809D02*
X309438095Y-361534047D01*
X309438095Y-361534047D02*
X309438095Y-361772142D01*
X309438095Y-361772142D02*
X309485714Y-361867380D01*
X309485714Y-361867380D02*
X309533333Y-361915000D01*
X309533333Y-361915000D02*
X309628571Y-361962619D01*
X309628571Y-361962619D02*
X309914285Y-361962619D01*
X309914285Y-361962619D02*
X310009523Y-361915000D01*
X310009523Y-361915000D02*
X310057142Y-361867380D01*
X320812619Y-358307142D02*
X320336428Y-357973809D01*
X320812619Y-357735714D02*
X319812619Y-357735714D01*
X319812619Y-357735714D02*
X319812619Y-358116666D01*
X319812619Y-358116666D02*
X319860238Y-358211904D01*
X319860238Y-358211904D02*
X319907857Y-358259523D01*
X319907857Y-358259523D02*
X320003095Y-358307142D01*
X320003095Y-358307142D02*
X320145952Y-358307142D01*
X320145952Y-358307142D02*
X320241190Y-358259523D01*
X320241190Y-358259523D02*
X320288809Y-358211904D01*
X320288809Y-358211904D02*
X320336428Y-358116666D01*
X320336428Y-358116666D02*
X320336428Y-357735714D01*
X320812619Y-359259523D02*
X320812619Y-358688095D01*
X320812619Y-358973809D02*
X319812619Y-358973809D01*
X319812619Y-358973809D02*
X319955476Y-358878571D01*
X319955476Y-358878571D02*
X320050714Y-358783333D01*
X320050714Y-358783333D02*
X320098333Y-358688095D01*
X320812619Y-360211904D02*
X320812619Y-359640476D01*
X320812619Y-359926190D02*
X319812619Y-359926190D01*
X319812619Y-359926190D02*
X319955476Y-359830952D01*
X319955476Y-359830952D02*
X320050714Y-359735714D01*
X320050714Y-359735714D02*
X320098333Y-359640476D01*
X337389078Y-389059910D02*
X338136980Y-389369702D01*
X338136980Y-389369702D02*
X338206746Y-389450142D01*
X338206746Y-389450142D02*
X338232517Y-389512359D01*
X338232517Y-389512359D02*
X338240065Y-389618571D01*
X338240065Y-389618571D02*
X338167173Y-389794548D01*
X338167173Y-389794548D02*
X338086733Y-389864314D01*
X338086733Y-389864314D02*
X338024515Y-389890085D01*
X338024515Y-389890085D02*
X337918304Y-389897633D01*
X337918304Y-389897633D02*
X337170401Y-389587842D01*
X336824164Y-390423733D02*
X336897056Y-390247756D01*
X336897056Y-390247756D02*
X336977496Y-390177990D01*
X336977496Y-390177990D02*
X337039714Y-390152219D01*
X337039714Y-390152219D02*
X337208142Y-390118899D01*
X337208142Y-390118899D02*
X337402343Y-390147797D01*
X337402343Y-390147797D02*
X337754297Y-390293581D01*
X337754297Y-390293581D02*
X337824062Y-390374022D01*
X337824062Y-390374022D02*
X337849833Y-390436239D01*
X337849833Y-390436239D02*
X337857382Y-390542450D01*
X337857382Y-390542450D02*
X337784490Y-390718428D01*
X337784490Y-390718428D02*
X337704049Y-390788193D01*
X337704049Y-390788193D02*
X337641832Y-390813964D01*
X337641832Y-390813964D02*
X337535620Y-390821512D01*
X337535620Y-390821512D02*
X337315649Y-390730397D01*
X337315649Y-390730397D02*
X337245884Y-390649957D01*
X337245884Y-390649957D02*
X337220112Y-390587740D01*
X337220112Y-390587740D02*
X337212564Y-390481528D01*
X337212564Y-390481528D02*
X337285456Y-390305551D01*
X337285456Y-390305551D02*
X337365896Y-390235786D01*
X337365896Y-390235786D02*
X337428114Y-390210014D01*
X337428114Y-390210014D02*
X337534325Y-390202466D01*
X309866666Y-356217380D02*
X309914285Y-356265000D01*
X309914285Y-356265000D02*
X310057142Y-356312619D01*
X310057142Y-356312619D02*
X310152380Y-356312619D01*
X310152380Y-356312619D02*
X310295237Y-356265000D01*
X310295237Y-356265000D02*
X310390475Y-356169761D01*
X310390475Y-356169761D02*
X310438094Y-356074523D01*
X310438094Y-356074523D02*
X310485713Y-355884047D01*
X310485713Y-355884047D02*
X310485713Y-355741190D01*
X310485713Y-355741190D02*
X310438094Y-355550714D01*
X310438094Y-355550714D02*
X310390475Y-355455476D01*
X310390475Y-355455476D02*
X310295237Y-355360238D01*
X310295237Y-355360238D02*
X310152380Y-355312619D01*
X310152380Y-355312619D02*
X310057142Y-355312619D01*
X310057142Y-355312619D02*
X309914285Y-355360238D01*
X309914285Y-355360238D02*
X309866666Y-355407857D01*
X309390475Y-356312619D02*
X309199999Y-356312619D01*
X309199999Y-356312619D02*
X309104761Y-356265000D01*
X309104761Y-356265000D02*
X309057142Y-356217380D01*
X309057142Y-356217380D02*
X308961904Y-356074523D01*
X308961904Y-356074523D02*
X308914285Y-355884047D01*
X308914285Y-355884047D02*
X308914285Y-355503095D01*
X308914285Y-355503095D02*
X308961904Y-355407857D01*
X308961904Y-355407857D02*
X309009523Y-355360238D01*
X309009523Y-355360238D02*
X309104761Y-355312619D01*
X309104761Y-355312619D02*
X309295237Y-355312619D01*
X309295237Y-355312619D02*
X309390475Y-355360238D01*
X309390475Y-355360238D02*
X309438094Y-355407857D01*
X309438094Y-355407857D02*
X309485713Y-355503095D01*
X309485713Y-355503095D02*
X309485713Y-355741190D01*
X309485713Y-355741190D02*
X309438094Y-355836428D01*
X309438094Y-355836428D02*
X309390475Y-355884047D01*
X309390475Y-355884047D02*
X309295237Y-355931666D01*
X309295237Y-355931666D02*
X309104761Y-355931666D01*
X309104761Y-355931666D02*
X309009523Y-355884047D01*
X309009523Y-355884047D02*
X308961904Y-355836428D01*
X308961904Y-355836428D02*
X308914285Y-355741190D01*
X368317064Y-432227142D02*
X368364684Y-432179523D01*
X368364684Y-432179523D02*
X368412303Y-432036666D01*
X368412303Y-432036666D02*
X368412303Y-431941428D01*
X368412303Y-431941428D02*
X368364684Y-431798571D01*
X368364684Y-431798571D02*
X368269445Y-431703333D01*
X368269445Y-431703333D02*
X368174207Y-431655714D01*
X368174207Y-431655714D02*
X367983731Y-431608095D01*
X367983731Y-431608095D02*
X367840874Y-431608095D01*
X367840874Y-431608095D02*
X367650398Y-431655714D01*
X367650398Y-431655714D02*
X367555160Y-431703333D01*
X367555160Y-431703333D02*
X367459922Y-431798571D01*
X367459922Y-431798571D02*
X367412303Y-431941428D01*
X367412303Y-431941428D02*
X367412303Y-432036666D01*
X367412303Y-432036666D02*
X367459922Y-432179523D01*
X367459922Y-432179523D02*
X367507541Y-432227142D01*
X368412303Y-433179523D02*
X368412303Y-432608095D01*
X368412303Y-432893809D02*
X367412303Y-432893809D01*
X367412303Y-432893809D02*
X367555160Y-432798571D01*
X367555160Y-432798571D02*
X367650398Y-432703333D01*
X367650398Y-432703333D02*
X367698017Y-432608095D01*
X368412303Y-433655714D02*
X368412303Y-433846190D01*
X368412303Y-433846190D02*
X368364684Y-433941428D01*
X368364684Y-433941428D02*
X368317064Y-433989047D01*
X368317064Y-433989047D02*
X368174207Y-434084285D01*
X368174207Y-434084285D02*
X367983731Y-434131904D01*
X367983731Y-434131904D02*
X367602779Y-434131904D01*
X367602779Y-434131904D02*
X367507541Y-434084285D01*
X367507541Y-434084285D02*
X367459922Y-434036666D01*
X367459922Y-434036666D02*
X367412303Y-433941428D01*
X367412303Y-433941428D02*
X367412303Y-433750952D01*
X367412303Y-433750952D02*
X367459922Y-433655714D01*
X367459922Y-433655714D02*
X367507541Y-433608095D01*
X367507541Y-433608095D02*
X367602779Y-433560476D01*
X367602779Y-433560476D02*
X367840874Y-433560476D01*
X367840874Y-433560476D02*
X367936112Y-433608095D01*
X367936112Y-433608095D02*
X367983731Y-433655714D01*
X367983731Y-433655714D02*
X368031350Y-433750952D01*
X368031350Y-433750952D02*
X368031350Y-433941428D01*
X368031350Y-433941428D02*
X367983731Y-434036666D01*
X367983731Y-434036666D02*
X367936112Y-434084285D01*
X367936112Y-434084285D02*
X367840874Y-434131904D01*
X333667380Y-383333333D02*
X333715000Y-383285714D01*
X333715000Y-383285714D02*
X333762619Y-383142857D01*
X333762619Y-383142857D02*
X333762619Y-383047619D01*
X333762619Y-383047619D02*
X333715000Y-382904762D01*
X333715000Y-382904762D02*
X333619761Y-382809524D01*
X333619761Y-382809524D02*
X333524523Y-382761905D01*
X333524523Y-382761905D02*
X333334047Y-382714286D01*
X333334047Y-382714286D02*
X333191190Y-382714286D01*
X333191190Y-382714286D02*
X333000714Y-382761905D01*
X333000714Y-382761905D02*
X332905476Y-382809524D01*
X332905476Y-382809524D02*
X332810238Y-382904762D01*
X332810238Y-382904762D02*
X332762619Y-383047619D01*
X332762619Y-383047619D02*
X332762619Y-383142857D01*
X332762619Y-383142857D02*
X332810238Y-383285714D01*
X332810238Y-383285714D02*
X332857857Y-383333333D01*
X333095952Y-384190476D02*
X333762619Y-384190476D01*
X332715000Y-383952381D02*
X333429285Y-383714286D01*
X333429285Y-383714286D02*
X333429285Y-384333333D01*
X295571681Y-473554005D02*
X296319583Y-473863797D01*
X296319583Y-473863797D02*
X296389349Y-473944237D01*
X296389349Y-473944237D02*
X296415120Y-474006454D01*
X296415120Y-474006454D02*
X296422668Y-474112666D01*
X296422668Y-474112666D02*
X296349776Y-474288643D01*
X296349776Y-474288643D02*
X296269336Y-474358408D01*
X296269336Y-474358408D02*
X296207118Y-474384180D01*
X296207118Y-474384180D02*
X296100907Y-474391728D01*
X296100907Y-474391728D02*
X295353004Y-474081936D01*
X295894200Y-475388499D02*
X296112877Y-474860568D01*
X296003539Y-475124534D02*
X295079659Y-474741850D01*
X295079659Y-474741850D02*
X295248088Y-474708531D01*
X295248088Y-474708531D02*
X295372522Y-474656988D01*
X295372522Y-474656988D02*
X295452963Y-474587223D01*
X294950266Y-475925274D02*
X295566186Y-476180396D01*
X294689427Y-475559518D02*
X295440456Y-475612892D01*
X295440456Y-475612892D02*
X295203557Y-476184818D01*
X353590690Y-397124548D02*
X353590690Y-397191891D01*
X353590690Y-397191891D02*
X353658033Y-397326578D01*
X353658033Y-397326578D02*
X353725377Y-397393922D01*
X353725377Y-397393922D02*
X353860064Y-397461265D01*
X353860064Y-397461265D02*
X353994751Y-397461265D01*
X353994751Y-397461265D02*
X354095766Y-397427594D01*
X354095766Y-397427594D02*
X354264125Y-397326578D01*
X354264125Y-397326578D02*
X354365140Y-397225563D01*
X354365140Y-397225563D02*
X354466155Y-397057204D01*
X354466155Y-397057204D02*
X354499827Y-396956189D01*
X354499827Y-396956189D02*
X354499827Y-396821502D01*
X354499827Y-396821502D02*
X354432483Y-396686815D01*
X354432483Y-396686815D02*
X354365140Y-396619471D01*
X354365140Y-396619471D02*
X354230453Y-396552128D01*
X354230453Y-396552128D02*
X354163109Y-396552128D01*
X352849911Y-396518456D02*
X353253972Y-396922517D01*
X353051942Y-396720487D02*
X353759048Y-396013380D01*
X353759048Y-396013380D02*
X353725377Y-396181739D01*
X353725377Y-396181739D02*
X353725377Y-396316426D01*
X353725377Y-396316426D02*
X353759048Y-396417441D01*
X353321316Y-395575647D02*
X352849911Y-395104243D01*
X352849911Y-395104243D02*
X352445850Y-396114395D01*
X313966666Y-387962619D02*
X314299999Y-387486428D01*
X314538094Y-387962619D02*
X314538094Y-386962619D01*
X314538094Y-386962619D02*
X314157142Y-386962619D01*
X314157142Y-386962619D02*
X314061904Y-387010238D01*
X314061904Y-387010238D02*
X314014285Y-387057857D01*
X314014285Y-387057857D02*
X313966666Y-387153095D01*
X313966666Y-387153095D02*
X313966666Y-387295952D01*
X313966666Y-387295952D02*
X314014285Y-387391190D01*
X314014285Y-387391190D02*
X314061904Y-387438809D01*
X314061904Y-387438809D02*
X314157142Y-387486428D01*
X314157142Y-387486428D02*
X314538094Y-387486428D01*
X313585713Y-387057857D02*
X313538094Y-387010238D01*
X313538094Y-387010238D02*
X313442856Y-386962619D01*
X313442856Y-386962619D02*
X313204761Y-386962619D01*
X313204761Y-386962619D02*
X313109523Y-387010238D01*
X313109523Y-387010238D02*
X313061904Y-387057857D01*
X313061904Y-387057857D02*
X313014285Y-387153095D01*
X313014285Y-387153095D02*
X313014285Y-387248333D01*
X313014285Y-387248333D02*
X313061904Y-387391190D01*
X313061904Y-387391190D02*
X313633332Y-387962619D01*
X313633332Y-387962619D02*
X313014285Y-387962619D01*
X286446030Y-397135629D02*
X285873611Y-397708049D01*
X285873611Y-397708049D02*
X285772595Y-397741721D01*
X285772595Y-397741721D02*
X285705252Y-397741721D01*
X285705252Y-397741721D02*
X285604237Y-397708049D01*
X285604237Y-397708049D02*
X285469550Y-397573362D01*
X285469550Y-397573362D02*
X285435878Y-397472347D01*
X285435878Y-397472347D02*
X285435878Y-397405003D01*
X285435878Y-397405003D02*
X285469550Y-397303988D01*
X285469550Y-397303988D02*
X286041969Y-396731568D01*
X284627756Y-396731568D02*
X285031817Y-397135629D01*
X284829786Y-396933599D02*
X285536893Y-396226492D01*
X285536893Y-396226492D02*
X285503221Y-396394850D01*
X285503221Y-396394850D02*
X285503221Y-396529537D01*
X285503221Y-396529537D02*
X285536893Y-396630553D01*
X284291038Y-396394850D02*
X284156351Y-396260163D01*
X284156351Y-396260163D02*
X284122680Y-396159148D01*
X284122680Y-396159148D02*
X284122680Y-396091805D01*
X284122680Y-396091805D02*
X284156351Y-395923446D01*
X284156351Y-395923446D02*
X284257367Y-395755087D01*
X284257367Y-395755087D02*
X284526741Y-395485713D01*
X284526741Y-395485713D02*
X284627756Y-395452041D01*
X284627756Y-395452041D02*
X284695099Y-395452041D01*
X284695099Y-395452041D02*
X284796115Y-395485713D01*
X284796115Y-395485713D02*
X284930802Y-395620400D01*
X284930802Y-395620400D02*
X284964473Y-395721415D01*
X284964473Y-395721415D02*
X284964473Y-395788759D01*
X284964473Y-395788759D02*
X284930802Y-395889774D01*
X284930802Y-395889774D02*
X284762443Y-396058133D01*
X284762443Y-396058133D02*
X284661428Y-396091805D01*
X284661428Y-396091805D02*
X284594084Y-396091805D01*
X284594084Y-396091805D02*
X284493069Y-396058133D01*
X284493069Y-396058133D02*
X284358382Y-395923446D01*
X284358382Y-395923446D02*
X284324710Y-395822431D01*
X284324710Y-395822431D02*
X284324710Y-395755087D01*
X284324710Y-395755087D02*
X284358382Y-395654072D01*
X296942857Y-397267380D02*
X296990476Y-397315000D01*
X296990476Y-397315000D02*
X297133333Y-397362619D01*
X297133333Y-397362619D02*
X297228571Y-397362619D01*
X297228571Y-397362619D02*
X297371428Y-397315000D01*
X297371428Y-397315000D02*
X297466666Y-397219761D01*
X297466666Y-397219761D02*
X297514285Y-397124523D01*
X297514285Y-397124523D02*
X297561904Y-396934047D01*
X297561904Y-396934047D02*
X297561904Y-396791190D01*
X297561904Y-396791190D02*
X297514285Y-396600714D01*
X297514285Y-396600714D02*
X297466666Y-396505476D01*
X297466666Y-396505476D02*
X297371428Y-396410238D01*
X297371428Y-396410238D02*
X297228571Y-396362619D01*
X297228571Y-396362619D02*
X297133333Y-396362619D01*
X297133333Y-396362619D02*
X296990476Y-396410238D01*
X296990476Y-396410238D02*
X296942857Y-396457857D01*
X295990476Y-397362619D02*
X296561904Y-397362619D01*
X296276190Y-397362619D02*
X296276190Y-396362619D01*
X296276190Y-396362619D02*
X296371428Y-396505476D01*
X296371428Y-396505476D02*
X296466666Y-396600714D01*
X296466666Y-396600714D02*
X296561904Y-396648333D01*
X295371428Y-396362619D02*
X295276190Y-396362619D01*
X295276190Y-396362619D02*
X295180952Y-396410238D01*
X295180952Y-396410238D02*
X295133333Y-396457857D01*
X295133333Y-396457857D02*
X295085714Y-396553095D01*
X295085714Y-396553095D02*
X295038095Y-396743571D01*
X295038095Y-396743571D02*
X295038095Y-396981666D01*
X295038095Y-396981666D02*
X295085714Y-397172142D01*
X295085714Y-397172142D02*
X295133333Y-397267380D01*
X295133333Y-397267380D02*
X295180952Y-397315000D01*
X295180952Y-397315000D02*
X295276190Y-397362619D01*
X295276190Y-397362619D02*
X295371428Y-397362619D01*
X295371428Y-397362619D02*
X295466666Y-397315000D01*
X295466666Y-397315000D02*
X295514285Y-397267380D01*
X295514285Y-397267380D02*
X295561904Y-397172142D01*
X295561904Y-397172142D02*
X295609523Y-396981666D01*
X295609523Y-396981666D02*
X295609523Y-396743571D01*
X295609523Y-396743571D02*
X295561904Y-396553095D01*
X295561904Y-396553095D02*
X295514285Y-396457857D01*
X295514285Y-396457857D02*
X295466666Y-396410238D01*
X295466666Y-396410238D02*
X295371428Y-396362619D01*
X318940119Y-384168095D02*
X319749642Y-384168095D01*
X319749642Y-384168095D02*
X319844880Y-384215714D01*
X319844880Y-384215714D02*
X319892500Y-384263333D01*
X319892500Y-384263333D02*
X319940119Y-384358571D01*
X319940119Y-384358571D02*
X319940119Y-384549047D01*
X319940119Y-384549047D02*
X319892500Y-384644285D01*
X319892500Y-384644285D02*
X319844880Y-384691904D01*
X319844880Y-384691904D02*
X319749642Y-384739523D01*
X319749642Y-384739523D02*
X318940119Y-384739523D01*
X318940119Y-385691904D02*
X318940119Y-385215714D01*
X318940119Y-385215714D02*
X319416309Y-385168095D01*
X319416309Y-385168095D02*
X319368690Y-385215714D01*
X319368690Y-385215714D02*
X319321071Y-385310952D01*
X319321071Y-385310952D02*
X319321071Y-385549047D01*
X319321071Y-385549047D02*
X319368690Y-385644285D01*
X319368690Y-385644285D02*
X319416309Y-385691904D01*
X319416309Y-385691904D02*
X319511547Y-385739523D01*
X319511547Y-385739523D02*
X319749642Y-385739523D01*
X319749642Y-385739523D02*
X319844880Y-385691904D01*
X319844880Y-385691904D02*
X319892500Y-385644285D01*
X319892500Y-385644285D02*
X319940119Y-385549047D01*
X319940119Y-385549047D02*
X319940119Y-385310952D01*
X319940119Y-385310952D02*
X319892500Y-385215714D01*
X319892500Y-385215714D02*
X319844880Y-385168095D01*
X319242619Y-358307142D02*
X318766428Y-357973809D01*
X319242619Y-357735714D02*
X318242619Y-357735714D01*
X318242619Y-357735714D02*
X318242619Y-358116666D01*
X318242619Y-358116666D02*
X318290238Y-358211904D01*
X318290238Y-358211904D02*
X318337857Y-358259523D01*
X318337857Y-358259523D02*
X318433095Y-358307142D01*
X318433095Y-358307142D02*
X318575952Y-358307142D01*
X318575952Y-358307142D02*
X318671190Y-358259523D01*
X318671190Y-358259523D02*
X318718809Y-358211904D01*
X318718809Y-358211904D02*
X318766428Y-358116666D01*
X318766428Y-358116666D02*
X318766428Y-357735714D01*
X319242619Y-359259523D02*
X319242619Y-358688095D01*
X319242619Y-358973809D02*
X318242619Y-358973809D01*
X318242619Y-358973809D02*
X318385476Y-358878571D01*
X318385476Y-358878571D02*
X318480714Y-358783333D01*
X318480714Y-358783333D02*
X318528333Y-358688095D01*
X318337857Y-359640476D02*
X318290238Y-359688095D01*
X318290238Y-359688095D02*
X318242619Y-359783333D01*
X318242619Y-359783333D02*
X318242619Y-360021428D01*
X318242619Y-360021428D02*
X318290238Y-360116666D01*
X318290238Y-360116666D02*
X318337857Y-360164285D01*
X318337857Y-360164285D02*
X318433095Y-360211904D01*
X318433095Y-360211904D02*
X318528333Y-360211904D01*
X318528333Y-360211904D02*
X318671190Y-360164285D01*
X318671190Y-360164285D02*
X319242619Y-359592857D01*
X319242619Y-359592857D02*
X319242619Y-360211904D01*
X364741904Y-434665119D02*
X364741904Y-435474642D01*
X364741904Y-435474642D02*
X364694285Y-435569880D01*
X364694285Y-435569880D02*
X364646666Y-435617500D01*
X364646666Y-435617500D02*
X364551428Y-435665119D01*
X364551428Y-435665119D02*
X364360952Y-435665119D01*
X364360952Y-435665119D02*
X364265714Y-435617500D01*
X364265714Y-435617500D02*
X364218095Y-435569880D01*
X364218095Y-435569880D02*
X364170476Y-435474642D01*
X364170476Y-435474642D02*
X364170476Y-434665119D01*
X363646666Y-435665119D02*
X363456190Y-435665119D01*
X363456190Y-435665119D02*
X363360952Y-435617500D01*
X363360952Y-435617500D02*
X363313333Y-435569880D01*
X363313333Y-435569880D02*
X363218095Y-435427023D01*
X363218095Y-435427023D02*
X363170476Y-435236547D01*
X363170476Y-435236547D02*
X363170476Y-434855595D01*
X363170476Y-434855595D02*
X363218095Y-434760357D01*
X363218095Y-434760357D02*
X363265714Y-434712738D01*
X363265714Y-434712738D02*
X363360952Y-434665119D01*
X363360952Y-434665119D02*
X363551428Y-434665119D01*
X363551428Y-434665119D02*
X363646666Y-434712738D01*
X363646666Y-434712738D02*
X363694285Y-434760357D01*
X363694285Y-434760357D02*
X363741904Y-434855595D01*
X363741904Y-434855595D02*
X363741904Y-435093690D01*
X363741904Y-435093690D02*
X363694285Y-435188928D01*
X363694285Y-435188928D02*
X363646666Y-435236547D01*
X363646666Y-435236547D02*
X363551428Y-435284166D01*
X363551428Y-435284166D02*
X363360952Y-435284166D01*
X363360952Y-435284166D02*
X363265714Y-435236547D01*
X363265714Y-435236547D02*
X363218095Y-435188928D01*
X363218095Y-435188928D02*
X363170476Y-435093690D01*
X316772857Y-483817064D02*
X316820476Y-483864684D01*
X316820476Y-483864684D02*
X316963333Y-483912303D01*
X316963333Y-483912303D02*
X317058571Y-483912303D01*
X317058571Y-483912303D02*
X317201428Y-483864684D01*
X317201428Y-483864684D02*
X317296666Y-483769445D01*
X317296666Y-483769445D02*
X317344285Y-483674207D01*
X317344285Y-483674207D02*
X317391904Y-483483731D01*
X317391904Y-483483731D02*
X317391904Y-483340874D01*
X317391904Y-483340874D02*
X317344285Y-483150398D01*
X317344285Y-483150398D02*
X317296666Y-483055160D01*
X317296666Y-483055160D02*
X317201428Y-482959922D01*
X317201428Y-482959922D02*
X317058571Y-482912303D01*
X317058571Y-482912303D02*
X316963333Y-482912303D01*
X316963333Y-482912303D02*
X316820476Y-482959922D01*
X316820476Y-482959922D02*
X316772857Y-483007541D01*
X316391904Y-483007541D02*
X316344285Y-482959922D01*
X316344285Y-482959922D02*
X316249047Y-482912303D01*
X316249047Y-482912303D02*
X316010952Y-482912303D01*
X316010952Y-482912303D02*
X315915714Y-482959922D01*
X315915714Y-482959922D02*
X315868095Y-483007541D01*
X315868095Y-483007541D02*
X315820476Y-483102779D01*
X315820476Y-483102779D02*
X315820476Y-483198017D01*
X315820476Y-483198017D02*
X315868095Y-483340874D01*
X315868095Y-483340874D02*
X316439523Y-483912303D01*
X316439523Y-483912303D02*
X315820476Y-483912303D01*
X315487142Y-482912303D02*
X314868095Y-482912303D01*
X314868095Y-482912303D02*
X315201428Y-483293255D01*
X315201428Y-483293255D02*
X315058571Y-483293255D01*
X315058571Y-483293255D02*
X314963333Y-483340874D01*
X314963333Y-483340874D02*
X314915714Y-483388493D01*
X314915714Y-483388493D02*
X314868095Y-483483731D01*
X314868095Y-483483731D02*
X314868095Y-483721826D01*
X314868095Y-483721826D02*
X314915714Y-483817064D01*
X314915714Y-483817064D02*
X314963333Y-483864684D01*
X314963333Y-483864684D02*
X315058571Y-483912303D01*
X315058571Y-483912303D02*
X315344285Y-483912303D01*
X315344285Y-483912303D02*
X315439523Y-483864684D01*
X315439523Y-483864684D02*
X315487142Y-483817064D01*
X313267380Y-389983333D02*
X313315000Y-389935714D01*
X313315000Y-389935714D02*
X313362619Y-389792857D01*
X313362619Y-389792857D02*
X313362619Y-389697619D01*
X313362619Y-389697619D02*
X313315000Y-389554762D01*
X313315000Y-389554762D02*
X313219761Y-389459524D01*
X313219761Y-389459524D02*
X313124523Y-389411905D01*
X313124523Y-389411905D02*
X312934047Y-389364286D01*
X312934047Y-389364286D02*
X312791190Y-389364286D01*
X312791190Y-389364286D02*
X312600714Y-389411905D01*
X312600714Y-389411905D02*
X312505476Y-389459524D01*
X312505476Y-389459524D02*
X312410238Y-389554762D01*
X312410238Y-389554762D02*
X312362619Y-389697619D01*
X312362619Y-389697619D02*
X312362619Y-389792857D01*
X312362619Y-389792857D02*
X312410238Y-389935714D01*
X312410238Y-389935714D02*
X312457857Y-389983333D01*
X312362619Y-390840476D02*
X312362619Y-390650000D01*
X312362619Y-390650000D02*
X312410238Y-390554762D01*
X312410238Y-390554762D02*
X312457857Y-390507143D01*
X312457857Y-390507143D02*
X312600714Y-390411905D01*
X312600714Y-390411905D02*
X312791190Y-390364286D01*
X312791190Y-390364286D02*
X313172142Y-390364286D01*
X313172142Y-390364286D02*
X313267380Y-390411905D01*
X313267380Y-390411905D02*
X313315000Y-390459524D01*
X313315000Y-390459524D02*
X313362619Y-390554762D01*
X313362619Y-390554762D02*
X313362619Y-390745238D01*
X313362619Y-390745238D02*
X313315000Y-390840476D01*
X313315000Y-390840476D02*
X313267380Y-390888095D01*
X313267380Y-390888095D02*
X313172142Y-390935714D01*
X313172142Y-390935714D02*
X312934047Y-390935714D01*
X312934047Y-390935714D02*
X312838809Y-390888095D01*
X312838809Y-390888095D02*
X312791190Y-390840476D01*
X312791190Y-390840476D02*
X312743571Y-390745238D01*
X312743571Y-390745238D02*
X312743571Y-390554762D01*
X312743571Y-390554762D02*
X312791190Y-390459524D01*
X312791190Y-390459524D02*
X312838809Y-390411905D01*
X312838809Y-390411905D02*
X312934047Y-390364286D01*
D15*
X287700000Y-416860000D02*
X345900000Y-416860000D01*
X287700000Y-447560000D02*
X287700000Y-416860000D01*
X307275000Y-423030000D02*
X307275000Y-428110000D01*
X307275000Y-428110000D02*
X325055000Y-428110000D01*
X307275000Y-437890000D02*
X308545000Y-437890000D01*
X307275000Y-440430000D02*
X307275000Y-437890000D01*
X308545000Y-436620000D02*
X326325000Y-436620000D01*
X308545000Y-437890000D02*
X308545000Y-436620000D01*
X308545000Y-440430000D02*
X307275000Y-440430000D01*
X308545000Y-441700000D02*
X308545000Y-440430000D01*
X325055000Y-423030000D02*
X307275000Y-423030000D01*
X325055000Y-424300000D02*
X325055000Y-423030000D01*
X325055000Y-426840000D02*
X326325000Y-426840000D01*
X325055000Y-428110000D02*
X325055000Y-426840000D01*
X326325000Y-424300000D02*
X325055000Y-424300000D01*
X326325000Y-426840000D02*
X326325000Y-424300000D01*
X326325000Y-436620000D02*
X326325000Y-441700000D01*
X326325000Y-441700000D02*
X308545000Y-441700000D01*
X345900000Y-416860000D02*
X345900000Y-447560000D01*
X345900000Y-447560000D02*
X287700000Y-447560000D01*
D16*
X345933265Y-377489602D02*
X345741923Y-377951542D01*
X340859290Y-377065601D02*
X342245109Y-377639626D01*
X340930387Y-374280830D02*
X345549785Y-376194248D01*
X339743272Y-374925623D02*
X339551930Y-375387563D01*
D17*
X327550000Y-379055000D02*
G75*
G03*
X327550000Y-379055000I-100000J0D01*
G01*
D18*
X327150000Y-382145000D02*
X327150000Y-382950000D01*
X330150000Y-382145000D02*
X330150000Y-382950000D01*
X327150000Y-379950000D02*
X327150000Y-380755000D01*
X330150000Y-379950000D02*
X330150000Y-380755000D01*
D15*
X313940000Y-394440580D02*
X313940000Y-394159420D01*
X314960000Y-394440580D02*
X314960000Y-394159420D01*
X310547500Y-363844758D02*
X310547500Y-363370242D01*
X311592500Y-363844758D02*
X311592500Y-363370242D01*
X334203014Y-474458748D02*
X333463910Y-474764895D01*
X334203014Y-474458748D02*
X334942117Y-474152601D01*
X335396986Y-477341252D02*
X333734003Y-478030082D01*
X335396986Y-477341252D02*
X336136090Y-477035105D01*
X316329420Y-360772500D02*
X316610580Y-360772500D01*
X316329420Y-361792500D02*
X316610580Y-361792500D01*
X313547500Y-363844758D02*
X313547500Y-363370242D01*
X314592500Y-363844758D02*
X314592500Y-363370242D01*
X312970000Y-357172500D02*
X312320000Y-357172500D01*
X312970000Y-357172500D02*
X313620000Y-357172500D01*
X312970000Y-360292500D02*
X311295000Y-360292500D01*
X312970000Y-360292500D02*
X313620000Y-360292500D01*
X267490316Y-431589420D02*
X267490316Y-431870580D01*
X266470316Y-431589420D02*
X266470316Y-431870580D01*
D18*
X309050000Y-394100000D02*
X309050000Y-393363500D01*
X309050000Y-391336500D02*
X309050000Y-390600000D01*
X309050000Y-390600000D02*
X303050000Y-390600000D01*
X303050000Y-394100000D02*
X309050000Y-394100000D01*
X303050000Y-393363500D02*
X303050000Y-394100000D01*
X303050000Y-390600000D02*
X303050000Y-391336500D01*
D17*
X310400000Y-392350000D02*
G75*
G03*
X310400000Y-392350000I-100000J0D01*
G01*
D15*
X350907428Y-467712341D02*
X351106239Y-467513530D01*
X351628677Y-468433590D02*
X351827488Y-468234779D01*
X317410580Y-382990316D02*
X317129420Y-382990316D01*
X317410580Y-381970316D02*
X317129420Y-381970316D01*
X274541252Y-414796986D02*
X274847399Y-414057883D01*
X274541252Y-414796986D02*
X274235105Y-415536090D01*
X271658748Y-413603014D02*
X272347578Y-411940031D01*
X271658748Y-413603014D02*
X271352601Y-414342117D01*
X316972500Y-345312742D02*
X316972500Y-345787258D01*
X315927500Y-345312742D02*
X315927500Y-345787258D01*
X295359420Y-392610000D02*
X295640580Y-392610000D01*
X295359420Y-391590000D02*
X295640580Y-391590000D01*
X358958748Y-449803014D02*
X358652601Y-450542117D01*
X358958748Y-449803014D02*
X359264895Y-449063910D01*
X361841252Y-450996986D02*
X361152422Y-452659969D01*
X361841252Y-450996986D02*
X362147399Y-450257883D01*
X315097500Y-363844758D02*
X315097500Y-363370242D01*
X316142500Y-363844758D02*
X316142500Y-363370242D01*
X296784100Y-478427136D02*
X297043858Y-478534731D01*
X297174438Y-477484779D02*
X297434196Y-477592374D01*
X348896913Y-464696913D02*
X348331228Y-465262599D01*
X348896913Y-464696913D02*
X349462599Y-464131228D01*
X351103087Y-466903087D02*
X349830294Y-468175879D01*
X351103087Y-466903087D02*
X351668772Y-466337401D01*
X319310000Y-349709420D02*
X319310000Y-349990580D01*
X318290000Y-349709420D02*
X318290000Y-349990580D01*
X326850242Y-395927500D02*
X327324758Y-395927500D01*
X326850242Y-396972500D02*
X327324758Y-396972500D01*
X325390000Y-393750000D02*
X325390000Y-394400000D01*
X325390000Y-393750000D02*
X325390000Y-393100000D01*
X328510000Y-393750000D02*
X328510000Y-395425000D01*
X328510000Y-393750000D02*
X328510000Y-393100000D01*
X289540580Y-384640000D02*
X289259420Y-384640000D01*
X289540580Y-385660000D02*
X289259420Y-385660000D01*
X324510000Y-377510000D02*
X316450000Y-377510000D01*
X324510000Y-372990000D02*
X324510000Y-377510000D01*
X316450000Y-372990000D02*
X324510000Y-372990000D01*
X282196913Y-466803087D02*
X282762599Y-467368772D01*
X282196913Y-466803087D02*
X280924121Y-465530294D01*
X284403087Y-464596913D02*
X284968772Y-465162599D01*
X284403087Y-464596913D02*
X283837401Y-464031228D01*
X358958748Y-414796986D02*
X359264895Y-415536090D01*
X358958748Y-414796986D02*
X358652601Y-414057883D01*
X361841252Y-413603014D02*
X362530082Y-415265997D01*
X361841252Y-413603014D02*
X361535105Y-412863910D01*
X298097080Y-385529010D02*
X297837322Y-385636605D01*
X298487418Y-386471367D02*
X298227660Y-386578962D01*
X271658748Y-450996986D02*
X271964895Y-451736090D01*
X271658748Y-450996986D02*
X270969918Y-449334003D01*
X274541252Y-449803014D02*
X274847399Y-450542117D01*
X274541252Y-449803014D02*
X274235105Y-449063910D01*
X312060000Y-363748080D02*
X312060000Y-363466920D01*
X313080000Y-363748080D02*
X313080000Y-363466920D01*
X309697500Y-359169758D02*
X309697500Y-358695242D01*
X310742500Y-359169758D02*
X310742500Y-358695242D01*
D18*
X296405721Y-380312762D02*
X288192432Y-383714818D01*
X294461690Y-375619454D02*
X296405721Y-380312762D01*
X286248400Y-379021510D02*
X288192432Y-383714818D01*
X294461690Y-375619454D02*
G75*
G03*
X286248400Y-379021510I-4106645J-1701028D01*
G01*
D17*
X296145956Y-377993928D02*
G75*
G03*
X296145956Y-377993928I-100000J0D01*
G01*
D15*
X298003014Y-387158748D02*
X297263910Y-387464895D01*
X298003014Y-387158748D02*
X299665997Y-386469918D01*
X299196986Y-390041252D02*
X298457883Y-390347399D01*
X299196986Y-390041252D02*
X299936090Y-389735105D01*
X334912582Y-478028632D02*
X335172340Y-477921037D01*
X335302920Y-478970989D02*
X335562678Y-478863394D01*
X323435000Y-392100000D02*
X323435000Y-389900000D01*
X323435000Y-392100000D02*
X323435000Y-394300000D01*
X315365000Y-392100000D02*
X315365000Y-388500000D01*
X315365000Y-392100000D02*
X315365000Y-394300000D01*
X349096913Y-399903087D02*
X349662599Y-400468772D01*
X349096913Y-399903087D02*
X348531228Y-399337401D01*
X351303087Y-397696913D02*
X352575879Y-398969706D01*
X351303087Y-397696913D02*
X350737401Y-397131228D01*
X293210000Y-389700000D02*
X293210000Y-387750000D01*
X293210000Y-389700000D02*
X293210000Y-391650000D01*
X288090000Y-389700000D02*
X288090000Y-386250000D01*
X288090000Y-389700000D02*
X288090000Y-391650000D01*
X312290000Y-349252500D02*
X312290000Y-349727500D01*
X312765000Y-349252500D02*
X312290000Y-349252500D01*
X312765000Y-354472500D02*
X312290000Y-354472500D01*
X317035000Y-349252500D02*
X317510000Y-349252500D01*
X317035000Y-354472500D02*
X317510000Y-354472500D01*
X317510000Y-349252500D02*
X317510000Y-349727500D01*
X317510000Y-354472500D02*
X317510000Y-353997500D01*
X280655234Y-467339854D02*
X280854045Y-467538665D01*
X281376483Y-466618605D02*
X281575294Y-466817416D01*
X325660000Y-381990580D02*
X325660000Y-381709420D01*
X324640000Y-381990580D02*
X324640000Y-381709420D01*
X271060000Y-432300000D02*
X271060000Y-431500000D01*
X271060000Y-432300000D02*
X271060000Y-433100000D01*
X267940000Y-432300000D02*
X267940000Y-430500000D01*
X267940000Y-432300000D02*
X267940000Y-433100000D01*
X271515221Y-412774437D02*
X271407626Y-413034195D01*
X270572864Y-412384099D02*
X270465269Y-412643857D01*
X270029011Y-450902921D02*
X270136606Y-451162679D01*
X270971368Y-450512583D02*
X271078963Y-450772341D01*
X361984779Y-451825562D02*
X362092374Y-451565804D01*
X362927136Y-452215900D02*
X363034731Y-451956142D01*
X316700000Y-481060000D02*
X317500000Y-481060000D01*
X316700000Y-481060000D02*
X314900000Y-481060000D01*
X316700000Y-477940000D02*
X317500000Y-477940000D01*
X316700000Y-477940000D02*
X315900000Y-477940000D01*
X328388748Y-379160000D02*
X328911252Y-379160000D01*
X328388748Y-376940000D02*
X328911252Y-376940000D01*
X282381395Y-396976482D02*
X282182584Y-397175293D01*
X281660146Y-396255233D02*
X281461335Y-396454044D01*
X315472500Y-345787258D02*
X315472500Y-345312742D01*
X314427500Y-345787258D02*
X314427500Y-345312742D01*
X331027500Y-380812742D02*
X331027500Y-381287258D01*
X332072500Y-380812742D02*
X332072500Y-381287258D01*
X332209420Y-379260000D02*
X332490580Y-379260000D01*
X332209420Y-378240000D02*
X332490580Y-378240000D01*
X336225562Y-387015221D02*
X335965804Y-386907626D01*
X336615900Y-386072864D02*
X336356142Y-385965269D01*
X363470989Y-413697080D02*
X363363394Y-413437322D01*
X362528632Y-414087418D02*
X362421037Y-413827660D01*
X313179420Y-360822500D02*
X313460580Y-360822500D01*
X313179420Y-361842500D02*
X313460580Y-361842500D01*
X316785000Y-359219758D02*
X316785000Y-358745242D01*
X317830000Y-359219758D02*
X317830000Y-358745242D01*
X334203014Y-390041252D02*
X334942117Y-390347399D01*
X334203014Y-390041252D02*
X333463910Y-389735105D01*
X335396986Y-387158748D02*
X337059969Y-387847578D01*
X335396986Y-387158748D02*
X334657883Y-386852601D01*
X312040580Y-356272500D02*
X311759420Y-356272500D01*
X312040580Y-355252500D02*
X311759420Y-355252500D01*
X367029684Y-433010580D02*
X367029684Y-432729420D01*
X366009684Y-433010580D02*
X366009684Y-432729420D01*
X333660000Y-381190580D02*
X333660000Y-380909420D01*
X332640000Y-381190580D02*
X332640000Y-380909420D01*
X298003014Y-477341252D02*
X298742117Y-477647399D01*
X298003014Y-477341252D02*
X296340031Y-476652422D01*
X299196986Y-474458748D02*
X299936090Y-474764895D01*
X299196986Y-474458748D02*
X298457883Y-474152601D01*
X352844766Y-397160146D02*
X352645955Y-396961335D01*
X352123517Y-397881395D02*
X351924706Y-397682584D01*
X315887742Y-386977500D02*
X316362258Y-386977500D01*
X315887742Y-388022500D02*
X316362258Y-388022500D01*
X284403087Y-400003087D02*
X284968772Y-399437401D01*
X284403087Y-400003087D02*
X283837401Y-400568772D01*
X282196913Y-397796913D02*
X283469706Y-396524121D01*
X282196913Y-397796913D02*
X281631228Y-398362599D01*
X298050000Y-396060000D02*
X293840000Y-396060000D01*
X293840000Y-396060000D02*
X293840000Y-393040000D01*
X293840000Y-393040000D02*
X298050000Y-393040000D01*
X316700000Y-383440000D02*
X315900000Y-383440000D01*
X316700000Y-383440000D02*
X318500000Y-383440000D01*
X316700000Y-386560000D02*
X315900000Y-386560000D01*
X316700000Y-386560000D02*
X317500000Y-386560000D01*
X315215000Y-359219758D02*
X315215000Y-358745242D01*
X316260000Y-359219758D02*
X316260000Y-358745242D01*
X362440000Y-432300000D02*
X362440000Y-433100000D01*
X362440000Y-432300000D02*
X362440000Y-431500000D01*
X365560000Y-432300000D02*
X365560000Y-434100000D01*
X365560000Y-432300000D02*
X365560000Y-431500000D01*
X315989420Y-482529684D02*
X316270580Y-482529684D01*
X315989420Y-481509684D02*
X316270580Y-481509684D01*
X314860000Y-389609420D02*
X314860000Y-389890580D01*
X313840000Y-389609420D02*
X313840000Y-389890580D01*
%LPC*%
D19*
X329920000Y-381005000D02*
X330420000Y-381005000D01*
X330420000Y-381395000D01*
X329920000Y-381395000D01*
X329920000Y-381505000D01*
X330420000Y-381505000D01*
X330420000Y-381895000D01*
X329920000Y-381895000D01*
X329920000Y-382345000D01*
X327380000Y-382345000D01*
X327380000Y-381895000D01*
X326880000Y-381895000D01*
X326880000Y-381505000D01*
X327380000Y-381505000D01*
X327380000Y-381395000D01*
X326880000Y-381395000D01*
X326880000Y-381005000D01*
X327380000Y-381005000D01*
X327380000Y-380555000D01*
X329920000Y-380555000D01*
X329920000Y-381005000D01*
G36*
X329920000Y-381005000D02*
G01*
X330420000Y-381005000D01*
X330420000Y-381395000D01*
X329920000Y-381395000D01*
X329920000Y-381505000D01*
X330420000Y-381505000D01*
X330420000Y-381895000D01*
X329920000Y-381895000D01*
X329920000Y-382345000D01*
X327380000Y-382345000D01*
X327380000Y-381895000D01*
X326880000Y-381895000D01*
X326880000Y-381505000D01*
X327380000Y-381505000D01*
X327380000Y-381395000D01*
X326880000Y-381395000D01*
X326880000Y-381005000D01*
X327380000Y-381005000D01*
X327380000Y-380555000D01*
X329920000Y-380555000D01*
X329920000Y-381005000D01*
G37*
X327840000Y-383220000D02*
X327460000Y-383220000D01*
X327460000Y-382480000D01*
X327840000Y-382480000D01*
X327840000Y-383220000D01*
G36*
X327840000Y-383220000D02*
G01*
X327460000Y-383220000D01*
X327460000Y-382480000D01*
X327840000Y-382480000D01*
X327840000Y-383220000D01*
G37*
X328340000Y-383220000D02*
X327960000Y-383220000D01*
X327960000Y-382480000D01*
X328340000Y-382480000D01*
X328340000Y-383220000D01*
G36*
X328340000Y-383220000D02*
G01*
X327960000Y-383220000D01*
X327960000Y-382480000D01*
X328340000Y-382480000D01*
X328340000Y-383220000D01*
G37*
X328840000Y-383220000D02*
X328460000Y-383220000D01*
X328460000Y-382480000D01*
X328840000Y-382480000D01*
X328840000Y-383220000D01*
G36*
X328840000Y-383220000D02*
G01*
X328460000Y-383220000D01*
X328460000Y-382480000D01*
X328840000Y-382480000D01*
X328840000Y-383220000D01*
G37*
X329340000Y-383220000D02*
X328960000Y-383220000D01*
X328960000Y-382480000D01*
X329340000Y-382480000D01*
X329340000Y-383220000D01*
G36*
X329340000Y-383220000D02*
G01*
X328960000Y-383220000D01*
X328960000Y-382480000D01*
X329340000Y-382480000D01*
X329340000Y-383220000D01*
G37*
X329840000Y-383220000D02*
X329460000Y-383220000D01*
X329460000Y-382480000D01*
X329840000Y-382480000D01*
X329840000Y-383220000D01*
G36*
X329840000Y-383220000D02*
G01*
X329460000Y-383220000D01*
X329460000Y-382480000D01*
X329840000Y-382480000D01*
X329840000Y-383220000D01*
G37*
X327840000Y-380420000D02*
X327460000Y-380420000D01*
X327460000Y-379680000D01*
X327840000Y-379680000D01*
X327840000Y-380420000D01*
G36*
X327840000Y-380420000D02*
G01*
X327460000Y-380420000D01*
X327460000Y-379680000D01*
X327840000Y-379680000D01*
X327840000Y-380420000D01*
G37*
X328340000Y-380420000D02*
X327960000Y-380420000D01*
X327960000Y-379680000D01*
X328340000Y-379680000D01*
X328340000Y-380420000D01*
G36*
X328340000Y-380420000D02*
G01*
X327960000Y-380420000D01*
X327960000Y-379680000D01*
X328340000Y-379680000D01*
X328340000Y-380420000D01*
G37*
X328840000Y-380420000D02*
X328460000Y-380420000D01*
X328460000Y-379680000D01*
X328840000Y-379680000D01*
X328840000Y-380420000D01*
G36*
X328840000Y-380420000D02*
G01*
X328460000Y-380420000D01*
X328460000Y-379680000D01*
X328840000Y-379680000D01*
X328840000Y-380420000D01*
G37*
X329340000Y-380420000D02*
X328960000Y-380420000D01*
X328960000Y-379680000D01*
X329340000Y-379680000D01*
X329340000Y-380420000D01*
G36*
X329340000Y-380420000D02*
G01*
X328960000Y-380420000D01*
X328960000Y-379680000D01*
X329340000Y-379680000D01*
X329340000Y-380420000D01*
G37*
X329840000Y-380420000D02*
X329460000Y-380420000D01*
X329460000Y-379680000D01*
X329840000Y-379680000D01*
X329840000Y-380420000D01*
G36*
X329840000Y-380420000D02*
G01*
X329460000Y-380420000D01*
X329460000Y-379680000D01*
X329840000Y-379680000D01*
X329840000Y-380420000D01*
G37*
D20*
X316750000Y-511300000D03*
D21*
X319100000Y-248100000D03*
D22*
X273100000Y-331890000D03*
D23*
X273100000Y-329350000D03*
X273100000Y-326810000D03*
X273100000Y-324270000D03*
D24*
X342960000Y-439160000D03*
D25*
X342960000Y-425570000D03*
D26*
X345712940Y-378805450D03*
X346516575Y-376865303D03*
X339772255Y-374071714D03*
X338968620Y-376011861D03*
D27*
X344151630Y-378916409D03*
X342765811Y-378342384D03*
X339994173Y-377194334D03*
D28*
X344128417Y-377012608D03*
X341356778Y-375864557D03*
D29*
X299731920Y-261489135D03*
D30*
X302078574Y-262461151D03*
X300703936Y-259142481D03*
X303050590Y-260114497D03*
X301675952Y-256795827D03*
X304022606Y-257767843D03*
D31*
X350533346Y-260757984D03*
D32*
X349561330Y-263104638D03*
X352880000Y-261730000D03*
X351907984Y-264076654D03*
X355226654Y-262702016D03*
X354254638Y-265048670D03*
D33*
X314450000Y-395075000D03*
X314450000Y-393525000D03*
D34*
X311070000Y-364432500D03*
X311070000Y-362782500D03*
D35*
X334112636Y-477212988D03*
X333385538Y-475457617D03*
X335850913Y-475464698D03*
D36*
X315695000Y-361282500D03*
X317245000Y-361282500D03*
D34*
X314070000Y-364432500D03*
X314070000Y-362782500D03*
D37*
X312032500Y-359682500D03*
X312032500Y-357782500D03*
X313907500Y-358732500D03*
D38*
X266980316Y-430955000D03*
X266980316Y-432505000D03*
D39*
X309800000Y-392350000D03*
X302300000Y-392350000D03*
D40*
X350819450Y-468521568D03*
X351915466Y-467425552D03*
D41*
X318045000Y-382480316D03*
X316495000Y-382480316D03*
D42*
X272657617Y-412785538D03*
X274412988Y-413512636D03*
X272664698Y-415250913D03*
D43*
X316450000Y-344725000D03*
X316450000Y-346375000D03*
D36*
X296275000Y-392100000D03*
X294725000Y-392100000D03*
D44*
X360842383Y-451814462D03*
X359087012Y-451087364D03*
X360835302Y-449349087D03*
D34*
X315620000Y-364432500D03*
X315620000Y-362782500D03*
D45*
X297825155Y-478306335D03*
X296393141Y-477713175D03*
D46*
X349867417Y-467276085D03*
X348523915Y-465932583D03*
X350804334Y-464995666D03*
D38*
X318800000Y-349075000D03*
X318800000Y-350625000D03*
D47*
X326262500Y-396450000D03*
X327912500Y-396450000D03*
D48*
X327900000Y-394687500D03*
X326000000Y-394687500D03*
X326950000Y-392812500D03*
D41*
X288625000Y-385150000D03*
X290175000Y-385150000D03*
D49*
X323212500Y-375250000D03*
X316987500Y-375250000D03*
D50*
X284104334Y-466504334D03*
X283167417Y-464223915D03*
X281823915Y-465567417D03*
D51*
X361712988Y-414887364D03*
X359957617Y-415614462D03*
X359964698Y-413149087D03*
D52*
X297446363Y-386350566D03*
X298878377Y-385757406D03*
D53*
X273535302Y-451450913D03*
X273542383Y-448985538D03*
X271787012Y-449712636D03*
D33*
X312570000Y-364382500D03*
X312570000Y-362832500D03*
D34*
X310220000Y-359757500D03*
X310220000Y-358107500D03*
D54*
X293800000Y-379000000D03*
D55*
X291453346Y-379972016D03*
X289106692Y-380944032D03*
D56*
X297549087Y-389035302D03*
X300014462Y-389042383D03*
X299287364Y-387287012D03*
D57*
X334521623Y-478742593D03*
X335953637Y-478149433D03*
D58*
X315825000Y-389237500D03*
X316475000Y-389237500D03*
X317125000Y-389237500D03*
X317775000Y-389237500D03*
X318425000Y-389237500D03*
X319075000Y-389237500D03*
X319725000Y-389237500D03*
X320375000Y-389237500D03*
X321025000Y-389237500D03*
X321675000Y-389237500D03*
X322325000Y-389237500D03*
X322975000Y-389237500D03*
X322975000Y-394962500D03*
X322325000Y-394962500D03*
X321675000Y-394962500D03*
X321025000Y-394962500D03*
X320375000Y-394962500D03*
X319725000Y-394962500D03*
X319075000Y-394962500D03*
X318425000Y-394962500D03*
X317775000Y-394962500D03*
X317125000Y-394962500D03*
X316475000Y-394962500D03*
X315825000Y-394962500D03*
D59*
X351676085Y-398932583D03*
X350332583Y-400276085D03*
X349395666Y-397995666D03*
D60*
X288745000Y-387225000D03*
X290015000Y-387225000D03*
X291285000Y-387225000D03*
X292555000Y-387225000D03*
X292555000Y-392175000D03*
X291285000Y-392175000D03*
X290015000Y-392175000D03*
X288745000Y-392175000D03*
D61*
X312462500Y-353612500D03*
X312462500Y-353112500D03*
X312462500Y-352612500D03*
X312462500Y-352112500D03*
X312462500Y-351612500D03*
X312462500Y-351112500D03*
X312462500Y-350612500D03*
X312462500Y-350112500D03*
D62*
X313150000Y-349425000D03*
X313650000Y-349425000D03*
X314150000Y-349425000D03*
X314650000Y-349425000D03*
X315150000Y-349425000D03*
X315650000Y-349425000D03*
X316150000Y-349425000D03*
X316650000Y-349425000D03*
D61*
X317337500Y-350112500D03*
X317337500Y-350612500D03*
X317337500Y-351112500D03*
X317337500Y-351612500D03*
X317337500Y-352112500D03*
X317337500Y-352612500D03*
X317337500Y-353112500D03*
X317337500Y-353612500D03*
D62*
X316650000Y-354300000D03*
X316150000Y-354300000D03*
X315650000Y-354300000D03*
X315150000Y-354300000D03*
X314650000Y-354300000D03*
X314150000Y-354300000D03*
X313650000Y-354300000D03*
X313150000Y-354300000D03*
D63*
X314900000Y-351862500D03*
D64*
X281663272Y-467626643D03*
X280567256Y-466530627D03*
D33*
X325150000Y-381075000D03*
X325150000Y-382625000D03*
D65*
X268550000Y-431162500D03*
X270450000Y-431162500D03*
X269500000Y-433437500D03*
D66*
X271286825Y-411993140D03*
X270693665Y-413425154D03*
D67*
X270850567Y-451553638D03*
X270257407Y-450121624D03*
D68*
X362213175Y-452606859D03*
X362806335Y-451174845D03*
D69*
X317837500Y-479500000D03*
X315562500Y-478550000D03*
X315562500Y-480450000D03*
D70*
X329725000Y-378050000D03*
X327575000Y-378050000D03*
D71*
X282469373Y-396167255D03*
X281373357Y-397263271D03*
D34*
X314950000Y-344725000D03*
X314950000Y-346375000D03*
D43*
X331550000Y-381875000D03*
X331550000Y-380225000D03*
D36*
X333125000Y-378750000D03*
X331575000Y-378750000D03*
D72*
X337006859Y-386786825D03*
X335574845Y-386193665D03*
D73*
X362649433Y-413046363D03*
X363242593Y-414478377D03*
D36*
X312545000Y-361332500D03*
X314095000Y-361332500D03*
D34*
X317307500Y-359807500D03*
X317307500Y-358157500D03*
D74*
X336214462Y-388157617D03*
X335487364Y-389912988D03*
X333749087Y-388164698D03*
D41*
X312675000Y-355762500D03*
X311125000Y-355762500D03*
D33*
X366519684Y-432095000D03*
X366519684Y-433645000D03*
X333150000Y-380275000D03*
X333150000Y-381825000D03*
D75*
X299650913Y-476335302D03*
X297912636Y-474587012D03*
X297185538Y-476342383D03*
D76*
X351836728Y-396873357D03*
X352932744Y-397969373D03*
D47*
X315300000Y-387500000D03*
X316950000Y-387500000D03*
D77*
X283432583Y-397423915D03*
X284776085Y-398767417D03*
X282495666Y-399704334D03*
D78*
X297837500Y-394550000D03*
X294762500Y-394550000D03*
D79*
X315562500Y-385000000D03*
X317837500Y-385950000D03*
X317837500Y-384050000D03*
D34*
X315737500Y-359807500D03*
X315737500Y-358157500D03*
D80*
X364950000Y-433437500D03*
X363050000Y-433437500D03*
X364000000Y-431162500D03*
D36*
X316905000Y-482019684D03*
X315355000Y-482019684D03*
D38*
X314350000Y-388975000D03*
X314350000Y-390525000D03*
G36*
X331009983Y-347810835D02*
G01*
X331051880Y-347866749D01*
X331059718Y-347910136D01*
X331059718Y-370049398D01*
X334054982Y-370395284D01*
X334073465Y-370398857D01*
X337026328Y-371206351D01*
X337031499Y-371207886D01*
X339937985Y-372140330D01*
X339943060Y-372142080D01*
X342793651Y-373194694D01*
X342798619Y-373196651D01*
X345590349Y-374366445D01*
X345595203Y-374368603D01*
X348325028Y-375652558D01*
X348329763Y-375654909D01*
X350994771Y-377050064D01*
X350999380Y-377052603D01*
X353596526Y-378555936D01*
X353601004Y-378558656D01*
X356127304Y-380167176D01*
X356131648Y-380170072D01*
X358584114Y-381880782D01*
X358588319Y-381883848D01*
X360963975Y-383693766D01*
X360968037Y-383696998D01*
X363263846Y-385603090D01*
X363267763Y-385606483D01*
X365480750Y-387605766D01*
X365484518Y-387609315D01*
X367611710Y-389698811D01*
X367615326Y-389702514D01*
X369653723Y-391879219D01*
X369657182Y-391883072D01*
X371603752Y-394143942D01*
X371607052Y-394147941D01*
X373458829Y-396490010D01*
X373461966Y-396494152D01*
X375215988Y-398914460D01*
X375218955Y-398918742D01*
X376872165Y-401414203D01*
X376874959Y-401418620D01*
X378424400Y-403986283D01*
X378427016Y-403990832D01*
X379869703Y-406627713D01*
X379872134Y-406632389D01*
X381205074Y-409335490D01*
X381207313Y-409340288D01*
X382427481Y-412106539D01*
X382429524Y-412111452D01*
X383533976Y-414937968D01*
X383535814Y-414942990D01*
X384521525Y-417826682D01*
X384523153Y-417831805D01*
X385387145Y-420769720D01*
X385388556Y-420774934D01*
X386127841Y-423764092D01*
X386129028Y-423769387D01*
X386740606Y-426806755D01*
X386741564Y-426812118D01*
X387222448Y-429894734D01*
X387223172Y-429900154D01*
X387570372Y-433025057D01*
X387570856Y-433030518D01*
X387781368Y-436194621D01*
X387781612Y-436200109D01*
X387852446Y-439400369D01*
X387852436Y-439406247D01*
X387760027Y-443060788D01*
X387759710Y-443067056D01*
X387485475Y-446673376D01*
X387484843Y-446679605D01*
X387033244Y-450233433D01*
X387032302Y-450239602D01*
X386407803Y-453736494D01*
X386406558Y-453742581D01*
X385613621Y-457178090D01*
X385612081Y-457184077D01*
X384655166Y-460553752D01*
X384653340Y-460559623D01*
X383536910Y-463859001D01*
X383534808Y-463864741D01*
X382263326Y-467089361D01*
X382260959Y-467094960D01*
X380838866Y-470240408D01*
X380836242Y-470245853D01*
X379268031Y-473307601D01*
X379265162Y-473312884D01*
X377555251Y-476286554D01*
X377552143Y-476291668D01*
X375705038Y-479172719D01*
X375701702Y-479177657D01*
X373721840Y-481961664D01*
X373718283Y-481966421D01*
X371610117Y-484648938D01*
X371606346Y-484653507D01*
X369374364Y-487230035D01*
X369370384Y-487234414D01*
X367019034Y-489700510D01*
X367014853Y-489704691D01*
X364548602Y-492055888D01*
X364544224Y-492059867D01*
X361967524Y-494291713D01*
X361962953Y-494295484D01*
X359280317Y-496403475D01*
X359275561Y-496407032D01*
X356491381Y-498386765D01*
X356486443Y-498390100D01*
X353605249Y-500237064D01*
X353600135Y-500240171D01*
X350626345Y-501949938D01*
X350621062Y-501952807D01*
X347559169Y-503520898D01*
X347553724Y-503523521D01*
X344408178Y-504945482D01*
X344402581Y-504947849D01*
X341177830Y-506219229D01*
X341172090Y-506221330D01*
X337872623Y-507337657D01*
X337866752Y-507339483D01*
X334496975Y-508296315D01*
X334490989Y-508297854D01*
X331055418Y-509090714D01*
X331049331Y-509091959D01*
X327552384Y-509716397D01*
X327546217Y-509717339D01*
X323989234Y-510169289D01*
X323050000Y-510749998D01*
X322500000Y-511349999D01*
X322209927Y-512220218D01*
X322177099Y-512271469D01*
X321411540Y-512989180D01*
X321386109Y-513007576D01*
X320324519Y-513586625D01*
X320272116Y-513601570D01*
X316757021Y-513799604D01*
X316742972Y-513799598D01*
X313277831Y-513601590D01*
X313225527Y-513586651D01*
X312163890Y-513007576D01*
X312138459Y-512989180D01*
X311372900Y-512271469D01*
X311340072Y-512220218D01*
X311049999Y-511349999D01*
X310500000Y-510750000D01*
X309442740Y-510169360D01*
X305885774Y-509717499D01*
X305879607Y-509716558D01*
X302382629Y-509092228D01*
X302376544Y-509090983D01*
X298940979Y-508298262D01*
X298934993Y-508296723D01*
X295565227Y-507340051D01*
X295559357Y-507338226D01*
X292259875Y-506222070D01*
X292254135Y-506219969D01*
X289029401Y-504948785D01*
X289023804Y-504946419D01*
X285878241Y-503524646D01*
X285872796Y-503522023D01*
X282810902Y-501954137D01*
X282805619Y-501951268D01*
X279831844Y-500241717D01*
X279826730Y-500238611D01*
X276945516Y-498391839D01*
X276940577Y-498388503D01*
X274156413Y-496408982D01*
X274151656Y-496405425D01*
X271469011Y-494297619D01*
X271464440Y-494293848D01*
X268887750Y-492062192D01*
X268883371Y-492058213D01*
X266417111Y-489707171D01*
X266412929Y-489702989D01*
X264061589Y-487237049D01*
X264057609Y-487232671D01*
X261825612Y-484656247D01*
X261821840Y-484651676D01*
X259713691Y-481969277D01*
X259710133Y-481964520D01*
X257730256Y-479180555D01*
X257726920Y-479175616D01*
X255879821Y-476294607D01*
X255876713Y-476289493D01*
X254166807Y-473315825D01*
X254163937Y-473310541D01*
X252595710Y-470248715D01*
X252593087Y-470243269D01*
X251171014Y-467097772D01*
X251168646Y-467092174D01*
X249897157Y-463867395D01*
X249895055Y-463861654D01*
X248778618Y-460562064D01*
X248776793Y-460556193D01*
X247819883Y-457186288D01*
X247818343Y-457180301D01*
X247025404Y-453744483D01*
X247024159Y-453738396D01*
X246399660Y-450241136D01*
X246398718Y-450234968D01*
X245947119Y-446680698D01*
X245946487Y-446674469D01*
X245672252Y-443067640D01*
X245671935Y-443061373D01*
X245579526Y-439406220D01*
X245579516Y-439400370D01*
X245648923Y-436232353D01*
X245649161Y-436226921D01*
X245855459Y-433094292D01*
X245855934Y-433088885D01*
X246196213Y-429994746D01*
X246196922Y-429989379D01*
X246668282Y-426936613D01*
X246669221Y-426931301D01*
X247268758Y-423922812D01*
X247269922Y-423917566D01*
X247994739Y-420956219D01*
X247996123Y-420951052D01*
X248843310Y-418039786D01*
X248844907Y-418034707D01*
X249811569Y-415176389D01*
X249813373Y-415171409D01*
X250896628Y-412368898D01*
X250898632Y-412364023D01*
X252095544Y-409620297D01*
X252097742Y-409615535D01*
X253405444Y-406933422D01*
X253407830Y-406928779D01*
X254822790Y-404312350D01*
X254826705Y-404305624D01*
X257970579Y-399274591D01*
X257976407Y-399266076D01*
X261516278Y-394529120D01*
X261522759Y-394521157D01*
X265436127Y-390100348D01*
X265443229Y-390092964D01*
X269706851Y-386011537D01*
X269714543Y-386004759D01*
X274305235Y-382285885D01*
X274313493Y-382279745D01*
X279208001Y-378946650D01*
X279216797Y-378941184D01*
X284393042Y-376016420D01*
X284399965Y-376012791D01*
X287084318Y-374711909D01*
X287089086Y-374709721D01*
X289836082Y-373519198D01*
X289840963Y-373517205D01*
X292646489Y-372440526D01*
X292651475Y-372438734D01*
X295512295Y-371478908D01*
X295518079Y-371477123D01*
X298491590Y-370638522D01*
X298508664Y-370634981D01*
X301426376Y-370241220D01*
X301426377Y-370241219D01*
X301426377Y-348474985D01*
X301446062Y-348407946D01*
X301462695Y-348387304D01*
X301616047Y-348233951D01*
X301677371Y-348200466D01*
X301747062Y-348205450D01*
X301787519Y-348230225D01*
X304099999Y-350349999D01*
X307450000Y-352549999D01*
X311799999Y-354300000D01*
X315245905Y-354549703D01*
X315254103Y-354549753D01*
X317748278Y-354400103D01*
X317751701Y-354399803D01*
X320350001Y-354099999D01*
X322750001Y-353399999D01*
X325746419Y-351951730D01*
X325753324Y-351947828D01*
X328197068Y-350351914D01*
X328202701Y-350347764D01*
X329646757Y-349152683D01*
X329652850Y-349146902D01*
X330800000Y-347900000D01*
X330826859Y-347850759D01*
X330876241Y-347801331D01*
X330944507Y-347786448D01*
X331009983Y-347810835D01*
G37*
%LPD*%
M02*
