%TF.GenerationSoftware,KiCad,Pcbnew,7.0.2*%
%TF.CreationDate,2023-05-26T22:51:46-07:00*%
%TF.ProjectId,plumbus-bfb,706c756d-6275-4732-9d62-66622e6b6963,rev?*%
%TF.SameCoordinates,Original*%
%TF.FileFunction,Paste,Bot*%
%TF.FilePolarity,Positive*%
%FSLAX46Y46*%
G04 Gerber Fmt 4.6, Leading zero omitted, Abs format (unit mm)*
G04 Created by KiCad (PCBNEW 7.0.2) date 2023-05-26 22:51:46*
%MOMM*%
%LPD*%
G01*
G04 APERTURE LIST*
G04 Aperture macros list*
%AMRoundRect*
0 Rectangle with rounded corners*
0 $1 Rounding radius*
0 $2 $3 $4 $5 $6 $7 $8 $9 X,Y pos of 4 corners*
0 Add a 4 corners polygon primitive as box body*
4,1,4,$2,$3,$4,$5,$6,$7,$8,$9,$2,$3,0*
0 Add four circle primitives for the rounded corners*
1,1,$1+$1,$2,$3*
1,1,$1+$1,$4,$5*
1,1,$1+$1,$6,$7*
1,1,$1+$1,$8,$9*
0 Add four rect primitives between the rounded corners*
20,1,$1+$1,$2,$3,$4,$5,0*
20,1,$1+$1,$4,$5,$6,$7,0*
20,1,$1+$1,$6,$7,$8,$9,0*
20,1,$1+$1,$8,$9,$2,$3,0*%
%AMRotRect*
0 Rectangle, with rotation*
0 The origin of the aperture is its center*
0 $1 length*
0 $2 width*
0 $3 Rotation angle, in degrees counterclockwise*
0 Add horizontal line*
21,1,$1,$2,0,0,$3*%
G04 Aperture macros list end*
%ADD10C,0.010000*%
%ADD11RotRect,0.800000X1.000000X247.500000*%
%ADD12RotRect,0.700000X1.500000X337.500000*%
%ADD13RoundRect,0.007200X-0.112800X0.292800X-0.112800X-0.292800X0.112800X-0.292800X0.112800X0.292800X0*%
%ADD14RoundRect,0.225000X0.250000X-0.225000X0.250000X0.225000X-0.250000X0.225000X-0.250000X-0.225000X0*%
%ADD15RoundRect,0.200000X0.275000X-0.200000X0.275000X0.200000X-0.275000X0.200000X-0.275000X-0.200000X0*%
%ADD16RoundRect,0.150000X-0.416086X-0.334707X0.530891X0.057543X0.416086X0.334707X-0.530891X-0.057543X0*%
%ADD17RoundRect,0.225000X-0.225000X-0.250000X0.225000X-0.250000X0.225000X0.250000X-0.225000X0.250000X0*%
%ADD18RoundRect,0.150000X-0.587500X-0.150000X0.587500X-0.150000X0.587500X0.150000X-0.587500X0.150000X0*%
%ADD19RoundRect,0.225000X-0.250000X0.225000X-0.250000X-0.225000X0.250000X-0.225000X0.250000X0.225000X0*%
%ADD20R,1.900000X1.400000*%
%ADD21RoundRect,0.225000X0.017678X-0.335876X0.335876X-0.017678X-0.017678X0.335876X-0.335876X0.017678X0*%
%ADD22RoundRect,0.225000X0.225000X0.250000X-0.225000X0.250000X-0.225000X-0.250000X0.225000X-0.250000X0*%
%ADD23RoundRect,0.150000X0.057543X0.530891X-0.334707X-0.416086X-0.057543X-0.530891X0.334707X0.416086X0*%
%ADD24RoundRect,0.200000X-0.275000X0.200000X-0.275000X-0.200000X0.275000X-0.200000X0.275000X0.200000X0*%
%ADD25RoundRect,0.150000X-0.057543X-0.530891X0.334707X0.416086X0.057543X0.530891X-0.334707X-0.416086X0*%
%ADD26RoundRect,0.225000X-0.303544X-0.144866X0.112202X-0.317074X0.303544X0.144866X-0.112202X0.317074X0*%
%ADD27RoundRect,0.150000X-0.256326X-0.468458X0.468458X0.256326X0.256326X0.468458X-0.468458X-0.256326X0*%
%ADD28RoundRect,0.200000X-0.200000X-0.275000X0.200000X-0.275000X0.200000X0.275000X-0.200000X0.275000X0*%
%ADD29RoundRect,0.150000X0.150000X-0.587500X0.150000X0.587500X-0.150000X0.587500X-0.150000X-0.587500X0*%
%ADD30RoundRect,0.250000X0.787500X1.025000X-0.787500X1.025000X-0.787500X-1.025000X0.787500X-1.025000X0*%
%ADD31RoundRect,0.150000X-0.468458X0.256326X0.256326X-0.468458X0.468458X-0.256326X-0.256326X0.468458X0*%
%ADD32RoundRect,0.150000X0.334707X-0.416086X-0.057543X0.530891X-0.334707X0.416086X0.057543X-0.530891X0*%
%ADD33RoundRect,0.225000X0.112202X0.317074X-0.303544X0.144866X-0.112202X-0.317074X0.303544X-0.144866X0*%
%ADD34RoundRect,0.150000X-0.334707X0.416086X0.057543X-0.530891X0.334707X-0.416086X-0.057543X0.530891X0*%
%ADD35RoundRect,0.150000X0.416086X0.334707X-0.530891X-0.057543X-0.416086X-0.334707X0.530891X0.057543X0*%
%ADD36RoundRect,0.225000X-0.112202X-0.317074X0.303544X-0.144866X0.112202X0.317074X-0.303544X0.144866X0*%
%ADD37RoundRect,0.100000X-0.100000X0.637500X-0.100000X-0.637500X0.100000X-0.637500X0.100000X0.637500X0*%
%ADD38RoundRect,0.150000X0.468458X-0.256326X-0.256326X0.468458X-0.468458X0.256326X0.256326X-0.468458X0*%
%ADD39RoundRect,0.150000X-0.150000X0.825000X-0.150000X-0.825000X0.150000X-0.825000X0.150000X0.825000X0*%
%ADD40RoundRect,0.207500X-0.207500X-0.207500X0.207500X-0.207500X0.207500X0.207500X-0.207500X0.207500X0*%
%ADD41RoundRect,0.062500X-0.375000X-0.062500X0.375000X-0.062500X0.375000X0.062500X-0.375000X0.062500X0*%
%ADD42RoundRect,0.062500X-0.062500X-0.375000X0.062500X-0.375000X0.062500X0.375000X-0.062500X0.375000X0*%
%ADD43RoundRect,0.225000X-0.335876X-0.017678X-0.017678X-0.335876X0.335876X0.017678X0.017678X0.335876X0*%
%ADD44RoundRect,0.150000X-0.150000X0.512500X-0.150000X-0.512500X0.150000X-0.512500X0.150000X0.512500X0*%
%ADD45RoundRect,0.225000X-0.144866X0.303544X-0.317074X-0.112202X0.144866X-0.303544X0.317074X0.112202X0*%
%ADD46RoundRect,0.225000X-0.317074X0.112202X-0.144866X-0.303544X0.317074X-0.112202X0.144866X0.303544X0*%
%ADD47RoundRect,0.225000X0.144866X-0.303544X0.317074X0.112202X-0.144866X0.303544X-0.317074X-0.112202X0*%
%ADD48RoundRect,0.150000X-0.512500X-0.150000X0.512500X-0.150000X0.512500X0.150000X-0.512500X0.150000X0*%
%ADD49RoundRect,0.250000X-0.375000X-0.850000X0.375000X-0.850000X0.375000X0.850000X-0.375000X0.850000X0*%
%ADD50RoundRect,0.225000X-0.017678X0.335876X-0.335876X0.017678X0.017678X-0.335876X0.335876X-0.017678X0*%
%ADD51RoundRect,0.225000X0.303544X0.144866X-0.112202X0.317074X-0.303544X-0.144866X0.112202X-0.317074X0*%
%ADD52RoundRect,0.225000X0.317074X-0.112202X0.144866X0.303544X-0.317074X0.112202X-0.144866X-0.303544X0*%
%ADD53RoundRect,0.150000X0.530891X-0.057543X-0.416086X0.334707X-0.530891X0.057543X0.416086X-0.334707X0*%
%ADD54RoundRect,0.150000X-0.530891X0.057543X0.416086X-0.334707X0.530891X-0.057543X-0.416086X0.334707X0*%
%ADD55RoundRect,0.225000X0.335876X0.017678X0.017678X0.335876X-0.335876X-0.017678X-0.017678X-0.335876X0*%
%ADD56RoundRect,0.150000X0.256326X0.468458X-0.468458X-0.256326X-0.256326X-0.468458X0.468458X0.256326X0*%
%ADD57RoundRect,0.250000X-0.412500X-0.925000X0.412500X-0.925000X0.412500X0.925000X-0.412500X0.925000X0*%
%ADD58RoundRect,0.150000X0.512500X0.150000X-0.512500X0.150000X-0.512500X-0.150000X0.512500X-0.150000X0*%
%ADD59RoundRect,0.150000X0.150000X-0.512500X0.150000X0.512500X-0.150000X0.512500X-0.150000X-0.512500X0*%
G04 APERTURE END LIST*
%TO.C,U4*%
D10*
X327290000Y-381825000D02*
X326950000Y-381825000D01*
X326950000Y-381575000D01*
X327290000Y-381575000D01*
X327290000Y-381825000D01*
G36*
X327290000Y-381825000D02*
G01*
X326950000Y-381825000D01*
X326950000Y-381575000D01*
X327290000Y-381575000D01*
X327290000Y-381825000D01*
G37*
X330350000Y-381825000D02*
X330010000Y-381825000D01*
X330010000Y-381575000D01*
X330350000Y-381575000D01*
X330350000Y-381825000D01*
G36*
X330350000Y-381825000D02*
G01*
X330010000Y-381825000D01*
X330010000Y-381575000D01*
X330350000Y-381575000D01*
X330350000Y-381825000D01*
G37*
X327290000Y-381325000D02*
X326950000Y-381325000D01*
X326950000Y-381075000D01*
X327290000Y-381075000D01*
X327290000Y-381325000D01*
G36*
X327290000Y-381325000D02*
G01*
X326950000Y-381325000D01*
X326950000Y-381075000D01*
X327290000Y-381075000D01*
X327290000Y-381325000D01*
G37*
X330350000Y-381325000D02*
X330010000Y-381325000D01*
X330010000Y-381075000D01*
X330350000Y-381075000D01*
X330350000Y-381325000D01*
G36*
X330350000Y-381325000D02*
G01*
X330010000Y-381325000D01*
X330010000Y-381075000D01*
X330350000Y-381075000D01*
X330350000Y-381325000D01*
G37*
X328550000Y-382200000D02*
X327490000Y-382200000D01*
X327490000Y-380700000D01*
X328550000Y-380700000D01*
X328550000Y-382200000D01*
G36*
X328550000Y-382200000D02*
G01*
X327490000Y-382200000D01*
X327490000Y-380700000D01*
X328550000Y-380700000D01*
X328550000Y-382200000D01*
G37*
X329810000Y-382200000D02*
X328750000Y-382200000D01*
X328750000Y-380700000D01*
X329810000Y-380700000D01*
X329810000Y-382200000D01*
G36*
X329810000Y-382200000D02*
G01*
X328750000Y-382200000D01*
X328750000Y-380700000D01*
X329810000Y-380700000D01*
X329810000Y-382200000D01*
G37*
%TD*%
D11*
%TO.C,O\u005CI*%
X345712940Y-378805450D03*
X346516575Y-376865303D03*
X339772255Y-374071714D03*
X338968620Y-376011861D03*
D12*
X344151630Y-378916409D03*
X342765811Y-378342384D03*
X339994173Y-377194334D03*
%TD*%
D13*
%TO.C,U4*%
X327650000Y-382850000D03*
X328150000Y-382850000D03*
X328650000Y-382850000D03*
X329150000Y-382850000D03*
X329650000Y-382850000D03*
X329650000Y-380050000D03*
X329150000Y-380050000D03*
X328650000Y-380050000D03*
X328150000Y-380050000D03*
X327650000Y-380050000D03*
%TD*%
D14*
%TO.C,C8*%
X314450000Y-395075000D03*
X314450000Y-393525000D03*
%TD*%
D15*
%TO.C,R9*%
X311070000Y-364432500D03*
X311070000Y-362782500D03*
%TD*%
D16*
%TO.C,U12*%
X334112636Y-477212988D03*
X333385538Y-475457617D03*
X335850913Y-475464698D03*
%TD*%
D17*
%TO.C,C12*%
X315695000Y-361282500D03*
X317245000Y-361282500D03*
%TD*%
D15*
%TO.C,R8*%
X314070000Y-364432500D03*
X314070000Y-362782500D03*
%TD*%
D18*
%TO.C,Q2*%
X312032500Y-359682500D03*
X312032500Y-357782500D03*
X313907500Y-358732500D03*
%TD*%
D19*
%TO.C,C27*%
X266980316Y-430955000D03*
X266980316Y-432505000D03*
%TD*%
D20*
%TO.C,Reset*%
X309800000Y-392350000D03*
X302300000Y-392350000D03*
%TD*%
D21*
%TO.C,C21*%
X350819450Y-468521568D03*
X351915466Y-467425552D03*
%TD*%
D22*
%TO.C,C15*%
X318045000Y-382480316D03*
X316495000Y-382480316D03*
%TD*%
D23*
%TO.C,U18*%
X272657617Y-412785538D03*
X274412988Y-413512636D03*
X272664698Y-415250913D03*
%TD*%
D24*
%TO.C,R14*%
X316450000Y-344725000D03*
X316450000Y-346375000D03*
%TD*%
D17*
%TO.C,C3*%
X296275000Y-392100000D03*
X294725000Y-392100000D03*
%TD*%
D25*
%TO.C,U10*%
X360842383Y-451814462D03*
X359087012Y-451087364D03*
X360835302Y-449349087D03*
%TD*%
D15*
%TO.C,R7*%
X315620000Y-364432500D03*
X315620000Y-362782500D03*
%TD*%
D26*
%TO.C,C24*%
X297825155Y-478306335D03*
X296393141Y-477713175D03*
%TD*%
D27*
%TO.C,U11*%
X349867417Y-467276085D03*
X348523915Y-465932583D03*
X350804334Y-464995666D03*
%TD*%
D19*
%TO.C,C7*%
X318800000Y-349075000D03*
X318800000Y-350625000D03*
%TD*%
D28*
%TO.C,R6*%
X326262500Y-396450000D03*
X327912500Y-396450000D03*
%TD*%
D29*
%TO.C,Q1*%
X327900000Y-394687500D03*
X326000000Y-394687500D03*
X326950000Y-392812500D03*
%TD*%
D22*
%TO.C,C11*%
X288625000Y-385150000D03*
X290175000Y-385150000D03*
%TD*%
D30*
%TO.C,C5*%
X323212500Y-375250000D03*
X316987500Y-375250000D03*
%TD*%
D31*
%TO.C,U15*%
X284104334Y-466504334D03*
X283167417Y-464223915D03*
X281823915Y-465567417D03*
%TD*%
D32*
%TO.C,U8*%
X361712988Y-414887364D03*
X359957617Y-415614462D03*
X359964698Y-413149087D03*
%TD*%
D33*
%TO.C,C30*%
X297446363Y-386350566D03*
X298878377Y-385757406D03*
%TD*%
D34*
%TO.C,U16*%
X273535302Y-451450913D03*
X273542383Y-448985538D03*
X271787012Y-449712636D03*
%TD*%
D14*
%TO.C,C14*%
X312570000Y-364382500D03*
X312570000Y-362832500D03*
%TD*%
D15*
%TO.C,R10*%
X310220000Y-359757500D03*
X310220000Y-358107500D03*
%TD*%
D35*
%TO.C,U20*%
X297549087Y-389035302D03*
X300014462Y-389042383D03*
X299287364Y-387287012D03*
%TD*%
D36*
%TO.C,C22*%
X334521623Y-478742593D03*
X335953637Y-478149433D03*
%TD*%
D37*
%TO.C,U2*%
X315825000Y-389237500D03*
X316475000Y-389237500D03*
X317125000Y-389237500D03*
X317775000Y-389237500D03*
X318425000Y-389237500D03*
X319075000Y-389237500D03*
X319725000Y-389237500D03*
X320375000Y-389237500D03*
X321025000Y-389237500D03*
X321675000Y-389237500D03*
X322325000Y-389237500D03*
X322975000Y-389237500D03*
X322975000Y-394962500D03*
X322325000Y-394962500D03*
X321675000Y-394962500D03*
X321025000Y-394962500D03*
X320375000Y-394962500D03*
X319725000Y-394962500D03*
X319075000Y-394962500D03*
X318425000Y-394962500D03*
X317775000Y-394962500D03*
X317125000Y-394962500D03*
X316475000Y-394962500D03*
X315825000Y-394962500D03*
%TD*%
D38*
%TO.C,U7*%
X351676085Y-398932583D03*
X350332583Y-400276085D03*
X349395666Y-397995666D03*
%TD*%
D39*
%TO.C,U3*%
X288745000Y-387225000D03*
X290015000Y-387225000D03*
X291285000Y-387225000D03*
X292555000Y-387225000D03*
X292555000Y-392175000D03*
X291285000Y-392175000D03*
X290015000Y-392175000D03*
X288745000Y-392175000D03*
%TD*%
D40*
%TO.C,U1*%
X313870000Y-350832500D03*
X313870000Y-351862500D03*
X313870000Y-352892500D03*
X314900000Y-350832500D03*
X314900000Y-351862500D03*
X314900000Y-352892500D03*
X315930000Y-350832500D03*
X315930000Y-351862500D03*
X315930000Y-352892500D03*
D41*
X312462500Y-353612500D03*
X312462500Y-353112500D03*
X312462500Y-352612500D03*
X312462500Y-352112500D03*
X312462500Y-351612500D03*
X312462500Y-351112500D03*
X312462500Y-350612500D03*
X312462500Y-350112500D03*
D42*
X313150000Y-349425000D03*
X313650000Y-349425000D03*
X314150000Y-349425000D03*
X314650000Y-349425000D03*
X315150000Y-349425000D03*
X315650000Y-349425000D03*
X316150000Y-349425000D03*
X316650000Y-349425000D03*
D41*
X317337500Y-350112500D03*
X317337500Y-350612500D03*
X317337500Y-351112500D03*
X317337500Y-351612500D03*
X317337500Y-352112500D03*
X317337500Y-352612500D03*
X317337500Y-353112500D03*
X317337500Y-353612500D03*
D42*
X316650000Y-354300000D03*
X316150000Y-354300000D03*
X315650000Y-354300000D03*
X315150000Y-354300000D03*
X314650000Y-354300000D03*
X314150000Y-354300000D03*
X313650000Y-354300000D03*
X313150000Y-354300000D03*
%TD*%
D43*
%TO.C,C25*%
X281663272Y-467626643D03*
X280567256Y-466530627D03*
%TD*%
D14*
%TO.C,C2*%
X325150000Y-381075000D03*
X325150000Y-382625000D03*
%TD*%
D44*
%TO.C,U17*%
X268550000Y-431162500D03*
X270450000Y-431162500D03*
X269500000Y-433437500D03*
%TD*%
D45*
%TO.C,C28*%
X271286825Y-411993140D03*
X270693665Y-413425154D03*
%TD*%
D46*
%TO.C,C26*%
X270850567Y-451553638D03*
X270257407Y-450121624D03*
%TD*%
D47*
%TO.C,C20*%
X362213175Y-452606859D03*
X362806335Y-451174845D03*
%TD*%
D48*
%TO.C,U13*%
X317837500Y-479500000D03*
X315562500Y-478550000D03*
X315562500Y-480450000D03*
%TD*%
D49*
%TO.C,L1*%
X329725000Y-378050000D03*
X327575000Y-378050000D03*
%TD*%
D50*
%TO.C,C29*%
X282469373Y-396167255D03*
X281373357Y-397263271D03*
%TD*%
D15*
%TO.C,R13*%
X314950000Y-344725000D03*
X314950000Y-346375000D03*
%TD*%
D24*
%TO.C,R1*%
X331550000Y-381875000D03*
X331550000Y-380225000D03*
%TD*%
D17*
%TO.C,C1*%
X333125000Y-378750000D03*
X331575000Y-378750000D03*
%TD*%
D51*
%TO.C,C16*%
X337006859Y-386786825D03*
X335574845Y-386193665D03*
%TD*%
D52*
%TO.C,C18*%
X362649433Y-413046363D03*
X363242593Y-414478377D03*
%TD*%
D17*
%TO.C,C13*%
X312545000Y-361332500D03*
X314095000Y-361332500D03*
%TD*%
D15*
%TO.C,R11*%
X317307500Y-359807500D03*
X317307500Y-358157500D03*
%TD*%
D53*
%TO.C,U6*%
X336214462Y-388157617D03*
X335487364Y-389912988D03*
X333749087Y-388164698D03*
%TD*%
D22*
%TO.C,C9*%
X312675000Y-355762500D03*
X311125000Y-355762500D03*
%TD*%
D14*
%TO.C,C19*%
X366519684Y-432095000D03*
X366519684Y-433645000D03*
%TD*%
%TO.C,C4*%
X333150000Y-380275000D03*
X333150000Y-381825000D03*
%TD*%
D54*
%TO.C,U14*%
X299650913Y-476335302D03*
X297912636Y-474587012D03*
X297185538Y-476342383D03*
%TD*%
D55*
%TO.C,C17*%
X351836728Y-396873357D03*
X352932744Y-397969373D03*
%TD*%
D28*
%TO.C,R2*%
X315300000Y-387500000D03*
X316950000Y-387500000D03*
%TD*%
D56*
%TO.C,U19*%
X283432583Y-397423915D03*
X284776085Y-398767417D03*
X282495666Y-399704334D03*
%TD*%
D57*
%TO.C,C10*%
X297837500Y-394550000D03*
X294762500Y-394550000D03*
%TD*%
D58*
%TO.C,U5*%
X315562500Y-385000000D03*
X317837500Y-385950000D03*
X317837500Y-384050000D03*
%TD*%
D15*
%TO.C,R12*%
X315737500Y-359807500D03*
X315737500Y-358157500D03*
%TD*%
D59*
%TO.C,U9*%
X364950000Y-433437500D03*
X363050000Y-433437500D03*
X364000000Y-431162500D03*
%TD*%
D17*
%TO.C,C23*%
X316905000Y-482019684D03*
X315355000Y-482019684D03*
%TD*%
D19*
%TO.C,C6*%
X314350000Y-388975000D03*
X314350000Y-390525000D03*
%TD*%
M02*
