%TF.GenerationSoftware,KiCad,Pcbnew,7.0.2*%
%TF.CreationDate,2023-05-26T22:51:46-07:00*%
%TF.ProjectId,plumbus-bfb,706c756d-6275-4732-9d62-66622e6b6963,rev?*%
%TF.SameCoordinates,Original*%
%TF.FileFunction,Soldermask,Top*%
%TF.FilePolarity,Negative*%
%FSLAX46Y46*%
G04 Gerber Fmt 4.6, Leading zero omitted, Abs format (unit mm)*
G04 Created by KiCad (PCBNEW 7.0.2) date 2023-05-26 22:51:46*
%MOMM*%
%LPD*%
G01*
G04 APERTURE LIST*
G04 Aperture macros list*
%AMRoundRect*
0 Rectangle with rounded corners*
0 $1 Rounding radius*
0 $2 $3 $4 $5 $6 $7 $8 $9 X,Y pos of 4 corners*
0 Add a 4 corners polygon primitive as box body*
4,1,4,$2,$3,$4,$5,$6,$7,$8,$9,$2,$3,0*
0 Add four circle primitives for the rounded corners*
1,1,$1+$1,$2,$3*
1,1,$1+$1,$4,$5*
1,1,$1+$1,$6,$7*
1,1,$1+$1,$8,$9*
0 Add four rect primitives between the rounded corners*
20,1,$1+$1,$2,$3,$4,$5,0*
20,1,$1+$1,$4,$5,$6,$7,0*
20,1,$1+$1,$6,$7,$8,$9,0*
20,1,$1+$1,$8,$9,$2,$3,0*%
%AMHorizOval*
0 Thick line with rounded ends*
0 $1 width*
0 $2 $3 position (X,Y) of the first rounded end (center of the circle)*
0 $4 $5 position (X,Y) of the second rounded end (center of the circle)*
0 Add line between two ends*
20,1,$1,$2,$3,$4,$5,0*
0 Add two circle primitives to create the rounded ends*
1,1,$1,$2,$3*
1,1,$1,$4,$5*%
%AMRotRect*
0 Rectangle, with rotation*
0 The origin of the aperture is its center*
0 $1 length*
0 $2 width*
0 $3 Rotation angle, in degrees counterclockwise*
0 Add horizontal line*
21,1,$1,$2,0,0,$3*%
%AMFreePoly0*
4,1,443,-46.755527,49.305534,-45.361075,49.226516,-43.969418,49.108069,-42.581671,48.950286,-41.198944,48.753296,-39.822345,48.517254,-38.452978,48.242351,-37.091939,47.928806,-35.740317,47.576872,-34.399196,47.186828,-33.069650,46.758989,-31.752744,46.293697,-30.449533,45.791323,-29.161060,45.252272,-27.888358,44.676974,-26.632445,44.065891,-25.394329,43.419512,-24.175000,42.738354,-22.975436,42.022963,-21.796596,41.273912,
-20.639426,40.491802,-19.504853,39.677258,-18.393784,38.830934,-17.307111,37.953506,-16.245702,37.045678,-15.210410,36.108177,-14.202062,35.141754,-13.221467,34.147183,-12.269409,33.125261,-11.346653,32.076805,-10.453936,31.002657,-9.591973,29.903676,-8.761456,28.780742,-7.963049,27.634756,-7.197392,26.466634,-6.465098,25.277313,-5.766754,24.067745,-5.102918,22.838900,-4.474124,21.591761,-3.880874,20.327327,
-3.323644,19.046611,-2.802879,17.750639,-2.318998,16.440449,-1.872387,15.117090,-1.463405,13.781623,-1.092379,12.435117,-0.759606,11.078651,-0.465353,9.713311,-0.209855,8.340190,0.006683,6.960390,0.184087,5.575014,0.322216,4.185172,0.420959,2.791979,0.480236,1.396549,0.500000,0.000000,0.480236,-1.396549,0.420959,-2.791979,0.322216,-4.185172,0.184087,-5.575014,0.006683,-6.960390,
-0.209855,-8.340190,-0.465353,-9.713311,-0.759606,-11.078651,-1.092379,-12.435117,-1.463405,-13.781623,-1.872387,-15.117090,-2.318998,-16.440449,-2.802879,-17.750639,-3.323644,-19.046611,-3.880874,-20.327327,-4.474124,-21.591761,-5.102918,-22.838900,-5.766754,-24.067745,-6.465098,-25.277313,-7.197392,-26.466634,-7.963049,-27.634756,-8.761456,-28.780742,-9.591973,-29.903676,-10.453936,-31.002657,-11.346653,-32.076805,
-12.269409,-33.125261,-13.221467,-34.147183,-14.202062,-35.141754,-15.210410,-36.108177,-16.245702,-37.045678,-17.307111,-37.953506,-18.393784,-38.830934,-19.504853,-39.677258,-20.639426,-40.491802,-21.796596,-41.273912,-22.975436,-42.022963,-24.175000,-42.738354,-25.394329,-43.419512,-26.632445,-44.065891,-27.888358,-44.676974,-29.161060,-45.252272,-30.449533,-45.791323,-31.752744,-46.293697,-33.069650,-46.758989,-34.399196,-47.186828,
-35.740317,-47.576872,-37.091939,-47.928806,-38.452978,-48.242351,-39.822345,-48.517254,-41.198944,-48.753296,-42.581671,-48.950286,-43.969418,-49.108069,-45.361075,-49.226516,-46.755527,-49.305534,-48.151656,-49.345059,-49.548344,-49.345059,-50.944473,-49.305534,-52.338925,-49.226516,-53.730582,-49.108069,-55.118329,-48.950286,-56.501056,-48.753296,-57.877655,-48.517254,-59.247022,-48.242351,-60.608061,-47.928806,-61.959683,-47.576872,
-63.300804,-47.186828,-64.630350,-46.758989,-65.947256,-46.293697,-67.250467,-45.791323,-68.538940,-45.252272,-69.811642,-44.676974,-71.067555,-44.065891,-72.305671,-43.419512,-73.525000,-42.738354,-74.724564,-42.022963,-75.903404,-41.273912,-77.060574,-40.491802,-78.195147,-39.677258,-79.306216,-38.830934,-80.392889,-37.953506,-81.454298,-37.045678,-82.489590,-36.108177,-83.497938,-35.141754,-84.478533,-34.147183,-85.430591,-33.125261,
-86.353347,-32.076805,-87.246064,-31.002657,-88.108027,-29.903676,-88.938544,-28.780742,-89.736951,-27.634756,-90.502608,-26.466634,-91.234902,-25.277313,-91.933246,-24.067745,-92.597082,-22.838900,-93.225876,-21.591761,-93.819126,-20.327327,-94.376356,-19.046611,-94.897121,-17.750639,-95.381002,-16.440449,-95.827613,-15.117090,-96.236595,-13.781623,-96.607621,-12.435117,-96.940394,-11.078651,-97.234647,-9.713311,-97.490145,-8.340190,
-97.706683,-6.960390,-97.884087,-5.575014,-98.022216,-4.185172,-98.120959,-2.791979,-98.180236,-1.396549,-98.200000,0.000000,-97.205021,0.000000,-97.184938,-1.393493,-97.124706,-2.785829,-97.024374,-4.175850,-96.884027,-5.562403,-96.703780,-6.944336,-96.483784,-8.320500,-96.224220,-9.689753,-95.925306,-11.050957,-95.587288,-12.402981,-95.210449,-13.744703,-94.795100,-15.075008,-94.341587,-16.392791,-93.850286,-17.696958,
-93.321606,-18.986424,-92.755986,-20.260120,-92.153895,-21.516986,-91.515835,-22.755980,-90.842333,-23.976071,-90.133952,-25.176247,-89.391277,-26.355510,-88.614928,-27.512881,-87.805547,-28.647398,-86.963808,-29.758119,-86.090410,-30.844122,-85.186079,-31.904505,-84.251565,-32.938386,-83.287645,-33.944907,-82.295119,-34.923231,-81.274812,-35.872547,-80.227572,-36.792065,-79.154268,-37.681022,-78.055791,-38.538679,-76.933055,-39.364325,
-75.786992,-40.157272,-74.618554,-40.916863,-73.428711,-41.642467,-72.218452,-42.333480,-70.988782,-42.989329,-69.740722,-43.609469,-68.475310,-44.193385,-67.193596,-44.740592,-65.896645,-45.250635,-64.585534,-45.723091,-63.261352,-46.157567,-61.925200,-46.553702,-60.578187,-46.911168,-59.221432,-47.229667,-57.856061,-47.508935,-56.483210,-47.748740,-55.104019,-47.948882,-53.719632,-48.109196,-52.331201,-48.229548,-50.939878,-48.309838,
-49.546819,-48.350000,-48.153181,-48.350000,-46.760122,-48.309838,-45.368799,-48.229548,-43.980368,-48.109196,-42.595981,-47.948882,-41.216790,-47.748740,-39.843939,-47.508935,-38.478568,-47.229667,-37.121813,-46.911168,-35.774800,-46.553702,-34.438648,-46.157567,-33.114466,-45.723091,-31.803355,-45.250635,-30.506404,-44.740592,-29.224690,-44.193385,-27.959278,-43.609469,-26.711218,-42.989329,-25.481548,-42.333480,-24.271289,-41.642467,
-23.081446,-40.916863,-21.913008,-40.157272,-20.766945,-39.364325,-19.644209,-38.538679,-18.545732,-37.681022,-17.472428,-36.792065,-16.425188,-35.872547,-15.404881,-34.923231,-14.412355,-33.944907,-13.448435,-32.938386,-12.513921,-31.904505,-11.609590,-30.844122,-10.736192,-29.758119,-9.894453,-28.647398,-9.085072,-27.512881,-8.308723,-26.355510,-7.566048,-25.176247,-6.857667,-23.976071,-6.184165,-22.755980,-5.546105,-21.516986,
-4.944014,-20.260120,-4.378394,-18.986424,-3.849714,-17.696958,-3.358413,-16.392791,-2.904900,-15.075008,-2.489551,-13.744703,-2.112712,-12.402981,-1.774694,-11.050957,-1.475780,-9.689753,-1.216216,-8.320500,-0.996220,-6.944336,-0.815973,-5.562403,-0.675626,-4.175850,-0.575294,-2.785829,-0.515062,-1.393493,-0.494979,0.000000,-0.515062,1.393493,-0.575294,2.785829,-0.675626,4.175850,-0.815973,5.562403,
-0.996220,6.944336,-1.216216,8.320500,-1.475780,9.689753,-1.774694,11.050957,-2.112712,12.402981,-2.489551,13.744703,-2.904900,15.075008,-3.358413,16.392791,-3.849714,17.696958,-4.378394,18.986424,-4.944014,20.260120,-5.546105,21.516986,-6.184165,22.755980,-6.857667,23.976071,-7.566048,25.176247,-8.308723,26.355510,-9.085072,27.512881,-9.894453,28.647398,-10.736192,29.758119,-11.609590,30.844122,
-12.513921,31.904505,-13.448435,32.938386,-14.412355,33.944907,-15.404881,34.923231,-16.425188,35.872547,-17.472428,36.792065,-18.545732,37.681022,-19.644209,38.538679,-20.766945,39.364325,-21.913008,40.157272,-23.081446,40.916863,-24.271289,41.642467,-25.481548,42.333480,-26.711218,42.989329,-27.959278,43.609469,-29.224690,44.193385,-30.506404,44.740592,-31.803355,45.250635,-33.114466,45.723091,-34.438648,46.157567,
-35.774800,46.553702,-37.121813,46.911168,-38.478568,47.229667,-39.843939,47.508935,-41.216790,47.748740,-42.595981,47.948882,-43.980368,48.109196,-45.368799,48.229548,-46.760122,48.309838,-48.153181,48.350000,-49.546819,48.350000,-50.939878,48.309838,-52.331201,48.229548,-53.719632,48.109196,-55.104019,47.948882,-56.483210,47.748740,-57.856061,47.508935,-59.221432,47.229667,-60.578187,46.911168,-61.925200,46.553702,
-63.261352,46.157567,-64.585534,45.723091,-65.896645,45.250635,-67.193596,44.740592,-68.475310,44.193385,-69.740722,43.609469,-70.988782,42.989329,-72.218452,42.333480,-73.428711,41.642467,-74.618554,40.916863,-75.786992,40.157272,-76.933055,39.364325,-78.055791,38.538679,-79.154268,37.681022,-80.227572,36.792065,-81.274812,35.872547,-82.295119,34.923231,-83.287645,33.944907,-84.251565,32.938386,-85.186079,31.904505,
-86.090410,30.844122,-86.963808,29.758119,-87.805547,28.647398,-88.614928,27.512881,-89.391277,26.355510,-90.133952,25.176247,-90.842333,23.976071,-91.515835,22.755980,-92.153895,21.516986,-92.755986,20.260120,-93.321606,18.986424,-93.850286,17.696958,-94.341587,16.392791,-94.795100,15.075008,-95.210449,13.744703,-95.587288,12.402981,-95.925306,11.050957,-96.224220,9.689753,-96.483784,8.320500,-96.703780,6.944336,
-96.884027,5.562403,-97.024374,4.175850,-97.124706,2.785829,-97.184938,1.393493,-97.205021,0.000000,-98.200000,0.000000,-98.180236,1.396549,-98.120959,2.791979,-98.022216,4.185172,-97.884087,5.575014,-97.706683,6.960390,-97.490145,8.340190,-97.234647,9.713311,-96.940394,11.078651,-96.607621,12.435117,-96.236595,13.781623,-95.827613,15.117090,-95.381002,16.440449,-94.897121,17.750639,-94.376356,19.046611,
-93.819126,20.327327,-93.225876,21.591761,-92.597082,22.838900,-91.933246,24.067745,-91.234902,25.277313,-90.502608,26.466634,-89.736951,27.634756,-88.938544,28.780742,-88.108027,29.903676,-87.246064,31.002657,-86.353347,32.076805,-85.430591,33.125261,-84.478533,34.147183,-83.497938,35.141754,-82.489590,36.108177,-81.454298,37.045678,-80.392889,37.953506,-79.306216,38.830934,-78.195147,39.677258,-77.060574,40.491802,
-75.903404,41.273912,-74.724564,42.022963,-73.525000,42.738354,-72.305671,43.419512,-71.067555,44.065891,-69.811642,44.676974,-68.538940,45.252272,-67.250467,45.791323,-65.947256,46.293697,-64.630350,46.758989,-63.300804,47.186828,-61.959683,47.576872,-60.608061,47.928806,-59.247022,48.242351,-57.877655,48.517254,-56.501056,48.753296,-55.118329,48.950286,-53.730582,49.108069,-52.338925,49.226516,-50.944473,49.305534,
-49.548344,49.345059,-48.151656,49.345059,-46.755527,49.305534,-46.755527,49.305534,$1*%
G04 Aperture macros list end*
%ADD10O,7.000000X2.000000*%
%ADD11HorizOval,2.000000X2.478612X-0.326315X-2.478612X0.326315X0*%
%ADD12R,1.700000X1.700000*%
%ADD13O,1.700000X1.700000*%
%ADD14RotRect,0.450000X0.450000X255.000000*%
%ADD15RotRect,0.450000X0.450000X277.500000*%
%ADD16R,0.450000X0.450000*%
%ADD17RotRect,0.450000X0.450000X7.500000*%
%ADD18RotRect,0.450000X0.450000X45.000000*%
%ADD19RotRect,0.450000X0.450000X15.000000*%
%ADD20RotRect,0.450000X0.450000X225.000000*%
%ADD21RotRect,0.450000X0.450000X120.000000*%
%ADD22RotRect,0.450000X0.450000X345.000000*%
%ADD23RotRect,0.450000X0.450000X352.500000*%
%ADD24RotRect,0.450000X0.450000X75.000000*%
%ADD25RotRect,0.450000X0.450000X337.500000*%
%ADD26RotRect,0.450000X0.450000X142.500000*%
%ADD27RotRect,0.450000X0.450000X52.500000*%
%ADD28RotRect,0.450000X0.450000X97.500000*%
%ADD29RotRect,0.450000X0.450000X187.500000*%
%ADD30RotRect,0.450000X0.450000X127.500000*%
%ADD31RotRect,0.450000X0.450000X202.500000*%
%ADD32RotRect,0.450000X0.450000X67.500000*%
%ADD33RotRect,0.450000X0.450000X112.500000*%
%ADD34RotRect,0.450000X0.450000X232.500000*%
%ADD35RotRect,0.450000X0.450000X82.500000*%
%ADD36RotRect,0.450000X0.450000X150.000000*%
%ADD37RotRect,0.450000X0.450000X37.500000*%
%ADD38RotRect,0.450000X0.450000X262.500000*%
%ADD39RotRect,0.450000X0.450000X285.000000*%
%ADD40RotRect,0.450000X0.450000X30.000000*%
%ADD41RotRect,0.450000X0.450000X300.000000*%
%ADD42RotRect,0.450000X0.450000X307.500000*%
%ADD43RotRect,0.450000X0.450000X22.500000*%
%ADD44RotRect,0.450000X0.450000X330.000000*%
%ADD45RotRect,0.450000X0.450000X157.500000*%
%ADD46RotRect,0.450000X0.450000X315.000000*%
%ADD47RotRect,0.450000X0.450000X292.500000*%
%ADD48RotRect,0.450000X0.450000X210.000000*%
%ADD49RotRect,0.450000X0.450000X172.500000*%
%ADD50RotRect,0.450000X0.450000X240.000000*%
%ADD51RotRect,0.450000X0.450000X195.000000*%
%ADD52RotRect,0.450000X0.450000X165.000000*%
%ADD53RotRect,0.450000X0.450000X217.500000*%
%ADD54RotRect,0.450000X0.450000X135.000000*%
%ADD55RotRect,0.450000X0.450000X60.000000*%
%ADD56RotRect,0.450000X0.450000X322.500000*%
%ADD57RotRect,0.450000X0.450000X247.500000*%
%ADD58RotRect,0.450000X0.450000X105.000000*%
%ADD59RoundRect,0.750000X0.750000X-0.750000X0.750000X0.750000X-0.750000X0.750000X-0.750000X-0.750000X0*%
%ADD60FreePoly0,0.000000*%
%ADD61C,2.170000*%
%ADD62R,2.170000X2.170000*%
%ADD63C,0.001000*%
%ADD64R,3.000000X1.600000*%
%ADD65RotRect,1.700000X1.700000X157.500000*%
%ADD66HorizOval,1.700000X0.000000X0.000000X0.000000X0.000000X0*%
%ADD67RotRect,1.700000X1.700000X67.500000*%
%ADD68HorizOval,1.700000X0.000000X0.000000X0.000000X0.000000X0*%
%ADD69RoundRect,0.218750X0.218750X0.256250X-0.218750X0.256250X-0.218750X-0.256250X0.218750X-0.256250X0*%
%ADD70R,1.400000X1.900000*%
%ADD71RoundRect,0.200000X-0.200000X-0.275000X0.200000X-0.275000X0.200000X0.275000X-0.200000X0.275000X0*%
%ADD72RotRect,1.160000X1.160000X202.500000*%
%ADD73C,1.160000*%
G04 APERTURE END LIST*
D10*
%TO.C,REF\u002A\u002A*%
X316750000Y-511300000D03*
%TD*%
D11*
%TO.C,REF\u002A\u002A*%
X319100000Y-248100000D03*
%TD*%
D12*
%TO.C,PDI*%
X273100000Y-331890000D03*
D13*
X273100000Y-329350000D03*
X273100000Y-326810000D03*
X273100000Y-324270000D03*
%TD*%
D14*
%TO.C,U59*%
X250532372Y-420996447D03*
X250273553Y-421962372D03*
X249566447Y-420737628D03*
X249307628Y-421703553D03*
%TD*%
D15*
%TO.C,U56*%
X248580459Y-447729014D03*
X248710986Y-448720459D03*
X247589014Y-447859541D03*
X247719541Y-448850986D03*
%TD*%
D16*
%TO.C,U72*%
X325050000Y-317700000D03*
X325050000Y-318700000D03*
X324050000Y-317700000D03*
X324050000Y-318700000D03*
%TD*%
D17*
%TO.C,U44*%
X325219014Y-507419541D03*
X326210459Y-507289014D03*
X325349541Y-508410986D03*
X326340986Y-508280459D03*
%TD*%
D16*
%TO.C,U73*%
X309450000Y-300500000D03*
X308450000Y-300500000D03*
X309450000Y-299500000D03*
X308450000Y-299500000D03*
%TD*%
D18*
%TO.C,U39*%
X364962893Y-488170000D03*
X365670000Y-487462893D03*
X365670000Y-488877107D03*
X366377107Y-488170000D03*
%TD*%
D19*
%TO.C,U43*%
X334047628Y-505726447D03*
X335013553Y-505467628D03*
X334306447Y-506692372D03*
X335272372Y-506433553D03*
%TD*%
D16*
%TO.C,U74*%
X325050000Y-299500000D03*
X325050000Y-300500000D03*
X324050000Y-299500000D03*
X324050000Y-300500000D03*
%TD*%
%TO.C,U70*%
X325050000Y-335850000D03*
X325050000Y-336850000D03*
X324050000Y-335850000D03*
X324050000Y-336850000D03*
%TD*%
D20*
%TO.C,U63*%
X268527107Y-390322893D03*
X267820000Y-391030000D03*
X267820000Y-389615786D03*
X267112893Y-390322893D03*
%TD*%
D21*
%TO.C,U29*%
X376486987Y-405343013D03*
X375986987Y-404476987D03*
X377353013Y-404843013D03*
X376853013Y-403976987D03*
%TD*%
D22*
%TO.C,U47*%
X298492894Y-505475256D03*
X299458819Y-505734075D03*
X298234075Y-506441181D03*
X299200000Y-506700000D03*
%TD*%
D23*
%TO.C,U46*%
X307290000Y-507290000D03*
X308281445Y-507420527D03*
X307159473Y-508281445D03*
X308150918Y-508411972D03*
%TD*%
D24*
%TO.C,U35*%
X382977628Y-457513553D03*
X383236447Y-456547628D03*
X383943553Y-457772372D03*
X384202372Y-456806447D03*
%TD*%
D25*
%TO.C,U48*%
X290000000Y-502520000D03*
X290923879Y-502902683D03*
X289617317Y-503443879D03*
X290541196Y-503826562D03*
%TD*%
D26*
%TO.C,U26*%
X359074592Y-384902114D03*
X358281239Y-384293353D03*
X359683353Y-384108761D03*
X358890000Y-383500000D03*
%TD*%
D27*
%TO.C,U38*%
X370938943Y-481462296D03*
X371547704Y-480668943D03*
X371732296Y-482071057D03*
X372341057Y-481277704D03*
%TD*%
D28*
%TO.C,U32*%
X384909541Y-430770986D03*
X384779014Y-429779541D03*
X385900986Y-430640459D03*
X385770459Y-429649014D03*
%TD*%
D29*
%TO.C,U68*%
X308280986Y-371090459D03*
X307289541Y-371220986D03*
X308150459Y-370099014D03*
X307159014Y-370229541D03*
%TD*%
D30*
%TO.C,U28*%
X371547704Y-397831057D03*
X370938943Y-397037704D03*
X372341057Y-397222296D03*
X371732296Y-396428943D03*
%TD*%
D31*
%TO.C,U66*%
X290923281Y-375610598D03*
X289999402Y-375993281D03*
X290540598Y-374686719D03*
X289616719Y-375069402D03*
%TD*%
D32*
%TO.C,U36*%
X380016121Y-465997317D03*
X380398804Y-465073438D03*
X380940000Y-466380000D03*
X381322683Y-465456121D03*
%TD*%
D33*
%TO.C,U30*%
X380399402Y-413423281D03*
X380016719Y-412499402D03*
X381323281Y-413040598D03*
X380940598Y-412116719D03*
%TD*%
D16*
%TO.C,U33*%
X385430000Y-439750000D03*
X385430000Y-438750000D03*
X386430000Y-439750000D03*
X386430000Y-438750000D03*
%TD*%
%TO.C,U75*%
X309450000Y-282300000D03*
X308450000Y-282300000D03*
X309450000Y-281300000D03*
X308450000Y-281300000D03*
%TD*%
D34*
%TO.C,U62*%
X262570000Y-397040000D03*
X261961239Y-397833353D03*
X261776647Y-396431239D03*
X261167886Y-397224592D03*
%TD*%
D35*
%TO.C,U34*%
X384789473Y-448701445D03*
X384920000Y-447710000D03*
X385780918Y-448831972D03*
X385911445Y-447840527D03*
%TD*%
D36*
%TO.C,U25*%
X351630000Y-379836026D03*
X350763974Y-379336026D03*
X352130000Y-378970000D03*
X351263974Y-378470000D03*
%TD*%
D37*
%TO.C,U40*%
X358177886Y-494045408D03*
X358971239Y-493436647D03*
X358786647Y-494838761D03*
X359580000Y-494230000D03*
%TD*%
D38*
%TO.C,U58*%
X248721972Y-429789082D03*
X248591445Y-430780527D03*
X247730527Y-429658555D03*
X247600000Y-430650000D03*
%TD*%
D39*
%TO.C,U55*%
X250267106Y-456545256D03*
X250525925Y-457511181D03*
X249301181Y-456804075D03*
X249560000Y-457770000D03*
%TD*%
D40*
%TO.C,U41*%
X350666987Y-498986987D03*
X351533013Y-498486987D03*
X351166987Y-499853013D03*
X352033013Y-499353013D03*
%TD*%
D16*
%TO.C,U57*%
X248070000Y-438760000D03*
X248070000Y-439760000D03*
X247070000Y-438760000D03*
X247070000Y-439760000D03*
%TD*%
D41*
%TO.C,U53*%
X257023013Y-473156987D03*
X257523013Y-474023013D03*
X256156987Y-473656987D03*
X256656987Y-474523013D03*
%TD*%
D42*
%TO.C,U52*%
X261954592Y-480667886D03*
X262563353Y-481461239D03*
X261161239Y-481276647D03*
X261770000Y-482070000D03*
%TD*%
D16*
%TO.C,U45*%
X316250000Y-507940000D03*
X317250000Y-507940000D03*
X316250000Y-508940000D03*
X317250000Y-508940000D03*
%TD*%
D43*
%TO.C,U42*%
X342576719Y-502899402D03*
X343500598Y-502516719D03*
X342959402Y-503823281D03*
X343883281Y-503440598D03*
%TD*%
D16*
%TO.C,U69*%
X309450000Y-336850000D03*
X308450000Y-336850000D03*
X309450000Y-335850000D03*
X308450000Y-335850000D03*
%TD*%
%TO.C,U21*%
X317250000Y-370350000D03*
X316250000Y-370350000D03*
X317250000Y-369350000D03*
X316250000Y-369350000D03*
%TD*%
D44*
%TO.C,U49*%
X281973974Y-498483974D03*
X282840000Y-498983974D03*
X281473974Y-499350000D03*
X282340000Y-499850000D03*
%TD*%
D45*
%TO.C,U24*%
X343493879Y-375972683D03*
X342570000Y-375590000D03*
X343876562Y-375048804D03*
X342952683Y-374666121D03*
%TD*%
D46*
%TO.C,U51*%
X267820000Y-487472893D03*
X268527107Y-488180000D03*
X267112893Y-488180000D03*
X267820000Y-488887107D03*
%TD*%
D47*
%TO.C,U54*%
X253091196Y-465083438D03*
X253473879Y-466007317D03*
X252167317Y-465466121D03*
X252550000Y-466390000D03*
%TD*%
D48*
%TO.C,U65*%
X282843013Y-379513013D03*
X281976987Y-380013013D03*
X282343013Y-378646987D03*
X281476987Y-379146987D03*
%TD*%
D16*
%TO.C,U71*%
X309450000Y-318700000D03*
X308450000Y-318700000D03*
X309450000Y-317700000D03*
X308450000Y-317700000D03*
%TD*%
D49*
%TO.C,U22*%
X326210000Y-371220000D03*
X325218555Y-371089473D03*
X326340527Y-370228555D03*
X325349082Y-370098028D03*
%TD*%
D50*
%TO.C,U61*%
X257503013Y-404476987D03*
X257003013Y-405343013D03*
X256636987Y-403976987D03*
X256136987Y-404843013D03*
%TD*%
D51*
%TO.C,U67*%
X299452372Y-372773553D03*
X298486447Y-373032372D03*
X299193553Y-371807628D03*
X298227628Y-372066447D03*
%TD*%
D52*
%TO.C,U23*%
X335001181Y-373035925D03*
X334035256Y-372777106D03*
X335260000Y-372070000D03*
X334294075Y-371811181D03*
%TD*%
D16*
%TO.C,U76*%
X325050000Y-281300000D03*
X325050000Y-282300000D03*
X324050000Y-281300000D03*
X324050000Y-282300000D03*
%TD*%
D53*
%TO.C,U64*%
X275331057Y-384442296D03*
X274537704Y-385051057D03*
X274722296Y-383648943D03*
X273928943Y-384257704D03*
%TD*%
D54*
%TO.C,U27*%
X365680000Y-391027107D03*
X364972893Y-390320000D03*
X366387107Y-390320000D03*
X365680000Y-389612893D03*
%TD*%
D55*
%TO.C,U37*%
X375986987Y-474023013D03*
X376486987Y-473156987D03*
X376853013Y-474523013D03*
X377353013Y-473656987D03*
%TD*%
D56*
%TO.C,U50*%
X274548761Y-493436647D03*
X275342114Y-494045408D03*
X273940000Y-494230000D03*
X274733353Y-494838761D03*
%TD*%
D57*
%TO.C,U60*%
X253480000Y-412500000D03*
X253097317Y-413423879D03*
X252556121Y-412117317D03*
X252173438Y-413041196D03*
%TD*%
D58*
%TO.C,U31*%
X383226447Y-421962372D03*
X382967628Y-420996447D03*
X384192372Y-421703553D03*
X383933553Y-420737628D03*
%TD*%
D59*
%TO.C,S1*%
X310250000Y-424500000D03*
X310250000Y-414400000D03*
%TD*%
D60*
%TO.C,REF\u002A\u002A*%
X365500000Y-432200000D03*
%TD*%
D61*
%TO.C,BT1*%
X342960000Y-439160000D03*
D62*
X342960000Y-425570000D03*
%TD*%
D63*
%TO.C,O\u005CI*%
X344128417Y-377012608D03*
X341356778Y-375864557D03*
%TD*%
D64*
%TO.C,Button 8*%
X309130000Y-279320000D03*
X324330000Y-279320000D03*
X309130000Y-284320000D03*
X324330000Y-284320000D03*
%TD*%
%TO.C,Button 1*%
X324340000Y-338860000D03*
X309140000Y-338860000D03*
X324340000Y-333860000D03*
X309140000Y-333860000D03*
%TD*%
D65*
%TO.C,SAO 1*%
X299731920Y-261489135D03*
D66*
X302078574Y-262461151D03*
X300703936Y-259142481D03*
X303050590Y-260114497D03*
X301675952Y-256795827D03*
X304022606Y-257767843D03*
%TD*%
D64*
%TO.C,Button 2*%
X309140000Y-315680000D03*
X324340000Y-315680000D03*
X309140000Y-320680000D03*
X324340000Y-320680000D03*
%TD*%
%TO.C,Button 4*%
X309140000Y-297500000D03*
X324340000Y-297500000D03*
X309140000Y-302500000D03*
X324340000Y-302500000D03*
%TD*%
D67*
%TO.C,SAO 2*%
X350533346Y-260757984D03*
D68*
X349561330Y-263104638D03*
X352880000Y-261730000D03*
X351907984Y-264076654D03*
X355226654Y-262702016D03*
X354254638Y-265048670D03*
%TD*%
D69*
%TO.C,4*%
X327475000Y-355610000D03*
X329050000Y-355610000D03*
%TD*%
D70*
%TO.C,MODE*%
X304150000Y-354000000D03*
X304150000Y-361500000D03*
%TD*%
D71*
%TO.C,R3*%
X327437500Y-354090000D03*
X329087500Y-354090000D03*
%TD*%
D72*
%TO.C,RV1*%
X293800000Y-379000000D03*
D73*
X291453346Y-379972016D03*
X289106692Y-380944032D03*
%TD*%
D71*
%TO.C, *%
X327437500Y-357100000D03*
X329087500Y-357100000D03*
%TD*%
D69*
%TO.C,2*%
X327475000Y-358610000D03*
X329050000Y-358610000D03*
%TD*%
%TO.C,1*%
X329037500Y-361610000D03*
X327462500Y-361610000D03*
%TD*%
D71*
%TO.C,R5*%
X327425000Y-360110000D03*
X329075000Y-360110000D03*
%TD*%
G36*
X331009983Y-347669167D02*
G01*
X331051880Y-347725082D01*
X331059718Y-347768468D01*
X331059718Y-370049398D01*
X334054982Y-370395284D01*
X334073465Y-370398857D01*
X337026328Y-371206351D01*
X337031499Y-371207886D01*
X339937985Y-372140330D01*
X339943060Y-372142080D01*
X342793651Y-373194694D01*
X342798619Y-373196651D01*
X345590349Y-374366445D01*
X345595203Y-374368603D01*
X348325028Y-375652558D01*
X348329763Y-375654909D01*
X350994771Y-377050064D01*
X350999380Y-377052603D01*
X353596526Y-378555936D01*
X353601004Y-378558656D01*
X356127304Y-380167176D01*
X356131648Y-380170072D01*
X358584114Y-381880782D01*
X358588319Y-381883848D01*
X360963975Y-383693766D01*
X360968037Y-383696998D01*
X363263846Y-385603090D01*
X363267763Y-385606483D01*
X365480750Y-387605766D01*
X365484518Y-387609315D01*
X367611710Y-389698811D01*
X367615326Y-389702514D01*
X369653723Y-391879219D01*
X369657182Y-391883072D01*
X371603752Y-394143942D01*
X371607052Y-394147941D01*
X373458829Y-396490010D01*
X373461966Y-396494152D01*
X375215988Y-398914460D01*
X375218955Y-398918742D01*
X376872165Y-401414203D01*
X376874959Y-401418620D01*
X378424400Y-403986283D01*
X378427016Y-403990832D01*
X379869703Y-406627713D01*
X379872134Y-406632389D01*
X381205074Y-409335490D01*
X381207313Y-409340288D01*
X382427481Y-412106539D01*
X382429524Y-412111452D01*
X383533976Y-414937968D01*
X383535814Y-414942990D01*
X384521525Y-417826682D01*
X384523153Y-417831805D01*
X385387145Y-420769720D01*
X385388556Y-420774934D01*
X386127841Y-423764092D01*
X386129028Y-423769387D01*
X386740606Y-426806755D01*
X386741564Y-426812118D01*
X387222448Y-429894734D01*
X387223172Y-429900154D01*
X387570372Y-433025057D01*
X387570856Y-433030518D01*
X387781368Y-436194621D01*
X387781612Y-436200109D01*
X387852446Y-439400369D01*
X387852436Y-439406247D01*
X387760027Y-443060788D01*
X387759710Y-443067056D01*
X387485475Y-446673376D01*
X387484843Y-446679605D01*
X387033244Y-450233433D01*
X387032302Y-450239602D01*
X386407803Y-453736494D01*
X386406558Y-453742581D01*
X385613621Y-457178090D01*
X385612081Y-457184077D01*
X384655166Y-460553752D01*
X384653340Y-460559623D01*
X383536910Y-463859001D01*
X383534808Y-463864741D01*
X382263326Y-467089361D01*
X382260959Y-467094960D01*
X380838866Y-470240408D01*
X380836242Y-470245853D01*
X379268031Y-473307601D01*
X379265162Y-473312884D01*
X377555251Y-476286554D01*
X377552143Y-476291668D01*
X375705038Y-479172719D01*
X375701702Y-479177657D01*
X373721840Y-481961664D01*
X373718283Y-481966421D01*
X371610117Y-484648938D01*
X371606346Y-484653507D01*
X369374364Y-487230035D01*
X369370384Y-487234414D01*
X367019034Y-489700510D01*
X367014853Y-489704691D01*
X364548602Y-492055888D01*
X364544224Y-492059867D01*
X361967524Y-494291713D01*
X361962953Y-494295484D01*
X359280317Y-496403475D01*
X359275561Y-496407032D01*
X356491381Y-498386765D01*
X356486443Y-498390100D01*
X353605249Y-500237064D01*
X353600135Y-500240171D01*
X350626345Y-501949938D01*
X350621062Y-501952807D01*
X347559169Y-503520898D01*
X347553724Y-503523521D01*
X344408178Y-504945482D01*
X344402581Y-504947849D01*
X341177830Y-506219229D01*
X341172090Y-506221330D01*
X337872623Y-507337657D01*
X337866752Y-507339483D01*
X334496975Y-508296315D01*
X334490989Y-508297854D01*
X331055418Y-509090714D01*
X331049331Y-509091959D01*
X327552384Y-509716397D01*
X327546217Y-509717339D01*
X323989234Y-510169289D01*
X323050000Y-510749998D01*
X322500000Y-511349999D01*
X322209927Y-512220218D01*
X322177099Y-512271469D01*
X321411540Y-512989180D01*
X321386109Y-513007576D01*
X320324519Y-513586625D01*
X320272116Y-513601570D01*
X316757021Y-513799604D01*
X316742972Y-513799598D01*
X313277831Y-513601590D01*
X313225527Y-513586651D01*
X312163890Y-513007576D01*
X312138459Y-512989180D01*
X311372900Y-512271469D01*
X311340072Y-512220218D01*
X311049999Y-511349999D01*
X310500000Y-510750000D01*
X309442740Y-510169360D01*
X305885774Y-509717499D01*
X305879607Y-509716558D01*
X302382629Y-509092228D01*
X302376544Y-509090983D01*
X298940979Y-508298262D01*
X298934993Y-508296723D01*
X295565227Y-507340051D01*
X295559357Y-507338226D01*
X292259875Y-506222070D01*
X292254135Y-506219969D01*
X289029401Y-504948785D01*
X289023804Y-504946419D01*
X285878241Y-503524646D01*
X285872796Y-503522023D01*
X282810902Y-501954137D01*
X282805619Y-501951268D01*
X279831844Y-500241717D01*
X279826730Y-500238611D01*
X276945516Y-498391839D01*
X276940577Y-498388503D01*
X274156413Y-496408982D01*
X274151656Y-496405425D01*
X271469011Y-494297619D01*
X271464440Y-494293848D01*
X268887750Y-492062192D01*
X268883371Y-492058213D01*
X266417111Y-489707171D01*
X266412929Y-489702989D01*
X264061589Y-487237049D01*
X264057609Y-487232671D01*
X261825612Y-484656247D01*
X261821840Y-484651676D01*
X259713691Y-481969277D01*
X259710133Y-481964520D01*
X257730256Y-479180555D01*
X257726920Y-479175616D01*
X255879821Y-476294607D01*
X255876713Y-476289493D01*
X254166807Y-473315825D01*
X254163937Y-473310541D01*
X252595710Y-470248715D01*
X252593087Y-470243269D01*
X251171014Y-467097772D01*
X251168646Y-467092174D01*
X249897157Y-463867395D01*
X249895055Y-463861654D01*
X248778618Y-460562064D01*
X248776793Y-460556193D01*
X247819883Y-457186288D01*
X247818343Y-457180301D01*
X247025404Y-453744483D01*
X247024159Y-453738396D01*
X246399660Y-450241136D01*
X246398718Y-450234968D01*
X245947119Y-446680698D01*
X245946487Y-446674469D01*
X245672252Y-443067640D01*
X245671935Y-443061373D01*
X245579526Y-439406220D01*
X245579516Y-439400370D01*
X245648923Y-436232353D01*
X245649161Y-436226921D01*
X245855459Y-433094292D01*
X245855934Y-433088885D01*
X246196213Y-429994746D01*
X246196922Y-429989379D01*
X246668282Y-426936613D01*
X246669221Y-426931301D01*
X247268758Y-423922812D01*
X247269922Y-423917566D01*
X247994739Y-420956219D01*
X247996123Y-420951052D01*
X248843310Y-418039786D01*
X248844907Y-418034707D01*
X249811569Y-415176389D01*
X249813373Y-415171409D01*
X250896628Y-412368898D01*
X250898632Y-412364023D01*
X252095544Y-409620297D01*
X252097742Y-409615535D01*
X253405444Y-406933422D01*
X253407830Y-406928779D01*
X254822790Y-404312350D01*
X254826705Y-404305624D01*
X257970579Y-399274591D01*
X257976407Y-399266076D01*
X261516278Y-394529120D01*
X261522759Y-394521157D01*
X265436127Y-390100348D01*
X265443229Y-390092964D01*
X269706851Y-386011537D01*
X269714543Y-386004759D01*
X274305235Y-382285885D01*
X274313493Y-382279745D01*
X279208001Y-378946650D01*
X279216797Y-378941184D01*
X284393042Y-376016420D01*
X284399965Y-376012791D01*
X287084318Y-374711909D01*
X287089086Y-374709721D01*
X289836082Y-373519198D01*
X289840963Y-373517205D01*
X292646489Y-372440526D01*
X292651475Y-372438734D01*
X295512295Y-371478908D01*
X295518079Y-371477123D01*
X298491590Y-370638522D01*
X298508664Y-370634981D01*
X301426376Y-370241220D01*
X301426377Y-370241219D01*
X301426377Y-348374985D01*
X301446062Y-348307946D01*
X301462695Y-348287304D01*
X301566047Y-348183951D01*
X301627370Y-348150466D01*
X301697062Y-348155450D01*
X301737519Y-348180225D01*
X304049999Y-350299999D01*
X307400000Y-352499999D01*
X311749999Y-354250000D01*
X315195905Y-354499703D01*
X315204103Y-354499753D01*
X317698278Y-354350103D01*
X317701701Y-354349803D01*
X320300001Y-354049999D01*
X322700001Y-353349999D01*
X325696419Y-351901730D01*
X325703324Y-351897828D01*
X328147068Y-350301914D01*
X328152701Y-350297764D01*
X329596757Y-349102683D01*
X329602850Y-349096902D01*
X330749998Y-347850001D01*
X330826859Y-347709090D01*
X330876242Y-347659663D01*
X330944508Y-347644780D01*
X331009983Y-347669167D01*
G37*
M02*
