%TF.GenerationSoftware,KiCad,Pcbnew,7.0.2*%
%TF.CreationDate,2023-05-26T22:51:46-07:00*%
%TF.ProjectId,plumbus-bfb,706c756d-6275-4732-9d62-66622e6b6963,rev?*%
%TF.SameCoordinates,Original*%
%TF.FileFunction,Soldermask,Bot*%
%TF.FilePolarity,Negative*%
%FSLAX46Y46*%
G04 Gerber Fmt 4.6, Leading zero omitted, Abs format (unit mm)*
G04 Created by KiCad (PCBNEW 7.0.2) date 2023-05-26 22:51:46*
%MOMM*%
%LPD*%
G01*
G04 APERTURE LIST*
G04 Aperture macros list*
%AMRoundRect*
0 Rectangle with rounded corners*
0 $1 Rounding radius*
0 $2 $3 $4 $5 $6 $7 $8 $9 X,Y pos of 4 corners*
0 Add a 4 corners polygon primitive as box body*
4,1,4,$2,$3,$4,$5,$6,$7,$8,$9,$2,$3,0*
0 Add four circle primitives for the rounded corners*
1,1,$1+$1,$2,$3*
1,1,$1+$1,$4,$5*
1,1,$1+$1,$6,$7*
1,1,$1+$1,$8,$9*
0 Add four rect primitives between the rounded corners*
20,1,$1+$1,$2,$3,$4,$5,0*
20,1,$1+$1,$4,$5,$6,$7,0*
20,1,$1+$1,$6,$7,$8,$9,0*
20,1,$1+$1,$8,$9,$2,$3,0*%
%AMHorizOval*
0 Thick line with rounded ends*
0 $1 width*
0 $2 $3 position (X,Y) of the first rounded end (center of the circle)*
0 $4 $5 position (X,Y) of the second rounded end (center of the circle)*
0 Add line between two ends*
20,1,$1,$2,$3,$4,$5,0*
0 Add two circle primitives to create the rounded ends*
1,1,$1,$2,$3*
1,1,$1,$4,$5*%
%AMRotRect*
0 Rectangle, with rotation*
0 The origin of the aperture is its center*
0 $1 length*
0 $2 width*
0 $3 Rotation angle, in degrees counterclockwise*
0 Add horizontal line*
21,1,$1,$2,0,0,$3*%
G04 Aperture macros list end*
%ADD10C,0.010000*%
%ADD11O,7.000000X2.000000*%
%ADD12HorizOval,2.000000X2.478612X-0.326315X-2.478612X0.326315X0*%
%ADD13R,1.700000X1.700000*%
%ADD14O,1.700000X1.700000*%
%ADD15C,2.170000*%
%ADD16R,2.170000X2.170000*%
%ADD17RotRect,0.800000X1.000000X247.500000*%
%ADD18RotRect,0.700000X1.500000X337.500000*%
%ADD19C,0.001000*%
%ADD20RotRect,1.700000X1.700000X157.500000*%
%ADD21HorizOval,1.700000X0.000000X0.000000X0.000000X0.000000X0*%
%ADD22RotRect,1.700000X1.700000X67.500000*%
%ADD23HorizOval,1.700000X0.000000X0.000000X0.000000X0.000000X0*%
%ADD24RoundRect,0.225000X0.250000X-0.225000X0.250000X0.225000X-0.250000X0.225000X-0.250000X-0.225000X0*%
%ADD25RoundRect,0.200000X0.275000X-0.200000X0.275000X0.200000X-0.275000X0.200000X-0.275000X-0.200000X0*%
%ADD26RoundRect,0.150000X-0.416086X-0.334707X0.530891X0.057543X0.416086X0.334707X-0.530891X-0.057543X0*%
%ADD27RoundRect,0.225000X-0.225000X-0.250000X0.225000X-0.250000X0.225000X0.250000X-0.225000X0.250000X0*%
%ADD28RoundRect,0.150000X-0.587500X-0.150000X0.587500X-0.150000X0.587500X0.150000X-0.587500X0.150000X0*%
%ADD29RoundRect,0.225000X-0.250000X0.225000X-0.250000X-0.225000X0.250000X-0.225000X0.250000X0.225000X0*%
%ADD30R,1.900000X1.400000*%
%ADD31RoundRect,0.225000X0.017678X-0.335876X0.335876X-0.017678X-0.017678X0.335876X-0.335876X0.017678X0*%
%ADD32RoundRect,0.225000X0.225000X0.250000X-0.225000X0.250000X-0.225000X-0.250000X0.225000X-0.250000X0*%
%ADD33RoundRect,0.150000X0.057543X0.530891X-0.334707X-0.416086X-0.057543X-0.530891X0.334707X0.416086X0*%
%ADD34RoundRect,0.200000X-0.275000X0.200000X-0.275000X-0.200000X0.275000X-0.200000X0.275000X0.200000X0*%
%ADD35RoundRect,0.150000X-0.057543X-0.530891X0.334707X0.416086X0.057543X0.530891X-0.334707X-0.416086X0*%
%ADD36RoundRect,0.225000X-0.303544X-0.144866X0.112202X-0.317074X0.303544X0.144866X-0.112202X0.317074X0*%
%ADD37RoundRect,0.150000X-0.256326X-0.468458X0.468458X0.256326X0.256326X0.468458X-0.468458X-0.256326X0*%
%ADD38RoundRect,0.200000X-0.200000X-0.275000X0.200000X-0.275000X0.200000X0.275000X-0.200000X0.275000X0*%
%ADD39RoundRect,0.150000X0.150000X-0.587500X0.150000X0.587500X-0.150000X0.587500X-0.150000X-0.587500X0*%
%ADD40RoundRect,0.250000X0.787500X1.025000X-0.787500X1.025000X-0.787500X-1.025000X0.787500X-1.025000X0*%
%ADD41RoundRect,0.150000X-0.468458X0.256326X0.256326X-0.468458X0.468458X-0.256326X-0.256326X0.468458X0*%
%ADD42RoundRect,0.150000X0.334707X-0.416086X-0.057543X0.530891X-0.334707X0.416086X0.057543X-0.530891X0*%
%ADD43RoundRect,0.225000X0.112202X0.317074X-0.303544X0.144866X-0.112202X-0.317074X0.303544X-0.144866X0*%
%ADD44RoundRect,0.150000X-0.334707X0.416086X0.057543X-0.530891X0.334707X-0.416086X-0.057543X0.530891X0*%
%ADD45RotRect,1.160000X1.160000X202.500000*%
%ADD46C,1.160000*%
%ADD47RoundRect,0.150000X0.416086X0.334707X-0.530891X-0.057543X-0.416086X-0.334707X0.530891X0.057543X0*%
%ADD48RoundRect,0.225000X-0.112202X-0.317074X0.303544X-0.144866X0.112202X0.317074X-0.303544X0.144866X0*%
%ADD49RoundRect,0.100000X-0.100000X0.637500X-0.100000X-0.637500X0.100000X-0.637500X0.100000X0.637500X0*%
%ADD50RoundRect,0.150000X0.468458X-0.256326X-0.256326X0.468458X-0.468458X0.256326X0.256326X-0.468458X0*%
%ADD51RoundRect,0.150000X-0.150000X0.825000X-0.150000X-0.825000X0.150000X-0.825000X0.150000X0.825000X0*%
%ADD52RoundRect,0.062500X-0.375000X-0.062500X0.375000X-0.062500X0.375000X0.062500X-0.375000X0.062500X0*%
%ADD53RoundRect,0.062500X-0.062500X-0.375000X0.062500X-0.375000X0.062500X0.375000X-0.062500X0.375000X0*%
%ADD54R,3.100000X3.100000*%
%ADD55RoundRect,0.225000X-0.335876X-0.017678X-0.017678X-0.335876X0.335876X0.017678X0.017678X0.335876X0*%
%ADD56RoundRect,0.150000X-0.150000X0.512500X-0.150000X-0.512500X0.150000X-0.512500X0.150000X0.512500X0*%
%ADD57RoundRect,0.225000X-0.144866X0.303544X-0.317074X-0.112202X0.144866X-0.303544X0.317074X0.112202X0*%
%ADD58RoundRect,0.225000X-0.317074X0.112202X-0.144866X-0.303544X0.317074X-0.112202X0.144866X0.303544X0*%
%ADD59RoundRect,0.225000X0.144866X-0.303544X0.317074X0.112202X-0.144866X0.303544X-0.317074X-0.112202X0*%
%ADD60RoundRect,0.150000X-0.512500X-0.150000X0.512500X-0.150000X0.512500X0.150000X-0.512500X0.150000X0*%
%ADD61RoundRect,0.250000X-0.375000X-0.850000X0.375000X-0.850000X0.375000X0.850000X-0.375000X0.850000X0*%
%ADD62RoundRect,0.225000X-0.017678X0.335876X-0.335876X0.017678X0.017678X-0.335876X0.335876X-0.017678X0*%
%ADD63RoundRect,0.225000X0.303544X0.144866X-0.112202X0.317074X-0.303544X-0.144866X0.112202X-0.317074X0*%
%ADD64RoundRect,0.225000X0.317074X-0.112202X0.144866X0.303544X-0.317074X0.112202X-0.144866X-0.303544X0*%
%ADD65RoundRect,0.150000X0.530891X-0.057543X-0.416086X0.334707X-0.530891X0.057543X0.416086X-0.334707X0*%
%ADD66RoundRect,0.150000X-0.530891X0.057543X0.416086X-0.334707X0.530891X-0.057543X-0.416086X0.334707X0*%
%ADD67RoundRect,0.225000X0.335876X0.017678X0.017678X0.335876X-0.335876X-0.017678X-0.017678X-0.335876X0*%
%ADD68RoundRect,0.150000X0.256326X0.468458X-0.468458X-0.256326X-0.256326X-0.468458X0.468458X0.256326X0*%
%ADD69RoundRect,0.250000X-0.412500X-0.925000X0.412500X-0.925000X0.412500X0.925000X-0.412500X0.925000X0*%
%ADD70RoundRect,0.150000X0.512500X0.150000X-0.512500X0.150000X-0.512500X-0.150000X0.512500X-0.150000X0*%
%ADD71RoundRect,0.150000X0.150000X-0.512500X0.150000X0.512500X-0.150000X0.512500X-0.150000X-0.512500X0*%
G04 APERTURE END LIST*
%TO.C,U4*%
D10*
X329920000Y-381005000D02*
X330420000Y-381005000D01*
X330420000Y-381395000D01*
X329920000Y-381395000D01*
X329920000Y-381505000D01*
X330420000Y-381505000D01*
X330420000Y-381895000D01*
X329920000Y-381895000D01*
X329920000Y-382345000D01*
X327380000Y-382345000D01*
X327380000Y-381895000D01*
X326880000Y-381895000D01*
X326880000Y-381505000D01*
X327380000Y-381505000D01*
X327380000Y-381395000D01*
X326880000Y-381395000D01*
X326880000Y-381005000D01*
X327380000Y-381005000D01*
X327380000Y-380555000D01*
X329920000Y-380555000D01*
X329920000Y-381005000D01*
G36*
X329920000Y-381005000D02*
G01*
X330420000Y-381005000D01*
X330420000Y-381395000D01*
X329920000Y-381395000D01*
X329920000Y-381505000D01*
X330420000Y-381505000D01*
X330420000Y-381895000D01*
X329920000Y-381895000D01*
X329920000Y-382345000D01*
X327380000Y-382345000D01*
X327380000Y-381895000D01*
X326880000Y-381895000D01*
X326880000Y-381505000D01*
X327380000Y-381505000D01*
X327380000Y-381395000D01*
X326880000Y-381395000D01*
X326880000Y-381005000D01*
X327380000Y-381005000D01*
X327380000Y-380555000D01*
X329920000Y-380555000D01*
X329920000Y-381005000D01*
G37*
X327840000Y-383220000D02*
X327460000Y-383220000D01*
X327460000Y-382480000D01*
X327840000Y-382480000D01*
X327840000Y-383220000D01*
G36*
X327840000Y-383220000D02*
G01*
X327460000Y-383220000D01*
X327460000Y-382480000D01*
X327840000Y-382480000D01*
X327840000Y-383220000D01*
G37*
X328340000Y-383220000D02*
X327960000Y-383220000D01*
X327960000Y-382480000D01*
X328340000Y-382480000D01*
X328340000Y-383220000D01*
G36*
X328340000Y-383220000D02*
G01*
X327960000Y-383220000D01*
X327960000Y-382480000D01*
X328340000Y-382480000D01*
X328340000Y-383220000D01*
G37*
X328840000Y-383220000D02*
X328460000Y-383220000D01*
X328460000Y-382480000D01*
X328840000Y-382480000D01*
X328840000Y-383220000D01*
G36*
X328840000Y-383220000D02*
G01*
X328460000Y-383220000D01*
X328460000Y-382480000D01*
X328840000Y-382480000D01*
X328840000Y-383220000D01*
G37*
X329340000Y-383220000D02*
X328960000Y-383220000D01*
X328960000Y-382480000D01*
X329340000Y-382480000D01*
X329340000Y-383220000D01*
G36*
X329340000Y-383220000D02*
G01*
X328960000Y-383220000D01*
X328960000Y-382480000D01*
X329340000Y-382480000D01*
X329340000Y-383220000D01*
G37*
X329840000Y-383220000D02*
X329460000Y-383220000D01*
X329460000Y-382480000D01*
X329840000Y-382480000D01*
X329840000Y-383220000D01*
G36*
X329840000Y-383220000D02*
G01*
X329460000Y-383220000D01*
X329460000Y-382480000D01*
X329840000Y-382480000D01*
X329840000Y-383220000D01*
G37*
X327840000Y-380420000D02*
X327460000Y-380420000D01*
X327460000Y-379680000D01*
X327840000Y-379680000D01*
X327840000Y-380420000D01*
G36*
X327840000Y-380420000D02*
G01*
X327460000Y-380420000D01*
X327460000Y-379680000D01*
X327840000Y-379680000D01*
X327840000Y-380420000D01*
G37*
X328340000Y-380420000D02*
X327960000Y-380420000D01*
X327960000Y-379680000D01*
X328340000Y-379680000D01*
X328340000Y-380420000D01*
G36*
X328340000Y-380420000D02*
G01*
X327960000Y-380420000D01*
X327960000Y-379680000D01*
X328340000Y-379680000D01*
X328340000Y-380420000D01*
G37*
X328840000Y-380420000D02*
X328460000Y-380420000D01*
X328460000Y-379680000D01*
X328840000Y-379680000D01*
X328840000Y-380420000D01*
G36*
X328840000Y-380420000D02*
G01*
X328460000Y-380420000D01*
X328460000Y-379680000D01*
X328840000Y-379680000D01*
X328840000Y-380420000D01*
G37*
X329340000Y-380420000D02*
X328960000Y-380420000D01*
X328960000Y-379680000D01*
X329340000Y-379680000D01*
X329340000Y-380420000D01*
G36*
X329340000Y-380420000D02*
G01*
X328960000Y-380420000D01*
X328960000Y-379680000D01*
X329340000Y-379680000D01*
X329340000Y-380420000D01*
G37*
X329840000Y-380420000D02*
X329460000Y-380420000D01*
X329460000Y-379680000D01*
X329840000Y-379680000D01*
X329840000Y-380420000D01*
G36*
X329840000Y-380420000D02*
G01*
X329460000Y-380420000D01*
X329460000Y-379680000D01*
X329840000Y-379680000D01*
X329840000Y-380420000D01*
G37*
%TD*%
D11*
%TO.C,REF\u002A\u002A*%
X316750000Y-511300000D03*
%TD*%
D12*
%TO.C,REF\u002A\u002A*%
X319100000Y-248100000D03*
%TD*%
D13*
%TO.C,PDI*%
X273100000Y-331890000D03*
D14*
X273100000Y-329350000D03*
X273100000Y-326810000D03*
X273100000Y-324270000D03*
%TD*%
D15*
%TO.C,BT1*%
X342960000Y-439160000D03*
D16*
X342960000Y-425570000D03*
%TD*%
D17*
%TO.C,O\u005CI*%
X345712940Y-378805450D03*
X346516575Y-376865303D03*
X339772255Y-374071714D03*
X338968620Y-376011861D03*
D18*
X344151630Y-378916409D03*
X342765811Y-378342384D03*
X339994173Y-377194334D03*
D19*
X344128417Y-377012608D03*
X341356778Y-375864557D03*
%TD*%
D20*
%TO.C,SAO 1*%
X299731920Y-261489135D03*
D21*
X302078574Y-262461151D03*
X300703936Y-259142481D03*
X303050590Y-260114497D03*
X301675952Y-256795827D03*
X304022606Y-257767843D03*
%TD*%
D22*
%TO.C,SAO 2*%
X350533346Y-260757984D03*
D23*
X349561330Y-263104638D03*
X352880000Y-261730000D03*
X351907984Y-264076654D03*
X355226654Y-262702016D03*
X354254638Y-265048670D03*
%TD*%
D24*
%TO.C,C8*%
X314450000Y-395075000D03*
X314450000Y-393525000D03*
%TD*%
D25*
%TO.C,R9*%
X311070000Y-364432500D03*
X311070000Y-362782500D03*
%TD*%
D26*
%TO.C,U12*%
X334112636Y-477212988D03*
X333385538Y-475457617D03*
X335850913Y-475464698D03*
%TD*%
D27*
%TO.C,C12*%
X315695000Y-361282500D03*
X317245000Y-361282500D03*
%TD*%
D25*
%TO.C,R8*%
X314070000Y-364432500D03*
X314070000Y-362782500D03*
%TD*%
D28*
%TO.C,Q2*%
X312032500Y-359682500D03*
X312032500Y-357782500D03*
X313907500Y-358732500D03*
%TD*%
D29*
%TO.C,C27*%
X266980316Y-430955000D03*
X266980316Y-432505000D03*
%TD*%
D30*
%TO.C,Reset*%
X309800000Y-392350000D03*
X302300000Y-392350000D03*
%TD*%
D31*
%TO.C,C21*%
X350819450Y-468521568D03*
X351915466Y-467425552D03*
%TD*%
D32*
%TO.C,C15*%
X318045000Y-382480316D03*
X316495000Y-382480316D03*
%TD*%
D33*
%TO.C,U18*%
X272657617Y-412785538D03*
X274412988Y-413512636D03*
X272664698Y-415250913D03*
%TD*%
D34*
%TO.C,R14*%
X316450000Y-344725000D03*
X316450000Y-346375000D03*
%TD*%
D27*
%TO.C,C3*%
X296275000Y-392100000D03*
X294725000Y-392100000D03*
%TD*%
D35*
%TO.C,U10*%
X360842383Y-451814462D03*
X359087012Y-451087364D03*
X360835302Y-449349087D03*
%TD*%
D25*
%TO.C,R7*%
X315620000Y-364432500D03*
X315620000Y-362782500D03*
%TD*%
D36*
%TO.C,C24*%
X297825155Y-478306335D03*
X296393141Y-477713175D03*
%TD*%
D37*
%TO.C,U11*%
X349867417Y-467276085D03*
X348523915Y-465932583D03*
X350804334Y-464995666D03*
%TD*%
D29*
%TO.C,C7*%
X318800000Y-349075000D03*
X318800000Y-350625000D03*
%TD*%
D38*
%TO.C,R6*%
X326262500Y-396450000D03*
X327912500Y-396450000D03*
%TD*%
D39*
%TO.C,Q1*%
X327900000Y-394687500D03*
X326000000Y-394687500D03*
X326950000Y-392812500D03*
%TD*%
D32*
%TO.C,C11*%
X288625000Y-385150000D03*
X290175000Y-385150000D03*
%TD*%
D40*
%TO.C,C5*%
X323212500Y-375250000D03*
X316987500Y-375250000D03*
%TD*%
D41*
%TO.C,U15*%
X284104334Y-466504334D03*
X283167417Y-464223915D03*
X281823915Y-465567417D03*
%TD*%
D42*
%TO.C,U8*%
X361712988Y-414887364D03*
X359957617Y-415614462D03*
X359964698Y-413149087D03*
%TD*%
D43*
%TO.C,C30*%
X297446363Y-386350566D03*
X298878377Y-385757406D03*
%TD*%
D44*
%TO.C,U16*%
X273535302Y-451450913D03*
X273542383Y-448985538D03*
X271787012Y-449712636D03*
%TD*%
D24*
%TO.C,C14*%
X312570000Y-364382500D03*
X312570000Y-362832500D03*
%TD*%
D25*
%TO.C,R10*%
X310220000Y-359757500D03*
X310220000Y-358107500D03*
%TD*%
D45*
%TO.C,RV1*%
X293800000Y-379000000D03*
D46*
X291453346Y-379972016D03*
X289106692Y-380944032D03*
%TD*%
D47*
%TO.C,U20*%
X297549087Y-389035302D03*
X300014462Y-389042383D03*
X299287364Y-387287012D03*
%TD*%
D48*
%TO.C,C22*%
X334521623Y-478742593D03*
X335953637Y-478149433D03*
%TD*%
D49*
%TO.C,U2*%
X315825000Y-389237500D03*
X316475000Y-389237500D03*
X317125000Y-389237500D03*
X317775000Y-389237500D03*
X318425000Y-389237500D03*
X319075000Y-389237500D03*
X319725000Y-389237500D03*
X320375000Y-389237500D03*
X321025000Y-389237500D03*
X321675000Y-389237500D03*
X322325000Y-389237500D03*
X322975000Y-389237500D03*
X322975000Y-394962500D03*
X322325000Y-394962500D03*
X321675000Y-394962500D03*
X321025000Y-394962500D03*
X320375000Y-394962500D03*
X319725000Y-394962500D03*
X319075000Y-394962500D03*
X318425000Y-394962500D03*
X317775000Y-394962500D03*
X317125000Y-394962500D03*
X316475000Y-394962500D03*
X315825000Y-394962500D03*
%TD*%
D50*
%TO.C,U7*%
X351676085Y-398932583D03*
X350332583Y-400276085D03*
X349395666Y-397995666D03*
%TD*%
D51*
%TO.C,U3*%
X288745000Y-387225000D03*
X290015000Y-387225000D03*
X291285000Y-387225000D03*
X292555000Y-387225000D03*
X292555000Y-392175000D03*
X291285000Y-392175000D03*
X290015000Y-392175000D03*
X288745000Y-392175000D03*
%TD*%
D52*
%TO.C,U1*%
X312462500Y-353612500D03*
X312462500Y-353112500D03*
X312462500Y-352612500D03*
X312462500Y-352112500D03*
X312462500Y-351612500D03*
X312462500Y-351112500D03*
X312462500Y-350612500D03*
X312462500Y-350112500D03*
D53*
X313150000Y-349425000D03*
X313650000Y-349425000D03*
X314150000Y-349425000D03*
X314650000Y-349425000D03*
X315150000Y-349425000D03*
X315650000Y-349425000D03*
X316150000Y-349425000D03*
X316650000Y-349425000D03*
D52*
X317337500Y-350112500D03*
X317337500Y-350612500D03*
X317337500Y-351112500D03*
X317337500Y-351612500D03*
X317337500Y-352112500D03*
X317337500Y-352612500D03*
X317337500Y-353112500D03*
X317337500Y-353612500D03*
D53*
X316650000Y-354300000D03*
X316150000Y-354300000D03*
X315650000Y-354300000D03*
X315150000Y-354300000D03*
X314650000Y-354300000D03*
X314150000Y-354300000D03*
X313650000Y-354300000D03*
X313150000Y-354300000D03*
D54*
X314900000Y-351862500D03*
%TD*%
D55*
%TO.C,C25*%
X281663272Y-467626643D03*
X280567256Y-466530627D03*
%TD*%
D24*
%TO.C,C2*%
X325150000Y-381075000D03*
X325150000Y-382625000D03*
%TD*%
D56*
%TO.C,U17*%
X268550000Y-431162500D03*
X270450000Y-431162500D03*
X269500000Y-433437500D03*
%TD*%
D57*
%TO.C,C28*%
X271286825Y-411993140D03*
X270693665Y-413425154D03*
%TD*%
D58*
%TO.C,C26*%
X270850567Y-451553638D03*
X270257407Y-450121624D03*
%TD*%
D59*
%TO.C,C20*%
X362213175Y-452606859D03*
X362806335Y-451174845D03*
%TD*%
D60*
%TO.C,U13*%
X317837500Y-479500000D03*
X315562500Y-478550000D03*
X315562500Y-480450000D03*
%TD*%
D61*
%TO.C,L1*%
X329725000Y-378050000D03*
X327575000Y-378050000D03*
%TD*%
D62*
%TO.C,C29*%
X282469373Y-396167255D03*
X281373357Y-397263271D03*
%TD*%
D25*
%TO.C,R13*%
X314950000Y-344725000D03*
X314950000Y-346375000D03*
%TD*%
D34*
%TO.C,R1*%
X331550000Y-381875000D03*
X331550000Y-380225000D03*
%TD*%
D27*
%TO.C,C1*%
X333125000Y-378750000D03*
X331575000Y-378750000D03*
%TD*%
D63*
%TO.C,C16*%
X337006859Y-386786825D03*
X335574845Y-386193665D03*
%TD*%
D64*
%TO.C,C18*%
X362649433Y-413046363D03*
X363242593Y-414478377D03*
%TD*%
D27*
%TO.C,C13*%
X312545000Y-361332500D03*
X314095000Y-361332500D03*
%TD*%
D25*
%TO.C,R11*%
X317307500Y-359807500D03*
X317307500Y-358157500D03*
%TD*%
D65*
%TO.C,U6*%
X336214462Y-388157617D03*
X335487364Y-389912988D03*
X333749087Y-388164698D03*
%TD*%
D32*
%TO.C,C9*%
X312675000Y-355762500D03*
X311125000Y-355762500D03*
%TD*%
D24*
%TO.C,C19*%
X366519684Y-432095000D03*
X366519684Y-433645000D03*
%TD*%
%TO.C,C4*%
X333150000Y-380275000D03*
X333150000Y-381825000D03*
%TD*%
D66*
%TO.C,U14*%
X299650913Y-476335302D03*
X297912636Y-474587012D03*
X297185538Y-476342383D03*
%TD*%
D67*
%TO.C,C17*%
X351836728Y-396873357D03*
X352932744Y-397969373D03*
%TD*%
D38*
%TO.C,R2*%
X315300000Y-387500000D03*
X316950000Y-387500000D03*
%TD*%
D68*
%TO.C,U19*%
X283432583Y-397423915D03*
X284776085Y-398767417D03*
X282495666Y-399704334D03*
%TD*%
D69*
%TO.C,C10*%
X297837500Y-394550000D03*
X294762500Y-394550000D03*
%TD*%
D70*
%TO.C,U5*%
X315562500Y-385000000D03*
X317837500Y-385950000D03*
X317837500Y-384050000D03*
%TD*%
D25*
%TO.C,R12*%
X315737500Y-359807500D03*
X315737500Y-358157500D03*
%TD*%
D71*
%TO.C,U9*%
X364950000Y-433437500D03*
X363050000Y-433437500D03*
X364000000Y-431162500D03*
%TD*%
D27*
%TO.C,C23*%
X316905000Y-482019684D03*
X315355000Y-482019684D03*
%TD*%
D29*
%TO.C,C6*%
X314350000Y-388975000D03*
X314350000Y-390525000D03*
%TD*%
G36*
X331009983Y-347810835D02*
G01*
X331051880Y-347866749D01*
X331059718Y-347910136D01*
X331059718Y-370049398D01*
X334054982Y-370395284D01*
X334073465Y-370398857D01*
X337026328Y-371206351D01*
X337031499Y-371207886D01*
X339937985Y-372140330D01*
X339943060Y-372142080D01*
X342793651Y-373194694D01*
X342798619Y-373196651D01*
X345590349Y-374366445D01*
X345595203Y-374368603D01*
X348325028Y-375652558D01*
X348329763Y-375654909D01*
X350994771Y-377050064D01*
X350999380Y-377052603D01*
X353596526Y-378555936D01*
X353601004Y-378558656D01*
X356127304Y-380167176D01*
X356131648Y-380170072D01*
X358584114Y-381880782D01*
X358588319Y-381883848D01*
X360963975Y-383693766D01*
X360968037Y-383696998D01*
X363263846Y-385603090D01*
X363267763Y-385606483D01*
X365480750Y-387605766D01*
X365484518Y-387609315D01*
X367611710Y-389698811D01*
X367615326Y-389702514D01*
X369653723Y-391879219D01*
X369657182Y-391883072D01*
X371603752Y-394143942D01*
X371607052Y-394147941D01*
X373458829Y-396490010D01*
X373461966Y-396494152D01*
X375215988Y-398914460D01*
X375218955Y-398918742D01*
X376872165Y-401414203D01*
X376874959Y-401418620D01*
X378424400Y-403986283D01*
X378427016Y-403990832D01*
X379869703Y-406627713D01*
X379872134Y-406632389D01*
X381205074Y-409335490D01*
X381207313Y-409340288D01*
X382427481Y-412106539D01*
X382429524Y-412111452D01*
X383533976Y-414937968D01*
X383535814Y-414942990D01*
X384521525Y-417826682D01*
X384523153Y-417831805D01*
X385387145Y-420769720D01*
X385388556Y-420774934D01*
X386127841Y-423764092D01*
X386129028Y-423769387D01*
X386740606Y-426806755D01*
X386741564Y-426812118D01*
X387222448Y-429894734D01*
X387223172Y-429900154D01*
X387570372Y-433025057D01*
X387570856Y-433030518D01*
X387781368Y-436194621D01*
X387781612Y-436200109D01*
X387852446Y-439400369D01*
X387852436Y-439406247D01*
X387760027Y-443060788D01*
X387759710Y-443067056D01*
X387485475Y-446673376D01*
X387484843Y-446679605D01*
X387033244Y-450233433D01*
X387032302Y-450239602D01*
X386407803Y-453736494D01*
X386406558Y-453742581D01*
X385613621Y-457178090D01*
X385612081Y-457184077D01*
X384655166Y-460553752D01*
X384653340Y-460559623D01*
X383536910Y-463859001D01*
X383534808Y-463864741D01*
X382263326Y-467089361D01*
X382260959Y-467094960D01*
X380838866Y-470240408D01*
X380836242Y-470245853D01*
X379268031Y-473307601D01*
X379265162Y-473312884D01*
X377555251Y-476286554D01*
X377552143Y-476291668D01*
X375705038Y-479172719D01*
X375701702Y-479177657D01*
X373721840Y-481961664D01*
X373718283Y-481966421D01*
X371610117Y-484648938D01*
X371606346Y-484653507D01*
X369374364Y-487230035D01*
X369370384Y-487234414D01*
X367019034Y-489700510D01*
X367014853Y-489704691D01*
X364548602Y-492055888D01*
X364544224Y-492059867D01*
X361967524Y-494291713D01*
X361962953Y-494295484D01*
X359280317Y-496403475D01*
X359275561Y-496407032D01*
X356491381Y-498386765D01*
X356486443Y-498390100D01*
X353605249Y-500237064D01*
X353600135Y-500240171D01*
X350626345Y-501949938D01*
X350621062Y-501952807D01*
X347559169Y-503520898D01*
X347553724Y-503523521D01*
X344408178Y-504945482D01*
X344402581Y-504947849D01*
X341177830Y-506219229D01*
X341172090Y-506221330D01*
X337872623Y-507337657D01*
X337866752Y-507339483D01*
X334496975Y-508296315D01*
X334490989Y-508297854D01*
X331055418Y-509090714D01*
X331049331Y-509091959D01*
X327552384Y-509716397D01*
X327546217Y-509717339D01*
X323989234Y-510169289D01*
X323050000Y-510749998D01*
X322500000Y-511349999D01*
X322209927Y-512220218D01*
X322177099Y-512271469D01*
X321411540Y-512989180D01*
X321386109Y-513007576D01*
X320324519Y-513586625D01*
X320272116Y-513601570D01*
X316757021Y-513799604D01*
X316742972Y-513799598D01*
X313277831Y-513601590D01*
X313225527Y-513586651D01*
X312163890Y-513007576D01*
X312138459Y-512989180D01*
X311372900Y-512271469D01*
X311340072Y-512220218D01*
X311049999Y-511349999D01*
X310500000Y-510750000D01*
X309442740Y-510169360D01*
X305885774Y-509717499D01*
X305879607Y-509716558D01*
X302382629Y-509092228D01*
X302376544Y-509090983D01*
X298940979Y-508298262D01*
X298934993Y-508296723D01*
X295565227Y-507340051D01*
X295559357Y-507338226D01*
X292259875Y-506222070D01*
X292254135Y-506219969D01*
X289029401Y-504948785D01*
X289023804Y-504946419D01*
X285878241Y-503524646D01*
X285872796Y-503522023D01*
X282810902Y-501954137D01*
X282805619Y-501951268D01*
X279831844Y-500241717D01*
X279826730Y-500238611D01*
X276945516Y-498391839D01*
X276940577Y-498388503D01*
X274156413Y-496408982D01*
X274151656Y-496405425D01*
X271469011Y-494297619D01*
X271464440Y-494293848D01*
X268887750Y-492062192D01*
X268883371Y-492058213D01*
X266417111Y-489707171D01*
X266412929Y-489702989D01*
X264061589Y-487237049D01*
X264057609Y-487232671D01*
X261825612Y-484656247D01*
X261821840Y-484651676D01*
X259713691Y-481969277D01*
X259710133Y-481964520D01*
X257730256Y-479180555D01*
X257726920Y-479175616D01*
X255879821Y-476294607D01*
X255876713Y-476289493D01*
X254166807Y-473315825D01*
X254163937Y-473310541D01*
X252595710Y-470248715D01*
X252593087Y-470243269D01*
X251171014Y-467097772D01*
X251168646Y-467092174D01*
X249897157Y-463867395D01*
X249895055Y-463861654D01*
X248778618Y-460562064D01*
X248776793Y-460556193D01*
X247819883Y-457186288D01*
X247818343Y-457180301D01*
X247025404Y-453744483D01*
X247024159Y-453738396D01*
X246399660Y-450241136D01*
X246398718Y-450234968D01*
X245947119Y-446680698D01*
X245946487Y-446674469D01*
X245672252Y-443067640D01*
X245671935Y-443061373D01*
X245579526Y-439406220D01*
X245579516Y-439400370D01*
X245648923Y-436232353D01*
X245649161Y-436226921D01*
X245855459Y-433094292D01*
X245855934Y-433088885D01*
X246196213Y-429994746D01*
X246196922Y-429989379D01*
X246668282Y-426936613D01*
X246669221Y-426931301D01*
X247268758Y-423922812D01*
X247269922Y-423917566D01*
X247994739Y-420956219D01*
X247996123Y-420951052D01*
X248843310Y-418039786D01*
X248844907Y-418034707D01*
X249811569Y-415176389D01*
X249813373Y-415171409D01*
X250896628Y-412368898D01*
X250898632Y-412364023D01*
X252095544Y-409620297D01*
X252097742Y-409615535D01*
X253405444Y-406933422D01*
X253407830Y-406928779D01*
X254822790Y-404312350D01*
X254826705Y-404305624D01*
X257970579Y-399274591D01*
X257976407Y-399266076D01*
X261516278Y-394529120D01*
X261522759Y-394521157D01*
X265436127Y-390100348D01*
X265443229Y-390092964D01*
X269706851Y-386011537D01*
X269714543Y-386004759D01*
X274305235Y-382285885D01*
X274313493Y-382279745D01*
X279208001Y-378946650D01*
X279216797Y-378941184D01*
X284393042Y-376016420D01*
X284399965Y-376012791D01*
X287084318Y-374711909D01*
X287089086Y-374709721D01*
X289836082Y-373519198D01*
X289840963Y-373517205D01*
X292646489Y-372440526D01*
X292651475Y-372438734D01*
X295512295Y-371478908D01*
X295518079Y-371477123D01*
X298491590Y-370638522D01*
X298508664Y-370634981D01*
X301426376Y-370241220D01*
X301426377Y-370241219D01*
X301426377Y-348474985D01*
X301446062Y-348407946D01*
X301462695Y-348387304D01*
X301616047Y-348233951D01*
X301677371Y-348200466D01*
X301747062Y-348205450D01*
X301787519Y-348230225D01*
X304099999Y-350349999D01*
X307450000Y-352549999D01*
X311799999Y-354300000D01*
X315245905Y-354549703D01*
X315254103Y-354549753D01*
X317748278Y-354400103D01*
X317751701Y-354399803D01*
X320350001Y-354099999D01*
X322750001Y-353399999D01*
X325746419Y-351951730D01*
X325753324Y-351947828D01*
X328197068Y-350351914D01*
X328202701Y-350347764D01*
X329646757Y-349152683D01*
X329652850Y-349146902D01*
X330800000Y-347900000D01*
X330826859Y-347850759D01*
X330876241Y-347801331D01*
X330944507Y-347786448D01*
X331009983Y-347810835D01*
G37*
M02*
