G04 #@! TF.GenerationSoftware,KiCad,Pcbnew,(6.0.2)*
G04 #@! TF.CreationDate,2023-03-16T16:21:51-07:00*
G04 #@! TF.ProjectId,dingle-bop,64696e67-6c65-42d6-926f-702e6b696361,rev?*
G04 #@! TF.SameCoordinates,Original*
G04 #@! TF.FileFunction,Copper,L1,Top*
G04 #@! TF.FilePolarity,Positive*
%FSLAX46Y46*%
G04 Gerber Fmt 4.6, Leading zero omitted, Abs format (unit mm)*
G04 Created by KiCad (PCBNEW (6.0.2)) date 2023-03-16 16:21:51*
%MOMM*%
%LPD*%
G01*
G04 APERTURE LIST*
G04 #@! TA.AperFunction,SMDPad,CuDef*
%ADD10C,14.500000*%
G04 #@! TD*
G04 APERTURE END LIST*
D10*
X146400000Y-78800000D03*
G04 #@! TA.AperFunction,NonConductor*
G36*
X146522774Y-60018509D02*
G01*
X147395366Y-60041049D01*
X147401871Y-60041385D01*
X148328406Y-60113360D01*
X148334867Y-60114030D01*
X149247773Y-60232532D01*
X149254166Y-60233530D01*
X150152295Y-60397376D01*
X150158593Y-60398691D01*
X150905982Y-60574902D01*
X151040949Y-60606723D01*
X151047134Y-60608348D01*
X151912639Y-60859413D01*
X151918686Y-60861334D01*
X152243464Y-60973591D01*
X152766142Y-61154250D01*
X152772055Y-61156461D01*
X153600414Y-61490097D01*
X153606167Y-61492582D01*
X154414310Y-61865788D01*
X154419867Y-61868523D01*
X155206639Y-62280140D01*
X155212037Y-62283135D01*
X155976285Y-62732005D01*
X155981500Y-62735241D01*
X156722061Y-63220193D01*
X156727077Y-63223654D01*
X157108818Y-63500937D01*
X157442852Y-63743568D01*
X157447676Y-63747253D01*
X158137426Y-64300910D01*
X158142046Y-64304804D01*
X158804671Y-64891085D01*
X158809084Y-64895182D01*
X159443367Y-65512864D01*
X159447569Y-65517156D01*
X160052353Y-66165070D01*
X160056340Y-66169550D01*
X160630497Y-66846554D01*
X160634265Y-66851217D01*
X161176584Y-67556080D01*
X161180127Y-67560919D01*
X161689479Y-68292494D01*
X161692792Y-68297503D01*
X162168020Y-69054613D01*
X162171097Y-69059787D01*
X162611008Y-69841192D01*
X162613843Y-69846522D01*
X163017327Y-70651112D01*
X163019897Y-70656559D01*
X163385780Y-71483118D01*
X163385804Y-71483172D01*
X163388124Y-71488776D01*
X163516524Y-71821362D01*
X163715273Y-72336169D01*
X163717335Y-72341922D01*
X163725018Y-72365110D01*
X164004594Y-73208950D01*
X164004599Y-73208966D01*
X164006388Y-73214839D01*
X164252622Y-74100403D01*
X164254128Y-74106382D01*
X164407736Y-74786069D01*
X164458189Y-75009317D01*
X164459403Y-75015376D01*
X164483868Y-75155282D01*
X164620137Y-75934545D01*
X164621056Y-75940691D01*
X164737308Y-76874963D01*
X164737924Y-76881165D01*
X164808534Y-77829436D01*
X164808843Y-77835673D01*
X164832534Y-78792449D01*
X164832479Y-78800431D01*
X164773944Y-80315844D01*
X164773181Y-80325653D01*
X164764505Y-80399654D01*
X164618742Y-81642890D01*
X164600010Y-81802654D01*
X164598494Y-81812321D01*
X164466905Y-82480413D01*
X164315076Y-83251266D01*
X164312827Y-83260739D01*
X164053060Y-84192943D01*
X163923688Y-84657207D01*
X163920738Y-84666411D01*
X163669452Y-85357987D01*
X163430389Y-86015920D01*
X163426768Y-86024813D01*
X162839721Y-87322796D01*
X162835463Y-87331335D01*
X162166853Y-88553791D01*
X162156207Y-88573255D01*
X162151343Y-88581403D01*
X161384413Y-89762626D01*
X161378985Y-89770336D01*
X160581053Y-90817792D01*
X160528922Y-90886225D01*
X160522913Y-90893527D01*
X159594301Y-91939415D01*
X159587756Y-91946252D01*
X158585150Y-92917532D01*
X158578087Y-92923876D01*
X157506079Y-93815915D01*
X157498492Y-93821755D01*
X156361671Y-94629946D01*
X156353592Y-94635235D01*
X155156544Y-95354991D01*
X155147994Y-95359691D01*
X154859802Y-95503881D01*
X153895214Y-95986489D01*
X153886242Y-95990547D01*
X153301587Y-96227858D01*
X152590806Y-96516363D01*
X152578044Y-96520763D01*
X152556341Y-96526966D01*
X152540435Y-96531512D01*
X152488272Y-96564424D01*
X152484534Y-96566692D01*
X152431267Y-96597747D01*
X152425320Y-96604023D01*
X152424686Y-96604543D01*
X152417369Y-96609160D01*
X152376533Y-96655399D01*
X152373582Y-96658623D01*
X152372139Y-96660147D01*
X152340459Y-96693579D01*
X152331179Y-96703372D01*
X152327229Y-96711072D01*
X152326769Y-96711746D01*
X152321044Y-96718228D01*
X152317232Y-96726346D01*
X152317228Y-96726353D01*
X152294832Y-96774054D01*
X152292887Y-96778015D01*
X152264760Y-96832845D01*
X152263131Y-96841339D01*
X152262878Y-96842116D01*
X152259201Y-96849948D01*
X152257820Y-96858817D01*
X152257819Y-96858821D01*
X152249716Y-96910871D01*
X152248966Y-96915191D01*
X152237349Y-96975754D01*
X152238200Y-96984687D01*
X152238200Y-96984689D01*
X152241432Y-97018610D01*
X152242000Y-97030560D01*
X152242000Y-113577212D01*
X152241795Y-113584389D01*
X152239397Y-113626425D01*
X152238640Y-113639685D01*
X152240663Y-113648425D01*
X152240664Y-113648431D01*
X152248949Y-113684215D01*
X152250923Y-113694772D01*
X152256130Y-113731134D01*
X152256133Y-113731143D01*
X152257405Y-113740028D01*
X152261121Y-113748201D01*
X152261292Y-113748577D01*
X152269343Y-113772307D01*
X152271460Y-113781450D01*
X152275857Y-113789274D01*
X152275858Y-113789277D01*
X152293852Y-113821295D01*
X152298710Y-113830874D01*
X152301291Y-113836549D01*
X152317633Y-113872493D01*
X152323490Y-113879291D01*
X152323491Y-113879292D01*
X152323761Y-113879605D01*
X152338149Y-113900121D01*
X152342749Y-113908306D01*
X152349166Y-113914582D01*
X152375428Y-113940269D01*
X152382776Y-113948096D01*
X152412619Y-113982730D01*
X152420146Y-113987609D01*
X152420151Y-113987613D01*
X152462535Y-114015084D01*
X152467189Y-114018251D01*
X152607341Y-114118276D01*
X153067185Y-114446465D01*
X153073282Y-114451103D01*
X153642611Y-114912124D01*
X153648388Y-114917098D01*
X154188986Y-115411885D01*
X154194435Y-115417183D01*
X154704711Y-115944164D01*
X154709822Y-115949771D01*
X155188174Y-116507348D01*
X155192939Y-116513253D01*
X155637836Y-117099898D01*
X155642238Y-117106082D01*
X156052105Y-117720214D01*
X156056126Y-117726652D01*
X156169032Y-117920249D01*
X156429377Y-118366657D01*
X156433033Y-118373387D01*
X156768141Y-119037723D01*
X156771398Y-119044702D01*
X157066818Y-119731813D01*
X157069656Y-119739018D01*
X157226336Y-120175614D01*
X157323866Y-120447389D01*
X157326271Y-120454807D01*
X157539103Y-121187643D01*
X157540610Y-121193322D01*
X157628684Y-121559543D01*
X157629545Y-121563384D01*
X157707505Y-121938770D01*
X157708246Y-121942646D01*
X157774743Y-122322180D01*
X157775365Y-122326089D01*
X157830215Y-122709663D01*
X157830715Y-122713598D01*
X157873720Y-123101006D01*
X157874096Y-123104962D01*
X157905060Y-123496041D01*
X157905311Y-123500013D01*
X157924035Y-123894554D01*
X157924161Y-123898536D01*
X157930403Y-124293486D01*
X157930380Y-124298613D01*
X157914705Y-124928212D01*
X157914392Y-124934483D01*
X157868112Y-125552623D01*
X157867489Y-125558858D01*
X157791304Y-126167802D01*
X157790376Y-126173978D01*
X157685047Y-126773070D01*
X157683818Y-126779169D01*
X157550110Y-127367635D01*
X157548590Y-127373640D01*
X157387237Y-127950833D01*
X157385438Y-127956711D01*
X157287330Y-128251254D01*
X157197210Y-128521815D01*
X157195130Y-128527587D01*
X156980765Y-129079896D01*
X156978418Y-129085534D01*
X156738657Y-129624311D01*
X156736052Y-129629803D01*
X156471677Y-130154221D01*
X156468823Y-130159561D01*
X156180530Y-130668962D01*
X156177449Y-130674114D01*
X155866016Y-131167681D01*
X155862705Y-131172661D01*
X155824887Y-131226696D01*
X155528914Y-131649583D01*
X155525354Y-131654420D01*
X155169946Y-132113952D01*
X155166171Y-132118600D01*
X154789899Y-132559976D01*
X154785899Y-132564448D01*
X154389535Y-132986886D01*
X154385346Y-132991142D01*
X154159821Y-133209634D01*
X153969679Y-133393846D01*
X153965258Y-133397929D01*
X153531072Y-133780119D01*
X153526447Y-133783998D01*
X153112028Y-134114947D01*
X153074441Y-134144963D01*
X153069617Y-134148628D01*
X153001867Y-134197589D01*
X152600630Y-134487546D01*
X152595610Y-134490993D01*
X152110388Y-134807121D01*
X152105178Y-134810338D01*
X151604447Y-135102943D01*
X151599053Y-135105920D01*
X151083626Y-135374213D01*
X151078056Y-135376940D01*
X150548648Y-135620192D01*
X150542910Y-135622658D01*
X150000286Y-135840106D01*
X149994394Y-135842299D01*
X149439226Y-136033225D01*
X149433190Y-136035132D01*
X148866287Y-136198755D01*
X148860123Y-136200367D01*
X148282141Y-136335957D01*
X148275868Y-136337261D01*
X147687508Y-136444061D01*
X147681144Y-136445049D01*
X147083054Y-136522301D01*
X147076638Y-136522962D01*
X146873460Y-136538667D01*
X146469563Y-136569886D01*
X146463090Y-136570219D01*
X146068273Y-136580367D01*
X145847611Y-136586038D01*
X145841153Y-136586038D01*
X145590431Y-136579594D01*
X145225671Y-136570218D01*
X145219199Y-136569885D01*
X144899604Y-136545182D01*
X144612132Y-136522962D01*
X144605727Y-136522301D01*
X144345827Y-136488732D01*
X144007642Y-136445051D01*
X144001278Y-136444063D01*
X143412913Y-136337262D01*
X143406640Y-136335958D01*
X142828646Y-136200366D01*
X142822482Y-136198754D01*
X142255595Y-136035136D01*
X142249559Y-136033229D01*
X141694378Y-135842299D01*
X141688486Y-135840106D01*
X141145863Y-135622658D01*
X141140125Y-135620192D01*
X140610714Y-135376939D01*
X140605144Y-135374212D01*
X140089720Y-135105921D01*
X140084327Y-135102944D01*
X139583603Y-134810345D01*
X139578392Y-134807128D01*
X139093149Y-134490986D01*
X139088129Y-134487539D01*
X138619156Y-134148631D01*
X138614331Y-134144965D01*
X138162341Y-133784014D01*
X138157715Y-133780135D01*
X138097756Y-133727357D01*
X137723496Y-133397918D01*
X137719087Y-133393846D01*
X137303419Y-132991142D01*
X137299206Y-132986861D01*
X136902870Y-132564452D01*
X136898870Y-132559981D01*
X136638422Y-132254470D01*
X136522590Y-132118596D01*
X136518815Y-132113948D01*
X136242057Y-131756109D01*
X136163406Y-131654416D01*
X136159870Y-131649612D01*
X135826054Y-131172657D01*
X135822727Y-131167652D01*
X135817057Y-131158666D01*
X135511306Y-130674106D01*
X135508214Y-130668935D01*
X135476153Y-130612283D01*
X135219937Y-130159559D01*
X135217083Y-130154221D01*
X134952699Y-129629789D01*
X134950094Y-129624296D01*
X134710344Y-129085543D01*
X134707997Y-129079905D01*
X134493630Y-128527593D01*
X134491550Y-128521821D01*
X134401428Y-128251254D01*
X134303317Y-127956701D01*
X134301515Y-127950816D01*
X134218929Y-127655389D01*
X134140166Y-127373640D01*
X134138651Y-127367655D01*
X134138647Y-127367635D01*
X134049841Y-126976795D01*
X134004941Y-126779184D01*
X134003712Y-126773084D01*
X133898379Y-126173972D01*
X133897451Y-126167796D01*
X133821266Y-125558848D01*
X133820643Y-125552613D01*
X133774363Y-124934470D01*
X133774050Y-124928199D01*
X133758499Y-124303600D01*
X133758523Y-124296503D01*
X133758619Y-124293486D01*
X133783606Y-123501918D01*
X133784107Y-123493985D01*
X133792059Y-123410296D01*
X133858079Y-122715413D01*
X133859077Y-122707547D01*
X133980426Y-121944294D01*
X133981908Y-121936544D01*
X134149089Y-121190001D01*
X134151041Y-121182402D01*
X134231314Y-120905931D01*
X134362508Y-120454080D01*
X134364911Y-120446672D01*
X134619119Y-119738108D01*
X134621958Y-119730900D01*
X134917374Y-119043613D01*
X134920630Y-119036634D01*
X135255755Y-118372104D01*
X135259410Y-118365372D01*
X135632651Y-117725260D01*
X135636692Y-117718789D01*
X135970047Y-117219238D01*
X136046526Y-117104630D01*
X136050932Y-117098440D01*
X136469550Y-116546435D01*
X136495812Y-116511804D01*
X136500580Y-116505896D01*
X136509214Y-116495834D01*
X136978916Y-115948406D01*
X136984033Y-115942795D01*
X137079624Y-115844105D01*
X137494247Y-115416037D01*
X137499707Y-115410731D01*
X138040226Y-114916280D01*
X138046018Y-114911295D01*
X138326483Y-114684374D01*
X138615272Y-114450719D01*
X138621385Y-114446074D01*
X139218461Y-114020464D01*
X139224362Y-114016503D01*
X139263793Y-113991624D01*
X139263794Y-113991623D01*
X139271386Y-113986833D01*
X139301536Y-113952695D01*
X139309019Y-113944921D01*
X139341977Y-113913500D01*
X139346775Y-113905212D01*
X139361370Y-113884945D01*
X139361768Y-113884494D01*
X139367711Y-113877765D01*
X139371526Y-113869640D01*
X139371529Y-113869635D01*
X139387063Y-113836549D01*
X139392072Y-113826971D01*
X139410386Y-113795335D01*
X139410386Y-113795334D01*
X139414883Y-113787567D01*
X139417162Y-113778269D01*
X139425484Y-113754714D01*
X139429554Y-113746045D01*
X139436560Y-113701051D01*
X139438680Y-113690452D01*
X139447377Y-113654955D01*
X139449514Y-113646234D01*
X139446878Y-113586628D01*
X139446755Y-113581061D01*
X139446755Y-96560657D01*
X139448305Y-96540954D01*
X139450520Y-96526966D01*
X139450520Y-96526963D01*
X139451923Y-96518102D01*
X139447087Y-96480364D01*
X139446755Y-96477033D01*
X139446755Y-96474040D01*
X139442331Y-96443146D01*
X139442081Y-96441302D01*
X139434459Y-96381828D01*
X139434459Y-96381827D01*
X139433426Y-96373768D01*
X139431892Y-96370258D01*
X139431350Y-96366472D01*
X139403183Y-96304523D01*
X139402426Y-96302823D01*
X139378412Y-96247866D01*
X139378407Y-96247857D01*
X139375161Y-96240428D01*
X139372707Y-96237494D01*
X139371122Y-96234007D01*
X139326643Y-96182387D01*
X139325505Y-96181046D01*
X139281815Y-96128798D01*
X139278633Y-96126668D01*
X139276136Y-96123770D01*
X139218986Y-96086727D01*
X139217525Y-96085765D01*
X139188902Y-96066606D01*
X139186168Y-96065335D01*
X139183359Y-96063636D01*
X139161564Y-96049509D01*
X139154028Y-96044624D01*
X139128104Y-96036871D01*
X139111076Y-96030403D01*
X138542306Y-95765824D01*
X138538147Y-95763795D01*
X137949855Y-95463323D01*
X137945786Y-95461150D01*
X137855329Y-95410691D01*
X137369658Y-95139775D01*
X137365740Y-95137494D01*
X136802389Y-94795767D01*
X136798537Y-94793334D01*
X136248355Y-94431685D01*
X136244601Y-94429119D01*
X136017323Y-94267687D01*
X135708088Y-94048041D01*
X135704472Y-94045373D01*
X135257026Y-93702716D01*
X135182084Y-93645325D01*
X135178552Y-93642518D01*
X134670821Y-93224025D01*
X134667402Y-93221103D01*
X134502253Y-93074775D01*
X134174773Y-92784616D01*
X134171505Y-92781614D01*
X133694417Y-92327576D01*
X133691235Y-92324438D01*
X133230293Y-91853453D01*
X133227224Y-91850205D01*
X132782782Y-91362632D01*
X132779834Y-91359279D01*
X132352472Y-90855711D01*
X132349645Y-90852258D01*
X131939784Y-90333114D01*
X131937081Y-90329563D01*
X131545183Y-89795306D01*
X131542606Y-89791659D01*
X131169208Y-89242851D01*
X131166759Y-89239111D01*
X130812324Y-88676226D01*
X130810006Y-88672395D01*
X130474948Y-88095811D01*
X130472803Y-88091965D01*
X130157635Y-87502222D01*
X130155608Y-87498260D01*
X129860876Y-86895984D01*
X129858966Y-86891898D01*
X129659787Y-86445049D01*
X129585056Y-86277392D01*
X129583291Y-86273234D01*
X129547086Y-86183477D01*
X129330717Y-85647067D01*
X129329104Y-85642851D01*
X129228994Y-85366358D01*
X129098345Y-85005524D01*
X129096872Y-85001216D01*
X129069997Y-84917680D01*
X128888358Y-84353081D01*
X128887064Y-84348792D01*
X128701295Y-83690392D01*
X128700141Y-83685996D01*
X128622048Y-83364986D01*
X128537601Y-83017852D01*
X128536601Y-83013390D01*
X128516606Y-82915827D01*
X128397761Y-82335957D01*
X128396920Y-82331436D01*
X128338995Y-81984766D01*
X128282251Y-81645170D01*
X128281573Y-81640598D01*
X128191544Y-80945928D01*
X128191033Y-80941324D01*
X128190703Y-80937745D01*
X128130049Y-80281149D01*
X128126129Y-80238714D01*
X128125788Y-80234087D01*
X128086493Y-79524068D01*
X128086321Y-79519425D01*
X128073149Y-78804282D01*
X128073163Y-78800000D01*
X138636553Y-78800000D01*
X138655464Y-79341551D01*
X138712106Y-79880463D01*
X138806203Y-80414111D01*
X138937296Y-80939896D01*
X138937978Y-80941995D01*
X138937980Y-80942002D01*
X138965174Y-81025695D01*
X139104746Y-81455255D01*
X139105571Y-81457296D01*
X139105575Y-81457308D01*
X139306910Y-81955630D01*
X139306916Y-81955643D01*
X139307738Y-81957678D01*
X139308702Y-81959654D01*
X139308704Y-81959659D01*
X139490032Y-82331436D01*
X139545283Y-82444718D01*
X139816224Y-82914000D01*
X140119239Y-83363240D01*
X140452855Y-83790248D01*
X140454322Y-83791877D01*
X140454331Y-83791888D01*
X140567104Y-83917134D01*
X140815444Y-84192943D01*
X141205240Y-84569365D01*
X141206920Y-84570775D01*
X141206927Y-84570781D01*
X141336323Y-84679357D01*
X141620345Y-84917680D01*
X141622128Y-84918976D01*
X141622139Y-84918984D01*
X142056948Y-85234890D01*
X142058736Y-85236189D01*
X142518276Y-85523342D01*
X142996729Y-85777740D01*
X142998735Y-85778633D01*
X142998745Y-85778638D01*
X143489767Y-85997255D01*
X143489773Y-85997257D01*
X143491762Y-85998143D01*
X143493811Y-85998889D01*
X143493819Y-85998892D01*
X143854205Y-86130061D01*
X144000963Y-86183477D01*
X144003080Y-86184084D01*
X144003083Y-86184085D01*
X144519728Y-86332230D01*
X144521852Y-86332839D01*
X145051892Y-86445503D01*
X145588499Y-86520918D01*
X145590687Y-86521071D01*
X146126870Y-86558565D01*
X146126874Y-86558565D01*
X146129060Y-86558718D01*
X146670940Y-86558718D01*
X146673126Y-86558565D01*
X146673130Y-86558565D01*
X147209313Y-86521071D01*
X147211501Y-86520918D01*
X147748108Y-86445503D01*
X148278148Y-86332839D01*
X148280272Y-86332230D01*
X148796917Y-86184085D01*
X148796920Y-86184084D01*
X148799037Y-86183477D01*
X148945795Y-86130061D01*
X149306181Y-85998892D01*
X149306189Y-85998889D01*
X149308238Y-85998143D01*
X149310227Y-85997257D01*
X149310233Y-85997255D01*
X149801255Y-85778638D01*
X149801265Y-85778633D01*
X149803271Y-85777740D01*
X150281724Y-85523342D01*
X150741264Y-85236189D01*
X150743052Y-85234890D01*
X151177861Y-84918984D01*
X151177872Y-84918976D01*
X151179655Y-84917680D01*
X151463677Y-84679357D01*
X151593073Y-84570781D01*
X151593080Y-84570775D01*
X151594760Y-84569365D01*
X151984556Y-84192943D01*
X152232896Y-83917134D01*
X152345669Y-83791888D01*
X152345678Y-83791877D01*
X152347145Y-83790248D01*
X152680761Y-83363240D01*
X152983776Y-82914000D01*
X153254717Y-82444718D01*
X153309969Y-82331436D01*
X153491296Y-81959659D01*
X153491298Y-81959654D01*
X153492262Y-81957678D01*
X153493084Y-81955643D01*
X153493090Y-81955630D01*
X153694425Y-81457308D01*
X153694429Y-81457296D01*
X153695254Y-81455255D01*
X153834827Y-81025695D01*
X153862020Y-80942002D01*
X153862022Y-80941995D01*
X153862704Y-80939896D01*
X153993797Y-80414111D01*
X154087894Y-79880463D01*
X154144536Y-79341551D01*
X154163447Y-78800000D01*
X154144536Y-78258449D01*
X154113391Y-77962123D01*
X154088124Y-77721723D01*
X154088123Y-77721716D01*
X154087894Y-77719537D01*
X153993797Y-77185889D01*
X153862704Y-76660104D01*
X153695254Y-76144745D01*
X153612811Y-75940691D01*
X153493090Y-75644370D01*
X153493084Y-75644357D01*
X153492262Y-75642322D01*
X153254717Y-75155282D01*
X152983776Y-74686000D01*
X152680761Y-74236760D01*
X152347145Y-73809752D01*
X152345678Y-73808123D01*
X152345669Y-73808112D01*
X152177399Y-73621231D01*
X151984556Y-73407057D01*
X151594760Y-73030635D01*
X151593080Y-73029225D01*
X151593073Y-73029219D01*
X151181351Y-72683743D01*
X151181349Y-72683741D01*
X151179655Y-72682320D01*
X151177872Y-72681024D01*
X151177861Y-72681016D01*
X150743052Y-72365110D01*
X150743051Y-72365109D01*
X150741264Y-72363811D01*
X150281724Y-72076658D01*
X149803271Y-71822260D01*
X149801265Y-71821367D01*
X149801255Y-71821362D01*
X149310233Y-71602745D01*
X149310227Y-71602743D01*
X149308238Y-71601857D01*
X149306189Y-71601111D01*
X149306181Y-71601108D01*
X148801111Y-71417278D01*
X148799037Y-71416523D01*
X148278148Y-71267161D01*
X147748108Y-71154497D01*
X147211501Y-71079082D01*
X147205351Y-71078652D01*
X146673130Y-71041435D01*
X146673126Y-71041435D01*
X146670940Y-71041282D01*
X146129060Y-71041282D01*
X146126874Y-71041435D01*
X146126870Y-71041435D01*
X145594649Y-71078652D01*
X145588499Y-71079082D01*
X145051892Y-71154497D01*
X144521852Y-71267161D01*
X144000963Y-71416523D01*
X143998889Y-71417278D01*
X143493819Y-71601108D01*
X143493811Y-71601111D01*
X143491762Y-71601857D01*
X143489773Y-71602743D01*
X143489767Y-71602745D01*
X142998746Y-71821362D01*
X142996729Y-71822260D01*
X142994804Y-71823284D01*
X142994799Y-71823286D01*
X142520225Y-72075622D01*
X142520220Y-72075625D01*
X142518277Y-72076658D01*
X142516418Y-72077820D01*
X142516407Y-72077826D01*
X142256228Y-72240404D01*
X142058736Y-72363811D01*
X142056949Y-72365109D01*
X142056948Y-72365110D01*
X141622139Y-72681016D01*
X141622128Y-72681024D01*
X141620345Y-72682320D01*
X141618651Y-72683741D01*
X141618649Y-72683743D01*
X141206927Y-73029219D01*
X141206920Y-73029225D01*
X141205240Y-73030635D01*
X140815444Y-73407057D01*
X140622601Y-73621231D01*
X140454331Y-73808112D01*
X140454322Y-73808123D01*
X140452855Y-73809752D01*
X140119239Y-74236760D01*
X139816224Y-74686000D01*
X139545283Y-75155282D01*
X139307738Y-75642322D01*
X139306916Y-75644357D01*
X139306910Y-75644370D01*
X139187189Y-75940691D01*
X139104746Y-76144745D01*
X138937296Y-76660104D01*
X138806203Y-77185889D01*
X138712106Y-77719537D01*
X138711877Y-77721716D01*
X138711876Y-77721723D01*
X138686609Y-77962123D01*
X138655464Y-78258449D01*
X138636553Y-78800000D01*
X128073163Y-78800000D01*
X128073167Y-78798844D01*
X128097007Y-77835661D01*
X128097316Y-77829426D01*
X128167900Y-76881149D01*
X128168516Y-76874949D01*
X128259082Y-76146849D01*
X128284728Y-75940669D01*
X128285645Y-75934531D01*
X128446327Y-75015344D01*
X128447543Y-75009274D01*
X128651532Y-74106362D01*
X128653037Y-74100384D01*
X128899195Y-73214822D01*
X128900982Y-73208950D01*
X129188170Y-72341877D01*
X129190231Y-72336125D01*
X129517287Y-71488739D01*
X129519615Y-71483118D01*
X129885401Y-70656561D01*
X129887985Y-70651080D01*
X130291373Y-69846480D01*
X130294208Y-69841149D01*
X130734023Y-69059741D01*
X130737100Y-69054567D01*
X131212209Y-68297485D01*
X131215522Y-68292475D01*
X131724781Y-67560895D01*
X131728324Y-67556055D01*
X132270561Y-66851180D01*
X132274329Y-66846517D01*
X132813972Y-66210110D01*
X132848375Y-66169538D01*
X132852357Y-66165062D01*
X133457083Y-65517125D01*
X133461286Y-65512832D01*
X133464677Y-65509530D01*
X134095486Y-64895163D01*
X134099900Y-64891065D01*
X134762457Y-64304794D01*
X134767078Y-64300898D01*
X135456790Y-63747235D01*
X135461615Y-63743550D01*
X136177324Y-63223660D01*
X136182347Y-63220194D01*
X136922881Y-62735248D01*
X136928097Y-62732010D01*
X137692356Y-62283137D01*
X137697760Y-62280139D01*
X138484542Y-61868528D01*
X138490126Y-61865781D01*
X139298262Y-61492599D01*
X139304015Y-61490113D01*
X139304055Y-61490097D01*
X140132499Y-61156455D01*
X140138407Y-61154247D01*
X140985934Y-60861338D01*
X140991993Y-60859413D01*
X141161611Y-60810217D01*
X141857599Y-60608353D01*
X141863775Y-60606731D01*
X142314376Y-60500512D01*
X142746287Y-60398698D01*
X142752587Y-60397382D01*
X143650923Y-60233531D01*
X143657316Y-60232534D01*
X144570432Y-60114030D01*
X144576887Y-60113360D01*
X144821282Y-60094381D01*
X145503706Y-60041384D01*
X145510209Y-60041048D01*
X146346215Y-60019460D01*
X146449663Y-60016789D01*
X146456168Y-60016789D01*
X146522774Y-60018509D01*
G37*
G04 #@! TD.AperFunction*
M02*
