G04 #@! TF.GenerationSoftware,KiCad,Pcbnew,(6.0.2)*
G04 #@! TF.CreationDate,2023-03-16T16:21:51-07:00*
G04 #@! TF.ProjectId,dingle-bop,64696e67-6c65-42d6-926f-702e6b696361,rev?*
G04 #@! TF.SameCoordinates,Original*
G04 #@! TF.FileFunction,Legend,Top*
G04 #@! TF.FilePolarity,Positive*
%FSLAX46Y46*%
G04 Gerber Fmt 4.6, Leading zero omitted, Abs format (unit mm)*
G04 Created by KiCad (PCBNEW (6.0.2)) date 2023-03-16 16:21:51*
%MOMM*%
%LPD*%
G01*
G04 APERTURE LIST*
%ADD10C,0.150000*%
%ADD11C,0.120000*%
%ADD12C,14.500000*%
G04 APERTURE END LIST*
D10*
X145066666Y-76354380D02*
X144733333Y-75878190D01*
X144495238Y-76354380D02*
X144495238Y-75354380D01*
X144876190Y-75354380D01*
X144971428Y-75402000D01*
X145019047Y-75449619D01*
X145066666Y-75544857D01*
X145066666Y-75687714D01*
X145019047Y-75782952D01*
X144971428Y-75830571D01*
X144876190Y-75878190D01*
X144495238Y-75878190D01*
X145495238Y-75830571D02*
X145828571Y-75830571D01*
X145971428Y-76354380D02*
X145495238Y-76354380D01*
X145495238Y-75354380D01*
X145971428Y-75354380D01*
X146733333Y-75830571D02*
X146400000Y-75830571D01*
X146400000Y-76354380D02*
X146400000Y-75354380D01*
X146876190Y-75354380D01*
X147400000Y-75354380D02*
X147400000Y-75592476D01*
X147161904Y-75497238D02*
X147400000Y-75592476D01*
X147638095Y-75497238D01*
X147257142Y-75782952D02*
X147400000Y-75592476D01*
X147542857Y-75782952D01*
X148161904Y-75354380D02*
X148161904Y-75592476D01*
X147923809Y-75497238D02*
X148161904Y-75592476D01*
X148400000Y-75497238D01*
X148019047Y-75782952D02*
X148161904Y-75592476D01*
X148304761Y-75782952D01*
D11*
X148600000Y-76600000D02*
X148600000Y-81000000D01*
X144200000Y-81000000D02*
X144200000Y-76600000D01*
X148600000Y-81000000D02*
X144200000Y-81000000D01*
X144200000Y-76600000D02*
X148600000Y-76600000D01*
%LPC*%
D12*
X146400000Y-78800000D03*
M02*
